<?xml version="1.0" encoding="utf-8" standalone="no"?>
<!DOCTYPE svg PUBLIC "-//W3C//DTD SVG 1.1//EN"
  "http://www.w3.org/Graphics/SVG/1.1/DTD/svg11.dtd">
<!-- Created with matplotlib (https://matplotlib.org/) -->
<svg height="288pt" version="1.1" viewBox="0 0 432 288" width="432pt" xmlns="http://www.w3.org/2000/svg" xmlns:xlink="http://www.w3.org/1999/xlink">
 <defs>
  <style type="text/css">
*{stroke-linecap:butt;stroke-linejoin:round;}
  </style>
 </defs>
 <g id="figure_1">
  <g id="patch_1">
   <path d="M 0 288 
L 432 288 
L 432 0 
L 0 0 
z
" style="fill:#ffffff;"/>
  </g>
  <g id="axes_1">
   <g id="patch_2">
    <path d="M 59.675 229.55 
L 418.0125 229.55 
L 418.0125 13.0175 
L 59.675 13.0175 
z
" style="fill:#ffffff;"/>
   </g>
   <g id="patch_3">
    <path clip-path="url(#p0fb84a8842)" d="M 59.675 229.55 
L 66.98801 229.55 
L 66.98801 188.963868 
L 59.675 188.963868 
z
" style="fill:#008080;opacity:0.2;"/>
   </g>
   <g id="patch_4">
    <path clip-path="url(#p0fb84a8842)" d="M 66.98801 229.55 
L 74.30102 229.55 
L 74.30102 180.188488 
L 66.98801 180.188488 
z
" style="fill:#008080;opacity:0.2;"/>
   </g>
   <g id="patch_5">
    <path clip-path="url(#p0fb84a8842)" d="M 74.30102 229.55 
L 81.614031 229.55 
L 81.614031 172.51003 
L 74.30102 172.51003 
z
" style="fill:#008080;opacity:0.2;"/>
   </g>
   <g id="patch_6">
    <path clip-path="url(#p0fb84a8842)" d="M 81.614031 229.55 
L 88.927041 229.55 
L 88.927041 92.800329 
L 81.614031 92.800329 
z
" style="fill:#008080;opacity:0.2;"/>
   </g>
   <g id="patch_7">
    <path clip-path="url(#p0fb84a8842)" d="M 88.927041 229.55 
L 96.240051 229.55 
L 96.240051 23.328571 
L 88.927041 23.328571 
z
" style="fill:#008080;opacity:0.2;"/>
   </g>
   <g id="patch_8">
    <path clip-path="url(#p0fb84a8842)" d="M 96.240051 229.55 
L 103.553061 229.55 
L 103.553061 65.377267 
L 96.240051 65.377267 
z
" style="fill:#008080;opacity:0.2;"/>
   </g>
   <g id="patch_9">
    <path clip-path="url(#p0fb84a8842)" d="M 103.553061 229.55 
L 110.866071 229.55 
L 110.866071 144.721327 
L 103.553061 144.721327 
z
" style="fill:#008080;opacity:0.2;"/>
   </g>
   <g id="patch_10">
    <path clip-path="url(#p0fb84a8842)" d="M 110.866071 229.55 
L 118.179082 229.55 
L 118.179082 157.518756 
L 110.866071 157.518756 
z
" style="fill:#008080;opacity:0.2;"/>
   </g>
   <g id="patch_11">
    <path clip-path="url(#p0fb84a8842)" d="M 118.179082 229.55 
L 125.492092 229.55 
L 125.492092 154.227989 
L 118.179082 154.227989 
z
" style="fill:#008080;opacity:0.2;"/>
   </g>
   <g id="patch_12">
    <path clip-path="url(#p0fb84a8842)" d="M 125.492092 229.55 
L 132.805102 229.55 
L 132.805102 161.906446 
L 125.492092 161.906446 
z
" style="fill:#008080;opacity:0.2;"/>
   </g>
   <g id="patch_13">
    <path clip-path="url(#p0fb84a8842)" d="M 132.805102 229.55 
L 140.118112 229.55 
L 140.118112 160.443883 
L 132.805102 160.443883 
z
" style="fill:#008080;opacity:0.2;"/>
   </g>
   <g id="patch_14">
    <path clip-path="url(#p0fb84a8842)" d="M 140.118112 229.55 
L 147.431122 229.55 
L 147.431122 171.047467 
L 140.118112 171.047467 
z
" style="fill:#008080;opacity:0.2;"/>
   </g>
   <g id="patch_15">
    <path clip-path="url(#p0fb84a8842)" d="M 147.431122 229.55 
L 154.744133 229.55 
L 154.744133 175.800798 
L 147.431122 175.800798 
z
" style="fill:#008080;opacity:0.2;"/>
   </g>
   <g id="patch_16">
    <path clip-path="url(#p0fb84a8842)" d="M 154.744133 229.55 
L 162.057143 229.55 
L 162.057143 190.06079 
L 154.744133 190.06079 
z
" style="fill:#008080;opacity:0.2;"/>
   </g>
   <g id="patch_17">
    <path clip-path="url(#p0fb84a8842)" d="M 162.057143 229.55 
L 169.370153 229.55 
L 169.370153 183.113614 
L 162.057143 183.113614 
z
" style="fill:#008080;opacity:0.2;"/>
   </g>
   <g id="patch_18">
    <path clip-path="url(#p0fb84a8842)" d="M 169.370153 229.55 
L 176.683163 229.55 
L 176.683163 184.941819 
L 169.370153 184.941819 
z
" style="fill:#008080;opacity:0.2;"/>
   </g>
   <g id="patch_19">
    <path clip-path="url(#p0fb84a8842)" d="M 176.683163 229.55 
L 183.996173 229.55 
L 183.996173 188.963868 
L 176.683163 188.963868 
z
" style="fill:#008080;opacity:0.2;"/>
   </g>
   <g id="patch_20">
    <path clip-path="url(#p0fb84a8842)" d="M 183.996173 229.55 
L 191.309184 229.55 
L 191.309184 191.157713 
L 183.996173 191.157713 
z
" style="fill:#008080;opacity:0.2;"/>
   </g>
   <g id="patch_21">
    <path clip-path="url(#p0fb84a8842)" d="M 191.309184 229.55 
L 198.622194 229.55 
L 198.622194 190.06079 
L 191.309184 190.06079 
z
" style="fill:#008080;opacity:0.2;"/>
   </g>
   <g id="patch_22">
    <path clip-path="url(#p0fb84a8842)" d="M 198.622194 229.55 
L 205.935204 229.55 
L 205.935204 192.985917 
L 198.622194 192.985917 
z
" style="fill:#008080;opacity:0.2;"/>
   </g>
   <g id="patch_23">
    <path clip-path="url(#p0fb84a8842)" d="M 205.935204 229.55 
L 213.248214 229.55 
L 213.248214 198.83617 
L 205.935204 198.83617 
z
" style="fill:#008080;opacity:0.2;"/>
   </g>
   <g id="patch_24">
    <path clip-path="url(#p0fb84a8842)" d="M 213.248214 229.55 
L 220.561224 229.55 
L 220.561224 195.179762 
L 213.248214 195.179762 
z
" style="fill:#008080;opacity:0.2;"/>
   </g>
   <g id="patch_25">
    <path clip-path="url(#p0fb84a8842)" d="M 220.561224 229.55 
L 227.874235 229.55 
L 227.874235 193.717199 
L 220.561224 193.717199 
z
" style="fill:#008080;opacity:0.2;"/>
   </g>
   <g id="patch_26">
    <path clip-path="url(#p0fb84a8842)" d="M 227.874235 229.55 
L 235.187245 229.55 
L 235.187245 199.567452 
L 227.874235 199.567452 
z
" style="fill:#008080;opacity:0.2;"/>
   </g>
   <g id="patch_27">
    <path clip-path="url(#p0fb84a8842)" d="M 235.187245 229.55 
L 242.500255 229.55 
L 242.500255 203.955142 
L 235.187245 203.955142 
z
" style="fill:#008080;opacity:0.2;"/>
   </g>
   <g id="patch_28">
    <path clip-path="url(#p0fb84a8842)" d="M 242.500255 229.55 
L 249.813265 229.55 
L 249.813265 198.83617 
L 242.500255 198.83617 
z
" style="fill:#008080;opacity:0.2;"/>
   </g>
   <g id="patch_29">
    <path clip-path="url(#p0fb84a8842)" d="M 249.813265 229.55 
L 257.126276 229.55 
L 257.126276 197.739248 
L 249.813265 197.739248 
z
" style="fill:#008080;opacity:0.2;"/>
   </g>
   <g id="patch_30">
    <path clip-path="url(#p0fb84a8842)" d="M 257.126276 229.55 
L 264.439286 229.55 
L 264.439286 202.858219 
L 257.126276 202.858219 
z
" style="fill:#008080;opacity:0.2;"/>
   </g>
   <g id="patch_31">
    <path clip-path="url(#p0fb84a8842)" d="M 264.439286 229.55 
L 271.752296 229.55 
L 271.752296 201.030015 
L 264.439286 201.030015 
z
" style="fill:#008080;opacity:0.2;"/>
   </g>
   <g id="patch_32">
    <path clip-path="url(#p0fb84a8842)" d="M 271.752296 229.55 
L 279.065306 229.55 
L 279.065306 197.007966 
L 271.752296 197.007966 
z
" style="fill:#008080;opacity:0.2;"/>
   </g>
   <g id="patch_33">
    <path clip-path="url(#p0fb84a8842)" d="M 279.065306 229.55 
L 286.378316 229.55 
L 286.378316 199.201811 
L 279.065306 199.201811 
z
" style="fill:#008080;opacity:0.2;"/>
   </g>
   <g id="patch_34">
    <path clip-path="url(#p0fb84a8842)" d="M 286.378316 229.55 
L 293.691327 229.55 
L 293.691327 198.470529 
L 286.378316 198.470529 
z
" style="fill:#008080;opacity:0.2;"/>
   </g>
   <g id="patch_35">
    <path clip-path="url(#p0fb84a8842)" d="M 293.691327 229.55 
L 301.004337 229.55 
L 301.004337 198.83617 
L 293.691327 198.83617 
z
" style="fill:#008080;opacity:0.2;"/>
   </g>
   <g id="patch_36">
    <path clip-path="url(#p0fb84a8842)" d="M 301.004337 229.55 
L 308.317347 229.55 
L 308.317347 200.298734 
L 301.004337 200.298734 
z
" style="fill:#008080;opacity:0.2;"/>
   </g>
   <g id="patch_37">
    <path clip-path="url(#p0fb84a8842)" d="M 308.317347 229.55 
L 315.630357 229.55 
L 315.630357 201.395656 
L 308.317347 201.395656 
z
" style="fill:#008080;opacity:0.2;"/>
   </g>
   <g id="patch_38">
    <path clip-path="url(#p0fb84a8842)" d="M 315.630357 229.55 
L 322.943367 229.55 
L 322.943367 201.761297 
L 315.630357 201.761297 
z
" style="fill:#008080;opacity:0.2;"/>
   </g>
   <g id="patch_39">
    <path clip-path="url(#p0fb84a8842)" d="M 322.943367 229.55 
L 330.256378 229.55 
L 330.256378 207.977191 
L 322.943367 207.977191 
z
" style="fill:#008080;opacity:0.2;"/>
   </g>
   <g id="patch_40">
    <path clip-path="url(#p0fb84a8842)" d="M 330.256378 229.55 
L 337.569388 229.55 
L 337.569388 210.536677 
L 330.256378 210.536677 
z
" style="fill:#008080;opacity:0.2;"/>
   </g>
   <g id="patch_41">
    <path clip-path="url(#p0fb84a8842)" d="M 337.569388 229.55 
L 344.882398 229.55 
L 344.882398 209.074113 
L 337.569388 209.074113 
z
" style="fill:#008080;opacity:0.2;"/>
   </g>
   <g id="patch_42">
    <path clip-path="url(#p0fb84a8842)" d="M 344.882398 229.55 
L 352.195408 229.55 
L 352.195408 211.633599 
L 344.882398 211.633599 
z
" style="fill:#008080;opacity:0.2;"/>
   </g>
   <g id="patch_43">
    <path clip-path="url(#p0fb84a8842)" d="M 352.195408 229.55 
L 359.508418 229.55 
L 359.508418 212.364881 
L 352.195408 212.364881 
z
" style="fill:#008080;opacity:0.2;"/>
   </g>
   <g id="patch_44">
    <path clip-path="url(#p0fb84a8842)" d="M 359.508418 229.55 
L 366.821429 229.55 
L 366.821429 214.924367 
L 359.508418 214.924367 
z
" style="fill:#008080;opacity:0.2;"/>
   </g>
   <g id="patch_45">
    <path clip-path="url(#p0fb84a8842)" d="M 366.821429 229.55 
L 374.134439 229.55 
L 374.134439 216.38693 
L 366.821429 216.38693 
z
" style="fill:#008080;opacity:0.2;"/>
   </g>
   <g id="patch_46">
    <path clip-path="url(#p0fb84a8842)" d="M 374.134439 229.55 
L 381.447449 229.55 
L 381.447449 214.558726 
L 374.134439 214.558726 
z
" style="fill:#008080;opacity:0.2;"/>
   </g>
   <g id="patch_47">
    <path clip-path="url(#p0fb84a8842)" d="M 381.447449 229.55 
L 388.760459 229.55 
L 388.760459 217.483853 
L 381.447449 217.483853 
z
" style="fill:#008080;opacity:0.2;"/>
   </g>
   <g id="patch_48">
    <path clip-path="url(#p0fb84a8842)" d="M 388.760459 229.55 
L 396.073469 229.55 
L 396.073469 221.505902 
L 388.760459 221.505902 
z
" style="fill:#008080;opacity:0.2;"/>
   </g>
   <g id="patch_49">
    <path clip-path="url(#p0fb84a8842)" d="M 396.073469 229.55 
L 403.38648 229.55 
L 403.38648 220.043338 
L 396.073469 220.043338 
z
" style="fill:#008080;opacity:0.2;"/>
   </g>
   <g id="patch_50">
    <path clip-path="url(#p0fb84a8842)" d="M 403.38648 229.55 
L 410.69949 229.55 
L 410.69949 218.580775 
L 403.38648 218.580775 
z
" style="fill:#008080;opacity:0.2;"/>
   </g>
   <g id="patch_51">
    <path clip-path="url(#p0fb84a8842)" d="M 410.69949 229.55 
L 418.0125 229.55 
L 418.0125 220.408979 
L 410.69949 220.408979 
z
" style="fill:#008080;opacity:0.2;"/>
   </g>
   <g id="patch_52">
    <path clip-path="url(#p0fb84a8842)" d="M 59.675 229.55 
L 66.98801 229.55 
L 66.98801 229.55 
L 59.675 229.55 
z
" style="opacity:0.2;"/>
   </g>
   <g id="patch_53">
    <path clip-path="url(#p0fb84a8842)" d="M 66.98801 229.55 
L 74.30102 229.55 
L 74.30102 229.55 
L 66.98801 229.55 
z
" style="opacity:0.2;"/>
   </g>
   <g id="patch_54">
    <path clip-path="url(#p0fb84a8842)" d="M 74.30102 229.55 
L 81.614031 229.55 
L 81.614031 229.55 
L 74.30102 229.55 
z
" style="opacity:0.2;"/>
   </g>
   <g id="patch_55">
    <path clip-path="url(#p0fb84a8842)" d="M 81.614031 229.55 
L 88.927041 229.55 
L 88.927041 229.55 
L 81.614031 229.55 
z
" style="opacity:0.2;"/>
   </g>
   <g id="patch_56">
    <path clip-path="url(#p0fb84a8842)" d="M 88.927041 229.55 
L 96.240051 229.55 
L 96.240051 229.55 
L 88.927041 229.55 
z
" style="opacity:0.2;"/>
   </g>
   <g id="patch_57">
    <path clip-path="url(#p0fb84a8842)" d="M 96.240051 229.55 
L 103.553061 229.55 
L 103.553061 229.55 
L 96.240051 229.55 
z
" style="opacity:0.2;"/>
   </g>
   <g id="patch_58">
    <path clip-path="url(#p0fb84a8842)" d="M 103.553061 229.55 
L 110.866071 229.55 
L 110.866071 228.818718 
L 103.553061 228.818718 
z
" style="opacity:0.2;"/>
   </g>
   <g id="patch_59">
    <path clip-path="url(#p0fb84a8842)" d="M 110.866071 229.55 
L 118.179082 229.55 
L 118.179082 228.453078 
L 110.866071 228.453078 
z
" style="opacity:0.2;"/>
   </g>
   <g id="patch_60">
    <path clip-path="url(#p0fb84a8842)" d="M 118.179082 229.55 
L 125.492092 229.55 
L 125.492092 224.796669 
L 118.179082 224.796669 
z
" style="opacity:0.2;"/>
   </g>
   <g id="patch_61">
    <path clip-path="url(#p0fb84a8842)" d="M 125.492092 229.55 
L 132.805102 229.55 
L 132.805102 206.148987 
L 125.492092 206.148987 
z
" style="opacity:0.2;"/>
   </g>
   <g id="patch_62">
    <path clip-path="url(#p0fb84a8842)" d="M 132.805102 229.55 
L 140.118112 229.55 
L 140.118112 192.620276 
L 132.805102 192.620276 
z
" style="opacity:0.2;"/>
   </g>
   <g id="patch_63">
    <path clip-path="url(#p0fb84a8842)" d="M 140.118112 229.55 
L 147.431122 229.55 
L 147.431122 177.994643 
L 140.118112 177.994643 
z
" style="opacity:0.2;"/>
   </g>
   <g id="patch_64">
    <path clip-path="url(#p0fb84a8842)" d="M 147.431122 229.55 
L 154.744133 229.55 
L 154.744133 160.443883 
L 147.431122 160.443883 
z
" style="opacity:0.2;"/>
   </g>
   <g id="patch_65">
    <path clip-path="url(#p0fb84a8842)" d="M 154.744133 229.55 
L 162.057143 229.55 
L 162.057143 157.153116 
L 154.744133 157.153116 
z
" style="opacity:0.2;"/>
   </g>
   <g id="patch_66">
    <path clip-path="url(#p0fb84a8842)" d="M 162.057143 229.55 
L 169.370153 229.55 
L 169.370153 169.219263 
L 162.057143 169.219263 
z
" style="opacity:0.2;"/>
   </g>
   <g id="patch_67">
    <path clip-path="url(#p0fb84a8842)" d="M 169.370153 229.55 
L 176.683163 229.55 
L 176.683163 161.906446 
L 169.370153 161.906446 
z
" style="opacity:0.2;"/>
   </g>
   <g id="patch_68">
    <path clip-path="url(#p0fb84a8842)" d="M 176.683163 229.55 
L 183.996173 229.55 
L 183.996173 178.725925 
L 176.683163 178.725925 
z
" style="opacity:0.2;"/>
   </g>
   <g id="patch_69">
    <path clip-path="url(#p0fb84a8842)" d="M 183.996173 229.55 
L 191.309184 229.55 
L 191.309184 183.844896 
L 183.996173 183.844896 
z
" style="opacity:0.2;"/>
   </g>
   <g id="patch_70">
    <path clip-path="url(#p0fb84a8842)" d="M 191.309184 229.55 
L 198.622194 229.55 
L 198.622194 186.770023 
L 191.309184 186.770023 
z
" style="opacity:0.2;"/>
   </g>
   <g id="patch_71">
    <path clip-path="url(#p0fb84a8842)" d="M 198.622194 229.55 
L 205.935204 229.55 
L 205.935204 196.642325 
L 198.622194 196.642325 
z
" style="opacity:0.2;"/>
   </g>
   <g id="patch_72">
    <path clip-path="url(#p0fb84a8842)" d="M 205.935204 229.55 
L 213.248214 229.55 
L 213.248214 193.351558 
L 205.935204 193.351558 
z
" style="opacity:0.2;"/>
   </g>
   <g id="patch_73">
    <path clip-path="url(#p0fb84a8842)" d="M 213.248214 229.55 
L 220.561224 229.55 
L 220.561224 197.007966 
L 213.248214 197.007966 
z
" style="opacity:0.2;"/>
   </g>
   <g id="patch_74">
    <path clip-path="url(#p0fb84a8842)" d="M 220.561224 229.55 
L 227.874235 229.55 
L 227.874235 206.514628 
L 220.561224 206.514628 
z
" style="opacity:0.2;"/>
   </g>
   <g id="patch_75">
    <path clip-path="url(#p0fb84a8842)" d="M 227.874235 229.55 
L 235.187245 229.55 
L 235.187245 206.148987 
L 227.874235 206.148987 
z
" style="opacity:0.2;"/>
   </g>
   <g id="patch_76">
    <path clip-path="url(#p0fb84a8842)" d="M 235.187245 229.55 
L 242.500255 229.55 
L 242.500255 211.99924 
L 235.187245 211.99924 
z
" style="opacity:0.2;"/>
   </g>
   <g id="patch_77">
    <path clip-path="url(#p0fb84a8842)" d="M 242.500255 229.55 
L 249.813265 229.55 
L 249.813265 211.267958 
L 242.500255 211.267958 
z
" style="opacity:0.2;"/>
   </g>
   <g id="patch_78">
    <path clip-path="url(#p0fb84a8842)" d="M 249.813265 229.55 
L 257.126276 229.55 
L 257.126276 211.633599 
L 249.813265 211.633599 
z
" style="opacity:0.2;"/>
   </g>
   <g id="patch_79">
    <path clip-path="url(#p0fb84a8842)" d="M 257.126276 229.55 
L 264.439286 229.55 
L 264.439286 211.99924 
L 257.126276 211.99924 
z
" style="opacity:0.2;"/>
   </g>
   <g id="patch_80">
    <path clip-path="url(#p0fb84a8842)" d="M 264.439286 229.55 
L 271.752296 229.55 
L 271.752296 218.580775 
L 264.439286 218.580775 
z
" style="opacity:0.2;"/>
   </g>
   <g id="patch_81">
    <path clip-path="url(#p0fb84a8842)" d="M 271.752296 229.55 
L 279.065306 229.55 
L 279.065306 221.140261 
L 271.752296 221.140261 
z
" style="opacity:0.2;"/>
   </g>
   <g id="patch_82">
    <path clip-path="url(#p0fb84a8842)" d="M 279.065306 229.55 
L 286.378316 229.55 
L 286.378316 220.408979 
L 279.065306 220.408979 
z
" style="opacity:0.2;"/>
   </g>
   <g id="patch_83">
    <path clip-path="url(#p0fb84a8842)" d="M 286.378316 229.55 
L 293.691327 229.55 
L 293.691327 223.334106 
L 286.378316 223.334106 
z
" style="opacity:0.2;"/>
   </g>
   <g id="patch_84">
    <path clip-path="url(#p0fb84a8842)" d="M 293.691327 229.55 
L 301.004337 229.55 
L 301.004337 222.237183 
L 293.691327 222.237183 
z
" style="opacity:0.2;"/>
   </g>
   <g id="patch_85">
    <path clip-path="url(#p0fb84a8842)" d="M 301.004337 229.55 
L 308.317347 229.55 
L 308.317347 222.968465 
L 301.004337 222.968465 
z
" style="opacity:0.2;"/>
   </g>
   <g id="patch_86">
    <path clip-path="url(#p0fb84a8842)" d="M 308.317347 229.55 
L 315.630357 229.55 
L 315.630357 225.16231 
L 308.317347 225.16231 
z
" style="opacity:0.2;"/>
   </g>
   <g id="patch_87">
    <path clip-path="url(#p0fb84a8842)" d="M 315.630357 229.55 
L 322.943367 229.55 
L 322.943367 225.16231 
L 315.630357 225.16231 
z
" style="opacity:0.2;"/>
   </g>
   <g id="patch_88">
    <path clip-path="url(#p0fb84a8842)" d="M 322.943367 229.55 
L 330.256378 229.55 
L 330.256378 226.259233 
L 322.943367 226.259233 
z
" style="opacity:0.2;"/>
   </g>
   <g id="patch_89">
    <path clip-path="url(#p0fb84a8842)" d="M 330.256378 229.55 
L 337.569388 229.55 
L 337.569388 224.065388 
L 330.256378 224.065388 
z
" style="opacity:0.2;"/>
   </g>
   <g id="patch_90">
    <path clip-path="url(#p0fb84a8842)" d="M 337.569388 229.55 
L 344.882398 229.55 
L 344.882398 226.259233 
L 337.569388 226.259233 
z
" style="opacity:0.2;"/>
   </g>
   <g id="patch_91">
    <path clip-path="url(#p0fb84a8842)" d="M 344.882398 229.55 
L 352.195408 229.55 
L 352.195408 226.624873 
L 344.882398 226.624873 
z
" style="opacity:0.2;"/>
   </g>
   <g id="patch_92">
    <path clip-path="url(#p0fb84a8842)" d="M 352.195408 229.55 
L 359.508418 229.55 
L 359.508418 227.356155 
L 352.195408 227.356155 
z
" style="opacity:0.2;"/>
   </g>
   <g id="patch_93">
    <path clip-path="url(#p0fb84a8842)" d="M 359.508418 229.55 
L 366.821429 229.55 
L 366.821429 227.356155 
L 359.508418 227.356155 
z
" style="opacity:0.2;"/>
   </g>
   <g id="patch_94">
    <path clip-path="url(#p0fb84a8842)" d="M 366.821429 229.55 
L 374.134439 229.55 
L 374.134439 227.356155 
L 366.821429 227.356155 
z
" style="opacity:0.2;"/>
   </g>
   <g id="patch_95">
    <path clip-path="url(#p0fb84a8842)" d="M 374.134439 229.55 
L 381.447449 229.55 
L 381.447449 225.893592 
L 374.134439 225.893592 
z
" style="opacity:0.2;"/>
   </g>
   <g id="patch_96">
    <path clip-path="url(#p0fb84a8842)" d="M 381.447449 229.55 
L 388.760459 229.55 
L 388.760459 228.087437 
L 381.447449 228.087437 
z
" style="opacity:0.2;"/>
   </g>
   <g id="patch_97">
    <path clip-path="url(#p0fb84a8842)" d="M 388.760459 229.55 
L 396.073469 229.55 
L 396.073469 227.721796 
L 388.760459 227.721796 
z
" style="opacity:0.2;"/>
   </g>
   <g id="patch_98">
    <path clip-path="url(#p0fb84a8842)" d="M 396.073469 229.55 
L 403.38648 229.55 
L 403.38648 227.721796 
L 396.073469 227.721796 
z
" style="opacity:0.2;"/>
   </g>
   <g id="patch_99">
    <path clip-path="url(#p0fb84a8842)" d="M 403.38648 229.55 
L 410.69949 229.55 
L 410.69949 226.990514 
L 403.38648 226.990514 
z
" style="opacity:0.2;"/>
   </g>
   <g id="patch_100">
    <path clip-path="url(#p0fb84a8842)" d="M 410.69949 229.55 
L 418.0125 229.55 
L 418.0125 227.356155 
L 410.69949 227.356155 
z
" style="opacity:0.2;"/>
   </g>
   <g id="matplotlib.axis_1">
    <g id="xtick_1">
     <g id="line2d_1">
      <defs>
       <path d="M 0 0 
L 0 3.5 
" id="mbc87f003f7" style="stroke:#000000;stroke-width:0.8;"/>
      </defs>
      <g>
       <use style="stroke:#000000;stroke-width:0.8;" x="59.675" xlink:href="#mbc87f003f7" y="234.55"/>
      </g>
     </g>
     <g id="text_1">
      <!-- 0 -->
      <defs>
       <path d="M 31.78125 66.40625 
Q 24.171875 66.40625 20.328125 58.90625 
Q 16.5 51.421875 16.5 36.375 
Q 16.5 21.390625 20.328125 13.890625 
Q 24.171875 6.390625 31.78125 6.390625 
Q 39.453125 6.390625 43.28125 13.890625 
Q 47.125 21.390625 47.125 36.375 
Q 47.125 51.421875 43.28125 58.90625 
Q 39.453125 66.40625 31.78125 66.40625 
z
M 31.78125 74.21875 
Q 44.046875 74.21875 50.515625 64.515625 
Q 56.984375 54.828125 56.984375 36.375 
Q 56.984375 17.96875 50.515625 8.265625 
Q 44.046875 -1.421875 31.78125 -1.421875 
Q 19.53125 -1.421875 13.0625 8.265625 
Q 6.59375 17.96875 6.59375 36.375 
Q 6.59375 54.828125 13.0625 64.515625 
Q 19.53125 74.21875 31.78125 74.21875 
z
" id="DejaVuSans-48"/>
      </defs>
      <g transform="translate(56.49375 249.148438)scale(0.1 -0.1)">
       <use xlink:href="#DejaVuSans-48"/>
      </g>
     </g>
    </g>
    <g id="xtick_2">
     <g id="line2d_2">
      <g>
       <use style="stroke:#000000;stroke-width:0.8;" x="131.3425" xlink:href="#mbc87f003f7" y="234.55"/>
      </g>
     </g>
     <g id="text_2">
      <!-- 1 -->
      <defs>
       <path d="M 12.40625 8.296875 
L 28.515625 8.296875 
L 28.515625 63.921875 
L 10.984375 60.40625 
L 10.984375 69.390625 
L 28.421875 72.90625 
L 38.28125 72.90625 
L 38.28125 8.296875 
L 54.390625 8.296875 
L 54.390625 0 
L 12.40625 0 
z
" id="DejaVuSans-49"/>
      </defs>
      <g transform="translate(128.16125 249.148438)scale(0.1 -0.1)">
       <use xlink:href="#DejaVuSans-49"/>
      </g>
     </g>
    </g>
    <g id="xtick_3">
     <g id="line2d_3">
      <g>
       <use style="stroke:#000000;stroke-width:0.8;" x="203.01" xlink:href="#mbc87f003f7" y="234.55"/>
      </g>
     </g>
     <g id="text_3">
      <!-- 2 -->
      <defs>
       <path d="M 19.1875 8.296875 
L 53.609375 8.296875 
L 53.609375 0 
L 7.328125 0 
L 7.328125 8.296875 
Q 12.9375 14.109375 22.625 23.890625 
Q 32.328125 33.6875 34.8125 36.53125 
Q 39.546875 41.84375 41.421875 45.53125 
Q 43.3125 49.21875 43.3125 52.78125 
Q 43.3125 58.59375 39.234375 62.25 
Q 35.15625 65.921875 28.609375 65.921875 
Q 23.96875 65.921875 18.8125 64.3125 
Q 13.671875 62.703125 7.8125 59.421875 
L 7.8125 69.390625 
Q 13.765625 71.78125 18.9375 73 
Q 24.125 74.21875 28.421875 74.21875 
Q 39.75 74.21875 46.484375 68.546875 
Q 53.21875 62.890625 53.21875 53.421875 
Q 53.21875 48.921875 51.53125 44.890625 
Q 49.859375 40.875 45.40625 35.40625 
Q 44.1875 33.984375 37.640625 27.21875 
Q 31.109375 20.453125 19.1875 8.296875 
z
" id="DejaVuSans-50"/>
      </defs>
      <g transform="translate(199.82875 249.148438)scale(0.1 -0.1)">
       <use xlink:href="#DejaVuSans-50"/>
      </g>
     </g>
    </g>
    <g id="xtick_4">
     <g id="line2d_4">
      <g>
       <use style="stroke:#000000;stroke-width:0.8;" x="274.6775" xlink:href="#mbc87f003f7" y="234.55"/>
      </g>
     </g>
     <g id="text_4">
      <!-- 3 -->
      <defs>
       <path d="M 40.578125 39.3125 
Q 47.65625 37.796875 51.625 33 
Q 55.609375 28.21875 55.609375 21.1875 
Q 55.609375 10.40625 48.1875 4.484375 
Q 40.765625 -1.421875 27.09375 -1.421875 
Q 22.515625 -1.421875 17.65625 -0.515625 
Q 12.796875 0.390625 7.625 2.203125 
L 7.625 11.71875 
Q 11.71875 9.328125 16.59375 8.109375 
Q 21.484375 6.890625 26.8125 6.890625 
Q 36.078125 6.890625 40.9375 10.546875 
Q 45.796875 14.203125 45.796875 21.1875 
Q 45.796875 27.640625 41.28125 31.265625 
Q 36.765625 34.90625 28.71875 34.90625 
L 20.21875 34.90625 
L 20.21875 43.015625 
L 29.109375 43.015625 
Q 36.375 43.015625 40.234375 45.921875 
Q 44.09375 48.828125 44.09375 54.296875 
Q 44.09375 59.90625 40.109375 62.90625 
Q 36.140625 65.921875 28.71875 65.921875 
Q 24.65625 65.921875 20.015625 65.03125 
Q 15.375 64.15625 9.8125 62.3125 
L 9.8125 71.09375 
Q 15.4375 72.65625 20.34375 73.4375 
Q 25.25 74.21875 29.59375 74.21875 
Q 40.828125 74.21875 47.359375 69.109375 
Q 53.90625 64.015625 53.90625 55.328125 
Q 53.90625 49.265625 50.4375 45.09375 
Q 46.96875 40.921875 40.578125 39.3125 
z
" id="DejaVuSans-51"/>
      </defs>
      <g transform="translate(271.49625 249.148438)scale(0.1 -0.1)">
       <use xlink:href="#DejaVuSans-51"/>
      </g>
     </g>
    </g>
    <g id="xtick_5">
     <g id="line2d_5">
      <g>
       <use style="stroke:#000000;stroke-width:0.8;" x="346.345" xlink:href="#mbc87f003f7" y="234.55"/>
      </g>
     </g>
     <g id="text_5">
      <!-- 4 -->
      <defs>
       <path d="M 37.796875 64.3125 
L 12.890625 25.390625 
L 37.796875 25.390625 
z
M 35.203125 72.90625 
L 47.609375 72.90625 
L 47.609375 25.390625 
L 58.015625 25.390625 
L 58.015625 17.1875 
L 47.609375 17.1875 
L 47.609375 0 
L 37.796875 0 
L 37.796875 17.1875 
L 4.890625 17.1875 
L 4.890625 26.703125 
z
" id="DejaVuSans-52"/>
      </defs>
      <g transform="translate(343.16375 249.148438)scale(0.1 -0.1)">
       <use xlink:href="#DejaVuSans-52"/>
      </g>
     </g>
    </g>
    <g id="xtick_6">
     <g id="line2d_6">
      <g>
       <use style="stroke:#000000;stroke-width:0.8;" x="418.0125" xlink:href="#mbc87f003f7" y="234.55"/>
      </g>
     </g>
     <g id="text_6">
      <!-- 5 -->
      <defs>
       <path d="M 10.796875 72.90625 
L 49.515625 72.90625 
L 49.515625 64.59375 
L 19.828125 64.59375 
L 19.828125 46.734375 
Q 21.96875 47.46875 24.109375 47.828125 
Q 26.265625 48.1875 28.421875 48.1875 
Q 40.625 48.1875 47.75 41.5 
Q 54.890625 34.8125 54.890625 23.390625 
Q 54.890625 11.625 47.5625 5.09375 
Q 40.234375 -1.421875 26.90625 -1.421875 
Q 22.3125 -1.421875 17.546875 -0.640625 
Q 12.796875 0.140625 7.71875 1.703125 
L 7.71875 11.625 
Q 12.109375 9.234375 16.796875 8.0625 
Q 21.484375 6.890625 26.703125 6.890625 
Q 35.15625 6.890625 40.078125 11.328125 
Q 45.015625 15.765625 45.015625 23.390625 
Q 45.015625 31 40.078125 35.4375 
Q 35.15625 39.890625 26.703125 39.890625 
Q 22.75 39.890625 18.8125 39.015625 
Q 14.890625 38.140625 10.796875 36.28125 
z
" id="DejaVuSans-53"/>
      </defs>
      <g transform="translate(414.83125 249.148438)scale(0.1 -0.1)">
       <use xlink:href="#DejaVuSans-53"/>
      </g>
     </g>
    </g>
    <g id="text_7">
     <!-- $\hat{K_\mathrm{S}}$ -->
     <defs>
      <path d="M -28.609375 79.984375 
L -21.390625 79.984375 
L -9.421875 61.625 
L -16.21875 61.625 
L -25 73.578125 
L -33.796875 61.625 
L -40.578125 61.625 
z
M -25 56 
z
" id="DejaVuSans-770"/>
      <path d="M 16.890625 72.90625 
L 26.8125 72.90625 
L 20.796875 42.1875 
L 59.078125 72.90625 
L 72.21875 72.90625 
L 28.90625 38.09375 
L 60.59375 0 
L 48.578125 0 
L 19.484375 35.5 
L 12.59375 0 
L 2.6875 0 
z
" id="DejaVuSans-Oblique-75"/>
      <path d="M 53.515625 70.515625 
L 53.515625 60.890625 
Q 47.90625 63.578125 42.921875 64.890625 
Q 37.9375 66.21875 33.296875 66.21875 
Q 25.25 66.21875 20.875 63.09375 
Q 16.5 59.96875 16.5 54.203125 
Q 16.5 49.359375 19.40625 46.890625 
Q 22.3125 44.4375 30.421875 42.921875 
L 36.375 41.703125 
Q 47.40625 39.59375 52.65625 34.296875 
Q 57.90625 29 57.90625 20.125 
Q 57.90625 9.515625 50.796875 4.046875 
Q 43.703125 -1.421875 29.984375 -1.421875 
Q 24.8125 -1.421875 18.96875 -0.25 
Q 13.140625 0.921875 6.890625 3.21875 
L 6.890625 13.375 
Q 12.890625 10.015625 18.65625 8.296875 
Q 24.421875 6.59375 29.984375 6.59375 
Q 38.421875 6.59375 43.015625 9.90625 
Q 47.609375 13.234375 47.609375 19.390625 
Q 47.609375 24.75 44.3125 27.78125 
Q 41.015625 30.8125 33.5 32.328125 
L 27.484375 33.5 
Q 16.453125 35.6875 11.515625 40.375 
Q 6.59375 45.0625 6.59375 53.421875 
Q 6.59375 63.09375 13.40625 68.65625 
Q 20.21875 74.21875 32.171875 74.21875 
Q 37.3125 74.21875 42.625 73.28125 
Q 47.953125 72.359375 53.515625 70.515625 
z
" id="DejaVuSans-83"/>
     </defs>
     <g transform="translate(230.93375 270.236562)scale(0.14 -0.14)">
      <use transform="translate(95.76416 30.015625)" xlink:href="#DejaVuSans-770"/>
      <use transform="translate(0 0.609375)" xlink:href="#DejaVuSans-Oblique-75"/>
      <use transform="translate(65.576172 -15.796875)scale(0.7)" xlink:href="#DejaVuSans-83"/>
     </g>
    </g>
   </g>
   <g id="matplotlib.axis_2">
    <g id="ytick_1">
     <g id="line2d_7">
      <defs>
       <path d="M 0 0 
L -3.5 0 
" id="m2ec8ef89f1" style="stroke:#000000;stroke-width:0.8;"/>
      </defs>
      <g>
       <use style="stroke:#000000;stroke-width:0.8;" x="54.675" xlink:href="#m2ec8ef89f1" y="229.55"/>
      </g>
     </g>
     <g id="text_8">
      <!-- 0 -->
      <g transform="translate(41.3125 233.349219)scale(0.1 -0.1)">
       <use xlink:href="#DejaVuSans-48"/>
      </g>
     </g>
    </g>
    <g id="ytick_2">
     <g id="line2d_8">
      <g>
       <use style="stroke:#000000;stroke-width:0.8;" x="54.675" xlink:href="#m2ec8ef89f1" y="192.985917"/>
      </g>
     </g>
     <g id="text_9">
      <!-- 100 -->
      <g transform="translate(28.5875 196.785136)scale(0.1 -0.1)">
       <use xlink:href="#DejaVuSans-49"/>
       <use x="63.623047" xlink:href="#DejaVuSans-48"/>
       <use x="127.246094" xlink:href="#DejaVuSans-48"/>
      </g>
     </g>
    </g>
    <g id="ytick_3">
     <g id="line2d_9">
      <g>
       <use style="stroke:#000000;stroke-width:0.8;" x="54.675" xlink:href="#m2ec8ef89f1" y="156.421834"/>
      </g>
     </g>
     <g id="text_10">
      <!-- 200 -->
      <g transform="translate(28.5875 160.221053)scale(0.1 -0.1)">
       <use xlink:href="#DejaVuSans-50"/>
       <use x="63.623047" xlink:href="#DejaVuSans-48"/>
       <use x="127.246094" xlink:href="#DejaVuSans-48"/>
      </g>
     </g>
    </g>
    <g id="ytick_4">
     <g id="line2d_10">
      <g>
       <use style="stroke:#000000;stroke-width:0.8;" x="54.675" xlink:href="#m2ec8ef89f1" y="119.857751"/>
      </g>
     </g>
     <g id="text_11">
      <!-- 300 -->
      <g transform="translate(28.5875 123.65697)scale(0.1 -0.1)">
       <use xlink:href="#DejaVuSans-51"/>
       <use x="63.623047" xlink:href="#DejaVuSans-48"/>
       <use x="127.246094" xlink:href="#DejaVuSans-48"/>
      </g>
     </g>
    </g>
    <g id="ytick_5">
     <g id="line2d_11">
      <g>
       <use style="stroke:#000000;stroke-width:0.8;" x="54.675" xlink:href="#m2ec8ef89f1" y="83.293668"/>
      </g>
     </g>
     <g id="text_12">
      <!-- 400 -->
      <g transform="translate(28.5875 87.092886)scale(0.1 -0.1)">
       <use xlink:href="#DejaVuSans-52"/>
       <use x="63.623047" xlink:href="#DejaVuSans-48"/>
       <use x="127.246094" xlink:href="#DejaVuSans-48"/>
      </g>
     </g>
    </g>
    <g id="ytick_6">
     <g id="line2d_12">
      <g>
       <use style="stroke:#000000;stroke-width:0.8;" x="54.675" xlink:href="#m2ec8ef89f1" y="46.729585"/>
      </g>
     </g>
     <g id="text_13">
      <!-- 500 -->
      <g transform="translate(28.5875 50.528803)scale(0.1 -0.1)">
       <use xlink:href="#DejaVuSans-53"/>
       <use x="63.623047" xlink:href="#DejaVuSans-48"/>
       <use x="127.246094" xlink:href="#DejaVuSans-48"/>
      </g>
     </g>
    </g>
    <g id="text_14">
     <!-- # of duplications/ortholog pairs -->
     <defs>
      <path d="M 51.125 44 
L 36.921875 44 
L 32.8125 27.6875 
L 47.125 27.6875 
z
M 43.796875 71.78125 
L 38.71875 51.515625 
L 52.984375 51.515625 
L 58.109375 71.78125 
L 65.921875 71.78125 
L 60.890625 51.515625 
L 76.125 51.515625 
L 76.125 44 
L 58.984375 44 
L 54.984375 27.6875 
L 70.515625 27.6875 
L 70.515625 20.21875 
L 53.078125 20.21875 
L 48 0 
L 40.1875 0 
L 45.21875 20.21875 
L 30.90625 20.21875 
L 25.875 0 
L 18.015625 0 
L 23.09375 20.21875 
L 7.71875 20.21875 
L 7.71875 27.6875 
L 24.90625 27.6875 
L 29 44 
L 13.28125 44 
L 13.28125 51.515625 
L 30.90625 51.515625 
L 35.890625 71.78125 
z
" id="DejaVuSans-35"/>
      <path id="DejaVuSans-32"/>
      <path d="M 30.609375 48.390625 
Q 23.390625 48.390625 19.1875 42.75 
Q 14.984375 37.109375 14.984375 27.296875 
Q 14.984375 17.484375 19.15625 11.84375 
Q 23.34375 6.203125 30.609375 6.203125 
Q 37.796875 6.203125 41.984375 11.859375 
Q 46.1875 17.53125 46.1875 27.296875 
Q 46.1875 37.015625 41.984375 42.703125 
Q 37.796875 48.390625 30.609375 48.390625 
z
M 30.609375 56 
Q 42.328125 56 49.015625 48.375 
Q 55.71875 40.765625 55.71875 27.296875 
Q 55.71875 13.875 49.015625 6.21875 
Q 42.328125 -1.421875 30.609375 -1.421875 
Q 18.84375 -1.421875 12.171875 6.21875 
Q 5.515625 13.875 5.515625 27.296875 
Q 5.515625 40.765625 12.171875 48.375 
Q 18.84375 56 30.609375 56 
z
" id="DejaVuSans-111"/>
      <path d="M 37.109375 75.984375 
L 37.109375 68.5 
L 28.515625 68.5 
Q 23.6875 68.5 21.796875 66.546875 
Q 19.921875 64.59375 19.921875 59.515625 
L 19.921875 54.6875 
L 34.71875 54.6875 
L 34.71875 47.703125 
L 19.921875 47.703125 
L 19.921875 0 
L 10.890625 0 
L 10.890625 47.703125 
L 2.296875 47.703125 
L 2.296875 54.6875 
L 10.890625 54.6875 
L 10.890625 58.5 
Q 10.890625 67.625 15.140625 71.796875 
Q 19.390625 75.984375 28.609375 75.984375 
z
" id="DejaVuSans-102"/>
      <path d="M 45.40625 46.390625 
L 45.40625 75.984375 
L 54.390625 75.984375 
L 54.390625 0 
L 45.40625 0 
L 45.40625 8.203125 
Q 42.578125 3.328125 38.25 0.953125 
Q 33.9375 -1.421875 27.875 -1.421875 
Q 17.96875 -1.421875 11.734375 6.484375 
Q 5.515625 14.40625 5.515625 27.296875 
Q 5.515625 40.1875 11.734375 48.09375 
Q 17.96875 56 27.875 56 
Q 33.9375 56 38.25 53.625 
Q 42.578125 51.265625 45.40625 46.390625 
z
M 14.796875 27.296875 
Q 14.796875 17.390625 18.875 11.75 
Q 22.953125 6.109375 30.078125 6.109375 
Q 37.203125 6.109375 41.296875 11.75 
Q 45.40625 17.390625 45.40625 27.296875 
Q 45.40625 37.203125 41.296875 42.84375 
Q 37.203125 48.484375 30.078125 48.484375 
Q 22.953125 48.484375 18.875 42.84375 
Q 14.796875 37.203125 14.796875 27.296875 
z
" id="DejaVuSans-100"/>
      <path d="M 8.5 21.578125 
L 8.5 54.6875 
L 17.484375 54.6875 
L 17.484375 21.921875 
Q 17.484375 14.15625 20.5 10.265625 
Q 23.53125 6.390625 29.59375 6.390625 
Q 36.859375 6.390625 41.078125 11.03125 
Q 45.3125 15.671875 45.3125 23.6875 
L 45.3125 54.6875 
L 54.296875 54.6875 
L 54.296875 0 
L 45.3125 0 
L 45.3125 8.40625 
Q 42.046875 3.421875 37.71875 1 
Q 33.40625 -1.421875 27.6875 -1.421875 
Q 18.265625 -1.421875 13.375 4.4375 
Q 8.5 10.296875 8.5 21.578125 
z
M 31.109375 56 
z
" id="DejaVuSans-117"/>
      <path d="M 18.109375 8.203125 
L 18.109375 -20.796875 
L 9.078125 -20.796875 
L 9.078125 54.6875 
L 18.109375 54.6875 
L 18.109375 46.390625 
Q 20.953125 51.265625 25.265625 53.625 
Q 29.59375 56 35.59375 56 
Q 45.5625 56 51.78125 48.09375 
Q 58.015625 40.1875 58.015625 27.296875 
Q 58.015625 14.40625 51.78125 6.484375 
Q 45.5625 -1.421875 35.59375 -1.421875 
Q 29.59375 -1.421875 25.265625 0.953125 
Q 20.953125 3.328125 18.109375 8.203125 
z
M 48.6875 27.296875 
Q 48.6875 37.203125 44.609375 42.84375 
Q 40.53125 48.484375 33.40625 48.484375 
Q 26.265625 48.484375 22.1875 42.84375 
Q 18.109375 37.203125 18.109375 27.296875 
Q 18.109375 17.390625 22.1875 11.75 
Q 26.265625 6.109375 33.40625 6.109375 
Q 40.53125 6.109375 44.609375 11.75 
Q 48.6875 17.390625 48.6875 27.296875 
z
" id="DejaVuSans-112"/>
      <path d="M 9.421875 75.984375 
L 18.40625 75.984375 
L 18.40625 0 
L 9.421875 0 
z
" id="DejaVuSans-108"/>
      <path d="M 9.421875 54.6875 
L 18.40625 54.6875 
L 18.40625 0 
L 9.421875 0 
z
M 9.421875 75.984375 
L 18.40625 75.984375 
L 18.40625 64.59375 
L 9.421875 64.59375 
z
" id="DejaVuSans-105"/>
      <path d="M 48.78125 52.59375 
L 48.78125 44.1875 
Q 44.96875 46.296875 41.140625 47.34375 
Q 37.3125 48.390625 33.40625 48.390625 
Q 24.65625 48.390625 19.8125 42.84375 
Q 14.984375 37.3125 14.984375 27.296875 
Q 14.984375 17.28125 19.8125 11.734375 
Q 24.65625 6.203125 33.40625 6.203125 
Q 37.3125 6.203125 41.140625 7.25 
Q 44.96875 8.296875 48.78125 10.40625 
L 48.78125 2.09375 
Q 45.015625 0.34375 40.984375 -0.53125 
Q 36.96875 -1.421875 32.421875 -1.421875 
Q 20.0625 -1.421875 12.78125 6.34375 
Q 5.515625 14.109375 5.515625 27.296875 
Q 5.515625 40.671875 12.859375 48.328125 
Q 20.21875 56 33.015625 56 
Q 37.15625 56 41.109375 55.140625 
Q 45.0625 54.296875 48.78125 52.59375 
z
" id="DejaVuSans-99"/>
      <path d="M 34.28125 27.484375 
Q 23.390625 27.484375 19.1875 25 
Q 14.984375 22.515625 14.984375 16.5 
Q 14.984375 11.71875 18.140625 8.90625 
Q 21.296875 6.109375 26.703125 6.109375 
Q 34.1875 6.109375 38.703125 11.40625 
Q 43.21875 16.703125 43.21875 25.484375 
L 43.21875 27.484375 
z
M 52.203125 31.203125 
L 52.203125 0 
L 43.21875 0 
L 43.21875 8.296875 
Q 40.140625 3.328125 35.546875 0.953125 
Q 30.953125 -1.421875 24.3125 -1.421875 
Q 15.921875 -1.421875 10.953125 3.296875 
Q 6 8.015625 6 15.921875 
Q 6 25.140625 12.171875 29.828125 
Q 18.359375 34.515625 30.609375 34.515625 
L 43.21875 34.515625 
L 43.21875 35.40625 
Q 43.21875 41.609375 39.140625 45 
Q 35.0625 48.390625 27.6875 48.390625 
Q 23 48.390625 18.546875 47.265625 
Q 14.109375 46.140625 10.015625 43.890625 
L 10.015625 52.203125 
Q 14.9375 54.109375 19.578125 55.046875 
Q 24.21875 56 28.609375 56 
Q 40.484375 56 46.34375 49.84375 
Q 52.203125 43.703125 52.203125 31.203125 
z
" id="DejaVuSans-97"/>
      <path d="M 18.3125 70.21875 
L 18.3125 54.6875 
L 36.8125 54.6875 
L 36.8125 47.703125 
L 18.3125 47.703125 
L 18.3125 18.015625 
Q 18.3125 11.328125 20.140625 9.421875 
Q 21.96875 7.515625 27.59375 7.515625 
L 36.8125 7.515625 
L 36.8125 0 
L 27.59375 0 
Q 17.1875 0 13.234375 3.875 
Q 9.28125 7.765625 9.28125 18.015625 
L 9.28125 47.703125 
L 2.6875 47.703125 
L 2.6875 54.6875 
L 9.28125 54.6875 
L 9.28125 70.21875 
z
" id="DejaVuSans-116"/>
      <path d="M 54.890625 33.015625 
L 54.890625 0 
L 45.90625 0 
L 45.90625 32.71875 
Q 45.90625 40.484375 42.875 44.328125 
Q 39.84375 48.1875 33.796875 48.1875 
Q 26.515625 48.1875 22.3125 43.546875 
Q 18.109375 38.921875 18.109375 30.90625 
L 18.109375 0 
L 9.078125 0 
L 9.078125 54.6875 
L 18.109375 54.6875 
L 18.109375 46.1875 
Q 21.34375 51.125 25.703125 53.5625 
Q 30.078125 56 35.796875 56 
Q 45.21875 56 50.046875 50.171875 
Q 54.890625 44.34375 54.890625 33.015625 
z
" id="DejaVuSans-110"/>
      <path d="M 44.28125 53.078125 
L 44.28125 44.578125 
Q 40.484375 46.53125 36.375 47.5 
Q 32.28125 48.484375 27.875 48.484375 
Q 21.1875 48.484375 17.84375 46.4375 
Q 14.5 44.390625 14.5 40.28125 
Q 14.5 37.15625 16.890625 35.375 
Q 19.28125 33.59375 26.515625 31.984375 
L 29.59375 31.296875 
Q 39.15625 29.25 43.1875 25.515625 
Q 47.21875 21.78125 47.21875 15.09375 
Q 47.21875 7.46875 41.1875 3.015625 
Q 35.15625 -1.421875 24.609375 -1.421875 
Q 20.21875 -1.421875 15.453125 -0.5625 
Q 10.6875 0.296875 5.421875 2 
L 5.421875 11.28125 
Q 10.40625 8.6875 15.234375 7.390625 
Q 20.0625 6.109375 24.8125 6.109375 
Q 31.15625 6.109375 34.5625 8.28125 
Q 37.984375 10.453125 37.984375 14.40625 
Q 37.984375 18.0625 35.515625 20.015625 
Q 33.0625 21.96875 24.703125 23.78125 
L 21.578125 24.515625 
Q 13.234375 26.265625 9.515625 29.90625 
Q 5.8125 33.546875 5.8125 39.890625 
Q 5.8125 47.609375 11.28125 51.796875 
Q 16.75 56 26.8125 56 
Q 31.78125 56 36.171875 55.265625 
Q 40.578125 54.546875 44.28125 53.078125 
z
" id="DejaVuSans-115"/>
      <path d="M 25.390625 72.90625 
L 33.6875 72.90625 
L 8.296875 -9.28125 
L 0 -9.28125 
z
" id="DejaVuSans-47"/>
      <path d="M 41.109375 46.296875 
Q 39.59375 47.171875 37.8125 47.578125 
Q 36.03125 48 33.890625 48 
Q 26.265625 48 22.1875 43.046875 
Q 18.109375 38.09375 18.109375 28.8125 
L 18.109375 0 
L 9.078125 0 
L 9.078125 54.6875 
L 18.109375 54.6875 
L 18.109375 46.1875 
Q 20.953125 51.171875 25.484375 53.578125 
Q 30.03125 56 36.53125 56 
Q 37.453125 56 38.578125 55.875 
Q 39.703125 55.765625 41.0625 55.515625 
z
" id="DejaVuSans-114"/>
      <path d="M 54.890625 33.015625 
L 54.890625 0 
L 45.90625 0 
L 45.90625 32.71875 
Q 45.90625 40.484375 42.875 44.328125 
Q 39.84375 48.1875 33.796875 48.1875 
Q 26.515625 48.1875 22.3125 43.546875 
Q 18.109375 38.921875 18.109375 30.90625 
L 18.109375 0 
L 9.078125 0 
L 9.078125 75.984375 
L 18.109375 75.984375 
L 18.109375 46.1875 
Q 21.34375 51.125 25.703125 53.5625 
Q 30.078125 56 35.796875 56 
Q 45.21875 56 50.046875 50.171875 
Q 54.890625 44.34375 54.890625 33.015625 
z
" id="DejaVuSans-104"/>
      <path d="M 45.40625 27.984375 
Q 45.40625 37.75 41.375 43.109375 
Q 37.359375 48.484375 30.078125 48.484375 
Q 22.859375 48.484375 18.828125 43.109375 
Q 14.796875 37.75 14.796875 27.984375 
Q 14.796875 18.265625 18.828125 12.890625 
Q 22.859375 7.515625 30.078125 7.515625 
Q 37.359375 7.515625 41.375 12.890625 
Q 45.40625 18.265625 45.40625 27.984375 
z
M 54.390625 6.78125 
Q 54.390625 -7.171875 48.1875 -13.984375 
Q 42 -20.796875 29.203125 -20.796875 
Q 24.46875 -20.796875 20.265625 -20.09375 
Q 16.0625 -19.390625 12.109375 -17.921875 
L 12.109375 -9.1875 
Q 16.0625 -11.328125 19.921875 -12.34375 
Q 23.78125 -13.375 27.78125 -13.375 
Q 36.625 -13.375 41.015625 -8.765625 
Q 45.40625 -4.15625 45.40625 5.171875 
L 45.40625 9.625 
Q 42.625 4.78125 38.28125 2.390625 
Q 33.9375 0 27.875 0 
Q 17.828125 0 11.671875 7.65625 
Q 5.515625 15.328125 5.515625 27.984375 
Q 5.515625 40.671875 11.671875 48.328125 
Q 17.828125 56 27.875 56 
Q 33.9375 56 38.28125 53.609375 
Q 42.625 51.21875 45.40625 46.390625 
L 45.40625 54.6875 
L 54.390625 54.6875 
z
" id="DejaVuSans-103"/>
     </defs>
     <g transform="translate(21.675938 231.834531)rotate(-90)scale(0.14 -0.14)">
      <use xlink:href="#DejaVuSans-35"/>
      <use x="83.789062" xlink:href="#DejaVuSans-32"/>
      <use x="115.576172" xlink:href="#DejaVuSans-111"/>
      <use x="176.757812" xlink:href="#DejaVuSans-102"/>
      <use x="211.962891" xlink:href="#DejaVuSans-32"/>
      <use x="243.75" xlink:href="#DejaVuSans-100"/>
      <use x="307.226562" xlink:href="#DejaVuSans-117"/>
      <use x="370.605469" xlink:href="#DejaVuSans-112"/>
      <use x="434.082031" xlink:href="#DejaVuSans-108"/>
      <use x="461.865234" xlink:href="#DejaVuSans-105"/>
      <use x="489.648438" xlink:href="#DejaVuSans-99"/>
      <use x="544.628906" xlink:href="#DejaVuSans-97"/>
      <use x="605.908203" xlink:href="#DejaVuSans-116"/>
      <use x="645.117188" xlink:href="#DejaVuSans-105"/>
      <use x="672.900391" xlink:href="#DejaVuSans-111"/>
      <use x="734.082031" xlink:href="#DejaVuSans-110"/>
      <use x="797.460938" xlink:href="#DejaVuSans-115"/>
      <use x="849.560547" xlink:href="#DejaVuSans-47"/>
      <use x="883.251953" xlink:href="#DejaVuSans-111"/>
      <use x="944.433594" xlink:href="#DejaVuSans-114"/>
      <use x="985.546875" xlink:href="#DejaVuSans-116"/>
      <use x="1024.755859" xlink:href="#DejaVuSans-104"/>
      <use x="1088.134766" xlink:href="#DejaVuSans-111"/>
      <use x="1149.316406" xlink:href="#DejaVuSans-108"/>
      <use x="1177.099609" xlink:href="#DejaVuSans-111"/>
      <use x="1238.28125" xlink:href="#DejaVuSans-103"/>
      <use x="1301.757812" xlink:href="#DejaVuSans-32"/>
      <use x="1333.544922" xlink:href="#DejaVuSans-112"/>
      <use x="1397.021484" xlink:href="#DejaVuSans-97"/>
      <use x="1458.300781" xlink:href="#DejaVuSans-105"/>
      <use x="1486.083984" xlink:href="#DejaVuSans-114"/>
      <use x="1527.197266" xlink:href="#DejaVuSans-115"/>
     </g>
    </g>
   </g>
   <g id="patch_101">
    <path d="M 54.675 229.55 
L 54.675 13.0175 
" style="fill:none;stroke:#000000;stroke-linecap:square;stroke-linejoin:miter;stroke-width:0.8;"/>
   </g>
   <g id="patch_102">
    <path d="M 59.675 234.55 
L 418.0125 234.55 
" style="fill:none;stroke:#000000;stroke-linecap:square;stroke-linejoin:miter;stroke-width:0.8;"/>
   </g>
   <g id="legend_1">
    <g id="patch_103">
     <path d="M 265.2125 29.6175 
L 285.2125 29.6175 
L 285.2125 22.6175 
L 265.2125 22.6175 
z
" style="fill:#008080;opacity:0.2;"/>
    </g>
    <g id="text_15">
     <!-- $U.\ gibba$ -->
     <defs>
      <path d="M 15.484375 72.90625 
L 25.390625 72.90625 
L 16.796875 28.609375 
Q 16.265625 25.640625 16.046875 23.703125 
Q 15.828125 21.78125 15.828125 20.3125 
Q 15.828125 13.578125 19.578125 10.078125 
Q 23.34375 6.59375 30.609375 6.59375 
Q 40.046875 6.59375 45.28125 11.765625 
Q 50.53125 16.9375 52.78125 28.609375 
L 61.375 72.90625 
L 71.296875 72.90625 
L 62.5 27.390625 
Q 59.625 12.640625 51.5625 5.609375 
Q 43.5 -1.421875 29.5 -1.421875 
Q 18.5625 -1.421875 12.1875 4.078125 
Q 5.8125 9.578125 5.8125 19 
Q 5.8125 20.703125 6.046875 22.828125 
Q 6.296875 24.953125 6.78125 27.390625 
z
" id="DejaVuSans-Oblique-85"/>
      <path d="M 10.6875 12.40625 
L 21 12.40625 
L 21 0 
L 10.6875 0 
z
" id="DejaVuSans-46"/>
      <path d="M 59.625 54.6875 
L 50.296875 6.78125 
Q 47.609375 -7.125 40.015625 -13.953125 
Q 32.421875 -20.796875 19.578125 -20.796875 
Q 14.84375 -20.796875 10.78125 -20.09375 
Q 6.734375 -19.390625 3.21875 -17.921875 
L 4.890625 -9.1875 
Q 8.203125 -11.328125 11.90625 -12.34375 
Q 15.625 -13.375 19.828125 -13.375 
Q 28.375 -13.375 33.859375 -8.703125 
Q 39.359375 -4.046875 41.109375 4.6875 
L 41.890625 8.796875 
Q 38.140625 4.5 33.15625 2.25 
Q 28.171875 0 22.40625 0 
Q 14.109375 0 9.34375 5.484375 
Q 4.59375 10.984375 4.59375 20.609375 
Q 4.59375 28.171875 7.46875 35.421875 
Q 10.359375 42.671875 15.578125 48.296875 
Q 19.046875 52 23.65625 54 
Q 28.265625 56 33.296875 56 
Q 38.8125 56 42.90625 53.4375 
Q 47.015625 50.875 49.03125 46.1875 
L 50.59375 54.6875 
z
M 46.09375 34.625 
Q 46.09375 41.265625 42.96875 44.875 
Q 39.84375 48.484375 34.078125 48.484375 
Q 30.515625 48.484375 27.296875 47.0625 
Q 24.078125 45.65625 21.78125 43.109375 
Q 18.0625 38.921875 15.984375 33.234375 
Q 13.921875 27.546875 13.921875 21.484375 
Q 13.921875 14.75 17.0625 11.125 
Q 20.21875 7.515625 26.125 7.515625 
Q 34.671875 7.515625 40.375 15.25 
Q 46.09375 23 46.09375 34.625 
z
" id="DejaVuSans-Oblique-103"/>
      <path d="M 18.3125 75.984375 
L 27.296875 75.984375 
L 25.09375 64.59375 
L 16.109375 64.59375 
z
M 14.203125 54.6875 
L 23.1875 54.6875 
L 12.5 0 
L 3.515625 0 
z
" id="DejaVuSans-Oblique-105"/>
      <path d="M 49.515625 33.40625 
Q 49.515625 40.484375 46.265625 44.484375 
Q 43.015625 48.484375 37.3125 48.484375 
Q 33.15625 48.484375 29.515625 46.453125 
Q 25.875 44.4375 23.1875 40.578125 
Q 20.359375 36.53125 18.71875 31.171875 
Q 17.09375 25.828125 17.09375 20.515625 
Q 17.09375 13.765625 20.28125 9.9375 
Q 23.484375 6.109375 29.109375 6.109375 
Q 33.34375 6.109375 36.953125 8.078125 
Q 40.578125 10.0625 43.3125 13.921875 
Q 46.09375 17.921875 47.796875 23.234375 
Q 49.515625 28.5625 49.515625 33.40625 
z
M 21.578125 46.390625 
Q 24.90625 50.875 29.90625 53.4375 
Q 34.90625 56 40.375 56 
Q 48.78125 56 53.734375 50.328125 
Q 58.6875 44.671875 58.6875 35.015625 
Q 58.6875 27.09375 55.78125 19.671875 
Q 52.875 12.25 47.515625 6.5 
Q 44 2.6875 39.40625 0.625 
Q 34.8125 -1.421875 29.78125 -1.421875 
Q 24.46875 -1.421875 20.5625 1.015625 
Q 16.65625 3.46875 14.203125 8.296875 
L 12.59375 0 
L 3.609375 0 
L 18.40625 75.984375 
L 27.390625 75.984375 
z
" id="DejaVuSans-Oblique-98"/>
      <path d="M 53.71875 31.203125 
L 47.609375 0 
L 38.625 0 
L 40.28125 8.296875 
Q 36.328125 3.421875 31.265625 1 
Q 26.21875 -1.421875 20.015625 -1.421875 
Q 13.03125 -1.421875 8.5625 2.84375 
Q 4.109375 7.125 4.109375 13.8125 
Q 4.109375 23.390625 11.75 28.953125 
Q 19.390625 34.515625 32.8125 34.515625 
L 45.3125 34.515625 
L 45.796875 36.921875 
Q 45.90625 37.3125 45.953125 37.765625 
Q 46 38.234375 46 39.203125 
Q 46 43.5625 42.453125 45.96875 
Q 38.921875 48.390625 32.515625 48.390625 
Q 28.125 48.390625 23.5 47.265625 
Q 18.890625 46.140625 14.015625 43.890625 
L 15.578125 52.203125 
Q 20.65625 54.109375 25.515625 55.046875 
Q 30.375 56 34.90625 56 
Q 44.578125 56 49.625 51.796875 
Q 54.6875 47.609375 54.6875 39.59375 
Q 54.6875 37.984375 54.4375 35.8125 
Q 54.203125 33.640625 53.71875 31.203125 
z
M 44 27.484375 
L 35.015625 27.484375 
Q 23.96875 27.484375 18.671875 24.53125 
Q 13.375 21.578125 13.375 15.375 
Q 13.375 11.078125 16.078125 8.640625 
Q 18.796875 6.203125 23.578125 6.203125 
Q 30.90625 6.203125 36.375 11.453125 
Q 41.84375 16.703125 43.609375 25.484375 
z
" id="DejaVuSans-Oblique-97"/>
     </defs>
     <g transform="translate(293.2125 29.6175)scale(0.1 -0.1)">
      <use transform="translate(0 0.015625)" xlink:href="#DejaVuSans-Oblique-85"/>
      <use transform="translate(73.193359 0.015625)" xlink:href="#DejaVuSans-46"/>
      <use transform="translate(156.933269 0.015625)" xlink:href="#DejaVuSans-Oblique-103"/>
      <use transform="translate(220.409832 0.015625)" xlink:href="#DejaVuSans-Oblique-105"/>
      <use transform="translate(248.193035 0.015625)" xlink:href="#DejaVuSans-Oblique-98"/>
      <use transform="translate(311.669597 0.015625)" xlink:href="#DejaVuSans-Oblique-98"/>
      <use transform="translate(375.14616 0.015625)" xlink:href="#DejaVuSans-Oblique-97"/>
     </g>
    </g>
    <g id="patch_104">
     <path d="M 265.2125 44.3175 
L 285.2125 44.3175 
L 285.2125 37.3175 
L 265.2125 37.3175 
z
" style="opacity:0.2;"/>
    </g>
    <g id="text_16">
     <!-- $U.\ gibba$ vs. $E.\ guttata$ -->
     <defs>
      <path d="M 2.984375 54.6875 
L 12.5 54.6875 
L 29.59375 8.796875 
L 46.6875 54.6875 
L 56.203125 54.6875 
L 35.6875 0 
L 23.484375 0 
z
" id="DejaVuSans-118"/>
      <path d="M 16.890625 72.90625 
L 62.984375 72.90625 
L 61.375 64.59375 
L 25.09375 64.59375 
L 20.90625 43.015625 
L 55.71875 43.015625 
L 54.109375 34.71875 
L 19.28125 34.71875 
L 14.203125 8.296875 
L 51.3125 8.296875 
L 49.703125 0 
L 2.6875 0 
z
" id="DejaVuSans-Oblique-69"/>
      <path d="M 6.6875 21.6875 
L 13.09375 54.6875 
L 22.125 54.6875 
L 15.71875 22.015625 
Q 15.234375 19.625 15.015625 17.921875 
Q 14.796875 16.21875 14.796875 15.09375 
Q 14.796875 10.9375 17.328125 8.65625 
Q 19.875 6.390625 24.515625 6.390625 
Q 31.734375 6.390625 37 11.265625 
Q 42.28125 16.15625 43.890625 24.421875 
L 49.90625 54.6875 
L 58.890625 54.6875 
L 48.296875 0 
L 39.3125 0 
L 41.109375 8.59375 
Q 37.3125 3.8125 32.0625 1.1875 
Q 26.8125 -1.421875 20.90625 -1.421875 
Q 13.71875 -1.421875 9.71875 2.515625 
Q 5.71875 6.453125 5.71875 13.484375 
Q 5.71875 14.9375 5.953125 17.140625 
Q 6.203125 19.34375 6.6875 21.6875 
z
" id="DejaVuSans-Oblique-117"/>
      <path d="M 42.28125 54.6875 
L 40.921875 47.703125 
L 23 47.703125 
L 17.1875 18.015625 
Q 16.890625 16.359375 16.75 15.234375 
Q 16.609375 14.109375 16.609375 13.484375 
Q 16.609375 10.359375 18.484375 8.9375 
Q 20.359375 7.515625 24.515625 7.515625 
L 33.59375 7.515625 
L 32.078125 0 
L 23.484375 0 
Q 15.484375 0 11.546875 3.125 
Q 7.625 6.25 7.625 12.59375 
Q 7.625 13.71875 7.765625 15.0625 
Q 7.90625 16.40625 8.203125 18.015625 
L 14.015625 47.703125 
L 6.390625 47.703125 
L 7.8125 54.6875 
L 15.28125 54.6875 
L 18.3125 70.21875 
L 27.296875 70.21875 
L 24.3125 54.6875 
z
" id="DejaVuSans-Oblique-116"/>
     </defs>
     <g transform="translate(293.2125 44.3175)scale(0.1 -0.1)">
      <use transform="translate(0 0.015625)" xlink:href="#DejaVuSans-Oblique-85"/>
      <use transform="translate(73.193359 0.015625)" xlink:href="#DejaVuSans-46"/>
      <use transform="translate(156.933269 0.015625)" xlink:href="#DejaVuSans-Oblique-103"/>
      <use transform="translate(220.409832 0.015625)" xlink:href="#DejaVuSans-Oblique-105"/>
      <use transform="translate(248.193035 0.015625)" xlink:href="#DejaVuSans-Oblique-98"/>
      <use transform="translate(311.669597 0.015625)" xlink:href="#DejaVuSans-Oblique-98"/>
      <use transform="translate(375.14616 0.015625)" xlink:href="#DejaVuSans-Oblique-97"/>
      <use transform="translate(436.425457 0.015625)" xlink:href="#DejaVuSans-32"/>
      <use transform="translate(468.212566 0.015625)" xlink:href="#DejaVuSans-118"/>
      <use transform="translate(527.392253 0.015625)" xlink:href="#DejaVuSans-115"/>
      <use transform="translate(579.491863 0.015625)" xlink:href="#DejaVuSans-46"/>
      <use transform="translate(611.278972 0.015625)" xlink:href="#DejaVuSans-32"/>
      <use transform="translate(643.066082 0.015625)" xlink:href="#DejaVuSans-Oblique-69"/>
      <use transform="translate(706.249675 0.015625)" xlink:href="#DejaVuSans-46"/>
      <use transform="translate(789.989585 0.015625)" xlink:href="#DejaVuSans-Oblique-103"/>
      <use transform="translate(853.466147 0.015625)" xlink:href="#DejaVuSans-Oblique-117"/>
      <use transform="translate(916.845054 0.015625)" xlink:href="#DejaVuSans-Oblique-116"/>
      <use transform="translate(956.054038 0.015625)" xlink:href="#DejaVuSans-Oblique-116"/>
      <use transform="translate(995.263022 0.015625)" xlink:href="#DejaVuSans-Oblique-97"/>
      <use transform="translate(1056.542319 0.015625)" xlink:href="#DejaVuSans-Oblique-116"/>
      <use transform="translate(1095.751304 0.015625)" xlink:href="#DejaVuSans-Oblique-97"/>
     </g>
    </g>
   </g>
  </g>
 </g>
 <defs>
  <clipPath id="p0fb84a8842">
   <rect height="216.5325" width="358.3375" x="59.675" y="13.0175"/>
  </clipPath>
 </defs>
</svg>
