<?xml version="1.0" encoding="utf-8" standalone="no"?>
<!DOCTYPE svg PUBLIC "-//W3C//DTD SVG 1.1//EN"
  "http://www.w3.org/Graphics/SVG/1.1/DTD/svg11.dtd">
<!-- Created with matplotlib (https://matplotlib.org/) -->
<svg height="656.578125pt" version="1.1" viewBox="0 0 1072.495625 656.578125" width="1072.495625pt" xmlns="http://www.w3.org/2000/svg" xmlns:xlink="http://www.w3.org/1999/xlink">
 <defs>
  <style type="text/css">
*{stroke-linecap:butt;stroke-linejoin:round;}
  </style>
 </defs>
 <g id="figure_1">
  <g id="patch_1">
   <path d="M 0 656.578125 
L 1072.495625 656.578125 
L 1072.495625 0 
L 0 0 
z
" style="fill:#ffffff;"/>
  </g>
  <g id="axes_1">
   <g id="patch_2">
    <path d="M 48.965625 288.68 
L 529.120625 288.68 
L 529.120625 7.2 
L 48.965625 7.2 
z
" style="fill:#ffffff;"/>
   </g>
   <g id="patch_3">
    <path clip-path="url(#p91897ce88f)" d="M 54.717671 288.68 
L 62.321636 288.68 
L 62.321636 207.895848 
L 54.717671 207.895848 
z
" style="opacity:0.2;"/>
   </g>
   <g id="patch_4">
    <path clip-path="url(#p91897ce88f)" d="M 64.222627 288.68 
L 71.826592 288.68 
L 71.826592 212.088223 
L 64.222627 212.088223 
z
" style="opacity:0.2;"/>
   </g>
   <g id="patch_5">
    <path clip-path="url(#p91897ce88f)" d="M 73.727583 288.68 
L 81.331548 288.68 
L 81.331548 180.798937 
L 73.727583 180.798937 
z
" style="opacity:0.2;"/>
   </g>
   <g id="patch_6">
    <path clip-path="url(#p91897ce88f)" d="M 83.23254 288.68 
L 90.836505 288.68 
L 90.836505 37.288649 
L 83.23254 37.288649 
z
" style="opacity:0.2;"/>
   </g>
   <g id="patch_7">
    <path clip-path="url(#p91897ce88f)" d="M 92.737496 288.68 
L 100.341461 288.68 
L 100.341461 20.60381 
L 92.737496 20.60381 
z
" style="opacity:0.2;"/>
   </g>
   <g id="patch_8">
    <path clip-path="url(#p91897ce88f)" d="M 102.242452 288.68 
L 109.846417 288.68 
L 109.846417 97.056864 
L 102.242452 97.056864 
z
" style="opacity:0.2;"/>
   </g>
   <g id="patch_9">
    <path clip-path="url(#p91897ce88f)" d="M 111.747409 288.68 
L 119.351374 288.68 
L 119.351374 175.899561 
L 111.747409 175.899561 
z
" style="opacity:0.2;"/>
   </g>
   <g id="patch_10">
    <path clip-path="url(#p91897ce88f)" d="M 121.252365 288.68 
L 128.85633 288.68 
L 128.85633 193.150764 
L 121.252365 193.150764 
z
" style="opacity:0.2;"/>
   </g>
   <g id="patch_11">
    <path clip-path="url(#p91897ce88f)" d="M 130.757321 288.68 
L 138.361286 288.68 
L 138.361286 188.872596 
L 130.757321 188.872596 
z
" style="opacity:0.2;"/>
   </g>
   <g id="patch_12">
    <path clip-path="url(#p91897ce88f)" d="M 140.262277 288.68 
L 147.866243 288.68 
L 147.866243 192.356951 
L 140.262277 192.356951 
z
" style="opacity:0.2;"/>
   </g>
   <g id="patch_13">
    <path clip-path="url(#p91897ce88f)" d="M 149.767234 288.68 
L 157.371199 288.68 
L 157.371199 202.546948 
L 149.767234 202.546948 
z
" style="opacity:0.2;"/>
   </g>
   <g id="patch_14">
    <path clip-path="url(#p91897ce88f)" d="M 159.27219 288.68 
L 166.876155 288.68 
L 166.876155 210.000815 
L 159.27219 210.000815 
z
" style="opacity:0.2;"/>
   </g>
   <g id="patch_15">
    <path clip-path="url(#p91897ce88f)" d="M 168.777146 288.68 
L 176.381112 288.68 
L 176.381112 215.682722 
L 168.777146 215.682722 
z
" style="opacity:0.2;"/>
   </g>
   <g id="patch_16">
    <path clip-path="url(#p91897ce88f)" d="M 178.282103 288.68 
L 185.886068 288.68 
L 185.886068 227.508405 
L 178.282103 227.508405 
z
" style="opacity:0.2;"/>
   </g>
   <g id="patch_17">
    <path clip-path="url(#p91897ce88f)" d="M 187.787059 288.68 
L 195.391024 288.68 
L 195.391024 225.555869 
L 187.787059 225.555869 
z
" style="opacity:0.2;"/>
   </g>
   <g id="patch_18">
    <path clip-path="url(#p91897ce88f)" d="M 197.292015 288.68 
L 204.89598 288.68 
L 204.89598 233.550989 
L 197.292015 233.550989 
z
" style="opacity:0.2;"/>
   </g>
   <g id="patch_19">
    <path clip-path="url(#p91897ce88f)" d="M 206.796972 288.68 
L 214.400937 288.68 
L 214.400937 234.53781 
L 206.796972 234.53781 
z
" style="opacity:0.2;"/>
   </g>
   <g id="patch_20">
    <path clip-path="url(#p91897ce88f)" d="M 216.301928 288.68 
L 223.905893 288.68 
L 223.905893 232.43466 
L 216.301928 232.43466 
z
" style="opacity:0.2;"/>
   </g>
   <g id="patch_21">
    <path clip-path="url(#p91897ce88f)" d="M 225.806884 288.68 
L 233.410849 288.68 
L 233.410849 245.428367 
L 225.806884 245.428367 
z
" style="opacity:0.2;"/>
   </g>
   <g id="patch_22">
    <path clip-path="url(#p91897ce88f)" d="M 235.311841 288.68 
L 242.915806 288.68 
L 242.915806 241.135981 
L 235.311841 241.135981 
z
" style="opacity:0.2;"/>
   </g>
   <g id="patch_23">
    <path clip-path="url(#p91897ce88f)" d="M 244.816797 288.68 
L 252.420762 288.68 
L 252.420762 244.85807 
L 244.816797 244.85807 
z
" style="opacity:0.2;"/>
   </g>
   <g id="patch_24">
    <path clip-path="url(#p91897ce88f)" d="M 254.321753 288.68 
L 261.925718 288.68 
L 261.925718 243.234738 
L 254.321753 243.234738 
z
" style="opacity:0.2;"/>
   </g>
   <g id="patch_25">
    <path clip-path="url(#p91897ce88f)" d="M 263.82671 288.68 
L 271.430675 288.68 
L 271.430675 249.573799 
L 263.82671 249.573799 
z
" style="opacity:0.2;"/>
   </g>
   <g id="patch_26">
    <path clip-path="url(#p91897ce88f)" d="M 273.331666 288.68 
L 280.935631 288.68 
L 280.935631 245.873028 
L 273.331666 245.873028 
z
" style="opacity:0.2;"/>
   </g>
   <g id="patch_27">
    <path clip-path="url(#p91897ce88f)" d="M 282.836622 288.68 
L 290.440587 288.68 
L 290.440587 248.92416 
L 282.836622 248.92416 
z
" style="opacity:0.2;"/>
   </g>
   <g id="patch_28">
    <path clip-path="url(#p91897ce88f)" d="M 292.341579 288.68 
L 299.945544 288.68 
L 299.945544 254.234251 
L 292.341579 254.234251 
z
" style="opacity:0.2;"/>
   </g>
   <g id="patch_29">
    <path clip-path="url(#p91897ce88f)" d="M 301.846535 288.68 
L 309.4505 288.68 
L 309.4505 251.694231 
L 301.846535 251.694231 
z
" style="opacity:0.2;"/>
   </g>
   <g id="patch_30">
    <path clip-path="url(#p91897ce88f)" d="M 311.351491 288.68 
L 318.955456 288.68 
L 318.955456 254.347049 
L 311.351491 254.347049 
z
" style="opacity:0.2;"/>
   </g>
   <g id="patch_31">
    <path clip-path="url(#p91897ce88f)" d="M 320.856448 288.68 
L 328.460413 288.68 
L 328.460413 255.441669 
L 320.856448 255.441669 
z
" style="opacity:0.2;"/>
   </g>
   <g id="patch_32">
    <path clip-path="url(#p91897ce88f)" d="M 330.361404 288.68 
L 337.965369 288.68 
L 337.965369 249.048906 
L 330.361404 249.048906 
z
" style="opacity:0.2;"/>
   </g>
   <g id="patch_33">
    <path clip-path="url(#p91897ce88f)" d="M 339.86636 288.68 
L 347.470325 288.68 
L 347.470325 262.176092 
L 339.86636 262.176092 
z
" style="opacity:0.2;"/>
   </g>
   <g id="patch_34">
    <path clip-path="url(#p91897ce88f)" d="M 349.371316 288.68 
L 356.975282 288.68 
L 356.975282 251.649862 
L 349.371316 251.649862 
z
" style="opacity:0.2;"/>
   </g>
   <g id="patch_35">
    <path clip-path="url(#p91897ce88f)" d="M 358.876273 288.68 
L 366.480238 288.68 
L 366.480238 253.364893 
L 358.876273 253.364893 
z
" style="opacity:0.2;"/>
   </g>
   <g id="patch_36">
    <path clip-path="url(#p91897ce88f)" d="M 368.381229 288.68 
L 375.985194 288.68 
L 375.985194 257.023228 
L 368.381229 257.023228 
z
" style="opacity:0.2;"/>
   </g>
   <g id="patch_37">
    <path clip-path="url(#p91897ce88f)" d="M 377.886185 288.68 
L 385.49015 288.68 
L 385.49015 262.463606 
L 377.886185 262.463606 
z
" style="opacity:0.2;"/>
   </g>
   <g id="patch_38">
    <path clip-path="url(#p91897ce88f)" d="M 387.391142 288.68 
L 394.995107 288.68 
L 394.995107 257.697312 
L 387.391142 257.697312 
z
" style="opacity:0.2;"/>
   </g>
   <g id="patch_39">
    <path clip-path="url(#p91897ce88f)" d="M 396.896098 288.68 
L 404.500063 288.68 
L 404.500063 257.307467 
L 396.896098 257.307467 
z
" style="opacity:0.2;"/>
   </g>
   <g id="patch_40">
    <path clip-path="url(#p91897ce88f)" d="M 406.401054 288.68 
L 414.005019 288.68 
L 414.005019 262.614841 
L 406.401054 262.614841 
z
" style="opacity:0.2;"/>
   </g>
   <g id="patch_41">
    <path clip-path="url(#p91897ce88f)" d="M 415.906011 288.68 
L 423.509976 288.68 
L 423.509976 263.081978 
L 415.906011 263.081978 
z
" style="opacity:0.2;"/>
   </g>
   <g id="patch_42">
    <path clip-path="url(#p91897ce88f)" d="M 425.410967 288.68 
L 433.014932 288.68 
L 433.014932 260.277492 
L 425.410967 260.277492 
z
" style="opacity:0.2;"/>
   </g>
   <g id="patch_43">
    <path clip-path="url(#p91897ce88f)" d="M 434.915923 288.68 
L 442.519888 288.68 
L 442.519888 259.932758 
L 434.915923 259.932758 
z
" style="opacity:0.2;"/>
   </g>
   <g id="patch_44">
    <path clip-path="url(#p91897ce88f)" d="M 444.42088 288.68 
L 452.024845 288.68 
L 452.024845 262.295512 
L 444.42088 262.295512 
z
" style="opacity:0.2;"/>
   </g>
   <g id="patch_45">
    <path clip-path="url(#p91897ce88f)" d="M 453.925836 288.68 
L 461.529801 288.68 
L 461.529801 260.579256 
L 453.925836 260.579256 
z
" style="opacity:0.2;"/>
   </g>
   <g id="patch_46">
    <path clip-path="url(#p91897ce88f)" d="M 463.430792 288.68 
L 471.034757 288.68 
L 471.034757 265.177912 
L 463.430792 265.177912 
z
" style="opacity:0.2;"/>
   </g>
   <g id="patch_47">
    <path clip-path="url(#p91897ce88f)" d="M 472.935749 288.68 
L 480.539714 288.68 
L 480.539714 260.764932 
L 472.935749 260.764932 
z
" style="opacity:0.2;"/>
   </g>
   <g id="patch_48">
    <path clip-path="url(#p91897ce88f)" d="M 482.440705 288.68 
L 490.04467 288.68 
L 490.04467 267.674376 
L 482.440705 267.674376 
z
" style="opacity:0.2;"/>
   </g>
   <g id="patch_49">
    <path clip-path="url(#p91897ce88f)" d="M 491.945661 288.68 
L 499.549626 288.68 
L 499.549626 266.634277 
L 491.945661 266.634277 
z
" style="opacity:0.2;"/>
   </g>
   <g id="patch_50">
    <path clip-path="url(#p91897ce88f)" d="M 501.450618 288.68 
L 509.054583 288.68 
L 509.054583 267.388334 
L 501.450618 267.388334 
z
" style="opacity:0.2;"/>
   </g>
   <g id="patch_51">
    <path clip-path="url(#p91897ce88f)" d="M 510.955574 288.68 
L 518.559539 288.68 
L 518.559539 265.233674 
L 510.955574 265.233674 
z
" style="opacity:0.2;"/>
   </g>
   <g id="patch_52">
    <path clip-path="url(#p91897ce88f)" d="M 520.46053 288.68 
L 528.064495 288.68 
L 528.064495 265.716884 
L 520.46053 265.716884 
z
" style="opacity:0.2;"/>
   </g>
   <g id="matplotlib.axis_1">
    <g id="xtick_1">
     <g id="line2d_1">
      <defs>
       <path d="M 0 0 
L 0 3.5 
" id="m62b0595a3b" style="stroke:#000000;stroke-width:0.8;"/>
      </defs>
      <g>
       <use style="stroke:#000000;stroke-width:0.8;" x="48.965625" xlink:href="#m62b0595a3b" y="290.68"/>
      </g>
     </g>
     <g id="text_1">
      <!-- 0 -->
      <defs>
       <path d="M 31.78125 66.40625 
Q 24.171875 66.40625 20.328125 58.90625 
Q 16.5 51.421875 16.5 36.375 
Q 16.5 21.390625 20.328125 13.890625 
Q 24.171875 6.390625 31.78125 6.390625 
Q 39.453125 6.390625 43.28125 13.890625 
Q 47.125 21.390625 47.125 36.375 
Q 47.125 51.421875 43.28125 58.90625 
Q 39.453125 66.40625 31.78125 66.40625 
z
M 31.78125 74.21875 
Q 44.046875 74.21875 50.515625 64.515625 
Q 56.984375 54.828125 56.984375 36.375 
Q 56.984375 17.96875 50.515625 8.265625 
Q 44.046875 -1.421875 31.78125 -1.421875 
Q 19.53125 -1.421875 13.0625 8.265625 
Q 6.59375 17.96875 6.59375 36.375 
Q 6.59375 54.828125 13.0625 64.515625 
Q 19.53125 74.21875 31.78125 74.21875 
z
" id="DejaVuSans-48"/>
      </defs>
      <g transform="translate(45.784375 305.278437)scale(0.1 -0.1)">
       <use xlink:href="#DejaVuSans-48"/>
      </g>
     </g>
    </g>
    <g id="xtick_2">
     <g id="line2d_2">
      <g>
       <use style="stroke:#000000;stroke-width:0.8;" x="144.996625" xlink:href="#m62b0595a3b" y="290.68"/>
      </g>
     </g>
     <g id="text_2">
      <!-- 1 -->
      <defs>
       <path d="M 12.40625 8.296875 
L 28.515625 8.296875 
L 28.515625 63.921875 
L 10.984375 60.40625 
L 10.984375 69.390625 
L 28.421875 72.90625 
L 38.28125 72.90625 
L 38.28125 8.296875 
L 54.390625 8.296875 
L 54.390625 0 
L 12.40625 0 
z
" id="DejaVuSans-49"/>
      </defs>
      <g transform="translate(141.815375 305.278437)scale(0.1 -0.1)">
       <use xlink:href="#DejaVuSans-49"/>
      </g>
     </g>
    </g>
    <g id="xtick_3">
     <g id="line2d_3">
      <g>
       <use style="stroke:#000000;stroke-width:0.8;" x="241.027625" xlink:href="#m62b0595a3b" y="290.68"/>
      </g>
     </g>
     <g id="text_3">
      <!-- 2 -->
      <defs>
       <path d="M 19.1875 8.296875 
L 53.609375 8.296875 
L 53.609375 0 
L 7.328125 0 
L 7.328125 8.296875 
Q 12.9375 14.109375 22.625 23.890625 
Q 32.328125 33.6875 34.8125 36.53125 
Q 39.546875 41.84375 41.421875 45.53125 
Q 43.3125 49.21875 43.3125 52.78125 
Q 43.3125 58.59375 39.234375 62.25 
Q 35.15625 65.921875 28.609375 65.921875 
Q 23.96875 65.921875 18.8125 64.3125 
Q 13.671875 62.703125 7.8125 59.421875 
L 7.8125 69.390625 
Q 13.765625 71.78125 18.9375 73 
Q 24.125 74.21875 28.421875 74.21875 
Q 39.75 74.21875 46.484375 68.546875 
Q 53.21875 62.890625 53.21875 53.421875 
Q 53.21875 48.921875 51.53125 44.890625 
Q 49.859375 40.875 45.40625 35.40625 
Q 44.1875 33.984375 37.640625 27.21875 
Q 31.109375 20.453125 19.1875 8.296875 
z
" id="DejaVuSans-50"/>
      </defs>
      <g transform="translate(237.846375 305.278437)scale(0.1 -0.1)">
       <use xlink:href="#DejaVuSans-50"/>
      </g>
     </g>
    </g>
    <g id="xtick_4">
     <g id="line2d_4">
      <g>
       <use style="stroke:#000000;stroke-width:0.8;" x="337.058625" xlink:href="#m62b0595a3b" y="290.68"/>
      </g>
     </g>
     <g id="text_4">
      <!-- 3 -->
      <defs>
       <path d="M 40.578125 39.3125 
Q 47.65625 37.796875 51.625 33 
Q 55.609375 28.21875 55.609375 21.1875 
Q 55.609375 10.40625 48.1875 4.484375 
Q 40.765625 -1.421875 27.09375 -1.421875 
Q 22.515625 -1.421875 17.65625 -0.515625 
Q 12.796875 0.390625 7.625 2.203125 
L 7.625 11.71875 
Q 11.71875 9.328125 16.59375 8.109375 
Q 21.484375 6.890625 26.8125 6.890625 
Q 36.078125 6.890625 40.9375 10.546875 
Q 45.796875 14.203125 45.796875 21.1875 
Q 45.796875 27.640625 41.28125 31.265625 
Q 36.765625 34.90625 28.71875 34.90625 
L 20.21875 34.90625 
L 20.21875 43.015625 
L 29.109375 43.015625 
Q 36.375 43.015625 40.234375 45.921875 
Q 44.09375 48.828125 44.09375 54.296875 
Q 44.09375 59.90625 40.109375 62.90625 
Q 36.140625 65.921875 28.71875 65.921875 
Q 24.65625 65.921875 20.015625 65.03125 
Q 15.375 64.15625 9.8125 62.3125 
L 9.8125 71.09375 
Q 15.4375 72.65625 20.34375 73.4375 
Q 25.25 74.21875 29.59375 74.21875 
Q 40.828125 74.21875 47.359375 69.109375 
Q 53.90625 64.015625 53.90625 55.328125 
Q 53.90625 49.265625 50.4375 45.09375 
Q 46.96875 40.921875 40.578125 39.3125 
z
" id="DejaVuSans-51"/>
      </defs>
      <g transform="translate(333.877375 305.278437)scale(0.1 -0.1)">
       <use xlink:href="#DejaVuSans-51"/>
      </g>
     </g>
    </g>
    <g id="xtick_5">
     <g id="line2d_5">
      <g>
       <use style="stroke:#000000;stroke-width:0.8;" x="433.089625" xlink:href="#m62b0595a3b" y="290.68"/>
      </g>
     </g>
     <g id="text_5">
      <!-- 4 -->
      <defs>
       <path d="M 37.796875 64.3125 
L 12.890625 25.390625 
L 37.796875 25.390625 
z
M 35.203125 72.90625 
L 47.609375 72.90625 
L 47.609375 25.390625 
L 58.015625 25.390625 
L 58.015625 17.1875 
L 47.609375 17.1875 
L 47.609375 0 
L 37.796875 0 
L 37.796875 17.1875 
L 4.890625 17.1875 
L 4.890625 26.703125 
z
" id="DejaVuSans-52"/>
      </defs>
      <g transform="translate(429.908375 305.278437)scale(0.1 -0.1)">
       <use xlink:href="#DejaVuSans-52"/>
      </g>
     </g>
    </g>
    <g id="xtick_6">
     <g id="line2d_6">
      <g>
       <use style="stroke:#000000;stroke-width:0.8;" x="529.120625" xlink:href="#m62b0595a3b" y="290.68"/>
      </g>
     </g>
     <g id="text_6">
      <!-- 5 -->
      <defs>
       <path d="M 10.796875 72.90625 
L 49.515625 72.90625 
L 49.515625 64.59375 
L 19.828125 64.59375 
L 19.828125 46.734375 
Q 21.96875 47.46875 24.109375 47.828125 
Q 26.265625 48.1875 28.421875 48.1875 
Q 40.625 48.1875 47.75 41.5 
Q 54.890625 34.8125 54.890625 23.390625 
Q 54.890625 11.625 47.5625 5.09375 
Q 40.234375 -1.421875 26.90625 -1.421875 
Q 22.3125 -1.421875 17.546875 -0.640625 
Q 12.796875 0.140625 7.71875 1.703125 
L 7.71875 11.625 
Q 12.109375 9.234375 16.796875 8.0625 
Q 21.484375 6.890625 26.703125 6.890625 
Q 35.15625 6.890625 40.078125 11.328125 
Q 45.015625 15.765625 45.015625 23.390625 
Q 45.015625 31 40.078125 35.4375 
Q 35.15625 39.890625 26.703125 39.890625 
Q 22.75 39.890625 18.8125 39.015625 
Q 14.890625 38.140625 10.796875 36.28125 
z
" id="DejaVuSans-53"/>
      </defs>
      <g transform="translate(525.939375 305.278437)scale(0.1 -0.1)">
       <use xlink:href="#DejaVuSans-53"/>
      </g>
     </g>
    </g>
    <g id="text_7">
     <!-- $K_{\mathrm{S}}$ -->
     <defs>
      <path d="M 16.890625 72.90625 
L 26.8125 72.90625 
L 20.796875 42.1875 
L 59.078125 72.90625 
L 72.21875 72.90625 
L 28.90625 38.09375 
L 60.59375 0 
L 48.578125 0 
L 19.484375 35.5 
L 12.59375 0 
L 2.6875 0 
z
" id="DejaVuSans-Oblique-75"/>
      <path d="M 53.515625 70.515625 
L 53.515625 60.890625 
Q 47.90625 63.578125 42.921875 64.890625 
Q 37.9375 66.21875 33.296875 66.21875 
Q 25.25 66.21875 20.875 63.09375 
Q 16.5 59.96875 16.5 54.203125 
Q 16.5 49.359375 19.40625 46.890625 
Q 22.3125 44.4375 30.421875 42.921875 
L 36.375 41.703125 
Q 47.40625 39.59375 52.65625 34.296875 
Q 57.90625 29 57.90625 20.125 
Q 57.90625 9.515625 50.796875 4.046875 
Q 43.703125 -1.421875 29.984375 -1.421875 
Q 24.8125 -1.421875 18.96875 -0.25 
Q 13.140625 0.921875 6.890625 3.21875 
L 6.890625 13.375 
Q 12.890625 10.015625 18.65625 8.296875 
Q 24.421875 6.59375 29.984375 6.59375 
Q 38.421875 6.59375 43.015625 9.90625 
Q 47.609375 13.234375 47.609375 19.390625 
Q 47.609375 24.75 44.3125 27.78125 
Q 41.015625 30.8125 33.5 32.328125 
L 27.484375 33.5 
Q 16.453125 35.6875 11.515625 40.375 
Q 6.59375 45.0625 6.59375 53.421875 
Q 6.59375 63.09375 13.40625 68.65625 
Q 20.21875 74.21875 32.171875 74.21875 
Q 37.3125 74.21875 42.625 73.28125 
Q 47.953125 72.359375 53.515625 70.515625 
z
" id="DejaVuSans-83"/>
     </defs>
     <g transform="translate(283.393125 318.956562)scale(0.1 -0.1)">
      <use transform="translate(0 0.09375)" xlink:href="#DejaVuSans-Oblique-75"/>
      <use transform="translate(65.576172 -16.3125)scale(0.7)" xlink:href="#DejaVuSans-83"/>
     </g>
    </g>
   </g>
   <g id="matplotlib.axis_2">
    <g id="ytick_1">
     <g id="line2d_7">
      <defs>
       <path d="M 0 0 
L -3.5 0 
" id="mabda83021b" style="stroke:#000000;stroke-width:0.8;"/>
      </defs>
      <g>
       <use style="stroke:#000000;stroke-width:0.8;" x="46.965625" xlink:href="#mabda83021b" y="288.68"/>
      </g>
     </g>
     <g id="text_8">
      <!-- 0 -->
      <g transform="translate(33.603125 292.479219)scale(0.1 -0.1)">
       <use xlink:href="#DejaVuSans-48"/>
      </g>
     </g>
    </g>
    <g id="ytick_2">
     <g id="line2d_8">
      <g>
       <use style="stroke:#000000;stroke-width:0.8;" x="46.965625" xlink:href="#mabda83021b" y="236.744436"/>
      </g>
     </g>
     <g id="text_9">
      <!-- 100 -->
      <g transform="translate(20.878125 240.543655)scale(0.1 -0.1)">
       <use xlink:href="#DejaVuSans-49"/>
       <use x="63.623047" xlink:href="#DejaVuSans-48"/>
       <use x="127.246094" xlink:href="#DejaVuSans-48"/>
      </g>
     </g>
    </g>
    <g id="ytick_3">
     <g id="line2d_9">
      <g>
       <use style="stroke:#000000;stroke-width:0.8;" x="46.965625" xlink:href="#mabda83021b" y="184.808872"/>
      </g>
     </g>
     <g id="text_10">
      <!-- 200 -->
      <g transform="translate(20.878125 188.608091)scale(0.1 -0.1)">
       <use xlink:href="#DejaVuSans-50"/>
       <use x="63.623047" xlink:href="#DejaVuSans-48"/>
       <use x="127.246094" xlink:href="#DejaVuSans-48"/>
      </g>
     </g>
    </g>
    <g id="ytick_4">
     <g id="line2d_10">
      <g>
       <use style="stroke:#000000;stroke-width:0.8;" x="46.965625" xlink:href="#mabda83021b" y="132.873308"/>
      </g>
     </g>
     <g id="text_11">
      <!-- 300 -->
      <g transform="translate(20.878125 136.672527)scale(0.1 -0.1)">
       <use xlink:href="#DejaVuSans-51"/>
       <use x="63.623047" xlink:href="#DejaVuSans-48"/>
       <use x="127.246094" xlink:href="#DejaVuSans-48"/>
      </g>
     </g>
    </g>
    <g id="ytick_5">
     <g id="line2d_11">
      <g>
       <use style="stroke:#000000;stroke-width:0.8;" x="46.965625" xlink:href="#mabda83021b" y="80.937745"/>
      </g>
     </g>
     <g id="text_12">
      <!-- 400 -->
      <g transform="translate(20.878125 84.736963)scale(0.1 -0.1)">
       <use xlink:href="#DejaVuSans-52"/>
       <use x="63.623047" xlink:href="#DejaVuSans-48"/>
       <use x="127.246094" xlink:href="#DejaVuSans-48"/>
      </g>
     </g>
    </g>
    <g id="ytick_6">
     <g id="line2d_12">
      <g>
       <use style="stroke:#000000;stroke-width:0.8;" x="46.965625" xlink:href="#mabda83021b" y="29.002181"/>
      </g>
     </g>
     <g id="text_13">
      <!-- 500 -->
      <g transform="translate(20.878125 32.8014)scale(0.1 -0.1)">
       <use xlink:href="#DejaVuSans-53"/>
       <use x="63.623047" xlink:href="#DejaVuSans-48"/>
       <use x="127.246094" xlink:href="#DejaVuSans-48"/>
      </g>
     </g>
    </g>
    <g id="text_14">
     <!-- Duplications -->
     <defs>
      <path d="M 19.671875 64.796875 
L 19.671875 8.109375 
L 31.59375 8.109375 
Q 46.6875 8.109375 53.6875 14.9375 
Q 60.6875 21.78125 60.6875 36.53125 
Q 60.6875 51.171875 53.6875 57.984375 
Q 46.6875 64.796875 31.59375 64.796875 
z
M 9.8125 72.90625 
L 30.078125 72.90625 
Q 51.265625 72.90625 61.171875 64.09375 
Q 71.09375 55.28125 71.09375 36.53125 
Q 71.09375 17.671875 61.125 8.828125 
Q 51.171875 0 30.078125 0 
L 9.8125 0 
z
" id="DejaVuSans-68"/>
      <path d="M 8.5 21.578125 
L 8.5 54.6875 
L 17.484375 54.6875 
L 17.484375 21.921875 
Q 17.484375 14.15625 20.5 10.265625 
Q 23.53125 6.390625 29.59375 6.390625 
Q 36.859375 6.390625 41.078125 11.03125 
Q 45.3125 15.671875 45.3125 23.6875 
L 45.3125 54.6875 
L 54.296875 54.6875 
L 54.296875 0 
L 45.3125 0 
L 45.3125 8.40625 
Q 42.046875 3.421875 37.71875 1 
Q 33.40625 -1.421875 27.6875 -1.421875 
Q 18.265625 -1.421875 13.375 4.4375 
Q 8.5 10.296875 8.5 21.578125 
z
M 31.109375 56 
z
" id="DejaVuSans-117"/>
      <path d="M 18.109375 8.203125 
L 18.109375 -20.796875 
L 9.078125 -20.796875 
L 9.078125 54.6875 
L 18.109375 54.6875 
L 18.109375 46.390625 
Q 20.953125 51.265625 25.265625 53.625 
Q 29.59375 56 35.59375 56 
Q 45.5625 56 51.78125 48.09375 
Q 58.015625 40.1875 58.015625 27.296875 
Q 58.015625 14.40625 51.78125 6.484375 
Q 45.5625 -1.421875 35.59375 -1.421875 
Q 29.59375 -1.421875 25.265625 0.953125 
Q 20.953125 3.328125 18.109375 8.203125 
z
M 48.6875 27.296875 
Q 48.6875 37.203125 44.609375 42.84375 
Q 40.53125 48.484375 33.40625 48.484375 
Q 26.265625 48.484375 22.1875 42.84375 
Q 18.109375 37.203125 18.109375 27.296875 
Q 18.109375 17.390625 22.1875 11.75 
Q 26.265625 6.109375 33.40625 6.109375 
Q 40.53125 6.109375 44.609375 11.75 
Q 48.6875 17.390625 48.6875 27.296875 
z
" id="DejaVuSans-112"/>
      <path d="M 9.421875 75.984375 
L 18.40625 75.984375 
L 18.40625 0 
L 9.421875 0 
z
" id="DejaVuSans-108"/>
      <path d="M 9.421875 54.6875 
L 18.40625 54.6875 
L 18.40625 0 
L 9.421875 0 
z
M 9.421875 75.984375 
L 18.40625 75.984375 
L 18.40625 64.59375 
L 9.421875 64.59375 
z
" id="DejaVuSans-105"/>
      <path d="M 48.78125 52.59375 
L 48.78125 44.1875 
Q 44.96875 46.296875 41.140625 47.34375 
Q 37.3125 48.390625 33.40625 48.390625 
Q 24.65625 48.390625 19.8125 42.84375 
Q 14.984375 37.3125 14.984375 27.296875 
Q 14.984375 17.28125 19.8125 11.734375 
Q 24.65625 6.203125 33.40625 6.203125 
Q 37.3125 6.203125 41.140625 7.25 
Q 44.96875 8.296875 48.78125 10.40625 
L 48.78125 2.09375 
Q 45.015625 0.34375 40.984375 -0.53125 
Q 36.96875 -1.421875 32.421875 -1.421875 
Q 20.0625 -1.421875 12.78125 6.34375 
Q 5.515625 14.109375 5.515625 27.296875 
Q 5.515625 40.671875 12.859375 48.328125 
Q 20.21875 56 33.015625 56 
Q 37.15625 56 41.109375 55.140625 
Q 45.0625 54.296875 48.78125 52.59375 
z
" id="DejaVuSans-99"/>
      <path d="M 34.28125 27.484375 
Q 23.390625 27.484375 19.1875 25 
Q 14.984375 22.515625 14.984375 16.5 
Q 14.984375 11.71875 18.140625 8.90625 
Q 21.296875 6.109375 26.703125 6.109375 
Q 34.1875 6.109375 38.703125 11.40625 
Q 43.21875 16.703125 43.21875 25.484375 
L 43.21875 27.484375 
z
M 52.203125 31.203125 
L 52.203125 0 
L 43.21875 0 
L 43.21875 8.296875 
Q 40.140625 3.328125 35.546875 0.953125 
Q 30.953125 -1.421875 24.3125 -1.421875 
Q 15.921875 -1.421875 10.953125 3.296875 
Q 6 8.015625 6 15.921875 
Q 6 25.140625 12.171875 29.828125 
Q 18.359375 34.515625 30.609375 34.515625 
L 43.21875 34.515625 
L 43.21875 35.40625 
Q 43.21875 41.609375 39.140625 45 
Q 35.0625 48.390625 27.6875 48.390625 
Q 23 48.390625 18.546875 47.265625 
Q 14.109375 46.140625 10.015625 43.890625 
L 10.015625 52.203125 
Q 14.9375 54.109375 19.578125 55.046875 
Q 24.21875 56 28.609375 56 
Q 40.484375 56 46.34375 49.84375 
Q 52.203125 43.703125 52.203125 31.203125 
z
" id="DejaVuSans-97"/>
      <path d="M 18.3125 70.21875 
L 18.3125 54.6875 
L 36.8125 54.6875 
L 36.8125 47.703125 
L 18.3125 47.703125 
L 18.3125 18.015625 
Q 18.3125 11.328125 20.140625 9.421875 
Q 21.96875 7.515625 27.59375 7.515625 
L 36.8125 7.515625 
L 36.8125 0 
L 27.59375 0 
Q 17.1875 0 13.234375 3.875 
Q 9.28125 7.765625 9.28125 18.015625 
L 9.28125 47.703125 
L 2.6875 47.703125 
L 2.6875 54.6875 
L 9.28125 54.6875 
L 9.28125 70.21875 
z
" id="DejaVuSans-116"/>
      <path d="M 30.609375 48.390625 
Q 23.390625 48.390625 19.1875 42.75 
Q 14.984375 37.109375 14.984375 27.296875 
Q 14.984375 17.484375 19.15625 11.84375 
Q 23.34375 6.203125 30.609375 6.203125 
Q 37.796875 6.203125 41.984375 11.859375 
Q 46.1875 17.53125 46.1875 27.296875 
Q 46.1875 37.015625 41.984375 42.703125 
Q 37.796875 48.390625 30.609375 48.390625 
z
M 30.609375 56 
Q 42.328125 56 49.015625 48.375 
Q 55.71875 40.765625 55.71875 27.296875 
Q 55.71875 13.875 49.015625 6.21875 
Q 42.328125 -1.421875 30.609375 -1.421875 
Q 18.84375 -1.421875 12.171875 6.21875 
Q 5.515625 13.875 5.515625 27.296875 
Q 5.515625 40.765625 12.171875 48.375 
Q 18.84375 56 30.609375 56 
z
" id="DejaVuSans-111"/>
      <path d="M 54.890625 33.015625 
L 54.890625 0 
L 45.90625 0 
L 45.90625 32.71875 
Q 45.90625 40.484375 42.875 44.328125 
Q 39.84375 48.1875 33.796875 48.1875 
Q 26.515625 48.1875 22.3125 43.546875 
Q 18.109375 38.921875 18.109375 30.90625 
L 18.109375 0 
L 9.078125 0 
L 9.078125 54.6875 
L 18.109375 54.6875 
L 18.109375 46.1875 
Q 21.34375 51.125 25.703125 53.5625 
Q 30.078125 56 35.796875 56 
Q 45.21875 56 50.046875 50.171875 
Q 54.890625 44.34375 54.890625 33.015625 
z
" id="DejaVuSans-110"/>
      <path d="M 44.28125 53.078125 
L 44.28125 44.578125 
Q 40.484375 46.53125 36.375 47.5 
Q 32.28125 48.484375 27.875 48.484375 
Q 21.1875 48.484375 17.84375 46.4375 
Q 14.5 44.390625 14.5 40.28125 
Q 14.5 37.15625 16.890625 35.375 
Q 19.28125 33.59375 26.515625 31.984375 
L 29.59375 31.296875 
Q 39.15625 29.25 43.1875 25.515625 
Q 47.21875 21.78125 47.21875 15.09375 
Q 47.21875 7.46875 41.1875 3.015625 
Q 35.15625 -1.421875 24.609375 -1.421875 
Q 20.21875 -1.421875 15.453125 -0.5625 
Q 10.6875 0.296875 5.421875 2 
L 5.421875 11.28125 
Q 10.40625 8.6875 15.234375 7.390625 
Q 20.0625 6.109375 24.8125 6.109375 
Q 31.15625 6.109375 34.5625 8.28125 
Q 37.984375 10.453125 37.984375 14.40625 
Q 37.984375 18.0625 35.515625 20.015625 
Q 33.0625 21.96875 24.703125 23.78125 
L 21.578125 24.515625 
Q 13.234375 26.265625 9.515625 29.90625 
Q 5.8125 33.546875 5.8125 39.890625 
Q 5.8125 47.609375 11.28125 51.796875 
Q 16.75 56 26.8125 56 
Q 31.78125 56 36.171875 55.265625 
Q 40.578125 54.546875 44.28125 53.078125 
z
" id="DejaVuSans-115"/>
     </defs>
     <g transform="translate(14.798437 178.906406)rotate(-90)scale(0.1 -0.1)">
      <use xlink:href="#DejaVuSans-68"/>
      <use x="77.001953" xlink:href="#DejaVuSans-117"/>
      <use x="140.380859" xlink:href="#DejaVuSans-112"/>
      <use x="203.857422" xlink:href="#DejaVuSans-108"/>
      <use x="231.640625" xlink:href="#DejaVuSans-105"/>
      <use x="259.423828" xlink:href="#DejaVuSans-99"/>
      <use x="314.404297" xlink:href="#DejaVuSans-97"/>
      <use x="375.683594" xlink:href="#DejaVuSans-116"/>
      <use x="414.892578" xlink:href="#DejaVuSans-105"/>
      <use x="442.675781" xlink:href="#DejaVuSans-111"/>
      <use x="503.857422" xlink:href="#DejaVuSans-110"/>
      <use x="567.236328" xlink:href="#DejaVuSans-115"/>
     </g>
    </g>
   </g>
   <g id="patch_53">
    <path d="M 46.965625 288.68 
L 46.965625 7.2 
" style="fill:none;stroke:#000000;stroke-linecap:square;stroke-linejoin:miter;stroke-width:0.8;"/>
   </g>
   <g id="patch_54">
    <path d="M 48.965625 290.68 
L 529.120625 290.68 
" style="fill:none;stroke:#000000;stroke-linecap:square;stroke-linejoin:miter;stroke-width:0.8;"/>
   </g>
  </g>
  <g id="axes_2">
   <g id="patch_55">
    <path d="M 585.140625 288.68 
L 1065.295625 288.68 
L 1065.295625 7.2 
L 585.140625 7.2 
z
" style="fill:#ffffff;"/>
   </g>
   <g id="patch_56">
    <path clip-path="url(#p3c72d560d6)" d="M 586.080079 288.68 
L 593.762526 288.68 
L 593.762526 281.028337 
L 586.080079 281.028337 
z
" style="opacity:0.2;"/>
   </g>
   <g id="patch_57">
    <path clip-path="url(#p3c72d560d6)" d="M 595.683137 288.68 
L 603.365584 288.68 
L 603.365584 282.449534 
L 595.683137 282.449534 
z
" style="opacity:0.2;"/>
   </g>
   <g id="patch_58">
    <path clip-path="url(#p3c72d560d6)" d="M 605.286196 288.68 
L 612.968642 288.68 
L 612.968642 279.996557 
L 605.286196 279.996557 
z
" style="opacity:0.2;"/>
   </g>
   <g id="patch_59">
    <path clip-path="url(#p3c72d560d6)" d="M 614.889254 288.68 
L 622.5717 288.68 
L 622.5717 280.188842 
L 614.889254 280.188842 
z
" style="opacity:0.2;"/>
   </g>
   <g id="patch_60">
    <path clip-path="url(#p3c72d560d6)" d="M 624.492312 288.68 
L 632.174758 288.68 
L 632.174758 276.555673 
L 624.492312 276.555673 
z
" style="opacity:0.2;"/>
   </g>
   <g id="patch_61">
    <path clip-path="url(#p3c72d560d6)" d="M 634.09537 288.68 
L 641.777817 288.68 
L 641.777817 271.902532 
L 634.09537 271.902532 
z
" style="opacity:0.2;"/>
   </g>
   <g id="patch_62">
    <path clip-path="url(#p3c72d560d6)" d="M 643.698428 288.68 
L 651.380875 288.68 
L 651.380875 271.6437 
L 643.698428 271.6437 
z
" style="opacity:0.2;"/>
   </g>
   <g id="patch_63">
    <path clip-path="url(#p3c72d560d6)" d="M 653.301487 288.68 
L 660.983933 288.68 
L 660.983933 271.376032 
L 653.301487 271.376032 
z
" style="opacity:0.2;"/>
   </g>
   <g id="patch_64">
    <path clip-path="url(#p3c72d560d6)" d="M 662.904545 288.68 
L 670.586991 288.68 
L 670.586991 262.620118 
L 662.904545 262.620118 
z
" style="opacity:0.2;"/>
   </g>
   <g id="patch_65">
    <path clip-path="url(#p3c72d560d6)" d="M 672.507603 288.68 
L 680.190049 288.68 
L 680.190049 270.72216 
L 672.507603 270.72216 
z
" style="opacity:0.2;"/>
   </g>
   <g id="patch_66">
    <path clip-path="url(#p3c72d560d6)" d="M 682.110661 288.68 
L 689.793108 288.68 
L 689.793108 272.823995 
L 682.110661 272.823995 
z
" style="opacity:0.2;"/>
   </g>
   <g id="patch_67">
    <path clip-path="url(#p3c72d560d6)" d="M 691.713719 288.68 
L 699.396166 288.68 
L 699.396166 262.393332 
L 691.713719 262.393332 
z
" style="opacity:0.2;"/>
   </g>
   <g id="patch_68">
    <path clip-path="url(#p3c72d560d6)" d="M 701.316778 288.68 
L 708.999224 288.68 
L 708.999224 273.559577 
L 701.316778 273.559577 
z
" style="opacity:0.2;"/>
   </g>
   <g id="patch_69">
    <path clip-path="url(#p3c72d560d6)" d="M 710.919836 288.68 
L 718.602282 288.68 
L 718.602282 262.987769 
L 710.919836 262.987769 
z
" style="opacity:0.2;"/>
   </g>
   <g id="patch_70">
    <path clip-path="url(#p3c72d560d6)" d="M 720.522894 288.68 
L 728.20534 288.68 
L 728.20534 258.795238 
L 720.522894 258.795238 
z
" style="opacity:0.2;"/>
   </g>
   <g id="patch_71">
    <path clip-path="url(#p3c72d560d6)" d="M 730.125952 288.68 
L 737.808399 288.68 
L 737.808399 259.03191 
L 730.125952 259.03191 
z
" style="opacity:0.2;"/>
   </g>
   <g id="patch_72">
    <path clip-path="url(#p3c72d560d6)" d="M 739.72901 288.68 
L 747.411457 288.68 
L 747.411457 254.304608 
L 739.72901 254.304608 
z
" style="opacity:0.2;"/>
   </g>
   <g id="patch_73">
    <path clip-path="url(#p3c72d560d6)" d="M 749.332069 288.68 
L 757.014515 288.68 
L 757.014515 243.244246 
L 749.332069 243.244246 
z
" style="opacity:0.2;"/>
   </g>
   <g id="patch_74">
    <path clip-path="url(#p3c72d560d6)" d="M 758.935127 288.68 
L 766.617573 288.68 
L 766.617573 245.412711 
L 758.935127 245.412711 
z
" style="opacity:0.2;"/>
   </g>
   <g id="patch_75">
    <path clip-path="url(#p3c72d560d6)" d="M 768.538185 288.68 
L 776.220631 288.68 
L 776.220631 226.16303 
L 768.538185 226.16303 
z
" style="opacity:0.2;"/>
   </g>
   <g id="patch_76">
    <path clip-path="url(#p3c72d560d6)" d="M 778.141243 288.68 
L 785.82369 288.68 
L 785.82369 192.459563 
L 778.141243 192.459563 
z
" style="opacity:0.2;"/>
   </g>
   <g id="patch_77">
    <path clip-path="url(#p3c72d560d6)" d="M 787.744301 288.68 
L 795.426748 288.68 
L 795.426748 144.410641 
L 787.744301 144.410641 
z
" style="opacity:0.2;"/>
   </g>
   <g id="patch_78">
    <path clip-path="url(#p3c72d560d6)" d="M 797.34736 288.68 
L 805.029806 288.68 
L 805.029806 74.726482 
L 797.34736 74.726482 
z
" style="opacity:0.2;"/>
   </g>
   <g id="patch_79">
    <path clip-path="url(#p3c72d560d6)" d="M 806.950418 288.68 
L 814.632864 288.68 
L 814.632864 37.013469 
L 806.950418 37.013469 
z
" style="opacity:0.2;"/>
   </g>
   <g id="patch_80">
    <path clip-path="url(#p3c72d560d6)" d="M 816.553476 288.68 
L 824.235922 288.68 
L 824.235922 20.60381 
L 816.553476 20.60381 
z
" style="opacity:0.2;"/>
   </g>
   <g id="patch_81">
    <path clip-path="url(#p3c72d560d6)" d="M 826.156534 288.68 
L 833.838981 288.68 
L 833.838981 40.145962 
L 826.156534 40.145962 
z
" style="opacity:0.2;"/>
   </g>
   <g id="patch_82">
    <path clip-path="url(#p3c72d560d6)" d="M 835.759592 288.68 
L 843.442039 288.68 
L 843.442039 43.363061 
L 835.759592 43.363061 
z
" style="opacity:0.2;"/>
   </g>
   <g id="patch_83">
    <path clip-path="url(#p3c72d560d6)" d="M 845.362651 288.68 
L 853.045097 288.68 
L 853.045097 99.124701 
L 845.362651 99.124701 
z
" style="opacity:0.2;"/>
   </g>
   <g id="patch_84">
    <path clip-path="url(#p3c72d560d6)" d="M 854.965709 288.68 
L 862.648155 288.68 
L 862.648155 146.020277 
L 854.965709 146.020277 
z
" style="opacity:0.2;"/>
   </g>
   <g id="patch_85">
    <path clip-path="url(#p3c72d560d6)" d="M 864.568767 288.68 
L 872.251214 288.68 
L 872.251214 132.651462 
L 864.568767 132.651462 
z
" style="opacity:0.2;"/>
   </g>
   <g id="patch_86">
    <path clip-path="url(#p3c72d560d6)" d="M 874.171825 288.68 
L 881.854272 288.68 
L 881.854272 128.735184 
L 874.171825 128.735184 
z
" style="opacity:0.2;"/>
   </g>
   <g id="patch_87">
    <path clip-path="url(#p3c72d560d6)" d="M 883.774883 288.68 
L 891.45733 288.68 
L 891.45733 105.672826 
L 883.774883 105.672826 
z
" style="opacity:0.2;"/>
   </g>
   <g id="patch_88">
    <path clip-path="url(#p3c72d560d6)" d="M 893.377942 288.68 
L 901.060388 288.68 
L 901.060388 112.641775 
L 893.377942 112.641775 
z
" style="opacity:0.2;"/>
   </g>
   <g id="patch_89">
    <path clip-path="url(#p3c72d560d6)" d="M 902.981 288.68 
L 910.663446 288.68 
L 910.663446 102.671075 
L 902.981 102.671075 
z
" style="opacity:0.2;"/>
   </g>
   <g id="patch_90">
    <path clip-path="url(#p3c72d560d6)" d="M 912.584058 288.68 
L 920.266505 288.68 
L 920.266505 104.697264 
L 912.584058 104.697264 
z
" style="opacity:0.2;"/>
   </g>
   <g id="patch_91">
    <path clip-path="url(#p3c72d560d6)" d="M 922.187116 288.68 
L 929.869563 288.68 
L 929.869563 101.993031 
L 922.187116 101.993031 
z
" style="opacity:0.2;"/>
   </g>
   <g id="patch_92">
    <path clip-path="url(#p3c72d560d6)" d="M 931.790174 288.68 
L 939.472621 288.68 
L 939.472621 105.965617 
L 931.790174 105.965617 
z
" style="opacity:0.2;"/>
   </g>
   <g id="patch_93">
    <path clip-path="url(#p3c72d560d6)" d="M 941.393233 288.68 
L 949.075679 288.68 
L 949.075679 124.214046 
L 941.393233 124.214046 
z
" style="opacity:0.2;"/>
   </g>
   <g id="patch_94">
    <path clip-path="url(#p3c72d560d6)" d="M 950.996291 288.68 
L 958.678737 288.68 
L 958.678737 92.699131 
L 950.996291 92.699131 
z
" style="opacity:0.2;"/>
   </g>
   <g id="patch_95">
    <path clip-path="url(#p3c72d560d6)" d="M 960.599349 288.68 
L 968.281796 288.68 
L 968.281796 123.266994 
L 960.599349 123.266994 
z
" style="opacity:0.2;"/>
   </g>
   <g id="patch_96">
    <path clip-path="url(#p3c72d560d6)" d="M 970.202407 288.68 
L 977.884854 288.68 
L 977.884854 98.613676 
L 970.202407 98.613676 
z
" style="opacity:0.2;"/>
   </g>
   <g id="patch_97">
    <path clip-path="url(#p3c72d560d6)" d="M 979.805465 288.68 
L 987.487912 288.68 
L 987.487912 102.394623 
L 979.805465 102.394623 
z
" style="opacity:0.2;"/>
   </g>
   <g id="patch_98">
    <path clip-path="url(#p3c72d560d6)" d="M 989.408524 288.68 
L 997.09097 288.68 
L 997.09097 101.683528 
L 989.408524 101.683528 
z
" style="opacity:0.2;"/>
   </g>
   <g id="patch_99">
    <path clip-path="url(#p3c72d560d6)" d="M 999.011582 288.68 
L 1006.694028 288.68 
L 1006.694028 100.900804 
L 999.011582 100.900804 
z
" style="opacity:0.2;"/>
   </g>
   <g id="patch_100">
    <path clip-path="url(#p3c72d560d6)" d="M 1008.61464 288.68 
L 1016.297087 288.68 
L 1016.297087 87.864438 
L 1008.61464 87.864438 
z
" style="opacity:0.2;"/>
   </g>
   <g id="patch_101">
    <path clip-path="url(#p3c72d560d6)" d="M 1018.217698 288.68 
L 1025.900145 288.68 
L 1025.900145 69.243035 
L 1018.217698 69.243035 
z
" style="opacity:0.2;"/>
   </g>
   <g id="patch_102">
    <path clip-path="url(#p3c72d560d6)" d="M 1027.820756 288.68 
L 1035.503203 288.68 
L 1035.503203 84.295935 
L 1027.820756 84.295935 
z
" style="opacity:0.2;"/>
   </g>
   <g id="patch_103">
    <path clip-path="url(#p3c72d560d6)" d="M 1037.423815 288.68 
L 1045.106261 288.68 
L 1045.106261 66.651978 
L 1037.423815 66.651978 
z
" style="opacity:0.2;"/>
   </g>
   <g id="patch_104">
    <path clip-path="url(#p3c72d560d6)" d="M 1047.026873 288.68 
L 1054.709319 288.68 
L 1054.709319 69.800065 
L 1047.026873 69.800065 
z
" style="opacity:0.2;"/>
   </g>
   <g id="patch_105">
    <path clip-path="url(#p3c72d560d6)" d="M 1056.629931 288.68 
L 1064.312378 288.68 
L 1064.312378 78.284318 
L 1056.629931 78.284318 
z
" style="opacity:0.2;"/>
   </g>
   <g id="matplotlib.axis_3">
    <g id="xtick_7">
     <g id="line2d_13">
      <g>
       <use style="stroke:#000000;stroke-width:0.8;" x="597.371459" xlink:href="#m62b0595a3b" y="290.68"/>
      </g>
     </g>
     <g id="text_15">
      <!-- −1.25 -->
      <defs>
       <path d="M 10.59375 35.5 
L 73.1875 35.5 
L 73.1875 27.203125 
L 10.59375 27.203125 
z
" id="DejaVuSans-8722"/>
       <path d="M 10.6875 12.40625 
L 21 12.40625 
L 21 0 
L 10.6875 0 
z
" id="DejaVuSans-46"/>
      </defs>
      <g transform="translate(582.048803 305.278437)scale(0.1 -0.1)">
       <use xlink:href="#DejaVuSans-8722"/>
       <use x="83.789062" xlink:href="#DejaVuSans-49"/>
       <use x="147.412109" xlink:href="#DejaVuSans-46"/>
       <use x="179.199219" xlink:href="#DejaVuSans-50"/>
       <use x="242.822266" xlink:href="#DejaVuSans-53"/>
      </g>
     </g>
    </g>
    <g id="xtick_8">
     <g id="line2d_14">
      <g>
       <use style="stroke:#000000;stroke-width:0.8;" x="657.393441" xlink:href="#m62b0595a3b" y="290.68"/>
      </g>
     </g>
     <g id="text_16">
      <!-- −1.00 -->
      <g transform="translate(642.070784 305.278437)scale(0.1 -0.1)">
       <use xlink:href="#DejaVuSans-8722"/>
       <use x="83.789062" xlink:href="#DejaVuSans-49"/>
       <use x="147.412109" xlink:href="#DejaVuSans-46"/>
       <use x="179.199219" xlink:href="#DejaVuSans-48"/>
       <use x="242.822266" xlink:href="#DejaVuSans-48"/>
      </g>
     </g>
    </g>
    <g id="xtick_9">
     <g id="line2d_15">
      <g>
       <use style="stroke:#000000;stroke-width:0.8;" x="717.415422" xlink:href="#m62b0595a3b" y="290.68"/>
      </g>
     </g>
     <g id="text_17">
      <!-- −0.75 -->
      <defs>
       <path d="M 8.203125 72.90625 
L 55.078125 72.90625 
L 55.078125 68.703125 
L 28.609375 0 
L 18.3125 0 
L 43.21875 64.59375 
L 8.203125 64.59375 
z
" id="DejaVuSans-55"/>
      </defs>
      <g transform="translate(702.092766 305.278437)scale(0.1 -0.1)">
       <use xlink:href="#DejaVuSans-8722"/>
       <use x="83.789062" xlink:href="#DejaVuSans-48"/>
       <use x="147.412109" xlink:href="#DejaVuSans-46"/>
       <use x="179.199219" xlink:href="#DejaVuSans-55"/>
       <use x="242.822266" xlink:href="#DejaVuSans-53"/>
      </g>
     </g>
    </g>
    <g id="xtick_10">
     <g id="line2d_16">
      <g>
       <use style="stroke:#000000;stroke-width:0.8;" x="777.437404" xlink:href="#m62b0595a3b" y="290.68"/>
      </g>
     </g>
     <g id="text_18">
      <!-- −0.50 -->
      <g transform="translate(762.114747 305.278437)scale(0.1 -0.1)">
       <use xlink:href="#DejaVuSans-8722"/>
       <use x="83.789062" xlink:href="#DejaVuSans-48"/>
       <use x="147.412109" xlink:href="#DejaVuSans-46"/>
       <use x="179.199219" xlink:href="#DejaVuSans-53"/>
       <use x="242.822266" xlink:href="#DejaVuSans-48"/>
      </g>
     </g>
    </g>
    <g id="xtick_11">
     <g id="line2d_17">
      <g>
       <use style="stroke:#000000;stroke-width:0.8;" x="837.459385" xlink:href="#m62b0595a3b" y="290.68"/>
      </g>
     </g>
     <g id="text_19">
      <!-- −0.25 -->
      <g transform="translate(822.136729 305.278437)scale(0.1 -0.1)">
       <use xlink:href="#DejaVuSans-8722"/>
       <use x="83.789062" xlink:href="#DejaVuSans-48"/>
       <use x="147.412109" xlink:href="#DejaVuSans-46"/>
       <use x="179.199219" xlink:href="#DejaVuSans-50"/>
       <use x="242.822266" xlink:href="#DejaVuSans-53"/>
      </g>
     </g>
    </g>
    <g id="xtick_12">
     <g id="line2d_18">
      <g>
       <use style="stroke:#000000;stroke-width:0.8;" x="897.481366" xlink:href="#m62b0595a3b" y="290.68"/>
      </g>
     </g>
     <g id="text_20">
      <!-- 0.00 -->
      <g transform="translate(886.348554 305.278437)scale(0.1 -0.1)">
       <use xlink:href="#DejaVuSans-48"/>
       <use x="63.623047" xlink:href="#DejaVuSans-46"/>
       <use x="95.410156" xlink:href="#DejaVuSans-48"/>
       <use x="159.033203" xlink:href="#DejaVuSans-48"/>
      </g>
     </g>
    </g>
    <g id="xtick_13">
     <g id="line2d_19">
      <g>
       <use style="stroke:#000000;stroke-width:0.8;" x="957.503348" xlink:href="#m62b0595a3b" y="290.68"/>
      </g>
     </g>
     <g id="text_21">
      <!-- 0.25 -->
      <g transform="translate(946.370535 305.278437)scale(0.1 -0.1)">
       <use xlink:href="#DejaVuSans-48"/>
       <use x="63.623047" xlink:href="#DejaVuSans-46"/>
       <use x="95.410156" xlink:href="#DejaVuSans-50"/>
       <use x="159.033203" xlink:href="#DejaVuSans-53"/>
      </g>
     </g>
    </g>
    <g id="xtick_14">
     <g id="line2d_20">
      <g>
       <use style="stroke:#000000;stroke-width:0.8;" x="1017.525329" xlink:href="#m62b0595a3b" y="290.68"/>
      </g>
     </g>
     <g id="text_22">
      <!-- 0.50 -->
      <g transform="translate(1006.392517 305.278437)scale(0.1 -0.1)">
       <use xlink:href="#DejaVuSans-48"/>
       <use x="63.623047" xlink:href="#DejaVuSans-46"/>
       <use x="95.410156" xlink:href="#DejaVuSans-53"/>
       <use x="159.033203" xlink:href="#DejaVuSans-48"/>
      </g>
     </g>
    </g>
    <g id="text_23">
     <!-- $\mathrm{log10}(K_{\mathrm{S}})$ -->
     <defs>
      <path d="M 45.40625 27.984375 
Q 45.40625 37.75 41.375 43.109375 
Q 37.359375 48.484375 30.078125 48.484375 
Q 22.859375 48.484375 18.828125 43.109375 
Q 14.796875 37.75 14.796875 27.984375 
Q 14.796875 18.265625 18.828125 12.890625 
Q 22.859375 7.515625 30.078125 7.515625 
Q 37.359375 7.515625 41.375 12.890625 
Q 45.40625 18.265625 45.40625 27.984375 
z
M 54.390625 6.78125 
Q 54.390625 -7.171875 48.1875 -13.984375 
Q 42 -20.796875 29.203125 -20.796875 
Q 24.46875 -20.796875 20.265625 -20.09375 
Q 16.0625 -19.390625 12.109375 -17.921875 
L 12.109375 -9.1875 
Q 16.0625 -11.328125 19.921875 -12.34375 
Q 23.78125 -13.375 27.78125 -13.375 
Q 36.625 -13.375 41.015625 -8.765625 
Q 45.40625 -4.15625 45.40625 5.171875 
L 45.40625 9.625 
Q 42.625 4.78125 38.28125 2.390625 
Q 33.9375 0 27.875 0 
Q 17.828125 0 11.671875 7.65625 
Q 5.515625 15.328125 5.515625 27.984375 
Q 5.515625 40.671875 11.671875 48.328125 
Q 17.828125 56 27.875 56 
Q 33.9375 56 38.28125 53.609375 
Q 42.625 51.21875 45.40625 46.390625 
L 45.40625 54.6875 
L 54.390625 54.6875 
z
" id="DejaVuSans-103"/>
      <path d="M 31 75.875 
Q 24.46875 64.65625 21.28125 53.65625 
Q 18.109375 42.671875 18.109375 31.390625 
Q 18.109375 20.125 21.3125 9.0625 
Q 24.515625 -2 31 -13.1875 
L 23.1875 -13.1875 
Q 15.875 -1.703125 12.234375 9.375 
Q 8.59375 20.453125 8.59375 31.390625 
Q 8.59375 42.28125 12.203125 53.3125 
Q 15.828125 64.359375 23.1875 75.875 
z
" id="DejaVuSans-40"/>
      <path d="M 8.015625 75.875 
L 15.828125 75.875 
Q 23.140625 64.359375 26.78125 53.3125 
Q 30.421875 42.28125 30.421875 31.390625 
Q 30.421875 20.453125 26.78125 9.375 
Q 23.140625 -1.703125 15.828125 -13.1875 
L 8.015625 -13.1875 
Q 14.5 -2 17.703125 9.0625 
Q 20.90625 20.125 20.90625 31.390625 
Q 20.90625 42.671875 17.703125 53.65625 
Q 14.5 64.65625 8.015625 75.875 
z
" id="DejaVuSans-41"/>
     </defs>
     <g transform="translate(801.668125 318.958125)scale(0.1 -0.1)">
      <use transform="translate(0 0.015625)" xlink:href="#DejaVuSans-108"/>
      <use transform="translate(27.783203 0.015625)" xlink:href="#DejaVuSans-111"/>
      <use transform="translate(88.964844 0.015625)" xlink:href="#DejaVuSans-103"/>
      <use transform="translate(152.441406 0.015625)" xlink:href="#DejaVuSans-49"/>
      <use transform="translate(216.064453 0.015625)" xlink:href="#DejaVuSans-48"/>
      <use transform="translate(279.6875 0.015625)" xlink:href="#DejaVuSans-40"/>
      <use transform="translate(318.701172 0.015625)" xlink:href="#DejaVuSans-Oblique-75"/>
      <use transform="translate(384.277344 -16.390625)scale(0.7)" xlink:href="#DejaVuSans-83"/>
      <use transform="translate(431.445312 0.015625)" xlink:href="#DejaVuSans-41"/>
     </g>
    </g>
   </g>
   <g id="matplotlib.axis_4">
    <g id="ytick_7">
     <g id="line2d_21">
      <g>
       <use style="stroke:#000000;stroke-width:0.8;" x="583.140625" xlink:href="#mabda83021b" y="288.68"/>
      </g>
     </g>
     <g id="text_24">
      <!-- 0 -->
      <g transform="translate(569.778125 292.479219)scale(0.1 -0.1)">
       <use xlink:href="#DejaVuSans-48"/>
      </g>
     </g>
    </g>
    <g id="ytick_8">
     <g id="line2d_22">
      <g>
       <use style="stroke:#000000;stroke-width:0.8;" x="583.140625" xlink:href="#mabda83021b" y="233.4924"/>
      </g>
     </g>
     <g id="text_25">
      <!-- 50 -->
      <g transform="translate(563.415625 237.291618)scale(0.1 -0.1)">
       <use xlink:href="#DejaVuSans-53"/>
       <use x="63.623047" xlink:href="#DejaVuSans-48"/>
      </g>
     </g>
    </g>
    <g id="ytick_9">
     <g id="line2d_23">
      <g>
       <use style="stroke:#000000;stroke-width:0.8;" x="583.140625" xlink:href="#mabda83021b" y="178.304799"/>
      </g>
     </g>
     <g id="text_26">
      <!-- 100 -->
      <g transform="translate(557.053125 182.104018)scale(0.1 -0.1)">
       <use xlink:href="#DejaVuSans-49"/>
       <use x="63.623047" xlink:href="#DejaVuSans-48"/>
       <use x="127.246094" xlink:href="#DejaVuSans-48"/>
      </g>
     </g>
    </g>
    <g id="ytick_10">
     <g id="line2d_24">
      <g>
       <use style="stroke:#000000;stroke-width:0.8;" x="583.140625" xlink:href="#mabda83021b" y="123.117199"/>
      </g>
     </g>
     <g id="text_27">
      <!-- 150 -->
      <g transform="translate(557.053125 126.916418)scale(0.1 -0.1)">
       <use xlink:href="#DejaVuSans-49"/>
       <use x="63.623047" xlink:href="#DejaVuSans-53"/>
       <use x="127.246094" xlink:href="#DejaVuSans-48"/>
      </g>
     </g>
    </g>
    <g id="ytick_11">
     <g id="line2d_25">
      <g>
       <use style="stroke:#000000;stroke-width:0.8;" x="583.140625" xlink:href="#mabda83021b" y="67.929599"/>
      </g>
     </g>
     <g id="text_28">
      <!-- 200 -->
      <g transform="translate(557.053125 71.728818)scale(0.1 -0.1)">
       <use xlink:href="#DejaVuSans-50"/>
       <use x="63.623047" xlink:href="#DejaVuSans-48"/>
       <use x="127.246094" xlink:href="#DejaVuSans-48"/>
      </g>
     </g>
    </g>
    <g id="ytick_12">
     <g id="line2d_26">
      <g>
       <use style="stroke:#000000;stroke-width:0.8;" x="583.140625" xlink:href="#mabda83021b" y="12.741999"/>
      </g>
     </g>
     <g id="text_29">
      <!-- 250 -->
      <g transform="translate(557.053125 16.541217)scale(0.1 -0.1)">
       <use xlink:href="#DejaVuSans-50"/>
       <use x="63.623047" xlink:href="#DejaVuSans-53"/>
       <use x="127.246094" xlink:href="#DejaVuSans-48"/>
      </g>
     </g>
    </g>
    <g id="text_30">
     <!-- Duplications -->
     <g transform="translate(550.973438 178.906406)rotate(-90)scale(0.1 -0.1)">
      <use xlink:href="#DejaVuSans-68"/>
      <use x="77.001953" xlink:href="#DejaVuSans-117"/>
      <use x="140.380859" xlink:href="#DejaVuSans-112"/>
      <use x="203.857422" xlink:href="#DejaVuSans-108"/>
      <use x="231.640625" xlink:href="#DejaVuSans-105"/>
      <use x="259.423828" xlink:href="#DejaVuSans-99"/>
      <use x="314.404297" xlink:href="#DejaVuSans-97"/>
      <use x="375.683594" xlink:href="#DejaVuSans-116"/>
      <use x="414.892578" xlink:href="#DejaVuSans-105"/>
      <use x="442.675781" xlink:href="#DejaVuSans-111"/>
      <use x="503.857422" xlink:href="#DejaVuSans-110"/>
      <use x="567.236328" xlink:href="#DejaVuSans-115"/>
     </g>
    </g>
   </g>
   <g id="patch_106">
    <path d="M 583.140625 288.68 
L 583.140625 7.2 
" style="fill:none;stroke:#000000;stroke-linecap:square;stroke-linejoin:miter;stroke-width:0.8;"/>
   </g>
   <g id="patch_107">
    <path d="M 585.140625 290.68 
L 1065.295625 290.68 
" style="fill:none;stroke:#000000;stroke-linecap:square;stroke-linejoin:miter;stroke-width:0.8;"/>
   </g>
  </g>
  <g id="axes_3">
   <g id="patch_108">
    <path d="M 48.965625 617 
L 529.120625 617 
L 529.120625 335.52 
L 48.965625 335.52 
z
" style="fill:#ffffff;"/>
   </g>
   <g id="patch_109">
    <path clip-path="url(#p43fe854558)" d="M 70.790852 617 
L 77.802973 617 
L 77.802973 614.708113 
L 70.790852 614.708113 
z
" style="opacity:0.2;"/>
   </g>
   <g id="patch_110">
    <path clip-path="url(#p43fe854558)" d="M 79.556004 617 
L 86.568125 617 
L 86.568125 617 
L 79.556004 617 
z
" style="opacity:0.2;"/>
   </g>
   <g id="patch_111">
    <path clip-path="url(#p43fe854558)" d="M 88.321155 617 
L 95.333277 617 
L 95.333277 609.274761 
L 88.321155 609.274761 
z
" style="opacity:0.2;"/>
   </g>
   <g id="patch_112">
    <path clip-path="url(#p43fe854558)" d="M 97.086307 617 
L 104.098428 617 
L 104.098428 617 
L 97.086307 617 
z
" style="opacity:0.2;"/>
   </g>
   <g id="patch_113">
    <path clip-path="url(#p43fe854558)" d="M 105.851458 617 
L 112.86358 617 
L 112.86358 611.945995 
L 105.851458 611.945995 
z
" style="opacity:0.2;"/>
   </g>
   <g id="patch_114">
    <path clip-path="url(#p43fe854558)" d="M 114.61661 617 
L 121.628731 617 
L 121.628731 609.611881 
L 114.61661 609.611881 
z
" style="opacity:0.2;"/>
   </g>
   <g id="patch_115">
    <path clip-path="url(#p43fe854558)" d="M 123.381761 617 
L 130.393883 617 
L 130.393883 614.474061 
L 123.381761 614.474061 
z
" style="opacity:0.2;"/>
   </g>
   <g id="patch_116">
    <path clip-path="url(#p43fe854558)" d="M 132.146913 617 
L 139.159034 617 
L 139.159034 606.724607 
L 132.146913 606.724607 
z
" style="opacity:0.2;"/>
   </g>
   <g id="patch_117">
    <path clip-path="url(#p43fe854558)" d="M 140.912064 617 
L 147.924186 617 
L 147.924186 609.26985 
L 140.912064 609.26985 
z
" style="opacity:0.2;"/>
   </g>
   <g id="patch_118">
    <path clip-path="url(#p43fe854558)" d="M 149.677216 617 
L 156.689337 617 
L 156.689337 609.807363 
L 149.677216 609.807363 
z
" style="opacity:0.2;"/>
   </g>
   <g id="patch_119">
    <path clip-path="url(#p43fe854558)" d="M 158.442367 617 
L 165.454489 617 
L 165.454489 608.148516 
L 158.442367 608.148516 
z
" style="opacity:0.2;"/>
   </g>
   <g id="patch_120">
    <path clip-path="url(#p43fe854558)" d="M 167.207519 617 
L 174.21964 617 
L 174.21964 598.843001 
L 167.207519 598.843001 
z
" style="opacity:0.2;"/>
   </g>
   <g id="patch_121">
    <path clip-path="url(#p43fe854558)" d="M 175.97267 617 
L 182.984792 617 
L 182.984792 604.784705 
L 175.97267 604.784705 
z
" style="opacity:0.2;"/>
   </g>
   <g id="patch_122">
    <path clip-path="url(#p43fe854558)" d="M 184.737822 617 
L 191.749943 617 
L 191.749943 606.908075 
L 184.737822 606.908075 
z
" style="opacity:0.2;"/>
   </g>
   <g id="patch_123">
    <path clip-path="url(#p43fe854558)" d="M 193.502973 617 
L 200.515095 617 
L 200.515095 608.507233 
L 193.502973 608.507233 
z
" style="opacity:0.2;"/>
   </g>
   <g id="patch_124">
    <path clip-path="url(#p43fe854558)" d="M 202.268125 617 
L 209.280246 617 
L 209.280246 611.21101 
L 202.268125 611.21101 
z
" style="opacity:0.2;"/>
   </g>
   <g id="patch_125">
    <path clip-path="url(#p43fe854558)" d="M 211.033277 617 
L 218.045398 617 
L 218.045398 605.224445 
L 211.033277 605.224445 
z
" style="opacity:0.2;"/>
   </g>
   <g id="patch_126">
    <path clip-path="url(#p43fe854558)" d="M 219.798428 617 
L 226.810549 617 
L 226.810549 599.569807 
L 219.798428 599.569807 
z
" style="opacity:0.2;"/>
   </g>
   <g id="patch_127">
    <path clip-path="url(#p43fe854558)" d="M 228.56358 617 
L 235.575701 617 
L 235.575701 593.488404 
L 228.56358 593.488404 
z
" style="opacity:0.2;"/>
   </g>
   <g id="patch_128">
    <path clip-path="url(#p43fe854558)" d="M 237.328731 617 
L 244.340852 617 
L 244.340852 582.959736 
L 237.328731 582.959736 
z
" style="opacity:0.2;"/>
   </g>
   <g id="patch_129">
    <path clip-path="url(#p43fe854558)" d="M 246.093883 617 
L 253.106004 617 
L 253.106004 568.664901 
L 246.093883 568.664901 
z
" style="opacity:0.2;"/>
   </g>
   <g id="patch_130">
    <path clip-path="url(#p43fe854558)" d="M 254.859034 617 
L 261.871155 617 
L 261.871155 543.870376 
L 254.859034 543.870376 
z
" style="opacity:0.2;"/>
   </g>
   <g id="patch_131">
    <path clip-path="url(#p43fe854558)" d="M 263.624186 617 
L 270.636307 617 
L 270.636307 513.780991 
L 263.624186 513.780991 
z
" style="opacity:0.2;"/>
   </g>
   <g id="patch_132">
    <path clip-path="url(#p43fe854558)" d="M 272.389337 617 
L 279.401458 617 
L 279.401458 477.68236 
L 272.389337 477.68236 
z
" style="opacity:0.2;"/>
   </g>
   <g id="patch_133">
    <path clip-path="url(#p43fe854558)" d="M 281.154489 617 
L 288.16661 617 
L 288.16661 458.582562 
L 281.154489 458.582562 
z
" style="opacity:0.2;"/>
   </g>
   <g id="patch_134">
    <path clip-path="url(#p43fe854558)" d="M 289.91964 617 
L 296.931761 617 
L 296.931761 419.8782 
L 289.91964 419.8782 
z
" style="opacity:0.2;"/>
   </g>
   <g id="patch_135">
    <path clip-path="url(#p43fe854558)" d="M 298.684792 617 
L 305.696913 617 
L 305.696913 379.811323 
L 298.684792 379.811323 
z
" style="opacity:0.2;"/>
   </g>
   <g id="patch_136">
    <path clip-path="url(#p43fe854558)" d="M 307.449943 617 
L 314.462064 617 
L 314.462064 348.92381 
L 307.449943 348.92381 
z
" style="opacity:0.2;"/>
   </g>
   <g id="patch_137">
    <path clip-path="url(#p43fe854558)" d="M 316.215095 617 
L 323.227216 617 
L 323.227216 357.681043 
L 316.215095 357.681043 
z
" style="opacity:0.2;"/>
   </g>
   <g id="patch_138">
    <path clip-path="url(#p43fe854558)" d="M 324.980246 617 
L 331.992367 617 
L 331.992367 356.107246 
L 324.980246 356.107246 
z
" style="opacity:0.2;"/>
   </g>
   <g id="patch_139">
    <path clip-path="url(#p43fe854558)" d="M 333.745398 617 
L 340.757519 617 
L 340.757519 390.835329 
L 333.745398 390.835329 
z
" style="opacity:0.2;"/>
   </g>
   <g id="patch_140">
    <path clip-path="url(#p43fe854558)" d="M 342.510549 617 
L 349.52267 617 
L 349.52267 442.064564 
L 342.510549 442.064564 
z
" style="opacity:0.2;"/>
   </g>
   <g id="patch_141">
    <path clip-path="url(#p43fe854558)" d="M 351.275701 617 
L 358.287822 617 
L 358.287822 492.704581 
L 351.275701 492.704581 
z
" style="opacity:0.2;"/>
   </g>
   <g id="patch_142">
    <path clip-path="url(#p43fe854558)" d="M 360.040852 617 
L 367.052973 617 
L 367.052973 545.789778 
L 360.040852 545.789778 
z
" style="opacity:0.2;"/>
   </g>
   <g id="patch_143">
    <path clip-path="url(#p43fe854558)" d="M 368.806004 617 
L 375.818125 617 
L 375.818125 586.410155 
L 368.806004 586.410155 
z
" style="opacity:0.2;"/>
   </g>
   <g id="patch_144">
    <path clip-path="url(#p43fe854558)" d="M 377.571155 617 
L 384.583277 617 
L 384.583277 599.730361 
L 377.571155 599.730361 
z
" style="opacity:0.2;"/>
   </g>
   <g id="patch_145">
    <path clip-path="url(#p43fe854558)" d="M 386.336307 617 
L 393.348428 617 
L 393.348428 607.176664 
L 386.336307 607.176664 
z
" style="opacity:0.2;"/>
   </g>
   <g id="patch_146">
    <path clip-path="url(#p43fe854558)" d="M 395.101458 617 
L 402.11358 617 
L 402.11358 610.652575 
L 395.101458 610.652575 
z
" style="opacity:0.2;"/>
   </g>
   <g id="patch_147">
    <path clip-path="url(#p43fe854558)" d="M 403.86661 617 
L 410.878731 617 
L 410.878731 612.626159 
L 403.86661 612.626159 
z
" style="opacity:0.2;"/>
   </g>
   <g id="patch_148">
    <path clip-path="url(#p43fe854558)" d="M 412.631761 617 
L 419.643883 617 
L 419.643883 612.522633 
L 412.631761 612.522633 
z
" style="opacity:0.2;"/>
   </g>
   <g id="patch_149">
    <path clip-path="url(#p43fe854558)" d="M 421.396913 617 
L 428.409034 617 
L 428.409034 610.220187 
L 421.396913 610.220187 
z
" style="opacity:0.2;"/>
   </g>
   <g id="patch_150">
    <path clip-path="url(#p43fe854558)" d="M 430.162064 617 
L 437.174186 617 
L 437.174186 611.743058 
L 430.162064 611.743058 
z
" style="opacity:0.2;"/>
   </g>
   <g id="patch_151">
    <path clip-path="url(#p43fe854558)" d="M 438.927216 617 
L 445.939337 617 
L 445.939337 610.424442 
L 438.927216 610.424442 
z
" style="opacity:0.2;"/>
   </g>
   <g id="patch_152">
    <path clip-path="url(#p43fe854558)" d="M 447.692367 617 
L 454.704489 617 
L 454.704489 612.797497 
L 447.692367 612.797497 
z
" style="opacity:0.2;"/>
   </g>
   <g id="patch_153">
    <path clip-path="url(#p43fe854558)" d="M 456.457519 617 
L 463.46964 617 
L 463.46964 600.075884 
L 456.457519 600.075884 
z
" style="opacity:0.2;"/>
   </g>
   <g id="patch_154">
    <path clip-path="url(#p43fe854558)" d="M 465.22267 617 
L 472.234792 617 
L 472.234792 599.871389 
L 465.22267 599.871389 
z
" style="opacity:0.2;"/>
   </g>
   <g id="patch_155">
    <path clip-path="url(#p43fe854558)" d="M 473.987822 617 
L 480.999943 617 
L 480.999943 613.550838 
L 473.987822 613.550838 
z
" style="opacity:0.2;"/>
   </g>
   <g id="patch_156">
    <path clip-path="url(#p43fe854558)" d="M 482.752973 617 
L 489.765095 617 
L 489.765095 614.997892 
L 482.752973 614.997892 
z
" style="opacity:0.2;"/>
   </g>
   <g id="patch_157">
    <path clip-path="url(#p43fe854558)" d="M 491.518125 617 
L 498.530246 617 
L 498.530246 616.43098 
L 491.518125 616.43098 
z
" style="opacity:0.2;"/>
   </g>
   <g id="patch_158">
    <path clip-path="url(#p43fe854558)" d="M 500.283277 617 
L 507.295398 617 
L 507.295398 616.742586 
L 500.283277 616.742586 
z
" style="opacity:0.2;"/>
   </g>
   <g id="matplotlib.axis_5">
    <g id="xtick_15">
     <g id="line2d_27">
      <g>
       <use style="stroke:#000000;stroke-width:0.8;" x="69.914337" xlink:href="#m62b0595a3b" y="619"/>
      </g>
     </g>
     <g id="text_31">
      <!-- −4 -->
      <g transform="translate(62.543243 633.598437)scale(0.1 -0.1)">
       <use xlink:href="#DejaVuSans-8722"/>
       <use x="83.789062" xlink:href="#DejaVuSans-52"/>
      </g>
     </g>
    </g>
    <g id="xtick_16">
     <g id="line2d_28">
      <g>
       <use style="stroke:#000000;stroke-width:0.8;" x="143.742066" xlink:href="#m62b0595a3b" y="619"/>
      </g>
     </g>
     <g id="text_32">
      <!-- −3 -->
      <g transform="translate(136.370973 633.598437)scale(0.1 -0.1)">
       <use xlink:href="#DejaVuSans-8722"/>
       <use x="83.789062" xlink:href="#DejaVuSans-51"/>
      </g>
     </g>
    </g>
    <g id="xtick_17">
     <g id="line2d_29">
      <g>
       <use style="stroke:#000000;stroke-width:0.8;" x="217.569796" xlink:href="#m62b0595a3b" y="619"/>
      </g>
     </g>
     <g id="text_33">
      <!-- −2 -->
      <g transform="translate(210.198702 633.598437)scale(0.1 -0.1)">
       <use xlink:href="#DejaVuSans-8722"/>
       <use x="83.789062" xlink:href="#DejaVuSans-50"/>
      </g>
     </g>
    </g>
    <g id="xtick_18">
     <g id="line2d_30">
      <g>
       <use style="stroke:#000000;stroke-width:0.8;" x="291.397525" xlink:href="#m62b0595a3b" y="619"/>
      </g>
     </g>
     <g id="text_34">
      <!-- −1 -->
      <g transform="translate(284.026431 633.598437)scale(0.1 -0.1)">
       <use xlink:href="#DejaVuSans-8722"/>
       <use x="83.789062" xlink:href="#DejaVuSans-49"/>
      </g>
     </g>
    </g>
    <g id="xtick_19">
     <g id="line2d_31">
      <g>
       <use style="stroke:#000000;stroke-width:0.8;" x="365.225254" xlink:href="#m62b0595a3b" y="619"/>
      </g>
     </g>
     <g id="text_35">
      <!-- 0 -->
      <g transform="translate(362.044004 633.598437)scale(0.1 -0.1)">
       <use xlink:href="#DejaVuSans-48"/>
      </g>
     </g>
    </g>
    <g id="xtick_20">
     <g id="line2d_32">
      <g>
       <use style="stroke:#000000;stroke-width:0.8;" x="439.052984" xlink:href="#m62b0595a3b" y="619"/>
      </g>
     </g>
     <g id="text_36">
      <!-- 1 -->
      <g transform="translate(435.871734 633.598437)scale(0.1 -0.1)">
       <use xlink:href="#DejaVuSans-49"/>
      </g>
     </g>
    </g>
    <g id="xtick_21">
     <g id="line2d_33">
      <g>
       <use style="stroke:#000000;stroke-width:0.8;" x="512.880713" xlink:href="#m62b0595a3b" y="619"/>
      </g>
     </g>
     <g id="text_37">
      <!-- 2 -->
      <g transform="translate(509.699463 633.598437)scale(0.1 -0.1)">
       <use xlink:href="#DejaVuSans-50"/>
      </g>
     </g>
    </g>
    <g id="text_38">
     <!-- $\mathrm{log10}(K_{\mathrm{A}})$ -->
     <defs>
      <path d="M 34.1875 63.1875 
L 20.796875 26.90625 
L 47.609375 26.90625 
z
M 28.609375 72.90625 
L 39.796875 72.90625 
L 67.578125 0 
L 57.328125 0 
L 50.6875 18.703125 
L 17.828125 18.703125 
L 11.1875 0 
L 0.78125 0 
z
" id="DejaVuSans-65"/>
     </defs>
     <g transform="translate(265.343125 647.278125)scale(0.1 -0.1)">
      <use transform="translate(0 0.015625)" xlink:href="#DejaVuSans-108"/>
      <use transform="translate(27.783203 0.015625)" xlink:href="#DejaVuSans-111"/>
      <use transform="translate(88.964844 0.015625)" xlink:href="#DejaVuSans-103"/>
      <use transform="translate(152.441406 0.015625)" xlink:href="#DejaVuSans-49"/>
      <use transform="translate(216.064453 0.015625)" xlink:href="#DejaVuSans-48"/>
      <use transform="translate(279.6875 0.015625)" xlink:href="#DejaVuSans-40"/>
      <use transform="translate(318.701172 0.015625)" xlink:href="#DejaVuSans-Oblique-75"/>
      <use transform="translate(384.277344 -16.390625)scale(0.7)" xlink:href="#DejaVuSans-65"/>
      <use transform="translate(434.897461 0.015625)" xlink:href="#DejaVuSans-41"/>
     </g>
    </g>
   </g>
   <g id="matplotlib.axis_6">
    <g id="ytick_13">
     <g id="line2d_34">
      <g>
       <use style="stroke:#000000;stroke-width:0.8;" x="46.965625" xlink:href="#mabda83021b" y="617"/>
      </g>
     </g>
     <g id="text_39">
      <!-- 0 -->
      <g transform="translate(33.603125 620.799219)scale(0.1 -0.1)">
       <use xlink:href="#DejaVuSans-48"/>
      </g>
     </g>
    </g>
    <g id="ytick_14">
     <g id="line2d_35">
      <g>
       <use style="stroke:#000000;stroke-width:0.8;" x="46.965625" xlink:href="#mabda83021b" y="569.581656"/>
      </g>
     </g>
     <g id="text_40">
      <!-- 100 -->
      <g transform="translate(20.878125 573.380875)scale(0.1 -0.1)">
       <use xlink:href="#DejaVuSans-49"/>
       <use x="63.623047" xlink:href="#DejaVuSans-48"/>
       <use x="127.246094" xlink:href="#DejaVuSans-48"/>
      </g>
     </g>
    </g>
    <g id="ytick_15">
     <g id="line2d_36">
      <g>
       <use style="stroke:#000000;stroke-width:0.8;" x="46.965625" xlink:href="#mabda83021b" y="522.163312"/>
      </g>
     </g>
     <g id="text_41">
      <!-- 200 -->
      <g transform="translate(20.878125 525.962531)scale(0.1 -0.1)">
       <use xlink:href="#DejaVuSans-50"/>
       <use x="63.623047" xlink:href="#DejaVuSans-48"/>
       <use x="127.246094" xlink:href="#DejaVuSans-48"/>
      </g>
     </g>
    </g>
    <g id="ytick_16">
     <g id="line2d_37">
      <g>
       <use style="stroke:#000000;stroke-width:0.8;" x="46.965625" xlink:href="#mabda83021b" y="474.744968"/>
      </g>
     </g>
     <g id="text_42">
      <!-- 300 -->
      <g transform="translate(20.878125 478.544186)scale(0.1 -0.1)">
       <use xlink:href="#DejaVuSans-51"/>
       <use x="63.623047" xlink:href="#DejaVuSans-48"/>
       <use x="127.246094" xlink:href="#DejaVuSans-48"/>
      </g>
     </g>
    </g>
    <g id="ytick_17">
     <g id="line2d_38">
      <g>
       <use style="stroke:#000000;stroke-width:0.8;" x="46.965625" xlink:href="#mabda83021b" y="427.326624"/>
      </g>
     </g>
     <g id="text_43">
      <!-- 400 -->
      <g transform="translate(20.878125 431.125842)scale(0.1 -0.1)">
       <use xlink:href="#DejaVuSans-52"/>
       <use x="63.623047" xlink:href="#DejaVuSans-48"/>
       <use x="127.246094" xlink:href="#DejaVuSans-48"/>
      </g>
     </g>
    </g>
    <g id="ytick_18">
     <g id="line2d_39">
      <g>
       <use style="stroke:#000000;stroke-width:0.8;" x="46.965625" xlink:href="#mabda83021b" y="379.90828"/>
      </g>
     </g>
     <g id="text_44">
      <!-- 500 -->
      <g transform="translate(20.878125 383.707498)scale(0.1 -0.1)">
       <use xlink:href="#DejaVuSans-53"/>
       <use x="63.623047" xlink:href="#DejaVuSans-48"/>
       <use x="127.246094" xlink:href="#DejaVuSans-48"/>
      </g>
     </g>
    </g>
    <g id="text_45">
     <!-- Duplications -->
     <g transform="translate(14.798437 507.226406)rotate(-90)scale(0.1 -0.1)">
      <use xlink:href="#DejaVuSans-68"/>
      <use x="77.001953" xlink:href="#DejaVuSans-117"/>
      <use x="140.380859" xlink:href="#DejaVuSans-112"/>
      <use x="203.857422" xlink:href="#DejaVuSans-108"/>
      <use x="231.640625" xlink:href="#DejaVuSans-105"/>
      <use x="259.423828" xlink:href="#DejaVuSans-99"/>
      <use x="314.404297" xlink:href="#DejaVuSans-97"/>
      <use x="375.683594" xlink:href="#DejaVuSans-116"/>
      <use x="414.892578" xlink:href="#DejaVuSans-105"/>
      <use x="442.675781" xlink:href="#DejaVuSans-111"/>
      <use x="503.857422" xlink:href="#DejaVuSans-110"/>
      <use x="567.236328" xlink:href="#DejaVuSans-115"/>
     </g>
    </g>
   </g>
   <g id="patch_159">
    <path d="M 46.965625 617 
L 46.965625 335.52 
" style="fill:none;stroke:#000000;stroke-linecap:square;stroke-linejoin:miter;stroke-width:0.8;"/>
   </g>
   <g id="patch_160">
    <path d="M 48.965625 619 
L 529.120625 619 
" style="fill:none;stroke:#000000;stroke-linecap:square;stroke-linejoin:miter;stroke-width:0.8;"/>
   </g>
  </g>
  <g id="axes_4">
   <g id="patch_161">
    <path d="M 585.140625 617 
L 1065.295625 617 
L 1065.295625 335.52 
L 585.140625 335.52 
z
" style="fill:#ffffff;"/>
   </g>
   <g id="patch_162">
    <path clip-path="url(#pa5c5da7615)" d="M 606.965852 617 
L 613.977973 617 
L 613.977973 527.558368 
L 606.965852 527.558368 
z
" style="opacity:0.2;"/>
   </g>
   <g id="patch_163">
    <path clip-path="url(#pa5c5da7615)" d="M 615.731004 617 
L 622.743125 617 
L 622.743125 616.54654 
L 615.731004 616.54654 
z
" style="opacity:0.2;"/>
   </g>
   <g id="patch_164">
    <path clip-path="url(#pa5c5da7615)" d="M 624.496155 617 
L 631.508277 617 
L 631.508277 616.433175 
L 624.496155 616.433175 
z
" style="opacity:0.2;"/>
   </g>
   <g id="patch_165">
    <path clip-path="url(#pa5c5da7615)" d="M 633.261307 617 
L 640.273428 617 
L 640.273428 616.093081 
L 633.261307 616.093081 
z
" style="opacity:0.2;"/>
   </g>
   <g id="patch_166">
    <path clip-path="url(#pa5c5da7615)" d="M 642.026458 617 
L 649.03858 617 
L 649.03858 615.972158 
L 642.026458 615.972158 
z
" style="opacity:0.2;"/>
   </g>
   <g id="patch_167">
    <path clip-path="url(#pa5c5da7615)" d="M 650.79161 617 
L 657.803731 617 
L 657.803731 614.014724 
L 650.79161 614.014724 
z
" style="opacity:0.2;"/>
   </g>
   <g id="patch_168">
    <path clip-path="url(#pa5c5da7615)" d="M 659.556761 617 
L 666.568883 617 
L 666.568883 615.431785 
L 659.556761 615.431785 
z
" style="opacity:0.2;"/>
   </g>
   <g id="patch_169">
    <path clip-path="url(#pa5c5da7615)" d="M 668.321913 617 
L 675.334034 617 
L 675.334034 613.599052 
L 668.321913 613.599052 
z
" style="opacity:0.2;"/>
   </g>
   <g id="patch_170">
    <path clip-path="url(#pa5c5da7615)" d="M 677.087064 617 
L 684.099186 617 
L 684.099186 611.203274 
L 677.087064 611.203274 
z
" style="opacity:0.2;"/>
   </g>
   <g id="patch_171">
    <path clip-path="url(#pa5c5da7615)" d="M 685.852216 617 
L 692.864337 617 
L 692.864337 610.594882 
L 685.852216 610.594882 
z
" style="opacity:0.2;"/>
   </g>
   <g id="patch_172">
    <path clip-path="url(#pa5c5da7615)" d="M 694.617367 617 
L 701.629489 617 
L 701.629489 608.345218 
L 694.617367 608.345218 
z
" style="opacity:0.2;"/>
   </g>
   <g id="patch_173">
    <path clip-path="url(#pa5c5da7615)" d="M 703.382519 617 
L 710.39464 617 
L 710.39464 605.705795 
L 703.382519 605.705795 
z
" style="opacity:0.2;"/>
   </g>
   <g id="patch_174">
    <path clip-path="url(#pa5c5da7615)" d="M 712.14767 617 
L 719.159792 617 
L 719.159792 597.681702 
L 712.14767 597.681702 
z
" style="opacity:0.2;"/>
   </g>
   <g id="patch_175">
    <path clip-path="url(#pa5c5da7615)" d="M 720.912822 617 
L 727.924943 617 
L 727.924943 593.308489 
L 720.912822 593.308489 
z
" style="opacity:0.2;"/>
   </g>
   <g id="patch_176">
    <path clip-path="url(#pa5c5da7615)" d="M 729.677973 617 
L 736.690095 617 
L 736.690095 578.893192 
L 729.677973 578.893192 
z
" style="opacity:0.2;"/>
   </g>
   <g id="patch_177">
    <path clip-path="url(#pa5c5da7615)" d="M 738.443125 617 
L 745.455246 617 
L 745.455246 568.007297 
L 738.443125 568.007297 
z
" style="opacity:0.2;"/>
   </g>
   <g id="patch_178">
    <path clip-path="url(#pa5c5da7615)" d="M 747.208277 617 
L 754.220398 617 
L 754.220398 550.938363 
L 747.208277 550.938363 
z
" style="opacity:0.2;"/>
   </g>
   <g id="patch_179">
    <path clip-path="url(#pa5c5da7615)" d="M 755.973428 617 
L 762.985549 617 
L 762.985549 518.170971 
L 755.973428 518.170971 
z
" style="opacity:0.2;"/>
   </g>
   <g id="patch_180">
    <path clip-path="url(#pa5c5da7615)" d="M 764.73858 617 
L 771.750701 617 
L 771.750701 492.645856 
L 764.73858 492.645856 
z
" style="opacity:0.2;"/>
   </g>
   <g id="patch_181">
    <path clip-path="url(#pa5c5da7615)" d="M 773.503731 617 
L 780.515852 617 
L 780.515852 428.011792 
L 773.503731 428.011792 
z
" style="opacity:0.2;"/>
   </g>
   <g id="patch_182">
    <path clip-path="url(#pa5c5da7615)" d="M 782.268883 617 
L 789.281004 617 
L 789.281004 389.439847 
L 782.268883 389.439847 
z
" style="opacity:0.2;"/>
   </g>
   <g id="patch_183">
    <path clip-path="url(#pa5c5da7615)" d="M 791.034034 617 
L 798.046155 617 
L 798.046155 363.887073 
L 791.034034 363.887073 
z
" style="opacity:0.2;"/>
   </g>
   <g id="patch_184">
    <path clip-path="url(#pa5c5da7615)" d="M 799.799186 617 
L 806.811307 617 
L 806.811307 348.92381 
L 799.799186 348.92381 
z
" style="opacity:0.2;"/>
   </g>
   <g id="patch_185">
    <path clip-path="url(#pa5c5da7615)" d="M 808.564337 617 
L 815.576458 617 
L 815.576458 351.421748 
L 808.564337 351.421748 
z
" style="opacity:0.2;"/>
   </g>
   <g id="patch_186">
    <path clip-path="url(#pa5c5da7615)" d="M 817.329489 617 
L 824.34161 617 
L 824.34161 394.692289 
L 817.329489 394.692289 
z
" style="opacity:0.2;"/>
   </g>
   <g id="patch_187">
    <path clip-path="url(#pa5c5da7615)" d="M 826.09464 617 
L 833.106761 617 
L 833.106761 445.748175 
L 826.09464 445.748175 
z
" style="opacity:0.2;"/>
   </g>
   <g id="patch_188">
    <path clip-path="url(#pa5c5da7615)" d="M 834.859792 617 
L 841.871913 617 
L 841.871913 488.727944 
L 834.859792 488.727944 
z
" style="opacity:0.2;"/>
   </g>
   <g id="patch_189">
    <path clip-path="url(#pa5c5da7615)" d="M 843.624943 617 
L 850.637064 617 
L 850.637064 545.303042 
L 843.624943 545.303042 
z
" style="opacity:0.2;"/>
   </g>
   <g id="patch_190">
    <path clip-path="url(#pa5c5da7615)" d="M 852.390095 617 
L 859.402216 617 
L 859.402216 563.060575 
L 852.390095 563.060575 
z
" style="opacity:0.2;"/>
   </g>
   <g id="patch_191">
    <path clip-path="url(#pa5c5da7615)" d="M 861.155246 617 
L 868.167367 617 
L 868.167367 585.673224 
L 861.155246 585.673224 
z
" style="opacity:0.2;"/>
   </g>
   <g id="patch_192">
    <path clip-path="url(#pa5c5da7615)" d="M 869.920398 617 
L 876.932519 617 
L 876.932519 596.183334 
L 869.920398 596.183334 
z
" style="opacity:0.2;"/>
   </g>
   <g id="patch_193">
    <path clip-path="url(#pa5c5da7615)" d="M 878.685549 617 
L 885.69767 617 
L 885.69767 596.727475 
L 878.685549 596.727475 
z
" style="opacity:0.2;"/>
   </g>
   <g id="patch_194">
    <path clip-path="url(#pa5c5da7615)" d="M 887.450701 617 
L 894.462822 617 
L 894.462822 608.758155 
L 887.450701 608.758155 
z
" style="opacity:0.2;"/>
   </g>
   <g id="patch_195">
    <path clip-path="url(#pa5c5da7615)" d="M 896.215852 617 
L 903.227973 617 
L 903.227973 610.987441 
L 896.215852 610.987441 
z
" style="opacity:0.2;"/>
   </g>
   <g id="patch_196">
    <path clip-path="url(#pa5c5da7615)" d="M 904.981004 617 
L 911.993125 617 
L 911.993125 611.998257 
L 904.981004 611.998257 
z
" style="opacity:0.2;"/>
   </g>
   <g id="patch_197">
    <path clip-path="url(#pa5c5da7615)" d="M 913.746155 617 
L 920.758277 617 
L 920.758277 612.06554 
L 913.746155 612.06554 
z
" style="opacity:0.2;"/>
   </g>
   <g id="patch_198">
    <path clip-path="url(#pa5c5da7615)" d="M 922.511307 617 
L 929.523428 617 
L 929.523428 613.6719 
L 922.511307 613.6719 
z
" style="opacity:0.2;"/>
   </g>
   <g id="patch_199">
    <path clip-path="url(#pa5c5da7615)" d="M 931.276458 617 
L 938.28858 617 
L 938.28858 613.827141 
L 931.276458 613.827141 
z
" style="opacity:0.2;"/>
   </g>
   <g id="patch_200">
    <path clip-path="url(#pa5c5da7615)" d="M 940.04161 617 
L 947.053731 617 
L 947.053731 613.124041 
L 940.04161 613.124041 
z
" style="opacity:0.2;"/>
   </g>
   <g id="patch_201">
    <path clip-path="url(#pa5c5da7615)" d="M 948.806761 617 
L 955.818883 617 
L 955.818883 613.319143 
L 948.806761 613.319143 
z
" style="opacity:0.2;"/>
   </g>
   <g id="patch_202">
    <path clip-path="url(#pa5c5da7615)" d="M 957.571913 617 
L 964.584034 617 
L 964.584034 613.28402 
L 957.571913 613.28402 
z
" style="opacity:0.2;"/>
   </g>
   <g id="patch_203">
    <path clip-path="url(#pa5c5da7615)" d="M 966.337064 617 
L 973.349186 617 
L 973.349186 612.439947 
L 966.337064 612.439947 
z
" style="opacity:0.2;"/>
   </g>
   <g id="patch_204">
    <path clip-path="url(#pa5c5da7615)" d="M 975.102216 617 
L 982.114337 617 
L 982.114337 614.23932 
L 975.102216 614.23932 
z
" style="opacity:0.2;"/>
   </g>
   <g id="patch_205">
    <path clip-path="url(#pa5c5da7615)" d="M 983.867367 617 
L 990.879489 617 
L 990.879489 615.54361 
L 983.867367 615.54361 
z
" style="opacity:0.2;"/>
   </g>
   <g id="patch_206">
    <path clip-path="url(#pa5c5da7615)" d="M 992.632519 617 
L 999.64464 617 
L 999.64464 614.513636 
L 992.632519 614.513636 
z
" style="opacity:0.2;"/>
   </g>
   <g id="patch_207">
    <path clip-path="url(#pa5c5da7615)" d="M 1001.39767 617 
L 1008.409792 617 
L 1008.409792 614.429304 
L 1001.39767 614.429304 
z
" style="opacity:0.2;"/>
   </g>
   <g id="patch_208">
    <path clip-path="url(#pa5c5da7615)" d="M 1010.162822 617 
L 1017.174943 617 
L 1017.174943 614.63531 
L 1010.162822 614.63531 
z
" style="opacity:0.2;"/>
   </g>
   <g id="patch_209">
    <path clip-path="url(#pa5c5da7615)" d="M 1018.927973 617 
L 1025.940095 617 
L 1025.940095 615.515529 
L 1018.927973 615.515529 
z
" style="opacity:0.2;"/>
   </g>
   <g id="patch_210">
    <path clip-path="url(#pa5c5da7615)" d="M 1027.693125 617 
L 1034.705246 617 
L 1034.705246 615.749799 
L 1027.693125 615.749799 
z
" style="opacity:0.2;"/>
   </g>
   <g id="patch_211">
    <path clip-path="url(#pa5c5da7615)" d="M 1036.458277 617 
L 1043.470398 617 
L 1043.470398 591.813381 
L 1036.458277 591.813381 
z
" style="opacity:0.2;"/>
   </g>
   <g id="matplotlib.axis_7">
    <g id="xtick_22">
     <g id="line2d_40">
      <g>
       <use style="stroke:#000000;stroke-width:0.8;" x="606.089337" xlink:href="#m62b0595a3b" y="619"/>
      </g>
     </g>
     <g id="text_46">
      <!-- −3 -->
      <g transform="translate(598.718243 633.598437)scale(0.1 -0.1)">
       <use xlink:href="#DejaVuSans-8722"/>
       <use x="83.789062" xlink:href="#DejaVuSans-51"/>
      </g>
     </g>
    </g>
    <g id="xtick_23">
     <g id="line2d_41">
      <g>
       <use style="stroke:#000000;stroke-width:0.8;" x="693.817435" xlink:href="#m62b0595a3b" y="619"/>
      </g>
     </g>
     <g id="text_47">
      <!-- −2 -->
      <g transform="translate(686.446342 633.598437)scale(0.1 -0.1)">
       <use xlink:href="#DejaVuSans-8722"/>
       <use x="83.789062" xlink:href="#DejaVuSans-50"/>
      </g>
     </g>
    </g>
    <g id="xtick_24">
     <g id="line2d_42">
      <g>
       <use style="stroke:#000000;stroke-width:0.8;" x="781.545534" xlink:href="#m62b0595a3b" y="619"/>
      </g>
     </g>
     <g id="text_48">
      <!-- −1 -->
      <g transform="translate(774.17444 633.598437)scale(0.1 -0.1)">
       <use xlink:href="#DejaVuSans-8722"/>
       <use x="83.789062" xlink:href="#DejaVuSans-49"/>
      </g>
     </g>
    </g>
    <g id="xtick_25">
     <g id="line2d_43">
      <g>
       <use style="stroke:#000000;stroke-width:0.8;" x="869.273632" xlink:href="#m62b0595a3b" y="619"/>
      </g>
     </g>
     <g id="text_49">
      <!-- 0 -->
      <g transform="translate(866.092382 633.598437)scale(0.1 -0.1)">
       <use xlink:href="#DejaVuSans-48"/>
      </g>
     </g>
    </g>
    <g id="xtick_26">
     <g id="line2d_44">
      <g>
       <use style="stroke:#000000;stroke-width:0.8;" x="957.001731" xlink:href="#m62b0595a3b" y="619"/>
      </g>
     </g>
     <g id="text_50">
      <!-- 1 -->
      <g transform="translate(953.820481 633.598437)scale(0.1 -0.1)">
       <use xlink:href="#DejaVuSans-49"/>
      </g>
     </g>
    </g>
    <g id="xtick_27">
     <g id="line2d_45">
      <g>
       <use style="stroke:#000000;stroke-width:0.8;" x="1044.729829" xlink:href="#m62b0595a3b" y="619"/>
      </g>
     </g>
     <g id="text_51">
      <!-- 2 -->
      <g transform="translate(1041.548579 633.598437)scale(0.1 -0.1)">
       <use xlink:href="#DejaVuSans-50"/>
      </g>
     </g>
    </g>
    <g id="text_52">
     <!-- $\mathrm{log10}(\omega)$ -->
     <defs>
      <path d="M 21.390625 -1.421875 
Q 1.125 -1.421875 6.78125 27.59375 
Q 8.984375 39.0625 19.625 54.6875 
L 29.296875 54.6875 
Q 19.234375 39.0625 17 27.34375 
Q 12.796875 6.203125 23.734375 6.203125 
Q 33.84375 6.203125 38.71875 32.46875 
L 47.015625 32.46875 
Q 41.703125 6.0625 51.8125 6.203125 
Q 62.703125 6.296875 66.796875 27.34375 
Q 69.046875 39.0625 65.140625 54.6875 
L 74.8125 54.6875 
Q 79.296875 39.0625 77.09375 27.59375 
Q 71.53125 -1.46875 51.21875 -1.421875 
Q 37.9375 -1.375 39.109375 13.1875 
Q 34.28125 -1.421875 21.390625 -1.421875 
z
" id="DejaVuSans-Oblique-969"/>
     </defs>
     <g transform="translate(803.118125 647.278125)scale(0.1 -0.1)">
      <use transform="translate(0 0.015625)" xlink:href="#DejaVuSans-108"/>
      <use transform="translate(27.783203 0.015625)" xlink:href="#DejaVuSans-111"/>
      <use transform="translate(88.964844 0.015625)" xlink:href="#DejaVuSans-103"/>
      <use transform="translate(152.441406 0.015625)" xlink:href="#DejaVuSans-49"/>
      <use transform="translate(216.064453 0.015625)" xlink:href="#DejaVuSans-48"/>
      <use transform="translate(279.6875 0.015625)" xlink:href="#DejaVuSans-40"/>
      <use transform="translate(318.701172 0.015625)" xlink:href="#DejaVuSans-Oblique-969"/>
      <use transform="translate(402.441406 0.015625)" xlink:href="#DejaVuSans-41"/>
     </g>
    </g>
   </g>
   <g id="matplotlib.axis_8">
    <g id="ytick_19">
     <g id="line2d_46">
      <g>
       <use style="stroke:#000000;stroke-width:0.8;" x="583.140625" xlink:href="#mabda83021b" y="617"/>
      </g>
     </g>
     <g id="text_53">
      <!-- 0 -->
      <g transform="translate(569.778125 620.799219)scale(0.1 -0.1)">
       <use xlink:href="#DejaVuSans-48"/>
      </g>
     </g>
    </g>
    <g id="ytick_20">
     <g id="line2d_47">
      <g>
       <use style="stroke:#000000;stroke-width:0.8;" x="583.140625" xlink:href="#mabda83021b" y="571.654032"/>
      </g>
     </g>
     <g id="text_54">
      <!-- 100 -->
      <g transform="translate(557.053125 575.453251)scale(0.1 -0.1)">
       <use xlink:href="#DejaVuSans-49"/>
       <use x="63.623047" xlink:href="#DejaVuSans-48"/>
       <use x="127.246094" xlink:href="#DejaVuSans-48"/>
      </g>
     </g>
    </g>
    <g id="ytick_21">
     <g id="line2d_48">
      <g>
       <use style="stroke:#000000;stroke-width:0.8;" x="583.140625" xlink:href="#mabda83021b" y="526.308064"/>
      </g>
     </g>
     <g id="text_55">
      <!-- 200 -->
      <g transform="translate(557.053125 530.107283)scale(0.1 -0.1)">
       <use xlink:href="#DejaVuSans-50"/>
       <use x="63.623047" xlink:href="#DejaVuSans-48"/>
       <use x="127.246094" xlink:href="#DejaVuSans-48"/>
      </g>
     </g>
    </g>
    <g id="ytick_22">
     <g id="line2d_49">
      <g>
       <use style="stroke:#000000;stroke-width:0.8;" x="583.140625" xlink:href="#mabda83021b" y="480.962096"/>
      </g>
     </g>
     <g id="text_56">
      <!-- 300 -->
      <g transform="translate(557.053125 484.761315)scale(0.1 -0.1)">
       <use xlink:href="#DejaVuSans-51"/>
       <use x="63.623047" xlink:href="#DejaVuSans-48"/>
       <use x="127.246094" xlink:href="#DejaVuSans-48"/>
      </g>
     </g>
    </g>
    <g id="ytick_23">
     <g id="line2d_50">
      <g>
       <use style="stroke:#000000;stroke-width:0.8;" x="583.140625" xlink:href="#mabda83021b" y="435.616128"/>
      </g>
     </g>
     <g id="text_57">
      <!-- 400 -->
      <g transform="translate(557.053125 439.415347)scale(0.1 -0.1)">
       <use xlink:href="#DejaVuSans-52"/>
       <use x="63.623047" xlink:href="#DejaVuSans-48"/>
       <use x="127.246094" xlink:href="#DejaVuSans-48"/>
      </g>
     </g>
    </g>
    <g id="ytick_24">
     <g id="line2d_51">
      <g>
       <use style="stroke:#000000;stroke-width:0.8;" x="583.140625" xlink:href="#mabda83021b" y="390.27016"/>
      </g>
     </g>
     <g id="text_58">
      <!-- 500 -->
      <g transform="translate(557.053125 394.069379)scale(0.1 -0.1)">
       <use xlink:href="#DejaVuSans-53"/>
       <use x="63.623047" xlink:href="#DejaVuSans-48"/>
       <use x="127.246094" xlink:href="#DejaVuSans-48"/>
      </g>
     </g>
    </g>
    <g id="ytick_25">
     <g id="line2d_52">
      <g>
       <use style="stroke:#000000;stroke-width:0.8;" x="583.140625" xlink:href="#mabda83021b" y="344.924192"/>
      </g>
     </g>
     <g id="text_59">
      <!-- 600 -->
      <defs>
       <path d="M 33.015625 40.375 
Q 26.375 40.375 22.484375 35.828125 
Q 18.609375 31.296875 18.609375 23.390625 
Q 18.609375 15.53125 22.484375 10.953125 
Q 26.375 6.390625 33.015625 6.390625 
Q 39.65625 6.390625 43.53125 10.953125 
Q 47.40625 15.53125 47.40625 23.390625 
Q 47.40625 31.296875 43.53125 35.828125 
Q 39.65625 40.375 33.015625 40.375 
z
M 52.59375 71.296875 
L 52.59375 62.3125 
Q 48.875 64.0625 45.09375 64.984375 
Q 41.3125 65.921875 37.59375 65.921875 
Q 27.828125 65.921875 22.671875 59.328125 
Q 17.53125 52.734375 16.796875 39.40625 
Q 19.671875 43.65625 24.015625 45.921875 
Q 28.375 48.1875 33.59375 48.1875 
Q 44.578125 48.1875 50.953125 41.515625 
Q 57.328125 34.859375 57.328125 23.390625 
Q 57.328125 12.15625 50.6875 5.359375 
Q 44.046875 -1.421875 33.015625 -1.421875 
Q 20.359375 -1.421875 13.671875 8.265625 
Q 6.984375 17.96875 6.984375 36.375 
Q 6.984375 53.65625 15.1875 63.9375 
Q 23.390625 74.21875 37.203125 74.21875 
Q 40.921875 74.21875 44.703125 73.484375 
Q 48.484375 72.75 52.59375 71.296875 
z
" id="DejaVuSans-54"/>
      </defs>
      <g transform="translate(557.053125 348.723411)scale(0.1 -0.1)">
       <use xlink:href="#DejaVuSans-54"/>
       <use x="63.623047" xlink:href="#DejaVuSans-48"/>
       <use x="127.246094" xlink:href="#DejaVuSans-48"/>
      </g>
     </g>
    </g>
    <g id="text_60">
     <!-- Duplications -->
     <g transform="translate(550.973438 507.226406)rotate(-90)scale(0.1 -0.1)">
      <use xlink:href="#DejaVuSans-68"/>
      <use x="77.001953" xlink:href="#DejaVuSans-117"/>
      <use x="140.380859" xlink:href="#DejaVuSans-112"/>
      <use x="203.857422" xlink:href="#DejaVuSans-108"/>
      <use x="231.640625" xlink:href="#DejaVuSans-105"/>
      <use x="259.423828" xlink:href="#DejaVuSans-99"/>
      <use x="314.404297" xlink:href="#DejaVuSans-97"/>
      <use x="375.683594" xlink:href="#DejaVuSans-116"/>
      <use x="414.892578" xlink:href="#DejaVuSans-105"/>
      <use x="442.675781" xlink:href="#DejaVuSans-111"/>
      <use x="503.857422" xlink:href="#DejaVuSans-110"/>
      <use x="567.236328" xlink:href="#DejaVuSans-115"/>
     </g>
    </g>
   </g>
   <g id="patch_212">
    <path d="M 583.140625 617 
L 583.140625 335.52 
" style="fill:none;stroke:#000000;stroke-linecap:square;stroke-linejoin:miter;stroke-width:0.8;"/>
   </g>
   <g id="patch_213">
    <path d="M 585.140625 619 
L 1065.295625 619 
" style="fill:none;stroke:#000000;stroke-linecap:square;stroke-linejoin:miter;stroke-width:0.8;"/>
   </g>
  </g>
  <g id="text_61">
   <!-- ugi.fasta.pre.good.mcl -->
   <defs>
    <path d="M 37.109375 75.984375 
L 37.109375 68.5 
L 28.515625 68.5 
Q 23.6875 68.5 21.796875 66.546875 
Q 19.921875 64.59375 19.921875 59.515625 
L 19.921875 54.6875 
L 34.71875 54.6875 
L 34.71875 47.703125 
L 19.921875 47.703125 
L 19.921875 0 
L 10.890625 0 
L 10.890625 47.703125 
L 2.296875 47.703125 
L 2.296875 54.6875 
L 10.890625 54.6875 
L 10.890625 58.5 
Q 10.890625 67.625 15.140625 71.796875 
Q 19.390625 75.984375 28.609375 75.984375 
z
" id="DejaVuSans-102"/>
    <path d="M 41.109375 46.296875 
Q 39.59375 47.171875 37.8125 47.578125 
Q 36.03125 48 33.890625 48 
Q 26.265625 48 22.1875 43.046875 
Q 18.109375 38.09375 18.109375 28.8125 
L 18.109375 0 
L 9.078125 0 
L 9.078125 54.6875 
L 18.109375 54.6875 
L 18.109375 46.1875 
Q 20.953125 51.171875 25.484375 53.578125 
Q 30.03125 56 36.53125 56 
Q 37.453125 56 38.578125 55.875 
Q 39.703125 55.765625 41.0625 55.515625 
z
" id="DejaVuSans-114"/>
    <path d="M 56.203125 29.59375 
L 56.203125 25.203125 
L 14.890625 25.203125 
Q 15.484375 15.921875 20.484375 11.0625 
Q 25.484375 6.203125 34.421875 6.203125 
Q 39.59375 6.203125 44.453125 7.46875 
Q 49.3125 8.734375 54.109375 11.28125 
L 54.109375 2.78125 
Q 49.265625 0.734375 44.1875 -0.34375 
Q 39.109375 -1.421875 33.890625 -1.421875 
Q 20.796875 -1.421875 13.15625 6.1875 
Q 5.515625 13.8125 5.515625 26.8125 
Q 5.515625 40.234375 12.765625 48.109375 
Q 20.015625 56 32.328125 56 
Q 43.359375 56 49.78125 48.890625 
Q 56.203125 41.796875 56.203125 29.59375 
z
M 47.21875 32.234375 
Q 47.125 39.59375 43.09375 43.984375 
Q 39.0625 48.390625 32.421875 48.390625 
Q 24.90625 48.390625 20.390625 44.140625 
Q 15.875 39.890625 15.1875 32.171875 
z
" id="DejaVuSans-101"/>
    <path d="M 45.40625 46.390625 
L 45.40625 75.984375 
L 54.390625 75.984375 
L 54.390625 0 
L 45.40625 0 
L 45.40625 8.203125 
Q 42.578125 3.328125 38.25 0.953125 
Q 33.9375 -1.421875 27.875 -1.421875 
Q 17.96875 -1.421875 11.734375 6.484375 
Q 5.515625 14.40625 5.515625 27.296875 
Q 5.515625 40.1875 11.734375 48.09375 
Q 17.96875 56 27.875 56 
Q 33.9375 56 38.25 53.625 
Q 42.578125 51.265625 45.40625 46.390625 
z
M 14.796875 27.296875 
Q 14.796875 17.390625 18.875 11.75 
Q 22.953125 6.109375 30.078125 6.109375 
Q 37.203125 6.109375 41.296875 11.75 
Q 45.40625 17.390625 45.40625 27.296875 
Q 45.40625 37.203125 41.296875 42.84375 
Q 37.203125 48.484375 30.078125 48.484375 
Q 22.953125 48.484375 18.875 42.84375 
Q 14.796875 37.203125 14.796875 27.296875 
z
" id="DejaVuSans-100"/>
    <path d="M 52 44.1875 
Q 55.375 50.25 60.0625 53.125 
Q 64.75 56 71.09375 56 
Q 79.640625 56 84.28125 50.015625 
Q 88.921875 44.046875 88.921875 33.015625 
L 88.921875 0 
L 79.890625 0 
L 79.890625 32.71875 
Q 79.890625 40.578125 77.09375 44.375 
Q 74.3125 48.1875 68.609375 48.1875 
Q 61.625 48.1875 57.5625 43.546875 
Q 53.515625 38.921875 53.515625 30.90625 
L 53.515625 0 
L 44.484375 0 
L 44.484375 32.71875 
Q 44.484375 40.625 41.703125 44.40625 
Q 38.921875 48.1875 33.109375 48.1875 
Q 26.21875 48.1875 22.15625 43.53125 
Q 18.109375 38.875 18.109375 30.90625 
L 18.109375 0 
L 9.078125 0 
L 9.078125 54.6875 
L 18.109375 54.6875 
L 18.109375 46.1875 
Q 21.1875 51.21875 25.484375 53.609375 
Q 29.78125 56 35.6875 56 
Q 41.65625 56 45.828125 52.96875 
Q 50 49.953125 52 44.1875 
z
" id="DejaVuSans-109"/>
   </defs>
   <g transform="translate(468.509375 18.866925)scale(0.12 -0.12)">
    <use xlink:href="#DejaVuSans-117"/>
    <use x="63.378906" xlink:href="#DejaVuSans-103"/>
    <use x="126.855469" xlink:href="#DejaVuSans-105"/>
    <use x="154.638672" xlink:href="#DejaVuSans-46"/>
    <use x="186.425781" xlink:href="#DejaVuSans-102"/>
    <use x="221.630859" xlink:href="#DejaVuSans-97"/>
    <use x="282.910156" xlink:href="#DejaVuSans-115"/>
    <use x="335.009766" xlink:href="#DejaVuSans-116"/>
    <use x="374.21875" xlink:href="#DejaVuSans-97"/>
    <use x="435.498047" xlink:href="#DejaVuSans-46"/>
    <use x="467.285156" xlink:href="#DejaVuSans-112"/>
    <use x="530.761719" xlink:href="#DejaVuSans-114"/>
    <use x="571.84375" xlink:href="#DejaVuSans-101"/>
    <use x="633.367188" xlink:href="#DejaVuSans-46"/>
    <use x="665.154297" xlink:href="#DejaVuSans-103"/>
    <use x="728.630859" xlink:href="#DejaVuSans-111"/>
    <use x="789.8125" xlink:href="#DejaVuSans-111"/>
    <use x="850.994141" xlink:href="#DejaVuSans-100"/>
    <use x="914.470703" xlink:href="#DejaVuSans-46"/>
    <use x="946.257812" xlink:href="#DejaVuSans-109"/>
    <use x="1043.669922" xlink:href="#DejaVuSans-99"/>
    <use x="1098.650391" xlink:href="#DejaVuSans-108"/>
   </g>
  </g>
 </g>
 <defs>
  <clipPath id="p91897ce88f">
   <rect height="281.48" width="480.155" x="48.965625" y="7.2"/>
  </clipPath>
  <clipPath id="p3c72d560d6">
   <rect height="281.48" width="480.155" x="585.140625" y="7.2"/>
  </clipPath>
  <clipPath id="p43fe854558">
   <rect height="281.48" width="480.155" x="48.965625" y="335.52"/>
  </clipPath>
  <clipPath id="pa5c5da7615">
   <rect height="281.48" width="480.155" x="585.140625" y="335.52"/>
  </clipPath>
 </defs>
</svg>
