<?xml version="1.0" encoding="utf-8"?>
<svg xmlns="http://www.w3.org/2000/svg" xmlns:xlink="http://www.w3.org/1999/xlink" width="600" height="400" viewBox="0 0 2400 1600">
<defs>
  <clipPath id="clip6700">
    <rect x="0" y="0" width="2400" height="1600"/>
  </clipPath>
</defs>
<path clip-path="url(#clip6700)" d="
M0 1600 L2400 1600 L2400 0 L0 0  Z
  " fill="#ffffff" fill-rule="evenodd" fill-opacity="1"/>
<defs>
  <clipPath id="clip6701">
    <rect x="480" y="0" width="1681" height="1600"/>
  </clipPath>
</defs>
<path clip-path="url(#clip6700)" d="
M108.402 1456.71 L2352.76 1456.71 L2352.76 151.017 L108.402 151.017  Z
  " fill="#ffffff" fill-rule="evenodd" fill-opacity="1"/>
<defs>
  <clipPath id="clip6702">
    <rect x="108" y="151" width="2245" height="1307"/>
  </clipPath>
</defs>
<polyline clip-path="url(#clip6702)" style="stroke:#000000; stroke-width:2; stroke-opacity:0.1; fill:none" points="
  108.402,1456.71 108.402,151.017 
  "/>
<polyline clip-path="url(#clip6702)" style="stroke:#000000; stroke-width:2; stroke-opacity:0.1; fill:none" points="
  557.273,1456.71 557.273,151.017 
  "/>
<polyline clip-path="url(#clip6702)" style="stroke:#000000; stroke-width:2; stroke-opacity:0.1; fill:none" points="
  1006.14,1456.71 1006.14,151.017 
  "/>
<polyline clip-path="url(#clip6702)" style="stroke:#000000; stroke-width:2; stroke-opacity:0.1; fill:none" points="
  1455.01,1456.71 1455.01,151.017 
  "/>
<polyline clip-path="url(#clip6702)" style="stroke:#000000; stroke-width:2; stroke-opacity:0.1; fill:none" points="
  1903.89,1456.71 1903.89,151.017 
  "/>
<polyline clip-path="url(#clip6702)" style="stroke:#000000; stroke-width:2; stroke-opacity:0.1; fill:none" points="
  2352.76,1456.71 2352.76,151.017 
  "/>
<polyline clip-path="url(#clip6702)" style="stroke:#000000; stroke-width:2; stroke-opacity:0.1; fill:none" points="
  108.402,1456.71 2352.76,1456.71 
  "/>
<polyline clip-path="url(#clip6702)" style="stroke:#000000; stroke-width:2; stroke-opacity:0.1; fill:none" points="
  108.402,1195.57 2352.76,1195.57 
  "/>
<polyline clip-path="url(#clip6702)" style="stroke:#000000; stroke-width:2; stroke-opacity:0.1; fill:none" points="
  108.402,934.432 2352.76,934.432 
  "/>
<polyline clip-path="url(#clip6702)" style="stroke:#000000; stroke-width:2; stroke-opacity:0.1; fill:none" points="
  108.402,673.293 2352.76,673.293 
  "/>
<polyline clip-path="url(#clip6702)" style="stroke:#000000; stroke-width:2; stroke-opacity:0.1; fill:none" points="
  108.402,412.155 2352.76,412.155 
  "/>
<polyline clip-path="url(#clip6702)" style="stroke:#000000; stroke-width:2; stroke-opacity:0.1; fill:none" points="
  108.402,151.017 2352.76,151.017 
  "/>
<polyline clip-path="url(#clip6700)" style="stroke:#000000; stroke-width:4; stroke-opacity:1; fill:none" points="
  108.402,1456.71 2352.76,1456.71 
  "/>
<polyline clip-path="url(#clip6700)" style="stroke:#000000; stroke-width:4; stroke-opacity:1; fill:none" points="
  108.402,1456.71 108.402,151.017 
  "/>
<polyline clip-path="url(#clip6700)" style="stroke:#000000; stroke-width:4; stroke-opacity:1; fill:none" points="
  108.402,1456.71 108.402,1441.04 
  "/>
<polyline clip-path="url(#clip6700)" style="stroke:#000000; stroke-width:4; stroke-opacity:1; fill:none" points="
  557.273,1456.71 557.273,1441.04 
  "/>
<polyline clip-path="url(#clip6700)" style="stroke:#000000; stroke-width:4; stroke-opacity:1; fill:none" points="
  1006.14,1456.71 1006.14,1441.04 
  "/>
<polyline clip-path="url(#clip6700)" style="stroke:#000000; stroke-width:4; stroke-opacity:1; fill:none" points="
  1455.01,1456.71 1455.01,1441.04 
  "/>
<polyline clip-path="url(#clip6700)" style="stroke:#000000; stroke-width:4; stroke-opacity:1; fill:none" points="
  1903.89,1456.71 1903.89,1441.04 
  "/>
<polyline clip-path="url(#clip6700)" style="stroke:#000000; stroke-width:4; stroke-opacity:1; fill:none" points="
  2352.76,1456.71 2352.76,1441.04 
  "/>
<polyline clip-path="url(#clip6700)" style="stroke:#000000; stroke-width:4; stroke-opacity:1; fill:none" points="
  108.402,1456.71 135.334,1456.71 
  "/>
<polyline clip-path="url(#clip6700)" style="stroke:#000000; stroke-width:4; stroke-opacity:1; fill:none" points="
  108.402,1195.57 135.334,1195.57 
  "/>
<polyline clip-path="url(#clip6700)" style="stroke:#000000; stroke-width:4; stroke-opacity:1; fill:none" points="
  108.402,934.432 135.334,934.432 
  "/>
<polyline clip-path="url(#clip6700)" style="stroke:#000000; stroke-width:4; stroke-opacity:1; fill:none" points="
  108.402,673.293 135.334,673.293 
  "/>
<polyline clip-path="url(#clip6700)" style="stroke:#000000; stroke-width:4; stroke-opacity:1; fill:none" points="
  108.402,412.155 135.334,412.155 
  "/>
<polyline clip-path="url(#clip6700)" style="stroke:#000000; stroke-width:4; stroke-opacity:1; fill:none" points="
  108.402,151.017 135.334,151.017 
  "/>
<g clip-path="url(#clip6700)">
<text style="fill:#000000; fill-opacity:1; font-family:Arial,Helvetica Neue,Helvetica,sans-serif; font-size:48px; text-anchor:middle;" transform="rotate(0, 108.402, 1510.71)" x="108.402" y="1510.71">0</text>
</g>
<g clip-path="url(#clip6700)">
<text style="fill:#000000; fill-opacity:1; font-family:Arial,Helvetica Neue,Helvetica,sans-serif; font-size:48px; text-anchor:middle;" transform="rotate(0, 557.273, 1510.71)" x="557.273" y="1510.71">1</text>
</g>
<g clip-path="url(#clip6700)">
<text style="fill:#000000; fill-opacity:1; font-family:Arial,Helvetica Neue,Helvetica,sans-serif; font-size:48px; text-anchor:middle;" transform="rotate(0, 1006.14, 1510.71)" x="1006.14" y="1510.71">2</text>
</g>
<g clip-path="url(#clip6700)">
<text style="fill:#000000; fill-opacity:1; font-family:Arial,Helvetica Neue,Helvetica,sans-serif; font-size:48px; text-anchor:middle;" transform="rotate(0, 1455.01, 1510.71)" x="1455.01" y="1510.71">3</text>
</g>
<g clip-path="url(#clip6700)">
<text style="fill:#000000; fill-opacity:1; font-family:Arial,Helvetica Neue,Helvetica,sans-serif; font-size:48px; text-anchor:middle;" transform="rotate(0, 1903.89, 1510.71)" x="1903.89" y="1510.71">4</text>
</g>
<g clip-path="url(#clip6700)">
<text style="fill:#000000; fill-opacity:1; font-family:Arial,Helvetica Neue,Helvetica,sans-serif; font-size:48px; text-anchor:middle;" transform="rotate(0, 2352.76, 1510.71)" x="2352.76" y="1510.71">5</text>
</g>
<g clip-path="url(#clip6700)">
<text style="fill:#000000; fill-opacity:1; font-family:Arial,Helvetica Neue,Helvetica,sans-serif; font-size:48px; text-anchor:end;" transform="rotate(0, 84.402, 1474.21)" x="84.402" y="1474.21">0</text>
</g>
<g clip-path="url(#clip6700)">
<text style="fill:#000000; fill-opacity:1; font-family:Arial,Helvetica Neue,Helvetica,sans-serif; font-size:48px; text-anchor:end;" transform="rotate(0, 84.402, 1213.07)" x="84.402" y="1213.07">1</text>
</g>
<g clip-path="url(#clip6700)">
<text style="fill:#000000; fill-opacity:1; font-family:Arial,Helvetica Neue,Helvetica,sans-serif; font-size:48px; text-anchor:end;" transform="rotate(0, 84.402, 951.932)" x="84.402" y="951.932">2</text>
</g>
<g clip-path="url(#clip6700)">
<text style="fill:#000000; fill-opacity:1; font-family:Arial,Helvetica Neue,Helvetica,sans-serif; font-size:48px; text-anchor:end;" transform="rotate(0, 84.402, 690.793)" x="84.402" y="690.793">3</text>
</g>
<g clip-path="url(#clip6700)">
<text style="fill:#000000; fill-opacity:1; font-family:Arial,Helvetica Neue,Helvetica,sans-serif; font-size:48px; text-anchor:end;" transform="rotate(0, 84.402, 429.655)" x="84.402" y="429.655">4</text>
</g>
<g clip-path="url(#clip6700)">
<text style="fill:#000000; fill-opacity:1; font-family:Arial,Helvetica Neue,Helvetica,sans-serif; font-size:48px; text-anchor:end;" transform="rotate(0, 84.402, 168.517)" x="84.402" y="168.517">5</text>
</g>
<g clip-path="url(#clip6700)">
<text style="fill:#000000; fill-opacity:1; font-family:Arial,Helvetica Neue,Helvetica,sans-serif; font-size:84px; text-anchor:middle;" transform="rotate(0, 1230.58, 73.2)" x="1230.58" y="73.2">The Gamma distribution with mean 1</text>
</g>
<polyline clip-path="url(#clip6702)" style="stroke:#009af9; stroke-width:4; stroke-opacity:1; fill:none" points="
  110.223,-1641.14 112.043,-202.716 113.864,305.115 115.685,568.166 117.505,730.129 119.326,840.335 121.147,920.399 122.967,981.322 124.788,1029.31 126.608,1068.13 
  128.429,1100.22 130.25,1127.2 133.891,1170.12 137.532,1202.78 141.174,1228.51 144.815,1249.32 148.456,1266.52 152.097,1280.99 159.38,1304 166.663,1321.51 
  173.945,1335.31 181.228,1346.47 188.51,1355.69 195.793,1363.45 210.358,1375.8 224.923,1385.19 239.488,1392.59 254.053,1398.58 268.619,1403.53 283.184,1407.7 
  297.749,1411.25 312.314,1414.32 326.879,1417 341.444,1419.37 476.12,1432.67 610.796,1439.09 745.472,1442.9 880.148,1445.44 1149.5,1448.6 1418.85,1450.5 
  1957.55,1452.67 2496.26,1453.86 3143.73,1454.72 3791.21,1455.26 4338.64,1455.58 4886.08,1455.81 6075.41,1456.15 7171.87,1456.33 8347.39,1456.45 9709.34,1456.55 
  10919.7,1456.6 11981,1456.63 13138.2,1456.65 14302.3,1456.67 15589.3,1456.68 16813.8,1456.69 18087.1,1456.69 19158.9,1456.7 20467.4,1456.7 21697.5,1456.7 
  23668.2,1456.7 23971.5,1456.71 
  "/>
<polyline clip-path="url(#clip6702)" style="stroke:#e26f46; stroke-width:4; stroke-opacity:1; fill:none" points="
  109.283,-4004.26 110.163,-1788.81 111.044,-936.623 111.924,-471.197 112.805,-173.301 113.686,35.7175 114.566,191.482 115.447,312.616 116.327,409.86 117.208,489.873 
  118.089,557.014 118.969,614.265 120.73,706.979 122.492,779.091 124.253,836.99 126.014,884.637 127.775,924.625 129.536,958.728 133.059,1013.97 136.581,1056.94 
  140.103,1091.46 143.626,1119.87 147.148,1143.72 150.671,1164.07 157.715,1197.04 164.76,1222.71 171.805,1243.33 178.85,1260.32 185.895,1274.58 192.939,1286.75 
  199.984,1297.28 207.029,1306.49 214.074,1314.63 221.118,1321.87 253.688,1347.25 286.258,1364.35 318.827,1376.75 351.397,1386.22 416.536,1399.83 481.675,1409.2 
  611.953,1421.41 742.231,1429.08 872.51,1434.38 1002.79,1438.25 1133.07,1441.21 1263.34,1443.53 1576.51,1447.46 1889.68,1449.99 2154.46,1451.48 2419.24,1452.59 
  2994.48,1454.18 3524.81,1455.05 4093.38,1455.63 4752.12,1456.04 5337.53,1456.27 5850.89,1456.4 6410.58,1456.5 6973.6,1456.56 7596.09,1456.61 8188.37,1456.64 
  8804.21,1456.66 9322.61,1456.68 9955.52,1456.69 10550.5,1456.69 11503.6,1456.7 11650.3,1456.7 
  "/>
<polyline clip-path="url(#clip6702)" style="stroke:#3da44d; stroke-width:4; stroke-opacity:1; fill:none" points="
  108.92,-1607.12 109.439,-708.497 109.957,-310.154 110.476,-72.556 110.994,89.6823 111.512,209.51 112.031,302.694 112.549,377.85 113.067,440.138 113.586,492.862 
  114.104,538.247 114.623,577.856 115.659,643.989 116.696,697.356 117.733,741.61 118.77,779.09 119.806,811.37 120.843,839.557 122.917,886.656 124.99,924.703 
  127.064,956.286 129.137,983.061 131.211,1006.15 133.284,1026.32 137.431,1060.08 141.579,1087.41 145.726,1110.14 149.873,1129.44 154.02,1146.1 158.167,1160.7 
  162.314,1173.62 166.461,1185.18 170.608,1195.59 174.755,1205.05 193.928,1239.73 213.101,1264.74 232.274,1283.95 251.446,1299.34 289.792,1322.81 328.138,1340.14 
  404.829,1364.56 481.52,1381.3 558.212,1393.65 634.903,1403.2 711.594,1410.81 788.286,1417.01 880.462,1423.09 972.639,1428.04 1064.82,1432.11 1156.99,1435.51 
  1312.86,1440.08 1468.73,1443.56 1807.36,1448.64 2119.55,1451.47 2454.25,1453.37 2842.03,1454.7 3186.65,1455.42 3488.85,1455.83 3818.32,1456.13 4149.76,1456.32 
  4516.2,1456.46 4864.86,1456.55 5227.39,1456.61 5532.56,1456.64 5905.14,1456.66 6255.37,1456.68 6816.48,1456.69 6902.83,1456.69 
  "/>
<polyline clip-path="url(#clip6702)" style="stroke:#c271d2; stroke-width:4; stroke-opacity:1; fill:none" points="
  108.402,1195.57 118.496,1201.38 128.589,1207.05 138.683,1212.61 148.776,1218.03 195.441,1241.6 242.106,1262.84 288.771,1281.98 335.436,1299.23 382.101,1314.78 
  428.766,1328.8 475.431,1341.43 522.096,1352.81 578.183,1365.01 634.27,1375.78 690.358,1385.29 746.445,1393.68 841.287,1405.68 936.129,1415.4 1039.15,1423.87 
  1142.18,1430.61 1237.16,1435.58 1332.14,1439.61 1535.8,1445.85 1771.76,1450.29 1981.45,1452.68 2165.33,1454.04 2365.81,1455 2567.48,1455.62 2790.45,1456.04 
  3002.6,1456.29 3223.19,1456.46 3408.88,1456.54 3635.58,1456.61 3848.69,1456.65 4190.11,1456.68 4242.65,1456.68 
  "/>
<polyline clip-path="url(#clip6702)" style="stroke:#ac8d18; stroke-width:4; stroke-opacity:1; fill:none" points="
  108.402,1456.71 112.299,1456.71 116.197,1456.71 120.094,1456.69 123.992,1456.67 142.011,1455.97 160.029,1453.36 169.039,1450.95 178.048,1447.64 187.058,1443.36 
  196.067,1438.08 205.076,1431.79 214.086,1424.51 223.095,1416.31 232.105,1407.26 250.123,1387.02 268.142,1364.68 289.799,1336.48 311.456,1308.4 333.113,1281.94 
  354.77,1258.32 373.081,1241.19 391.392,1227.04 400.547,1221.13 409.703,1216.03 418.858,1211.72 428.014,1208.19 437.959,1205.25 447.904,1203.19 457.85,1201.99 
  467.795,1201.62 487.685,1203.17 507.576,1207.47 525.914,1213.53 544.251,1221.26 562.588,1230.36 580.926,1240.53 620.245,1264.64 659.564,1290.05 705.12,1318.86 
  750.675,1345.32 791.159,1366.1 831.643,1384.03 867.144,1397.43 902.645,1408.78 941.351,1419.04 980.056,1427.35 1018.99,1434.05 1057.93,1439.35 1144.02,1447.29 
  1225.94,1451.58 1311.12,1454.05 1382.82,1455.2 1470.36,1455.97 1552.65,1456.33 1684.48,1456.59 1704.77,1456.61 
  "/>
<polyline clip-path="url(#clip6702)" style="stroke:#00a9ad; stroke-width:4; stroke-opacity:1; fill:none" points="
  108.402,1456.71 114.143,1456.71 119.884,1456.71 172.967,1456.66 226.051,1453.65 242.001,1449.98 257.952,1443.7 273.902,1434.01 289.853,1420.29 303.339,1405.3 
  316.825,1387.21 330.311,1366.23 343.797,1342.77 373.096,1286.21 402.395,1228.37 415.9,1203.5 429.406,1180.77 442.911,1160.76 456.417,1143.91 470.896,1129.75 
  485.376,1119.81 499.855,1114.16 514.334,1112.68 522.722,1113.64 531.11,1115.86 539.498,1119.26 547.886,1123.76 564.662,1135.72 581.438,1151 611.254,1183.97 
  641.071,1220.98 667.217,1254.06 693.364,1285.9 721.871,1317.82 750.377,1345.94 779.054,1370.06 807.73,1390.03 839.435,1407.67 871.14,1421.25 901.307,1431.04 
  931.473,1438.36 994.206,1447.92 1047.01,1452.15 1111.49,1454.74 1172.09,1455.84 1269.19,1456.49 1284.13,1456.53 
  "/>
<polyline clip-path="url(#clip6702)" style="stroke:#ed5d92; stroke-width:4; stroke-opacity:1; fill:none" points="
  108.402,1456.71 114.606,1456.71 171.972,1456.71 206.446,1456.71 235.594,1456.71 267.257,1456.71 296.447,1456.71 327.742,1456.71 364,1456.7 396.222,1456.4 
  424.478,1450.61 432.18,1444.82 439.881,1434.8 447.583,1418.43 455.284,1393.16 459.158,1376.21 463.032,1355.96 466.906,1332.1 470.779,1304.37 474.653,1272.55 
  478.527,1236.54 482.4,1196.33 486.274,1152.02 494.84,1040.95 503.405,916.324 511.971,786.302 520.537,661.281 524.612,606.819 528.687,557.207 532.762,513.518 
  536.837,476.694 540.912,447.513 544.987,426.557 549.062,414.196 553.137,410.582 557.374,416.023 561.611,430.523 565.848,453.54 570.085,484.336 574.323,522.012 
  578.56,565.555 582.797,613.875 587.034,665.845 601.301,853.32 615.568,1033.01 619.922,1082.32 624.277,1128.25 628.631,1170.58 632.986,1209.17 637.34,1244.02 
  641.695,1275.18 646.05,1302.79 650.404,1327.05 658.591,1364.39 666.778,1392.4 674.965,1412.86 683.152,1427.42 709.384,1449.67 735.615,1455.31 739.652,1455.63 
  743.689,1455.89 
  "/>
<path clip-path="url(#clip6700)" d="
M1832.76 718.377 L2280.76 718.377 L2280.76 234.537 L1832.76 234.537  Z
  " fill="#ffffff" fill-rule="evenodd" fill-opacity="1"/>
<polyline clip-path="url(#clip6700)" style="stroke:#000000; stroke-width:4; stroke-opacity:1; fill:none" points="
  1832.76,718.377 2280.76,718.377 2280.76,234.537 1832.76,234.537 1832.76,718.377 
  "/>
<polyline clip-path="url(#clip6700)" style="stroke:#009af9; stroke-width:4; stroke-opacity:1; fill:none" points="
  1856.76,295.017 2000.76,295.017 
  "/>
<g clip-path="url(#clip6700)">
<text style="fill:#000000; fill-opacity:1; font-family:Symbol; font-size:52px; text-anchor:start;" transform="rotate(0, 2024.76, 308.668)" x="2024.76" y="308.668">α</text>
</g>
<g clip-path="url(#clip6700)">
<text style="fill:#000000; fill-opacity:1; font-family:Arial,Helvetica Neue,Helvetica,sans-serif; font-size:48px; text-anchor:start;" transform="rotate(0, 2057.45, 308.668)" x="2057.45" y="308.668"> = 0.1</text>
</g>
<polyline clip-path="url(#clip6700)" style="stroke:#e26f46; stroke-width:4; stroke-opacity:1; fill:none" points="
  1856.76,355.497 2000.76,355.497 
  "/>
<g clip-path="url(#clip6700)">
<text style="fill:#000000; fill-opacity:1; font-family:Symbol; font-size:52px; text-anchor:start;" transform="rotate(0, 2024.76, 369.148)" x="2024.76" y="369.148">α</text>
</g>
<g clip-path="url(#clip6700)">
<text style="fill:#000000; fill-opacity:1; font-family:Arial,Helvetica Neue,Helvetica,sans-serif; font-size:48px; text-anchor:start;" transform="rotate(0, 2057.45, 369.148)" x="2057.45" y="369.148"> = 0.25</text>
</g>
<polyline clip-path="url(#clip6700)" style="stroke:#3da44d; stroke-width:4; stroke-opacity:1; fill:none" points="
  1856.76,415.977 2000.76,415.977 
  "/>
<g clip-path="url(#clip6700)">
<text style="fill:#000000; fill-opacity:1; font-family:Symbol; font-size:52px; text-anchor:start;" transform="rotate(0, 2024.76, 429.628)" x="2024.76" y="429.628">α</text>
</g>
<g clip-path="url(#clip6700)">
<text style="fill:#000000; fill-opacity:1; font-family:Arial,Helvetica Neue,Helvetica,sans-serif; font-size:48px; text-anchor:start;" transform="rotate(0, 2057.45, 429.628)" x="2057.45" y="429.628"> = 0.5</text>
</g>
<polyline clip-path="url(#clip6700)" style="stroke:#c271d2; stroke-width:4; stroke-opacity:1; fill:none" points="
  1856.76,476.457 2000.76,476.457 
  "/>
<g clip-path="url(#clip6700)">
<text style="fill:#000000; fill-opacity:1; font-family:Symbol; font-size:52px; text-anchor:start;" transform="rotate(0, 2024.76, 490.108)" x="2024.76" y="490.108">α</text>
</g>
<g clip-path="url(#clip6700)">
<text style="fill:#000000; fill-opacity:1; font-family:Arial,Helvetica Neue,Helvetica,sans-serif; font-size:48px; text-anchor:start;" transform="rotate(0, 2057.45, 490.108)" x="2057.45" y="490.108"> = 1.0</text>
</g>
<polyline clip-path="url(#clip6700)" style="stroke:#ac8d18; stroke-width:4; stroke-opacity:1; fill:none" points="
  1856.76,536.937 2000.76,536.937 
  "/>
<g clip-path="url(#clip6700)">
<text style="fill:#000000; fill-opacity:1; font-family:Symbol; font-size:52px; text-anchor:start;" transform="rotate(0, 2024.76, 550.588)" x="2024.76" y="550.588">α</text>
</g>
<g clip-path="url(#clip6700)">
<text style="fill:#000000; fill-opacity:1; font-family:Arial,Helvetica Neue,Helvetica,sans-serif; font-size:48px; text-anchor:start;" transform="rotate(0, 2057.45, 550.588)" x="2057.45" y="550.588"> = 5.0</text>
</g>
<polyline clip-path="url(#clip6700)" style="stroke:#00a9ad; stroke-width:4; stroke-opacity:1; fill:none" points="
  1856.76,597.417 2000.76,597.417 
  "/>
<g clip-path="url(#clip6700)">
<text style="fill:#000000; fill-opacity:1; font-family:Symbol; font-size:52px; text-anchor:start;" transform="rotate(0, 2024.76, 611.068)" x="2024.76" y="611.068">α</text>
</g>
<g clip-path="url(#clip6700)">
<text style="fill:#000000; fill-opacity:1; font-family:Arial,Helvetica Neue,Helvetica,sans-serif; font-size:48px; text-anchor:start;" transform="rotate(0, 2057.45, 611.068)" x="2057.45" y="611.068"> = 10.0</text>
</g>
<polyline clip-path="url(#clip6700)" style="stroke:#ed5d92; stroke-width:4; stroke-opacity:1; fill:none" points="
  1856.76,657.897 2000.76,657.897 
  "/>
<g clip-path="url(#clip6700)">
<text style="fill:#000000; fill-opacity:1; font-family:Symbol; font-size:52px; text-anchor:start;" transform="rotate(0, 2024.76, 671.548)" x="2024.76" y="671.548">α</text>
</g>
<g clip-path="url(#clip6700)">
<text style="fill:#000000; fill-opacity:1; font-family:Arial,Helvetica Neue,Helvetica,sans-serif; font-size:48px; text-anchor:start;" transform="rotate(0, 2057.45, 671.548)" x="2057.45" y="671.548"> = 100.0</text>
</g>
</svg>
