<?xml version="1.0" encoding="utf-8" standalone="no"?>
<!DOCTYPE svg PUBLIC "-//W3C//DTD SVG 1.1//EN"
  "http://www.w3.org/Graphics/SVG/1.1/DTD/svg11.dtd">
<!-- Created with matplotlib (https://matplotlib.org/) -->
<svg height="656.578125pt" version="1.1" viewBox="0 0 1072.405625 656.578125" width="1072.405625pt" xmlns="http://www.w3.org/2000/svg" xmlns:xlink="http://www.w3.org/1999/xlink">
 <defs>
  <style type="text/css">
*{stroke-linecap:butt;stroke-linejoin:round;}
  </style>
 </defs>
 <g id="figure_1">
  <g id="patch_1">
   <path d="M 0 656.578125 
L 1072.405625 656.578125 
L 1072.405625 0 
L 0 0 
z
" style="fill:#ffffff;"/>
  </g>
  <g id="axes_1">
   <g id="patch_2">
    <path d="M 48.965625 287.281104 
L 532.225625 287.281104 
L 532.225625 7.2 
L 48.965625 7.2 
z
" style="fill:#ffffff;"/>
   </g>
   <g id="patch_3">
    <path clip-path="url(#pfcc6a39db1)" d="M 54.74671 287.281104 
L 62.334588 287.281104 
L 62.334588 20.537195 
L 54.74671 20.537195 
z
" style="opacity:0.2;"/>
   </g>
   <g id="patch_4">
    <path clip-path="url(#pfcc6a39db1)" d="M 64.231557 287.281104 
L 71.819435 287.281104 
L 71.819435 227.448232 
L 64.231557 227.448232 
z
" style="opacity:0.2;"/>
   </g>
   <g id="patch_5">
    <path clip-path="url(#pfcc6a39db1)" d="M 73.716404 287.281104 
L 81.304282 287.281104 
L 81.304282 244.580993 
L 73.716404 244.580993 
z
" style="opacity:0.2;"/>
   </g>
   <g id="patch_6">
    <path clip-path="url(#pfcc6a39db1)" d="M 83.201252 287.281104 
L 90.78913 287.281104 
L 90.78913 281.745905 
L 83.201252 281.745905 
z
" style="opacity:0.2;"/>
   </g>
   <g id="patch_7">
    <path clip-path="url(#pfcc6a39db1)" d="M 92.686099 287.281104 
L 100.273977 287.281104 
L 100.273977 279.373676 
L 92.686099 279.373676 
z
" style="opacity:0.2;"/>
   </g>
   <g id="patch_8">
    <path clip-path="url(#pfcc6a39db1)" d="M 102.170947 287.281104 
L 109.758824 287.281104 
L 109.758824 278.582934 
L 102.170947 278.582934 
z
" style="opacity:0.2;"/>
   </g>
   <g id="patch_9">
    <path clip-path="url(#pfcc6a39db1)" d="M 111.655794 287.281104 
L 119.243672 287.281104 
L 119.243672 282.009486 
L 111.655794 282.009486 
z
" style="opacity:0.2;"/>
   </g>
   <g id="patch_10">
    <path clip-path="url(#pfcc6a39db1)" d="M 121.140641 287.281104 
L 128.728519 287.281104 
L 128.728519 282.536648 
L 121.140641 282.536648 
z
" style="opacity:0.2;"/>
   </g>
   <g id="patch_11">
    <path clip-path="url(#pfcc6a39db1)" d="M 130.625489 287.281104 
L 138.213367 287.281104 
L 138.213367 281.745905 
L 130.625489 281.745905 
z
" style="opacity:0.2;"/>
   </g>
   <g id="patch_12">
    <path clip-path="url(#pfcc6a39db1)" d="M 140.110336 287.281104 
L 147.698214 287.281104 
L 147.698214 279.373676 
L 140.110336 279.373676 
z
" style="opacity:0.2;"/>
   </g>
   <g id="patch_13">
    <path clip-path="url(#pfcc6a39db1)" d="M 149.595183 287.281104 
L 157.183061 287.281104 
L 157.183061 283.590971 
L 149.595183 283.590971 
z
" style="opacity:0.2;"/>
   </g>
   <g id="patch_14">
    <path clip-path="url(#pfcc6a39db1)" d="M 159.080031 287.281104 
L 166.667909 287.281104 
L 166.667909 277.792191 
L 159.080031 277.792191 
z
" style="opacity:0.2;"/>
   </g>
   <g id="patch_15">
    <path clip-path="url(#pfcc6a39db1)" d="M 168.564878 287.281104 
L 176.152756 287.281104 
L 176.152756 284.118133 
L 168.564878 284.118133 
z
" style="opacity:0.2;"/>
   </g>
   <g id="patch_16">
    <path clip-path="url(#pfcc6a39db1)" d="M 178.049726 287.281104 
L 185.637603 287.281104 
L 185.637603 280.955162 
L 178.049726 280.955162 
z
" style="opacity:0.2;"/>
   </g>
   <g id="patch_17">
    <path clip-path="url(#pfcc6a39db1)" d="M 187.534573 287.281104 
L 195.122451 287.281104 
L 195.122451 280.955162 
L 187.534573 280.955162 
z
" style="opacity:0.2;"/>
   </g>
   <g id="patch_18">
    <path clip-path="url(#pfcc6a39db1)" d="M 197.01942 287.281104 
L 204.607298 287.281104 
L 204.607298 286.490362 
L 197.01942 286.490362 
z
" style="opacity:0.2;"/>
   </g>
   <g id="patch_19">
    <path clip-path="url(#pfcc6a39db1)" d="M 206.504268 287.281104 
L 214.092146 287.281104 
L 214.092146 270.675505 
L 206.504268 270.675505 
z
" style="opacity:0.2;"/>
   </g>
   <g id="patch_20">
    <path clip-path="url(#pfcc6a39db1)" d="M 215.989115 287.281104 
L 223.576993 287.281104 
L 223.576993 272.256991 
L 215.989115 272.256991 
z
" style="opacity:0.2;"/>
   </g>
   <g id="patch_21">
    <path clip-path="url(#pfcc6a39db1)" d="M 225.473962 287.281104 
L 233.06184 287.281104 
L 233.06184 273.838477 
L 225.473962 273.838477 
z
" style="opacity:0.2;"/>
   </g>
   <g id="patch_22">
    <path clip-path="url(#pfcc6a39db1)" d="M 234.95881 287.281104 
L 242.546688 287.281104 
L 242.546688 276.474286 
L 234.95881 276.474286 
z
" style="opacity:0.2;"/>
   </g>
   <g id="patch_23">
    <path clip-path="url(#pfcc6a39db1)" d="M 244.443657 287.281104 
L 252.031535 287.281104 
L 252.031535 270.939086 
L 244.443657 270.939086 
z
" style="opacity:0.2;"/>
   </g>
   <g id="patch_24">
    <path clip-path="url(#pfcc6a39db1)" d="M 253.928504 287.281104 
L 261.516382 287.281104 
L 261.516382 269.884763 
L 253.928504 269.884763 
z
" style="opacity:0.2;"/>
   </g>
   <g id="patch_25">
    <path clip-path="url(#pfcc6a39db1)" d="M 263.413352 287.281104 
L 271.00123 287.281104 
L 271.00123 270.675505 
L 263.413352 270.675505 
z
" style="opacity:0.2;"/>
   </g>
   <g id="patch_26">
    <path clip-path="url(#pfcc6a39db1)" d="M 272.898199 287.281104 
L 280.486077 287.281104 
L 280.486077 277.001448 
L 272.898199 277.001448 
z
" style="opacity:0.2;"/>
   </g>
   <g id="patch_27">
    <path clip-path="url(#pfcc6a39db1)" d="M 282.383047 287.281104 
L 289.970924 287.281104 
L 289.970924 275.683543 
L 282.383047 275.683543 
z
" style="opacity:0.2;"/>
   </g>
   <g id="patch_28">
    <path clip-path="url(#pfcc6a39db1)" d="M 291.867894 287.281104 
L 299.455772 287.281104 
L 299.455772 258.814363 
L 291.867894 258.814363 
z
" style="opacity:0.2;"/>
   </g>
   <g id="patch_29">
    <path clip-path="url(#pfcc6a39db1)" d="M 301.352741 287.281104 
L 308.940619 287.281104 
L 308.940619 269.884763 
L 301.352741 269.884763 
z
" style="opacity:0.2;"/>
   </g>
   <g id="patch_30">
    <path clip-path="url(#pfcc6a39db1)" d="M 310.837589 287.281104 
L 318.425467 287.281104 
L 318.425467 270.939086 
L 310.837589 270.939086 
z
" style="opacity:0.2;"/>
   </g>
   <g id="patch_31">
    <path clip-path="url(#pfcc6a39db1)" d="M 320.322436 287.281104 
L 327.910314 287.281104 
L 327.910314 271.729829 
L 320.322436 271.729829 
z
" style="opacity:0.2;"/>
   </g>
   <g id="patch_32">
    <path clip-path="url(#pfcc6a39db1)" d="M 329.807283 287.281104 
L 337.395161 287.281104 
L 337.395161 269.621182 
L 329.807283 269.621182 
z
" style="opacity:0.2;"/>
   </g>
   <g id="patch_33">
    <path clip-path="url(#pfcc6a39db1)" d="M 339.292131 287.281104 
L 346.880009 287.281104 
L 346.880009 269.884763 
L 339.292131 269.884763 
z
" style="opacity:0.2;"/>
   </g>
   <g id="patch_34">
    <path clip-path="url(#pfcc6a39db1)" d="M 348.776978 287.281104 
L 356.364856 287.281104 
L 356.364856 278.846514 
L 348.776978 278.846514 
z
" style="opacity:0.2;"/>
   </g>
   <g id="patch_35">
    <path clip-path="url(#pfcc6a39db1)" d="M 358.261826 287.281104 
L 365.849703 287.281104 
L 365.849703 281.745905 
L 358.261826 281.745905 
z
" style="opacity:0.2;"/>
   </g>
   <g id="patch_36">
    <path clip-path="url(#pfcc6a39db1)" d="M 367.746673 287.281104 
L 375.334551 287.281104 
L 375.334551 280.428 
L 367.746673 280.428 
z
" style="opacity:0.2;"/>
   </g>
   <g id="patch_37">
    <path clip-path="url(#pfcc6a39db1)" d="M 377.23152 287.281104 
L 384.819398 287.281104 
L 384.819398 269.09402 
L 377.23152 269.09402 
z
" style="opacity:0.2;"/>
   </g>
   <g id="patch_38">
    <path clip-path="url(#pfcc6a39db1)" d="M 386.716368 287.281104 
L 394.304246 287.281104 
L 394.304246 277.001448 
L 386.716368 277.001448 
z
" style="opacity:0.2;"/>
   </g>
   <g id="patch_39">
    <path clip-path="url(#pfcc6a39db1)" d="M 396.201215 287.281104 
L 403.789093 287.281104 
L 403.789093 280.428 
L 396.201215 280.428 
z
" style="opacity:0.2;"/>
   </g>
   <g id="patch_40">
    <path clip-path="url(#pfcc6a39db1)" d="M 405.686062 287.281104 
L 413.27394 287.281104 
L 413.27394 283.32739 
L 405.686062 283.32739 
z
" style="opacity:0.2;"/>
   </g>
   <g id="patch_41">
    <path clip-path="url(#pfcc6a39db1)" d="M 415.17091 287.281104 
L 422.758788 287.281104 
L 422.758788 276.210705 
L 415.17091 276.210705 
z
" style="opacity:0.2;"/>
   </g>
   <g id="patch_42">
    <path clip-path="url(#pfcc6a39db1)" d="M 424.655757 287.281104 
L 432.243635 287.281104 
L 432.243635 278.319353 
L 424.655757 278.319353 
z
" style="opacity:0.2;"/>
   </g>
   <g id="patch_43">
    <path clip-path="url(#pfcc6a39db1)" d="M 434.140604 287.281104 
L 441.728482 287.281104 
L 441.728482 278.582934 
L 434.140604 278.582934 
z
" style="opacity:0.2;"/>
   </g>
   <g id="patch_44">
    <path clip-path="url(#pfcc6a39db1)" d="M 443.625452 287.281104 
L 451.21333 287.281104 
L 451.21333 274.365639 
L 443.625452 274.365639 
z
" style="opacity:0.2;"/>
   </g>
   <g id="patch_45">
    <path clip-path="url(#pfcc6a39db1)" d="M 453.110299 287.281104 
L 460.698177 287.281104 
L 460.698177 284.381714 
L 453.110299 284.381714 
z
" style="opacity:0.2;"/>
   </g>
   <g id="patch_46">
    <path clip-path="url(#pfcc6a39db1)" d="M 462.595147 287.281104 
L 470.183024 287.281104 
L 470.183024 278.582934 
L 462.595147 278.582934 
z
" style="opacity:0.2;"/>
   </g>
   <g id="patch_47">
    <path clip-path="url(#pfcc6a39db1)" d="M 472.079994 287.281104 
L 479.667872 287.281104 
L 479.667872 282.536648 
L 472.079994 282.536648 
z
" style="opacity:0.2;"/>
   </g>
   <g id="patch_48">
    <path clip-path="url(#pfcc6a39db1)" d="M 481.564841 287.281104 
L 489.152719 287.281104 
L 489.152719 281.745905 
L 481.564841 281.745905 
z
" style="opacity:0.2;"/>
   </g>
   <g id="patch_49">
    <path clip-path="url(#pfcc6a39db1)" d="M 491.049689 287.281104 
L 498.637567 287.281104 
L 498.637567 280.428 
L 491.049689 280.428 
z
" style="opacity:0.2;"/>
   </g>
   <g id="patch_50">
    <path clip-path="url(#pfcc6a39db1)" d="M 500.534536 287.281104 
L 508.122414 287.281104 
L 508.122414 280.164419 
L 500.534536 280.164419 
z
" style="opacity:0.2;"/>
   </g>
   <g id="patch_51">
    <path clip-path="url(#pfcc6a39db1)" d="M 510.019383 287.281104 
L 517.607261 287.281104 
L 517.607261 275.419962 
L 510.019383 275.419962 
z
" style="opacity:0.2;"/>
   </g>
   <g id="patch_52">
    <path clip-path="url(#pfcc6a39db1)" d="M 519.504231 287.281104 
L 527.092109 287.281104 
L 527.092109 280.955162 
L 519.504231 280.955162 
z
" style="opacity:0.2;"/>
   </g>
   <g id="matplotlib.axis_1">
    <g id="xtick_1">
     <g id="line2d_1">
      <defs>
       <path d="M 0 0 
L 0 3.5 
" id="m0504ecdf4e" style="stroke:#000000;stroke-width:0.8;"/>
      </defs>
      <g>
       <use style="stroke:#000000;stroke-width:0.8;" x="48.965625" xlink:href="#m0504ecdf4e" y="289.281104"/>
      </g>
     </g>
     <g id="text_1">
      <!-- 0 -->
      <defs>
       <path d="M 31.78125 66.40625 
Q 24.171875 66.40625 20.328125 58.90625 
Q 16.5 51.421875 16.5 36.375 
Q 16.5 21.390625 20.328125 13.890625 
Q 24.171875 6.390625 31.78125 6.390625 
Q 39.453125 6.390625 43.28125 13.890625 
Q 47.125 21.390625 47.125 36.375 
Q 47.125 51.421875 43.28125 58.90625 
Q 39.453125 66.40625 31.78125 66.40625 
z
M 31.78125 74.21875 
Q 44.046875 74.21875 50.515625 64.515625 
Q 56.984375 54.828125 56.984375 36.375 
Q 56.984375 17.96875 50.515625 8.265625 
Q 44.046875 -1.421875 31.78125 -1.421875 
Q 19.53125 -1.421875 13.0625 8.265625 
Q 6.59375 17.96875 6.59375 36.375 
Q 6.59375 54.828125 13.0625 64.515625 
Q 19.53125 74.21875 31.78125 74.21875 
z
" id="DejaVuSans-48"/>
      </defs>
      <g transform="translate(45.784375 303.879542)scale(0.1 -0.1)">
       <use xlink:href="#DejaVuSans-48"/>
      </g>
     </g>
    </g>
    <g id="xtick_2">
     <g id="line2d_2">
      <g>
       <use style="stroke:#000000;stroke-width:0.8;" x="145.617625" xlink:href="#m0504ecdf4e" y="289.281104"/>
      </g>
     </g>
     <g id="text_2">
      <!-- 1 -->
      <defs>
       <path d="M 12.40625 8.296875 
L 28.515625 8.296875 
L 28.515625 63.921875 
L 10.984375 60.40625 
L 10.984375 69.390625 
L 28.421875 72.90625 
L 38.28125 72.90625 
L 38.28125 8.296875 
L 54.390625 8.296875 
L 54.390625 0 
L 12.40625 0 
z
" id="DejaVuSans-49"/>
      </defs>
      <g transform="translate(142.436375 303.879542)scale(0.1 -0.1)">
       <use xlink:href="#DejaVuSans-49"/>
      </g>
     </g>
    </g>
    <g id="xtick_3">
     <g id="line2d_3">
      <g>
       <use style="stroke:#000000;stroke-width:0.8;" x="242.269625" xlink:href="#m0504ecdf4e" y="289.281104"/>
      </g>
     </g>
     <g id="text_3">
      <!-- 2 -->
      <defs>
       <path d="M 19.1875 8.296875 
L 53.609375 8.296875 
L 53.609375 0 
L 7.328125 0 
L 7.328125 8.296875 
Q 12.9375 14.109375 22.625 23.890625 
Q 32.328125 33.6875 34.8125 36.53125 
Q 39.546875 41.84375 41.421875 45.53125 
Q 43.3125 49.21875 43.3125 52.78125 
Q 43.3125 58.59375 39.234375 62.25 
Q 35.15625 65.921875 28.609375 65.921875 
Q 23.96875 65.921875 18.8125 64.3125 
Q 13.671875 62.703125 7.8125 59.421875 
L 7.8125 69.390625 
Q 13.765625 71.78125 18.9375 73 
Q 24.125 74.21875 28.421875 74.21875 
Q 39.75 74.21875 46.484375 68.546875 
Q 53.21875 62.890625 53.21875 53.421875 
Q 53.21875 48.921875 51.53125 44.890625 
Q 49.859375 40.875 45.40625 35.40625 
Q 44.1875 33.984375 37.640625 27.21875 
Q 31.109375 20.453125 19.1875 8.296875 
z
" id="DejaVuSans-50"/>
      </defs>
      <g transform="translate(239.088375 303.879542)scale(0.1 -0.1)">
       <use xlink:href="#DejaVuSans-50"/>
      </g>
     </g>
    </g>
    <g id="xtick_4">
     <g id="line2d_4">
      <g>
       <use style="stroke:#000000;stroke-width:0.8;" x="338.921625" xlink:href="#m0504ecdf4e" y="289.281104"/>
      </g>
     </g>
     <g id="text_4">
      <!-- 3 -->
      <defs>
       <path d="M 40.578125 39.3125 
Q 47.65625 37.796875 51.625 33 
Q 55.609375 28.21875 55.609375 21.1875 
Q 55.609375 10.40625 48.1875 4.484375 
Q 40.765625 -1.421875 27.09375 -1.421875 
Q 22.515625 -1.421875 17.65625 -0.515625 
Q 12.796875 0.390625 7.625 2.203125 
L 7.625 11.71875 
Q 11.71875 9.328125 16.59375 8.109375 
Q 21.484375 6.890625 26.8125 6.890625 
Q 36.078125 6.890625 40.9375 10.546875 
Q 45.796875 14.203125 45.796875 21.1875 
Q 45.796875 27.640625 41.28125 31.265625 
Q 36.765625 34.90625 28.71875 34.90625 
L 20.21875 34.90625 
L 20.21875 43.015625 
L 29.109375 43.015625 
Q 36.375 43.015625 40.234375 45.921875 
Q 44.09375 48.828125 44.09375 54.296875 
Q 44.09375 59.90625 40.109375 62.90625 
Q 36.140625 65.921875 28.71875 65.921875 
Q 24.65625 65.921875 20.015625 65.03125 
Q 15.375 64.15625 9.8125 62.3125 
L 9.8125 71.09375 
Q 15.4375 72.65625 20.34375 73.4375 
Q 25.25 74.21875 29.59375 74.21875 
Q 40.828125 74.21875 47.359375 69.109375 
Q 53.90625 64.015625 53.90625 55.328125 
Q 53.90625 49.265625 50.4375 45.09375 
Q 46.96875 40.921875 40.578125 39.3125 
z
" id="DejaVuSans-51"/>
      </defs>
      <g transform="translate(335.740375 303.879542)scale(0.1 -0.1)">
       <use xlink:href="#DejaVuSans-51"/>
      </g>
     </g>
    </g>
    <g id="xtick_5">
     <g id="line2d_5">
      <g>
       <use style="stroke:#000000;stroke-width:0.8;" x="435.573625" xlink:href="#m0504ecdf4e" y="289.281104"/>
      </g>
     </g>
     <g id="text_5">
      <!-- 4 -->
      <defs>
       <path d="M 37.796875 64.3125 
L 12.890625 25.390625 
L 37.796875 25.390625 
z
M 35.203125 72.90625 
L 47.609375 72.90625 
L 47.609375 25.390625 
L 58.015625 25.390625 
L 58.015625 17.1875 
L 47.609375 17.1875 
L 47.609375 0 
L 37.796875 0 
L 37.796875 17.1875 
L 4.890625 17.1875 
L 4.890625 26.703125 
z
" id="DejaVuSans-52"/>
      </defs>
      <g transform="translate(432.392375 303.879542)scale(0.1 -0.1)">
       <use xlink:href="#DejaVuSans-52"/>
      </g>
     </g>
    </g>
    <g id="xtick_6">
     <g id="line2d_6">
      <g>
       <use style="stroke:#000000;stroke-width:0.8;" x="532.225625" xlink:href="#m0504ecdf4e" y="289.281104"/>
      </g>
     </g>
     <g id="text_6">
      <!-- 5 -->
      <defs>
       <path d="M 10.796875 72.90625 
L 49.515625 72.90625 
L 49.515625 64.59375 
L 19.828125 64.59375 
L 19.828125 46.734375 
Q 21.96875 47.46875 24.109375 47.828125 
Q 26.265625 48.1875 28.421875 48.1875 
Q 40.625 48.1875 47.75 41.5 
Q 54.890625 34.8125 54.890625 23.390625 
Q 54.890625 11.625 47.5625 5.09375 
Q 40.234375 -1.421875 26.90625 -1.421875 
Q 22.3125 -1.421875 17.546875 -0.640625 
Q 12.796875 0.140625 7.71875 1.703125 
L 7.71875 11.625 
Q 12.109375 9.234375 16.796875 8.0625 
Q 21.484375 6.890625 26.703125 6.890625 
Q 35.15625 6.890625 40.078125 11.328125 
Q 45.015625 15.765625 45.015625 23.390625 
Q 45.015625 31 40.078125 35.4375 
Q 35.15625 39.890625 26.703125 39.890625 
Q 22.75 39.890625 18.8125 39.015625 
Q 14.890625 38.140625 10.796875 36.28125 
z
" id="DejaVuSans-53"/>
      </defs>
      <g transform="translate(529.044375 303.879542)scale(0.1 -0.1)">
       <use xlink:href="#DejaVuSans-53"/>
      </g>
     </g>
    </g>
    <g id="text_7">
     <!-- $K_{\mathrm{S}}$ -->
     <defs>
      <path d="M 16.890625 72.90625 
L 26.8125 72.90625 
L 20.796875 42.1875 
L 59.078125 72.90625 
L 72.21875 72.90625 
L 28.90625 38.09375 
L 60.59375 0 
L 48.578125 0 
L 19.484375 35.5 
L 12.59375 0 
L 2.6875 0 
z
" id="DejaVuSans-Oblique-75"/>
      <path d="M 53.515625 70.515625 
L 53.515625 60.890625 
Q 47.90625 63.578125 42.921875 64.890625 
Q 37.9375 66.21875 33.296875 66.21875 
Q 25.25 66.21875 20.875 63.09375 
Q 16.5 59.96875 16.5 54.203125 
Q 16.5 49.359375 19.40625 46.890625 
Q 22.3125 44.4375 30.421875 42.921875 
L 36.375 41.703125 
Q 47.40625 39.59375 52.65625 34.296875 
Q 57.90625 29 57.90625 20.125 
Q 57.90625 9.515625 50.796875 4.046875 
Q 43.703125 -1.421875 29.984375 -1.421875 
Q 24.8125 -1.421875 18.96875 -0.25 
Q 13.140625 0.921875 6.890625 3.21875 
L 6.890625 13.375 
Q 12.890625 10.015625 18.65625 8.296875 
Q 24.421875 6.59375 29.984375 6.59375 
Q 38.421875 6.59375 43.015625 9.90625 
Q 47.609375 13.234375 47.609375 19.390625 
Q 47.609375 24.75 44.3125 27.78125 
Q 41.015625 30.8125 33.5 32.328125 
L 27.484375 33.5 
Q 16.453125 35.6875 11.515625 40.375 
Q 6.59375 45.0625 6.59375 53.421875 
Q 6.59375 63.09375 13.40625 68.65625 
Q 20.21875 74.21875 32.171875 74.21875 
Q 37.3125 74.21875 42.625 73.28125 
Q 47.953125 72.359375 53.515625 70.515625 
z
" id="DejaVuSans-83"/>
     </defs>
     <g transform="translate(284.945625 317.557667)scale(0.1 -0.1)">
      <use transform="translate(0 0.09375)" xlink:href="#DejaVuSans-Oblique-75"/>
      <use transform="translate(65.576172 -16.3125)scale(0.7)" xlink:href="#DejaVuSans-83"/>
     </g>
    </g>
   </g>
   <g id="matplotlib.axis_2">
    <g id="ytick_1">
     <g id="line2d_7">
      <defs>
       <path d="M 0 0 
L -3.5 0 
" id="mdca06c7c31" style="stroke:#000000;stroke-width:0.8;"/>
      </defs>
      <g>
       <use style="stroke:#000000;stroke-width:0.8;" x="46.965625" xlink:href="#mdca06c7c31" y="287.281104"/>
      </g>
     </g>
     <g id="text_8">
      <!-- 0 -->
      <g transform="translate(33.603125 291.080323)scale(0.1 -0.1)">
       <use xlink:href="#DejaVuSans-48"/>
      </g>
     </g>
    </g>
    <g id="ytick_2">
     <g id="line2d_8">
      <g>
       <use style="stroke:#000000;stroke-width:0.8;" x="46.965625" xlink:href="#mdca06c7c31" y="255.651392"/>
      </g>
     </g>
     <g id="text_9">
      <!-- 20 -->
      <g transform="translate(27.240625 259.450611)scale(0.1 -0.1)">
       <use xlink:href="#DejaVuSans-50"/>
       <use x="63.623047" xlink:href="#DejaVuSans-48"/>
      </g>
     </g>
    </g>
    <g id="ytick_3">
     <g id="line2d_9">
      <g>
       <use style="stroke:#000000;stroke-width:0.8;" x="46.965625" xlink:href="#mdca06c7c31" y="224.021679"/>
      </g>
     </g>
     <g id="text_10">
      <!-- 40 -->
      <g transform="translate(27.240625 227.820898)scale(0.1 -0.1)">
       <use xlink:href="#DejaVuSans-52"/>
       <use x="63.623047" xlink:href="#DejaVuSans-48"/>
      </g>
     </g>
    </g>
    <g id="ytick_4">
     <g id="line2d_10">
      <g>
       <use style="stroke:#000000;stroke-width:0.8;" x="46.965625" xlink:href="#mdca06c7c31" y="192.391967"/>
      </g>
     </g>
     <g id="text_11">
      <!-- 60 -->
      <defs>
       <path d="M 33.015625 40.375 
Q 26.375 40.375 22.484375 35.828125 
Q 18.609375 31.296875 18.609375 23.390625 
Q 18.609375 15.53125 22.484375 10.953125 
Q 26.375 6.390625 33.015625 6.390625 
Q 39.65625 6.390625 43.53125 10.953125 
Q 47.40625 15.53125 47.40625 23.390625 
Q 47.40625 31.296875 43.53125 35.828125 
Q 39.65625 40.375 33.015625 40.375 
z
M 52.59375 71.296875 
L 52.59375 62.3125 
Q 48.875 64.0625 45.09375 64.984375 
Q 41.3125 65.921875 37.59375 65.921875 
Q 27.828125 65.921875 22.671875 59.328125 
Q 17.53125 52.734375 16.796875 39.40625 
Q 19.671875 43.65625 24.015625 45.921875 
Q 28.375 48.1875 33.59375 48.1875 
Q 44.578125 48.1875 50.953125 41.515625 
Q 57.328125 34.859375 57.328125 23.390625 
Q 57.328125 12.15625 50.6875 5.359375 
Q 44.046875 -1.421875 33.015625 -1.421875 
Q 20.359375 -1.421875 13.671875 8.265625 
Q 6.984375 17.96875 6.984375 36.375 
Q 6.984375 53.65625 15.1875 63.9375 
Q 23.390625 74.21875 37.203125 74.21875 
Q 40.921875 74.21875 44.703125 73.484375 
Q 48.484375 72.75 52.59375 71.296875 
z
" id="DejaVuSans-54"/>
      </defs>
      <g transform="translate(27.240625 196.191186)scale(0.1 -0.1)">
       <use xlink:href="#DejaVuSans-54"/>
       <use x="63.623047" xlink:href="#DejaVuSans-48"/>
      </g>
     </g>
    </g>
    <g id="ytick_5">
     <g id="line2d_11">
      <g>
       <use style="stroke:#000000;stroke-width:0.8;" x="46.965625" xlink:href="#mdca06c7c31" y="160.762254"/>
      </g>
     </g>
     <g id="text_12">
      <!-- 80 -->
      <defs>
       <path d="M 31.78125 34.625 
Q 24.75 34.625 20.71875 30.859375 
Q 16.703125 27.09375 16.703125 20.515625 
Q 16.703125 13.921875 20.71875 10.15625 
Q 24.75 6.390625 31.78125 6.390625 
Q 38.8125 6.390625 42.859375 10.171875 
Q 46.921875 13.96875 46.921875 20.515625 
Q 46.921875 27.09375 42.890625 30.859375 
Q 38.875 34.625 31.78125 34.625 
z
M 21.921875 38.8125 
Q 15.578125 40.375 12.03125 44.71875 
Q 8.5 49.078125 8.5 55.328125 
Q 8.5 64.0625 14.71875 69.140625 
Q 20.953125 74.21875 31.78125 74.21875 
Q 42.671875 74.21875 48.875 69.140625 
Q 55.078125 64.0625 55.078125 55.328125 
Q 55.078125 49.078125 51.53125 44.71875 
Q 48 40.375 41.703125 38.8125 
Q 48.828125 37.15625 52.796875 32.3125 
Q 56.78125 27.484375 56.78125 20.515625 
Q 56.78125 9.90625 50.3125 4.234375 
Q 43.84375 -1.421875 31.78125 -1.421875 
Q 19.734375 -1.421875 13.25 4.234375 
Q 6.78125 9.90625 6.78125 20.515625 
Q 6.78125 27.484375 10.78125 32.3125 
Q 14.796875 37.15625 21.921875 38.8125 
z
M 18.3125 54.390625 
Q 18.3125 48.734375 21.84375 45.5625 
Q 25.390625 42.390625 31.78125 42.390625 
Q 38.140625 42.390625 41.71875 45.5625 
Q 45.3125 48.734375 45.3125 54.390625 
Q 45.3125 60.0625 41.71875 63.234375 
Q 38.140625 66.40625 31.78125 66.40625 
Q 25.390625 66.40625 21.84375 63.234375 
Q 18.3125 60.0625 18.3125 54.390625 
z
" id="DejaVuSans-56"/>
      </defs>
      <g transform="translate(27.240625 164.561473)scale(0.1 -0.1)">
       <use xlink:href="#DejaVuSans-56"/>
       <use x="63.623047" xlink:href="#DejaVuSans-48"/>
      </g>
     </g>
    </g>
    <g id="ytick_6">
     <g id="line2d_12">
      <g>
       <use style="stroke:#000000;stroke-width:0.8;" x="46.965625" xlink:href="#mdca06c7c31" y="129.132542"/>
      </g>
     </g>
     <g id="text_13">
      <!-- 100 -->
      <g transform="translate(20.878125 132.931761)scale(0.1 -0.1)">
       <use xlink:href="#DejaVuSans-49"/>
       <use x="63.623047" xlink:href="#DejaVuSans-48"/>
       <use x="127.246094" xlink:href="#DejaVuSans-48"/>
      </g>
     </g>
    </g>
    <g id="ytick_7">
     <g id="line2d_13">
      <g>
       <use style="stroke:#000000;stroke-width:0.8;" x="46.965625" xlink:href="#mdca06c7c31" y="97.502829"/>
      </g>
     </g>
     <g id="text_14">
      <!-- 120 -->
      <g transform="translate(20.878125 101.302048)scale(0.1 -0.1)">
       <use xlink:href="#DejaVuSans-49"/>
       <use x="63.623047" xlink:href="#DejaVuSans-50"/>
       <use x="127.246094" xlink:href="#DejaVuSans-48"/>
      </g>
     </g>
    </g>
    <g id="ytick_8">
     <g id="line2d_14">
      <g>
       <use style="stroke:#000000;stroke-width:0.8;" x="46.965625" xlink:href="#mdca06c7c31" y="65.873117"/>
      </g>
     </g>
     <g id="text_15">
      <!-- 140 -->
      <g transform="translate(20.878125 69.672335)scale(0.1 -0.1)">
       <use xlink:href="#DejaVuSans-49"/>
       <use x="63.623047" xlink:href="#DejaVuSans-52"/>
       <use x="127.246094" xlink:href="#DejaVuSans-48"/>
      </g>
     </g>
    </g>
    <g id="ytick_9">
     <g id="line2d_15">
      <g>
       <use style="stroke:#000000;stroke-width:0.8;" x="46.965625" xlink:href="#mdca06c7c31" y="34.243404"/>
      </g>
     </g>
     <g id="text_16">
      <!-- 160 -->
      <g transform="translate(20.878125 38.042623)scale(0.1 -0.1)">
       <use xlink:href="#DejaVuSans-49"/>
       <use x="63.623047" xlink:href="#DejaVuSans-54"/>
       <use x="127.246094" xlink:href="#DejaVuSans-48"/>
      </g>
     </g>
    </g>
    <g id="text_17">
     <!-- Duplications -->
     <defs>
      <path d="M 19.671875 64.796875 
L 19.671875 8.109375 
L 31.59375 8.109375 
Q 46.6875 8.109375 53.6875 14.9375 
Q 60.6875 21.78125 60.6875 36.53125 
Q 60.6875 51.171875 53.6875 57.984375 
Q 46.6875 64.796875 31.59375 64.796875 
z
M 9.8125 72.90625 
L 30.078125 72.90625 
Q 51.265625 72.90625 61.171875 64.09375 
Q 71.09375 55.28125 71.09375 36.53125 
Q 71.09375 17.671875 61.125 8.828125 
Q 51.171875 0 30.078125 0 
L 9.8125 0 
z
" id="DejaVuSans-68"/>
      <path d="M 8.5 21.578125 
L 8.5 54.6875 
L 17.484375 54.6875 
L 17.484375 21.921875 
Q 17.484375 14.15625 20.5 10.265625 
Q 23.53125 6.390625 29.59375 6.390625 
Q 36.859375 6.390625 41.078125 11.03125 
Q 45.3125 15.671875 45.3125 23.6875 
L 45.3125 54.6875 
L 54.296875 54.6875 
L 54.296875 0 
L 45.3125 0 
L 45.3125 8.40625 
Q 42.046875 3.421875 37.71875 1 
Q 33.40625 -1.421875 27.6875 -1.421875 
Q 18.265625 -1.421875 13.375 4.4375 
Q 8.5 10.296875 8.5 21.578125 
z
M 31.109375 56 
z
" id="DejaVuSans-117"/>
      <path d="M 18.109375 8.203125 
L 18.109375 -20.796875 
L 9.078125 -20.796875 
L 9.078125 54.6875 
L 18.109375 54.6875 
L 18.109375 46.390625 
Q 20.953125 51.265625 25.265625 53.625 
Q 29.59375 56 35.59375 56 
Q 45.5625 56 51.78125 48.09375 
Q 58.015625 40.1875 58.015625 27.296875 
Q 58.015625 14.40625 51.78125 6.484375 
Q 45.5625 -1.421875 35.59375 -1.421875 
Q 29.59375 -1.421875 25.265625 0.953125 
Q 20.953125 3.328125 18.109375 8.203125 
z
M 48.6875 27.296875 
Q 48.6875 37.203125 44.609375 42.84375 
Q 40.53125 48.484375 33.40625 48.484375 
Q 26.265625 48.484375 22.1875 42.84375 
Q 18.109375 37.203125 18.109375 27.296875 
Q 18.109375 17.390625 22.1875 11.75 
Q 26.265625 6.109375 33.40625 6.109375 
Q 40.53125 6.109375 44.609375 11.75 
Q 48.6875 17.390625 48.6875 27.296875 
z
" id="DejaVuSans-112"/>
      <path d="M 9.421875 75.984375 
L 18.40625 75.984375 
L 18.40625 0 
L 9.421875 0 
z
" id="DejaVuSans-108"/>
      <path d="M 9.421875 54.6875 
L 18.40625 54.6875 
L 18.40625 0 
L 9.421875 0 
z
M 9.421875 75.984375 
L 18.40625 75.984375 
L 18.40625 64.59375 
L 9.421875 64.59375 
z
" id="DejaVuSans-105"/>
      <path d="M 48.78125 52.59375 
L 48.78125 44.1875 
Q 44.96875 46.296875 41.140625 47.34375 
Q 37.3125 48.390625 33.40625 48.390625 
Q 24.65625 48.390625 19.8125 42.84375 
Q 14.984375 37.3125 14.984375 27.296875 
Q 14.984375 17.28125 19.8125 11.734375 
Q 24.65625 6.203125 33.40625 6.203125 
Q 37.3125 6.203125 41.140625 7.25 
Q 44.96875 8.296875 48.78125 10.40625 
L 48.78125 2.09375 
Q 45.015625 0.34375 40.984375 -0.53125 
Q 36.96875 -1.421875 32.421875 -1.421875 
Q 20.0625 -1.421875 12.78125 6.34375 
Q 5.515625 14.109375 5.515625 27.296875 
Q 5.515625 40.671875 12.859375 48.328125 
Q 20.21875 56 33.015625 56 
Q 37.15625 56 41.109375 55.140625 
Q 45.0625 54.296875 48.78125 52.59375 
z
" id="DejaVuSans-99"/>
      <path d="M 34.28125 27.484375 
Q 23.390625 27.484375 19.1875 25 
Q 14.984375 22.515625 14.984375 16.5 
Q 14.984375 11.71875 18.140625 8.90625 
Q 21.296875 6.109375 26.703125 6.109375 
Q 34.1875 6.109375 38.703125 11.40625 
Q 43.21875 16.703125 43.21875 25.484375 
L 43.21875 27.484375 
z
M 52.203125 31.203125 
L 52.203125 0 
L 43.21875 0 
L 43.21875 8.296875 
Q 40.140625 3.328125 35.546875 0.953125 
Q 30.953125 -1.421875 24.3125 -1.421875 
Q 15.921875 -1.421875 10.953125 3.296875 
Q 6 8.015625 6 15.921875 
Q 6 25.140625 12.171875 29.828125 
Q 18.359375 34.515625 30.609375 34.515625 
L 43.21875 34.515625 
L 43.21875 35.40625 
Q 43.21875 41.609375 39.140625 45 
Q 35.0625 48.390625 27.6875 48.390625 
Q 23 48.390625 18.546875 47.265625 
Q 14.109375 46.140625 10.015625 43.890625 
L 10.015625 52.203125 
Q 14.9375 54.109375 19.578125 55.046875 
Q 24.21875 56 28.609375 56 
Q 40.484375 56 46.34375 49.84375 
Q 52.203125 43.703125 52.203125 31.203125 
z
" id="DejaVuSans-97"/>
      <path d="M 18.3125 70.21875 
L 18.3125 54.6875 
L 36.8125 54.6875 
L 36.8125 47.703125 
L 18.3125 47.703125 
L 18.3125 18.015625 
Q 18.3125 11.328125 20.140625 9.421875 
Q 21.96875 7.515625 27.59375 7.515625 
L 36.8125 7.515625 
L 36.8125 0 
L 27.59375 0 
Q 17.1875 0 13.234375 3.875 
Q 9.28125 7.765625 9.28125 18.015625 
L 9.28125 47.703125 
L 2.6875 47.703125 
L 2.6875 54.6875 
L 9.28125 54.6875 
L 9.28125 70.21875 
z
" id="DejaVuSans-116"/>
      <path d="M 30.609375 48.390625 
Q 23.390625 48.390625 19.1875 42.75 
Q 14.984375 37.109375 14.984375 27.296875 
Q 14.984375 17.484375 19.15625 11.84375 
Q 23.34375 6.203125 30.609375 6.203125 
Q 37.796875 6.203125 41.984375 11.859375 
Q 46.1875 17.53125 46.1875 27.296875 
Q 46.1875 37.015625 41.984375 42.703125 
Q 37.796875 48.390625 30.609375 48.390625 
z
M 30.609375 56 
Q 42.328125 56 49.015625 48.375 
Q 55.71875 40.765625 55.71875 27.296875 
Q 55.71875 13.875 49.015625 6.21875 
Q 42.328125 -1.421875 30.609375 -1.421875 
Q 18.84375 -1.421875 12.171875 6.21875 
Q 5.515625 13.875 5.515625 27.296875 
Q 5.515625 40.765625 12.171875 48.375 
Q 18.84375 56 30.609375 56 
z
" id="DejaVuSans-111"/>
      <path d="M 54.890625 33.015625 
L 54.890625 0 
L 45.90625 0 
L 45.90625 32.71875 
Q 45.90625 40.484375 42.875 44.328125 
Q 39.84375 48.1875 33.796875 48.1875 
Q 26.515625 48.1875 22.3125 43.546875 
Q 18.109375 38.921875 18.109375 30.90625 
L 18.109375 0 
L 9.078125 0 
L 9.078125 54.6875 
L 18.109375 54.6875 
L 18.109375 46.1875 
Q 21.34375 51.125 25.703125 53.5625 
Q 30.078125 56 35.796875 56 
Q 45.21875 56 50.046875 50.171875 
Q 54.890625 44.34375 54.890625 33.015625 
z
" id="DejaVuSans-110"/>
      <path d="M 44.28125 53.078125 
L 44.28125 44.578125 
Q 40.484375 46.53125 36.375 47.5 
Q 32.28125 48.484375 27.875 48.484375 
Q 21.1875 48.484375 17.84375 46.4375 
Q 14.5 44.390625 14.5 40.28125 
Q 14.5 37.15625 16.890625 35.375 
Q 19.28125 33.59375 26.515625 31.984375 
L 29.59375 31.296875 
Q 39.15625 29.25 43.1875 25.515625 
Q 47.21875 21.78125 47.21875 15.09375 
Q 47.21875 7.46875 41.1875 3.015625 
Q 35.15625 -1.421875 24.609375 -1.421875 
Q 20.21875 -1.421875 15.453125 -0.5625 
Q 10.6875 0.296875 5.421875 2 
L 5.421875 11.28125 
Q 10.40625 8.6875 15.234375 7.390625 
Q 20.0625 6.109375 24.8125 6.109375 
Q 31.15625 6.109375 34.5625 8.28125 
Q 37.984375 10.453125 37.984375 14.40625 
Q 37.984375 18.0625 35.515625 20.015625 
Q 33.0625 21.96875 24.703125 23.78125 
L 21.578125 24.515625 
Q 13.234375 26.265625 9.515625 29.90625 
Q 5.8125 33.546875 5.8125 39.890625 
Q 5.8125 47.609375 11.28125 51.796875 
Q 16.75 56 26.8125 56 
Q 31.78125 56 36.171875 55.265625 
Q 40.578125 54.546875 44.28125 53.078125 
z
" id="DejaVuSans-115"/>
     </defs>
     <g transform="translate(14.798437 178.206958)rotate(-90)scale(0.1 -0.1)">
      <use xlink:href="#DejaVuSans-68"/>
      <use x="77.001953" xlink:href="#DejaVuSans-117"/>
      <use x="140.380859" xlink:href="#DejaVuSans-112"/>
      <use x="203.857422" xlink:href="#DejaVuSans-108"/>
      <use x="231.640625" xlink:href="#DejaVuSans-105"/>
      <use x="259.423828" xlink:href="#DejaVuSans-99"/>
      <use x="314.404297" xlink:href="#DejaVuSans-97"/>
      <use x="375.683594" xlink:href="#DejaVuSans-116"/>
      <use x="414.892578" xlink:href="#DejaVuSans-105"/>
      <use x="442.675781" xlink:href="#DejaVuSans-111"/>
      <use x="503.857422" xlink:href="#DejaVuSans-110"/>
      <use x="567.236328" xlink:href="#DejaVuSans-115"/>
     </g>
    </g>
   </g>
   <g id="patch_53">
    <path d="M 46.965625 287.281104 
L 46.965625 7.2 
" style="fill:none;stroke:#000000;stroke-linecap:square;stroke-linejoin:miter;stroke-width:0.8;"/>
   </g>
   <g id="patch_54">
    <path d="M 48.965625 289.281104 
L 532.225625 289.281104 
" style="fill:none;stroke:#000000;stroke-linecap:square;stroke-linejoin:miter;stroke-width:0.8;"/>
   </g>
  </g>
  <g id="axes_2">
   <g id="patch_55">
    <path d="M 581.945625 287.281104 
L 1065.205625 287.281104 
L 1065.205625 7.2 
L 581.945625 7.2 
z
" style="fill:#ffffff;"/>
   </g>
   <g id="patch_56">
    <path clip-path="url(#p9050bcca11)" d="M 582.889375 287.281104 
L 590.607266 287.281104 
L 590.607266 177.535039 
L 582.889375 177.535039 
z
" style="opacity:0.2;"/>
   </g>
   <g id="patch_57">
    <path clip-path="url(#p9050bcca11)" d="M 592.536739 287.281104 
L 600.254631 287.281104 
L 600.254631 115.802877 
L 592.536739 115.802877 
z
" style="opacity:0.2;"/>
   </g>
   <g id="patch_58">
    <path clip-path="url(#p9050bcca11)" d="M 602.184104 287.281104 
L 609.901995 287.281104 
L 609.901995 104.370995 
L 602.184104 104.370995 
z
" style="opacity:0.2;"/>
   </g>
   <g id="patch_59">
    <path clip-path="url(#p9050bcca11)" d="M 611.831468 287.281104 
L 619.54936 287.281104 
L 619.54936 177.535039 
L 611.831468 177.535039 
z
" style="opacity:0.2;"/>
   </g>
   <g id="patch_60">
    <path clip-path="url(#p9050bcca11)" d="M 621.478833 287.281104 
L 629.196724 287.281104 
L 629.196724 170.67591 
L 621.478833 170.67591 
z
" style="opacity:0.2;"/>
   </g>
   <g id="patch_61">
    <path clip-path="url(#p9050bcca11)" d="M 631.126197 287.281104 
L 638.844089 287.281104 
L 638.844089 195.063924 
L 631.126197 195.063924 
z
" style="opacity:0.2;"/>
   </g>
   <g id="patch_62">
    <path clip-path="url(#p9050bcca11)" d="M 640.773561 287.281104 
L 648.491453 287.281104 
L 648.491453 89.890612 
L 640.773561 89.890612 
z
" style="opacity:0.2;"/>
   </g>
   <g id="patch_63">
    <path clip-path="url(#p9050bcca11)" d="M 650.420926 287.281104 
L 658.138817 287.281104 
L 658.138817 134.093888 
L 650.420926 134.093888 
z
" style="opacity:0.2;"/>
   </g>
   <g id="patch_64">
    <path clip-path="url(#p9050bcca11)" d="M 660.06829 287.281104 
L 667.786182 287.281104 
L 667.786182 177.535039 
L 660.06829 177.535039 
z
" style="opacity:0.2;"/>
   </g>
   <g id="patch_65">
    <path clip-path="url(#p9050bcca11)" d="M 669.715655 287.281104 
L 677.433546 287.281104 
L 677.433546 156.957652 
L 669.715655 156.957652 
z
" style="opacity:0.2;"/>
   </g>
   <g id="patch_66">
    <path clip-path="url(#p9050bcca11)" d="M 679.363019 287.281104 
L 687.080911 287.281104 
L 687.080911 225.548943 
L 679.363019 225.548943 
z
" style="opacity:0.2;"/>
   </g>
   <g id="patch_67">
    <path clip-path="url(#p9050bcca11)" d="M 689.010384 287.281104 
L 696.728275 287.281104 
L 696.728275 170.67591 
L 689.010384 170.67591 
z
" style="opacity:0.2;"/>
   </g>
   <g id="patch_68">
    <path clip-path="url(#p9050bcca11)" d="M 698.657748 287.281104 
L 706.375639 287.281104 
L 706.375639 235.456574 
L 698.657748 235.456574 
z
" style="opacity:0.2;"/>
   </g>
   <g id="patch_69">
    <path clip-path="url(#p9050bcca11)" d="M 708.305112 287.281104 
L 716.023004 287.281104 
L 716.023004 201.923054 
L 708.305112 201.923054 
z
" style="opacity:0.2;"/>
   </g>
   <g id="patch_70">
    <path clip-path="url(#p9050bcca11)" d="M 717.952477 287.281104 
L 725.670368 287.281104 
L 725.670368 268.990094 
L 717.952477 268.990094 
z
" style="opacity:0.2;"/>
   </g>
   <g id="patch_71">
    <path clip-path="url(#p9050bcca11)" d="M 727.599841 287.281104 
L 735.317733 287.281104 
L 735.317733 223.262566 
L 727.599841 223.262566 
z
" style="opacity:0.2;"/>
   </g>
   <g id="patch_72">
    <path clip-path="url(#p9050bcca11)" d="M 737.247206 287.281104 
L 744.965097 287.281104 
L 744.965097 197.350301 
L 737.247206 197.350301 
z
" style="opacity:0.2;"/>
   </g>
   <g id="patch_73">
    <path clip-path="url(#p9050bcca11)" d="M 746.89457 287.281104 
L 754.612462 287.281104 
L 754.612462 223.262566 
L 746.89457 223.262566 
z
" style="opacity:0.2;"/>
   </g>
   <g id="patch_74">
    <path clip-path="url(#p9050bcca11)" d="M 756.541934 287.281104 
L 764.259826 287.281104 
L 764.259826 223.262566 
L 756.541934 223.262566 
z
" style="opacity:0.2;"/>
   </g>
   <g id="patch_75">
    <path clip-path="url(#p9050bcca11)" d="M 766.189299 287.281104 
L 773.90719 287.281104 
L 773.90719 209.544308 
L 766.189299 209.544308 
z
" style="opacity:0.2;"/>
   </g>
   <g id="patch_76">
    <path clip-path="url(#p9050bcca11)" d="M 775.836663 287.281104 
L 783.554555 287.281104 
L 783.554555 218.689814 
L 775.836663 218.689814 
z
" style="opacity:0.2;"/>
   </g>
   <g id="patch_77">
    <path clip-path="url(#p9050bcca11)" d="M 785.484028 287.281104 
L 793.201919 287.281104 
L 793.201919 268.990094 
L 785.484028 268.990094 
z
" style="opacity:0.2;"/>
   </g>
   <g id="patch_78">
    <path clip-path="url(#p9050bcca11)" d="M 795.131392 287.281104 
L 802.849284 287.281104 
L 802.849284 282.708352 
L 795.131392 282.708352 
z
" style="opacity:0.2;"/>
   </g>
   <g id="patch_79">
    <path clip-path="url(#p9050bcca11)" d="M 804.778757 287.281104 
L 812.496648 287.281104 
L 812.496648 278.135599 
L 804.778757 278.135599 
z
" style="opacity:0.2;"/>
   </g>
   <g id="patch_80">
    <path clip-path="url(#p9050bcca11)" d="M 814.426121 287.281104 
L 822.144013 287.281104 
L 822.144013 255.271835 
L 814.426121 255.271835 
z
" style="opacity:0.2;"/>
   </g>
   <g id="patch_81">
    <path clip-path="url(#p9050bcca11)" d="M 824.073485 287.281104 
L 831.791377 287.281104 
L 831.791377 264.417341 
L 824.073485 264.417341 
z
" style="opacity:0.2;"/>
   </g>
   <g id="patch_82">
    <path clip-path="url(#p9050bcca11)" d="M 833.72085 287.281104 
L 841.438741 287.281104 
L 841.438741 264.417341 
L 833.72085 264.417341 
z
" style="opacity:0.2;"/>
   </g>
   <g id="patch_83">
    <path clip-path="url(#p9050bcca11)" d="M 843.368214 287.281104 
L 851.086106 287.281104 
L 851.086106 264.417341 
L 843.368214 264.417341 
z
" style="opacity:0.2;"/>
   </g>
   <g id="patch_84">
    <path clip-path="url(#p9050bcca11)" d="M 853.015579 287.281104 
L 860.73347 287.281104 
L 860.73347 265.941592 
L 853.015579 265.941592 
z
" style="opacity:0.2;"/>
   </g>
   <g id="patch_85">
    <path clip-path="url(#p9050bcca11)" d="M 862.662943 287.281104 
L 870.380835 287.281104 
L 870.380835 258.320337 
L 862.662943 258.320337 
z
" style="opacity:0.2;"/>
   </g>
   <g id="patch_86">
    <path clip-path="url(#p9050bcca11)" d="M 872.310308 287.281104 
L 880.028199 287.281104 
L 880.028199 270.514344 
L 872.310308 270.514344 
z
" style="opacity:0.2;"/>
   </g>
   <g id="patch_87">
    <path clip-path="url(#p9050bcca11)" d="M 881.957672 287.281104 
L 889.675563 287.281104 
L 889.675563 250.699083 
L 881.957672 250.699083 
z
" style="opacity:0.2;"/>
   </g>
   <g id="patch_88">
    <path clip-path="url(#p9050bcca11)" d="M 891.605036 287.281104 
L 899.322928 287.281104 
L 899.322928 259.844588 
L 891.605036 259.844588 
z
" style="opacity:0.2;"/>
   </g>
   <g id="patch_89">
    <path clip-path="url(#p9050bcca11)" d="M 901.252401 287.281104 
L 908.970292 287.281104 
L 908.970292 256.796086 
L 901.252401 256.796086 
z
" style="opacity:0.2;"/>
   </g>
   <g id="patch_90">
    <path clip-path="url(#p9050bcca11)" d="M 910.899765 287.281104 
L 918.617657 287.281104 
L 918.617657 241.553577 
L 910.899765 241.553577 
z
" style="opacity:0.2;"/>
   </g>
   <g id="patch_91">
    <path clip-path="url(#p9050bcca11)" d="M 920.54713 287.281104 
L 928.265021 287.281104 
L 928.265021 259.844588 
L 920.54713 259.844588 
z
" style="opacity:0.2;"/>
   </g>
   <g id="patch_92">
    <path clip-path="url(#p9050bcca11)" d="M 930.194494 287.281104 
L 937.912386 287.281104 
L 937.912386 241.553577 
L 930.194494 241.553577 
z
" style="opacity:0.2;"/>
   </g>
   <g id="patch_93">
    <path clip-path="url(#p9050bcca11)" d="M 939.841858 287.281104 
L 947.55975 287.281104 
L 947.55975 241.553577 
L 939.841858 241.553577 
z
" style="opacity:0.2;"/>
   </g>
   <g id="patch_94">
    <path clip-path="url(#p9050bcca11)" d="M 949.489223 287.281104 
L 957.207114 287.281104 
L 957.207114 145.52577 
L 949.489223 145.52577 
z
" style="opacity:0.2;"/>
   </g>
   <g id="patch_95">
    <path clip-path="url(#p9050bcca11)" d="M 959.136587 287.281104 
L 966.854479 287.281104 
L 966.854479 160.768279 
L 959.136587 160.768279 
z
" style="opacity:0.2;"/>
   </g>
   <g id="patch_96">
    <path clip-path="url(#p9050bcca11)" d="M 968.783952 287.281104 
L 976.501843 287.281104 
L 976.501843 73.885977 
L 968.783952 73.885977 
z
" style="opacity:0.2;"/>
   </g>
   <g id="patch_97">
    <path clip-path="url(#p9050bcca11)" d="M 978.431316 287.281104 
L 986.149208 287.281104 
L 986.149208 136.380265 
L 978.431316 136.380265 
z
" style="opacity:0.2;"/>
   </g>
   <g id="patch_98">
    <path clip-path="url(#p9050bcca11)" d="M 988.078681 287.281104 
L 995.796572 287.281104 
L 995.796572 37.303955 
L 988.078681 37.303955 
z
" style="opacity:0.2;"/>
   </g>
   <g id="patch_99">
    <path clip-path="url(#p9050bcca11)" d="M 997.726045 287.281104 
L 1005.443937 287.281104 
L 1005.443937 38.828206 
L 997.726045 38.828206 
z
" style="opacity:0.2;"/>
   </g>
   <g id="patch_100">
    <path clip-path="url(#p9050bcca11)" d="M 1007.373409 287.281104 
L 1015.091301 287.281104 
L 1015.091301 20.537195 
L 1007.373409 20.537195 
z
" style="opacity:0.2;"/>
   </g>
   <g id="patch_101">
    <path clip-path="url(#p9050bcca11)" d="M 1017.020774 287.281104 
L 1024.738665 287.281104 
L 1024.738665 153.147025 
L 1017.020774 153.147025 
z
" style="opacity:0.2;"/>
   </g>
   <g id="patch_102">
    <path clip-path="url(#p9050bcca11)" d="M 1026.668138 287.281104 
L 1034.38603 287.281104 
L 1034.38603 101.322494 
L 1026.668138 101.322494 
z
" style="opacity:0.2;"/>
   </g>
   <g id="patch_103">
    <path clip-path="url(#p9050bcca11)" d="M 1036.315503 287.281104 
L 1044.033394 287.281104 
L 1044.033394 72.361726 
L 1036.315503 72.361726 
z
" style="opacity:0.2;"/>
   </g>
   <g id="patch_104">
    <path clip-path="url(#p9050bcca11)" d="M 1045.962867 287.281104 
L 1053.680759 287.281104 
L 1053.680759 153.147025 
L 1045.962867 153.147025 
z
" style="opacity:0.2;"/>
   </g>
   <g id="patch_105">
    <path clip-path="url(#p9050bcca11)" d="M 1055.610231 287.281104 
L 1063.328123 287.281104 
L 1063.328123 83.031483 
L 1055.610231 83.031483 
z
" style="opacity:0.2;"/>
   </g>
   <g id="matplotlib.axis_3">
    <g id="xtick_7">
     <g id="line2d_16">
      <g>
       <use style="stroke:#000000;stroke-width:0.8;" x="594.255552" xlink:href="#m0504ecdf4e" y="289.281104"/>
      </g>
     </g>
     <g id="text_18">
      <!-- −1.25 -->
      <defs>
       <path d="M 10.59375 35.5 
L 73.1875 35.5 
L 73.1875 27.203125 
L 10.59375 27.203125 
z
" id="DejaVuSans-8722"/>
       <path d="M 10.6875 12.40625 
L 21 12.40625 
L 21 0 
L 10.6875 0 
z
" id="DejaVuSans-46"/>
      </defs>
      <g transform="translate(578.932896 303.879542)scale(0.1 -0.1)">
       <use xlink:href="#DejaVuSans-8722"/>
       <use x="83.789062" xlink:href="#DejaVuSans-49"/>
       <use x="147.412109" xlink:href="#DejaVuSans-46"/>
       <use x="179.199219" xlink:href="#DejaVuSans-50"/>
       <use x="242.822266" xlink:href="#DejaVuSans-53"/>
      </g>
     </g>
    </g>
    <g id="xtick_8">
     <g id="line2d_17">
      <g>
       <use style="stroke:#000000;stroke-width:0.8;" x="654.665675" xlink:href="#m0504ecdf4e" y="289.281104"/>
      </g>
     </g>
     <g id="text_19">
      <!-- −1.00 -->
      <g transform="translate(639.343019 303.879542)scale(0.1 -0.1)">
       <use xlink:href="#DejaVuSans-8722"/>
       <use x="83.789062" xlink:href="#DejaVuSans-49"/>
       <use x="147.412109" xlink:href="#DejaVuSans-46"/>
       <use x="179.199219" xlink:href="#DejaVuSans-48"/>
       <use x="242.822266" xlink:href="#DejaVuSans-48"/>
      </g>
     </g>
    </g>
    <g id="xtick_9">
     <g id="line2d_18">
      <g>
       <use style="stroke:#000000;stroke-width:0.8;" x="715.075798" xlink:href="#m0504ecdf4e" y="289.281104"/>
      </g>
     </g>
     <g id="text_20">
      <!-- −0.75 -->
      <defs>
       <path d="M 8.203125 72.90625 
L 55.078125 72.90625 
L 55.078125 68.703125 
L 28.609375 0 
L 18.3125 0 
L 43.21875 64.59375 
L 8.203125 64.59375 
z
" id="DejaVuSans-55"/>
      </defs>
      <g transform="translate(699.753142 303.879542)scale(0.1 -0.1)">
       <use xlink:href="#DejaVuSans-8722"/>
       <use x="83.789062" xlink:href="#DejaVuSans-48"/>
       <use x="147.412109" xlink:href="#DejaVuSans-46"/>
       <use x="179.199219" xlink:href="#DejaVuSans-55"/>
       <use x="242.822266" xlink:href="#DejaVuSans-53"/>
      </g>
     </g>
    </g>
    <g id="xtick_10">
     <g id="line2d_19">
      <g>
       <use style="stroke:#000000;stroke-width:0.8;" x="775.485922" xlink:href="#m0504ecdf4e" y="289.281104"/>
      </g>
     </g>
     <g id="text_21">
      <!-- −0.50 -->
      <g transform="translate(760.163265 303.879542)scale(0.1 -0.1)">
       <use xlink:href="#DejaVuSans-8722"/>
       <use x="83.789062" xlink:href="#DejaVuSans-48"/>
       <use x="147.412109" xlink:href="#DejaVuSans-46"/>
       <use x="179.199219" xlink:href="#DejaVuSans-53"/>
       <use x="242.822266" xlink:href="#DejaVuSans-48"/>
      </g>
     </g>
    </g>
    <g id="xtick_11">
     <g id="line2d_20">
      <g>
       <use style="stroke:#000000;stroke-width:0.8;" x="835.896045" xlink:href="#m0504ecdf4e" y="289.281104"/>
      </g>
     </g>
     <g id="text_22">
      <!-- −0.25 -->
      <g transform="translate(820.573389 303.879542)scale(0.1 -0.1)">
       <use xlink:href="#DejaVuSans-8722"/>
       <use x="83.789062" xlink:href="#DejaVuSans-48"/>
       <use x="147.412109" xlink:href="#DejaVuSans-46"/>
       <use x="179.199219" xlink:href="#DejaVuSans-50"/>
       <use x="242.822266" xlink:href="#DejaVuSans-53"/>
      </g>
     </g>
    </g>
    <g id="xtick_12">
     <g id="line2d_21">
      <g>
       <use style="stroke:#000000;stroke-width:0.8;" x="896.306168" xlink:href="#m0504ecdf4e" y="289.281104"/>
      </g>
     </g>
     <g id="text_23">
      <!-- 0.00 -->
      <g transform="translate(885.173356 303.879542)scale(0.1 -0.1)">
       <use xlink:href="#DejaVuSans-48"/>
       <use x="63.623047" xlink:href="#DejaVuSans-46"/>
       <use x="95.410156" xlink:href="#DejaVuSans-48"/>
       <use x="159.033203" xlink:href="#DejaVuSans-48"/>
      </g>
     </g>
    </g>
    <g id="xtick_13">
     <g id="line2d_22">
      <g>
       <use style="stroke:#000000;stroke-width:0.8;" x="956.716292" xlink:href="#m0504ecdf4e" y="289.281104"/>
      </g>
     </g>
     <g id="text_24">
      <!-- 0.25 -->
      <g transform="translate(945.583479 303.879542)scale(0.1 -0.1)">
       <use xlink:href="#DejaVuSans-48"/>
       <use x="63.623047" xlink:href="#DejaVuSans-46"/>
       <use x="95.410156" xlink:href="#DejaVuSans-50"/>
       <use x="159.033203" xlink:href="#DejaVuSans-53"/>
      </g>
     </g>
    </g>
    <g id="xtick_14">
     <g id="line2d_23">
      <g>
       <use style="stroke:#000000;stroke-width:0.8;" x="1017.126415" xlink:href="#m0504ecdf4e" y="289.281104"/>
      </g>
     </g>
     <g id="text_25">
      <!-- 0.50 -->
      <g transform="translate(1005.993603 303.879542)scale(0.1 -0.1)">
       <use xlink:href="#DejaVuSans-48"/>
       <use x="63.623047" xlink:href="#DejaVuSans-46"/>
       <use x="95.410156" xlink:href="#DejaVuSans-53"/>
       <use x="159.033203" xlink:href="#DejaVuSans-48"/>
      </g>
     </g>
    </g>
    <g id="text_26">
     <!-- $\mathrm{log10}(K_{\mathrm{S}})$ -->
     <defs>
      <path d="M 45.40625 27.984375 
Q 45.40625 37.75 41.375 43.109375 
Q 37.359375 48.484375 30.078125 48.484375 
Q 22.859375 48.484375 18.828125 43.109375 
Q 14.796875 37.75 14.796875 27.984375 
Q 14.796875 18.265625 18.828125 12.890625 
Q 22.859375 7.515625 30.078125 7.515625 
Q 37.359375 7.515625 41.375 12.890625 
Q 45.40625 18.265625 45.40625 27.984375 
z
M 54.390625 6.78125 
Q 54.390625 -7.171875 48.1875 -13.984375 
Q 42 -20.796875 29.203125 -20.796875 
Q 24.46875 -20.796875 20.265625 -20.09375 
Q 16.0625 -19.390625 12.109375 -17.921875 
L 12.109375 -9.1875 
Q 16.0625 -11.328125 19.921875 -12.34375 
Q 23.78125 -13.375 27.78125 -13.375 
Q 36.625 -13.375 41.015625 -8.765625 
Q 45.40625 -4.15625 45.40625 5.171875 
L 45.40625 9.625 
Q 42.625 4.78125 38.28125 2.390625 
Q 33.9375 0 27.875 0 
Q 17.828125 0 11.671875 7.65625 
Q 5.515625 15.328125 5.515625 27.984375 
Q 5.515625 40.671875 11.671875 48.328125 
Q 17.828125 56 27.875 56 
Q 33.9375 56 38.28125 53.609375 
Q 42.625 51.21875 45.40625 46.390625 
L 45.40625 54.6875 
L 54.390625 54.6875 
z
" id="DejaVuSans-103"/>
      <path d="M 31 75.875 
Q 24.46875 64.65625 21.28125 53.65625 
Q 18.109375 42.671875 18.109375 31.390625 
Q 18.109375 20.125 21.3125 9.0625 
Q 24.515625 -2 31 -13.1875 
L 23.1875 -13.1875 
Q 15.875 -1.703125 12.234375 9.375 
Q 8.59375 20.453125 8.59375 31.390625 
Q 8.59375 42.28125 12.203125 53.3125 
Q 15.828125 64.359375 23.1875 75.875 
z
" id="DejaVuSans-40"/>
      <path d="M 8.015625 75.875 
L 15.828125 75.875 
Q 23.140625 64.359375 26.78125 53.3125 
Q 30.421875 42.28125 30.421875 31.390625 
Q 30.421875 20.453125 26.78125 9.375 
Q 23.140625 -1.703125 15.828125 -13.1875 
L 8.015625 -13.1875 
Q 14.5 -2 17.703125 9.0625 
Q 20.90625 20.125 20.90625 31.390625 
Q 20.90625 42.671875 17.703125 53.65625 
Q 14.5 64.65625 8.015625 75.875 
z
" id="DejaVuSans-41"/>
     </defs>
     <g transform="translate(800.025625 317.559229)scale(0.1 -0.1)">
      <use transform="translate(0 0.015625)" xlink:href="#DejaVuSans-108"/>
      <use transform="translate(27.783203 0.015625)" xlink:href="#DejaVuSans-111"/>
      <use transform="translate(88.964844 0.015625)" xlink:href="#DejaVuSans-103"/>
      <use transform="translate(152.441406 0.015625)" xlink:href="#DejaVuSans-49"/>
      <use transform="translate(216.064453 0.015625)" xlink:href="#DejaVuSans-48"/>
      <use transform="translate(279.6875 0.015625)" xlink:href="#DejaVuSans-40"/>
      <use transform="translate(318.701172 0.015625)" xlink:href="#DejaVuSans-Oblique-75"/>
      <use transform="translate(384.277344 -16.390625)scale(0.7)" xlink:href="#DejaVuSans-83"/>
      <use transform="translate(431.445312 0.015625)" xlink:href="#DejaVuSans-41"/>
     </g>
    </g>
   </g>
   <g id="matplotlib.axis_4">
    <g id="ytick_10">
     <g id="line2d_24">
      <g>
       <use style="stroke:#000000;stroke-width:0.8;" x="579.945625" xlink:href="#mdca06c7c31" y="287.281104"/>
      </g>
     </g>
     <g id="text_27">
      <!-- 0 -->
      <g transform="translate(566.583125 291.080323)scale(0.1 -0.1)">
       <use xlink:href="#DejaVuSans-48"/>
      </g>
     </g>
    </g>
    <g id="ytick_11">
     <g id="line2d_25">
      <g>
       <use style="stroke:#000000;stroke-width:0.8;" x="579.945625" xlink:href="#mdca06c7c31" y="241.553577"/>
      </g>
     </g>
     <g id="text_28">
      <!-- 5 -->
      <g transform="translate(566.583125 245.352796)scale(0.1 -0.1)">
       <use xlink:href="#DejaVuSans-53"/>
      </g>
     </g>
    </g>
    <g id="ytick_12">
     <g id="line2d_26">
      <g>
       <use style="stroke:#000000;stroke-width:0.8;" x="579.945625" xlink:href="#mdca06c7c31" y="195.82605"/>
      </g>
     </g>
     <g id="text_29">
      <!-- 10 -->
      <g transform="translate(560.220625 199.625269)scale(0.1 -0.1)">
       <use xlink:href="#DejaVuSans-49"/>
       <use x="63.623047" xlink:href="#DejaVuSans-48"/>
      </g>
     </g>
    </g>
    <g id="ytick_13">
     <g id="line2d_27">
      <g>
       <use style="stroke:#000000;stroke-width:0.8;" x="579.945625" xlink:href="#mdca06c7c31" y="150.098523"/>
      </g>
     </g>
     <g id="text_30">
      <!-- 15 -->
      <g transform="translate(560.220625 153.897741)scale(0.1 -0.1)">
       <use xlink:href="#DejaVuSans-49"/>
       <use x="63.623047" xlink:href="#DejaVuSans-53"/>
      </g>
     </g>
    </g>
    <g id="ytick_14">
     <g id="line2d_28">
      <g>
       <use style="stroke:#000000;stroke-width:0.8;" x="579.945625" xlink:href="#mdca06c7c31" y="104.370995"/>
      </g>
     </g>
     <g id="text_31">
      <!-- 20 -->
      <g transform="translate(560.220625 108.170214)scale(0.1 -0.1)">
       <use xlink:href="#DejaVuSans-50"/>
       <use x="63.623047" xlink:href="#DejaVuSans-48"/>
      </g>
     </g>
    </g>
    <g id="ytick_15">
     <g id="line2d_29">
      <g>
       <use style="stroke:#000000;stroke-width:0.8;" x="579.945625" xlink:href="#mdca06c7c31" y="58.643468"/>
      </g>
     </g>
     <g id="text_32">
      <!-- 25 -->
      <g transform="translate(560.220625 62.442687)scale(0.1 -0.1)">
       <use xlink:href="#DejaVuSans-50"/>
       <use x="63.623047" xlink:href="#DejaVuSans-53"/>
      </g>
     </g>
    </g>
    <g id="ytick_16">
     <g id="line2d_30">
      <g>
       <use style="stroke:#000000;stroke-width:0.8;" x="579.945625" xlink:href="#mdca06c7c31" y="12.915941"/>
      </g>
     </g>
     <g id="text_33">
      <!-- 30 -->
      <g transform="translate(560.220625 16.71516)scale(0.1 -0.1)">
       <use xlink:href="#DejaVuSans-51"/>
       <use x="63.623047" xlink:href="#DejaVuSans-48"/>
      </g>
     </g>
    </g>
    <g id="text_34">
     <!-- Duplications -->
     <g transform="translate(554.140938 178.206958)rotate(-90)scale(0.1 -0.1)">
      <use xlink:href="#DejaVuSans-68"/>
      <use x="77.001953" xlink:href="#DejaVuSans-117"/>
      <use x="140.380859" xlink:href="#DejaVuSans-112"/>
      <use x="203.857422" xlink:href="#DejaVuSans-108"/>
      <use x="231.640625" xlink:href="#DejaVuSans-105"/>
      <use x="259.423828" xlink:href="#DejaVuSans-99"/>
      <use x="314.404297" xlink:href="#DejaVuSans-97"/>
      <use x="375.683594" xlink:href="#DejaVuSans-116"/>
      <use x="414.892578" xlink:href="#DejaVuSans-105"/>
      <use x="442.675781" xlink:href="#DejaVuSans-111"/>
      <use x="503.857422" xlink:href="#DejaVuSans-110"/>
      <use x="567.236328" xlink:href="#DejaVuSans-115"/>
     </g>
    </g>
   </g>
   <g id="patch_106">
    <path d="M 579.945625 287.281104 
L 579.945625 7.2 
" style="fill:none;stroke:#000000;stroke-linecap:square;stroke-linejoin:miter;stroke-width:0.8;"/>
   </g>
   <g id="patch_107">
    <path d="M 581.945625 289.281104 
L 1065.205625 289.281104 
" style="fill:none;stroke:#000000;stroke-linecap:square;stroke-linejoin:miter;stroke-width:0.8;"/>
   </g>
  </g>
  <g id="axes_3">
   <g id="patch_108">
    <path d="M 48.965625 617 
L 532.225625 617 
L 532.225625 336.918896 
L 48.965625 336.918896 
z
" style="fill:#ffffff;"/>
   </g>
   <g id="patch_109">
    <path clip-path="url(#pcb0fc35711)" d="M 70.931989 617 
L 77.989455 617 
L 77.989455 610.345266 
L 70.931989 610.345266 
z
" style="opacity:0.2;"/>
   </g>
   <g id="patch_110">
    <path clip-path="url(#pcb0fc35711)" d="M 79.753821 617 
L 86.811288 617 
L 86.811288 617 
L 79.753821 617 
z
" style="opacity:0.2;"/>
   </g>
   <g id="patch_111">
    <path clip-path="url(#pcb0fc35711)" d="M 88.575654 617 
L 95.63312 617 
L 95.63312 617 
L 88.575654 617 
z
" style="opacity:0.2;"/>
   </g>
   <g id="patch_112">
    <path clip-path="url(#pcb0fc35711)" d="M 97.397487 617 
L 104.454953 617 
L 104.454953 613.672633 
L 97.397487 613.672633 
z
" style="opacity:0.2;"/>
   </g>
   <g id="patch_113">
    <path clip-path="url(#pcb0fc35711)" d="M 106.21932 617 
L 113.276786 617 
L 113.276786 617 
L 106.21932 617 
z
" style="opacity:0.2;"/>
   </g>
   <g id="patch_114">
    <path clip-path="url(#pcb0fc35711)" d="M 115.041153 617 
L 122.098619 617 
L 122.098619 610.345266 
L 115.041153 610.345266 
z
" style="opacity:0.2;"/>
   </g>
   <g id="patch_115">
    <path clip-path="url(#pcb0fc35711)" d="M 123.862985 617 
L 130.920452 617 
L 130.920452 610.345266 
L 123.862985 610.345266 
z
" style="opacity:0.2;"/>
   </g>
   <g id="patch_116">
    <path clip-path="url(#pcb0fc35711)" d="M 132.684818 617 
L 139.742284 617 
L 139.742284 617 
L 132.684818 617 
z
" style="opacity:0.2;"/>
   </g>
   <g id="patch_117">
    <path clip-path="url(#pcb0fc35711)" d="M 141.506651 617 
L 148.564117 617 
L 148.564117 603.690533 
L 141.506651 603.690533 
z
" style="opacity:0.2;"/>
   </g>
   <g id="patch_118">
    <path clip-path="url(#pcb0fc35711)" d="M 150.328484 617 
L 157.38595 617 
L 157.38595 617 
L 150.328484 617 
z
" style="opacity:0.2;"/>
   </g>
   <g id="patch_119">
    <path clip-path="url(#pcb0fc35711)" d="M 159.150316 617 
L 166.207783 617 
L 166.207783 597.035799 
L 159.150316 597.035799 
z
" style="opacity:0.2;"/>
   </g>
   <g id="patch_120">
    <path clip-path="url(#pcb0fc35711)" d="M 167.972149 617 
L 175.029616 617 
L 175.029616 613.672633 
L 167.972149 613.672633 
z
" style="opacity:0.2;"/>
   </g>
   <g id="patch_121">
    <path clip-path="url(#pcb0fc35711)" d="M 176.793982 617 
L 183.851448 617 
L 183.851448 617 
L 176.793982 617 
z
" style="opacity:0.2;"/>
   </g>
   <g id="patch_122">
    <path clip-path="url(#pcb0fc35711)" d="M 185.615815 617 
L 192.673281 617 
L 192.673281 567.089497 
L 185.615815 567.089497 
z
" style="opacity:0.2;"/>
   </g>
   <g id="patch_123">
    <path clip-path="url(#pcb0fc35711)" d="M 194.437648 617 
L 201.495114 617 
L 201.495114 487.232693 
L 194.437648 487.232693 
z
" style="opacity:0.2;"/>
   </g>
   <g id="patch_124">
    <path clip-path="url(#pcb0fc35711)" d="M 203.25948 617 
L 210.316947 617 
L 210.316947 520.506361 
L 203.25948 520.506361 
z
" style="opacity:0.2;"/>
   </g>
   <g id="patch_125">
    <path clip-path="url(#pcb0fc35711)" d="M 212.081313 617 
L 219.138779 617 
L 219.138779 497.214793 
L 212.081313 497.214793 
z
" style="opacity:0.2;"/>
   </g>
   <g id="patch_126">
    <path clip-path="url(#pcb0fc35711)" d="M 220.903146 617 
L 227.960612 617 
L 227.960612 392.957299 
L 220.903146 392.957299 
z
" style="opacity:0.2;"/>
   </g>
   <g id="patch_127">
    <path clip-path="url(#pcb0fc35711)" d="M 229.724979 617 
L 236.782445 617 
L 236.782445 415.694306 
L 229.724979 415.694306 
z
" style="opacity:0.2;"/>
   </g>
   <g id="patch_128">
    <path clip-path="url(#pcb0fc35711)" d="M 238.546812 617 
L 245.604278 617 
L 245.604278 350.256091 
L 238.546812 350.256091 
z
" style="opacity:0.2;"/>
   </g>
   <g id="patch_129">
    <path clip-path="url(#pcb0fc35711)" d="M 247.368644 617 
L 254.426111 617 
L 254.426111 401.830277 
L 247.368644 401.830277 
z
" style="opacity:0.2;"/>
   </g>
   <g id="patch_130">
    <path clip-path="url(#pcb0fc35711)" d="M 256.190477 617 
L 263.247943 617 
L 263.247943 376.320465 
L 256.190477 376.320465 
z
" style="opacity:0.2;"/>
   </g>
   <g id="patch_131">
    <path clip-path="url(#pcb0fc35711)" d="M 265.01231 617 
L 272.069776 617 
L 272.069776 420.685356 
L 265.01231 420.685356 
z
" style="opacity:0.2;"/>
   </g>
   <g id="patch_132">
    <path clip-path="url(#pcb0fc35711)" d="M 273.834143 617 
L 280.891609 617 
L 280.891609 392.957299 
L 273.834143 392.957299 
z
" style="opacity:0.2;"/>
   </g>
   <g id="patch_133">
    <path clip-path="url(#pcb0fc35711)" d="M 282.655975 617 
L 289.713442 617 
L 289.713442 370.774853 
L 282.655975 370.774853 
z
" style="opacity:0.2;"/>
   </g>
   <g id="patch_134">
    <path clip-path="url(#pcb0fc35711)" d="M 291.477808 617 
L 298.535275 617 
L 298.535275 410.703255 
L 291.477808 410.703255 
z
" style="opacity:0.2;"/>
   </g>
   <g id="patch_135">
    <path clip-path="url(#pcb0fc35711)" d="M 300.299641 617 
L 307.357107 617 
L 307.357107 400.721155 
L 300.299641 400.721155 
z
" style="opacity:0.2;"/>
   </g>
   <g id="patch_136">
    <path clip-path="url(#pcb0fc35711)" d="M 309.121474 617 
L 316.17894 617 
L 316.17894 432.885701 
L 309.121474 432.885701 
z
" style="opacity:0.2;"/>
   </g>
   <g id="patch_137">
    <path clip-path="url(#pcb0fc35711)" d="M 317.943307 617 
L 325.000773 617 
L 325.000773 436.213068 
L 317.943307 436.213068 
z
" style="opacity:0.2;"/>
   </g>
   <g id="patch_138">
    <path clip-path="url(#pcb0fc35711)" d="M 326.765139 617 
L 333.822606 617 
L 333.822606 470.595859 
L 326.765139 470.595859 
z
" style="opacity:0.2;"/>
   </g>
   <g id="patch_139">
    <path clip-path="url(#pcb0fc35711)" d="M 335.586972 617 
L 342.644438 617 
L 342.644438 483.905326 
L 335.586972 483.905326 
z
" style="opacity:0.2;"/>
   </g>
   <g id="patch_140">
    <path clip-path="url(#pcb0fc35711)" d="M 344.408805 617 
L 351.466271 617 
L 351.466271 511.633383 
L 344.408805 511.633383 
z
" style="opacity:0.2;"/>
   </g>
   <g id="patch_141">
    <path clip-path="url(#pcb0fc35711)" d="M 353.230638 617 
L 360.288104 617 
L 360.288104 562.653008 
L 353.230638 562.653008 
z
" style="opacity:0.2;"/>
   </g>
   <g id="patch_142">
    <path clip-path="url(#pcb0fc35711)" d="M 362.052471 617 
L 369.109937 617 
L 369.109937 607.017899 
L 362.052471 607.017899 
z
" style="opacity:0.2;"/>
   </g>
   <g id="patch_143">
    <path clip-path="url(#pcb0fc35711)" d="M 370.874303 617 
L 377.93177 617 
L 377.93177 603.690533 
L 370.874303 603.690533 
z
" style="opacity:0.2;"/>
   </g>
   <g id="patch_144">
    <path clip-path="url(#pcb0fc35711)" d="M 379.696136 617 
L 386.753602 617 
L 386.753602 617 
L 379.696136 617 
z
" style="opacity:0.2;"/>
   </g>
   <g id="patch_145">
    <path clip-path="url(#pcb0fc35711)" d="M 388.517969 617 
L 395.575435 617 
L 395.575435 617 
L 388.517969 617 
z
" style="opacity:0.2;"/>
   </g>
   <g id="patch_146">
    <path clip-path="url(#pcb0fc35711)" d="M 397.339802 617 
L 404.397268 617 
L 404.397268 617 
L 397.339802 617 
z
" style="opacity:0.2;"/>
   </g>
   <g id="patch_147">
    <path clip-path="url(#pcb0fc35711)" d="M 406.161634 617 
L 413.219101 617 
L 413.219101 617 
L 406.161634 617 
z
" style="opacity:0.2;"/>
   </g>
   <g id="patch_148">
    <path clip-path="url(#pcb0fc35711)" d="M 414.983467 617 
L 422.040934 617 
L 422.040934 610.345266 
L 414.983467 610.345266 
z
" style="opacity:0.2;"/>
   </g>
   <g id="patch_149">
    <path clip-path="url(#pcb0fc35711)" d="M 423.8053 617 
L 430.862766 617 
L 430.862766 617 
L 423.8053 617 
z
" style="opacity:0.2;"/>
   </g>
   <g id="patch_150">
    <path clip-path="url(#pcb0fc35711)" d="M 432.627133 617 
L 439.684599 617 
L 439.684599 617 
L 432.627133 617 
z
" style="opacity:0.2;"/>
   </g>
   <g id="patch_151">
    <path clip-path="url(#pcb0fc35711)" d="M 441.448966 617 
L 448.506432 617 
L 448.506432 617 
L 441.448966 617 
z
" style="opacity:0.2;"/>
   </g>
   <g id="patch_152">
    <path clip-path="url(#pcb0fc35711)" d="M 450.270798 617 
L 457.328265 617 
L 457.328265 617 
L 450.270798 617 
z
" style="opacity:0.2;"/>
   </g>
   <g id="patch_153">
    <path clip-path="url(#pcb0fc35711)" d="M 459.092631 617 
L 466.150097 617 
L 466.150097 617 
L 459.092631 617 
z
" style="opacity:0.2;"/>
   </g>
   <g id="patch_154">
    <path clip-path="url(#pcb0fc35711)" d="M 467.914464 617 
L 474.97193 617 
L 474.97193 617 
L 467.914464 617 
z
" style="opacity:0.2;"/>
   </g>
   <g id="patch_155">
    <path clip-path="url(#pcb0fc35711)" d="M 476.736297 617 
L 483.793763 617 
L 483.793763 617 
L 476.736297 617 
z
" style="opacity:0.2;"/>
   </g>
   <g id="patch_156">
    <path clip-path="url(#pcb0fc35711)" d="M 485.55813 617 
L 492.615596 617 
L 492.615596 610.345266 
L 485.55813 610.345266 
z
" style="opacity:0.2;"/>
   </g>
   <g id="patch_157">
    <path clip-path="url(#pcb0fc35711)" d="M 494.379962 617 
L 501.437429 617 
L 501.437429 617 
L 494.379962 617 
z
" style="opacity:0.2;"/>
   </g>
   <g id="patch_158">
    <path clip-path="url(#pcb0fc35711)" d="M 503.201795 617 
L 510.259261 617 
L 510.259261 610.345266 
L 503.201795 610.345266 
z
" style="opacity:0.2;"/>
   </g>
   <g id="matplotlib.axis_5">
    <g id="xtick_15">
     <g id="line2d_31">
      <g>
       <use style="stroke:#000000;stroke-width:0.8;" x="51.510941" xlink:href="#m0504ecdf4e" y="619"/>
      </g>
     </g>
     <g id="text_35">
      <!-- −3 -->
      <g transform="translate(44.139847 633.598437)scale(0.1 -0.1)">
       <use xlink:href="#DejaVuSans-8722"/>
       <use x="83.789062" xlink:href="#DejaVuSans-51"/>
      </g>
     </g>
    </g>
    <g id="xtick_16">
     <g id="line2d_32">
      <g>
       <use style="stroke:#000000;stroke-width:0.8;" x="156.790809" xlink:href="#m0504ecdf4e" y="619"/>
      </g>
     </g>
     <g id="text_36">
      <!-- −2 -->
      <g transform="translate(149.419715 633.598437)scale(0.1 -0.1)">
       <use xlink:href="#DejaVuSans-8722"/>
       <use x="83.789062" xlink:href="#DejaVuSans-50"/>
      </g>
     </g>
    </g>
    <g id="xtick_17">
     <g id="line2d_33">
      <g>
       <use style="stroke:#000000;stroke-width:0.8;" x="262.070676" xlink:href="#m0504ecdf4e" y="619"/>
      </g>
     </g>
     <g id="text_37">
      <!-- −1 -->
      <g transform="translate(254.699582 633.598437)scale(0.1 -0.1)">
       <use xlink:href="#DejaVuSans-8722"/>
       <use x="83.789062" xlink:href="#DejaVuSans-49"/>
      </g>
     </g>
    </g>
    <g id="xtick_18">
     <g id="line2d_34">
      <g>
       <use style="stroke:#000000;stroke-width:0.8;" x="367.350544" xlink:href="#m0504ecdf4e" y="619"/>
      </g>
     </g>
     <g id="text_38">
      <!-- 0 -->
      <g transform="translate(364.169294 633.598437)scale(0.1 -0.1)">
       <use xlink:href="#DejaVuSans-48"/>
      </g>
     </g>
    </g>
    <g id="xtick_19">
     <g id="line2d_35">
      <g>
       <use style="stroke:#000000;stroke-width:0.8;" x="472.630411" xlink:href="#m0504ecdf4e" y="619"/>
      </g>
     </g>
     <g id="text_39">
      <!-- 1 -->
      <g transform="translate(469.449161 633.598437)scale(0.1 -0.1)">
       <use xlink:href="#DejaVuSans-49"/>
      </g>
     </g>
    </g>
    <g id="text_40">
     <!-- $\mathrm{log10}(K_{\mathrm{A}})$ -->
     <defs>
      <path d="M 34.1875 63.1875 
L 20.796875 26.90625 
L 47.609375 26.90625 
z
M 28.609375 72.90625 
L 39.796875 72.90625 
L 67.578125 0 
L 57.328125 0 
L 50.6875 18.703125 
L 17.828125 18.703125 
L 11.1875 0 
L 0.78125 0 
z
" id="DejaVuSans-65"/>
     </defs>
     <g transform="translate(266.895625 647.278125)scale(0.1 -0.1)">
      <use transform="translate(0 0.015625)" xlink:href="#DejaVuSans-108"/>
      <use transform="translate(27.783203 0.015625)" xlink:href="#DejaVuSans-111"/>
      <use transform="translate(88.964844 0.015625)" xlink:href="#DejaVuSans-103"/>
      <use transform="translate(152.441406 0.015625)" xlink:href="#DejaVuSans-49"/>
      <use transform="translate(216.064453 0.015625)" xlink:href="#DejaVuSans-48"/>
      <use transform="translate(279.6875 0.015625)" xlink:href="#DejaVuSans-40"/>
      <use transform="translate(318.701172 0.015625)" xlink:href="#DejaVuSans-Oblique-75"/>
      <use transform="translate(384.277344 -16.390625)scale(0.7)" xlink:href="#DejaVuSans-65"/>
      <use transform="translate(434.897461 0.015625)" xlink:href="#DejaVuSans-41"/>
     </g>
    </g>
   </g>
   <g id="matplotlib.axis_6">
    <g id="ytick_17">
     <g id="line2d_36">
      <g>
       <use style="stroke:#000000;stroke-width:0.8;" x="46.965625" xlink:href="#mdca06c7c31" y="617"/>
      </g>
     </g>
     <g id="text_41">
      <!-- 0 -->
      <g transform="translate(33.603125 620.799219)scale(0.1 -0.1)">
       <use xlink:href="#DejaVuSans-48"/>
      </g>
     </g>
    </g>
    <g id="ytick_18">
     <g id="line2d_37">
      <g>
       <use style="stroke:#000000;stroke-width:0.8;" x="46.965625" xlink:href="#mdca06c7c31" y="583.726332"/>
      </g>
     </g>
     <g id="text_42">
      <!-- 5 -->
      <g transform="translate(33.603125 587.52555)scale(0.1 -0.1)">
       <use xlink:href="#DejaVuSans-53"/>
      </g>
     </g>
    </g>
    <g id="ytick_19">
     <g id="line2d_38">
      <g>
       <use style="stroke:#000000;stroke-width:0.8;" x="46.965625" xlink:href="#mdca06c7c31" y="550.452663"/>
      </g>
     </g>
     <g id="text_43">
      <!-- 10 -->
      <g transform="translate(27.240625 554.251882)scale(0.1 -0.1)">
       <use xlink:href="#DejaVuSans-49"/>
       <use x="63.623047" xlink:href="#DejaVuSans-48"/>
      </g>
     </g>
    </g>
    <g id="ytick_20">
     <g id="line2d_39">
      <g>
       <use style="stroke:#000000;stroke-width:0.8;" x="46.965625" xlink:href="#mdca06c7c31" y="517.178995"/>
      </g>
     </g>
     <g id="text_44">
      <!-- 15 -->
      <g transform="translate(27.240625 520.978213)scale(0.1 -0.1)">
       <use xlink:href="#DejaVuSans-49"/>
       <use x="63.623047" xlink:href="#DejaVuSans-53"/>
      </g>
     </g>
    </g>
    <g id="ytick_21">
     <g id="line2d_40">
      <g>
       <use style="stroke:#000000;stroke-width:0.8;" x="46.965625" xlink:href="#mdca06c7c31" y="483.905326"/>
      </g>
     </g>
     <g id="text_45">
      <!-- 20 -->
      <g transform="translate(27.240625 487.704545)scale(0.1 -0.1)">
       <use xlink:href="#DejaVuSans-50"/>
       <use x="63.623047" xlink:href="#DejaVuSans-48"/>
      </g>
     </g>
    </g>
    <g id="ytick_22">
     <g id="line2d_41">
      <g>
       <use style="stroke:#000000;stroke-width:0.8;" x="46.965625" xlink:href="#mdca06c7c31" y="450.631658"/>
      </g>
     </g>
     <g id="text_46">
      <!-- 25 -->
      <g transform="translate(27.240625 454.430876)scale(0.1 -0.1)">
       <use xlink:href="#DejaVuSans-50"/>
       <use x="63.623047" xlink:href="#DejaVuSans-53"/>
      </g>
     </g>
    </g>
    <g id="ytick_23">
     <g id="line2d_42">
      <g>
       <use style="stroke:#000000;stroke-width:0.8;" x="46.965625" xlink:href="#mdca06c7c31" y="417.357989"/>
      </g>
     </g>
     <g id="text_47">
      <!-- 30 -->
      <g transform="translate(27.240625 421.157208)scale(0.1 -0.1)">
       <use xlink:href="#DejaVuSans-51"/>
       <use x="63.623047" xlink:href="#DejaVuSans-48"/>
      </g>
     </g>
    </g>
    <g id="ytick_24">
     <g id="line2d_43">
      <g>
       <use style="stroke:#000000;stroke-width:0.8;" x="46.965625" xlink:href="#mdca06c7c31" y="384.084321"/>
      </g>
     </g>
     <g id="text_48">
      <!-- 35 -->
      <g transform="translate(27.240625 387.883539)scale(0.1 -0.1)">
       <use xlink:href="#DejaVuSans-51"/>
       <use x="63.623047" xlink:href="#DejaVuSans-53"/>
      </g>
     </g>
    </g>
    <g id="ytick_25">
     <g id="line2d_44">
      <g>
       <use style="stroke:#000000;stroke-width:0.8;" x="46.965625" xlink:href="#mdca06c7c31" y="350.810652"/>
      </g>
     </g>
     <g id="text_49">
      <!-- 40 -->
      <g transform="translate(27.240625 354.609871)scale(0.1 -0.1)">
       <use xlink:href="#DejaVuSans-52"/>
       <use x="63.623047" xlink:href="#DejaVuSans-48"/>
      </g>
     </g>
    </g>
    <g id="text_50">
     <!-- Duplications -->
     <g transform="translate(21.160937 507.925854)rotate(-90)scale(0.1 -0.1)">
      <use xlink:href="#DejaVuSans-68"/>
      <use x="77.001953" xlink:href="#DejaVuSans-117"/>
      <use x="140.380859" xlink:href="#DejaVuSans-112"/>
      <use x="203.857422" xlink:href="#DejaVuSans-108"/>
      <use x="231.640625" xlink:href="#DejaVuSans-105"/>
      <use x="259.423828" xlink:href="#DejaVuSans-99"/>
      <use x="314.404297" xlink:href="#DejaVuSans-97"/>
      <use x="375.683594" xlink:href="#DejaVuSans-116"/>
      <use x="414.892578" xlink:href="#DejaVuSans-105"/>
      <use x="442.675781" xlink:href="#DejaVuSans-111"/>
      <use x="503.857422" xlink:href="#DejaVuSans-110"/>
      <use x="567.236328" xlink:href="#DejaVuSans-115"/>
     </g>
    </g>
   </g>
   <g id="patch_159">
    <path d="M 46.965625 617 
L 46.965625 336.918896 
" style="fill:none;stroke:#000000;stroke-linecap:square;stroke-linejoin:miter;stroke-width:0.8;"/>
   </g>
   <g id="patch_160">
    <path d="M 48.965625 619 
L 532.225625 619 
" style="fill:none;stroke:#000000;stroke-linecap:square;stroke-linejoin:miter;stroke-width:0.8;"/>
   </g>
  </g>
  <g id="axes_4">
   <g id="patch_161">
    <path d="M 581.945625 617 
L 1065.205625 617 
L 1065.205625 336.918896 
L 581.945625 336.918896 
z
" style="fill:#ffffff;"/>
   </g>
   <g id="patch_162">
    <path clip-path="url(#p22f38b420b)" d="M 603.911989 617 
L 610.969455 617 
L 610.969455 611.028121 
L 603.911989 611.028121 
z
" style="opacity:0.2;"/>
   </g>
   <g id="patch_163">
    <path clip-path="url(#p22f38b420b)" d="M 612.733821 617 
L 619.791288 617 
L 619.791288 617 
L 612.733821 617 
z
" style="opacity:0.2;"/>
   </g>
   <g id="patch_164">
    <path clip-path="url(#p22f38b420b)" d="M 621.555654 617 
L 628.61312 617 
L 628.61312 617 
L 621.555654 617 
z
" style="opacity:0.2;"/>
   </g>
   <g id="patch_165">
    <path clip-path="url(#p22f38b420b)" d="M 630.377487 617 
L 637.434953 617 
L 637.434953 617 
L 630.377487 617 
z
" style="opacity:0.2;"/>
   </g>
   <g id="patch_166">
    <path clip-path="url(#p22f38b420b)" d="M 639.19932 617 
L 646.256786 617 
L 646.256786 617 
L 639.19932 617 
z
" style="opacity:0.2;"/>
   </g>
   <g id="patch_167">
    <path clip-path="url(#p22f38b420b)" d="M 648.021153 617 
L 655.078619 617 
L 655.078619 617 
L 648.021153 617 
z
" style="opacity:0.2;"/>
   </g>
   <g id="patch_168">
    <path clip-path="url(#p22f38b420b)" d="M 656.842985 617 
L 663.900452 617 
L 663.900452 617 
L 656.842985 617 
z
" style="opacity:0.2;"/>
   </g>
   <g id="patch_169">
    <path clip-path="url(#p22f38b420b)" d="M 665.664818 617 
L 672.722284 617 
L 672.722284 609.037495 
L 665.664818 609.037495 
z
" style="opacity:0.2;"/>
   </g>
   <g id="patch_170">
    <path clip-path="url(#p22f38b420b)" d="M 674.486651 617 
L 681.544117 617 
L 681.544117 613.018748 
L 674.486651 613.018748 
z
" style="opacity:0.2;"/>
   </g>
   <g id="patch_171">
    <path clip-path="url(#p22f38b420b)" d="M 683.308484 617 
L 690.36595 617 
L 690.36595 613.018748 
L 683.308484 613.018748 
z
" style="opacity:0.2;"/>
   </g>
   <g id="patch_172">
    <path clip-path="url(#p22f38b420b)" d="M 692.130316 617 
L 699.187783 617 
L 699.187783 617 
L 692.130316 617 
z
" style="opacity:0.2;"/>
   </g>
   <g id="patch_173">
    <path clip-path="url(#p22f38b420b)" d="M 700.952149 617 
L 708.009616 617 
L 708.009616 603.065617 
L 700.952149 603.065617 
z
" style="opacity:0.2;"/>
   </g>
   <g id="patch_174">
    <path clip-path="url(#p22f38b420b)" d="M 709.773982 617 
L 716.831448 617 
L 716.831448 585.149981 
L 709.773982 585.149981 
z
" style="opacity:0.2;"/>
   </g>
   <g id="patch_175">
    <path clip-path="url(#p22f38b420b)" d="M 718.595815 617 
L 725.653281 617 
L 725.653281 597.093738 
L 718.595815 597.093738 
z
" style="opacity:0.2;"/>
   </g>
   <g id="patch_176">
    <path clip-path="url(#p22f38b420b)" d="M 727.417648 617 
L 734.475114 617 
L 734.475114 573.869766 
L 727.417648 573.869766 
z
" style="opacity:0.2;"/>
   </g>
   <g id="patch_177">
    <path clip-path="url(#p22f38b420b)" d="M 736.23948 617 
L 743.296947 617 
L 743.296947 528.748906 
L 736.23948 528.748906 
z
" style="opacity:0.2;"/>
   </g>
   <g id="patch_178">
    <path clip-path="url(#p22f38b420b)" d="M 745.061313 617 
L 752.118779 617 
L 752.118779 518.795775 
L 745.061313 518.795775 
z
" style="opacity:0.2;"/>
   </g>
   <g id="patch_179">
    <path clip-path="url(#p22f38b420b)" d="M 753.883146 617 
L 760.940612 617 
L 760.940612 515.478064 
L 753.883146 515.478064 
z
" style="opacity:0.2;"/>
   </g>
   <g id="patch_180">
    <path clip-path="url(#p22f38b420b)" d="M 762.704979 617 
L 769.762445 617 
L 769.762445 518.132233 
L 762.704979 518.132233 
z
" style="opacity:0.2;"/>
   </g>
   <g id="patch_181">
    <path clip-path="url(#p22f38b420b)" d="M 771.526812 617 
L 778.584278 617 
L 778.584278 487.609298 
L 771.526812 487.609298 
z
" style="opacity:0.2;"/>
   </g>
   <g id="patch_182">
    <path clip-path="url(#p22f38b420b)" d="M 780.348644 617 
L 787.406111 617 
L 787.406111 472.34783 
L 780.348644 472.34783 
z
" style="opacity:0.2;"/>
   </g>
   <g id="patch_183">
    <path clip-path="url(#p22f38b420b)" d="M 789.170477 617 
L 796.227943 617 
L 796.227943 504.861391 
L 789.170477 504.861391 
z
" style="opacity:0.2;"/>
   </g>
   <g id="patch_184">
    <path clip-path="url(#p22f38b420b)" d="M 797.99231 617 
L 805.049776 617 
L 805.049776 537.374953 
L 797.99231 537.374953 
z
" style="opacity:0.2;"/>
   </g>
   <g id="patch_185">
    <path clip-path="url(#p22f38b420b)" d="M 806.814143 617 
L 813.871609 617 
L 813.871609 537.374953 
L 806.814143 537.374953 
z
" style="opacity:0.2;"/>
   </g>
   <g id="patch_186">
    <path clip-path="url(#p22f38b420b)" d="M 815.635975 617 
L 822.693442 617 
L 822.693442 553.299962 
L 815.635975 553.299962 
z
" style="opacity:0.2;"/>
   </g>
   <g id="patch_187">
    <path clip-path="url(#p22f38b420b)" d="M 824.457808 617 
L 831.515275 617 
L 831.515275 493.581176 
L 824.457808 493.581176 
z
" style="opacity:0.2;"/>
   </g>
   <g id="patch_188">
    <path clip-path="url(#p22f38b420b)" d="M 833.279641 617 
L 840.337107 617 
L 840.337107 371.821208 
L 833.279641 371.821208 
z
" style="opacity:0.2;"/>
   </g>
   <g id="patch_189">
    <path clip-path="url(#p22f38b420b)" d="M 842.101474 617 
L 849.15894 617 
L 849.15894 404.002998 
L 842.101474 404.002998 
z
" style="opacity:0.2;"/>
   </g>
   <g id="patch_190">
    <path clip-path="url(#p22f38b420b)" d="M 850.923307 617 
L 857.980773 617 
L 857.980773 350.256091 
L 850.923307 350.256091 
z
" style="opacity:0.2;"/>
   </g>
   <g id="patch_191">
    <path clip-path="url(#p22f38b420b)" d="M 859.745139 617 
L 866.802606 617 
L 866.802606 537.374953 
L 859.745139 537.374953 
z
" style="opacity:0.2;"/>
   </g>
   <g id="patch_192">
    <path clip-path="url(#p22f38b420b)" d="M 868.566972 617 
L 875.624438 617 
L 875.624438 585.481752 
L 868.566972 585.481752 
z
" style="opacity:0.2;"/>
   </g>
   <g id="patch_193">
    <path clip-path="url(#p22f38b420b)" d="M 877.388805 617 
L 884.446271 617 
L 884.446271 605.056243 
L 877.388805 605.056243 
z
" style="opacity:0.2;"/>
   </g>
   <g id="patch_194">
    <path clip-path="url(#p22f38b420b)" d="M 886.210638 617 
L 893.268104 617 
L 893.268104 609.037495 
L 886.210638 609.037495 
z
" style="opacity:0.2;"/>
   </g>
   <g id="patch_195">
    <path clip-path="url(#p22f38b420b)" d="M 895.032471 617 
L 902.089937 617 
L 902.089937 617 
L 895.032471 617 
z
" style="opacity:0.2;"/>
   </g>
   <g id="patch_196">
    <path clip-path="url(#p22f38b420b)" d="M 903.854303 617 
L 910.91177 617 
L 910.91177 613.018748 
L 903.854303 613.018748 
z
" style="opacity:0.2;"/>
   </g>
   <g id="patch_197">
    <path clip-path="url(#p22f38b420b)" d="M 912.676136 617 
L 919.733602 617 
L 919.733602 617 
L 912.676136 617 
z
" style="opacity:0.2;"/>
   </g>
   <g id="patch_198">
    <path clip-path="url(#p22f38b420b)" d="M 921.497969 617 
L 928.555435 617 
L 928.555435 617 
L 921.497969 617 
z
" style="opacity:0.2;"/>
   </g>
   <g id="patch_199">
    <path clip-path="url(#p22f38b420b)" d="M 930.319802 617 
L 937.377268 617 
L 937.377268 617 
L 930.319802 617 
z
" style="opacity:0.2;"/>
   </g>
   <g id="patch_200">
    <path clip-path="url(#p22f38b420b)" d="M 939.141634 617 
L 946.199101 617 
L 946.199101 617 
L 939.141634 617 
z
" style="opacity:0.2;"/>
   </g>
   <g id="patch_201">
    <path clip-path="url(#p22f38b420b)" d="M 947.963467 617 
L 955.020934 617 
L 955.020934 613.018748 
L 947.963467 613.018748 
z
" style="opacity:0.2;"/>
   </g>
   <g id="patch_202">
    <path clip-path="url(#p22f38b420b)" d="M 956.7853 617 
L 963.842766 617 
L 963.842766 617 
L 956.7853 617 
z
" style="opacity:0.2;"/>
   </g>
   <g id="patch_203">
    <path clip-path="url(#p22f38b420b)" d="M 965.607133 617 
L 972.664599 617 
L 972.664599 617 
L 965.607133 617 
z
" style="opacity:0.2;"/>
   </g>
   <g id="patch_204">
    <path clip-path="url(#p22f38b420b)" d="M 974.428966 617 
L 981.486432 617 
L 981.486432 617 
L 974.428966 617 
z
" style="opacity:0.2;"/>
   </g>
   <g id="patch_205">
    <path clip-path="url(#p22f38b420b)" d="M 983.250798 617 
L 990.308265 617 
L 990.308265 617 
L 983.250798 617 
z
" style="opacity:0.2;"/>
   </g>
   <g id="patch_206">
    <path clip-path="url(#p22f38b420b)" d="M 992.072631 617 
L 999.130097 617 
L 999.130097 617 
L 992.072631 617 
z
" style="opacity:0.2;"/>
   </g>
   <g id="patch_207">
    <path clip-path="url(#p22f38b420b)" d="M 1000.894464 617 
L 1007.95193 617 
L 1007.95193 617 
L 1000.894464 617 
z
" style="opacity:0.2;"/>
   </g>
   <g id="patch_208">
    <path clip-path="url(#p22f38b420b)" d="M 1009.716297 617 
L 1016.773763 617 
L 1016.773763 617 
L 1009.716297 617 
z
" style="opacity:0.2;"/>
   </g>
   <g id="patch_209">
    <path clip-path="url(#p22f38b420b)" d="M 1018.53813 617 
L 1025.595596 617 
L 1025.595596 617 
L 1018.53813 617 
z
" style="opacity:0.2;"/>
   </g>
   <g id="patch_210">
    <path clip-path="url(#p22f38b420b)" d="M 1027.359962 617 
L 1034.417429 617 
L 1034.417429 617 
L 1027.359962 617 
z
" style="opacity:0.2;"/>
   </g>
   <g id="patch_211">
    <path clip-path="url(#p22f38b420b)" d="M 1036.181795 617 
L 1043.239261 617 
L 1043.239261 613.018748 
L 1036.181795 613.018748 
z
" style="opacity:0.2;"/>
   </g>
   <g id="matplotlib.axis_7">
    <g id="xtick_20">
     <g id="line2d_45">
      <g>
       <use style="stroke:#000000;stroke-width:0.8;" x="603.029805" xlink:href="#m0504ecdf4e" y="619"/>
      </g>
     </g>
     <g id="text_51">
      <!-- −3 -->
      <g transform="translate(595.658712 633.598437)scale(0.1 -0.1)">
       <use xlink:href="#DejaVuSans-8722"/>
       <use x="83.789062" xlink:href="#DejaVuSans-51"/>
      </g>
     </g>
    </g>
    <g id="xtick_21">
     <g id="line2d_46">
      <g>
       <use style="stroke:#000000;stroke-width:0.8;" x="691.325212" xlink:href="#m0504ecdf4e" y="619"/>
      </g>
     </g>
     <g id="text_52">
      <!-- −2 -->
      <g transform="translate(683.954118 633.598437)scale(0.1 -0.1)">
       <use xlink:href="#DejaVuSans-8722"/>
       <use x="83.789062" xlink:href="#DejaVuSans-50"/>
      </g>
     </g>
    </g>
    <g id="xtick_22">
     <g id="line2d_47">
      <g>
       <use style="stroke:#000000;stroke-width:0.8;" x="779.620618" xlink:href="#m0504ecdf4e" y="619"/>
      </g>
     </g>
     <g id="text_53">
      <!-- −1 -->
      <g transform="translate(772.249524 633.598437)scale(0.1 -0.1)">
       <use xlink:href="#DejaVuSans-8722"/>
       <use x="83.789062" xlink:href="#DejaVuSans-49"/>
      </g>
     </g>
    </g>
    <g id="xtick_23">
     <g id="line2d_48">
      <g>
       <use style="stroke:#000000;stroke-width:0.8;" x="867.916024" xlink:href="#m0504ecdf4e" y="619"/>
      </g>
     </g>
     <g id="text_54">
      <!-- 0 -->
      <g transform="translate(864.734774 633.598437)scale(0.1 -0.1)">
       <use xlink:href="#DejaVuSans-48"/>
      </g>
     </g>
    </g>
    <g id="xtick_24">
     <g id="line2d_49">
      <g>
       <use style="stroke:#000000;stroke-width:0.8;" x="956.211431" xlink:href="#m0504ecdf4e" y="619"/>
      </g>
     </g>
     <g id="text_55">
      <!-- 1 -->
      <g transform="translate(953.030181 633.598437)scale(0.1 -0.1)">
       <use xlink:href="#DejaVuSans-49"/>
      </g>
     </g>
    </g>
    <g id="xtick_25">
     <g id="line2d_50">
      <g>
       <use style="stroke:#000000;stroke-width:0.8;" x="1044.506837" xlink:href="#m0504ecdf4e" y="619"/>
      </g>
     </g>
     <g id="text_56">
      <!-- 2 -->
      <g transform="translate(1041.325587 633.598437)scale(0.1 -0.1)">
       <use xlink:href="#DejaVuSans-50"/>
      </g>
     </g>
    </g>
    <g id="text_57">
     <!-- $\mathrm{log10}(\omega)$ -->
     <defs>
      <path d="M 21.390625 -1.421875 
Q 1.125 -1.421875 6.78125 27.59375 
Q 8.984375 39.0625 19.625 54.6875 
L 29.296875 54.6875 
Q 19.234375 39.0625 17 27.34375 
Q 12.796875 6.203125 23.734375 6.203125 
Q 33.84375 6.203125 38.71875 32.46875 
L 47.015625 32.46875 
Q 41.703125 6.0625 51.8125 6.203125 
Q 62.703125 6.296875 66.796875 27.34375 
Q 69.046875 39.0625 65.140625 54.6875 
L 74.8125 54.6875 
Q 79.296875 39.0625 77.09375 27.59375 
Q 71.53125 -1.46875 51.21875 -1.421875 
Q 37.9375 -1.375 39.109375 13.1875 
Q 34.28125 -1.421875 21.390625 -1.421875 
z
" id="DejaVuSans-Oblique-969"/>
     </defs>
     <g transform="translate(801.475625 647.278125)scale(0.1 -0.1)">
      <use transform="translate(0 0.015625)" xlink:href="#DejaVuSans-108"/>
      <use transform="translate(27.783203 0.015625)" xlink:href="#DejaVuSans-111"/>
      <use transform="translate(88.964844 0.015625)" xlink:href="#DejaVuSans-103"/>
      <use transform="translate(152.441406 0.015625)" xlink:href="#DejaVuSans-49"/>
      <use transform="translate(216.064453 0.015625)" xlink:href="#DejaVuSans-48"/>
      <use transform="translate(279.6875 0.015625)" xlink:href="#DejaVuSans-40"/>
      <use transform="translate(318.701172 0.015625)" xlink:href="#DejaVuSans-Oblique-969"/>
      <use transform="translate(402.441406 0.015625)" xlink:href="#DejaVuSans-41"/>
     </g>
    </g>
   </g>
   <g id="matplotlib.axis_8">
    <g id="ytick_26">
     <g id="line2d_51">
      <g>
       <use style="stroke:#000000;stroke-width:0.8;" x="579.945625" xlink:href="#mdca06c7c31" y="617"/>
      </g>
     </g>
     <g id="text_58">
      <!-- 0 -->
      <g transform="translate(566.583125 620.799219)scale(0.1 -0.1)">
       <use xlink:href="#DejaVuSans-48"/>
      </g>
     </g>
    </g>
    <g id="ytick_27">
     <g id="line2d_52">
      <g>
       <use style="stroke:#000000;stroke-width:0.8;" x="579.945625" xlink:href="#mdca06c7c31" y="577.187476"/>
      </g>
     </g>
     <g id="text_59">
      <!-- 10 -->
      <g transform="translate(560.220625 580.986695)scale(0.1 -0.1)">
       <use xlink:href="#DejaVuSans-49"/>
       <use x="63.623047" xlink:href="#DejaVuSans-48"/>
      </g>
     </g>
    </g>
    <g id="ytick_28">
     <g id="line2d_53">
      <g>
       <use style="stroke:#000000;stroke-width:0.8;" x="579.945625" xlink:href="#mdca06c7c31" y="537.374953"/>
      </g>
     </g>
     <g id="text_60">
      <!-- 20 -->
      <g transform="translate(560.220625 541.174171)scale(0.1 -0.1)">
       <use xlink:href="#DejaVuSans-50"/>
       <use x="63.623047" xlink:href="#DejaVuSans-48"/>
      </g>
     </g>
    </g>
    <g id="ytick_29">
     <g id="line2d_54">
      <g>
       <use style="stroke:#000000;stroke-width:0.8;" x="579.945625" xlink:href="#mdca06c7c31" y="497.562429"/>
      </g>
     </g>
     <g id="text_61">
      <!-- 30 -->
      <g transform="translate(560.220625 501.361648)scale(0.1 -0.1)">
       <use xlink:href="#DejaVuSans-51"/>
       <use x="63.623047" xlink:href="#DejaVuSans-48"/>
      </g>
     </g>
    </g>
    <g id="ytick_30">
     <g id="line2d_55">
      <g>
       <use style="stroke:#000000;stroke-width:0.8;" x="579.945625" xlink:href="#mdca06c7c31" y="457.749905"/>
      </g>
     </g>
     <g id="text_62">
      <!-- 40 -->
      <g transform="translate(560.220625 461.549124)scale(0.1 -0.1)">
       <use xlink:href="#DejaVuSans-52"/>
       <use x="63.623047" xlink:href="#DejaVuSans-48"/>
      </g>
     </g>
    </g>
    <g id="ytick_31">
     <g id="line2d_56">
      <g>
       <use style="stroke:#000000;stroke-width:0.8;" x="579.945625" xlink:href="#mdca06c7c31" y="417.937381"/>
      </g>
     </g>
     <g id="text_63">
      <!-- 50 -->
      <g transform="translate(560.220625 421.7366)scale(0.1 -0.1)">
       <use xlink:href="#DejaVuSans-53"/>
       <use x="63.623047" xlink:href="#DejaVuSans-48"/>
      </g>
     </g>
    </g>
    <g id="ytick_32">
     <g id="line2d_57">
      <g>
       <use style="stroke:#000000;stroke-width:0.8;" x="579.945625" xlink:href="#mdca06c7c31" y="378.124858"/>
      </g>
     </g>
     <g id="text_64">
      <!-- 60 -->
      <g transform="translate(560.220625 381.924076)scale(0.1 -0.1)">
       <use xlink:href="#DejaVuSans-54"/>
       <use x="63.623047" xlink:href="#DejaVuSans-48"/>
      </g>
     </g>
    </g>
    <g id="ytick_33">
     <g id="line2d_58">
      <g>
       <use style="stroke:#000000;stroke-width:0.8;" x="579.945625" xlink:href="#mdca06c7c31" y="338.312334"/>
      </g>
     </g>
     <g id="text_65">
      <!-- 70 -->
      <g transform="translate(560.220625 342.111553)scale(0.1 -0.1)">
       <use xlink:href="#DejaVuSans-55"/>
       <use x="63.623047" xlink:href="#DejaVuSans-48"/>
      </g>
     </g>
    </g>
    <g id="text_66">
     <!-- Duplications -->
     <g transform="translate(554.140938 507.925854)rotate(-90)scale(0.1 -0.1)">
      <use xlink:href="#DejaVuSans-68"/>
      <use x="77.001953" xlink:href="#DejaVuSans-117"/>
      <use x="140.380859" xlink:href="#DejaVuSans-112"/>
      <use x="203.857422" xlink:href="#DejaVuSans-108"/>
      <use x="231.640625" xlink:href="#DejaVuSans-105"/>
      <use x="259.423828" xlink:href="#DejaVuSans-99"/>
      <use x="314.404297" xlink:href="#DejaVuSans-97"/>
      <use x="375.683594" xlink:href="#DejaVuSans-116"/>
      <use x="414.892578" xlink:href="#DejaVuSans-105"/>
      <use x="442.675781" xlink:href="#DejaVuSans-111"/>
      <use x="503.857422" xlink:href="#DejaVuSans-110"/>
      <use x="567.236328" xlink:href="#DejaVuSans-115"/>
     </g>
    </g>
   </g>
   <g id="patch_212">
    <path d="M 579.945625 617 
L 579.945625 336.918896 
" style="fill:none;stroke:#000000;stroke-linecap:square;stroke-linejoin:miter;stroke-width:0.8;"/>
   </g>
   <g id="patch_213">
    <path d="M 581.945625 619 
L 1065.205625 619 
" style="fill:none;stroke:#000000;stroke-linecap:square;stroke-linejoin:miter;stroke-width:0.8;"/>
   </g>
  </g>
  <g id="text_67">
   <!-- subset.mcl -->
   <defs>
    <path d="M 48.6875 27.296875 
Q 48.6875 37.203125 44.609375 42.84375 
Q 40.53125 48.484375 33.40625 48.484375 
Q 26.265625 48.484375 22.1875 42.84375 
Q 18.109375 37.203125 18.109375 27.296875 
Q 18.109375 17.390625 22.1875 11.75 
Q 26.265625 6.109375 33.40625 6.109375 
Q 40.53125 6.109375 44.609375 11.75 
Q 48.6875 17.390625 48.6875 27.296875 
z
M 18.109375 46.390625 
Q 20.953125 51.265625 25.265625 53.625 
Q 29.59375 56 35.59375 56 
Q 45.5625 56 51.78125 48.09375 
Q 58.015625 40.1875 58.015625 27.296875 
Q 58.015625 14.40625 51.78125 6.484375 
Q 45.5625 -1.421875 35.59375 -1.421875 
Q 29.59375 -1.421875 25.265625 0.953125 
Q 20.953125 3.328125 18.109375 8.203125 
L 18.109375 0 
L 9.078125 0 
L 9.078125 75.984375 
L 18.109375 75.984375 
z
" id="DejaVuSans-98"/>
    <path d="M 56.203125 29.59375 
L 56.203125 25.203125 
L 14.890625 25.203125 
Q 15.484375 15.921875 20.484375 11.0625 
Q 25.484375 6.203125 34.421875 6.203125 
Q 39.59375 6.203125 44.453125 7.46875 
Q 49.3125 8.734375 54.109375 11.28125 
L 54.109375 2.78125 
Q 49.265625 0.734375 44.1875 -0.34375 
Q 39.109375 -1.421875 33.890625 -1.421875 
Q 20.796875 -1.421875 13.15625 6.1875 
Q 5.515625 13.8125 5.515625 26.8125 
Q 5.515625 40.234375 12.765625 48.109375 
Q 20.015625 56 32.328125 56 
Q 43.359375 56 49.78125 48.890625 
Q 56.203125 41.796875 56.203125 29.59375 
z
M 47.21875 32.234375 
Q 47.125 39.59375 43.09375 43.984375 
Q 39.0625 48.390625 32.421875 48.390625 
Q 24.90625 48.390625 20.390625 44.140625 
Q 15.875 39.890625 15.1875 32.171875 
z
" id="DejaVuSans-101"/>
    <path d="M 52 44.1875 
Q 55.375 50.25 60.0625 53.125 
Q 64.75 56 71.09375 56 
Q 79.640625 56 84.28125 50.015625 
Q 88.921875 44.046875 88.921875 33.015625 
L 88.921875 0 
L 79.890625 0 
L 79.890625 32.71875 
Q 79.890625 40.578125 77.09375 44.375 
Q 74.3125 48.1875 68.609375 48.1875 
Q 61.625 48.1875 57.5625 43.546875 
Q 53.515625 38.921875 53.515625 30.90625 
L 53.515625 0 
L 44.484375 0 
L 44.484375 32.71875 
Q 44.484375 40.625 41.703125 44.40625 
Q 38.921875 48.1875 33.109375 48.1875 
Q 26.21875 48.1875 22.15625 43.53125 
Q 18.109375 38.875 18.109375 30.90625 
L 18.109375 0 
L 9.078125 0 
L 9.078125 54.6875 
L 18.109375 54.6875 
L 18.109375 46.1875 
Q 21.1875 51.21875 25.484375 53.609375 
Q 29.78125 56 35.6875 56 
Q 41.65625 56 45.828125 52.96875 
Q 50 49.953125 52 44.1875 
z
" id="DejaVuSans-109"/>
   </defs>
   <g transform="translate(503.381563 18.866925)scale(0.12 -0.12)">
    <use xlink:href="#DejaVuSans-115"/>
    <use x="52.099609" xlink:href="#DejaVuSans-117"/>
    <use x="115.478516" xlink:href="#DejaVuSans-98"/>
    <use x="178.955078" xlink:href="#DejaVuSans-115"/>
    <use x="231.054688" xlink:href="#DejaVuSans-101"/>
    <use x="292.578125" xlink:href="#DejaVuSans-116"/>
    <use x="331.787109" xlink:href="#DejaVuSans-46"/>
    <use x="363.574219" xlink:href="#DejaVuSans-109"/>
    <use x="460.986328" xlink:href="#DejaVuSans-99"/>
    <use x="515.966797" xlink:href="#DejaVuSans-108"/>
   </g>
  </g>
 </g>
 <defs>
  <clipPath id="pfcc6a39db1">
   <rect height="280.081104" width="483.26" x="48.965625" y="7.2"/>
  </clipPath>
  <clipPath id="p9050bcca11">
   <rect height="280.081104" width="483.26" x="581.945625" y="7.2"/>
  </clipPath>
  <clipPath id="pcb0fc35711">
   <rect height="280.081104" width="483.26" x="48.965625" y="336.918896"/>
  </clipPath>
  <clipPath id="p22f38b420b">
   <rect height="280.081104" width="483.26" x="581.945625" y="336.918896"/>
  </clipPath>
 </defs>
</svg>
