<?xml version="1.0" encoding="utf-8" standalone="no"?>
<!DOCTYPE svg PUBLIC "-//W3C//DTD SVG 1.1//EN"
  "http://www.w3.org/Graphics/SVG/1.1/DTD/svg11.dtd">
<!-- Created with matplotlib (https://matplotlib.org/) -->
<svg height="288pt" version="1.1" viewBox="0 0 288 288" width="288pt" xmlns="http://www.w3.org/2000/svg" xmlns:xlink="http://www.w3.org/1999/xlink">
 <defs>
  <style type="text/css">
*{stroke-linecap:butt;stroke-linejoin:round;}
  </style>
 </defs>
 <g id="figure_1">
  <g id="patch_1">
   <path d="M 0 288 
L 288 288 
L 288 0 
L 0 0 
z
" style="fill:#ffffff;"/>
  </g>
  <g id="axes_1">
   <g id="patch_2">
    <path d="M 49.675 244.2 
L 269.2625 244.2 
L 269.2625 14.8 
L 49.675 14.8 
z
" style="fill:#ffffff;"/>
   </g>
   <g id="matplotlib.axis_1">
    <g id="xtick_1">
     <g id="line2d_1">
      <defs>
       <path d="M 0 0 
L 0 3.5 
" id="me8a29c0393" style="stroke:#000000;stroke-width:0.8;"/>
      </defs>
      <g>
       <use style="stroke:#000000;stroke-width:0.8;" x="49.675" xlink:href="#me8a29c0393" y="244.2"/>
      </g>
     </g>
     <g id="text_1">
      <!-- 0.0 -->
      <defs>
       <path d="M 31.78125 66.40625 
Q 24.171875 66.40625 20.328125 58.90625 
Q 16.5 51.421875 16.5 36.375 
Q 16.5 21.390625 20.328125 13.890625 
Q 24.171875 6.390625 31.78125 6.390625 
Q 39.453125 6.390625 43.28125 13.890625 
Q 47.125 21.390625 47.125 36.375 
Q 47.125 51.421875 43.28125 58.90625 
Q 39.453125 66.40625 31.78125 66.40625 
z
M 31.78125 74.21875 
Q 44.046875 74.21875 50.515625 64.515625 
Q 56.984375 54.828125 56.984375 36.375 
Q 56.984375 17.96875 50.515625 8.265625 
Q 44.046875 -1.421875 31.78125 -1.421875 
Q 19.53125 -1.421875 13.0625 8.265625 
Q 6.59375 17.96875 6.59375 36.375 
Q 6.59375 54.828125 13.0625 64.515625 
Q 19.53125 74.21875 31.78125 74.21875 
z
" id="DejaVuSans-48"/>
       <path d="M 10.6875 12.40625 
L 21 12.40625 
L 21 0 
L 10.6875 0 
z
" id="DejaVuSans-46"/>
      </defs>
      <g transform="translate(41.723438 258.798437)scale(0.1 -0.1)">
       <use xlink:href="#DejaVuSans-48"/>
       <use x="63.623047" xlink:href="#DejaVuSans-46"/>
       <use x="95.410156" xlink:href="#DejaVuSans-48"/>
      </g>
     </g>
    </g>
    <g id="xtick_2">
     <g id="line2d_2">
      <g>
       <use style="stroke:#000000;stroke-width:0.8;" x="93.5925" xlink:href="#me8a29c0393" y="244.2"/>
      </g>
     </g>
     <g id="text_2">
      <!-- 0.1 -->
      <defs>
       <path d="M 12.40625 8.296875 
L 28.515625 8.296875 
L 28.515625 63.921875 
L 10.984375 60.40625 
L 10.984375 69.390625 
L 28.421875 72.90625 
L 38.28125 72.90625 
L 38.28125 8.296875 
L 54.390625 8.296875 
L 54.390625 0 
L 12.40625 0 
z
" id="DejaVuSans-49"/>
      </defs>
      <g transform="translate(85.640938 258.798437)scale(0.1 -0.1)">
       <use xlink:href="#DejaVuSans-48"/>
       <use x="63.623047" xlink:href="#DejaVuSans-46"/>
       <use x="95.410156" xlink:href="#DejaVuSans-49"/>
      </g>
     </g>
    </g>
    <g id="xtick_3">
     <g id="line2d_3">
      <g>
       <use style="stroke:#000000;stroke-width:0.8;" x="137.51" xlink:href="#me8a29c0393" y="244.2"/>
      </g>
     </g>
     <g id="text_3">
      <!-- 0.2 -->
      <defs>
       <path d="M 19.1875 8.296875 
L 53.609375 8.296875 
L 53.609375 0 
L 7.328125 0 
L 7.328125 8.296875 
Q 12.9375 14.109375 22.625 23.890625 
Q 32.328125 33.6875 34.8125 36.53125 
Q 39.546875 41.84375 41.421875 45.53125 
Q 43.3125 49.21875 43.3125 52.78125 
Q 43.3125 58.59375 39.234375 62.25 
Q 35.15625 65.921875 28.609375 65.921875 
Q 23.96875 65.921875 18.8125 64.3125 
Q 13.671875 62.703125 7.8125 59.421875 
L 7.8125 69.390625 
Q 13.765625 71.78125 18.9375 73 
Q 24.125 74.21875 28.421875 74.21875 
Q 39.75 74.21875 46.484375 68.546875 
Q 53.21875 62.890625 53.21875 53.421875 
Q 53.21875 48.921875 51.53125 44.890625 
Q 49.859375 40.875 45.40625 35.40625 
Q 44.1875 33.984375 37.640625 27.21875 
Q 31.109375 20.453125 19.1875 8.296875 
z
" id="DejaVuSans-50"/>
      </defs>
      <g transform="translate(129.558438 258.798437)scale(0.1 -0.1)">
       <use xlink:href="#DejaVuSans-48"/>
       <use x="63.623047" xlink:href="#DejaVuSans-46"/>
       <use x="95.410156" xlink:href="#DejaVuSans-50"/>
      </g>
     </g>
    </g>
    <g id="xtick_4">
     <g id="line2d_4">
      <g>
       <use style="stroke:#000000;stroke-width:0.8;" x="181.4275" xlink:href="#me8a29c0393" y="244.2"/>
      </g>
     </g>
     <g id="text_4">
      <!-- 0.3 -->
      <defs>
       <path d="M 40.578125 39.3125 
Q 47.65625 37.796875 51.625 33 
Q 55.609375 28.21875 55.609375 21.1875 
Q 55.609375 10.40625 48.1875 4.484375 
Q 40.765625 -1.421875 27.09375 -1.421875 
Q 22.515625 -1.421875 17.65625 -0.515625 
Q 12.796875 0.390625 7.625 2.203125 
L 7.625 11.71875 
Q 11.71875 9.328125 16.59375 8.109375 
Q 21.484375 6.890625 26.8125 6.890625 
Q 36.078125 6.890625 40.9375 10.546875 
Q 45.796875 14.203125 45.796875 21.1875 
Q 45.796875 27.640625 41.28125 31.265625 
Q 36.765625 34.90625 28.71875 34.90625 
L 20.21875 34.90625 
L 20.21875 43.015625 
L 29.109375 43.015625 
Q 36.375 43.015625 40.234375 45.921875 
Q 44.09375 48.828125 44.09375 54.296875 
Q 44.09375 59.90625 40.109375 62.90625 
Q 36.140625 65.921875 28.71875 65.921875 
Q 24.65625 65.921875 20.015625 65.03125 
Q 15.375 64.15625 9.8125 62.3125 
L 9.8125 71.09375 
Q 15.4375 72.65625 20.34375 73.4375 
Q 25.25 74.21875 29.59375 74.21875 
Q 40.828125 74.21875 47.359375 69.109375 
Q 53.90625 64.015625 53.90625 55.328125 
Q 53.90625 49.265625 50.4375 45.09375 
Q 46.96875 40.921875 40.578125 39.3125 
z
" id="DejaVuSans-51"/>
      </defs>
      <g transform="translate(173.475938 258.798437)scale(0.1 -0.1)">
       <use xlink:href="#DejaVuSans-48"/>
       <use x="63.623047" xlink:href="#DejaVuSans-46"/>
       <use x="95.410156" xlink:href="#DejaVuSans-51"/>
      </g>
     </g>
    </g>
    <g id="xtick_5">
     <g id="line2d_5">
      <g>
       <use style="stroke:#000000;stroke-width:0.8;" x="225.345" xlink:href="#me8a29c0393" y="244.2"/>
      </g>
     </g>
     <g id="text_5">
      <!-- 0.4 -->
      <defs>
       <path d="M 37.796875 64.3125 
L 12.890625 25.390625 
L 37.796875 25.390625 
z
M 35.203125 72.90625 
L 47.609375 72.90625 
L 47.609375 25.390625 
L 58.015625 25.390625 
L 58.015625 17.1875 
L 47.609375 17.1875 
L 47.609375 0 
L 37.796875 0 
L 37.796875 17.1875 
L 4.890625 17.1875 
L 4.890625 26.703125 
z
" id="DejaVuSans-52"/>
      </defs>
      <g transform="translate(217.393438 258.798437)scale(0.1 -0.1)">
       <use xlink:href="#DejaVuSans-48"/>
       <use x="63.623047" xlink:href="#DejaVuSans-46"/>
       <use x="95.410156" xlink:href="#DejaVuSans-52"/>
      </g>
     </g>
    </g>
    <g id="xtick_6">
     <g id="line2d_6">
      <g>
       <use style="stroke:#000000;stroke-width:0.8;" x="269.2625" xlink:href="#me8a29c0393" y="244.2"/>
      </g>
     </g>
     <g id="text_6">
      <!-- 0.5 -->
      <defs>
       <path d="M 10.796875 72.90625 
L 49.515625 72.90625 
L 49.515625 64.59375 
L 19.828125 64.59375 
L 19.828125 46.734375 
Q 21.96875 47.46875 24.109375 47.828125 
Q 26.265625 48.1875 28.421875 48.1875 
Q 40.625 48.1875 47.75 41.5 
Q 54.890625 34.8125 54.890625 23.390625 
Q 54.890625 11.625 47.5625 5.09375 
Q 40.234375 -1.421875 26.90625 -1.421875 
Q 22.3125 -1.421875 17.546875 -0.640625 
Q 12.796875 0.140625 7.71875 1.703125 
L 7.71875 11.625 
Q 12.109375 9.234375 16.796875 8.0625 
Q 21.484375 6.890625 26.703125 6.890625 
Q 35.15625 6.890625 40.078125 11.328125 
Q 45.015625 15.765625 45.015625 23.390625 
Q 45.015625 31 40.078125 35.4375 
Q 35.15625 39.890625 26.703125 39.890625 
Q 22.75 39.890625 18.8125 39.015625 
Q 14.890625 38.140625 10.796875 36.28125 
z
" id="DejaVuSans-53"/>
      </defs>
      <g transform="translate(261.310938 258.798437)scale(0.1 -0.1)">
       <use xlink:href="#DejaVuSans-48"/>
       <use x="63.623047" xlink:href="#DejaVuSans-46"/>
       <use x="95.410156" xlink:href="#DejaVuSans-53"/>
      </g>
     </g>
    </g>
    <g id="text_7">
     <!-- $\lambda$ -->
     <defs>
      <path d="M 36.71875 67.4375 
L 48.828125 0 
L 39.3125 0 
L 31.84375 40.4375 
L 5.125 0 
L -4.390625 0 
L 29.734375 52.4375 
L 28.03125 62.109375 
Q 26.953125 68.265625 21.734375 68.265625 
L 17.046875 68.265625 
L 18.5 75.984375 
L 24.21875 75.875 
Q 35.203125 75.734375 36.71875 67.4375 
z
" id="DejaVuSans-Oblique-955"/>
     </defs>
     <g transform="translate(156.46875 272.476562)scale(0.1 -0.1)">
      <use transform="translate(0 0.015625)" xlink:href="#DejaVuSans-Oblique-955"/>
     </g>
    </g>
   </g>
   <g id="matplotlib.axis_2">
    <g id="ytick_1">
     <g id="line2d_7">
      <defs>
       <path d="M 0 0 
L -3.5 0 
" id="mb4baf91d90" style="stroke:#000000;stroke-width:0.8;"/>
      </defs>
      <g>
       <use style="stroke:#000000;stroke-width:0.8;" x="49.675" xlink:href="#mb4baf91d90" y="244.2"/>
      </g>
     </g>
     <g id="text_8">
      <!-- 0.0 -->
      <g transform="translate(26.771875 247.999219)scale(0.1 -0.1)">
       <use xlink:href="#DejaVuSans-48"/>
       <use x="63.623047" xlink:href="#DejaVuSans-46"/>
       <use x="95.410156" xlink:href="#DejaVuSans-48"/>
      </g>
     </g>
    </g>
    <g id="ytick_2">
     <g id="line2d_8">
      <g>
       <use style="stroke:#000000;stroke-width:0.8;" x="49.675" xlink:href="#mb4baf91d90" y="198.32"/>
      </g>
     </g>
     <g id="text_9">
      <!-- 0.1 -->
      <g transform="translate(26.771875 202.119219)scale(0.1 -0.1)">
       <use xlink:href="#DejaVuSans-48"/>
       <use x="63.623047" xlink:href="#DejaVuSans-46"/>
       <use x="95.410156" xlink:href="#DejaVuSans-49"/>
      </g>
     </g>
    </g>
    <g id="ytick_3">
     <g id="line2d_9">
      <g>
       <use style="stroke:#000000;stroke-width:0.8;" x="49.675" xlink:href="#mb4baf91d90" y="152.44"/>
      </g>
     </g>
     <g id="text_10">
      <!-- 0.2 -->
      <g transform="translate(26.771875 156.239219)scale(0.1 -0.1)">
       <use xlink:href="#DejaVuSans-48"/>
       <use x="63.623047" xlink:href="#DejaVuSans-46"/>
       <use x="95.410156" xlink:href="#DejaVuSans-50"/>
      </g>
     </g>
    </g>
    <g id="ytick_4">
     <g id="line2d_10">
      <g>
       <use style="stroke:#000000;stroke-width:0.8;" x="49.675" xlink:href="#mb4baf91d90" y="106.56"/>
      </g>
     </g>
     <g id="text_11">
      <!-- 0.3 -->
      <g transform="translate(26.771875 110.359219)scale(0.1 -0.1)">
       <use xlink:href="#DejaVuSans-48"/>
       <use x="63.623047" xlink:href="#DejaVuSans-46"/>
       <use x="95.410156" xlink:href="#DejaVuSans-51"/>
      </g>
     </g>
    </g>
    <g id="ytick_5">
     <g id="line2d_11">
      <g>
       <use style="stroke:#000000;stroke-width:0.8;" x="49.675" xlink:href="#mb4baf91d90" y="60.68"/>
      </g>
     </g>
     <g id="text_12">
      <!-- 0.4 -->
      <g transform="translate(26.771875 64.479219)scale(0.1 -0.1)">
       <use xlink:href="#DejaVuSans-48"/>
       <use x="63.623047" xlink:href="#DejaVuSans-46"/>
       <use x="95.410156" xlink:href="#DejaVuSans-52"/>
      </g>
     </g>
    </g>
    <g id="ytick_6">
     <g id="line2d_12">
      <g>
       <use style="stroke:#000000;stroke-width:0.8;" x="49.675" xlink:href="#mb4baf91d90" y="14.8"/>
      </g>
     </g>
     <g id="text_13">
      <!-- 0.5 -->
      <g transform="translate(26.771875 18.599219)scale(0.1 -0.1)">
       <use xlink:href="#DejaVuSans-48"/>
       <use x="63.623047" xlink:href="#DejaVuSans-46"/>
       <use x="95.410156" xlink:href="#DejaVuSans-53"/>
      </g>
     </g>
    </g>
    <g id="text_14">
     <!-- $\mu$ -->
     <defs>
      <path d="M -1.3125 -20.796875 
L 13.375 54.6875 
L 22.40625 54.6875 
L 15.765625 20.65625 
Q 15.578125 19.625 15.421875 18.359375 
Q 15.28125 17.09375 15.28125 15.828125 
Q 15.28125 11.28125 18.140625 8.828125 
Q 21 6.390625 26.3125 6.390625 
Q 33.546875 6.390625 37.984375 10.484375 
Q 42.4375 14.59375 44 22.796875 
L 50.203125 54.6875 
L 59.1875 54.6875 
L 51.03125 12.640625 
Q 50.828125 11.71875 50.75 11.03125 
Q 50.6875 10.359375 50.6875 9.8125 
Q 50.6875 8.296875 51.296875 7.59375 
Q 51.90625 6.890625 53.21875 6.890625 
Q 53.71875 6.890625 54.5625 7.125 
Q 55.421875 7.375 56.984375 8.015625 
L 55.609375 0.78125 
Q 53.46875 -0.296875 51.515625 -0.859375 
Q 49.5625 -1.421875 47.703125 -1.421875 
Q 44.484375 -1.421875 42.65625 0.625 
Q 40.828125 2.6875 40.828125 6.296875 
Q 38.09375 2.390625 34.296875 0.484375 
Q 30.515625 -1.421875 25.390625 -1.421875 
Q 20.84375 -1.421875 17.453125 0.671875 
Q 14.0625 2.78125 12.984375 6.203125 
L 7.71875 -20.796875 
z
" id="DejaVuSans-Oblique-956"/>
     </defs>
     <g transform="translate(20.671875 132.7)rotate(-90)scale(0.1 -0.1)">
      <use transform="translate(0 0.3125)" xlink:href="#DejaVuSans-Oblique-956"/>
     </g>
    </g>
   </g>
   <g id="LineCollection_1">
    <path clip-path="url(#pf6d39e998f)" d="M 88.752636 14.3412 
L 87.691698 19.022833 
L 87.108603 23.704465 
L 86.644153 28.386098 
L 86.171739 33.067731 
L 85.965195 34.874278 
L 85.672443 37.749363 
L 85.11866 42.430996 
L 84.494627 47.112629 
L 83.846818 51.794261 
L 83.267619 56.475894 
L 82.86324 61.157527 
L 82.641532 65.839159 
L 82.494533 70.520792 
L 82.312466 75.202424 
L 82.263728 76.012741 
" style="fill:none;stroke:#000000;stroke-width:1.5;"/>
    <path clip-path="url(#pf6d39e998f)" d="M 78.372863 130.686247 
L 78.334224 131.382016 
L 78.014981 136.063649 
L 77.65834 140.745282 
L 77.300287 145.426914 
L 77.00244 149.793742 
L 76.98266 150.108547 
L 76.749279 154.79018 
L 76.59488 159.471812 
L 76.531852 164.153445 
L 76.585282 168.835078 
L 76.800987 173.51671 
L 77.00244 175.631747 
L 77.261636 178.198343 
L 78.05315 182.879976 
L 79.236692 187.561608 
L 80.916172 192.243241 
L 81.483818 193.335028 
L 83.283436 196.924873 
L 85.965195 200.549548 
L 86.814175 201.606506 
L 90.446573 204.611236 
L 93.819731 206.288139 
L 94.927951 206.795245 
L 99.409328 207.86981 
L 103.890706 208.347666 
L 108.372083 208.481392 
L 112.853461 208.411979 
L 117.334838 208.237127 
L 121.816216 208.026054 
L 126.297593 207.817548 
L 130.778971 207.606468 
L 135.260348 207.314107 
L 139.741726 206.784449 
L 142.481202 206.288139 
L 144.223104 205.924327 
L 148.704481 204.836864 
L 153.185859 203.804046 
L 157.667236 202.952238 
L 162.148614 202.338267 
L 166.629991 201.98368 
L 171.111369 201.881538 
L 175.592746 201.975108 
L 180.074124 202.040052 
L 182.891998 201.606506 
L 184.555502 201.280208 
L 189.036879 199.500261 
L 193.518257 197.763696 
L 196.114554 196.924873 
L 197.999634 196.155346 
L 202.481012 194.784796 
L 206.962389 193.835595 
L 211.443767 193.269985 
L 215.925144 193.04884 
L 220.406522 193.077859 
L 224.887899 192.91722 
L 226.578962 192.243241 
L 229.369277 190.939038 
L 233.850655 188.447953 
L 235.692224 187.561608 
L 238.332032 185.989099 
L 242.81341 183.699247 
L 244.596865 182.879976 
L 247.294787 181.217208 
L 251.776165 178.370494 
L 252.009909 178.198343 
L 256.257542 173.749561 
L 256.43234 173.51671 
L 259.118383 168.835078 
L 260.73892 165.387149 
L 261.224541 164.153445 
L 262.879751 159.471812 
L 264.47095 154.79018 
L 265.220297 152.436392 
L 265.868585 150.108547 
L 267.057173 145.426914 
L 268.262331 140.745282 
L 269.527479 136.063649 
L 269.701675 135.443833 
" style="fill:none;stroke:#000000;stroke-width:1.5;"/>
   </g>
   <g id="LineCollection_2">
    <path clip-path="url(#pf6d39e998f)" d="M 90.516927 14.3412 
L 90.446573 14.662533 
L 89.592371 19.022833 
L 89.206309 23.704465 
L 88.87146 28.386098 
L 88.475546 33.067731 
L 87.973609 37.749363 
L 87.348806 42.430996 
L 86.611303 47.112629 
L 85.965195 50.914846 
L 85.837254 51.794261 
L 85.20557 56.475894 
L 84.789832 61.157527 
L 84.623009 65.839159 
L 84.553585 70.520792 
L 84.435373 75.202424 
L 84.193058 79.884057 
L 83.801726 84.56569 
L 83.272137 89.247322 
L 82.649301 93.928955 
L 82.017865 98.610588 
L 81.491025 103.29222 
L 81.483818 103.388854 
L 81.162373 107.973853 
L 80.988218 112.655486 
L 80.891013 117.337118 
L 80.786816 122.018751 
L 80.621591 126.700384 
L 80.373216 131.382016 
L 80.045498 136.063649 
L 79.664315 140.745282 
L 79.275106 145.426914 
L 78.934031 150.108547 
L 78.684768 154.79018 
L 78.539801 159.471812 
L 78.49757 164.153445 
L 78.571695 168.835078 
L 78.800806 173.51671 
L 79.243888 178.198343 
L 79.972462 182.879976 
L 81.070446 187.561608 
L 81.483818 188.733239 
L 82.692003 192.243241 
L 84.969223 196.924873 
L 85.965195 198.271034 
L 88.644346 201.606506 
L 90.446573 203.097314 
L 94.927951 205.386475 
L 98.888103 206.288139 
L 99.409328 206.410327 
L 103.890706 206.786283 
L 108.372083 206.835205 
L 112.853461 206.713684 
L 117.334838 206.519171 
L 121.816216 206.317154 
L 122.54855 206.288139 
L 126.297593 206.121331 
L 130.778971 205.943346 
L 135.260348 205.690531 
L 139.741726 205.130784 
L 144.223104 204.122632 
L 148.704481 202.958379 
L 153.185859 201.887461 
L 154.651495 201.606506 
L 157.667236 200.91453 
L 162.148614 200.197341 
L 166.629991 199.801526 
L 171.111369 199.722068 
L 175.592746 199.919912 
L 180.074124 200.182235 
L 184.555502 199.270325 
L 189.036879 197.360225 
L 190.150512 196.924873 
L 193.518257 195.177332 
L 197.999634 193.401034 
L 201.890763 192.243241 
L 202.481012 192.019492 
L 206.962389 190.803513 
L 211.443767 190.006647 
L 215.925144 189.525453 
L 220.406522 189.147845 
L 224.887899 188.272068 
L 226.565331 187.561608 
L 229.369277 186.113787 
L 233.850655 183.485883 
L 234.948061 182.879976 
L 238.332032 180.537014 
L 242.075995 178.198343 
L 242.81341 177.593194 
L 247.294787 173.933291 
L 247.764949 173.51671 
L 251.666878 168.835078 
L 251.776165 168.666402 
L 254.255687 164.153445 
L 256.257542 159.883563 
L 256.420248 159.471812 
L 258.079285 154.79018 
L 259.668588 150.108547 
L 260.73892 146.843522 
L 261.134237 145.426914 
L 262.424286 140.745282 
L 263.766017 136.063649 
L 265.190534 131.382016 
L 265.220297 131.288846 
L 266.499799 126.700384 
L 267.903466 122.018751 
L 269.419378 117.337118 
L 269.701675 116.519353 
" style="fill:none;stroke:#000000;stroke-width:1.5;"/>
   </g>
   <g id="LineCollection_3">
    <path clip-path="url(#pf6d39e998f)" d="M 92.60346 14.3412 
L 91.78428 19.022833 
L 91.492407 23.704465 
L 91.201448 28.386098 
L 90.799104 33.067731 
L 90.446573 36.032863 
L 90.27473 37.749363 
L 89.657371 42.430996 
L 88.894944 47.112629 
L 88.036285 51.794261 
L 87.224978 56.475894 
L 86.737299 61.157527 
L 86.641229 65.839159 
L 86.662253 70.520792 
L 86.601494 75.202424 
L 86.368231 79.884057 
L 85.965195 84.226698 
L 85.937586 84.56569 
L 85.392326 89.247322 
L 84.725618 93.928955 
L 84.02707 98.610588 
L 83.43685 103.29222 
L 83.086233 107.973853 
L 82.962888 112.655486 
L 82.934955 117.337118 
L 82.883376 122.018751 
L 82.739767 126.700384 
L 82.47786 131.382016 
L 82.10333 136.063649 
L 81.651294 140.745282 
L 81.483818 142.411196 
L 81.214901 145.426914 
L 80.85222 150.108547 
L 80.604466 154.79018 
L 80.481911 159.471812 
L 80.466702 164.153445 
L 80.556799 168.835078 
L 80.780606 173.51671 
L 81.190984 178.198343 
L 81.483818 180.217362 
L 81.892883 182.879976 
L 82.96278 187.561608 
L 84.449299 192.243241 
L 85.965195 195.445473 
L 86.625136 196.924873 
L 90.442058 201.606506 
L 90.446573 201.610241 
L 94.927951 203.994107 
L 99.409328 204.850923 
L 103.890706 205.106684 
L 108.372083 205.056797 
L 112.853461 204.858677 
L 117.334838 204.615042 
L 121.816216 204.394444 
L 126.297593 204.236254 
L 130.778971 204.137522 
L 135.260348 204.000475 
L 139.741726 203.464929 
L 144.223104 202.352891 
L 146.965858 201.606506 
L 148.704481 201.005564 
L 153.185859 199.686148 
L 157.667236 198.661102 
L 162.148614 197.956819 
L 166.629991 197.583254 
L 171.111369 197.54026 
L 175.592746 197.807495 
L 180.074124 198.252549 
L 184.555502 197.296089 
L 185.41452 196.924873 
L 189.036879 194.558903 
L 193.518257 192.387103 
L 193.888769 192.243241 
L 197.999634 190.212897 
L 202.481012 188.57272 
L 206.233567 187.561608 
L 206.962389 187.298734 
L 211.443767 186.101577 
L 215.925144 185.12534 
L 220.406522 184.049322 
L 223.720064 182.879976 
L 224.887899 182.291157 
L 229.369277 179.454541 
L 231.237634 178.198343 
L 233.850655 175.897512 
L 236.714277 173.51671 
L 238.332032 171.724942 
L 241.055127 168.835078 
L 242.81341 166.453636 
L 244.420827 164.153445 
L 247.225538 159.471812 
L 247.294787 159.347277 
L 249.373048 154.79018 
L 251.519585 150.108547 
L 251.776165 149.550006 
L 253.291011 145.426914 
L 255.040924 140.745282 
L 256.257542 137.554401 
L 256.73029 136.063649 
L 258.267733 131.382016 
L 259.900153 126.700384 
L 260.73892 124.431626 
L 261.509062 122.018751 
L 263.106221 117.337118 
L 264.851919 112.655486 
L 265.220297 111.673164 
L 266.438859 107.973853 
L 267.540148 103.29222 
L 268.195957 98.610588 
L 268.866132 93.928955 
L 269.604267 89.247322 
L 269.701675 88.689138 
" style="fill:none;stroke:#000000;stroke-width:1.5;"/>
   </g>
   <g id="LineCollection_4">
    <path clip-path="url(#pf6d39e998f)" d="M 94.652987 14.3412 
L 94.206527 19.022833 
L 94.073028 23.704465 
L 93.849155 28.386098 
L 93.48342 33.067731 
L 92.947345 37.749363 
L 92.218873 42.430996 
L 91.284406 47.112629 
L 90.446573 50.585828 
L 90.21309 51.794261 
L 89.284119 56.475894 
L 88.738853 61.157527 
L 88.780524 65.839159 
L 88.929017 70.520792 
L 88.947971 75.202424 
L 88.758941 79.884057 
L 88.339554 84.56569 
L 87.699272 89.247322 
L 86.883665 93.928955 
L 86.005422 98.610588 
L 85.965195 98.857316 
L 85.348164 103.29222 
L 84.995846 107.973853 
L 84.942014 112.655486 
L 84.999926 117.337118 
L 85.016594 122.018751 
L 84.915448 126.700384 
L 84.669663 131.382016 
L 84.285528 136.063649 
L 83.79941 140.745282 
L 83.283921 145.426914 
L 82.847545 150.108547 
L 82.582072 154.79018 
L 82.484719 159.471812 
L 82.50629 164.153445 
L 82.627517 168.835078 
L 82.869567 173.51671 
L 83.280305 178.198343 
L 83.918792 182.879976 
L 84.848208 187.561608 
L 85.965195 191.444898 
L 86.196058 192.243241 
L 88.251719 196.924873 
L 90.446573 199.616713 
L 93.010805 201.606506 
L 94.927951 202.626432 
L 99.409328 203.307662 
L 103.890706 203.387929 
L 108.372083 203.228859 
L 112.853461 202.973722 
L 117.334838 202.710928 
L 121.816216 202.501615 
L 126.297593 202.384609 
L 130.778971 202.363725 
L 135.260348 202.340392 
L 139.741726 201.828619 
L 140.602885 201.606506 
L 141.79225 201.19976 
" style="fill:none;stroke:#000000;stroke-width:1.5;"/>
    <path clip-path="url(#pf6d39e998f)" d="M 190.952611 190.233477 
L 193.518257 188.720157 
L 196.052009 187.561608 
L 197.999634 186.428677 
L 202.481012 184.373854 
L 206.645643 182.879976 
L 206.962389 182.722347 
L 211.443767 180.836699 
L 215.925144 178.999164 
L 217.710067 178.198343 
L 220.406522 176.287616 
L 223.857639 173.51671 
L 224.887899 172.090813 
L 227.282477 168.835078 
L 228.970736 164.153445 
L 229.084091 159.471812 
L 227.845687 154.79018 
L 229.369277 152.073403 
L 233.850655 150.141088 
L 233.887689 150.108547 
L 238.332032 147.409864 
L 240.094045 145.426914 
L 242.81341 142.37983 
L 243.832227 140.745282 
L 246.656258 136.063649 
L 247.294787 134.94539 
L 248.935801 131.382016 
L 251.079212 126.700384 
L 251.776165 125.185704 
L 253.014552 122.018751 
L 254.926235 117.337118 
L 256.257542 114.20343 
L 256.828611 112.655486 
L 258.532838 107.973853 
L 260.080346 103.29222 
L 260.73892 100.888445 
L 261.246785 98.610588 
L 262.167666 93.928955 
L 263.086018 89.247322 
L 264.063521 84.56569 
L 265.129697 79.884057 
L 265.220297 79.520305 
L 266.121825 75.202424 
L 267.179397 70.520792 
L 268.311493 65.839159 
L 269.52717 61.157527 
L 269.701675 59.902472 
" style="fill:none;stroke:#000000;stroke-width:1.5;"/>
   </g>
   <g id="LineCollection_5">
    <path clip-path="url(#pf6d39e998f)" d="M 102.938845 14.3412 
L 99.409328 16.935547 
L 98.109387 19.022833 
L 97.398867 23.704465 
L 96.45356 33.067731 
L 95.781883 37.749363 
L 93.953987 47.112629 
L 92.802944 51.794261 
L 91.530096 56.475894 
L 90.76164 61.157527 
L 91.421544 75.202424 
L 91.239517 79.884057 
L 90.754347 84.56569 
L 89.183893 93.928955 
L 87.340127 103.29222 
L 86.945278 107.973853 
L 87.006996 112.655486 
L 87.29096 122.018751 
L 87.222508 126.700384 
L 86.957228 131.382016 
L 86.50256 136.063649 
L 85.342658 145.426914 
L 84.862538 150.108547 
L 84.603534 154.79018 
L 84.555384 159.471812 
L 84.769064 168.835078 
L 85.001751 173.51671 
L 85.36396 178.198343 
L 85.965195 183.192153 
L 86.81658 187.561608 
L 88.057949 192.243241 
L 89.849455 196.924873 
L 90.446573 197.657199 
L 94.927951 201.196104 
L 99.409328 201.79177 
L 105.521499 201.606506 
L 121.816216 200.43948 
L 126.297593 200.333777 
L 135.260348 200.480383 
L 139.741726 199.887882 
L 153.185859 194.858834 
L 157.667236 193.615916 
L 162.148614 192.762035 
L 167.384547 192.243241 
L 171.111369 192.054144 
L 175.592746 192.1472 
L 180.074124 191.968298 
L 184.555502 189.922142 
L 189.036879 187.125904 
L 193.518257 184.119507 
L 195.803717 182.879976 
L 197.999634 181.340054 
L 203.577639 178.198343 
L 210.274763 173.51671 
L 211.443767 172.232377 
L 214.356274 168.835078 
L 216.3079 164.153445 
L 217.011429 159.471812 
L 217.35012 154.79018 
L 218.282834 150.108547 
L 220.605076 145.426914 
L 224.887899 140.393958 
L 229.559992 136.063649 
L 233.906534 131.382016 
L 237.253681 126.700384 
L 239.972486 122.018751 
L 242.81341 116.798231 
L 244.825881 112.655486 
L 247.294787 107.970044 
L 251.776165 97.637919 
L 254.473929 89.247322 
L 256.257542 83.640326 
L 258.617723 75.202424 
L 261.492496 65.839159 
L 262.774614 61.157527 
L 263.840718 56.475894 
L 265.220297 48.559281 
L 266.516238 37.749363 
L 267.316653 28.386098 
L 267.508074 23.704465 
L 267.342387 19.022833 
L 265.220297 15.524295 
L 263.009196 14.3412 
L 263.009196 14.3412 
" style="fill:none;stroke:#000000;stroke-width:1.5;"/>
   </g>
   <g id="LineCollection_6">
    <path clip-path="url(#pf6d39e998f)" d="M 115.188711 14.3412 
L 112.853461 15.207033 
L 108.372083 17.151985 
L 105.006968 19.022833 
L 103.890706 20.141709 
L 101.92021 23.704465 
L 100.754932 28.386098 
L 98.190818 42.430996 
L 97.056442 47.112629 
L 95.575608 51.794261 
L 94.927951 53.373901 
L 94.032736 56.475894 
L 93.116924 61.157527 
L 94.007295 70.520792 
L 94.159272 75.202424 
L 94.007967 79.884057 
L 93.541675 84.56569 
L 92.759554 89.247322 
L 91.674988 93.928955 
L 90.366472 98.610588 
L 89.351845 103.29222 
L 88.937543 107.973853 
L 89.670415 122.018751 
L 89.649828 126.700384 
L 89.404045 131.382016 
L 88.94185 136.063649 
L 86.939017 150.108547 
L 86.663935 154.79018 
L 86.685678 159.471812 
L 87.026577 168.835078 
L 87.662071 178.198343 
L 88.193103 182.879976 
L 88.923772 187.561608 
L 89.886819 192.243241 
L 90.446573 193.79132 
L 91.725479 196.924873 
L 94.927951 199.521986 
L 99.409328 199.831932 
L 103.890706 199.572607 
L 117.334838 198.456735 
L 121.816216 198.228908 
L 126.297593 198.148914 
L 130.778971 198.241981 
L 135.260348 198.468981 
L 139.741726 197.929044 
L 142.335561 196.924873 
L 144.223104 195.812424 
L 148.704481 193.747718 
L 157.667236 190.553197 
L 162.148614 189.447862 
L 166.629991 188.718724 
L 177.25209 187.561608 
L 180.074124 186.761582 
L 184.555502 184.301416 
L 186.70165 182.879976 
L 189.036879 180.967005 
L 192.679068 178.198343 
L 193.518257 177.360001 
L 197.999634 173.373871 
L 202.000747 168.835078 
L 204.731018 164.153445 
L 206.46694 159.471812 
L 206.962389 157.729552 
L 208.874503 150.108547 
L 210.474918 145.426914 
L 212.525638 140.745282 
L 215.925144 134.310268 
L 217.659305 131.382016 
L 220.406522 125.999317 
L 222.15513 122.018751 
L 223.50162 117.337118 
L 224.115254 112.655486 
L 224.161911 107.973853 
L 224.887899 106.14808 
L 227.162592 103.29222 
L 229.369277 101.395098 
L 232.858989 98.610588 
L 233.850655 97.645617 
L 237.129937 93.928955 
L 238.332032 92.312365 
L 240.252627 89.247322 
L 242.87342 84.56569 
L 244.954192 79.884057 
L 247.294787 74.944033 
L 249.120717 70.520792 
L 251.776165 64.984967 
L 256.257542 53.37168 
L 256.695448 51.794261 
L 257.853893 47.112629 
L 258.851327 42.430996 
L 259.663392 37.749363 
L 260.214983 33.067731 
L 260.293287 28.386098 
L 259.16791 23.704465 
L 256.257542 20.669063 
L 253.668279 19.022833 
L 251.776165 18.344906 
L 239.523112 14.3412 
L 239.523112 14.3412 
" style="fill:none;stroke:#000000;stroke-width:1.5;"/>
   </g>
   <g id="LineCollection_7">
    <path clip-path="url(#pf6d39e998f)" d="M 133.755652 14.3412 
L 130.778971 15.157439 
L 126.297593 16.37776 
L 121.816216 17.642547 
L 117.347124 19.022833 
L 117.334838 19.027617 
L 112.853461 21.184566 
L 109.128417 23.704465 
L 108.372083 24.50401 
L 106.102575 28.386098 
L 104.408562 33.067731 
L 103.890706 34.730149 
L 103.230067 37.749363 
L 102.104267 42.430996 
L 100.726435 47.112629 
L 99.409328 50.622188 
L 99.068039 51.794261 
L 97.440428 56.475894 
L 95.946769 61.157527 
L 96.725963 65.839159 
L 97.227265 70.520792 
L 97.392099 75.202424 
L 97.201357 79.884057 
L 96.636143 84.56569 
L 95.667958 89.247322 
L 94.927951 91.709565 
L 94.410164 93.928955 
L 93.034993 98.610588 
L 91.574604 103.29222 
L 91.013101 107.973853 
L 91.525404 112.655486 
L 92.058695 117.337118 
L 92.357825 122.018751 
L 92.373568 126.700384 
L 92.096909 131.382016 
L 91.534104 136.063649 
L 90.707826 140.745282 
L 90.446573 141.928432 
L 89.843879 145.426914 
L 89.098794 150.108547 
L 88.848116 154.79018 
L 88.991979 159.471812 
L 89.212434 164.153445 
L 89.443375 168.835078 
L 89.700317 173.51671 
L 90.022143 178.198343 
L 90.446547 182.879976 
L 90.446573 182.880179 
L 91.199911 187.561608 
L 92.246591 192.243241 
L 93.753204 196.924873 
L 94.927951 197.877559 
L 99.409328 197.841134 
L 103.890706 197.455882 
L 108.372083 197.019273 
L 109.40831 196.924873 
L 112.853461 196.511651 
L 117.334838 196.089873 
L 121.816216 195.812113 
L 126.297593 195.713374 
L 130.778971 195.829791 
L 135.260348 196.188764 
L 139.741726 195.23992 
L 144.223104 192.883249 
L 145.685798 192.243241 
L 148.704481 190.553117 
L 153.185859 188.60101 
L 156.325757 187.561608 
L 157.667236 186.970717 
L 162.148614 185.471676 
L 166.629991 184.32563 
L 171.111369 183.32664 
L 172.917659 182.879976 
L 175.592746 181.827345 
L 180.074124 179.360041 
L 181.701434 178.198343 
L 184.555502 175.226859 
L 186.156586 173.51671 
L 189.036879 168.881221 
L 189.068324 168.835078 
L 190.785543 164.153445 
L 191.629456 159.471812 
L 192.381363 154.79018 
L 193.518257 152.277143 
L 194.281224 150.108547 
L 196.730002 145.426914 
L 197.999634 143.212101 
L 199.140653 140.745282 
L 201.402763 136.063649 
L 202.481012 133.753684 
L 203.519956 131.382016 
L 205.456128 126.700384 
L 206.962389 122.65459 
L 207.193077 122.018751 
L 208.640104 117.337118 
L 209.915963 112.655486 
L 211.195104 107.973853 
L 211.443767 107.184043 
L 212.107398 104.951576 
" style="fill:none;stroke:#000000;stroke-width:1.5;"/>
    <path clip-path="url(#pf6d39e998f)" d="M 227.044541 55.435735 
L 229.369277 54.696928 
L 233.850655 54.20117 
L 238.332032 52.751327 
L 239.663792 51.794261 
L 242.81341 49.142071 
L 244.258162 47.112629 
L 246.736446 42.430996 
L 247.294787 40.463802 
L 247.875054 37.749363 
L 247.739982 33.067731 
L 247.294787 31.959135 
L 245.324376 28.386098 
L 242.81341 26.39915 
L 238.872056 23.704465 
L 238.332032 23.471737 
L 233.850655 21.55289 
L 229.369277 19.495349 
L 228.168307 19.022833 
L 224.887899 18.066133 
L 220.406522 17.499057 
L 215.925144 17.01379 
L 211.443767 16.422941 
L 206.962389 15.6931 
L 202.481012 14.818821 
L 200.383213 14.3412 
" style="fill:none;stroke:#000000;stroke-width:1.5;"/>
   </g>
   <g id="LineCollection_8">
    <path clip-path="url(#pf6d39e998f)" d="M 94.927951 192.696666 
L 99.409328 194.82114 
L 103.890706 194.560579 
L 117.334838 193.341804 
L 121.816216 193.075723 
L 126.297593 192.943634 
L 135.260348 192.879019 
L 137.897503 192.243241 
L 139.741726 191.607416 
L 144.223104 189.047157 
L 147.173956 187.561608 
L 148.704481 186.589212 
L 153.185859 184.207302 
L 156.378985 182.879976 
L 157.667236 182.136824 
L 162.148614 180.006609 
L 166.629991 178.070237 
L 171.111369 175.009274 
L 172.998901 173.51671 
L 175.970419 168.835078 
L 176.887893 164.153445 
L 176.552231 159.471812 
L 175.92958 154.79018 
L 176.219241 150.108547 
L 178.112908 145.426914 
L 180.074124 142.039984 
L 181.118933 140.745282 
L 184.555502 135.493774 
L 186.924851 131.382016 
L 189.036879 126.57507 
L 190.589468 122.018751 
L 191.846992 117.337118 
L 194.177495 107.973853 
L 195.604704 103.29222 
L 198.75198 93.928955 
L 200.137416 89.247322 
L 201.362043 84.56569 
L 202.481012 79.427667 
L 203.988502 70.520792 
L 204.952956 65.839159 
L 206.362967 61.157527 
L 206.962389 59.737239 
L 208.139047 56.475894 
L 211.443767 49.998853 
L 215.862259 42.430996 
L 215.925144 42.210558 
L 217.466465 37.749363 
L 216.173161 33.067731 
L 215.925144 32.858461 
L 209.947959 28.386098 
L 202.481012 25.414143 
L 197.999634 23.540153 
L 193.518257 22.051729 
L 184.555502 18.79822 
L 180.074124 18.202331 
L 169.421271 19.022833 
L 166.629991 19.271347 
L 157.667236 19.723537 
L 139.741726 20.07503 
L 135.260348 20.756534 
L 130.778971 21.79368 
L 123.88947 23.704465 
L 121.816216 24.511524 
L 117.334838 26.764041 
L 115.051959 28.386098 
L 112.853461 30.57751 
L 111.225857 33.067731 
L 108.372083 38.962609 
L 107.271675 42.430996 
L 105.652857 47.112629 
L 103.76081 51.794261 
L 102.154696 56.475894 
L 100.904947 61.157527 
L 100.903434 65.839159 
L 101.204717 70.520792 
L 101.264538 75.202424 
L 100.963601 79.884057 
L 100.24366 84.56569 
L 97.82105 93.928955 
L 96.02054 98.610588 
L 94.927951 100.706707 
L 94.058969 103.29222 
L 93.44442 107.973853 
L 94.193405 112.655486 
L 94.927951 118.812944 
L 95.242527 122.018751 
L 95.298374 126.700384 
L 94.927951 131.65201 
L 94.405783 136.063649 
L 93.572541 140.745282 
L 91.419285 150.108547 
L 91.142187 154.79018 
L 92.848732 178.198343 
L 93.344551 182.879976 
L 93.999841 187.561608 
L 94.927951 192.696666 
L 94.927951 192.696666 
" style="fill:none;stroke:#000000;stroke-width:1.5;"/>
   </g>
   <g id="LineCollection_9">
    <path clip-path="url(#pf6d39e998f)" d="M 99.409328 189.564333 
L 103.890706 190.917448 
L 108.372083 190.815306 
L 112.853461 190.460062 
L 117.334838 190.072365 
L 121.816216 189.7281 
L 126.297593 189.448418 
L 130.778971 189.164493 
L 135.260348 188.536221 
L 138.037534 187.561608 
L 139.741726 186.74169 
L 144.223104 183.956971 
L 146.059348 182.879976 
L 148.704481 180.821744 
L 152.738675 178.198343 
L 153.185859 177.776402 
L 157.667236 174.161469 
L 158.570701 173.51671 
L 162.148614 169.268724 
L 162.510831 168.835078 
L 164.436915 164.153445 
L 165.1647 159.471812 
L 165.441779 154.79018 
L 165.843925 150.108547 
L 166.629991 145.705954 
L 166.673714 145.426914 
L 167.805803 140.745282 
L 169.266859 136.063649 
L 170.791953 131.382016 
L 171.111369 130.208269 
L 172.086675 126.700384 
L 173.022275 122.018751 
L 173.553949 117.337118 
L 173.757084 112.655486 
L 173.903045 107.973853 
L 174.433359 103.29222 
L 175.448085 98.610588 
L 175.592746 97.954211 
L 176.55628 93.928955 
L 177.384895 89.247322 
L 177.704197 84.56569 
L 177.383965 79.884057 
L 176.389648 75.202424 
L 175.592746 72.752405 
L 174.904435 70.520792 
L 173.514171 65.839159 
L 172.910716 61.157527 
L 173.539829 56.475894 
L 175.461783 51.794261 
L 175.592746 51.496223 
L 178.068196 47.112629 
L 179.813568 42.430996 
L 178.86205 37.749363 
L 175.592746 35.127854 
L 171.435857 33.067731 
L 171.111369 32.988452 
L 166.629991 32.224245 
L 162.148614 31.719872 
L 157.667236 31.359514 
L 153.185859 31.088477 
L 148.704481 30.896909 
L 144.223104 30.826519 
L 139.741726 30.97418 
L 135.260348 31.441121 
L 130.778971 32.274651 
L 128.042101 33.067731 
L 126.297593 33.741621 
L 121.816216 36.314183 
L 120.166657 37.749363 
L 117.334838 40.78196 
L 116.315026 42.430996 
L 113.605476 47.112629 
L 112.853461 48.374168 
L 111.431611 51.794261 
L 109.377211 56.475894 
L 108.372083 59.147429 
L 107.833004 61.157527 
L 107.162394 65.839159 
L 106.87066 70.520792 
L 106.557821 75.202424 
L 105.99014 79.884057 
L 105.029852 84.56569 
L 103.890706 88.180937 
L 103.644475 89.247322 
L 102.136282 93.928955 
L 100.003609 98.610588 
L 99.409328 99.738896 
L 97.892766 103.29222 
L 96.825175 107.973853 
L 97.789364 112.655486 
L 98.481191 117.337118 
L 98.85189 122.018751 
L 98.884871 126.700384 
L 98.572749 131.382016 
L 97.908594 136.063649 
L 96.879307 140.745282 
L 95.43944 145.426914 
L 94.927951 146.708913 
L 94.039163 150.108547 
L 93.8222 154.79018 
L 94.293516 159.471812 
L 94.701459 164.153445 
L 94.927951 167.255767 
L 95.083128 168.835078 
L 95.524036 173.51671 
L 96.055499 178.198343 
L 96.828177 182.879976 
L 98.174668 187.561608 
L 99.409328 189.564333 
" style="fill:none;stroke:#000000;stroke-width:1.5;"/>
   </g>
   <g id="LineCollection_10">
    <path clip-path="url(#pf6d39e998f)" d="M 152.573061 123.908988 
L 152.548396 122.018751 
L 151.552262 117.337118 
L 149.236092 112.655486 
L 148.704481 111.784178 
L 144.223104 108.993851 
L 139.741726 108.624282 
L 139.057632 107.973853 
L 138.589146 103.29222 
L 139.741726 101.447523 
L 143.914944 98.610588 
L 144.223104 98.073419 
L 146.362697 93.928955 
L 146.564454 89.247322 
L 144.817548 84.56569 
L 144.223104 83.908528 
L 140.316744 79.884057 
L 139.741726 79.557848 
L 135.260348 76.808604 
L 132.791174 75.202424 
L 130.778971 74.085219 
L 126.297593 71.635651 
L 121.816216 70.759603 
L 117.334838 74.294665 
L 116.947403 75.202424 
L 114.925852 79.884057 
L 112.853461 84.114974 
L 112.72342 84.56569 
L 110.995723 89.247322 
L 108.59186 93.928955 
L 108.372083 94.287468 
L 106.44091 98.610588 
L 103.969956 103.29222 
L 103.890706 103.528252 
L 102.810218 107.973853 
L 102.933003 112.655486 
L 103.344508 117.337118 
L 103.577635 122.018751 
L 103.51341 126.700384 
L 103.103281 131.382016 
L 102.308951 136.063649 
L 101.080114 140.745282 
L 99.409328 145.271478 
L 99.366731 145.426914 
L 97.946957 150.108547 
L 97.506464 154.79018 
L 97.982187 159.471812 
L 98.444539 164.153445 
L 98.879787 168.835078 
L 99.361032 173.51671 
L 99.409328 173.875418 
L 100.338308 178.198343 
L 102.234435 182.879976 
L 103.890706 184.759329 
L 108.372083 186.20359 
L 112.853461 186.310027 
L 117.334838 186.006648 
L 121.816216 185.542663 
L 126.297593 184.953485 
L 130.778971 184.102432 
L 134.624567 182.879976 
L 135.260348 182.551732 
L 139.741726 179.401338 
L 141.287452 178.198343 
L 144.223104 174.617363 
L 145.221049 173.51671 
L 147.347703 168.835078 
L 147.435231 165.328418 
" style="fill:none;stroke:#000000;stroke-width:1.5;"/>
   </g>
   <g id="patch_3">
    <path d="M 49.675 244.2 
L 49.675 14.8 
" style="fill:none;stroke:#000000;stroke-linecap:square;stroke-linejoin:miter;stroke-width:0.8;"/>
   </g>
   <g id="patch_4">
    <path d="M 49.675 244.2 
L 269.2625 244.2 
" style="fill:none;stroke:#000000;stroke-linecap:square;stroke-linejoin:miter;stroke-width:0.8;"/>
   </g>
   <g id="text_15">
    <g clip-path="url(#pf6d39e998f)">
     <!-- -8000.0 -->
     <defs>
      <path d="M 4.890625 31.390625 
L 31.203125 31.390625 
L 31.203125 23.390625 
L 4.890625 23.390625 
z
" id="DejaVuSans-45"/>
      <path d="M 31.78125 34.625 
Q 24.75 34.625 20.71875 30.859375 
Q 16.703125 27.09375 16.703125 20.515625 
Q 16.703125 13.921875 20.71875 10.15625 
Q 24.75 6.390625 31.78125 6.390625 
Q 38.8125 6.390625 42.859375 10.171875 
Q 46.921875 13.96875 46.921875 20.515625 
Q 46.921875 27.09375 42.890625 30.859375 
Q 38.875 34.625 31.78125 34.625 
z
M 21.921875 38.8125 
Q 15.578125 40.375 12.03125 44.71875 
Q 8.5 49.078125 8.5 55.328125 
Q 8.5 64.0625 14.71875 69.140625 
Q 20.953125 74.21875 31.78125 74.21875 
Q 42.671875 74.21875 48.875 69.140625 
Q 55.078125 64.0625 55.078125 55.328125 
Q 55.078125 49.078125 51.53125 44.71875 
Q 48 40.375 41.703125 38.8125 
Q 48.828125 37.15625 52.796875 32.3125 
Q 56.78125 27.484375 56.78125 20.515625 
Q 56.78125 9.90625 50.3125 4.234375 
Q 43.84375 -1.421875 31.78125 -1.421875 
Q 19.734375 -1.421875 13.25 4.234375 
Q 6.78125 9.90625 6.78125 20.515625 
Q 6.78125 27.484375 10.78125 32.3125 
Q 14.796875 37.15625 21.921875 38.8125 
z
M 18.3125 54.390625 
Q 18.3125 48.734375 21.84375 45.5625 
Q 25.390625 42.390625 31.78125 42.390625 
Q 38.140625 42.390625 41.71875 45.5625 
Q 45.3125 48.734375 45.3125 54.390625 
Q 45.3125 60.0625 41.71875 63.234375 
Q 38.140625 66.40625 31.78125 66.40625 
Q 25.390625 66.40625 21.84375 63.234375 
Q 18.3125 60.0625 18.3125 54.390625 
z
" id="DejaVuSans-56"/>
     </defs>
     <g transform="translate(80.856051 122.74913)rotate(-85.468067)scale(0.1 -0.1)">
      <use xlink:href="#DejaVuSans-45"/>
      <use x="36.083984" xlink:href="#DejaVuSans-56"/>
      <use x="99.707031" xlink:href="#DejaVuSans-48"/>
      <use x="163.330078" xlink:href="#DejaVuSans-48"/>
      <use x="226.953125" xlink:href="#DejaVuSans-48"/>
      <use x="290.576172" xlink:href="#DejaVuSans-46"/>
      <use x="322.363281" xlink:href="#DejaVuSans-48"/>
     </g>
    </g>
   </g>
   <g id="text_16">
    <g clip-path="url(#pf6d39e998f)">
     <!-- -7581.9 -->
     <defs>
      <path d="M 8.203125 72.90625 
L 55.078125 72.90625 
L 55.078125 68.703125 
L 28.609375 0 
L 18.3125 0 
L 43.21875 64.59375 
L 8.203125 64.59375 
z
" id="DejaVuSans-55"/>
      <path d="M 10.984375 1.515625 
L 10.984375 10.5 
Q 14.703125 8.734375 18.5 7.8125 
Q 22.3125 6.890625 25.984375 6.890625 
Q 35.75 6.890625 40.890625 13.453125 
Q 46.046875 20.015625 46.78125 33.40625 
Q 43.953125 29.203125 39.59375 26.953125 
Q 35.25 24.703125 29.984375 24.703125 
Q 19.046875 24.703125 12.671875 31.3125 
Q 6.296875 37.9375 6.296875 49.421875 
Q 6.296875 60.640625 12.9375 67.421875 
Q 19.578125 74.21875 30.609375 74.21875 
Q 43.265625 74.21875 49.921875 64.515625 
Q 56.59375 54.828125 56.59375 36.375 
Q 56.59375 19.140625 48.40625 8.859375 
Q 40.234375 -1.421875 26.421875 -1.421875 
Q 22.703125 -1.421875 18.890625 -0.6875 
Q 15.09375 0.046875 10.984375 1.515625 
z
M 30.609375 32.421875 
Q 37.25 32.421875 41.125 36.953125 
Q 45.015625 41.5 45.015625 49.421875 
Q 45.015625 57.28125 41.125 61.84375 
Q 37.25 66.40625 30.609375 66.40625 
Q 23.96875 66.40625 20.09375 61.84375 
Q 16.21875 57.28125 16.21875 49.421875 
Q 16.21875 41.5 20.09375 36.953125 
Q 23.96875 32.421875 30.609375 32.421875 
z
" id="DejaVuSans-57"/>
     </defs>
     <g transform="translate(147.986891 200.693195)rotate(-8.868364)scale(0.1 -0.1)">
      <use xlink:href="#DejaVuSans-45"/>
      <use x="36.083984" xlink:href="#DejaVuSans-55"/>
      <use x="99.707031" xlink:href="#DejaVuSans-53"/>
      <use x="163.330078" xlink:href="#DejaVuSans-56"/>
      <use x="226.953125" xlink:href="#DejaVuSans-49"/>
      <use x="290.576172" xlink:href="#DejaVuSans-46"/>
      <use x="322.363281" xlink:href="#DejaVuSans-57"/>
     </g>
    </g>
   </g>
   <g id="text_17">
    <g clip-path="url(#pf6d39e998f)">
     <!-- -7185.6 -->
     <defs>
      <path d="M 33.015625 40.375 
Q 26.375 40.375 22.484375 35.828125 
Q 18.609375 31.296875 18.609375 23.390625 
Q 18.609375 15.53125 22.484375 10.953125 
Q 26.375 6.390625 33.015625 6.390625 
Q 39.65625 6.390625 43.53125 10.953125 
Q 47.40625 15.53125 47.40625 23.390625 
Q 47.40625 31.296875 43.53125 35.828125 
Q 39.65625 40.375 33.015625 40.375 
z
M 52.59375 71.296875 
L 52.59375 62.3125 
Q 48.875 64.0625 45.09375 64.984375 
Q 41.3125 65.921875 37.59375 65.921875 
Q 27.828125 65.921875 22.671875 59.328125 
Q 17.53125 52.734375 16.796875 39.40625 
Q 19.671875 43.65625 24.015625 45.921875 
Q 28.375 48.1875 33.59375 48.1875 
Q 44.578125 48.1875 50.953125 41.515625 
Q 57.328125 34.859375 57.328125 23.390625 
Q 57.328125 12.15625 50.6875 5.359375 
Q 44.046875 -1.421875 33.015625 -1.421875 
Q 20.359375 -1.421875 13.671875 8.265625 
Q 6.984375 17.96875 6.984375 36.375 
Q 6.984375 53.65625 15.1875 63.9375 
Q 23.390625 74.21875 37.203125 74.21875 
Q 40.921875 74.21875 44.703125 73.484375 
Q 48.484375 72.75 52.59375 71.296875 
z
" id="DejaVuSans-54"/>
     </defs>
     <g transform="translate(220.473992 99.287806)rotate(-76.302553)scale(0.1 -0.1)">
      <use xlink:href="#DejaVuSans-45"/>
      <use x="36.083984" xlink:href="#DejaVuSans-55"/>
      <use x="99.707031" xlink:href="#DejaVuSans-49"/>
      <use x="163.330078" xlink:href="#DejaVuSans-56"/>
      <use x="226.953125" xlink:href="#DejaVuSans-53"/>
      <use x="290.576172" xlink:href="#DejaVuSans-46"/>
      <use x="322.363281" xlink:href="#DejaVuSans-54"/>
     </g>
    </g>
   </g>
   <g id="text_18">
    <g clip-path="url(#pf6d39e998f)">
     <!-- -6810.0 -->
     <g transform="translate(137.981848 164.839353)rotate(-76.572675)scale(0.1 -0.1)">
      <use xlink:href="#DejaVuSans-45"/>
      <use x="36.083984" xlink:href="#DejaVuSans-54"/>
      <use x="99.707031" xlink:href="#DejaVuSans-56"/>
      <use x="163.330078" xlink:href="#DejaVuSans-49"/>
      <use x="226.953125" xlink:href="#DejaVuSans-48"/>
      <use x="290.576172" xlink:href="#DejaVuSans-46"/>
      <use x="322.363281" xlink:href="#DejaVuSans-48"/>
     </g>
    </g>
   </g>
  </g>
 </g>
 <defs>
  <clipPath id="pf6d39e998f">
   <rect height="229.4" width="219.5875" x="49.675" y="14.8"/>
  </clipPath>
 </defs>
</svg>
