<?xml version="1.0" encoding="utf-8" standalone="no"?>
<!DOCTYPE svg PUBLIC "-//W3C//DTD SVG 1.1//EN"
  "http://www.w3.org/Graphics/SVG/1.1/DTD/svg11.dtd">
<!-- Created with matplotlib (https://matplotlib.org/) -->
<svg height="288pt" version="1.1" viewBox="0 0 864 288" width="864pt" xmlns="http://www.w3.org/2000/svg" xmlns:xlink="http://www.w3.org/1999/xlink">
 <defs>
  <style type="text/css">
*{stroke-linecap:butt;stroke-linejoin:round;}
  </style>
 </defs>
 <g id="figure_1">
  <g id="patch_1">
   <path d="M 0 288 
L 864 288 
L 864 0 
L 0 0 
z
" style="fill:#ffffff;"/>
  </g>
  <g id="axes_1">
   <g id="patch_2">
    <path d="M 86.4 244.8 
L 777.6 244.8 
L 777.6 28.8 
L 86.4 28.8 
z
" style="fill:#ffffff;"/>
   </g>
   <g id="matplotlib.axis_1">
    <g id="xtick_1">
     <g id="line2d_1">
      <defs>
       <path d="M 0 0 
L 0 3.5 
" id="m61fc43f650" style="stroke:#000000;stroke-width:0.8;"/>
      </defs>
      <g>
       <use style="stroke:#000000;stroke-width:0.8;" x="103.68" xlink:href="#m61fc43f650" y="244.8"/>
      </g>
     </g>
     <g id="text_1">
      <!-- 0.10 -->
      <defs>
       <path d="M 31.78125 66.40625 
Q 24.171875 66.40625 20.328125 58.90625 
Q 16.5 51.421875 16.5 36.375 
Q 16.5 21.390625 20.328125 13.890625 
Q 24.171875 6.390625 31.78125 6.390625 
Q 39.453125 6.390625 43.28125 13.890625 
Q 47.125 21.390625 47.125 36.375 
Q 47.125 51.421875 43.28125 58.90625 
Q 39.453125 66.40625 31.78125 66.40625 
z
M 31.78125 74.21875 
Q 44.046875 74.21875 50.515625 64.515625 
Q 56.984375 54.828125 56.984375 36.375 
Q 56.984375 17.96875 50.515625 8.265625 
Q 44.046875 -1.421875 31.78125 -1.421875 
Q 19.53125 -1.421875 13.0625 8.265625 
Q 6.59375 17.96875 6.59375 36.375 
Q 6.59375 54.828125 13.0625 64.515625 
Q 19.53125 74.21875 31.78125 74.21875 
z
" id="DejaVuSans-48"/>
       <path d="M 10.6875 12.40625 
L 21 12.40625 
L 21 0 
L 10.6875 0 
z
" id="DejaVuSans-46"/>
       <path d="M 12.40625 8.296875 
L 28.515625 8.296875 
L 28.515625 63.921875 
L 10.984375 60.40625 
L 10.984375 69.390625 
L 28.421875 72.90625 
L 38.28125 72.90625 
L 38.28125 8.296875 
L 54.390625 8.296875 
L 54.390625 0 
L 12.40625 0 
z
" id="DejaVuSans-49"/>
      </defs>
      <g transform="translate(92.547188 259.398438)scale(0.1 -0.1)">
       <use xlink:href="#DejaVuSans-48"/>
       <use x="63.623047" xlink:href="#DejaVuSans-46"/>
       <use x="95.410156" xlink:href="#DejaVuSans-49"/>
       <use x="159.033203" xlink:href="#DejaVuSans-48"/>
      </g>
     </g>
    </g>
    <g id="xtick_2">
     <g id="line2d_2">
      <g>
       <use style="stroke:#000000;stroke-width:0.8;" x="138.24" xlink:href="#m61fc43f650" y="244.8"/>
      </g>
     </g>
     <g id="text_2">
      <!-- 0.30 -->
      <defs>
       <path d="M 40.578125 39.3125 
Q 47.65625 37.796875 51.625 33 
Q 55.609375 28.21875 55.609375 21.1875 
Q 55.609375 10.40625 48.1875 4.484375 
Q 40.765625 -1.421875 27.09375 -1.421875 
Q 22.515625 -1.421875 17.65625 -0.515625 
Q 12.796875 0.390625 7.625 2.203125 
L 7.625 11.71875 
Q 11.71875 9.328125 16.59375 8.109375 
Q 21.484375 6.890625 26.8125 6.890625 
Q 36.078125 6.890625 40.9375 10.546875 
Q 45.796875 14.203125 45.796875 21.1875 
Q 45.796875 27.640625 41.28125 31.265625 
Q 36.765625 34.90625 28.71875 34.90625 
L 20.21875 34.90625 
L 20.21875 43.015625 
L 29.109375 43.015625 
Q 36.375 43.015625 40.234375 45.921875 
Q 44.09375 48.828125 44.09375 54.296875 
Q 44.09375 59.90625 40.109375 62.90625 
Q 36.140625 65.921875 28.71875 65.921875 
Q 24.65625 65.921875 20.015625 65.03125 
Q 15.375 64.15625 9.8125 62.3125 
L 9.8125 71.09375 
Q 15.4375 72.65625 20.34375 73.4375 
Q 25.25 74.21875 29.59375 74.21875 
Q 40.828125 74.21875 47.359375 69.109375 
Q 53.90625 64.015625 53.90625 55.328125 
Q 53.90625 49.265625 50.4375 45.09375 
Q 46.96875 40.921875 40.578125 39.3125 
z
" id="DejaVuSans-51"/>
      </defs>
      <g transform="translate(127.107188 259.398438)scale(0.1 -0.1)">
       <use xlink:href="#DejaVuSans-48"/>
       <use x="63.623047" xlink:href="#DejaVuSans-46"/>
       <use x="95.410156" xlink:href="#DejaVuSans-51"/>
       <use x="159.033203" xlink:href="#DejaVuSans-48"/>
      </g>
     </g>
    </g>
    <g id="xtick_3">
     <g id="line2d_3">
      <g>
       <use style="stroke:#000000;stroke-width:0.8;" x="172.8" xlink:href="#m61fc43f650" y="244.8"/>
      </g>
     </g>
     <g id="text_3">
      <!-- 0.50 -->
      <defs>
       <path d="M 10.796875 72.90625 
L 49.515625 72.90625 
L 49.515625 64.59375 
L 19.828125 64.59375 
L 19.828125 46.734375 
Q 21.96875 47.46875 24.109375 47.828125 
Q 26.265625 48.1875 28.421875 48.1875 
Q 40.625 48.1875 47.75 41.5 
Q 54.890625 34.8125 54.890625 23.390625 
Q 54.890625 11.625 47.5625 5.09375 
Q 40.234375 -1.421875 26.90625 -1.421875 
Q 22.3125 -1.421875 17.546875 -0.640625 
Q 12.796875 0.140625 7.71875 1.703125 
L 7.71875 11.625 
Q 12.109375 9.234375 16.796875 8.0625 
Q 21.484375 6.890625 26.703125 6.890625 
Q 35.15625 6.890625 40.078125 11.328125 
Q 45.015625 15.765625 45.015625 23.390625 
Q 45.015625 31 40.078125 35.4375 
Q 35.15625 39.890625 26.703125 39.890625 
Q 22.75 39.890625 18.8125 39.015625 
Q 14.890625 38.140625 10.796875 36.28125 
z
" id="DejaVuSans-53"/>
      </defs>
      <g transform="translate(161.667188 259.398438)scale(0.1 -0.1)">
       <use xlink:href="#DejaVuSans-48"/>
       <use x="63.623047" xlink:href="#DejaVuSans-46"/>
       <use x="95.410156" xlink:href="#DejaVuSans-53"/>
       <use x="159.033203" xlink:href="#DejaVuSans-48"/>
      </g>
     </g>
    </g>
    <g id="xtick_4">
     <g id="line2d_4">
      <g>
       <use style="stroke:#000000;stroke-width:0.8;" x="207.36" xlink:href="#m61fc43f650" y="244.8"/>
      </g>
     </g>
     <g id="text_4">
      <!-- 0.70 -->
      <defs>
       <path d="M 8.203125 72.90625 
L 55.078125 72.90625 
L 55.078125 68.703125 
L 28.609375 0 
L 18.3125 0 
L 43.21875 64.59375 
L 8.203125 64.59375 
z
" id="DejaVuSans-55"/>
      </defs>
      <g transform="translate(196.227188 259.398438)scale(0.1 -0.1)">
       <use xlink:href="#DejaVuSans-48"/>
       <use x="63.623047" xlink:href="#DejaVuSans-46"/>
       <use x="95.410156" xlink:href="#DejaVuSans-55"/>
       <use x="159.033203" xlink:href="#DejaVuSans-48"/>
      </g>
     </g>
    </g>
    <g id="xtick_5">
     <g id="line2d_5">
      <g>
       <use style="stroke:#000000;stroke-width:0.8;" x="241.92" xlink:href="#m61fc43f650" y="244.8"/>
      </g>
     </g>
     <g id="text_5">
      <!-- 0.90 -->
      <defs>
       <path d="M 10.984375 1.515625 
L 10.984375 10.5 
Q 14.703125 8.734375 18.5 7.8125 
Q 22.3125 6.890625 25.984375 6.890625 
Q 35.75 6.890625 40.890625 13.453125 
Q 46.046875 20.015625 46.78125 33.40625 
Q 43.953125 29.203125 39.59375 26.953125 
Q 35.25 24.703125 29.984375 24.703125 
Q 19.046875 24.703125 12.671875 31.3125 
Q 6.296875 37.9375 6.296875 49.421875 
Q 6.296875 60.640625 12.9375 67.421875 
Q 19.578125 74.21875 30.609375 74.21875 
Q 43.265625 74.21875 49.921875 64.515625 
Q 56.59375 54.828125 56.59375 36.375 
Q 56.59375 19.140625 48.40625 8.859375 
Q 40.234375 -1.421875 26.421875 -1.421875 
Q 22.703125 -1.421875 18.890625 -0.6875 
Q 15.09375 0.046875 10.984375 1.515625 
z
M 30.609375 32.421875 
Q 37.25 32.421875 41.125 36.953125 
Q 45.015625 41.5 45.015625 49.421875 
Q 45.015625 57.28125 41.125 61.84375 
Q 37.25 66.40625 30.609375 66.40625 
Q 23.96875 66.40625 20.09375 61.84375 
Q 16.21875 57.28125 16.21875 49.421875 
Q 16.21875 41.5 20.09375 36.953125 
Q 23.96875 32.421875 30.609375 32.421875 
z
" id="DejaVuSans-57"/>
      </defs>
      <g transform="translate(230.787188 259.398438)scale(0.1 -0.1)">
       <use xlink:href="#DejaVuSans-48"/>
       <use x="63.623047" xlink:href="#DejaVuSans-46"/>
       <use x="95.410156" xlink:href="#DejaVuSans-57"/>
       <use x="159.033203" xlink:href="#DejaVuSans-48"/>
      </g>
     </g>
    </g>
    <g id="xtick_6">
     <g id="line2d_6">
      <g>
       <use style="stroke:#000000;stroke-width:0.8;" x="276.48" xlink:href="#m61fc43f650" y="244.8"/>
      </g>
     </g>
     <g id="text_6">
      <!-- 0.10 -->
      <g transform="translate(265.347188 259.398438)scale(0.1 -0.1)">
       <use xlink:href="#DejaVuSans-48"/>
       <use x="63.623047" xlink:href="#DejaVuSans-46"/>
       <use x="95.410156" xlink:href="#DejaVuSans-49"/>
       <use x="159.033203" xlink:href="#DejaVuSans-48"/>
      </g>
     </g>
    </g>
    <g id="xtick_7">
     <g id="line2d_7">
      <g>
       <use style="stroke:#000000;stroke-width:0.8;" x="311.04" xlink:href="#m61fc43f650" y="244.8"/>
      </g>
     </g>
     <g id="text_7">
      <!-- 0.30 -->
      <g transform="translate(299.907188 259.398438)scale(0.1 -0.1)">
       <use xlink:href="#DejaVuSans-48"/>
       <use x="63.623047" xlink:href="#DejaVuSans-46"/>
       <use x="95.410156" xlink:href="#DejaVuSans-51"/>
       <use x="159.033203" xlink:href="#DejaVuSans-48"/>
      </g>
     </g>
    </g>
    <g id="xtick_8">
     <g id="line2d_8">
      <g>
       <use style="stroke:#000000;stroke-width:0.8;" x="345.6" xlink:href="#m61fc43f650" y="244.8"/>
      </g>
     </g>
     <g id="text_8">
      <!-- 0.50 -->
      <g transform="translate(334.467188 259.398438)scale(0.1 -0.1)">
       <use xlink:href="#DejaVuSans-48"/>
       <use x="63.623047" xlink:href="#DejaVuSans-46"/>
       <use x="95.410156" xlink:href="#DejaVuSans-53"/>
       <use x="159.033203" xlink:href="#DejaVuSans-48"/>
      </g>
     </g>
    </g>
    <g id="xtick_9">
     <g id="line2d_9">
      <g>
       <use style="stroke:#000000;stroke-width:0.8;" x="380.16" xlink:href="#m61fc43f650" y="244.8"/>
      </g>
     </g>
     <g id="text_9">
      <!-- 0.70 -->
      <g transform="translate(369.027188 259.398438)scale(0.1 -0.1)">
       <use xlink:href="#DejaVuSans-48"/>
       <use x="63.623047" xlink:href="#DejaVuSans-46"/>
       <use x="95.410156" xlink:href="#DejaVuSans-55"/>
       <use x="159.033203" xlink:href="#DejaVuSans-48"/>
      </g>
     </g>
    </g>
    <g id="xtick_10">
     <g id="line2d_10">
      <g>
       <use style="stroke:#000000;stroke-width:0.8;" x="414.72" xlink:href="#m61fc43f650" y="244.8"/>
      </g>
     </g>
     <g id="text_10">
      <!-- 0.90 -->
      <g transform="translate(403.587188 259.398438)scale(0.1 -0.1)">
       <use xlink:href="#DejaVuSans-48"/>
       <use x="63.623047" xlink:href="#DejaVuSans-46"/>
       <use x="95.410156" xlink:href="#DejaVuSans-57"/>
       <use x="159.033203" xlink:href="#DejaVuSans-48"/>
      </g>
     </g>
    </g>
    <g id="xtick_11">
     <g id="line2d_11">
      <g>
       <use style="stroke:#000000;stroke-width:0.8;" x="449.28" xlink:href="#m61fc43f650" y="244.8"/>
      </g>
     </g>
     <g id="text_11">
      <!-- 0.10 -->
      <g transform="translate(438.147188 259.398438)scale(0.1 -0.1)">
       <use xlink:href="#DejaVuSans-48"/>
       <use x="63.623047" xlink:href="#DejaVuSans-46"/>
       <use x="95.410156" xlink:href="#DejaVuSans-49"/>
       <use x="159.033203" xlink:href="#DejaVuSans-48"/>
      </g>
     </g>
    </g>
    <g id="xtick_12">
     <g id="line2d_12">
      <g>
       <use style="stroke:#000000;stroke-width:0.8;" x="483.84" xlink:href="#m61fc43f650" y="244.8"/>
      </g>
     </g>
     <g id="text_12">
      <!-- 0.30 -->
      <g transform="translate(472.707188 259.398438)scale(0.1 -0.1)">
       <use xlink:href="#DejaVuSans-48"/>
       <use x="63.623047" xlink:href="#DejaVuSans-46"/>
       <use x="95.410156" xlink:href="#DejaVuSans-51"/>
       <use x="159.033203" xlink:href="#DejaVuSans-48"/>
      </g>
     </g>
    </g>
    <g id="xtick_13">
     <g id="line2d_13">
      <g>
       <use style="stroke:#000000;stroke-width:0.8;" x="518.4" xlink:href="#m61fc43f650" y="244.8"/>
      </g>
     </g>
     <g id="text_13">
      <!-- 0.50 -->
      <g transform="translate(507.267188 259.398438)scale(0.1 -0.1)">
       <use xlink:href="#DejaVuSans-48"/>
       <use x="63.623047" xlink:href="#DejaVuSans-46"/>
       <use x="95.410156" xlink:href="#DejaVuSans-53"/>
       <use x="159.033203" xlink:href="#DejaVuSans-48"/>
      </g>
     </g>
    </g>
    <g id="xtick_14">
     <g id="line2d_14">
      <g>
       <use style="stroke:#000000;stroke-width:0.8;" x="552.96" xlink:href="#m61fc43f650" y="244.8"/>
      </g>
     </g>
     <g id="text_14">
      <!-- 0.70 -->
      <g transform="translate(541.827188 259.398438)scale(0.1 -0.1)">
       <use xlink:href="#DejaVuSans-48"/>
       <use x="63.623047" xlink:href="#DejaVuSans-46"/>
       <use x="95.410156" xlink:href="#DejaVuSans-55"/>
       <use x="159.033203" xlink:href="#DejaVuSans-48"/>
      </g>
     </g>
    </g>
    <g id="xtick_15">
     <g id="line2d_15">
      <g>
       <use style="stroke:#000000;stroke-width:0.8;" x="587.52" xlink:href="#m61fc43f650" y="244.8"/>
      </g>
     </g>
     <g id="text_15">
      <!-- 0.90 -->
      <g transform="translate(576.387188 259.398438)scale(0.1 -0.1)">
       <use xlink:href="#DejaVuSans-48"/>
       <use x="63.623047" xlink:href="#DejaVuSans-46"/>
       <use x="95.410156" xlink:href="#DejaVuSans-57"/>
       <use x="159.033203" xlink:href="#DejaVuSans-48"/>
      </g>
     </g>
    </g>
    <g id="xtick_16">
     <g id="line2d_16">
      <g>
       <use style="stroke:#000000;stroke-width:0.8;" x="622.08" xlink:href="#m61fc43f650" y="244.8"/>
      </g>
     </g>
     <g id="text_16">
      <!-- 0.10 -->
      <g transform="translate(610.947188 259.398438)scale(0.1 -0.1)">
       <use xlink:href="#DejaVuSans-48"/>
       <use x="63.623047" xlink:href="#DejaVuSans-46"/>
       <use x="95.410156" xlink:href="#DejaVuSans-49"/>
       <use x="159.033203" xlink:href="#DejaVuSans-48"/>
      </g>
     </g>
    </g>
    <g id="xtick_17">
     <g id="line2d_17">
      <g>
       <use style="stroke:#000000;stroke-width:0.8;" x="656.64" xlink:href="#m61fc43f650" y="244.8"/>
      </g>
     </g>
     <g id="text_17">
      <!-- 0.30 -->
      <g transform="translate(645.507187 259.398438)scale(0.1 -0.1)">
       <use xlink:href="#DejaVuSans-48"/>
       <use x="63.623047" xlink:href="#DejaVuSans-46"/>
       <use x="95.410156" xlink:href="#DejaVuSans-51"/>
       <use x="159.033203" xlink:href="#DejaVuSans-48"/>
      </g>
     </g>
    </g>
    <g id="xtick_18">
     <g id="line2d_18">
      <g>
       <use style="stroke:#000000;stroke-width:0.8;" x="691.2" xlink:href="#m61fc43f650" y="244.8"/>
      </g>
     </g>
     <g id="text_18">
      <!-- 0.50 -->
      <g transform="translate(680.067188 259.398438)scale(0.1 -0.1)">
       <use xlink:href="#DejaVuSans-48"/>
       <use x="63.623047" xlink:href="#DejaVuSans-46"/>
       <use x="95.410156" xlink:href="#DejaVuSans-53"/>
       <use x="159.033203" xlink:href="#DejaVuSans-48"/>
      </g>
     </g>
    </g>
    <g id="xtick_19">
     <g id="line2d_19">
      <g>
       <use style="stroke:#000000;stroke-width:0.8;" x="725.76" xlink:href="#m61fc43f650" y="244.8"/>
      </g>
     </g>
     <g id="text_19">
      <!-- 0.70 -->
      <g transform="translate(714.627188 259.398438)scale(0.1 -0.1)">
       <use xlink:href="#DejaVuSans-48"/>
       <use x="63.623047" xlink:href="#DejaVuSans-46"/>
       <use x="95.410156" xlink:href="#DejaVuSans-55"/>
       <use x="159.033203" xlink:href="#DejaVuSans-48"/>
      </g>
     </g>
    </g>
    <g id="xtick_20">
     <g id="line2d_20">
      <g>
       <use style="stroke:#000000;stroke-width:0.8;" x="760.32" xlink:href="#m61fc43f650" y="244.8"/>
      </g>
     </g>
     <g id="text_20">
      <!-- 0.90 -->
      <g transform="translate(749.187188 259.398438)scale(0.1 -0.1)">
       <use xlink:href="#DejaVuSans-48"/>
       <use x="63.623047" xlink:href="#DejaVuSans-46"/>
       <use x="95.410156" xlink:href="#DejaVuSans-57"/>
       <use x="159.033203" xlink:href="#DejaVuSans-48"/>
      </g>
     </g>
    </g>
    <g id="text_21">
     <!-- true $q$ -->
     <defs>
      <path d="M 18.3125 70.21875 
L 18.3125 54.6875 
L 36.8125 54.6875 
L 36.8125 47.703125 
L 18.3125 47.703125 
L 18.3125 18.015625 
Q 18.3125 11.328125 20.140625 9.421875 
Q 21.96875 7.515625 27.59375 7.515625 
L 36.8125 7.515625 
L 36.8125 0 
L 27.59375 0 
Q 17.1875 0 13.234375 3.875 
Q 9.28125 7.765625 9.28125 18.015625 
L 9.28125 47.703125 
L 2.6875 47.703125 
L 2.6875 54.6875 
L 9.28125 54.6875 
L 9.28125 70.21875 
z
" id="DejaVuSans-116"/>
      <path d="M 41.109375 46.296875 
Q 39.59375 47.171875 37.8125 47.578125 
Q 36.03125 48 33.890625 48 
Q 26.265625 48 22.1875 43.046875 
Q 18.109375 38.09375 18.109375 28.8125 
L 18.109375 0 
L 9.078125 0 
L 9.078125 54.6875 
L 18.109375 54.6875 
L 18.109375 46.1875 
Q 20.953125 51.171875 25.484375 53.578125 
Q 30.03125 56 36.53125 56 
Q 37.453125 56 38.578125 55.875 
Q 39.703125 55.765625 41.0625 55.515625 
z
" id="DejaVuSans-114"/>
      <path d="M 8.5 21.578125 
L 8.5 54.6875 
L 17.484375 54.6875 
L 17.484375 21.921875 
Q 17.484375 14.15625 20.5 10.265625 
Q 23.53125 6.390625 29.59375 6.390625 
Q 36.859375 6.390625 41.078125 11.03125 
Q 45.3125 15.671875 45.3125 23.6875 
L 45.3125 54.6875 
L 54.296875 54.6875 
L 54.296875 0 
L 45.3125 0 
L 45.3125 8.40625 
Q 42.046875 3.421875 37.71875 1 
Q 33.40625 -1.421875 27.6875 -1.421875 
Q 18.265625 -1.421875 13.375 4.4375 
Q 8.5 10.296875 8.5 21.578125 
z
M 31.109375 56 
z
" id="DejaVuSans-117"/>
      <path d="M 56.203125 29.59375 
L 56.203125 25.203125 
L 14.890625 25.203125 
Q 15.484375 15.921875 20.484375 11.0625 
Q 25.484375 6.203125 34.421875 6.203125 
Q 39.59375 6.203125 44.453125 7.46875 
Q 49.3125 8.734375 54.109375 11.28125 
L 54.109375 2.78125 
Q 49.265625 0.734375 44.1875 -0.34375 
Q 39.109375 -1.421875 33.890625 -1.421875 
Q 20.796875 -1.421875 13.15625 6.1875 
Q 5.515625 13.8125 5.515625 26.8125 
Q 5.515625 40.234375 12.765625 48.109375 
Q 20.015625 56 32.328125 56 
Q 43.359375 56 49.78125 48.890625 
Q 56.203125 41.796875 56.203125 29.59375 
z
M 47.21875 32.234375 
Q 47.125 39.59375 43.09375 43.984375 
Q 39.0625 48.390625 32.421875 48.390625 
Q 24.90625 48.390625 20.390625 44.140625 
Q 15.875 39.890625 15.1875 32.171875 
z
" id="DejaVuSans-101"/>
      <path id="DejaVuSans-32"/>
      <path d="M 41.703125 8.203125 
Q 38.09375 3.46875 33.171875 1.015625 
Q 28.265625 -1.421875 22.3125 -1.421875 
Q 14.015625 -1.421875 9.296875 4.171875 
Q 4.59375 9.765625 4.59375 19.578125 
Q 4.59375 27.484375 7.5 34.859375 
Q 10.40625 42.234375 15.828125 48.09375 
Q 19.34375 51.90625 23.90625 53.953125 
Q 28.46875 56 33.5 56 
Q 39.546875 56 43.453125 53.609375 
Q 47.359375 51.21875 49.125 46.390625 
L 50.6875 54.59375 
L 59.71875 54.59375 
L 45.125 -20.609375 
L 36.078125 -20.609375 
z
M 13.921875 20.90625 
Q 13.921875 13.671875 16.9375 9.890625 
Q 19.96875 6.109375 25.6875 6.109375 
Q 34.1875 6.109375 40.1875 14.234375 
Q 46.1875 22.359375 46.1875 33.984375 
Q 46.1875 41.015625 43.078125 44.75 
Q 39.984375 48.484375 34.1875 48.484375 
Q 29.9375 48.484375 26.3125 46.5 
Q 22.703125 44.53125 20.015625 40.71875 
Q 17.1875 36.71875 15.546875 31.34375 
Q 13.921875 25.984375 13.921875 20.90625 
z
" id="DejaVuSans-Oblique-113"/>
     </defs>
     <g transform="translate(416.95 273.05625)scale(0.1 -0.1)">
      <use transform="translate(0 0.78125)" xlink:href="#DejaVuSans-116"/>
      <use transform="translate(39.208984 0.78125)" xlink:href="#DejaVuSans-114"/>
      <use transform="translate(80.322266 0.78125)" xlink:href="#DejaVuSans-117"/>
      <use transform="translate(143.701172 0.78125)" xlink:href="#DejaVuSans-101"/>
      <use transform="translate(205.224609 0.78125)" xlink:href="#DejaVuSans-32"/>
      <use transform="translate(237.011719 0.78125)" xlink:href="#DejaVuSans-Oblique-113"/>
     </g>
    </g>
   </g>
   <g id="matplotlib.axis_2">
    <g id="ytick_1">
     <g id="line2d_21">
      <defs>
       <path d="M 0 0 
L -3.5 0 
" id="m046676d162" style="stroke:#000000;stroke-width:0.8;"/>
      </defs>
      <g>
       <use style="stroke:#000000;stroke-width:0.8;" x="86.4" xlink:href="#m046676d162" y="211.163718"/>
      </g>
     </g>
     <g id="text_22">
      <!-- 0.1 -->
      <g transform="translate(63.496875 214.962937)scale(0.1 -0.1)">
       <use xlink:href="#DejaVuSans-48"/>
       <use x="63.623047" xlink:href="#DejaVuSans-46"/>
       <use x="95.410156" xlink:href="#DejaVuSans-49"/>
      </g>
     </g>
    </g>
    <g id="ytick_2">
     <g id="line2d_22">
      <g>
       <use style="stroke:#000000;stroke-width:0.8;" x="86.4" xlink:href="#m046676d162" y="172.349037"/>
      </g>
     </g>
     <g id="text_23">
      <!-- 0.3 -->
      <g transform="translate(63.496875 176.148256)scale(0.1 -0.1)">
       <use xlink:href="#DejaVuSans-48"/>
       <use x="63.623047" xlink:href="#DejaVuSans-46"/>
       <use x="95.410156" xlink:href="#DejaVuSans-51"/>
      </g>
     </g>
    </g>
    <g id="ytick_3">
     <g id="line2d_23">
      <g>
       <use style="stroke:#000000;stroke-width:0.8;" x="86.4" xlink:href="#m046676d162" y="133.534356"/>
      </g>
     </g>
     <g id="text_24">
      <!-- 0.5 -->
      <g transform="translate(63.496875 137.333575)scale(0.1 -0.1)">
       <use xlink:href="#DejaVuSans-48"/>
       <use x="63.623047" xlink:href="#DejaVuSans-46"/>
       <use x="95.410156" xlink:href="#DejaVuSans-53"/>
      </g>
     </g>
    </g>
    <g id="ytick_4">
     <g id="line2d_24">
      <g>
       <use style="stroke:#000000;stroke-width:0.8;" x="86.4" xlink:href="#m046676d162" y="94.719675"/>
      </g>
     </g>
     <g id="text_25">
      <!-- 0.7 -->
      <g transform="translate(63.496875 98.518893)scale(0.1 -0.1)">
       <use xlink:href="#DejaVuSans-48"/>
       <use x="63.623047" xlink:href="#DejaVuSans-46"/>
       <use x="95.410156" xlink:href="#DejaVuSans-55"/>
      </g>
     </g>
    </g>
    <g id="ytick_5">
     <g id="line2d_25">
      <g>
       <use style="stroke:#000000;stroke-width:0.8;" x="86.4" xlink:href="#m046676d162" y="55.904993"/>
      </g>
     </g>
     <g id="text_26">
      <!-- 0.9 -->
      <g transform="translate(63.496875 59.704212)scale(0.1 -0.1)">
       <use xlink:href="#DejaVuSans-48"/>
       <use x="63.623047" xlink:href="#DejaVuSans-46"/>
       <use x="95.410156" xlink:href="#DejaVuSans-57"/>
      </g>
     </g>
    </g>
    <g id="text_27">
     <!-- $\hat{q}$ -->
     <defs>
      <path d="M -28.609375 79.984375 
L -21.390625 79.984375 
L -9.421875 61.625 
L -16.21875 61.625 
L -25 73.578125 
L -33.796875 61.625 
L -40.578125 61.625 
z
M -25 56 
z
" id="DejaVuSans-770"/>
     </defs>
     <g transform="translate(57.396875 140)rotate(-90)scale(0.1 -0.1)">
      <use transform="translate(64.447266 13.015625)" xlink:href="#DejaVuSans-770"/>
      <use transform="translate(0 0.515625)" xlink:href="#DejaVuSans-Oblique-113"/>
     </g>
    </g>
   </g>
   <g id="LineCollection_1">
    <path clip-path="url(#p46e625671a)" d="M 69.12 211.163718 
L 760.32 211.163718 
" style="fill:none;stroke:#000000;stroke-dasharray:1.5,2.475;stroke-dashoffset:0;stroke-opacity:0.1;stroke-width:1.5;"/>
    <path clip-path="url(#p46e625671a)" d="M 69.12 172.349037 
L 760.32 172.349037 
" style="fill:none;stroke:#000000;stroke-dasharray:1.5,2.475;stroke-dashoffset:0;stroke-opacity:0.1;stroke-width:1.5;"/>
    <path clip-path="url(#p46e625671a)" d="M 69.12 133.534356 
L 760.32 133.534356 
" style="fill:none;stroke:#000000;stroke-dasharray:1.5,2.475;stroke-dashoffset:0;stroke-opacity:0.1;stroke-width:1.5;"/>
    <path clip-path="url(#p46e625671a)" d="M 69.12 94.719675 
L 760.32 94.719675 
" style="fill:none;stroke:#000000;stroke-dasharray:1.5,2.475;stroke-dashoffset:0;stroke-opacity:0.1;stroke-width:1.5;"/>
    <path clip-path="url(#p46e625671a)" d="M 69.12 55.904993 
L 760.32 55.904993 
" style="fill:none;stroke:#000000;stroke-dasharray:1.5,2.475;stroke-dashoffset:0;stroke-opacity:0.1;stroke-width:1.5;"/>
   </g>
   <g id="LineCollection_2">
    <path clip-path="url(#p46e625671a)" d="M 259.2 244.8 
L 259.2 28.8 
" style="fill:none;stroke:#000000;"/>
    <path clip-path="url(#p46e625671a)" d="M 432 244.8 
L 432 28.8 
" style="fill:none;stroke:#000000;"/>
    <path clip-path="url(#p46e625671a)" d="M 604.8 244.8 
L 604.8 28.8 
" style="fill:none;stroke:#000000;"/>
   </g>
   <g id="line2d_26">
    <path clip-path="url(#p46e625671a)" d="M 95.04 215.266924 
L 112.32 215.266924 
L 112.32 211.152021 
L 95.04 211.152021 
L 95.04 215.266924 
" style="fill:none;stroke:#1f77b4;stroke-linecap:square;"/>
   </g>
   <g id="line2d_27">
    <path clip-path="url(#p46e625671a)" d="M 103.68 215.266924 
L 103.68 219.24072 
" style="fill:none;stroke:#1f77b4;stroke-linecap:square;"/>
   </g>
   <g id="line2d_28">
    <path clip-path="url(#p46e625671a)" d="M 103.68 211.152021 
L 103.68 205.147794 
" style="fill:none;stroke:#1f77b4;stroke-linecap:square;"/>
   </g>
   <g id="line2d_29">
    <path clip-path="url(#p46e625671a)" d="M 99.36 219.24072 
L 108 219.24072 
" style="fill:none;stroke:#000000;stroke-linecap:square;"/>
   </g>
   <g id="line2d_30">
    <path clip-path="url(#p46e625671a)" d="M 99.36 205.147794 
L 108 205.147794 
" style="fill:none;stroke:#000000;stroke-linecap:square;"/>
   </g>
   <g id="line2d_31">
    <defs>
     <path d="M 0 3 
C 0.795609 3 1.55874 2.683901 2.12132 2.12132 
C 2.683901 1.55874 3 0.795609 3 0 
C 3 -0.795609 2.683901 -1.55874 2.12132 -2.12132 
C 1.55874 -2.683901 0.795609 -3 0 -3 
C -0.795609 -3 -1.55874 -2.683901 -2.12132 -2.12132 
C -2.683901 -1.55874 -3 -0.795609 -3 0 
C -3 0.795609 -2.683901 1.55874 -2.12132 2.12132 
C -1.55874 2.683901 -0.795609 3 0 3 
z
" id="m8624378910" style="stroke:#000000;"/>
    </defs>
    <g clip-path="url(#p46e625671a)">
     <use style="fill-opacity:0;stroke:#000000;" x="103.68" xlink:href="#m8624378910" y="222.539873"/>
     <use style="fill-opacity:0;stroke:#000000;" x="103.68" xlink:href="#m8624378910" y="222.539873"/>
    </g>
   </g>
   <g id="line2d_32">
    <path clip-path="url(#p46e625671a)" d="M 129.6 176.611823 
L 146.88 176.611823 
L 146.88 170.635825 
L 129.6 170.635825 
L 129.6 176.611823 
" style="fill:none;stroke:#1f77b4;stroke-linecap:square;"/>
   </g>
   <g id="line2d_33">
    <path clip-path="url(#p46e625671a)" d="M 138.24 176.611823 
L 138.24 184.235901 
" style="fill:none;stroke:#1f77b4;stroke-linecap:square;"/>
   </g>
   <g id="line2d_34">
    <path clip-path="url(#p46e625671a)" d="M 138.24 170.635825 
L 138.24 164.652131 
" style="fill:none;stroke:#1f77b4;stroke-linecap:square;"/>
   </g>
   <g id="line2d_35">
    <path clip-path="url(#p46e625671a)" d="M 133.92 184.235901 
L 142.56 184.235901 
" style="fill:none;stroke:#000000;stroke-linecap:square;"/>
   </g>
   <g id="line2d_36">
    <path clip-path="url(#p46e625671a)" d="M 133.92 164.652131 
L 142.56 164.652131 
" style="fill:none;stroke:#000000;stroke-linecap:square;"/>
   </g>
   <g id="line2d_37">
    <g clip-path="url(#p46e625671a)">
     <use style="fill-opacity:0;stroke:#000000;" x="138.24" xlink:href="#m8624378910" y="187.378326"/>
     <use style="fill-opacity:0;stroke:#000000;" x="138.24" xlink:href="#m8624378910" y="230.571059"/>
    </g>
   </g>
   <g id="line2d_38">
    <path clip-path="url(#p46e625671a)" d="M 164.16 137.637097 
L 181.44 137.637097 
L 181.44 129.638819 
L 164.16 129.638819 
L 164.16 137.637097 
" style="fill:none;stroke:#1f77b4;stroke-linecap:square;"/>
   </g>
   <g id="line2d_39">
    <path clip-path="url(#p46e625671a)" d="M 172.8 137.637097 
L 172.8 144.148225 
" style="fill:none;stroke:#1f77b4;stroke-linecap:square;"/>
   </g>
   <g id="line2d_40">
    <path clip-path="url(#p46e625671a)" d="M 172.8 129.638819 
L 172.8 123.067052 
" style="fill:none;stroke:#1f77b4;stroke-linecap:square;"/>
   </g>
   <g id="line2d_41">
    <path clip-path="url(#p46e625671a)" d="M 168.48 144.148225 
L 177.12 144.148225 
" style="fill:none;stroke:#000000;stroke-linecap:square;"/>
   </g>
   <g id="line2d_42">
    <path clip-path="url(#p46e625671a)" d="M 168.48 123.067052 
L 177.12 123.067052 
" style="fill:none;stroke:#000000;stroke-linecap:square;"/>
   </g>
   <g id="line2d_43"/>
   <g id="line2d_44">
    <path clip-path="url(#p46e625671a)" d="M 198.72 99.263735 
L 216 99.263735 
L 216 94.143728 
L 198.72 94.143728 
L 198.72 99.263735 
" style="fill:none;stroke:#1f77b4;stroke-linecap:square;"/>
   </g>
   <g id="line2d_45">
    <path clip-path="url(#p46e625671a)" d="M 207.36 99.263735 
L 207.36 104.505497 
" style="fill:none;stroke:#1f77b4;stroke-linecap:square;"/>
   </g>
   <g id="line2d_46">
    <path clip-path="url(#p46e625671a)" d="M 207.36 94.143728 
L 207.36 86.651737 
" style="fill:none;stroke:#1f77b4;stroke-linecap:square;"/>
   </g>
   <g id="line2d_47">
    <path clip-path="url(#p46e625671a)" d="M 203.04 104.505497 
L 211.68 104.505497 
" style="fill:none;stroke:#000000;stroke-linecap:square;"/>
   </g>
   <g id="line2d_48">
    <path clip-path="url(#p46e625671a)" d="M 203.04 86.651737 
L 211.68 86.651737 
" style="fill:none;stroke:#000000;stroke-linecap:square;"/>
   </g>
   <g id="line2d_49"/>
   <g id="line2d_50">
    <path clip-path="url(#p46e625671a)" d="M 233.28 60.073699 
L 250.56 60.073699 
L 250.56 52.861709 
L 233.28 52.861709 
L 233.28 60.073699 
" style="fill:none;stroke:#1f77b4;stroke-linecap:square;"/>
   </g>
   <g id="line2d_51">
    <path clip-path="url(#p46e625671a)" d="M 241.92 60.073699 
L 241.92 67.223843 
" style="fill:none;stroke:#1f77b4;stroke-linecap:square;"/>
   </g>
   <g id="line2d_52">
    <path clip-path="url(#p46e625671a)" d="M 241.92 52.861709 
L 241.92 43.028941 
" style="fill:none;stroke:#1f77b4;stroke-linecap:square;"/>
   </g>
   <g id="line2d_53">
    <path clip-path="url(#p46e625671a)" d="M 237.6 67.223843 
L 246.24 67.223843 
" style="fill:none;stroke:#000000;stroke-linecap:square;"/>
   </g>
   <g id="line2d_54">
    <path clip-path="url(#p46e625671a)" d="M 237.6 43.028941 
L 246.24 43.028941 
" style="fill:none;stroke:#000000;stroke-linecap:square;"/>
   </g>
   <g id="line2d_55"/>
   <g id="line2d_56">
    <path clip-path="url(#p46e625671a)" d="M 267.84 230.571059 
L 285.12 230.571059 
L 285.12 220.775692 
L 267.84 220.775692 
L 267.84 230.571059 
" style="fill:none;stroke:#1f77b4;stroke-linecap:square;"/>
   </g>
   <g id="line2d_57">
    <path clip-path="url(#p46e625671a)" d="M 276.48 230.571059 
L 276.48 230.571059 
" style="fill:none;stroke:#1f77b4;stroke-linecap:square;"/>
   </g>
   <g id="line2d_58">
    <path clip-path="url(#p46e625671a)" d="M 276.48 220.775692 
L 276.48 211.524758 
" style="fill:none;stroke:#1f77b4;stroke-linecap:square;"/>
   </g>
   <g id="line2d_59">
    <path clip-path="url(#p46e625671a)" d="M 272.16 230.571059 
L 280.8 230.571059 
" style="fill:none;stroke:#000000;stroke-linecap:square;"/>
   </g>
   <g id="line2d_60">
    <path clip-path="url(#p46e625671a)" d="M 272.16 211.524758 
L 280.8 211.524758 
" style="fill:none;stroke:#000000;stroke-linecap:square;"/>
   </g>
   <g id="line2d_61"/>
   <g id="line2d_62">
    <path clip-path="url(#p46e625671a)" d="M 302.4 196.880713 
L 319.68 196.880713 
L 319.68 179.34012 
L 302.4 179.34012 
L 302.4 196.880713 
" style="fill:none;stroke:#1f77b4;stroke-linecap:square;"/>
   </g>
   <g id="line2d_63">
    <path clip-path="url(#p46e625671a)" d="M 311.04 196.880713 
L 311.04 208.982025 
" style="fill:none;stroke:#1f77b4;stroke-linecap:square;"/>
   </g>
   <g id="line2d_64">
    <path clip-path="url(#p46e625671a)" d="M 311.04 179.34012 
L 311.04 170.425192 
" style="fill:none;stroke:#1f77b4;stroke-linecap:square;"/>
   </g>
   <g id="line2d_65">
    <path clip-path="url(#p46e625671a)" d="M 306.72 208.982025 
L 315.36 208.982025 
" style="fill:none;stroke:#000000;stroke-linecap:square;"/>
   </g>
   <g id="line2d_66">
    <path clip-path="url(#p46e625671a)" d="M 306.72 170.425192 
L 315.36 170.425192 
" style="fill:none;stroke:#000000;stroke-linecap:square;"/>
   </g>
   <g id="line2d_67">
    <g clip-path="url(#p46e625671a)">
     <use style="fill-opacity:0;stroke:#000000;" x="311.04" xlink:href="#m8624378910" y="230.571059"/>
     <use style="fill-opacity:0;stroke:#000000;" x="311.04" xlink:href="#m8624378910" y="230.571059"/>
     <use style="fill-opacity:0;stroke:#000000;" x="311.04" xlink:href="#m8624378910" y="230.571059"/>
     <use style="fill-opacity:0;stroke:#000000;" x="311.04" xlink:href="#m8624378910" y="230.571059"/>
     <use style="fill-opacity:0;stroke:#000000;" x="311.04" xlink:href="#m8624378910" y="230.571059"/>
     <use style="fill-opacity:0;stroke:#000000;" x="311.04" xlink:href="#m8624378910" y="230.571059"/>
    </g>
   </g>
   <g id="line2d_68">
    <path clip-path="url(#p46e625671a)" d="M 336.96 155.311251 
L 354.24 155.311251 
L 354.24 145.166786 
L 336.96 145.166786 
L 336.96 155.311251 
" style="fill:none;stroke:#1f77b4;stroke-linecap:square;"/>
   </g>
   <g id="line2d_69">
    <path clip-path="url(#p46e625671a)" d="M 345.6 155.311251 
L 345.6 166.28256 
" style="fill:none;stroke:#1f77b4;stroke-linecap:square;"/>
   </g>
   <g id="line2d_70">
    <path clip-path="url(#p46e625671a)" d="M 345.6 145.166786 
L 345.6 130.488076 
" style="fill:none;stroke:#1f77b4;stroke-linecap:square;"/>
   </g>
   <g id="line2d_71">
    <path clip-path="url(#p46e625671a)" d="M 341.28 166.28256 
L 349.92 166.28256 
" style="fill:none;stroke:#000000;stroke-linecap:square;"/>
   </g>
   <g id="line2d_72">
    <path clip-path="url(#p46e625671a)" d="M 341.28 130.488076 
L 349.92 130.488076 
" style="fill:none;stroke:#000000;stroke-linecap:square;"/>
   </g>
   <g id="line2d_73">
    <g clip-path="url(#p46e625671a)">
     <use style="fill-opacity:0;stroke:#000000;" x="345.6" xlink:href="#m8624378910" y="230.571059"/>
     <use style="fill-opacity:0;stroke:#000000;" x="345.6" xlink:href="#m8624378910" y="230.571059"/>
     <use style="fill-opacity:0;stroke:#000000;" x="345.6" xlink:href="#m8624378910" y="128.492868"/>
     <use style="fill-opacity:0;stroke:#000000;" x="345.6" xlink:href="#m8624378910" y="128.492868"/>
    </g>
   </g>
   <g id="line2d_74">
    <path clip-path="url(#p46e625671a)" d="M 371.52 117.954101 
L 388.8 117.954101 
L 388.8 106.359439 
L 371.52 106.359439 
L 371.52 117.954101 
" style="fill:none;stroke:#1f77b4;stroke-linecap:square;"/>
   </g>
   <g id="line2d_75">
    <path clip-path="url(#p46e625671a)" d="M 380.16 117.954101 
L 380.16 123.094214 
" style="fill:none;stroke:#1f77b4;stroke-linecap:square;"/>
   </g>
   <g id="line2d_76">
    <path clip-path="url(#p46e625671a)" d="M 380.16 106.359439 
L 380.16 92.357258 
" style="fill:none;stroke:#1f77b4;stroke-linecap:square;"/>
   </g>
   <g id="line2d_77">
    <path clip-path="url(#p46e625671a)" d="M 375.84 123.094214 
L 384.48 123.094214 
" style="fill:none;stroke:#000000;stroke-linecap:square;"/>
   </g>
   <g id="line2d_78">
    <path clip-path="url(#p46e625671a)" d="M 375.84 92.357258 
L 384.48 92.357258 
" style="fill:none;stroke:#000000;stroke-linecap:square;"/>
   </g>
   <g id="line2d_79">
    <g clip-path="url(#p46e625671a)">
     <use style="fill-opacity:0;stroke:#000000;" x="380.16" xlink:href="#m8624378910" y="230.571059"/>
     <use style="fill-opacity:0;stroke:#000000;" x="380.16" xlink:href="#m8624378910" y="83.646263"/>
    </g>
   </g>
   <g id="line2d_80">
    <path clip-path="url(#p46e625671a)" d="M 406.08 85.358383 
L 423.36 85.358383 
L 423.36 69.47543 
L 406.08 69.47543 
L 406.08 85.358383 
" style="fill:none;stroke:#1f77b4;stroke-linecap:square;"/>
   </g>
   <g id="line2d_81">
    <path clip-path="url(#p46e625671a)" d="M 414.72 85.358383 
L 414.72 94.42066 
" style="fill:none;stroke:#1f77b4;stroke-linecap:square;"/>
   </g>
   <g id="line2d_82">
    <path clip-path="url(#p46e625671a)" d="M 414.72 69.47543 
L 414.72 50.763819 
" style="fill:none;stroke:#1f77b4;stroke-linecap:square;"/>
   </g>
   <g id="line2d_83">
    <path clip-path="url(#p46e625671a)" d="M 410.4 94.42066 
L 419.04 94.42066 
" style="fill:none;stroke:#000000;stroke-linecap:square;"/>
   </g>
   <g id="line2d_84">
    <path clip-path="url(#p46e625671a)" d="M 410.4 50.763819 
L 419.04 50.763819 
" style="fill:none;stroke:#000000;stroke-linecap:square;"/>
   </g>
   <g id="line2d_85">
    <g clip-path="url(#p46e625671a)">
     <use style="fill-opacity:0;stroke:#000000;" x="414.72" xlink:href="#m8624378910" y="230.571059"/>
     <use style="fill-opacity:0;stroke:#000000;" x="414.72" xlink:href="#m8624378910" y="230.571059"/>
    </g>
   </g>
   <g id="line2d_86">
    <path clip-path="url(#p46e625671a)" d="M 440.64 217.923357 
L 457.92 217.923357 
L 457.92 210.386646 
L 440.64 210.386646 
L 440.64 217.923357 
" style="fill:none;stroke:#1f77b4;stroke-linecap:square;"/>
   </g>
   <g id="line2d_87">
    <path clip-path="url(#p46e625671a)" d="M 449.28 217.923357 
L 449.28 224.120076 
" style="fill:none;stroke:#1f77b4;stroke-linecap:square;"/>
   </g>
   <g id="line2d_88">
    <path clip-path="url(#p46e625671a)" d="M 449.28 210.386646 
L 449.28 204.885064 
" style="fill:none;stroke:#1f77b4;stroke-linecap:square;"/>
   </g>
   <g id="line2d_89">
    <path clip-path="url(#p46e625671a)" d="M 444.96 224.120076 
L 453.6 224.120076 
" style="fill:none;stroke:#000000;stroke-linecap:square;"/>
   </g>
   <g id="line2d_90">
    <path clip-path="url(#p46e625671a)" d="M 444.96 204.885064 
L 453.6 204.885064 
" style="fill:none;stroke:#000000;stroke-linecap:square;"/>
   </g>
   <g id="line2d_91">
    <g clip-path="url(#p46e625671a)">
     <use style="fill-opacity:0;stroke:#000000;" x="449.28" xlink:href="#m8624378910" y="230.571059"/>
     <use style="fill-opacity:0;stroke:#000000;" x="449.28" xlink:href="#m8624378910" y="230.571059"/>
     <use style="fill-opacity:0;stroke:#000000;" x="449.28" xlink:href="#m8624378910" y="230.571059"/>
     <use style="fill-opacity:0;stroke:#000000;" x="449.28" xlink:href="#m8624378910" y="230.571059"/>
     <use style="fill-opacity:0;stroke:#000000;" x="449.28" xlink:href="#m8624378910" y="230.571059"/>
     <use style="fill-opacity:0;stroke:#000000;" x="449.28" xlink:href="#m8624378910" y="230.571059"/>
     <use style="fill-opacity:0;stroke:#000000;" x="449.28" xlink:href="#m8624378910" y="230.571059"/>
     <use style="fill-opacity:0;stroke:#000000;" x="449.28" xlink:href="#m8624378910" y="198.076661"/>
    </g>
   </g>
   <g id="line2d_92">
    <path clip-path="url(#p46e625671a)" d="M 475.2 178.986868 
L 492.48 178.986868 
L 492.48 172.338026 
L 475.2 172.338026 
L 475.2 178.986868 
" style="fill:none;stroke:#1f77b4;stroke-linecap:square;"/>
   </g>
   <g id="line2d_93">
    <path clip-path="url(#p46e625671a)" d="M 483.84 178.986868 
L 483.84 188.425012 
" style="fill:none;stroke:#1f77b4;stroke-linecap:square;"/>
   </g>
   <g id="line2d_94">
    <path clip-path="url(#p46e625671a)" d="M 483.84 172.338026 
L 483.84 164.649371 
" style="fill:none;stroke:#1f77b4;stroke-linecap:square;"/>
   </g>
   <g id="line2d_95">
    <path clip-path="url(#p46e625671a)" d="M 479.52 188.425012 
L 488.16 188.425012 
" style="fill:none;stroke:#000000;stroke-linecap:square;"/>
   </g>
   <g id="line2d_96">
    <path clip-path="url(#p46e625671a)" d="M 479.52 164.649371 
L 488.16 164.649371 
" style="fill:none;stroke:#000000;stroke-linecap:square;"/>
   </g>
   <g id="line2d_97">
    <g clip-path="url(#p46e625671a)">
     <use style="fill-opacity:0;stroke:#000000;" x="483.84" xlink:href="#m8624378910" y="230.571059"/>
     <use style="fill-opacity:0;stroke:#000000;" x="483.84" xlink:href="#m8624378910" y="230.571059"/>
     <use style="fill-opacity:0;stroke:#000000;" x="483.84" xlink:href="#m8624378910" y="230.571059"/>
    </g>
   </g>
   <g id="line2d_98">
    <path clip-path="url(#p46e625671a)" d="M 509.76 140.546777 
L 527.04 140.546777 
L 527.04 130.785388 
L 509.76 130.785388 
L 509.76 140.546777 
" style="fill:none;stroke:#1f77b4;stroke-linecap:square;"/>
   </g>
   <g id="line2d_99">
    <path clip-path="url(#p46e625671a)" d="M 518.4 140.546777 
L 518.4 146.668282 
" style="fill:none;stroke:#1f77b4;stroke-linecap:square;"/>
   </g>
   <g id="line2d_100">
    <path clip-path="url(#p46e625671a)" d="M 518.4 130.785388 
L 518.4 121.45641 
" style="fill:none;stroke:#1f77b4;stroke-linecap:square;"/>
   </g>
   <g id="line2d_101">
    <path clip-path="url(#p46e625671a)" d="M 514.08 146.668282 
L 522.72 146.668282 
" style="fill:none;stroke:#000000;stroke-linecap:square;"/>
   </g>
   <g id="line2d_102">
    <path clip-path="url(#p46e625671a)" d="M 514.08 121.45641 
L 522.72 121.45641 
" style="fill:none;stroke:#000000;stroke-linecap:square;"/>
   </g>
   <g id="line2d_103">
    <g clip-path="url(#p46e625671a)">
     <use style="fill-opacity:0;stroke:#000000;" x="518.4" xlink:href="#m8624378910" y="230.571059"/>
     <use style="fill-opacity:0;stroke:#000000;" x="518.4" xlink:href="#m8624378910" y="230.571059"/>
    </g>
   </g>
   <g id="line2d_104">
    <path clip-path="url(#p46e625671a)" d="M 544.32 102.815395 
L 561.6 102.815395 
L 561.6 94.699044 
L 544.32 94.699044 
L 544.32 102.815395 
" style="fill:none;stroke:#1f77b4;stroke-linecap:square;"/>
   </g>
   <g id="line2d_105">
    <path clip-path="url(#p46e625671a)" d="M 552.96 102.815395 
L 552.96 108.927442 
" style="fill:none;stroke:#1f77b4;stroke-linecap:square;"/>
   </g>
   <g id="line2d_106">
    <path clip-path="url(#p46e625671a)" d="M 552.96 94.699044 
L 552.96 87.00134 
" style="fill:none;stroke:#1f77b4;stroke-linecap:square;"/>
   </g>
   <g id="line2d_107">
    <path clip-path="url(#p46e625671a)" d="M 548.64 108.927442 
L 557.28 108.927442 
" style="fill:none;stroke:#000000;stroke-linecap:square;"/>
   </g>
   <g id="line2d_108">
    <path clip-path="url(#p46e625671a)" d="M 548.64 87.00134 
L 557.28 87.00134 
" style="fill:none;stroke:#000000;stroke-linecap:square;"/>
   </g>
   <g id="line2d_109">
    <g clip-path="url(#p46e625671a)">
     <use style="fill-opacity:0;stroke:#000000;" x="552.96" xlink:href="#m8624378910" y="230.571059"/>
     <use style="fill-opacity:0;stroke:#000000;" x="552.96" xlink:href="#m8624378910" y="230.571059"/>
     <use style="fill-opacity:0;stroke:#000000;" x="552.96" xlink:href="#m8624378910" y="230.571059"/>
     <use style="fill-opacity:0;stroke:#000000;" x="552.96" xlink:href="#m8624378910" y="230.571059"/>
     <use style="fill-opacity:0;stroke:#000000;" x="552.96" xlink:href="#m8624378910" y="80.203959"/>
     <use style="fill-opacity:0;stroke:#000000;" x="552.96" xlink:href="#m8624378910" y="80.203959"/>
    </g>
   </g>
   <g id="line2d_110">
    <path clip-path="url(#p46e625671a)" d="M 578.88 60.178712 
L 596.16 60.178712 
L 596.16 52.475233 
L 578.88 52.475233 
L 578.88 60.178712 
" style="fill:none;stroke:#1f77b4;stroke-linecap:square;"/>
   </g>
   <g id="line2d_111">
    <path clip-path="url(#p46e625671a)" d="M 587.52 60.178712 
L 587.52 65.570245 
" style="fill:none;stroke:#1f77b4;stroke-linecap:square;"/>
   </g>
   <g id="line2d_112">
    <path clip-path="url(#p46e625671a)" d="M 587.52 52.475233 
L 587.52 47.758374 
" style="fill:none;stroke:#1f77b4;stroke-linecap:square;"/>
   </g>
   <g id="line2d_113">
    <path clip-path="url(#p46e625671a)" d="M 583.2 65.570245 
L 591.84 65.570245 
" style="fill:none;stroke:#000000;stroke-linecap:square;"/>
   </g>
   <g id="line2d_114">
    <path clip-path="url(#p46e625671a)" d="M 583.2 47.758374 
L 591.84 47.758374 
" style="fill:none;stroke:#000000;stroke-linecap:square;"/>
   </g>
   <g id="line2d_115">
    <g clip-path="url(#p46e625671a)">
     <use style="fill-opacity:0;stroke:#000000;" x="587.52" xlink:href="#m8624378910" y="230.571059"/>
     <use style="fill-opacity:0;stroke:#000000;" x="587.52" xlink:href="#m8624378910" y="230.571059"/>
     <use style="fill-opacity:0;stroke:#000000;" x="587.52" xlink:href="#m8624378910" y="230.571059"/>
    </g>
   </g>
   <g id="line2d_116">
    <path clip-path="url(#p46e625671a)" d="M 613.44 230.571059 
L 630.72 230.571059 
L 630.72 217.307315 
L 613.44 217.307315 
L 613.44 230.571059 
" style="fill:none;stroke:#1f77b4;stroke-linecap:square;"/>
   </g>
   <g id="line2d_117">
    <path clip-path="url(#p46e625671a)" d="M 622.08 230.571059 
L 622.08 230.571059 
" style="fill:none;stroke:#1f77b4;stroke-linecap:square;"/>
   </g>
   <g id="line2d_118">
    <path clip-path="url(#p46e625671a)" d="M 622.08 217.307315 
L 622.08 207.845459 
" style="fill:none;stroke:#1f77b4;stroke-linecap:square;"/>
   </g>
   <g id="line2d_119">
    <path clip-path="url(#p46e625671a)" d="M 617.76 230.571059 
L 626.4 230.571059 
" style="fill:none;stroke:#000000;stroke-linecap:square;"/>
   </g>
   <g id="line2d_120">
    <path clip-path="url(#p46e625671a)" d="M 617.76 207.845459 
L 626.4 207.845459 
" style="fill:none;stroke:#000000;stroke-linecap:square;"/>
   </g>
   <g id="line2d_121"/>
   <g id="line2d_122">
    <path clip-path="url(#p46e625671a)" d="M 648 196.402567 
L 665.28 196.402567 
L 665.28 181.466707 
L 648 181.466707 
L 648 196.402567 
" style="fill:none;stroke:#1f77b4;stroke-linecap:square;"/>
   </g>
   <g id="line2d_123">
    <path clip-path="url(#p46e625671a)" d="M 656.64 196.402567 
L 656.64 200.291936 
" style="fill:none;stroke:#1f77b4;stroke-linecap:square;"/>
   </g>
   <g id="line2d_124">
    <path clip-path="url(#p46e625671a)" d="M 656.64 181.466707 
L 656.64 163.932604 
" style="fill:none;stroke:#1f77b4;stroke-linecap:square;"/>
   </g>
   <g id="line2d_125">
    <path clip-path="url(#p46e625671a)" d="M 652.32 200.291936 
L 660.96 200.291936 
" style="fill:none;stroke:#000000;stroke-linecap:square;"/>
   </g>
   <g id="line2d_126">
    <path clip-path="url(#p46e625671a)" d="M 652.32 163.932604 
L 660.96 163.932604 
" style="fill:none;stroke:#000000;stroke-linecap:square;"/>
   </g>
   <g id="line2d_127">
    <g clip-path="url(#p46e625671a)">
     <use style="fill-opacity:0;stroke:#000000;" x="656.64" xlink:href="#m8624378910" y="230.571059"/>
     <use style="fill-opacity:0;stroke:#000000;" x="656.64" xlink:href="#m8624378910" y="230.571059"/>
     <use style="fill-opacity:0;stroke:#000000;" x="656.64" xlink:href="#m8624378910" y="230.571059"/>
     <use style="fill-opacity:0;stroke:#000000;" x="656.64" xlink:href="#m8624378910" y="230.571059"/>
     <use style="fill-opacity:0;stroke:#000000;" x="656.64" xlink:href="#m8624378910" y="230.571059"/>
     <use style="fill-opacity:0;stroke:#000000;" x="656.64" xlink:href="#m8624378910" y="230.571059"/>
     <use style="fill-opacity:0;stroke:#000000;" x="656.64" xlink:href="#m8624378910" y="230.571059"/>
     <use style="fill-opacity:0;stroke:#000000;" x="656.64" xlink:href="#m8624378910" y="230.571059"/>
    </g>
   </g>
   <g id="line2d_128">
    <path clip-path="url(#p46e625671a)" d="M 682.56 152.227793 
L 699.84 152.227793 
L 699.84 142.782323 
L 682.56 142.782323 
L 682.56 152.227793 
" style="fill:none;stroke:#1f77b4;stroke-linecap:square;"/>
   </g>
   <g id="line2d_129">
    <path clip-path="url(#p46e625671a)" d="M 691.2 152.227793 
L 691.2 158.014334 
" style="fill:none;stroke:#1f77b4;stroke-linecap:square;"/>
   </g>
   <g id="line2d_130">
    <path clip-path="url(#p46e625671a)" d="M 691.2 142.782323 
L 691.2 129.860903 
" style="fill:none;stroke:#1f77b4;stroke-linecap:square;"/>
   </g>
   <g id="line2d_131">
    <path clip-path="url(#p46e625671a)" d="M 686.88 158.014334 
L 695.52 158.014334 
" style="fill:none;stroke:#000000;stroke-linecap:square;"/>
   </g>
   <g id="line2d_132">
    <path clip-path="url(#p46e625671a)" d="M 686.88 129.860903 
L 695.52 129.860903 
" style="fill:none;stroke:#000000;stroke-linecap:square;"/>
   </g>
   <g id="line2d_133">
    <g clip-path="url(#p46e625671a)">
     <use style="fill-opacity:0;stroke:#000000;" x="691.2" xlink:href="#m8624378910" y="230.571059"/>
     <use style="fill-opacity:0;stroke:#000000;" x="691.2" xlink:href="#m8624378910" y="230.571059"/>
     <use style="fill-opacity:0;stroke:#000000;" x="691.2" xlink:href="#m8624378910" y="230.571059"/>
     <use style="fill-opacity:0;stroke:#000000;" x="691.2" xlink:href="#m8624378910" y="230.571059"/>
    </g>
   </g>
   <g id="line2d_134">
    <path clip-path="url(#p46e625671a)" d="M 717.12 120.668303 
L 734.4 120.668303 
L 734.4 104.065122 
L 717.12 104.065122 
L 717.12 120.668303 
" style="fill:none;stroke:#1f77b4;stroke-linecap:square;"/>
   </g>
   <g id="line2d_135">
    <path clip-path="url(#p46e625671a)" d="M 725.76 120.668303 
L 725.76 132.768543 
" style="fill:none;stroke:#1f77b4;stroke-linecap:square;"/>
   </g>
   <g id="line2d_136">
    <path clip-path="url(#p46e625671a)" d="M 725.76 104.065122 
L 725.76 85.90118 
" style="fill:none;stroke:#1f77b4;stroke-linecap:square;"/>
   </g>
   <g id="line2d_137">
    <path clip-path="url(#p46e625671a)" d="M 721.44 132.768543 
L 730.08 132.768543 
" style="fill:none;stroke:#000000;stroke-linecap:square;"/>
   </g>
   <g id="line2d_138">
    <path clip-path="url(#p46e625671a)" d="M 721.44 85.90118 
L 730.08 85.90118 
" style="fill:none;stroke:#000000;stroke-linecap:square;"/>
   </g>
   <g id="line2d_139">
    <g clip-path="url(#p46e625671a)">
     <use style="fill-opacity:0;stroke:#000000;" x="725.76" xlink:href="#m8624378910" y="230.571059"/>
     <use style="fill-opacity:0;stroke:#000000;" x="725.76" xlink:href="#m8624378910" y="230.571059"/>
     <use style="fill-opacity:0;stroke:#000000;" x="725.76" xlink:href="#m8624378910" y="230.571059"/>
     <use style="fill-opacity:0;stroke:#000000;" x="725.76" xlink:href="#m8624378910" y="230.571059"/>
    </g>
   </g>
   <g id="line2d_140">
    <path clip-path="url(#p46e625671a)" d="M 751.68 80.652178 
L 768.96 80.652178 
L 768.96 69.332843 
L 751.68 69.332843 
L 751.68 80.652178 
" style="fill:none;stroke:#1f77b4;stroke-linecap:square;"/>
   </g>
   <g id="line2d_141">
    <path clip-path="url(#p46e625671a)" d="M 760.32 80.652178 
L 760.32 87.490639 
" style="fill:none;stroke:#1f77b4;stroke-linecap:square;"/>
   </g>
   <g id="line2d_142">
    <path clip-path="url(#p46e625671a)" d="M 760.32 69.332843 
L 760.32 57.322612 
" style="fill:none;stroke:#1f77b4;stroke-linecap:square;"/>
   </g>
   <g id="line2d_143">
    <path clip-path="url(#p46e625671a)" d="M 756 87.490639 
L 764.64 87.490639 
" style="fill:none;stroke:#000000;stroke-linecap:square;"/>
   </g>
   <g id="line2d_144">
    <path clip-path="url(#p46e625671a)" d="M 756 57.322612 
L 764.64 57.322612 
" style="fill:none;stroke:#000000;stroke-linecap:square;"/>
   </g>
   <g id="line2d_145">
    <g clip-path="url(#p46e625671a)">
     <use style="fill-opacity:0;stroke:#000000;" x="760.32" xlink:href="#m8624378910" y="230.571059"/>
     <use style="fill-opacity:0;stroke:#000000;" x="760.32" xlink:href="#m8624378910" y="230.571059"/>
     <use style="fill-opacity:0;stroke:#000000;" x="760.32" xlink:href="#m8624378910" y="230.571059"/>
     <use style="fill-opacity:0;stroke:#000000;" x="760.32" xlink:href="#m8624378910" y="230.571059"/>
    </g>
   </g>
   <g id="line2d_146">
    <path clip-path="url(#p46e625671a)" d="M 103.68 211.163718 
L 105.076364 209.595448 
L 106.472727 208.027178 
L 107.869091 206.458908 
L 109.265455 204.890639 
L 110.661818 203.322369 
L 112.058182 201.754099 
L 113.454545 200.185829 
L 114.850909 198.617559 
L 116.247273 197.049289 
L 117.643636 195.481019 
L 119.04 193.912749 
L 120.436364 192.344479 
L 121.832727 190.776209 
L 123.229091 189.207939 
L 124.625455 187.639669 
L 126.021818 186.071399 
L 127.418182 184.503129 
L 128.814545 182.934859 
L 130.210909 181.366589 
L 131.607273 179.798319 
L 133.003636 178.230049 
L 134.4 176.661779 
L 135.796364 175.09351 
L 137.192727 173.52524 
L 138.589091 171.95697 
L 139.985455 170.3887 
L 141.381818 168.82043 
L 142.778182 167.25216 
L 144.174545 165.68389 
L 145.570909 164.11562 
L 146.967273 162.54735 
L 148.363636 160.97908 
L 149.76 159.41081 
L 151.156364 157.84254 
L 152.552727 156.27427 
L 153.949091 154.706 
L 155.345455 153.13773 
L 156.741818 151.56946 
L 158.138182 150.00119 
L 159.534545 148.43292 
L 160.930909 146.86465 
L 162.327273 145.29638 
L 163.723636 143.728111 
L 165.12 142.159841 
L 166.516364 140.591571 
L 167.912727 139.023301 
L 169.309091 137.455031 
L 170.705455 135.886761 
L 172.101818 134.318491 
L 173.498182 132.750221 
L 174.894545 131.181951 
L 176.290909 129.613681 
L 177.687273 128.045411 
L 179.083636 126.477141 
L 180.48 124.908871 
L 181.876364 123.340601 
L 183.272727 121.772331 
L 184.669091 120.204061 
L 186.065455 118.635791 
L 187.461818 117.067521 
L 188.858182 115.499251 
L 190.254545 113.930982 
L 191.650909 112.362712 
L 193.047273 110.794442 
L 194.443636 109.226172 
L 195.84 107.657902 
L 197.236364 106.089632 
L 198.632727 104.521362 
L 200.029091 102.953092 
L 201.425455 101.384822 
L 202.821818 99.816552 
L 204.218182 98.248282 
L 205.614545 96.680012 
L 207.010909 95.111742 
L 208.407273 93.543472 
L 209.803636 91.975202 
L 211.2 90.406932 
L 212.596364 88.838662 
L 213.992727 87.270392 
L 215.389091 85.702122 
L 216.785455 84.133852 
L 218.181818 82.565583 
L 219.578182 80.997313 
L 220.974545 79.429043 
L 222.370909 77.860773 
L 223.767273 76.292503 
L 225.163636 74.724233 
L 226.56 73.155963 
L 227.956364 71.587693 
L 229.352727 70.019423 
L 230.749091 68.451153 
L 232.145455 66.882883 
L 233.541818 65.314613 
L 234.938182 63.746343 
L 236.334545 62.178073 
L 237.730909 60.609803 
L 239.127273 59.041533 
L 240.523636 57.473263 
L 241.92 55.904993 
" style="fill:none;stroke:#000000;stroke-dasharray:5.55,2.4;stroke-dashoffset:0;stroke-opacity:0.5;stroke-width:1.5;"/>
   </g>
   <g id="line2d_147">
    <path clip-path="url(#p46e625671a)" d="M 276.48 211.163718 
L 277.876364 209.595448 
L 279.272727 208.027178 
L 280.669091 206.458908 
L 282.065455 204.890639 
L 283.461818 203.322369 
L 284.858182 201.754099 
L 286.254545 200.185829 
L 287.650909 198.617559 
L 289.047273 197.049289 
L 290.443636 195.481019 
L 291.84 193.912749 
L 293.236364 192.344479 
L 294.632727 190.776209 
L 296.029091 189.207939 
L 297.425455 187.639669 
L 298.821818 186.071399 
L 300.218182 184.503129 
L 301.614545 182.934859 
L 303.010909 181.366589 
L 304.407273 179.798319 
L 305.803636 178.230049 
L 307.2 176.661779 
L 308.596364 175.09351 
L 309.992727 173.52524 
L 311.389091 171.95697 
L 312.785455 170.3887 
L 314.181818 168.82043 
L 315.578182 167.25216 
L 316.974545 165.68389 
L 318.370909 164.11562 
L 319.767273 162.54735 
L 321.163636 160.97908 
L 322.56 159.41081 
L 323.956364 157.84254 
L 325.352727 156.27427 
L 326.749091 154.706 
L 328.145455 153.13773 
L 329.541818 151.56946 
L 330.938182 150.00119 
L 332.334545 148.43292 
L 333.730909 146.86465 
L 335.127273 145.29638 
L 336.523636 143.728111 
L 337.92 142.159841 
L 339.316364 140.591571 
L 340.712727 139.023301 
L 342.109091 137.455031 
L 343.505455 135.886761 
L 344.901818 134.318491 
L 346.298182 132.750221 
L 347.694545 131.181951 
L 349.090909 129.613681 
L 350.487273 128.045411 
L 351.883636 126.477141 
L 353.28 124.908871 
L 354.676364 123.340601 
L 356.072727 121.772331 
L 357.469091 120.204061 
L 358.865455 118.635791 
L 360.261818 117.067521 
L 361.658182 115.499251 
L 363.054545 113.930982 
L 364.450909 112.362712 
L 365.847273 110.794442 
L 367.243636 109.226172 
L 368.64 107.657902 
L 370.036364 106.089632 
L 371.432727 104.521362 
L 372.829091 102.953092 
L 374.225455 101.384822 
L 375.621818 99.816552 
L 377.018182 98.248282 
L 378.414545 96.680012 
L 379.810909 95.111742 
L 381.207273 93.543472 
L 382.603636 91.975202 
L 384 90.406932 
L 385.396364 88.838662 
L 386.792727 87.270392 
L 388.189091 85.702122 
L 389.585455 84.133852 
L 390.981818 82.565583 
L 392.378182 80.997313 
L 393.774545 79.429043 
L 395.170909 77.860773 
L 396.567273 76.292503 
L 397.963636 74.724233 
L 399.36 73.155963 
L 400.756364 71.587693 
L 402.152727 70.019423 
L 403.549091 68.451153 
L 404.945455 66.882883 
L 406.341818 65.314613 
L 407.738182 63.746343 
L 409.134545 62.178073 
L 410.530909 60.609803 
L 411.927273 59.041533 
L 413.323636 57.473263 
L 414.72 55.904993 
" style="fill:none;stroke:#000000;stroke-dasharray:5.55,2.4;stroke-dashoffset:0;stroke-opacity:0.5;stroke-width:1.5;"/>
   </g>
   <g id="line2d_148">
    <path clip-path="url(#p46e625671a)" d="M 449.28 211.163718 
L 450.676364 209.595448 
L 452.072727 208.027178 
L 453.469091 206.458908 
L 454.865455 204.890639 
L 456.261818 203.322369 
L 457.658182 201.754099 
L 459.054545 200.185829 
L 460.450909 198.617559 
L 461.847273 197.049289 
L 463.243636 195.481019 
L 464.64 193.912749 
L 466.036364 192.344479 
L 467.432727 190.776209 
L 468.829091 189.207939 
L 470.225455 187.639669 
L 471.621818 186.071399 
L 473.018182 184.503129 
L 474.414545 182.934859 
L 475.810909 181.366589 
L 477.207273 179.798319 
L 478.603636 178.230049 
L 480 176.661779 
L 481.396364 175.09351 
L 482.792727 173.52524 
L 484.189091 171.95697 
L 485.585455 170.3887 
L 486.981818 168.82043 
L 488.378182 167.25216 
L 489.774545 165.68389 
L 491.170909 164.11562 
L 492.567273 162.54735 
L 493.963636 160.97908 
L 495.36 159.41081 
L 496.756364 157.84254 
L 498.152727 156.27427 
L 499.549091 154.706 
L 500.945455 153.13773 
L 502.341818 151.56946 
L 503.738182 150.00119 
L 505.134545 148.43292 
L 506.530909 146.86465 
L 507.927273 145.29638 
L 509.323636 143.728111 
L 510.72 142.159841 
L 512.116364 140.591571 
L 513.512727 139.023301 
L 514.909091 137.455031 
L 516.305455 135.886761 
L 517.701818 134.318491 
L 519.098182 132.750221 
L 520.494545 131.181951 
L 521.890909 129.613681 
L 523.287273 128.045411 
L 524.683636 126.477141 
L 526.08 124.908871 
L 527.476364 123.340601 
L 528.872727 121.772331 
L 530.269091 120.204061 
L 531.665455 118.635791 
L 533.061818 117.067521 
L 534.458182 115.499251 
L 535.854545 113.930982 
L 537.250909 112.362712 
L 538.647273 110.794442 
L 540.043636 109.226172 
L 541.44 107.657902 
L 542.836364 106.089632 
L 544.232727 104.521362 
L 545.629091 102.953092 
L 547.025455 101.384822 
L 548.421818 99.816552 
L 549.818182 98.248282 
L 551.214545 96.680012 
L 552.610909 95.111742 
L 554.007273 93.543472 
L 555.403636 91.975202 
L 556.8 90.406932 
L 558.196364 88.838662 
L 559.592727 87.270392 
L 560.989091 85.702122 
L 562.385455 84.133852 
L 563.781818 82.565583 
L 565.178182 80.997313 
L 566.574545 79.429043 
L 567.970909 77.860773 
L 569.367273 76.292503 
L 570.763636 74.724233 
L 572.16 73.155963 
L 573.556364 71.587693 
L 574.952727 70.019423 
L 576.349091 68.451153 
L 577.745455 66.882883 
L 579.141818 65.314613 
L 580.538182 63.746343 
L 581.934545 62.178073 
L 583.330909 60.609803 
L 584.727273 59.041533 
L 586.123636 57.473263 
L 587.52 55.904993 
" style="fill:none;stroke:#000000;stroke-dasharray:5.55,2.4;stroke-dashoffset:0;stroke-opacity:0.5;stroke-width:1.5;"/>
   </g>
   <g id="line2d_149">
    <path clip-path="url(#p46e625671a)" d="M 622.08 211.163718 
L 623.476364 209.595448 
L 624.872727 208.027178 
L 626.269091 206.458908 
L 627.665455 204.890639 
L 629.061818 203.322369 
L 630.458182 201.754099 
L 631.854545 200.185829 
L 633.250909 198.617559 
L 634.647273 197.049289 
L 636.043636 195.481019 
L 637.44 193.912749 
L 638.836364 192.344479 
L 640.232727 190.776209 
L 641.629091 189.207939 
L 643.025455 187.639669 
L 644.421818 186.071399 
L 645.818182 184.503129 
L 647.214545 182.934859 
L 648.610909 181.366589 
L 650.007273 179.798319 
L 651.403636 178.230049 
L 652.8 176.661779 
L 654.196364 175.09351 
L 655.592727 173.52524 
L 656.989091 171.95697 
L 658.385455 170.3887 
L 659.781818 168.82043 
L 661.178182 167.25216 
L 662.574545 165.68389 
L 663.970909 164.11562 
L 665.367273 162.54735 
L 666.763636 160.97908 
L 668.16 159.41081 
L 669.556364 157.84254 
L 670.952727 156.27427 
L 672.349091 154.706 
L 673.745455 153.13773 
L 675.141818 151.56946 
L 676.538182 150.00119 
L 677.934545 148.43292 
L 679.330909 146.86465 
L 680.727273 145.29638 
L 682.123636 143.728111 
L 683.52 142.159841 
L 684.916364 140.591571 
L 686.312727 139.023301 
L 687.709091 137.455031 
L 689.105455 135.886761 
L 690.501818 134.318491 
L 691.898182 132.750221 
L 693.294545 131.181951 
L 694.690909 129.613681 
L 696.087273 128.045411 
L 697.483636 126.477141 
L 698.88 124.908871 
L 700.276364 123.340601 
L 701.672727 121.772331 
L 703.069091 120.204061 
L 704.465455 118.635791 
L 705.861818 117.067521 
L 707.258182 115.499251 
L 708.654545 113.930982 
L 710.050909 112.362712 
L 711.447273 110.794442 
L 712.843636 109.226172 
L 714.24 107.657902 
L 715.636364 106.089632 
L 717.032727 104.521362 
L 718.429091 102.953092 
L 719.825455 101.384822 
L 721.221818 99.816552 
L 722.618182 98.248282 
L 724.014545 96.680012 
L 725.410909 95.111742 
L 726.807273 93.543472 
L 728.203636 91.975202 
L 729.6 90.406932 
L 730.996364 88.838662 
L 732.392727 87.270392 
L 733.789091 85.702122 
L 735.185455 84.133852 
L 736.581818 82.565583 
L 737.978182 80.997313 
L 739.374545 79.429043 
L 740.770909 77.860773 
L 742.167273 76.292503 
L 743.563636 74.724233 
L 744.96 73.155963 
L 746.356364 71.587693 
L 747.752727 70.019423 
L 749.149091 68.451153 
L 750.545455 66.882883 
L 751.941818 65.314613 
L 753.338182 63.746343 
L 754.734545 62.178073 
L 756.130909 60.609803 
L 757.527273 59.041533 
L 758.923636 57.473263 
L 760.32 55.904993 
" style="fill:none;stroke:#000000;stroke-dasharray:5.55,2.4;stroke-dashoffset:0;stroke-opacity:0.5;stroke-width:1.5;"/>
   </g>
   <g id="line2d_150">
    <path clip-path="url(#p46e625671a)" d="M 95.04 213.509501 
L 112.32 213.509501 
" style="fill:none;stroke:#2ca02c;stroke-linecap:square;"/>
   </g>
   <g id="line2d_151">
    <path clip-path="url(#p46e625671a)" d="M 129.6 172.610207 
L 146.88 172.610207 
" style="fill:none;stroke:#2ca02c;stroke-linecap:square;"/>
   </g>
   <g id="line2d_152">
    <path clip-path="url(#p46e625671a)" d="M 164.16 133.534165 
L 181.44 133.534165 
" style="fill:none;stroke:#2ca02c;stroke-linecap:square;"/>
   </g>
   <g id="line2d_153">
    <path clip-path="url(#p46e625671a)" d="M 198.72 96.268138 
L 216 96.268138 
" style="fill:none;stroke:#2ca02c;stroke-linecap:square;"/>
   </g>
   <g id="line2d_154">
    <path clip-path="url(#p46e625671a)" d="M 233.28 57.027034 
L 250.56 57.027034 
" style="fill:none;stroke:#2ca02c;stroke-linecap:square;"/>
   </g>
   <g id="line2d_155">
    <path clip-path="url(#p46e625671a)" d="M 267.84 228.086454 
L 285.12 228.086454 
" style="fill:none;stroke:#2ca02c;stroke-linecap:square;"/>
   </g>
   <g id="line2d_156">
    <path clip-path="url(#p46e625671a)" d="M 302.4 188.311417 
L 319.68 188.311417 
" style="fill:none;stroke:#2ca02c;stroke-linecap:square;"/>
   </g>
   <g id="line2d_157">
    <path clip-path="url(#p46e625671a)" d="M 336.96 149.432637 
L 354.24 149.432637 
" style="fill:none;stroke:#2ca02c;stroke-linecap:square;"/>
   </g>
   <g id="line2d_158">
    <path clip-path="url(#p46e625671a)" d="M 371.52 111.934671 
L 388.8 111.934671 
" style="fill:none;stroke:#2ca02c;stroke-linecap:square;"/>
   </g>
   <g id="line2d_159">
    <path clip-path="url(#p46e625671a)" d="M 406.08 73.46351 
L 423.36 73.46351 
" style="fill:none;stroke:#2ca02c;stroke-linecap:square;"/>
   </g>
   <g id="line2d_160">
    <path clip-path="url(#p46e625671a)" d="M 440.64 215.067394 
L 457.92 215.067394 
" style="fill:none;stroke:#2ca02c;stroke-linecap:square;"/>
   </g>
   <g id="line2d_161">
    <path clip-path="url(#p46e625671a)" d="M 475.2 176.231335 
L 492.48 176.231335 
" style="fill:none;stroke:#2ca02c;stroke-linecap:square;"/>
   </g>
   <g id="line2d_162">
    <path clip-path="url(#p46e625671a)" d="M 509.76 135.109714 
L 527.04 135.109714 
" style="fill:none;stroke:#2ca02c;stroke-linecap:square;"/>
   </g>
   <g id="line2d_163">
    <path clip-path="url(#p46e625671a)" d="M 544.32 98.45243 
L 561.6 98.45243 
" style="fill:none;stroke:#2ca02c;stroke-linecap:square;"/>
   </g>
   <g id="line2d_164">
    <path clip-path="url(#p46e625671a)" d="M 578.88 56.739675 
L 596.16 56.739675 
" style="fill:none;stroke:#2ca02c;stroke-linecap:square;"/>
   </g>
   <g id="line2d_165">
    <path clip-path="url(#p46e625671a)" d="M 613.44 228.428793 
L 630.72 228.428793 
" style="fill:none;stroke:#2ca02c;stroke-linecap:square;"/>
   </g>
   <g id="line2d_166">
    <path clip-path="url(#p46e625671a)" d="M 648 190.406812 
L 665.28 190.406812 
" style="fill:none;stroke:#2ca02c;stroke-linecap:square;"/>
   </g>
   <g id="line2d_167">
    <path clip-path="url(#p46e625671a)" d="M 682.56 144.98969 
L 699.84 144.98969 
" style="fill:none;stroke:#2ca02c;stroke-linecap:square;"/>
   </g>
   <g id="line2d_168">
    <path clip-path="url(#p46e625671a)" d="M 717.12 109.281737 
L 734.4 109.281737 
" style="fill:none;stroke:#2ca02c;stroke-linecap:square;"/>
   </g>
   <g id="line2d_169">
    <path clip-path="url(#p46e625671a)" d="M 751.68 72.403303 
L 768.96 72.403303 
" style="fill:none;stroke:#2ca02c;stroke-linecap:square;"/>
   </g>
   <g id="patch_3">
    <path d="M 86.4 244.8 
L 86.4 28.8 
" style="fill:none;stroke:#000000;stroke-linecap:square;stroke-linejoin:miter;stroke-width:0.8;"/>
   </g>
   <g id="patch_4">
    <path d="M 777.6 244.8 
L 777.6 28.8 
" style="fill:none;stroke:#000000;stroke-linecap:square;stroke-linejoin:miter;stroke-width:0.8;"/>
   </g>
   <g id="patch_5">
    <path d="M 86.4 244.8 
L 777.6 244.8 
" style="fill:none;stroke:#000000;stroke-linecap:square;stroke-linejoin:miter;stroke-width:0.8;"/>
   </g>
   <g id="patch_6">
    <path d="M 86.4 28.8 
L 777.6 28.8 
" style="fill:none;stroke:#000000;stroke-linecap:square;stroke-linejoin:miter;stroke-width:0.8;"/>
   </g>
   <g id="text_28">
    <!-- $\lambda = 0.10$, $\mu = 0.10$ -->
    <defs>
     <path d="M 36.71875 67.4375 
L 48.828125 0 
L 39.3125 0 
L 31.84375 40.4375 
L 5.125 0 
L -4.390625 0 
L 29.734375 52.4375 
L 28.03125 62.109375 
Q 26.953125 68.265625 21.734375 68.265625 
L 17.046875 68.265625 
L 18.5 75.984375 
L 24.21875 75.875 
Q 35.203125 75.734375 36.71875 67.4375 
z
" id="DejaVuSans-Oblique-955"/>
     <path d="M 10.59375 45.40625 
L 73.1875 45.40625 
L 73.1875 37.203125 
L 10.59375 37.203125 
z
M 10.59375 25.484375 
L 73.1875 25.484375 
L 73.1875 17.1875 
L 10.59375 17.1875 
z
" id="DejaVuSans-61"/>
     <path d="M 11.71875 12.40625 
L 22.015625 12.40625 
L 22.015625 4 
L 14.015625 -11.625 
L 7.71875 -11.625 
L 11.71875 4 
z
" id="DejaVuSans-44"/>
     <path d="M -1.3125 -20.796875 
L 13.375 54.6875 
L 22.40625 54.6875 
L 15.765625 20.65625 
Q 15.578125 19.625 15.421875 18.359375 
Q 15.28125 17.09375 15.28125 15.828125 
Q 15.28125 11.28125 18.140625 8.828125 
Q 21 6.390625 26.3125 6.390625 
Q 33.546875 6.390625 37.984375 10.484375 
Q 42.4375 14.59375 44 22.796875 
L 50.203125 54.6875 
L 59.1875 54.6875 
L 51.03125 12.640625 
Q 50.828125 11.71875 50.75 11.03125 
Q 50.6875 10.359375 50.6875 9.8125 
Q 50.6875 8.296875 51.296875 7.59375 
Q 51.90625 6.890625 53.21875 6.890625 
Q 53.71875 6.890625 54.5625 7.125 
Q 55.421875 7.375 56.984375 8.015625 
L 55.609375 0.78125 
Q 53.46875 -0.296875 51.515625 -0.859375 
Q 49.5625 -1.421875 47.703125 -1.421875 
Q 44.484375 -1.421875 42.65625 0.625 
Q 40.828125 2.6875 40.828125 6.296875 
Q 38.09375 2.390625 34.296875 0.484375 
Q 30.515625 -1.421875 25.390625 -1.421875 
Q 20.84375 -1.421875 17.453125 0.671875 
Q 14.0625 2.78125 12.984375 6.203125 
L 7.71875 -20.796875 
z
" id="DejaVuSans-Oblique-956"/>
    </defs>
    <g transform="translate(128.9 51.053158)scale(0.1 -0.1)">
     <use transform="translate(0 0.015625)" xlink:href="#DejaVuSans-Oblique-955"/>
     <use transform="translate(78.662109 0.015625)" xlink:href="#DejaVuSans-61"/>
     <use transform="translate(181.933594 0.015625)" xlink:href="#DejaVuSans-48"/>
     <use transform="translate(245.556641 0.015625)" xlink:href="#DejaVuSans-46"/>
     <use transform="translate(277.34375 0.015625)" xlink:href="#DejaVuSans-49"/>
     <use transform="translate(340.966797 0.015625)" xlink:href="#DejaVuSans-48"/>
     <use transform="translate(404.589844 0.015625)" xlink:href="#DejaVuSans-44"/>
     <use transform="translate(436.376953 0.015625)" xlink:href="#DejaVuSans-32"/>
     <use transform="translate(468.164062 0.015625)" xlink:href="#DejaVuSans-Oblique-956"/>
     <use transform="translate(551.269531 0.015625)" xlink:href="#DejaVuSans-61"/>
     <use transform="translate(654.541016 0.015625)" xlink:href="#DejaVuSans-48"/>
     <use transform="translate(718.164062 0.015625)" xlink:href="#DejaVuSans-46"/>
     <use transform="translate(749.951172 0.015625)" xlink:href="#DejaVuSans-49"/>
     <use transform="translate(813.574219 0.015625)" xlink:href="#DejaVuSans-48"/>
    </g>
   </g>
   <g id="text_29">
    <!-- $\lambda = 0.10$, $\mu = 0.30$ -->
    <g transform="translate(301.7 51.053158)scale(0.1 -0.1)">
     <use transform="translate(0 0.015625)" xlink:href="#DejaVuSans-Oblique-955"/>
     <use transform="translate(78.662109 0.015625)" xlink:href="#DejaVuSans-61"/>
     <use transform="translate(181.933594 0.015625)" xlink:href="#DejaVuSans-48"/>
     <use transform="translate(245.556641 0.015625)" xlink:href="#DejaVuSans-46"/>
     <use transform="translate(277.34375 0.015625)" xlink:href="#DejaVuSans-49"/>
     <use transform="translate(340.966797 0.015625)" xlink:href="#DejaVuSans-48"/>
     <use transform="translate(404.589844 0.015625)" xlink:href="#DejaVuSans-44"/>
     <use transform="translate(436.376953 0.015625)" xlink:href="#DejaVuSans-32"/>
     <use transform="translate(468.164062 0.015625)" xlink:href="#DejaVuSans-Oblique-956"/>
     <use transform="translate(551.269531 0.015625)" xlink:href="#DejaVuSans-61"/>
     <use transform="translate(654.541016 0.015625)" xlink:href="#DejaVuSans-48"/>
     <use transform="translate(718.164062 0.015625)" xlink:href="#DejaVuSans-46"/>
     <use transform="translate(749.951172 0.015625)" xlink:href="#DejaVuSans-51"/>
     <use transform="translate(813.574219 0.015625)" xlink:href="#DejaVuSans-48"/>
    </g>
   </g>
   <g id="text_30">
    <!-- $\lambda = 0.30$, $\mu = 0.10$ -->
    <g transform="translate(474.5 51.053158)scale(0.1 -0.1)">
     <use transform="translate(0 0.015625)" xlink:href="#DejaVuSans-Oblique-955"/>
     <use transform="translate(78.662109 0.015625)" xlink:href="#DejaVuSans-61"/>
     <use transform="translate(181.933594 0.015625)" xlink:href="#DejaVuSans-48"/>
     <use transform="translate(245.556641 0.015625)" xlink:href="#DejaVuSans-46"/>
     <use transform="translate(277.34375 0.015625)" xlink:href="#DejaVuSans-51"/>
     <use transform="translate(340.966797 0.015625)" xlink:href="#DejaVuSans-48"/>
     <use transform="translate(404.589844 0.015625)" xlink:href="#DejaVuSans-44"/>
     <use transform="translate(436.376953 0.015625)" xlink:href="#DejaVuSans-32"/>
     <use transform="translate(468.164062 0.015625)" xlink:href="#DejaVuSans-Oblique-956"/>
     <use transform="translate(551.269531 0.015625)" xlink:href="#DejaVuSans-61"/>
     <use transform="translate(654.541016 0.015625)" xlink:href="#DejaVuSans-48"/>
     <use transform="translate(718.164062 0.015625)" xlink:href="#DejaVuSans-46"/>
     <use transform="translate(749.951172 0.015625)" xlink:href="#DejaVuSans-49"/>
     <use transform="translate(813.574219 0.015625)" xlink:href="#DejaVuSans-48"/>
    </g>
   </g>
   <g id="text_31">
    <!-- $\lambda = 0.30$, $\mu = 0.30$ -->
    <g transform="translate(647.3 51.053158)scale(0.1 -0.1)">
     <use transform="translate(0 0.015625)" xlink:href="#DejaVuSans-Oblique-955"/>
     <use transform="translate(78.662109 0.015625)" xlink:href="#DejaVuSans-61"/>
     <use transform="translate(181.933594 0.015625)" xlink:href="#DejaVuSans-48"/>
     <use transform="translate(245.556641 0.015625)" xlink:href="#DejaVuSans-46"/>
     <use transform="translate(277.34375 0.015625)" xlink:href="#DejaVuSans-51"/>
     <use transform="translate(340.966797 0.015625)" xlink:href="#DejaVuSans-48"/>
     <use transform="translate(404.589844 0.015625)" xlink:href="#DejaVuSans-44"/>
     <use transform="translate(436.376953 0.015625)" xlink:href="#DejaVuSans-32"/>
     <use transform="translate(468.164062 0.015625)" xlink:href="#DejaVuSans-Oblique-956"/>
     <use transform="translate(551.269531 0.015625)" xlink:href="#DejaVuSans-61"/>
     <use transform="translate(654.541016 0.015625)" xlink:href="#DejaVuSans-48"/>
     <use transform="translate(718.164062 0.015625)" xlink:href="#DejaVuSans-46"/>
     <use transform="translate(749.951172 0.015625)" xlink:href="#DejaVuSans-51"/>
     <use transform="translate(813.574219 0.015625)" xlink:href="#DejaVuSans-48"/>
    </g>
   </g>
  </g>
 </g>
 <defs>
  <clipPath id="p46e625671a">
   <rect height="216" width="691.2" x="86.4" y="28.8"/>
  </clipPath>
 </defs>
</svg>
