<?xml version="1.0" encoding="utf-8"?>
<svg xmlns="http://www.w3.org/2000/svg" xmlns:xlink="http://www.w3.org/1999/xlink" width="600" height="400" viewBox="0 0 2400 1600">
<defs>
  <clipPath id="clip070">
    <rect x="0" y="0" width="2400" height="1600"/>
  </clipPath>
</defs>
<path clip-path="url(#clip070)" d="
M0 1600 L2400 1600 L2400 0 L0 0  Z
  " fill="#ffffff" fill-rule="evenodd" fill-opacity="1"/>
<defs>
  <clipPath id="clip071">
    <rect x="480" y="0" width="1681" height="1600"/>
  </clipPath>
</defs>
<path clip-path="url(#clip070)" d="
M234.45 1423.18 L2352.76 1423.18 L2352.76 47.2441 L234.45 47.2441  Z
  " fill="#ffffff" fill-rule="evenodd" fill-opacity="1"/>
<defs>
  <clipPath id="clip072">
    <rect x="234" y="47" width="2119" height="1377"/>
  </clipPath>
</defs>
<polyline clip-path="url(#clip070)" style="stroke:#000000; stroke-width:4; stroke-opacity:1; fill:none" points="
  234.45,1423.18 2352.76,1423.18 
  "/>
<polyline clip-path="url(#clip070)" style="stroke:#000000; stroke-width:4; stroke-opacity:1; fill:none" points="
  294.402,1423.18 294.402,1406.67 
  "/>
<polyline clip-path="url(#clip070)" style="stroke:#000000; stroke-width:4; stroke-opacity:1; fill:none" points="
  794.002,1423.18 794.002,1406.67 
  "/>
<polyline clip-path="url(#clip070)" style="stroke:#000000; stroke-width:4; stroke-opacity:1; fill:none" points="
  1293.6,1423.18 1293.6,1406.67 
  "/>
<polyline clip-path="url(#clip070)" style="stroke:#000000; stroke-width:4; stroke-opacity:1; fill:none" points="
  1793.2,1423.18 1793.2,1406.67 
  "/>
<polyline clip-path="url(#clip070)" style="stroke:#000000; stroke-width:4; stroke-opacity:1; fill:none" points="
  2292.8,1423.18 2292.8,1406.67 
  "/>
<path clip-path="url(#clip070)" d="M 0 0 M262.411 1452.37 Q258.8 1452.37 256.971 1455.94 Q255.166 1459.48 255.166 1466.61 Q255.166 1473.71 256.971 1477.28 Q258.8 1480.82 262.411 1480.82 Q266.045 1480.82 267.851 1477.28 Q269.679 1473.71 269.679 1466.61 Q269.679 1459.48 267.851 1455.94 Q266.045 1452.37 262.411 1452.37 M262.411 1448.67 Q268.221 1448.67 271.277 1453.27 Q274.355 1457.86 274.355 1466.61 Q274.355 1475.33 271.277 1479.94 Q268.221 1484.52 262.411 1484.52 Q256.601 1484.52 253.522 1479.94 Q250.467 1475.33 250.467 1466.61 Q250.467 1457.86 253.522 1453.27 Q256.601 1448.67 262.411 1448.67 Z" fill="#000000" fill-rule="evenodd" fill-opacity="1" /><path clip-path="url(#clip070)" d="M 0 0 M279.425 1477.97 L284.309 1477.97 L284.309 1483.85 L279.425 1483.85 L279.425 1477.97 Z" fill="#000000" fill-rule="evenodd" fill-opacity="1" /><path clip-path="url(#clip070)" d="M 0 0 M299.378 1452.37 Q295.767 1452.37 293.939 1455.94 Q292.133 1459.48 292.133 1466.61 Q292.133 1473.71 293.939 1477.28 Q295.767 1480.82 299.378 1480.82 Q303.013 1480.82 304.818 1477.28 Q306.647 1473.71 306.647 1466.61 Q306.647 1459.48 304.818 1455.94 Q303.013 1452.37 299.378 1452.37 M299.378 1448.67 Q305.189 1448.67 308.244 1453.27 Q311.323 1457.86 311.323 1466.61 Q311.323 1475.33 308.244 1479.94 Q305.189 1484.52 299.378 1484.52 Q293.568 1484.52 290.49 1479.94 Q287.434 1475.33 287.434 1466.61 Q287.434 1457.86 290.49 1453.27 Q293.568 1448.67 299.378 1448.67 Z" fill="#000000" fill-rule="evenodd" fill-opacity="1" /><path clip-path="url(#clip070)" d="M 0 0 M326.392 1452.37 Q322.781 1452.37 320.952 1455.94 Q319.147 1459.48 319.147 1466.61 Q319.147 1473.71 320.952 1477.28 Q322.781 1480.82 326.392 1480.82 Q330.026 1480.82 331.832 1477.28 Q333.661 1473.71 333.661 1466.61 Q333.661 1459.48 331.832 1455.94 Q330.026 1452.37 326.392 1452.37 M326.392 1448.67 Q332.202 1448.67 335.258 1453.27 Q338.337 1457.86 338.337 1466.61 Q338.337 1475.33 335.258 1479.94 Q332.202 1484.52 326.392 1484.52 Q320.582 1484.52 317.503 1479.94 Q314.448 1475.33 314.448 1466.61 Q314.448 1457.86 317.503 1453.27 Q320.582 1448.67 326.392 1448.67 Z" fill="#000000" fill-rule="evenodd" fill-opacity="1" /><path clip-path="url(#clip070)" d="M 0 0 M763.308 1452.37 Q759.697 1452.37 757.868 1455.94 Q756.063 1459.48 756.063 1466.61 Q756.063 1473.71 757.868 1477.28 Q759.697 1480.82 763.308 1480.82 Q766.942 1480.82 768.748 1477.28 Q770.576 1473.71 770.576 1466.61 Q770.576 1459.48 768.748 1455.94 Q766.942 1452.37 763.308 1452.37 M763.308 1448.67 Q769.118 1448.67 772.174 1453.27 Q775.252 1457.86 775.252 1466.61 Q775.252 1475.33 772.174 1479.94 Q769.118 1484.52 763.308 1484.52 Q757.498 1484.52 754.419 1479.94 Q751.363 1475.33 751.363 1466.61 Q751.363 1457.86 754.419 1453.27 Q757.498 1448.67 763.308 1448.67 Z" fill="#000000" fill-rule="evenodd" fill-opacity="1" /><path clip-path="url(#clip070)" d="M 0 0 M780.322 1477.97 L785.206 1477.97 L785.206 1483.85 L780.322 1483.85 L780.322 1477.97 Z" fill="#000000" fill-rule="evenodd" fill-opacity="1" /><path clip-path="url(#clip070)" d="M 0 0 M794.303 1479.92 L810.622 1479.92 L810.622 1483.85 L788.678 1483.85 L788.678 1479.92 Q791.34 1477.16 795.923 1472.53 Q800.53 1467.88 801.71 1466.54 Q803.956 1464.01 804.835 1462.28 Q805.738 1460.52 805.738 1458.83 Q805.738 1456.07 803.794 1454.34 Q801.872 1452.6 798.771 1452.6 Q796.572 1452.6 794.118 1453.37 Q791.687 1454.13 788.91 1455.68 L788.91 1450.96 Q791.734 1449.82 794.187 1449.25 Q796.641 1448.67 798.678 1448.67 Q804.048 1448.67 807.243 1451.35 Q810.437 1454.04 810.437 1458.53 Q810.437 1460.66 809.627 1462.58 Q808.84 1464.48 806.734 1467.07 Q806.155 1467.74 803.053 1470.96 Q799.951 1474.15 794.303 1479.92 Z" fill="#000000" fill-rule="evenodd" fill-opacity="1" /><path clip-path="url(#clip070)" d="M 0 0 M815.738 1449.29 L834.095 1449.29 L834.095 1453.23 L820.021 1453.23 L820.021 1461.7 Q821.039 1461.35 822.058 1461.19 Q823.076 1461 824.095 1461 Q829.882 1461 833.261 1464.18 Q836.641 1467.35 836.641 1472.76 Q836.641 1478.34 833.169 1481.44 Q829.696 1484.52 823.377 1484.52 Q821.201 1484.52 818.933 1484.15 Q816.687 1483.78 814.28 1483.04 L814.28 1478.34 Q816.363 1479.48 818.585 1480.03 Q820.808 1480.59 823.284 1480.59 Q827.289 1480.59 829.627 1478.48 Q831.965 1476.38 831.965 1472.76 Q831.965 1469.15 829.627 1467.05 Q827.289 1464.94 823.284 1464.94 Q821.409 1464.94 819.534 1465.36 Q817.683 1465.77 815.738 1466.65 L815.738 1449.29 Z" fill="#000000" fill-rule="evenodd" fill-opacity="1" /><path clip-path="url(#clip070)" d="M 0 0 M1262.11 1452.37 Q1258.5 1452.37 1256.67 1455.94 Q1254.86 1459.48 1254.86 1466.61 Q1254.86 1473.71 1256.67 1477.28 Q1258.5 1480.82 1262.11 1480.82 Q1265.74 1480.82 1267.55 1477.28 Q1269.38 1473.71 1269.38 1466.61 Q1269.38 1459.48 1267.55 1455.94 Q1265.74 1452.37 1262.11 1452.37 M1262.11 1448.67 Q1267.92 1448.67 1270.98 1453.27 Q1274.05 1457.86 1274.05 1466.61 Q1274.05 1475.33 1270.98 1479.94 Q1267.92 1484.52 1262.11 1484.52 Q1256.3 1484.52 1253.22 1479.94 Q1250.17 1475.33 1250.17 1466.61 Q1250.17 1457.86 1253.22 1453.27 Q1256.3 1448.67 1262.11 1448.67 Z" fill="#000000" fill-rule="evenodd" fill-opacity="1" /><path clip-path="url(#clip070)" d="M 0 0 M1279.12 1477.97 L1284.01 1477.97 L1284.01 1483.85 L1279.12 1483.85 L1279.12 1477.97 Z" fill="#000000" fill-rule="evenodd" fill-opacity="1" /><path clip-path="url(#clip070)" d="M 0 0 M1289.12 1449.29 L1307.48 1449.29 L1307.48 1453.23 L1293.41 1453.23 L1293.41 1461.7 Q1294.42 1461.35 1295.44 1461.19 Q1296.46 1461 1297.48 1461 Q1303.27 1461 1306.65 1464.18 Q1310.03 1467.35 1310.03 1472.76 Q1310.03 1478.34 1306.55 1481.44 Q1303.08 1484.52 1296.76 1484.52 Q1294.59 1484.52 1292.32 1484.15 Q1290.07 1483.78 1287.67 1483.04 L1287.67 1478.34 Q1289.75 1479.48 1291.97 1480.03 Q1294.19 1480.59 1296.67 1480.59 Q1300.67 1480.59 1303.01 1478.48 Q1305.35 1476.38 1305.35 1472.76 Q1305.35 1469.15 1303.01 1467.05 Q1300.67 1464.94 1296.67 1464.94 Q1294.79 1464.94 1292.92 1465.36 Q1291.07 1465.77 1289.12 1466.65 L1289.12 1449.29 Z" fill="#000000" fill-rule="evenodd" fill-opacity="1" /><path clip-path="url(#clip070)" d="M 0 0 M1325.1 1452.37 Q1321.48 1452.37 1319.66 1455.94 Q1317.85 1459.48 1317.85 1466.61 Q1317.85 1473.71 1319.66 1477.28 Q1321.48 1480.82 1325.1 1480.82 Q1328.73 1480.82 1330.54 1477.28 Q1332.36 1473.71 1332.36 1466.61 Q1332.36 1459.48 1330.54 1455.94 Q1328.73 1452.37 1325.1 1452.37 M1325.1 1448.67 Q1330.91 1448.67 1333.96 1453.27 Q1337.04 1457.86 1337.04 1466.61 Q1337.04 1475.33 1333.96 1479.94 Q1330.91 1484.52 1325.1 1484.52 Q1319.29 1484.52 1316.21 1479.94 Q1313.15 1475.33 1313.15 1466.61 Q1313.15 1457.86 1316.21 1453.27 Q1319.29 1448.67 1325.1 1448.67 Z" fill="#000000" fill-rule="evenodd" fill-opacity="1" /><path clip-path="url(#clip070)" d="M 0 0 M1762.16 1452.37 Q1758.55 1452.37 1756.72 1455.94 Q1754.92 1459.48 1754.92 1466.61 Q1754.92 1473.71 1756.72 1477.28 Q1758.55 1480.82 1762.16 1480.82 Q1765.8 1480.82 1767.6 1477.28 Q1769.43 1473.71 1769.43 1466.61 Q1769.43 1459.48 1767.6 1455.94 Q1765.8 1452.37 1762.16 1452.37 M1762.16 1448.67 Q1767.97 1448.67 1771.03 1453.27 Q1774.11 1457.86 1774.11 1466.61 Q1774.11 1475.33 1771.03 1479.94 Q1767.97 1484.52 1762.16 1484.52 Q1756.35 1484.52 1753.27 1479.94 Q1750.22 1475.33 1750.22 1466.61 Q1750.22 1457.86 1753.27 1453.27 Q1756.35 1448.67 1762.16 1448.67 Z" fill="#000000" fill-rule="evenodd" fill-opacity="1" /><path clip-path="url(#clip070)" d="M 0 0 M1779.18 1477.97 L1784.06 1477.97 L1784.06 1483.85 L1779.18 1483.85 L1779.18 1477.97 Z" fill="#000000" fill-rule="evenodd" fill-opacity="1" /><path clip-path="url(#clip070)" d="M 0 0 M1787.95 1449.29 L1810.17 1449.29 L1810.17 1451.28 L1797.62 1483.85 L1792.74 1483.85 L1804.55 1453.23 L1787.95 1453.23 L1787.95 1449.29 Z" fill="#000000" fill-rule="evenodd" fill-opacity="1" /><path clip-path="url(#clip070)" d="M 0 0 M1815.29 1449.29 L1833.64 1449.29 L1833.64 1453.23 L1819.57 1453.23 L1819.57 1461.7 Q1820.59 1461.35 1821.61 1461.19 Q1822.62 1461 1823.64 1461 Q1829.43 1461 1832.81 1464.18 Q1836.19 1467.35 1836.19 1472.76 Q1836.19 1478.34 1832.72 1481.44 Q1829.24 1484.52 1822.93 1484.52 Q1820.75 1484.52 1818.48 1484.15 Q1816.24 1483.78 1813.83 1483.04 L1813.83 1478.34 Q1815.91 1479.48 1818.13 1480.03 Q1820.36 1480.59 1822.83 1480.59 Q1826.84 1480.59 1829.18 1478.48 Q1831.51 1476.38 1831.51 1472.76 Q1831.51 1469.15 1829.18 1467.05 Q1826.84 1464.94 1822.83 1464.94 Q1820.96 1464.94 1819.08 1465.36 Q1817.23 1465.77 1815.29 1466.65 L1815.29 1449.29 Z" fill="#000000" fill-rule="evenodd" fill-opacity="1" /><path clip-path="url(#clip070)" d="M 0 0 M2251.2 1479.92 L2258.83 1479.92 L2258.83 1453.55 L2250.52 1455.22 L2250.52 1450.96 L2258.79 1449.29 L2263.46 1449.29 L2263.46 1479.92 L2271.1 1479.92 L2271.1 1483.85 L2251.2 1483.85 L2251.2 1479.92 Z" fill="#000000" fill-rule="evenodd" fill-opacity="1" /><path clip-path="url(#clip070)" d="M 0 0 M2276.17 1477.97 L2281.06 1477.97 L2281.06 1483.85 L2276.17 1483.85 L2276.17 1477.97 Z" fill="#000000" fill-rule="evenodd" fill-opacity="1" /><path clip-path="url(#clip070)" d="M 0 0 M2296.13 1452.37 Q2292.51 1452.37 2290.69 1455.94 Q2288.88 1459.48 2288.88 1466.61 Q2288.88 1473.71 2290.69 1477.28 Q2292.51 1480.82 2296.13 1480.82 Q2299.76 1480.82 2301.57 1477.28 Q2303.39 1473.71 2303.39 1466.61 Q2303.39 1459.48 2301.57 1455.94 Q2299.76 1452.37 2296.13 1452.37 M2296.13 1448.67 Q2301.94 1448.67 2304.99 1453.27 Q2308.07 1457.86 2308.07 1466.61 Q2308.07 1475.33 2304.99 1479.94 Q2301.94 1484.52 2296.13 1484.52 Q2290.32 1484.52 2287.24 1479.94 Q2284.18 1475.33 2284.18 1466.61 Q2284.18 1457.86 2287.24 1453.27 Q2290.32 1448.67 2296.13 1448.67 Z" fill="#000000" fill-rule="evenodd" fill-opacity="1" /><path clip-path="url(#clip070)" d="M 0 0 M2323.14 1452.37 Q2319.53 1452.37 2317.7 1455.94 Q2315.89 1459.48 2315.89 1466.61 Q2315.89 1473.71 2317.7 1477.28 Q2319.53 1480.82 2323.14 1480.82 Q2326.77 1480.82 2328.58 1477.28 Q2330.41 1473.71 2330.41 1466.61 Q2330.41 1459.48 2328.58 1455.94 Q2326.77 1452.37 2323.14 1452.37 M2323.14 1448.67 Q2328.95 1448.67 2332.01 1453.27 Q2335.08 1457.86 2335.08 1466.61 Q2335.08 1475.33 2332.01 1479.94 Q2328.95 1484.52 2323.14 1484.52 Q2317.33 1484.52 2314.25 1479.94 Q2311.19 1475.33 2311.19 1466.61 Q2311.19 1457.86 2314.25 1453.27 Q2317.33 1448.67 2323.14 1448.67 Z" fill="#000000" fill-rule="evenodd" fill-opacity="1" /><path clip-path="url(#clip070)" d="M 0 0 M1283.54 1562.7 L1283.54 1581.6 L1277.66 1581.6 L1277.66 1532.4 L1283.54 1532.4 L1283.54 1537.81 Q1285.39 1534.62 1288.19 1533.1 Q1291.02 1531.54 1294.94 1531.54 Q1301.43 1531.54 1305.47 1536.69 Q1309.55 1541.85 1309.55 1550.25 Q1309.55 1558.65 1305.47 1563.81 Q1301.43 1568.97 1294.94 1568.97 Q1291.02 1568.97 1288.19 1567.44 Q1285.39 1565.88 1283.54 1562.7 M1303.47 1550.25 Q1303.47 1543.79 1300.8 1540.13 Q1298.15 1536.44 1293.51 1536.44 Q1288.86 1536.44 1286.19 1540.13 Q1283.54 1543.79 1283.54 1550.25 Q1283.54 1556.71 1286.19 1560.4 Q1288.86 1564.07 1293.51 1564.07 Q1298.15 1564.07 1300.8 1560.4 Q1303.47 1556.71 1303.47 1550.25 Z" fill="#000000" fill-rule="evenodd" fill-opacity="1" /><polyline clip-path="url(#clip070)" style="stroke:#000000; stroke-width:4; stroke-opacity:1; fill:none" points="
  234.45,1423.18 234.45,47.2441 
  "/>
<polyline clip-path="url(#clip070)" style="stroke:#000000; stroke-width:4; stroke-opacity:1; fill:none" points="
  234.45,1314.42 259.869,1314.42 
  "/>
<polyline clip-path="url(#clip070)" style="stroke:#000000; stroke-width:4; stroke-opacity:1; fill:none" points="
  234.45,1081.35 259.869,1081.35 
  "/>
<polyline clip-path="url(#clip070)" style="stroke:#000000; stroke-width:4; stroke-opacity:1; fill:none" points="
  234.45,848.288 259.869,848.288 
  "/>
<polyline clip-path="url(#clip070)" style="stroke:#000000; stroke-width:4; stroke-opacity:1; fill:none" points="
  234.45,615.224 259.869,615.224 
  "/>
<polyline clip-path="url(#clip070)" style="stroke:#000000; stroke-width:4; stroke-opacity:1; fill:none" points="
  234.45,382.16 259.869,382.16 
  "/>
<polyline clip-path="url(#clip070)" style="stroke:#000000; stroke-width:4; stroke-opacity:1; fill:none" points="
  234.45,149.096 259.869,149.096 
  "/>
<path clip-path="url(#clip070)" d="M 0 0 M115.742 1314.87 L145.417 1314.87 L145.417 1318.8 L115.742 1318.8 L115.742 1314.87 Z" fill="#000000" fill-rule="evenodd" fill-opacity="1" /><path clip-path="url(#clip070)" d="M 0 0 M150.533 1297.14 L168.889 1297.14 L168.889 1301.07 L154.815 1301.07 L154.815 1309.54 Q155.834 1309.2 156.853 1309.03 Q157.871 1308.85 158.89 1308.85 Q164.677 1308.85 168.056 1312.02 Q171.436 1315.19 171.436 1320.61 Q171.436 1326.19 167.964 1329.29 Q164.491 1332.37 158.172 1332.37 Q155.996 1332.37 153.728 1332 Q151.482 1331.63 149.075 1330.89 L149.075 1326.19 Q151.158 1327.32 153.38 1327.88 Q155.603 1328.43 158.079 1328.43 Q162.084 1328.43 164.422 1326.33 Q166.76 1324.22 166.76 1320.61 Q166.76 1317 164.422 1314.89 Q162.084 1312.78 158.079 1312.78 Q156.204 1312.78 154.329 1313.2 Q152.478 1313.62 150.533 1314.5 L150.533 1297.14 Z" fill="#000000" fill-rule="evenodd" fill-opacity="1" /><path clip-path="url(#clip070)" d="M 0 0 M186.505 1300.22 Q182.894 1300.22 181.065 1303.78 Q179.26 1307.32 179.26 1314.45 Q179.26 1321.56 181.065 1325.12 Q182.894 1328.66 186.505 1328.66 Q190.139 1328.66 191.945 1325.12 Q193.774 1321.56 193.774 1314.45 Q193.774 1307.32 191.945 1303.78 Q190.139 1300.22 186.505 1300.22 M186.505 1296.51 Q192.315 1296.51 195.371 1301.12 Q198.45 1305.7 198.45 1314.45 Q198.45 1323.18 195.371 1327.78 Q192.315 1332.37 186.505 1332.37 Q180.695 1332.37 177.616 1327.78 Q174.561 1323.18 174.561 1314.45 Q174.561 1305.7 177.616 1301.12 Q180.695 1296.51 186.505 1296.51 Z" fill="#000000" fill-rule="evenodd" fill-opacity="1" /><path clip-path="url(#clip070)" d="M 0 0 M115.256 1081.8 L144.931 1081.8 L144.931 1085.74 L115.256 1085.74 L115.256 1081.8 Z" fill="#000000" fill-rule="evenodd" fill-opacity="1" /><path clip-path="url(#clip070)" d="M 0 0 M162.848 1068.15 L151.042 1086.6 L162.848 1086.6 L162.848 1068.15 M161.621 1064.07 L167.501 1064.07 L167.501 1086.6 L172.431 1086.6 L172.431 1090.48 L167.501 1090.48 L167.501 1098.63 L162.848 1098.63 L162.848 1090.48 L147.246 1090.48 L147.246 1085.97 L161.621 1064.07 Z" fill="#000000" fill-rule="evenodd" fill-opacity="1" /><path clip-path="url(#clip070)" d="M 0 0 M177.547 1064.07 L195.903 1064.07 L195.903 1068.01 L181.829 1068.01 L181.829 1076.48 Q182.848 1076.13 183.866 1075.97 Q184.885 1075.79 185.903 1075.79 Q191.69 1075.79 195.07 1078.96 Q198.45 1082.13 198.45 1087.54 Q198.45 1093.12 194.977 1096.23 Q191.505 1099.3 185.186 1099.3 Q183.01 1099.3 180.741 1098.93 Q178.496 1098.56 176.089 1097.82 L176.089 1093.12 Q178.172 1094.26 180.394 1094.81 Q182.616 1095.37 185.093 1095.37 Q189.098 1095.37 191.436 1093.26 Q193.774 1091.16 193.774 1087.54 Q193.774 1083.93 191.436 1081.83 Q189.098 1079.72 185.093 1079.72 Q183.218 1079.72 181.343 1080.14 Q179.491 1080.55 177.547 1081.43 L177.547 1064.07 Z" fill="#000000" fill-rule="evenodd" fill-opacity="1" /><path clip-path="url(#clip070)" d="M 0 0 M114.26 848.74 L143.936 848.74 L143.936 852.675 L114.26 852.675 L114.26 848.74 Z" fill="#000000" fill-rule="evenodd" fill-opacity="1" /><path clip-path="url(#clip070)" d="M 0 0 M161.852 835.082 L150.047 853.531 L161.852 853.531 L161.852 835.082 M160.626 831.008 L166.505 831.008 L166.505 853.531 L171.436 853.531 L171.436 857.42 L166.505 857.42 L166.505 865.568 L161.852 865.568 L161.852 857.42 L146.251 857.42 L146.251 852.906 L160.626 831.008 Z" fill="#000000" fill-rule="evenodd" fill-opacity="1" /><path clip-path="url(#clip070)" d="M 0 0 M186.505 834.087 Q182.894 834.087 181.065 837.652 Q179.26 841.193 179.26 848.323 Q179.26 855.43 181.065 858.994 Q182.894 862.536 186.505 862.536 Q190.139 862.536 191.945 858.994 Q193.774 855.43 193.774 848.323 Q193.774 841.193 191.945 837.652 Q190.139 834.087 186.505 834.087 M186.505 830.383 Q192.315 830.383 195.371 834.99 Q198.45 839.573 198.45 848.323 Q198.45 857.05 195.371 861.656 Q192.315 866.24 186.505 866.24 Q180.695 866.24 177.616 861.656 Q174.561 857.05 174.561 848.323 Q174.561 839.573 177.616 834.99 Q180.695 830.383 186.505 830.383 Z" fill="#000000" fill-rule="evenodd" fill-opacity="1" /><path clip-path="url(#clip070)" d="M 0 0 M116.39 615.676 L146.066 615.676 L146.066 619.611 L116.39 619.611 L116.39 615.676 Z" fill="#000000" fill-rule="evenodd" fill-opacity="1" /><path clip-path="url(#clip070)" d="M 0 0 M165.302 613.87 Q168.658 614.588 170.533 616.856 Q172.431 619.125 172.431 622.458 Q172.431 627.574 168.913 630.374 Q165.394 633.175 158.913 633.175 Q156.737 633.175 154.422 632.736 Q152.13 632.319 149.677 631.462 L149.677 626.949 Q151.621 628.083 153.936 628.662 Q156.251 629.24 158.774 629.24 Q163.172 629.24 165.464 627.504 Q167.778 625.768 167.778 622.458 Q167.778 619.402 165.626 617.689 Q163.496 615.953 159.677 615.953 L155.649 615.953 L155.649 612.111 L159.862 612.111 Q163.311 612.111 165.14 610.745 Q166.968 609.356 166.968 606.764 Q166.968 604.101 165.07 602.689 Q163.195 601.254 159.677 601.254 Q157.755 601.254 155.556 601.671 Q153.357 602.088 150.718 602.967 L150.718 598.801 Q153.38 598.06 155.695 597.689 Q158.033 597.319 160.093 597.319 Q165.417 597.319 168.519 599.75 Q171.621 602.157 171.621 606.277 Q171.621 609.148 169.977 611.138 Q168.334 613.106 165.302 613.87 Z" fill="#000000" fill-rule="evenodd" fill-opacity="1" /><path clip-path="url(#clip070)" d="M 0 0 M177.547 597.944 L195.903 597.944 L195.903 601.879 L181.829 601.879 L181.829 610.351 Q182.848 610.004 183.866 609.842 Q184.885 609.657 185.903 609.657 Q191.69 609.657 195.07 612.828 Q198.45 616 198.45 621.416 Q198.45 626.995 194.977 630.097 Q191.505 633.175 185.186 633.175 Q183.01 633.175 180.741 632.805 Q178.496 632.435 176.089 631.694 L176.089 626.995 Q178.172 628.129 180.394 628.685 Q182.616 629.24 185.093 629.24 Q189.098 629.24 191.436 627.134 Q193.774 625.027 193.774 621.416 Q193.774 617.805 191.436 615.699 Q189.098 613.592 185.093 613.592 Q183.218 613.592 181.343 614.009 Q179.491 614.426 177.547 615.305 L177.547 597.944 Z" fill="#000000" fill-rule="evenodd" fill-opacity="1" /><path clip-path="url(#clip070)" d="M 0 0 M115.394 382.611 L145.07 382.611 L145.07 386.546 L115.394 386.546 L115.394 382.611 Z" fill="#000000" fill-rule="evenodd" fill-opacity="1" /><path clip-path="url(#clip070)" d="M 0 0 M164.306 380.806 Q167.663 381.523 169.538 383.792 Q171.436 386.06 171.436 389.394 Q171.436 394.509 167.917 397.31 Q164.399 400.111 157.917 400.111 Q155.741 400.111 153.427 399.671 Q151.135 399.255 148.681 398.398 L148.681 393.884 Q150.626 395.019 152.941 395.597 Q155.255 396.176 157.778 396.176 Q162.177 396.176 164.468 394.44 Q166.783 392.704 166.783 389.394 Q166.783 386.338 164.63 384.625 Q162.501 382.889 158.681 382.889 L154.653 382.889 L154.653 379.046 L158.866 379.046 Q162.315 379.046 164.144 377.681 Q165.973 376.292 165.973 373.699 Q165.973 371.037 164.075 369.625 Q162.2 368.19 158.681 368.19 Q156.76 368.19 154.561 368.607 Q152.362 369.023 149.723 369.903 L149.723 365.736 Q152.385 364.996 154.7 364.625 Q157.038 364.255 159.098 364.255 Q164.422 364.255 167.524 366.685 Q170.626 369.093 170.626 373.213 Q170.626 376.084 168.982 378.074 Q167.339 380.042 164.306 380.806 Z" fill="#000000" fill-rule="evenodd" fill-opacity="1" /><path clip-path="url(#clip070)" d="M 0 0 M186.505 367.959 Q182.894 367.959 181.065 371.523 Q179.26 375.065 179.26 382.195 Q179.26 389.301 181.065 392.866 Q182.894 396.407 186.505 396.407 Q190.139 396.407 191.945 392.866 Q193.774 389.301 193.774 382.195 Q193.774 375.065 191.945 371.523 Q190.139 367.959 186.505 367.959 M186.505 364.255 Q192.315 364.255 195.371 368.861 Q198.45 373.445 198.45 382.195 Q198.45 390.921 195.371 395.528 Q192.315 400.111 186.505 400.111 Q180.695 400.111 177.616 395.528 Q174.561 390.921 174.561 382.195 Q174.561 373.445 177.616 368.861 Q180.695 364.255 186.505 364.255 Z" fill="#000000" fill-rule="evenodd" fill-opacity="1" /><path clip-path="url(#clip070)" d="M 0 0 M117.339 149.547 L147.015 149.547 L147.015 153.482 L117.339 153.482 L117.339 149.547 Z" fill="#000000" fill-rule="evenodd" fill-opacity="1" /><path clip-path="url(#clip070)" d="M 0 0 M156.112 162.44 L172.431 162.44 L172.431 166.376 L150.487 166.376 L150.487 162.44 Q153.149 159.686 157.732 155.056 Q162.339 150.404 163.519 149.061 Q165.765 146.538 166.644 144.802 Q167.547 143.042 167.547 141.353 Q167.547 138.598 165.602 136.862 Q163.681 135.126 160.579 135.126 Q158.38 135.126 155.927 135.89 Q153.496 136.654 150.718 138.205 L150.718 133.482 Q153.542 132.348 155.996 131.769 Q158.45 131.191 160.487 131.191 Q165.857 131.191 169.052 133.876 Q172.246 136.561 172.246 141.052 Q172.246 143.181 171.436 145.103 Q170.649 147.001 168.542 149.593 Q167.964 150.265 164.862 153.482 Q161.76 156.677 156.112 162.44 Z" fill="#000000" fill-rule="evenodd" fill-opacity="1" /><path clip-path="url(#clip070)" d="M 0 0 M177.547 131.816 L195.903 131.816 L195.903 135.751 L181.829 135.751 L181.829 144.223 Q182.848 143.876 183.866 143.714 Q184.885 143.529 185.903 143.529 Q191.69 143.529 195.07 146.7 Q198.45 149.871 198.45 155.288 Q198.45 160.866 194.977 163.968 Q191.505 167.047 185.186 167.047 Q183.01 167.047 180.741 166.677 Q178.496 166.306 176.089 165.565 L176.089 160.866 Q178.172 162.001 180.394 162.556 Q182.616 163.112 185.093 163.112 Q189.098 163.112 191.436 161.005 Q193.774 158.899 193.774 155.288 Q193.774 151.677 191.436 149.57 Q189.098 147.464 185.093 147.464 Q183.218 147.464 181.343 147.88 Q179.491 148.297 177.547 149.177 L177.547 131.816 Z" fill="#000000" fill-rule="evenodd" fill-opacity="1" /><path clip-path="url(#clip070)" d="M 0 0 M21.7677 853.646 L39.6235 853.646 L39.6235 845.561 Q39.6235 841.074 37.3 838.623 Q34.9765 836.172 30.6797 836.172 Q26.4147 836.172 24.0912 838.623 Q21.7677 841.074 21.7677 845.561 L21.7677 853.646 M16.4842 860.075 L16.4842 845.561 Q16.4842 837.573 20.1126 833.498 Q23.7092 829.393 30.6797 829.393 Q37.7138 829.393 41.3104 833.498 Q44.907 837.573 44.907 845.561 L44.907 853.646 L64.0042 853.646 L64.0042 860.075 L16.4842 860.075 Z" fill="#000000" fill-rule="evenodd" fill-opacity="1" /><path clip-path="url(#clip070)" d="M 0 0 M14.5426 809.181 Q21.8632 813.447 29.0246 815.515 Q36.186 817.584 43.5384 817.584 Q50.8908 817.584 58.1159 815.515 Q65.3091 813.415 72.5979 809.181 L72.5979 814.274 Q65.1182 819.048 57.8931 821.435 Q50.668 823.791 43.5384 823.791 Q36.4406 823.791 29.2474 821.435 Q22.0542 819.08 14.5426 814.274 L14.5426 809.181 Z" fill="#000000" fill-rule="evenodd" fill-opacity="1" /><path clip-path="url(#clip070)" d="M 0 0 M33.7671 779.581 L14.479 779.581 L14.479 773.724 L64.0042 773.724 L64.0042 779.581 L58.657 779.581 Q61.8398 781.427 63.3994 784.26 Q64.9272 787.061 64.9272 791.007 Q64.9272 797.469 59.771 801.543 Q54.6147 805.585 46.212 805.585 Q37.8093 805.585 32.6531 801.543 Q27.4968 797.469 27.4968 791.007 Q27.4968 787.061 29.0564 784.26 Q30.5842 781.427 33.7671 779.581 M46.212 799.537 Q52.6732 799.537 56.3653 796.896 Q60.0256 794.222 60.0256 789.575 Q60.0256 784.928 56.3653 782.255 Q52.6732 779.581 46.212 779.581 Q39.7508 779.581 36.0905 782.255 Q32.3984 784.928 32.3984 789.575 Q32.3984 794.222 36.0905 796.896 Q39.7508 799.537 46.212 799.537 Z" fill="#000000" fill-rule="evenodd" fill-opacity="1" /><path clip-path="url(#clip070)" d="M 0 0 M46.0847 751.381 Q46.0847 758.479 47.7079 761.216 Q49.3312 763.953 53.2461 763.953 Q56.3653 763.953 58.2114 761.916 Q60.0256 759.847 60.0256 756.314 Q60.0256 751.445 56.5881 748.516 Q53.1188 745.556 47.3897 745.556 L46.0847 745.556 L46.0847 751.381 M43.6657 739.7 L64.0042 739.7 L64.0042 745.556 L58.5933 745.556 Q61.8398 747.561 63.3994 750.553 Q64.9272 753.545 64.9272 757.874 Q64.9272 763.348 61.8716 766.595 Q58.7843 769.81 53.6281 769.81 Q47.6125 769.81 44.5569 765.799 Q41.5014 761.757 41.5014 753.768 L41.5014 745.556 L40.9285 745.556 Q36.8862 745.556 34.6901 748.23 Q32.4621 750.872 32.4621 755.678 Q32.4621 758.733 33.1941 761.63 Q33.9262 764.526 35.3903 767.2 L29.9795 767.2 Q28.7381 763.985 28.1334 760.961 Q27.4968 757.938 27.4968 755.073 Q27.4968 747.339 31.5072 743.519 Q35.5176 739.7 43.6657 739.7 Z" fill="#000000" fill-rule="evenodd" fill-opacity="1" /><path clip-path="url(#clip070)" d="M 0 0 M18.2347 727.764 L28.3562 727.764 L28.3562 715.701 L32.9077 715.701 L32.9077 727.764 L52.2594 727.764 Q56.6199 727.764 57.8613 726.586 Q59.1026 725.377 59.1026 721.717 L59.1026 715.701 L64.0042 715.701 L64.0042 721.717 Q64.0042 728.496 61.4897 731.074 Q58.9434 733.652 52.2594 733.652 L32.9077 733.652 L32.9077 737.949 L28.3562 737.949 L28.3562 733.652 L18.2347 733.652 L18.2347 727.764 Z" fill="#000000" fill-rule="evenodd" fill-opacity="1" /><path clip-path="url(#clip070)" d="M 0 0 M46.0847 693.357 Q46.0847 700.455 47.7079 703.192 Q49.3312 705.93 53.2461 705.93 Q56.3653 705.93 58.2114 703.893 Q60.0256 701.824 60.0256 698.291 Q60.0256 693.421 56.5881 690.493 Q53.1188 687.533 47.3897 687.533 L46.0847 687.533 L46.0847 693.357 M43.6657 681.676 L64.0042 681.676 L64.0042 687.533 L58.5933 687.533 Q61.8398 689.538 63.3994 692.53 Q64.9272 695.522 64.9272 699.85 Q64.9272 705.325 61.8716 708.571 Q58.7843 711.786 53.6281 711.786 Q47.6125 711.786 44.5569 707.776 Q41.5014 703.734 41.5014 695.745 L41.5014 687.533 L40.9285 687.533 Q36.8862 687.533 34.6901 690.206 Q32.4621 692.848 32.4621 697.654 Q32.4621 700.71 33.1941 703.606 Q33.9262 706.503 35.3903 709.176 L29.9795 709.176 Q28.7381 705.962 28.1334 702.938 Q27.4968 699.914 27.4968 697.05 Q27.4968 689.315 31.5072 685.496 Q35.5176 681.676 43.6657 681.676 Z" fill="#000000" fill-rule="evenodd" fill-opacity="1" /><path clip-path="url(#clip070)" d="M 0 0 M14.1925 667.99 L79.3773 667.99 L79.3773 673.401 L14.1925 673.401 L14.1925 667.99 Z" fill="#000000" fill-rule="evenodd" fill-opacity="1" /><path clip-path="url(#clip070)" d="M 0 0 M58.657 656.182 L77.5631 656.182 L77.5631 662.07 L28.3562 662.07 L28.3562 656.182 L33.7671 656.182 Q30.5842 654.336 29.0564 651.535 Q27.4968 648.702 27.4968 644.787 Q27.4968 638.294 32.6531 634.252 Q37.8093 630.178 46.212 630.178 Q54.6147 630.178 59.771 634.252 Q64.9272 638.294 64.9272 644.787 Q64.9272 648.702 63.3994 651.535 Q61.8398 654.336 58.657 656.182 M46.212 636.257 Q39.7508 636.257 36.0905 638.931 Q32.3984 641.572 32.3984 646.219 Q32.3984 650.866 36.0905 653.54 Q39.7508 656.182 46.212 656.182 Q52.6732 656.182 56.3653 653.54 Q60.0256 650.866 60.0256 646.219 Q60.0256 641.572 56.3653 638.931 Q52.6732 636.257 46.212 636.257 Z" fill="#000000" fill-rule="evenodd" fill-opacity="1" /><path clip-path="url(#clip070)" d="M 0 0 M14.5426 624.958 L14.5426 619.865 Q22.0542 615.091 29.2474 612.736 Q36.4406 610.349 43.5384 610.349 Q50.668 610.349 57.8931 612.736 Q65.1182 615.091 72.5979 619.865 L72.5979 624.958 Q65.3091 620.725 58.1159 618.656 Q50.8908 616.555 43.5384 616.555 Q36.186 616.555 29.0246 618.656 Q21.8632 620.725 14.5426 624.958 Z" fill="#000000" fill-rule="evenodd" fill-opacity="1" /><polyline clip-path="url(#clip072)" style="stroke:#000000; stroke-width:4; stroke-opacity:1; fill:none" points="
  296.4,1384.24 298.398,1101.08 300.397,938.589 302.395,825.5 304.394,739.472 306.392,670.555 308.39,613.442 310.389,564.965 312.387,523.08 314.386,486.392 
  316.384,453.905 318.382,424.885 320.381,398.773 322.379,375.135 324.378,353.628 326.376,333.973 328.374,315.944 330.373,299.353 332.371,284.043 334.37,269.88 
  336.368,256.75 338.366,244.555 340.365,233.211 342.363,222.643 344.362,212.787 346.36,203.585 348.358,194.986 350.357,186.945 352.355,179.421 354.354,172.377 
  356.352,165.782 358.35,159.604 360.349,153.817 362.347,148.396 364.346,143.319 366.344,138.565 368.342,134.115 370.341,129.952 372.339,126.059 374.338,122.421 
  376.336,119.025 378.334,115.859 380.333,112.909 382.331,110.165 384.33,107.616 386.328,105.254 388.326,103.068 390.325,101.05 392.323,99.1919 394.322,97.4868 
  396.32,95.9271 398.319,94.5062 400.317,93.2179 402.315,92.056 404.314,91.015 406.312,90.0896 408.311,89.2745 410.309,88.5651 412.307,87.9567 414.306,87.445 
  416.304,87.0258 418.303,86.6951 420.301,86.4493 422.299,86.2848 424.298,86.198 426.296,86.1857 428.295,86.2448 430.293,86.3722 432.291,86.5652 434.29,86.8208 
  436.288,87.1366 438.287,87.51 440.285,87.9385 442.283,88.4198 444.282,88.9516 446.28,89.5318 448.279,90.1583 450.277,90.8292 452.275,91.5424 454.274,92.2962 
  456.272,93.0887 458.271,93.9182 460.269,94.7832 462.267,95.6818 464.266,96.6127 466.264,97.5743 468.263,98.5652 470.261,99.584 472.259,100.629 474.258,101.7 
  476.256,102.794 478.255,103.912 480.253,105.05 482.251,106.21 484.25,107.388 486.248,108.585 488.247,109.799 490.245,111.03 492.243,112.276 494.242,113.536 
  496.24,114.809 498.239,116.095 500.237,117.393 502.235,118.701 504.234,120.02 506.232,121.348 508.231,122.685 510.229,124.029 512.227,125.38 514.226,126.738 
  516.224,128.102 518.223,129.471 520.221,130.844 522.219,132.221 524.218,133.602 526.216,134.985 528.215,136.371 530.213,137.758 532.211,139.146 534.21,140.535 
  536.208,141.925 538.207,143.314 540.205,144.702 542.203,146.089 544.202,147.475 546.2,148.859 548.199,150.24 550.197,151.618 552.195,152.994 554.194,154.366 
  556.192,155.734 558.191,157.098 560.189,158.458 562.187,159.812 564.186,161.162 566.184,162.507 568.183,163.845 570.181,165.178 572.18,166.505 574.178,167.826 
  576.176,169.139 578.175,170.446 580.173,171.746 582.172,173.039 584.17,174.324 586.168,175.602 588.167,176.871 590.165,178.133 592.164,179.387 594.162,180.632 
  596.16,181.869 598.159,183.097 600.157,184.316 602.156,185.527 604.154,186.728 606.152,187.92 608.151,189.104 610.149,190.277 612.148,191.442 614.146,192.597 
  616.144,193.742 618.143,194.878 620.141,196.004 622.14,197.12 624.138,198.226 626.136,199.322 628.135,200.408 630.133,201.485 632.132,202.551 634.13,203.607 
  636.128,204.653 638.127,205.689 640.125,206.714 642.124,207.729 644.122,208.735 646.12,209.729 648.119,210.714 650.117,211.688 652.116,212.653 654.114,213.606 
  656.112,214.55 658.111,215.483 660.109,216.407 662.108,217.32 664.106,218.222 666.104,219.115 668.103,219.997 670.101,220.87 672.1,221.732 674.098,222.584 
  676.096,223.426 678.095,224.259 680.093,225.081 682.092,225.893 684.09,226.696 686.088,227.489 688.087,228.271 690.085,229.045 692.084,229.808 694.082,230.562 
  696.08,231.307 698.079,232.041 700.077,232.767 702.076,233.483 704.074,234.19 706.072,234.887 708.071,235.576 710.069,236.255 712.068,236.925 714.066,237.586 
  716.064,238.238 718.063,238.881 720.061,239.516 722.06,240.142 724.058,240.759 726.056,241.367 728.055,241.967 730.053,242.559 732.052,243.142 734.05,243.717 
  736.048,244.284 738.047,244.842 740.045,245.393 742.044,245.935 744.042,246.47 746.04,246.997 748.039,247.516 750.037,248.027 752.036,248.531 754.034,249.027 
  756.033,249.516 758.031,249.998 760.029,250.472 762.028,250.939 764.026,251.398 766.025,251.851 768.023,252.297 770.021,252.736 772.02,253.168 774.018,253.593 
  776.017,254.012 778.015,254.424 780.013,254.829 782.012,255.228 784.01,255.621 786.009,256.007 788.007,256.387 790.005,256.761 792.004,257.129 794.002,257.491 
  796.001,257.848 797.999,258.198 799.997,258.542 801.996,258.881 803.994,259.214 805.993,259.542 807.991,259.864 809.989,260.181 811.988,260.493 813.986,260.799 
  815.985,261.1 817.983,261.396 819.981,261.687 821.98,261.972 823.978,262.253 825.977,262.53 827.975,262.801 829.973,263.068 831.972,263.33 833.97,263.587 
  835.969,263.84 837.967,264.089 839.965,264.333 841.964,264.572 843.962,264.808 845.961,265.039 847.959,265.266 849.957,265.49 851.956,265.709 853.954,265.924 
  855.953,266.135 857.951,266.343 859.949,266.546 861.948,266.746 863.946,266.942 865.945,267.135 867.943,267.324 869.941,267.51 871.94,267.692 873.938,267.871 
  875.937,268.046 877.935,268.218 879.933,268.387 881.932,268.553 883.93,268.716 885.929,268.875 887.927,269.032 889.925,269.185 891.924,269.336 893.922,269.484 
  895.921,269.629 897.919,269.771 899.917,269.91 901.916,270.047 903.914,270.181 905.913,270.312 907.911,270.441 909.909,270.567 911.908,270.691 913.906,270.812 
  915.905,270.931 917.903,271.048 919.901,271.162 921.9,271.274 923.898,271.384 925.897,271.492 927.895,271.597 929.894,271.7 931.892,271.801 933.89,271.901 
  935.889,271.998 937.887,272.093 939.886,272.186 941.884,272.277 943.882,272.367 945.881,272.454 947.879,272.54 949.878,272.624 951.876,272.706 953.874,272.787 
  955.873,272.866 957.871,272.943 959.87,273.019 961.868,273.093 963.866,273.165 965.865,273.236 967.863,273.305 969.862,273.373 971.86,273.44 973.858,273.505 
  975.857,273.568 977.855,273.631 979.854,273.692 981.852,273.751 983.85,273.81 985.849,273.867 987.847,273.922 989.846,273.977 991.844,274.03 993.842,274.083 
  995.841,274.134 997.839,274.184 999.838,274.232 1001.84,274.28 1003.83,274.327 1005.83,274.373 1007.83,274.417 1009.83,274.461 1011.83,274.503 1013.83,274.545 
  1015.82,274.586 1017.82,274.626 1019.82,274.665 1021.82,274.703 1023.82,274.74 1025.82,274.776 1027.82,274.811 1029.81,274.846 1031.81,274.88 1033.81,274.913 
  1035.81,274.945 1037.81,274.977 1039.81,275.008 1041.8,275.038 1043.8,275.067 1045.8,275.096 1047.8,275.124 1049.8,275.151 1051.8,275.178 1053.79,275.204 
  1055.79,275.229 1057.79,275.254 1059.79,275.278 1061.79,275.302 1063.79,275.325 1065.78,275.347 1067.78,275.369 1069.78,275.391 1071.78,275.411 1073.78,275.432 
  1075.78,275.452 1077.78,275.471 1079.77,275.49 1081.77,275.508 1083.77,275.526 1085.77,275.544 1087.77,275.561 1089.77,275.578 1091.76,275.594 1093.76,275.61 
  1095.76,275.625 1097.76,275.64 1099.76,275.655 1101.76,275.669 1103.75,275.683 1105.75,275.696 1107.75,275.71 1109.75,275.723 1111.75,275.735 1113.75,275.747 
  1115.74,275.759 1117.74,275.771 1119.74,275.782 1121.74,275.793 1123.74,275.804 1125.74,275.814 1127.74,275.824 1129.73,275.834 1131.73,275.844 1133.73,275.853 
  1135.73,275.862 1137.73,275.871 1139.73,275.879 1141.72,275.888 1143.72,275.896 1145.72,275.904 1147.72,275.912 1149.72,275.919 1151.72,275.926 1153.71,275.933 
  1155.71,275.94 1157.71,275.947 1159.71,275.954 1161.71,275.96 1163.71,275.966 1165.7,275.972 1167.7,275.978 1169.7,275.983 1171.7,275.989 1173.7,275.994 
  1175.7,275.999 1177.7,276.004 1179.69,276.009 1181.69,276.014 1183.69,276.019 1185.69,276.023 1187.69,276.027 1189.69,276.032 1191.68,276.036 1193.68,276.04 
  1195.68,276.044 1197.68,276.047 1199.68,276.051 1201.68,276.054 1203.67,276.058 1205.67,276.061 1207.67,276.064 1209.67,276.068 1211.67,276.071 1213.67,276.073 
  1215.67,276.076 1217.66,276.079 1219.66,276.082 1221.66,276.084 1223.66,276.087 1225.66,276.089 1227.66,276.092 1229.65,276.094 1231.65,276.096 1233.65,276.098 
  1235.65,276.1 1237.65,276.102 1239.65,276.104 1241.64,276.106 1243.64,276.108 1245.64,276.11 1247.64,276.111 1249.64,276.113 1251.64,276.115 1253.63,276.116 
  1255.63,276.118 1257.63,276.119 1259.63,276.12 1261.63,276.122 1263.63,276.123 1265.63,276.124 1267.62,276.126 1269.62,276.127 1271.62,276.128 1273.62,276.129 
  1275.62,276.13 1277.62,276.131 1279.61,276.132 1281.61,276.133 1283.61,276.134 1285.61,276.135 1287.61,276.136 1289.61,276.137 1291.6,276.137 1293.6,276.138 
  1295.6,276.139 1297.6,276.14 1299.6,276.14 1301.6,276.141 1303.59,276.142 1305.59,276.142 1307.59,276.143 1309.59,276.143 1311.59,276.144 1313.59,276.144 
  1315.59,276.145 1317.58,276.145 1319.58,276.146 1321.58,276.146 1323.58,276.147 1325.58,276.147 1327.58,276.148 1329.57,276.148 1331.57,276.148 1333.57,276.149 
  1335.57,276.149 1337.57,276.149 1339.57,276.15 1341.56,276.15 1343.56,276.15 1345.56,276.151 1347.56,276.151 1349.56,276.151 1351.56,276.151 1353.55,276.152 
  1355.55,276.152 1357.55,276.152 1359.55,276.152 1361.55,276.153 1363.55,276.153 1365.55,276.153 1367.54,276.153 1369.54,276.153 1371.54,276.154 1373.54,276.154 
  1375.54,276.154 1377.54,276.154 1379.53,276.154 1381.53,276.154 1383.53,276.154 1385.53,276.155 1387.53,276.155 1389.53,276.155 1391.52,276.155 1393.52,276.155 
  1395.52,276.155 1397.52,276.155 1399.52,276.155 1401.52,276.155 1403.51,276.155 1405.51,276.156 1407.51,276.156 1409.51,276.156 1411.51,276.156 1413.51,276.156 
  1415.51,276.156 1417.5,276.156 1419.5,276.156 1421.5,276.156 1423.5,276.156 1425.5,276.156 1427.5,276.156 1429.49,276.156 1431.49,276.156 1433.49,276.156 
  1435.49,276.156 1437.49,276.156 1439.49,276.156 1441.48,276.156 1443.48,276.156 1445.48,276.157 1447.48,276.157 1449.48,276.157 1451.48,276.157 1453.47,276.157 
  1455.47,276.157 1457.47,276.157 1459.47,276.157 1461.47,276.157 1463.47,276.157 1465.47,276.157 1467.46,276.157 1469.46,276.157 1471.46,276.157 1473.46,276.157 
  1475.46,276.157 1477.46,276.157 1479.45,276.157 1481.45,276.157 1483.45,276.157 1485.45,276.157 1487.45,276.157 1489.45,276.157 1491.44,276.157 1493.44,276.157 
  1495.44,276.157 1497.44,276.157 1499.44,276.157 1501.44,276.157 1503.43,276.157 1505.43,276.157 1507.43,276.157 1509.43,276.157 1511.43,276.157 1513.43,276.157 
  1515.43,276.157 1517.42,276.157 1519.42,276.157 1521.42,276.157 1523.42,276.157 1525.42,276.157 1527.42,276.157 1529.41,276.157 1531.41,276.157 1533.41,276.157 
  1535.41,276.157 1537.41,276.157 1539.41,276.157 1541.4,276.157 1543.4,276.157 1545.4,276.157 1547.4,276.157 1549.4,276.157 1551.4,276.157 1553.4,276.157 
  1555.39,276.157 1557.39,276.157 1559.39,276.157 1561.39,276.157 1563.39,276.157 1565.39,276.157 1567.38,276.157 1569.38,276.157 1571.38,276.157 1573.38,276.157 
  1575.38,276.157 1577.38,276.157 1579.37,276.157 1581.37,276.157 1583.37,276.157 1585.37,276.157 1587.37,276.157 1589.37,276.157 1591.36,276.157 1593.36,276.157 
  1595.36,276.157 1597.36,276.157 1599.36,276.157 1601.36,276.157 1603.36,276.157 1605.35,276.157 1607.35,276.157 1609.35,276.157 1611.35,276.157 1613.35,276.157 
  1615.35,276.157 1617.34,276.157 1619.34,276.157 1621.34,276.157 1623.34,276.157 1625.34,276.157 1627.34,276.157 1629.33,276.157 1631.33,276.157 1633.33,276.157 
  1635.33,276.157 1637.33,276.157 1639.33,276.157 1641.32,276.157 1643.32,276.157 1645.32,276.157 1647.32,276.157 1649.32,276.157 1651.32,276.157 1653.32,276.157 
  1655.31,276.157 1657.31,276.157 1659.31,276.157 1661.31,276.157 1663.31,276.157 1665.31,276.157 1667.3,276.157 1669.3,276.157 1671.3,276.157 1673.3,276.157 
  1675.3,276.157 1677.3,276.157 1679.29,276.157 1681.29,276.157 1683.29,276.157 1685.29,276.157 1687.29,276.157 1689.29,276.157 1691.28,276.157 1693.28,276.157 
  1695.28,276.157 1697.28,276.157 1699.28,276.157 1701.28,276.157 1703.28,276.157 1705.27,276.157 1707.27,276.157 1709.27,276.157 1711.27,276.157 1713.27,276.157 
  1715.27,276.157 1717.26,276.157 1719.26,276.157 1721.26,276.157 1723.26,276.157 1725.26,276.157 1727.26,276.157 1729.25,276.157 1731.25,276.157 1733.25,276.157 
  1735.25,276.157 1737.25,276.157 1739.25,276.157 1741.24,276.157 1743.24,276.157 1745.24,276.157 1747.24,276.157 1749.24,276.157 1751.24,276.157 1753.24,276.157 
  1755.23,276.157 1757.23,276.157 1759.23,276.157 1761.23,276.157 1763.23,276.157 1765.23,276.157 1767.22,276.157 1769.22,276.157 1771.22,276.157 1773.22,276.157 
  1775.22,276.157 1777.22,276.157 1779.21,276.157 1781.21,276.157 1783.21,276.157 1785.21,276.157 1787.21,276.157 1789.21,276.157 1791.2,276.157 1793.2,276.157 
  1795.2,276.157 1797.2,276.157 1799.2,276.157 1801.2,276.157 1803.2,276.157 1805.19,276.157 1807.19,276.157 1809.19,276.157 1811.19,276.157 1813.19,276.157 
  1815.19,276.157 1817.18,276.157 1819.18,276.157 1821.18,276.157 1823.18,276.157 1825.18,276.157 1827.18,276.157 1829.17,276.157 1831.17,276.157 1833.17,276.157 
  1835.17,276.157 1837.17,276.157 1839.17,276.157 1841.16,276.157 1843.16,276.157 1845.16,276.157 1847.16,276.157 1849.16,276.157 1851.16,276.157 1853.16,276.157 
  1855.15,276.157 1857.15,276.157 1859.15,276.157 1861.15,276.157 1863.15,276.157 1865.15,276.157 1867.14,276.157 1869.14,276.157 1871.14,276.157 1873.14,276.157 
  1875.14,276.157 1877.14,276.157 1879.13,276.157 1881.13,276.157 1883.13,276.157 1885.13,276.157 1887.13,276.157 1889.13,276.157 1891.12,276.157 1893.12,276.157 
  1895.12,276.157 1897.12,276.157 1899.12,276.157 1901.12,276.157 1903.12,276.157 1905.11,276.157 1907.11,276.157 1909.11,276.157 1911.11,276.157 1913.11,276.157 
  1915.11,276.157 1917.1,276.157 1919.1,276.157 1921.1,276.157 1923.1,276.157 1925.1,276.157 1927.1,276.157 1929.09,276.157 1931.09,276.157 1933.09,276.157 
  1935.09,276.157 1937.09,276.157 1939.09,276.157 1941.09,276.157 1943.08,276.157 1945.08,276.157 1947.08,276.157 1949.08,276.157 1951.08,276.157 1953.08,276.157 
  1955.07,276.157 1957.07,276.157 1959.07,276.157 1961.07,276.157 1963.07,276.157 1965.07,276.157 1967.06,276.157 1969.06,276.157 1971.06,276.157 1973.06,276.157 
  1975.06,276.157 1977.06,276.157 1979.05,276.157 1981.05,276.157 1983.05,276.157 1985.05,276.157 1987.05,276.157 1989.05,276.157 1991.05,276.157 1993.04,276.157 
  1995.04,276.157 1997.04,276.157 1999.04,276.157 2001.04,276.157 2003.04,276.157 2005.03,276.157 2007.03,276.157 2009.03,276.157 2011.03,276.157 2013.03,276.157 
  2015.03,276.157 2017.02,276.157 2019.02,276.157 2021.02,276.157 2023.02,276.157 2025.02,276.157 2027.02,276.157 2029.01,276.157 2031.01,276.157 2033.01,276.157 
  2035.01,276.157 2037.01,276.157 2039.01,276.157 2041.01,276.157 2043,276.157 2045,276.157 2047,276.157 2049,276.157 2051,276.157 2053,276.157 
  2054.99,276.157 2056.99,276.157 2058.99,276.157 2060.99,276.157 2062.99,276.157 2064.99,276.157 2066.98,276.157 2068.98,276.157 2070.98,276.157 2072.98,276.157 
  2074.98,276.157 2076.98,276.157 2078.97,276.157 2080.97,276.157 2082.97,276.157 2084.97,276.157 2086.97,276.157 2088.97,276.157 2090.97,276.157 2092.96,276.157 
  2094.96,276.157 2096.96,276.157 2098.96,276.157 2100.96,276.157 2102.96,276.157 2104.95,276.157 2106.95,276.157 2108.95,276.157 2110.95,276.157 2112.95,276.157 
  2114.95,276.157 2116.94,276.157 2118.94,276.157 2120.94,276.157 2122.94,276.157 2124.94,276.157 2126.94,276.157 2128.93,276.157 2130.93,276.157 2132.93,276.157 
  2134.93,276.157 2136.93,276.157 2138.93,276.157 2140.93,276.157 2142.92,276.156 2144.92,276.156 2146.92,276.156 2148.92,276.156 2150.92,276.156 2152.92,276.156 
  2154.91,276.156 2156.91,276.156 2158.91,276.156 2160.91,276.156 2162.91,276.156 2164.91,276.156 2166.9,276.156 2168.9,276.156 2170.9,276.156 2172.9,276.156 
  2174.9,276.156 2176.9,276.156 2178.89,276.156 2180.89,276.156 2182.89,276.155 2184.89,276.155 2186.89,276.155 2188.89,276.155 2190.89,276.155 2192.88,276.155 
  2194.88,276.155 2196.88,276.155 2198.88,276.155 2200.88,276.155 2202.88,276.154 2204.87,276.154 2206.87,276.154 2208.87,276.154 2210.87,276.154 2212.87,276.154 
  2214.87,276.154 2216.86,276.153 2218.86,276.153 2220.86,276.153 2222.86,276.153 2224.86,276.153 2226.86,276.152 2228.85,276.152 2230.85,276.152 2232.85,276.152 
  2234.85,276.151 2236.85,276.151 2238.85,276.151 2240.85,276.151 2242.84,276.15 2244.84,276.15 2246.84,276.15 2248.84,276.149 2250.84,276.149 2252.84,276.149 
  2254.83,276.148 2256.83,276.148 2258.83,276.148 2260.83,276.147 2262.83,276.147 2264.83,276.146 2266.82,276.146 2268.82,276.145 2270.82,276.145 2272.82,276.144 
  2274.82,276.144 2276.82,276.143 2278.82,276.143 2280.81,276.142 2282.81,276.142 2284.81,276.141 2286.81,276.14 2288.81,276.14 2290.81,276.139 2292.8,276.138 
  
  "/>
</svg>
