<?xml version="1.0" encoding="utf-8"?>
<svg xmlns="http://www.w3.org/2000/svg" xmlns:xlink="http://www.w3.org/1999/xlink" width="600" height="400" viewBox="0 0 2400 1600">
<defs>
  <clipPath id="clip5500">
    <rect x="0" y="0" width="2400" height="1600"/>
  </clipPath>
</defs>
<path clip-path="url(#clip5500)" d="
M0 1600 L2400 1600 L2400 0 L0 0  Z
  " fill="#ffffff" fill-rule="evenodd" fill-opacity="1"/>
<defs>
  <clipPath id="clip5501">
    <rect x="480" y="0" width="1681" height="1600"/>
  </clipPath>
</defs>
<path clip-path="url(#clip5500)" d="
M230.483 1425.62 L2352.76 1425.62 L2352.76 47.2441 L230.483 47.2441  Z
  " fill="#ffffff" fill-rule="evenodd" fill-opacity="1"/>
<defs>
  <clipPath id="clip5502">
    <rect x="230" y="47" width="2123" height="1379"/>
  </clipPath>
</defs>
<polyline clip-path="url(#clip5500)" style="stroke:#000000; stroke-width:4; stroke-opacity:1; fill:none" points="
  230.483,1425.62 2352.76,1425.62 
  "/>
<polyline clip-path="url(#clip5500)" style="stroke:#000000; stroke-width:4; stroke-opacity:1; fill:none" points="
  230.483,1425.62 230.483,47.2441 
  "/>
<polyline clip-path="url(#clip5500)" style="stroke:#000000; stroke-width:4; stroke-opacity:1; fill:none" points="
  290.547,1425.62 290.547,1409.08 
  "/>
<polyline clip-path="url(#clip5500)" style="stroke:#000000; stroke-width:4; stroke-opacity:1; fill:none" points="
  791.083,1425.62 791.083,1409.08 
  "/>
<polyline clip-path="url(#clip5500)" style="stroke:#000000; stroke-width:4; stroke-opacity:1; fill:none" points="
  1291.62,1425.62 1291.62,1409.08 
  "/>
<polyline clip-path="url(#clip5500)" style="stroke:#000000; stroke-width:4; stroke-opacity:1; fill:none" points="
  1792.16,1425.62 1792.16,1409.08 
  "/>
<polyline clip-path="url(#clip5500)" style="stroke:#000000; stroke-width:4; stroke-opacity:1; fill:none" points="
  2292.69,1425.62 2292.69,1409.08 
  "/>
<polyline clip-path="url(#clip5500)" style="stroke:#000000; stroke-width:4; stroke-opacity:1; fill:none" points="
  230.483,1263.11 255.95,1263.11 
  "/>
<polyline clip-path="url(#clip5500)" style="stroke:#000000; stroke-width:4; stroke-opacity:1; fill:none" points="
  230.483,1001.92 255.95,1001.92 
  "/>
<polyline clip-path="url(#clip5500)" style="stroke:#000000; stroke-width:4; stroke-opacity:1; fill:none" points="
  230.483,740.732 255.95,740.732 
  "/>
<polyline clip-path="url(#clip5500)" style="stroke:#000000; stroke-width:4; stroke-opacity:1; fill:none" points="
  230.483,479.544 255.95,479.544 
  "/>
<polyline clip-path="url(#clip5500)" style="stroke:#000000; stroke-width:4; stroke-opacity:1; fill:none" points="
  230.483,218.356 255.95,218.356 
  "/>
<g clip-path="url(#clip5500)">
<text style="fill:#000000; fill-opacity:1; font-family:Arial,Helvetica Neue,Helvetica,sans-serif; font-size:48px; text-anchor:middle;" transform="rotate(0, 290.547, 1479.62)" x="290.547" y="1479.62">0.00</text>
</g>
<g clip-path="url(#clip5500)">
<text style="fill:#000000; fill-opacity:1; font-family:Arial,Helvetica Neue,Helvetica,sans-serif; font-size:48px; text-anchor:middle;" transform="rotate(0, 791.083, 1479.62)" x="791.083" y="1479.62">0.25</text>
</g>
<g clip-path="url(#clip5500)">
<text style="fill:#000000; fill-opacity:1; font-family:Arial,Helvetica Neue,Helvetica,sans-serif; font-size:48px; text-anchor:middle;" transform="rotate(0, 1291.62, 1479.62)" x="1291.62" y="1479.62">0.50</text>
</g>
<g clip-path="url(#clip5500)">
<text style="fill:#000000; fill-opacity:1; font-family:Arial,Helvetica Neue,Helvetica,sans-serif; font-size:48px; text-anchor:middle;" transform="rotate(0, 1792.16, 1479.62)" x="1792.16" y="1479.62">0.75</text>
</g>
<g clip-path="url(#clip5500)">
<text style="fill:#000000; fill-opacity:1; font-family:Arial,Helvetica Neue,Helvetica,sans-serif; font-size:48px; text-anchor:middle;" transform="rotate(0, 2292.69, 1479.62)" x="2292.69" y="1479.62">1.00</text>
</g>
<g clip-path="url(#clip5500)">
<text style="fill:#000000; fill-opacity:1; font-family:Arial,Helvetica Neue,Helvetica,sans-serif; font-size:48px; text-anchor:end;" transform="rotate(0, 206.483, 1280.61)" x="206.483" y="1280.61">-33</text>
</g>
<g clip-path="url(#clip5500)">
<text style="fill:#000000; fill-opacity:1; font-family:Arial,Helvetica Neue,Helvetica,sans-serif; font-size:48px; text-anchor:end;" transform="rotate(0, 206.483, 1019.42)" x="206.483" y="1019.42">-30</text>
</g>
<g clip-path="url(#clip5500)">
<text style="fill:#000000; fill-opacity:1; font-family:Arial,Helvetica Neue,Helvetica,sans-serif; font-size:48px; text-anchor:end;" transform="rotate(0, 206.483, 758.232)" x="206.483" y="758.232">-27</text>
</g>
<g clip-path="url(#clip5500)">
<text style="fill:#000000; fill-opacity:1; font-family:Arial,Helvetica Neue,Helvetica,sans-serif; font-size:48px; text-anchor:end;" transform="rotate(0, 206.483, 497.044)" x="206.483" y="497.044">-24</text>
</g>
<g clip-path="url(#clip5500)">
<text style="fill:#000000; fill-opacity:1; font-family:Arial,Helvetica Neue,Helvetica,sans-serif; font-size:48px; text-anchor:end;" transform="rotate(0, 206.483, 235.856)" x="206.483" y="235.856">-21</text>
</g>
<g clip-path="url(#clip5500)">
<text style="fill:#000000; fill-opacity:1; font-family:Arial,Helvetica Neue,Helvetica,sans-serif; font-size:66px; text-anchor:middle;" transform="rotate(0, 1291.62, 1559.48)" x="1291.62" y="1559.48">p</text>
</g>
<g clip-path="url(#clip5500)">
<text style="fill:#000000; fill-opacity:1; font-family:Arial,Helvetica Neue,Helvetica,sans-serif; font-size:66px; text-anchor:middle;" transform="rotate(-90, 89.2861, 736.431)" x="89.2861" y="736.431">P(data|p)</text>
</g>
<polyline clip-path="url(#clip5502)" style="stroke:#000000; stroke-width:4; stroke-opacity:1; fill:none" points="
  292.549,1386.61 294.552,1041.54 296.554,846.72 298.556,713.394 300.558,613.748 302.56,535.392 304.562,471.718 306.564,418.78 308.567,374.034 310.569,335.742 
  312.571,302.663 314.573,273.883 316.575,248.706 318.577,226.592 320.579,207.111 322.582,189.919 324.584,174.733 326.586,161.318 328.588,149.477 330.59,139.045 
  332.592,129.88 334.594,121.859 336.597,114.876 338.599,108.84 340.601,103.668 342.603,99.2891 344.605,95.6396 346.607,92.6628 348.61,90.3077 350.612,88.5288 
  352.614,87.2846 354.616,86.5379 356.618,86.2547 358.62,86.404 360.622,86.9575 362.625,87.8892 364.627,89.1753 366.629,90.7937 368.631,92.7242 370.633,94.9479 
  372.635,97.4474 374.637,100.207 376.64,103.21 378.642,106.444 380.644,109.895 382.646,113.551 384.648,117.4 386.65,121.432 388.652,125.636 390.655,130.002 
  392.657,134.522 394.659,139.187 396.661,143.988 398.663,148.919 400.665,153.972 402.667,159.139 404.67,164.415 406.672,169.794 408.674,175.268 410.676,180.833 
  412.678,186.484 414.68,192.214 416.682,198.02 418.685,203.896 420.687,209.839 422.689,215.843 424.691,221.904 426.693,228.02 428.695,234.185 430.697,240.397 
  432.7,246.651 434.702,252.945 436.704,259.276 438.706,265.639 440.708,272.033 442.71,278.454 444.712,284.899 446.715,291.367 448.717,297.853 450.719,304.357 
  452.721,310.875 454.723,317.406 456.725,323.946 458.727,330.495 460.73,337.049 462.732,343.607 464.734,350.167 466.736,356.726 468.738,363.284 470.74,369.839 
  472.742,376.388 474.745,382.931 476.747,389.465 478.749,395.989 480.751,402.501 482.753,409.001 484.755,415.487 486.757,421.957 488.76,428.41 490.762,434.846 
  492.764,441.262 494.766,447.657 496.768,454.031 498.77,460.383 500.772,466.711 502.775,473.014 504.777,479.291 506.779,485.542 508.781,491.765 510.783,497.96 
  512.785,504.126 514.787,510.262 516.79,516.367 518.792,522.44 520.794,528.481 522.796,534.489 524.798,540.464 526.8,546.404 528.802,552.309 530.805,558.178 
  532.807,564.012 534.809,569.809 536.811,575.568 538.813,581.29 540.815,586.974 542.818,592.619 544.82,598.225 546.822,603.792 548.824,609.318 550.826,614.805 
  552.828,620.251 554.83,625.656 556.833,631.02 558.835,636.342 560.837,641.622 562.839,646.861 564.841,652.057 566.843,657.21 568.845,662.321 570.848,667.389 
  572.85,672.414 574.852,677.395 576.854,682.333 578.856,687.228 580.858,692.078 582.86,696.886 584.863,701.649 586.865,706.368 588.867,711.043 590.869,715.675 
  592.871,720.262 594.873,724.805 596.875,729.304 598.878,733.759 600.88,738.17 602.882,742.537 604.884,746.859 606.886,751.138 608.888,755.373 610.89,759.564 
  612.893,763.711 614.895,767.815 616.897,771.875 618.899,775.891 620.901,779.864 622.903,783.794 624.905,787.681 626.908,791.525 628.91,795.326 630.912,799.084 
  632.914,802.8 634.916,806.474 636.918,810.105 638.92,813.694 640.923,817.242 642.925,820.748 644.927,824.213 646.929,827.636 648.931,831.019 650.933,834.361 
  652.935,837.663 654.938,840.924 656.94,844.145 658.942,847.326 660.944,850.468 662.946,853.571 664.948,856.635 666.95,859.66 668.953,862.646 670.955,865.594 
  672.957,868.505 674.959,871.377 676.961,874.212 678.963,877.01 680.965,879.772 682.968,882.497 684.97,885.185 686.972,887.838 688.974,890.455 690.976,893.036 
  692.978,895.583 694.98,898.094 696.983,900.572 698.985,903.015 700.987,905.424 702.989,907.8 704.991,910.142 706.993,912.452 708.995,914.728 710.998,916.973 
  713,919.186 715.002,921.367 717.004,923.516 719.006,925.635 721.008,927.722 723.01,929.78 725.013,931.807 727.015,933.804 729.017,935.772 731.019,937.711 
  733.021,939.62 735.023,941.501 737.025,943.354 739.028,945.179 741.03,946.977 743.032,948.747 745.034,950.49 747.036,952.206 749.038,953.896 751.041,955.56 
  753.043,957.197 755.045,958.81 757.047,960.397 759.049,961.959 761.051,963.497 763.053,965.011 765.056,966.5 767.058,967.966 769.06,969.408 771.062,970.827 
  773.064,972.223 775.066,973.597 777.068,974.949 779.071,976.278 781.073,977.586 783.075,978.872 785.077,980.138 787.079,981.382 789.081,982.606 791.083,983.809 
  793.086,984.992 795.088,986.156 797.09,987.3 799.092,988.425 801.094,989.531 803.096,990.618 805.098,991.687 807.101,992.737 809.103,993.769 811.105,994.784 
  813.107,995.781 815.109,996.761 817.111,997.724 819.113,998.671 821.116,999.601 823.118,1000.51 825.12,1001.41 827.122,1002.29 829.124,1003.16 831.126,1004.01 
  833.128,1004.85 835.131,1005.67 837.133,1006.47 839.135,1007.27 841.137,1008.04 843.139,1008.81 845.141,1009.56 847.143,1010.29 849.146,1011.01 851.148,1011.72 
  853.15,1012.42 855.152,1013.1 857.154,1013.78 859.156,1014.44 861.158,1015.08 863.161,1015.72 865.163,1016.34 867.165,1016.95 869.167,1017.55 871.169,1018.14 
  873.171,1018.72 875.173,1019.28 877.176,1019.84 879.178,1020.38 881.18,1020.92 883.182,1021.44 885.184,1021.96 887.186,1022.46 889.188,1022.96 891.191,1023.44 
  893.193,1023.92 895.195,1024.39 897.197,1024.85 899.199,1025.29 901.201,1025.74 903.203,1026.17 905.206,1026.59 907.208,1027 909.21,1027.41 911.212,1027.81 
  913.214,1028.2 915.216,1028.58 917.218,1028.96 919.221,1029.33 921.223,1029.69 923.225,1030.04 925.227,1030.39 927.229,1030.72 929.231,1031.06 931.233,1031.38 
  933.236,1031.7 935.238,1032.01 937.24,1032.32 939.242,1032.62 941.244,1032.91 943.246,1033.2 945.248,1033.48 947.251,1033.75 949.253,1034.02 951.255,1034.29 
  953.257,1034.55 955.259,1034.8 957.261,1035.05 959.264,1035.29 961.266,1035.53 963.268,1035.76 965.27,1035.99 967.272,1036.21 969.274,1036.43 971.276,1036.64 
  973.279,1036.85 975.281,1037.05 977.283,1037.25 979.285,1037.45 981.287,1037.64 983.289,1037.83 985.291,1038.01 987.294,1038.19 989.296,1038.36 991.298,1038.53 
  993.3,1038.7 995.302,1038.86 997.304,1039.02 999.306,1039.18 1001.31,1039.33 1003.31,1039.48 1005.31,1039.63 1007.31,1039.77 1009.32,1039.91 1011.32,1040.05 
  1013.32,1040.18 1015.32,1040.31 1017.33,1040.44 1019.33,1040.56 1021.33,1040.68 1023.33,1040.8 1025.33,1040.92 1027.34,1041.03 1029.34,1041.14 1031.34,1041.25 
  1033.34,1041.36 1035.34,1041.46 1037.35,1041.56 1039.35,1041.66 1041.35,1041.75 1043.35,1041.85 1045.36,1041.94 1047.36,1042.03 1049.36,1042.12 1051.36,1042.2 
  1053.36,1042.28 1055.37,1042.37 1057.37,1042.44 1059.37,1042.52 1061.37,1042.6 1063.38,1042.67 1065.38,1042.74 1067.38,1042.81 1069.38,1042.88 1071.38,1042.95 
  1073.39,1043.01 1075.39,1043.08 1077.39,1043.14 1079.39,1043.2 1081.39,1043.26 1083.4,1043.31 1085.4,1043.37 1087.4,1043.42 1089.4,1043.48 1091.41,1043.53 
  1093.41,1043.58 1095.41,1043.63 1097.41,1043.68 1099.41,1043.72 1101.42,1043.77 1103.42,1043.81 1105.42,1043.86 1107.42,1043.9 1109.42,1043.94 1111.43,1043.98 
  1113.43,1044.02 1115.43,1044.06 1117.43,1044.09 1119.44,1044.13 1121.44,1044.16 1123.44,1044.2 1125.44,1044.23 1127.44,1044.26 1129.45,1044.29 1131.45,1044.33 
  1133.45,1044.35 1135.45,1044.38 1137.45,1044.41 1139.46,1044.44 1141.46,1044.47 1143.46,1044.49 1145.46,1044.52 1147.47,1044.54 1149.47,1044.57 1151.47,1044.59 
  1153.47,1044.61 1155.47,1044.63 1157.48,1044.65 1159.48,1044.67 1161.48,1044.69 1163.48,1044.71 1165.48,1044.73 1167.49,1044.75 1169.49,1044.77 1171.49,1044.79 
  1173.49,1044.8 1175.5,1044.82 1177.5,1044.84 1179.5,1044.85 1181.5,1044.87 1183.5,1044.88 1185.51,1044.9 1187.51,1044.91 1189.51,1044.92 1191.51,1044.94 
  1193.51,1044.95 1195.52,1044.96 1197.52,1044.97 1199.52,1044.98 1201.52,1044.99 1203.53,1045.01 1205.53,1045.02 1207.53,1045.03 1209.53,1045.04 1211.53,1045.05 
  1213.54,1045.06 1215.54,1045.06 1217.54,1045.07 1219.54,1045.08 1221.54,1045.09 1223.55,1045.1 1225.55,1045.11 1227.55,1045.11 1229.55,1045.12 1231.56,1045.13 
  1233.56,1045.13 1235.56,1045.14 1237.56,1045.15 1239.56,1045.15 1241.57,1045.16 1243.57,1045.16 1245.57,1045.17 1247.57,1045.18 1249.57,1045.18 1251.58,1045.19 
  1253.58,1045.19 1255.58,1045.19 1257.58,1045.2 1259.59,1045.2 1261.59,1045.21 1263.59,1045.21 1265.59,1045.22 1267.59,1045.22 1269.6,1045.22 1271.6,1045.23 
  1273.6,1045.23 1275.6,1045.23 1277.6,1045.24 1279.61,1045.24 1281.61,1045.24 1283.61,1045.25 1285.61,1045.25 1287.62,1045.25 1289.62,1045.25 1291.62,1045.26 
  1293.62,1045.26 1295.62,1045.26 1297.63,1045.26 1299.63,1045.27 1301.63,1045.27 1303.63,1045.27 1305.63,1045.27 1307.64,1045.27 1309.64,1045.28 1311.64,1045.28 
  1313.64,1045.28 1315.65,1045.28 1317.65,1045.28 1319.65,1045.28 1321.65,1045.29 1323.65,1045.29 1325.66,1045.29 1327.66,1045.29 1329.66,1045.29 1331.66,1045.29 
  1333.66,1045.29 1335.67,1045.29 1337.67,1045.3 1339.67,1045.3 1341.67,1045.3 1343.68,1045.3 1345.68,1045.3 1347.68,1045.3 1349.68,1045.3 1351.68,1045.3 
  1353.69,1045.3 1355.69,1045.3 1357.69,1045.3 1359.69,1045.3 1361.69,1045.31 1363.7,1045.31 1365.7,1045.31 1367.7,1045.31 1369.7,1045.31 1371.71,1045.31 
  1373.71,1045.31 1375.71,1045.31 1377.71,1045.31 1379.71,1045.31 1381.72,1045.31 1383.72,1045.31 1385.72,1045.31 1387.72,1045.31 1389.72,1045.31 1391.73,1045.31 
  1393.73,1045.31 1395.73,1045.31 1397.73,1045.31 1399.74,1045.31 1401.74,1045.31 1403.74,1045.31 1405.74,1045.31 1407.74,1045.31 1409.75,1045.31 1411.75,1045.32 
  1413.75,1045.32 1415.75,1045.32 1417.75,1045.32 1419.76,1045.32 1421.76,1045.32 1423.76,1045.32 1425.76,1045.32 1427.77,1045.32 1429.77,1045.32 1431.77,1045.32 
  1433.77,1045.32 1435.77,1045.32 1437.78,1045.32 1439.78,1045.32 1441.78,1045.32 1443.78,1045.32 1445.78,1045.32 1447.79,1045.32 1449.79,1045.32 1451.79,1045.32 
  1453.79,1045.32 1455.8,1045.32 1457.8,1045.32 1459.8,1045.32 1461.8,1045.32 1463.8,1045.32 1465.81,1045.32 1467.81,1045.32 1469.81,1045.32 1471.81,1045.32 
  1473.81,1045.32 1475.82,1045.32 1477.82,1045.32 1479.82,1045.32 1481.82,1045.32 1483.83,1045.32 1485.83,1045.32 1487.83,1045.32 1489.83,1045.32 1491.83,1045.32 
  1493.84,1045.32 1495.84,1045.32 1497.84,1045.32 1499.84,1045.32 1501.84,1045.32 1503.85,1045.32 1505.85,1045.32 1507.85,1045.32 1509.85,1045.32 1511.86,1045.32 
  1513.86,1045.32 1515.86,1045.32 1517.86,1045.32 1519.86,1045.32 1521.87,1045.32 1523.87,1045.32 1525.87,1045.32 1527.87,1045.32 1529.87,1045.32 1531.88,1045.32 
  1533.88,1045.32 1535.88,1045.32 1537.88,1045.32 1539.89,1045.32 1541.89,1045.32 1543.89,1045.32 1545.89,1045.32 1547.89,1045.32 1549.9,1045.32 1551.9,1045.32 
  1553.9,1045.32 1555.9,1045.32 1557.9,1045.32 1559.91,1045.32 1561.91,1045.32 1563.91,1045.32 1565.91,1045.32 1567.92,1045.32 1569.92,1045.32 1571.92,1045.32 
  1573.92,1045.32 1575.92,1045.32 1577.93,1045.32 1579.93,1045.32 1581.93,1045.32 1583.93,1045.32 1585.93,1045.32 1587.94,1045.32 1589.94,1045.32 1591.94,1045.32 
  1593.94,1045.32 1595.95,1045.32 1597.95,1045.32 1599.95,1045.32 1601.95,1045.32 1603.95,1045.32 1605.96,1045.32 1607.96,1045.32 1609.96,1045.32 1611.96,1045.32 
  1613.96,1045.32 1615.97,1045.32 1617.97,1045.32 1619.97,1045.32 1621.97,1045.32 1623.98,1045.32 1625.98,1045.32 1627.98,1045.32 1629.98,1045.32 1631.98,1045.32 
  1633.99,1045.32 1635.99,1045.32 1637.99,1045.32 1639.99,1045.32 1641.99,1045.32 1644,1045.32 1646,1045.32 1648,1045.32 1650,1045.32 1652.01,1045.32 
  1654.01,1045.32 1656.01,1045.32 1658.01,1045.32 1660.01,1045.32 1662.02,1045.32 1664.02,1045.32 1666.02,1045.32 1668.02,1045.32 1670.02,1045.32 1672.03,1045.32 
  1674.03,1045.32 1676.03,1045.32 1678.03,1045.32 1680.04,1045.32 1682.04,1045.32 1684.04,1045.32 1686.04,1045.32 1688.04,1045.32 1690.05,1045.32 1692.05,1045.32 
  1694.05,1045.32 1696.05,1045.32 1698.05,1045.32 1700.06,1045.32 1702.06,1045.32 1704.06,1045.32 1706.06,1045.32 1708.07,1045.32 1710.07,1045.32 1712.07,1045.32 
  1714.07,1045.32 1716.07,1045.32 1718.08,1045.32 1720.08,1045.32 1722.08,1045.32 1724.08,1045.32 1726.08,1045.32 1728.09,1045.32 1730.09,1045.32 1732.09,1045.32 
  1734.09,1045.32 1736.1,1045.32 1738.1,1045.32 1740.1,1045.32 1742.1,1045.32 1744.1,1045.32 1746.11,1045.32 1748.11,1045.32 1750.11,1045.32 1752.11,1045.32 
  1754.11,1045.32 1756.12,1045.32 1758.12,1045.32 1760.12,1045.32 1762.12,1045.32 1764.13,1045.32 1766.13,1045.32 1768.13,1045.32 1770.13,1045.32 1772.13,1045.32 
  1774.14,1045.32 1776.14,1045.32 1778.14,1045.32 1780.14,1045.32 1782.14,1045.32 1784.15,1045.32 1786.15,1045.32 1788.15,1045.32 1790.15,1045.32 1792.16,1045.32 
  1794.16,1045.32 1796.16,1045.32 1798.16,1045.32 1800.16,1045.32 1802.17,1045.32 1804.17,1045.32 1806.17,1045.32 1808.17,1045.32 1810.17,1045.32 1812.18,1045.32 
  1814.18,1045.32 1816.18,1045.32 1818.18,1045.32 1820.19,1045.32 1822.19,1045.32 1824.19,1045.32 1826.19,1045.32 1828.19,1045.32 1830.2,1045.32 1832.2,1045.32 
  1834.2,1045.32 1836.2,1045.32 1838.2,1045.32 1840.21,1045.32 1842.21,1045.32 1844.21,1045.32 1846.21,1045.32 1848.22,1045.32 1850.22,1045.32 1852.22,1045.32 
  1854.22,1045.32 1856.22,1045.32 1858.23,1045.32 1860.23,1045.32 1862.23,1045.32 1864.23,1045.32 1866.23,1045.32 1868.24,1045.32 1870.24,1045.32 1872.24,1045.32 
  1874.24,1045.32 1876.25,1045.32 1878.25,1045.32 1880.25,1045.32 1882.25,1045.32 1884.25,1045.32 1886.26,1045.32 1888.26,1045.32 1890.26,1045.32 1892.26,1045.32 
  1894.26,1045.32 1896.27,1045.32 1898.27,1045.32 1900.27,1045.32 1902.27,1045.32 1904.28,1045.32 1906.28,1045.32 1908.28,1045.32 1910.28,1045.32 1912.28,1045.32 
  1914.29,1045.32 1916.29,1045.32 1918.29,1045.32 1920.29,1045.32 1922.29,1045.32 1924.3,1045.32 1926.3,1045.32 1928.3,1045.32 1930.3,1045.32 1932.31,1045.32 
  1934.31,1045.32 1936.31,1045.32 1938.31,1045.32 1940.31,1045.32 1942.32,1045.32 1944.32,1045.32 1946.32,1045.32 1948.32,1045.32 1950.32,1045.32 1952.33,1045.32 
  1954.33,1045.32 1956.33,1045.32 1958.33,1045.32 1960.34,1045.32 1962.34,1045.32 1964.34,1045.32 1966.34,1045.32 1968.34,1045.32 1970.35,1045.32 1972.35,1045.32 
  1974.35,1045.32 1976.35,1045.32 1978.35,1045.32 1980.36,1045.32 1982.36,1045.32 1984.36,1045.32 1986.36,1045.32 1988.37,1045.32 1990.37,1045.32 1992.37,1045.32 
  1994.37,1045.32 1996.37,1045.32 1998.38,1045.32 2000.38,1045.32 2002.38,1045.32 2004.38,1045.32 2006.38,1045.32 2008.39,1045.32 2010.39,1045.32 2012.39,1045.32 
  2014.39,1045.32 2016.4,1045.32 2018.4,1045.32 2020.4,1045.32 2022.4,1045.32 2024.4,1045.32 2026.41,1045.32 2028.41,1045.32 2030.41,1045.32 2032.41,1045.32 
  2034.41,1045.32 2036.42,1045.32 2038.42,1045.32 2040.42,1045.32 2042.42,1045.32 2044.43,1045.32 2046.43,1045.32 2048.43,1045.32 2050.43,1045.32 2052.43,1045.32 
  2054.44,1045.32 2056.44,1045.32 2058.44,1045.32 2060.44,1045.32 2062.44,1045.32 2064.45,1045.32 2066.45,1045.32 2068.45,1045.32 2070.45,1045.32 2072.46,1045.32 
  2074.46,1045.32 2076.46,1045.32 2078.46,1045.32 2080.46,1045.32 2082.47,1045.32 2084.47,1045.32 2086.47,1045.32 2088.47,1045.32 2090.48,1045.32 2092.48,1045.32 
  2094.48,1045.32 2096.48,1045.32 2098.48,1045.32 2100.49,1045.32 2102.49,1045.32 2104.49,1045.32 2106.49,1045.32 2108.49,1045.32 2110.5,1045.32 2112.5,1045.32 
  2114.5,1045.32 2116.5,1045.32 2118.51,1045.32 2120.51,1045.32 2122.51,1045.32 2124.51,1045.32 2126.51,1045.32 2128.52,1045.32 2130.52,1045.32 2132.52,1045.32 
  2134.52,1045.32 2136.52,1045.32 2138.53,1045.32 2140.53,1045.32 2142.53,1045.32 2144.53,1045.32 2146.54,1045.32 2148.54,1045.32 2150.54,1045.32 2152.54,1045.32 
  2154.54,1045.32 2156.55,1045.32 2158.55,1045.32 2160.55,1045.32 2162.55,1045.32 2164.55,1045.32 2166.56,1045.32 2168.56,1045.32 2170.56,1045.32 2172.56,1045.32 
  2174.57,1045.31 2176.57,1045.31 2178.57,1045.31 2180.57,1045.31 2182.57,1045.31 2184.58,1045.31 2186.58,1045.31 2188.58,1045.31 2190.58,1045.31 2192.58,1045.31 
  2194.59,1045.31 2196.59,1045.31 2198.59,1045.31 2200.59,1045.31 2202.6,1045.31 2204.6,1045.31 2206.6,1045.31 2208.6,1045.31 2210.6,1045.31 2212.61,1045.31 
  2214.61,1045.31 2216.61,1045.31 2218.61,1045.31 2220.61,1045.31 2222.62,1045.31 2224.62,1045.3 2226.62,1045.3 2228.62,1045.3 2230.63,1045.3 2232.63,1045.3 
  2234.63,1045.3 2236.63,1045.3 2238.63,1045.3 2240.64,1045.3 2242.64,1045.3 2244.64,1045.3 2246.64,1045.3 2248.64,1045.29 2250.65,1045.29 2252.65,1045.29 
  2254.65,1045.29 2256.65,1045.29 2258.66,1045.29 2260.66,1045.29 2262.66,1045.29 2264.66,1045.28 2266.66,1045.28 2268.67,1045.28 2270.67,1045.28 2272.67,1045.28 
  2274.67,1045.28 2276.67,1045.27 2278.68,1045.27 2280.68,1045.27 2282.68,1045.27 2284.68,1045.27 2286.69,1045.26 2288.69,1045.26 2290.69,1045.26 2292.69,1045.26 
  
  "/>
</svg>
