<?xml version="1.0" encoding="utf-8" standalone="no"?>
<!DOCTYPE svg PUBLIC "-//W3C//DTD SVG 1.1//EN"
  "http://www.w3.org/Graphics/SVG/1.1/DTD/svg11.dtd">
<!-- Created with matplotlib (https://matplotlib.org/) -->
<svg height="656.578125pt" version="1.1" viewBox="0 0 1072.495625 656.578125" width="1072.495625pt" xmlns="http://www.w3.org/2000/svg" xmlns:xlink="http://www.w3.org/1999/xlink">
 <defs>
  <style type="text/css">
*{stroke-linecap:butt;stroke-linejoin:round;}
  </style>
 </defs>
 <g id="figure_1">
  <g id="patch_1">
   <path d="M 0 656.578125 
L 1072.495625 656.578125 
L 1072.495625 0 
L 0 0 
z
" style="fill:#ffffff;"/>
  </g>
  <g id="axes_1">
   <g id="patch_2">
    <path d="M 48.965625 288.68 
L 529.120625 288.68 
L 529.120625 7.2 
L 48.965625 7.2 
z
" style="fill:#ffffff;"/>
   </g>
   <g id="patch_3">
    <path clip-path="url(#p89b771dbbf)" d="M 110.879154 288.68 
L 117.581657 288.68 
L 117.581657 285.580853 
L 110.879154 285.580853 
z
" style="opacity:0.2;"/>
   </g>
   <g id="patch_4">
    <path clip-path="url(#p89b771dbbf)" d="M 119.257282 288.68 
L 125.959785 288.68 
L 125.959785 284.03128 
L 119.257282 284.03128 
z
" style="opacity:0.2;"/>
   </g>
   <g id="patch_5">
    <path clip-path="url(#p89b771dbbf)" d="M 127.635411 288.68 
L 134.337914 288.68 
L 134.337914 274.73384 
L 127.635411 274.73384 
z
" style="opacity:0.2;"/>
   </g>
   <g id="patch_6">
    <path clip-path="url(#p89b771dbbf)" d="M 136.01354 288.68 
L 142.716042 288.68 
L 142.716042 229.796212 
L 136.01354 229.796212 
z
" style="opacity:0.2;"/>
   </g>
   <g id="patch_7">
    <path clip-path="url(#p89b771dbbf)" d="M 144.391668 288.68 
L 151.094171 288.68 
L 151.094171 181.759438 
L 144.391668 181.759438 
z
" style="opacity:0.2;"/>
   </g>
   <g id="patch_8">
    <path clip-path="url(#p89b771dbbf)" d="M 152.769797 288.68 
L 159.4723 288.68 
L 159.4723 122.875651 
L 152.769797 122.875651 
z
" style="opacity:0.2;"/>
   </g>
   <g id="patch_9">
    <path clip-path="url(#p89b771dbbf)" d="M 161.147925 288.68 
L 167.850428 288.68 
L 167.850428 77.938024 
L 161.147925 77.938024 
z
" style="opacity:0.2;"/>
   </g>
   <g id="patch_10">
    <path clip-path="url(#p89b771dbbf)" d="M 169.526054 288.68 
L 176.228557 288.68 
L 176.228557 54.694423 
L 169.526054 54.694423 
z
" style="opacity:0.2;"/>
   </g>
   <g id="patch_11">
    <path clip-path="url(#p89b771dbbf)" d="M 177.904182 288.68 
L 184.606685 288.68 
L 184.606685 20.60381 
L 177.904182 20.60381 
z
" style="opacity:0.2;"/>
   </g>
   <g id="patch_12">
    <path clip-path="url(#p89b771dbbf)" d="M 186.282311 288.68 
L 192.984814 288.68 
L 192.984814 85.68589 
L 186.282311 85.68589 
z
" style="opacity:0.2;"/>
   </g>
   <g id="patch_13">
    <path clip-path="url(#p89b771dbbf)" d="M 194.660439 288.68 
L 201.362942 288.68 
L 201.362942 50.045703 
L 194.660439 50.045703 
z
" style="opacity:0.2;"/>
   </g>
   <g id="patch_14">
    <path clip-path="url(#p89b771dbbf)" d="M 203.038568 288.68 
L 209.741071 288.68 
L 209.741071 45.396983 
L 203.038568 45.396983 
z
" style="opacity:0.2;"/>
   </g>
   <g id="patch_15">
    <path clip-path="url(#p89b771dbbf)" d="M 211.416697 288.68 
L 218.119199 288.68 
L 218.119199 133.722664 
L 211.416697 133.722664 
z
" style="opacity:0.2;"/>
   </g>
   <g id="patch_16">
    <path clip-path="url(#p89b771dbbf)" d="M 219.794825 288.68 
L 226.497328 288.68 
L 226.497328 138.371385 
L 219.794825 138.371385 
z
" style="opacity:0.2;"/>
   </g>
   <g id="patch_17">
    <path clip-path="url(#p89b771dbbf)" d="M 228.172954 288.68 
L 234.875457 288.68 
L 234.875457 127.524371 
L 228.172954 127.524371 
z
" style="opacity:0.2;"/>
   </g>
   <g id="patch_18">
    <path clip-path="url(#p89b771dbbf)" d="M 236.551082 288.68 
L 243.253585 288.68 
L 243.253585 169.362852 
L 236.551082 169.362852 
z
" style="opacity:0.2;"/>
   </g>
   <g id="patch_19">
    <path clip-path="url(#p89b771dbbf)" d="M 244.929211 288.68 
L 251.631714 288.68 
L 251.631714 153.867118 
L 244.929211 153.867118 
z
" style="opacity:0.2;"/>
   </g>
   <g id="patch_20">
    <path clip-path="url(#p89b771dbbf)" d="M 253.307339 288.68 
L 260.009842 288.68 
L 260.009842 161.614985 
L 253.307339 161.614985 
z
" style="opacity:0.2;"/>
   </g>
   <g id="patch_21">
    <path clip-path="url(#p89b771dbbf)" d="M 261.685468 288.68 
L 268.387971 288.68 
L 268.387971 206.552612 
L 261.685468 206.552612 
z
" style="opacity:0.2;"/>
   </g>
   <g id="patch_22">
    <path clip-path="url(#p89b771dbbf)" d="M 270.063597 288.68 
L 276.766099 288.68 
L 276.766099 197.255172 
L 270.063597 197.255172 
z
" style="opacity:0.2;"/>
   </g>
   <g id="patch_23">
    <path clip-path="url(#p89b771dbbf)" d="M 278.441725 288.68 
L 285.144228 288.68 
L 285.144228 220.498772 
L 278.441725 220.498772 
z
" style="opacity:0.2;"/>
   </g>
   <g id="patch_24">
    <path clip-path="url(#p89b771dbbf)" d="M 286.819854 288.68 
L 293.522357 288.68 
L 293.522357 220.498772 
L 286.819854 220.498772 
z
" style="opacity:0.2;"/>
   </g>
   <g id="patch_25">
    <path clip-path="url(#p89b771dbbf)" d="M 295.197982 288.68 
L 301.900485 288.68 
L 301.900485 222.048346 
L 295.197982 222.048346 
z
" style="opacity:0.2;"/>
   </g>
   <g id="patch_26">
    <path clip-path="url(#p89b771dbbf)" d="M 303.576111 288.68 
L 310.278614 288.68 
L 310.278614 231.345786 
L 303.576111 231.345786 
z
" style="opacity:0.2;"/>
   </g>
   <g id="patch_27">
    <path clip-path="url(#p89b771dbbf)" d="M 311.954239 288.68 
L 318.656742 288.68 
L 318.656742 226.697066 
L 311.954239 226.697066 
z
" style="opacity:0.2;"/>
   </g>
   <g id="patch_28">
    <path clip-path="url(#p89b771dbbf)" d="M 320.332368 288.68 
L 327.034871 288.68 
L 327.034871 237.544079 
L 320.332368 237.544079 
z
" style="opacity:0.2;"/>
   </g>
   <g id="patch_29">
    <path clip-path="url(#p89b771dbbf)" d="M 328.710497 288.68 
L 335.412999 288.68 
L 335.412999 248.391093 
L 328.710497 248.391093 
z
" style="opacity:0.2;"/>
   </g>
   <g id="patch_30">
    <path clip-path="url(#p89b771dbbf)" d="M 337.088625 288.68 
L 343.791128 288.68 
L 343.791128 257.688533 
L 337.088625 257.688533 
z
" style="opacity:0.2;"/>
   </g>
   <g id="patch_31">
    <path clip-path="url(#p89b771dbbf)" d="M 345.466754 288.68 
L 352.169256 288.68 
L 352.169256 257.688533 
L 345.466754 257.688533 
z
" style="opacity:0.2;"/>
   </g>
   <g id="patch_32">
    <path clip-path="url(#p89b771dbbf)" d="M 353.844882 288.68 
L 360.547385 288.68 
L 360.547385 266.985973 
L 353.844882 266.985973 
z
" style="opacity:0.2;"/>
   </g>
   <g id="patch_33">
    <path clip-path="url(#p89b771dbbf)" d="M 362.223011 288.68 
L 368.925514 288.68 
L 368.925514 259.238106 
L 362.223011 259.238106 
z
" style="opacity:0.2;"/>
   </g>
   <g id="patch_34">
    <path clip-path="url(#p89b771dbbf)" d="M 370.601139 288.68 
L 377.303642 288.68 
L 377.303642 262.337253 
L 370.601139 262.337253 
z
" style="opacity:0.2;"/>
   </g>
   <g id="patch_35">
    <path clip-path="url(#p89b771dbbf)" d="M 378.979268 288.68 
L 385.681771 288.68 
L 385.681771 270.08512 
L 378.979268 270.08512 
z
" style="opacity:0.2;"/>
   </g>
   <g id="patch_36">
    <path clip-path="url(#p89b771dbbf)" d="M 387.357396 288.68 
L 394.059899 288.68 
L 394.059899 274.73384 
L 387.357396 274.73384 
z
" style="opacity:0.2;"/>
   </g>
   <g id="patch_37">
    <path clip-path="url(#p89b771dbbf)" d="M 395.735525 288.68 
L 402.438028 288.68 
L 402.438028 276.283413 
L 395.735525 276.283413 
z
" style="opacity:0.2;"/>
   </g>
   <g id="patch_38">
    <path clip-path="url(#p89b771dbbf)" d="M 404.113654 288.68 
L 410.816156 288.68 
L 410.816156 274.73384 
L 404.113654 274.73384 
z
" style="opacity:0.2;"/>
   </g>
   <g id="patch_39">
    <path clip-path="url(#p89b771dbbf)" d="M 412.491782 288.68 
L 419.194285 288.68 
L 419.194285 266.985973 
L 412.491782 266.985973 
z
" style="opacity:0.2;"/>
   </g>
   <g id="patch_40">
    <path clip-path="url(#p89b771dbbf)" d="M 420.869911 288.68 
L 427.572414 288.68 
L 427.572414 276.283413 
L 420.869911 276.283413 
z
" style="opacity:0.2;"/>
   </g>
   <g id="patch_41">
    <path clip-path="url(#p89b771dbbf)" d="M 429.248039 288.68 
L 435.950542 288.68 
L 435.950542 282.481707 
L 429.248039 282.481707 
z
" style="opacity:0.2;"/>
   </g>
   <g id="patch_42">
    <path clip-path="url(#p89b771dbbf)" d="M 437.626168 288.68 
L 444.328671 288.68 
L 444.328671 274.73384 
L 437.626168 274.73384 
z
" style="opacity:0.2;"/>
   </g>
   <g id="patch_43">
    <path clip-path="url(#p89b771dbbf)" d="M 446.004296 288.68 
L 452.706799 288.68 
L 452.706799 279.38256 
L 446.004296 279.38256 
z
" style="opacity:0.2;"/>
   </g>
   <g id="patch_44">
    <path clip-path="url(#p89b771dbbf)" d="M 454.382425 288.68 
L 461.084928 288.68 
L 461.084928 282.481707 
L 454.382425 282.481707 
z
" style="opacity:0.2;"/>
   </g>
   <g id="patch_45">
    <path clip-path="url(#p89b771dbbf)" d="M 462.760554 288.68 
L 469.463056 288.68 
L 469.463056 280.932133 
L 462.760554 280.932133 
z
" style="opacity:0.2;"/>
   </g>
   <g id="patch_46">
    <path clip-path="url(#p89b771dbbf)" d="M 471.138682 288.68 
L 477.841185 288.68 
L 477.841185 274.73384 
L 471.138682 274.73384 
z
" style="opacity:0.2;"/>
   </g>
   <g id="patch_47">
    <path clip-path="url(#p89b771dbbf)" d="M 479.516811 288.68 
L 486.219314 288.68 
L 486.219314 282.481707 
L 479.516811 282.481707 
z
" style="opacity:0.2;"/>
   </g>
   <g id="patch_48">
    <path clip-path="url(#p89b771dbbf)" d="M 487.894939 288.68 
L 494.597442 288.68 
L 494.597442 284.03128 
L 487.894939 284.03128 
z
" style="opacity:0.2;"/>
   </g>
   <g id="patch_49">
    <path clip-path="url(#p89b771dbbf)" d="M 496.273068 288.68 
L 502.975571 288.68 
L 502.975571 279.38256 
L 496.273068 279.38256 
z
" style="opacity:0.2;"/>
   </g>
   <g id="patch_50">
    <path clip-path="url(#p89b771dbbf)" d="M 504.651196 288.68 
L 511.353699 288.68 
L 511.353699 284.03128 
L 504.651196 284.03128 
z
" style="opacity:0.2;"/>
   </g>
   <g id="patch_51">
    <path clip-path="url(#p89b771dbbf)" d="M 513.029325 288.68 
L 519.731828 288.68 
L 519.731828 276.283413 
L 513.029325 276.283413 
z
" style="opacity:0.2;"/>
   </g>
   <g id="patch_52">
    <path clip-path="url(#p89b771dbbf)" d="M 521.407453 288.68 
L 528.109956 288.68 
L 528.109956 282.481707 
L 521.407453 282.481707 
z
" style="opacity:0.2;"/>
   </g>
   <g id="matplotlib.axis_1">
    <g id="xtick_1">
     <g id="line2d_1">
      <defs>
       <path d="M 0 0 
L 0 3.5 
" id="ma3d72f1ce0" style="stroke:#000000;stroke-width:0.8;"/>
      </defs>
      <g>
       <use style="stroke:#000000;stroke-width:0.8;" x="48.965625" xlink:href="#ma3d72f1ce0" y="290.68"/>
      </g>
     </g>
     <g id="text_1">
      <!-- 0 -->
      <defs>
       <path d="M 31.78125 66.40625 
Q 24.171875 66.40625 20.328125 58.90625 
Q 16.5 51.421875 16.5 36.375 
Q 16.5 21.390625 20.328125 13.890625 
Q 24.171875 6.390625 31.78125 6.390625 
Q 39.453125 6.390625 43.28125 13.890625 
Q 47.125 21.390625 47.125 36.375 
Q 47.125 51.421875 43.28125 58.90625 
Q 39.453125 66.40625 31.78125 66.40625 
z
M 31.78125 74.21875 
Q 44.046875 74.21875 50.515625 64.515625 
Q 56.984375 54.828125 56.984375 36.375 
Q 56.984375 17.96875 50.515625 8.265625 
Q 44.046875 -1.421875 31.78125 -1.421875 
Q 19.53125 -1.421875 13.0625 8.265625 
Q 6.59375 17.96875 6.59375 36.375 
Q 6.59375 54.828125 13.0625 64.515625 
Q 19.53125 74.21875 31.78125 74.21875 
z
" id="DejaVuSans-48"/>
      </defs>
      <g transform="translate(45.784375 305.278437)scale(0.1 -0.1)">
       <use xlink:href="#DejaVuSans-48"/>
      </g>
     </g>
    </g>
    <g id="xtick_2">
     <g id="line2d_2">
      <g>
       <use style="stroke:#000000;stroke-width:0.8;" x="144.996625" xlink:href="#ma3d72f1ce0" y="290.68"/>
      </g>
     </g>
     <g id="text_2">
      <!-- 1 -->
      <defs>
       <path d="M 12.40625 8.296875 
L 28.515625 8.296875 
L 28.515625 63.921875 
L 10.984375 60.40625 
L 10.984375 69.390625 
L 28.421875 72.90625 
L 38.28125 72.90625 
L 38.28125 8.296875 
L 54.390625 8.296875 
L 54.390625 0 
L 12.40625 0 
z
" id="DejaVuSans-49"/>
      </defs>
      <g transform="translate(141.815375 305.278437)scale(0.1 -0.1)">
       <use xlink:href="#DejaVuSans-49"/>
      </g>
     </g>
    </g>
    <g id="xtick_3">
     <g id="line2d_3">
      <g>
       <use style="stroke:#000000;stroke-width:0.8;" x="241.027625" xlink:href="#ma3d72f1ce0" y="290.68"/>
      </g>
     </g>
     <g id="text_3">
      <!-- 2 -->
      <defs>
       <path d="M 19.1875 8.296875 
L 53.609375 8.296875 
L 53.609375 0 
L 7.328125 0 
L 7.328125 8.296875 
Q 12.9375 14.109375 22.625 23.890625 
Q 32.328125 33.6875 34.8125 36.53125 
Q 39.546875 41.84375 41.421875 45.53125 
Q 43.3125 49.21875 43.3125 52.78125 
Q 43.3125 58.59375 39.234375 62.25 
Q 35.15625 65.921875 28.609375 65.921875 
Q 23.96875 65.921875 18.8125 64.3125 
Q 13.671875 62.703125 7.8125 59.421875 
L 7.8125 69.390625 
Q 13.765625 71.78125 18.9375 73 
Q 24.125 74.21875 28.421875 74.21875 
Q 39.75 74.21875 46.484375 68.546875 
Q 53.21875 62.890625 53.21875 53.421875 
Q 53.21875 48.921875 51.53125 44.890625 
Q 49.859375 40.875 45.40625 35.40625 
Q 44.1875 33.984375 37.640625 27.21875 
Q 31.109375 20.453125 19.1875 8.296875 
z
" id="DejaVuSans-50"/>
      </defs>
      <g transform="translate(237.846375 305.278437)scale(0.1 -0.1)">
       <use xlink:href="#DejaVuSans-50"/>
      </g>
     </g>
    </g>
    <g id="xtick_4">
     <g id="line2d_4">
      <g>
       <use style="stroke:#000000;stroke-width:0.8;" x="337.058625" xlink:href="#ma3d72f1ce0" y="290.68"/>
      </g>
     </g>
     <g id="text_4">
      <!-- 3 -->
      <defs>
       <path d="M 40.578125 39.3125 
Q 47.65625 37.796875 51.625 33 
Q 55.609375 28.21875 55.609375 21.1875 
Q 55.609375 10.40625 48.1875 4.484375 
Q 40.765625 -1.421875 27.09375 -1.421875 
Q 22.515625 -1.421875 17.65625 -0.515625 
Q 12.796875 0.390625 7.625 2.203125 
L 7.625 11.71875 
Q 11.71875 9.328125 16.59375 8.109375 
Q 21.484375 6.890625 26.8125 6.890625 
Q 36.078125 6.890625 40.9375 10.546875 
Q 45.796875 14.203125 45.796875 21.1875 
Q 45.796875 27.640625 41.28125 31.265625 
Q 36.765625 34.90625 28.71875 34.90625 
L 20.21875 34.90625 
L 20.21875 43.015625 
L 29.109375 43.015625 
Q 36.375 43.015625 40.234375 45.921875 
Q 44.09375 48.828125 44.09375 54.296875 
Q 44.09375 59.90625 40.109375 62.90625 
Q 36.140625 65.921875 28.71875 65.921875 
Q 24.65625 65.921875 20.015625 65.03125 
Q 15.375 64.15625 9.8125 62.3125 
L 9.8125 71.09375 
Q 15.4375 72.65625 20.34375 73.4375 
Q 25.25 74.21875 29.59375 74.21875 
Q 40.828125 74.21875 47.359375 69.109375 
Q 53.90625 64.015625 53.90625 55.328125 
Q 53.90625 49.265625 50.4375 45.09375 
Q 46.96875 40.921875 40.578125 39.3125 
z
" id="DejaVuSans-51"/>
      </defs>
      <g transform="translate(333.877375 305.278437)scale(0.1 -0.1)">
       <use xlink:href="#DejaVuSans-51"/>
      </g>
     </g>
    </g>
    <g id="xtick_5">
     <g id="line2d_5">
      <g>
       <use style="stroke:#000000;stroke-width:0.8;" x="433.089625" xlink:href="#ma3d72f1ce0" y="290.68"/>
      </g>
     </g>
     <g id="text_5">
      <!-- 4 -->
      <defs>
       <path d="M 37.796875 64.3125 
L 12.890625 25.390625 
L 37.796875 25.390625 
z
M 35.203125 72.90625 
L 47.609375 72.90625 
L 47.609375 25.390625 
L 58.015625 25.390625 
L 58.015625 17.1875 
L 47.609375 17.1875 
L 47.609375 0 
L 37.796875 0 
L 37.796875 17.1875 
L 4.890625 17.1875 
L 4.890625 26.703125 
z
" id="DejaVuSans-52"/>
      </defs>
      <g transform="translate(429.908375 305.278437)scale(0.1 -0.1)">
       <use xlink:href="#DejaVuSans-52"/>
      </g>
     </g>
    </g>
    <g id="xtick_6">
     <g id="line2d_6">
      <g>
       <use style="stroke:#000000;stroke-width:0.8;" x="529.120625" xlink:href="#ma3d72f1ce0" y="290.68"/>
      </g>
     </g>
     <g id="text_6">
      <!-- 5 -->
      <defs>
       <path d="M 10.796875 72.90625 
L 49.515625 72.90625 
L 49.515625 64.59375 
L 19.828125 64.59375 
L 19.828125 46.734375 
Q 21.96875 47.46875 24.109375 47.828125 
Q 26.265625 48.1875 28.421875 48.1875 
Q 40.625 48.1875 47.75 41.5 
Q 54.890625 34.8125 54.890625 23.390625 
Q 54.890625 11.625 47.5625 5.09375 
Q 40.234375 -1.421875 26.90625 -1.421875 
Q 22.3125 -1.421875 17.546875 -0.640625 
Q 12.796875 0.140625 7.71875 1.703125 
L 7.71875 11.625 
Q 12.109375 9.234375 16.796875 8.0625 
Q 21.484375 6.890625 26.703125 6.890625 
Q 35.15625 6.890625 40.078125 11.328125 
Q 45.015625 15.765625 45.015625 23.390625 
Q 45.015625 31 40.078125 35.4375 
Q 35.15625 39.890625 26.703125 39.890625 
Q 22.75 39.890625 18.8125 39.015625 
Q 14.890625 38.140625 10.796875 36.28125 
z
" id="DejaVuSans-53"/>
      </defs>
      <g transform="translate(525.939375 305.278437)scale(0.1 -0.1)">
       <use xlink:href="#DejaVuSans-53"/>
      </g>
     </g>
    </g>
    <g id="text_7">
     <!-- $K_{\mathrm{S}}$ -->
     <defs>
      <path d="M 16.890625 72.90625 
L 26.8125 72.90625 
L 20.796875 42.1875 
L 59.078125 72.90625 
L 72.21875 72.90625 
L 28.90625 38.09375 
L 60.59375 0 
L 48.578125 0 
L 19.484375 35.5 
L 12.59375 0 
L 2.6875 0 
z
" id="DejaVuSans-Oblique-75"/>
      <path d="M 53.515625 70.515625 
L 53.515625 60.890625 
Q 47.90625 63.578125 42.921875 64.890625 
Q 37.9375 66.21875 33.296875 66.21875 
Q 25.25 66.21875 20.875 63.09375 
Q 16.5 59.96875 16.5 54.203125 
Q 16.5 49.359375 19.40625 46.890625 
Q 22.3125 44.4375 30.421875 42.921875 
L 36.375 41.703125 
Q 47.40625 39.59375 52.65625 34.296875 
Q 57.90625 29 57.90625 20.125 
Q 57.90625 9.515625 50.796875 4.046875 
Q 43.703125 -1.421875 29.984375 -1.421875 
Q 24.8125 -1.421875 18.96875 -0.25 
Q 13.140625 0.921875 6.890625 3.21875 
L 6.890625 13.375 
Q 12.890625 10.015625 18.65625 8.296875 
Q 24.421875 6.59375 29.984375 6.59375 
Q 38.421875 6.59375 43.015625 9.90625 
Q 47.609375 13.234375 47.609375 19.390625 
Q 47.609375 24.75 44.3125 27.78125 
Q 41.015625 30.8125 33.5 32.328125 
L 27.484375 33.5 
Q 16.453125 35.6875 11.515625 40.375 
Q 6.59375 45.0625 6.59375 53.421875 
Q 6.59375 63.09375 13.40625 68.65625 
Q 20.21875 74.21875 32.171875 74.21875 
Q 37.3125 74.21875 42.625 73.28125 
Q 47.953125 72.359375 53.515625 70.515625 
z
" id="DejaVuSans-83"/>
     </defs>
     <g transform="translate(283.393125 318.956562)scale(0.1 -0.1)">
      <use transform="translate(0 0.09375)" xlink:href="#DejaVuSans-Oblique-75"/>
      <use transform="translate(65.576172 -16.3125)scale(0.7)" xlink:href="#DejaVuSans-83"/>
     </g>
    </g>
   </g>
   <g id="matplotlib.axis_2">
    <g id="ytick_1">
     <g id="line2d_7">
      <defs>
       <path d="M 0 0 
L -3.5 0 
" id="m3332252bbc" style="stroke:#000000;stroke-width:0.8;"/>
      </defs>
      <g>
       <use style="stroke:#000000;stroke-width:0.8;" x="46.965625" xlink:href="#m3332252bbc" y="288.68"/>
      </g>
     </g>
     <g id="text_8">
      <!-- 0 -->
      <g transform="translate(33.603125 292.479219)scale(0.1 -0.1)">
       <use xlink:href="#DejaVuSans-48"/>
      </g>
     </g>
    </g>
    <g id="ytick_2">
     <g id="line2d_8">
      <g>
       <use style="stroke:#000000;stroke-width:0.8;" x="46.965625" xlink:href="#m3332252bbc" y="249.940666"/>
      </g>
     </g>
     <g id="text_9">
      <!-- 25 -->
      <g transform="translate(27.240625 253.739885)scale(0.1 -0.1)">
       <use xlink:href="#DejaVuSans-50"/>
       <use x="63.623047" xlink:href="#DejaVuSans-53"/>
      </g>
     </g>
    </g>
    <g id="ytick_3">
     <g id="line2d_9">
      <g>
       <use style="stroke:#000000;stroke-width:0.8;" x="46.965625" xlink:href="#m3332252bbc" y="211.201332"/>
      </g>
     </g>
     <g id="text_10">
      <!-- 50 -->
      <g transform="translate(27.240625 215.000551)scale(0.1 -0.1)">
       <use xlink:href="#DejaVuSans-53"/>
       <use x="63.623047" xlink:href="#DejaVuSans-48"/>
      </g>
     </g>
    </g>
    <g id="ytick_4">
     <g id="line2d_10">
      <g>
       <use style="stroke:#000000;stroke-width:0.8;" x="46.965625" xlink:href="#m3332252bbc" y="172.461998"/>
      </g>
     </g>
     <g id="text_11">
      <!-- 75 -->
      <defs>
       <path d="M 8.203125 72.90625 
L 55.078125 72.90625 
L 55.078125 68.703125 
L 28.609375 0 
L 18.3125 0 
L 43.21875 64.59375 
L 8.203125 64.59375 
z
" id="DejaVuSans-55"/>
      </defs>
      <g transform="translate(27.240625 176.261217)scale(0.1 -0.1)">
       <use xlink:href="#DejaVuSans-55"/>
       <use x="63.623047" xlink:href="#DejaVuSans-53"/>
      </g>
     </g>
    </g>
    <g id="ytick_5">
     <g id="line2d_11">
      <g>
       <use style="stroke:#000000;stroke-width:0.8;" x="46.965625" xlink:href="#m3332252bbc" y="133.722664"/>
      </g>
     </g>
     <g id="text_12">
      <!-- 100 -->
      <g transform="translate(20.878125 137.521883)scale(0.1 -0.1)">
       <use xlink:href="#DejaVuSans-49"/>
       <use x="63.623047" xlink:href="#DejaVuSans-48"/>
       <use x="127.246094" xlink:href="#DejaVuSans-48"/>
      </g>
     </g>
    </g>
    <g id="ytick_6">
     <g id="line2d_12">
      <g>
       <use style="stroke:#000000;stroke-width:0.8;" x="46.965625" xlink:href="#m3332252bbc" y="94.983331"/>
      </g>
     </g>
     <g id="text_13">
      <!-- 125 -->
      <g transform="translate(20.878125 98.782549)scale(0.1 -0.1)">
       <use xlink:href="#DejaVuSans-49"/>
       <use x="63.623047" xlink:href="#DejaVuSans-50"/>
       <use x="127.246094" xlink:href="#DejaVuSans-53"/>
      </g>
     </g>
    </g>
    <g id="ytick_7">
     <g id="line2d_13">
      <g>
       <use style="stroke:#000000;stroke-width:0.8;" x="46.965625" xlink:href="#m3332252bbc" y="56.243997"/>
      </g>
     </g>
     <g id="text_14">
      <!-- 150 -->
      <g transform="translate(20.878125 60.043215)scale(0.1 -0.1)">
       <use xlink:href="#DejaVuSans-49"/>
       <use x="63.623047" xlink:href="#DejaVuSans-53"/>
       <use x="127.246094" xlink:href="#DejaVuSans-48"/>
      </g>
     </g>
    </g>
    <g id="ytick_8">
     <g id="line2d_14">
      <g>
       <use style="stroke:#000000;stroke-width:0.8;" x="46.965625" xlink:href="#m3332252bbc" y="17.504663"/>
      </g>
     </g>
     <g id="text_15">
      <!-- 175 -->
      <g transform="translate(20.878125 21.303882)scale(0.1 -0.1)">
       <use xlink:href="#DejaVuSans-49"/>
       <use x="63.623047" xlink:href="#DejaVuSans-55"/>
       <use x="127.246094" xlink:href="#DejaVuSans-53"/>
      </g>
     </g>
    </g>
    <g id="text_16">
     <!-- Duplications -->
     <defs>
      <path d="M 19.671875 64.796875 
L 19.671875 8.109375 
L 31.59375 8.109375 
Q 46.6875 8.109375 53.6875 14.9375 
Q 60.6875 21.78125 60.6875 36.53125 
Q 60.6875 51.171875 53.6875 57.984375 
Q 46.6875 64.796875 31.59375 64.796875 
z
M 9.8125 72.90625 
L 30.078125 72.90625 
Q 51.265625 72.90625 61.171875 64.09375 
Q 71.09375 55.28125 71.09375 36.53125 
Q 71.09375 17.671875 61.125 8.828125 
Q 51.171875 0 30.078125 0 
L 9.8125 0 
z
" id="DejaVuSans-68"/>
      <path d="M 8.5 21.578125 
L 8.5 54.6875 
L 17.484375 54.6875 
L 17.484375 21.921875 
Q 17.484375 14.15625 20.5 10.265625 
Q 23.53125 6.390625 29.59375 6.390625 
Q 36.859375 6.390625 41.078125 11.03125 
Q 45.3125 15.671875 45.3125 23.6875 
L 45.3125 54.6875 
L 54.296875 54.6875 
L 54.296875 0 
L 45.3125 0 
L 45.3125 8.40625 
Q 42.046875 3.421875 37.71875 1 
Q 33.40625 -1.421875 27.6875 -1.421875 
Q 18.265625 -1.421875 13.375 4.4375 
Q 8.5 10.296875 8.5 21.578125 
z
M 31.109375 56 
z
" id="DejaVuSans-117"/>
      <path d="M 18.109375 8.203125 
L 18.109375 -20.796875 
L 9.078125 -20.796875 
L 9.078125 54.6875 
L 18.109375 54.6875 
L 18.109375 46.390625 
Q 20.953125 51.265625 25.265625 53.625 
Q 29.59375 56 35.59375 56 
Q 45.5625 56 51.78125 48.09375 
Q 58.015625 40.1875 58.015625 27.296875 
Q 58.015625 14.40625 51.78125 6.484375 
Q 45.5625 -1.421875 35.59375 -1.421875 
Q 29.59375 -1.421875 25.265625 0.953125 
Q 20.953125 3.328125 18.109375 8.203125 
z
M 48.6875 27.296875 
Q 48.6875 37.203125 44.609375 42.84375 
Q 40.53125 48.484375 33.40625 48.484375 
Q 26.265625 48.484375 22.1875 42.84375 
Q 18.109375 37.203125 18.109375 27.296875 
Q 18.109375 17.390625 22.1875 11.75 
Q 26.265625 6.109375 33.40625 6.109375 
Q 40.53125 6.109375 44.609375 11.75 
Q 48.6875 17.390625 48.6875 27.296875 
z
" id="DejaVuSans-112"/>
      <path d="M 9.421875 75.984375 
L 18.40625 75.984375 
L 18.40625 0 
L 9.421875 0 
z
" id="DejaVuSans-108"/>
      <path d="M 9.421875 54.6875 
L 18.40625 54.6875 
L 18.40625 0 
L 9.421875 0 
z
M 9.421875 75.984375 
L 18.40625 75.984375 
L 18.40625 64.59375 
L 9.421875 64.59375 
z
" id="DejaVuSans-105"/>
      <path d="M 48.78125 52.59375 
L 48.78125 44.1875 
Q 44.96875 46.296875 41.140625 47.34375 
Q 37.3125 48.390625 33.40625 48.390625 
Q 24.65625 48.390625 19.8125 42.84375 
Q 14.984375 37.3125 14.984375 27.296875 
Q 14.984375 17.28125 19.8125 11.734375 
Q 24.65625 6.203125 33.40625 6.203125 
Q 37.3125 6.203125 41.140625 7.25 
Q 44.96875 8.296875 48.78125 10.40625 
L 48.78125 2.09375 
Q 45.015625 0.34375 40.984375 -0.53125 
Q 36.96875 -1.421875 32.421875 -1.421875 
Q 20.0625 -1.421875 12.78125 6.34375 
Q 5.515625 14.109375 5.515625 27.296875 
Q 5.515625 40.671875 12.859375 48.328125 
Q 20.21875 56 33.015625 56 
Q 37.15625 56 41.109375 55.140625 
Q 45.0625 54.296875 48.78125 52.59375 
z
" id="DejaVuSans-99"/>
      <path d="M 34.28125 27.484375 
Q 23.390625 27.484375 19.1875 25 
Q 14.984375 22.515625 14.984375 16.5 
Q 14.984375 11.71875 18.140625 8.90625 
Q 21.296875 6.109375 26.703125 6.109375 
Q 34.1875 6.109375 38.703125 11.40625 
Q 43.21875 16.703125 43.21875 25.484375 
L 43.21875 27.484375 
z
M 52.203125 31.203125 
L 52.203125 0 
L 43.21875 0 
L 43.21875 8.296875 
Q 40.140625 3.328125 35.546875 0.953125 
Q 30.953125 -1.421875 24.3125 -1.421875 
Q 15.921875 -1.421875 10.953125 3.296875 
Q 6 8.015625 6 15.921875 
Q 6 25.140625 12.171875 29.828125 
Q 18.359375 34.515625 30.609375 34.515625 
L 43.21875 34.515625 
L 43.21875 35.40625 
Q 43.21875 41.609375 39.140625 45 
Q 35.0625 48.390625 27.6875 48.390625 
Q 23 48.390625 18.546875 47.265625 
Q 14.109375 46.140625 10.015625 43.890625 
L 10.015625 52.203125 
Q 14.9375 54.109375 19.578125 55.046875 
Q 24.21875 56 28.609375 56 
Q 40.484375 56 46.34375 49.84375 
Q 52.203125 43.703125 52.203125 31.203125 
z
" id="DejaVuSans-97"/>
      <path d="M 18.3125 70.21875 
L 18.3125 54.6875 
L 36.8125 54.6875 
L 36.8125 47.703125 
L 18.3125 47.703125 
L 18.3125 18.015625 
Q 18.3125 11.328125 20.140625 9.421875 
Q 21.96875 7.515625 27.59375 7.515625 
L 36.8125 7.515625 
L 36.8125 0 
L 27.59375 0 
Q 17.1875 0 13.234375 3.875 
Q 9.28125 7.765625 9.28125 18.015625 
L 9.28125 47.703125 
L 2.6875 47.703125 
L 2.6875 54.6875 
L 9.28125 54.6875 
L 9.28125 70.21875 
z
" id="DejaVuSans-116"/>
      <path d="M 30.609375 48.390625 
Q 23.390625 48.390625 19.1875 42.75 
Q 14.984375 37.109375 14.984375 27.296875 
Q 14.984375 17.484375 19.15625 11.84375 
Q 23.34375 6.203125 30.609375 6.203125 
Q 37.796875 6.203125 41.984375 11.859375 
Q 46.1875 17.53125 46.1875 27.296875 
Q 46.1875 37.015625 41.984375 42.703125 
Q 37.796875 48.390625 30.609375 48.390625 
z
M 30.609375 56 
Q 42.328125 56 49.015625 48.375 
Q 55.71875 40.765625 55.71875 27.296875 
Q 55.71875 13.875 49.015625 6.21875 
Q 42.328125 -1.421875 30.609375 -1.421875 
Q 18.84375 -1.421875 12.171875 6.21875 
Q 5.515625 13.875 5.515625 27.296875 
Q 5.515625 40.765625 12.171875 48.375 
Q 18.84375 56 30.609375 56 
z
" id="DejaVuSans-111"/>
      <path d="M 54.890625 33.015625 
L 54.890625 0 
L 45.90625 0 
L 45.90625 32.71875 
Q 45.90625 40.484375 42.875 44.328125 
Q 39.84375 48.1875 33.796875 48.1875 
Q 26.515625 48.1875 22.3125 43.546875 
Q 18.109375 38.921875 18.109375 30.90625 
L 18.109375 0 
L 9.078125 0 
L 9.078125 54.6875 
L 18.109375 54.6875 
L 18.109375 46.1875 
Q 21.34375 51.125 25.703125 53.5625 
Q 30.078125 56 35.796875 56 
Q 45.21875 56 50.046875 50.171875 
Q 54.890625 44.34375 54.890625 33.015625 
z
" id="DejaVuSans-110"/>
      <path d="M 44.28125 53.078125 
L 44.28125 44.578125 
Q 40.484375 46.53125 36.375 47.5 
Q 32.28125 48.484375 27.875 48.484375 
Q 21.1875 48.484375 17.84375 46.4375 
Q 14.5 44.390625 14.5 40.28125 
Q 14.5 37.15625 16.890625 35.375 
Q 19.28125 33.59375 26.515625 31.984375 
L 29.59375 31.296875 
Q 39.15625 29.25 43.1875 25.515625 
Q 47.21875 21.78125 47.21875 15.09375 
Q 47.21875 7.46875 41.1875 3.015625 
Q 35.15625 -1.421875 24.609375 -1.421875 
Q 20.21875 -1.421875 15.453125 -0.5625 
Q 10.6875 0.296875 5.421875 2 
L 5.421875 11.28125 
Q 10.40625 8.6875 15.234375 7.390625 
Q 20.0625 6.109375 24.8125 6.109375 
Q 31.15625 6.109375 34.5625 8.28125 
Q 37.984375 10.453125 37.984375 14.40625 
Q 37.984375 18.0625 35.515625 20.015625 
Q 33.0625 21.96875 24.703125 23.78125 
L 21.578125 24.515625 
Q 13.234375 26.265625 9.515625 29.90625 
Q 5.8125 33.546875 5.8125 39.890625 
Q 5.8125 47.609375 11.28125 51.796875 
Q 16.75 56 26.8125 56 
Q 31.78125 56 36.171875 55.265625 
Q 40.578125 54.546875 44.28125 53.078125 
z
" id="DejaVuSans-115"/>
     </defs>
     <g transform="translate(14.798437 178.906406)rotate(-90)scale(0.1 -0.1)">
      <use xlink:href="#DejaVuSans-68"/>
      <use x="77.001953" xlink:href="#DejaVuSans-117"/>
      <use x="140.380859" xlink:href="#DejaVuSans-112"/>
      <use x="203.857422" xlink:href="#DejaVuSans-108"/>
      <use x="231.640625" xlink:href="#DejaVuSans-105"/>
      <use x="259.423828" xlink:href="#DejaVuSans-99"/>
      <use x="314.404297" xlink:href="#DejaVuSans-97"/>
      <use x="375.683594" xlink:href="#DejaVuSans-116"/>
      <use x="414.892578" xlink:href="#DejaVuSans-105"/>
      <use x="442.675781" xlink:href="#DejaVuSans-111"/>
      <use x="503.857422" xlink:href="#DejaVuSans-110"/>
      <use x="567.236328" xlink:href="#DejaVuSans-115"/>
     </g>
    </g>
   </g>
   <g id="patch_53">
    <path d="M 46.965625 288.68 
L 46.965625 7.2 
" style="fill:none;stroke:#000000;stroke-linecap:square;stroke-linejoin:miter;stroke-width:0.8;"/>
   </g>
   <g id="patch_54">
    <path d="M 48.965625 290.68 
L 529.120625 290.68 
" style="fill:none;stroke:#000000;stroke-linecap:square;stroke-linejoin:miter;stroke-width:0.8;"/>
   </g>
  </g>
  <g id="axes_2">
   <g id="patch_55">
    <path d="M 585.140625 288.68 
L 1065.295625 288.68 
L 1065.295625 7.2 
L 585.140625 7.2 
z
" style="fill:#ffffff;"/>
   </g>
   <g id="patch_56">
    <path clip-path="url(#p557382b4d8)" d="M 850.723722 288.68 
L 854.16315 288.68 
L 854.16315 286.569164 
L 850.723722 286.569164 
z
" style="opacity:0.2;"/>
   </g>
   <g id="patch_57">
    <path clip-path="url(#p557382b4d8)" d="M 855.023007 288.68 
L 858.462436 288.68 
L 858.462436 286.569164 
L 855.023007 286.569164 
z
" style="opacity:0.2;"/>
   </g>
   <g id="patch_58">
    <path clip-path="url(#p557382b4d8)" d="M 859.322293 288.68 
L 862.761722 288.68 
L 862.761722 288.68 
L 859.322293 288.68 
z
" style="opacity:0.2;"/>
   </g>
   <g id="patch_59">
    <path clip-path="url(#p557382b4d8)" d="M 863.621579 288.68 
L 867.061007 288.68 
L 867.061007 286.569164 
L 863.621579 286.569164 
z
" style="opacity:0.2;"/>
   </g>
   <g id="patch_60">
    <path clip-path="url(#p557382b4d8)" d="M 867.920865 288.68 
L 871.360293 288.68 
L 871.360293 286.569164 
L 867.920865 286.569164 
z
" style="opacity:0.2;"/>
   </g>
   <g id="patch_61">
    <path clip-path="url(#p557382b4d8)" d="M 872.22015 288.68 
L 875.659579 288.68 
L 875.659579 286.569164 
L 872.22015 286.569164 
z
" style="opacity:0.2;"/>
   </g>
   <g id="patch_62">
    <path clip-path="url(#p557382b4d8)" d="M 876.519436 288.68 
L 879.958865 288.68 
L 879.958865 284.458328 
L 876.519436 284.458328 
z
" style="opacity:0.2;"/>
   </g>
   <g id="patch_63">
    <path clip-path="url(#p557382b4d8)" d="M 880.818722 288.68 
L 884.258151 288.68 
L 884.258151 280.236655 
L 880.818722 280.236655 
z
" style="opacity:0.2;"/>
   </g>
   <g id="patch_64">
    <path clip-path="url(#p557382b4d8)" d="M 885.118008 288.68 
L 888.557436 288.68 
L 888.557436 276.014983 
L 885.118008 276.014983 
z
" style="opacity:0.2;"/>
   </g>
   <g id="patch_65">
    <path clip-path="url(#p557382b4d8)" d="M 889.417293 288.68 
L 892.856722 288.68 
L 892.856722 246.463277 
L 889.417293 246.463277 
z
" style="opacity:0.2;"/>
   </g>
   <g id="patch_66">
    <path clip-path="url(#p557382b4d8)" d="M 893.716579 288.68 
L 897.156008 288.68 
L 897.156008 229.576588 
L 893.716579 229.576588 
z
" style="opacity:0.2;"/>
   </g>
   <g id="patch_67">
    <path clip-path="url(#p557382b4d8)" d="M 898.015865 288.68 
L 901.455294 288.68 
L 901.455294 229.576588 
L 898.015865 229.576588 
z
" style="opacity:0.2;"/>
   </g>
   <g id="patch_68">
    <path clip-path="url(#p557382b4d8)" d="M 902.315151 288.68 
L 905.754579 288.68 
L 905.754579 214.800735 
L 902.315151 214.800735 
z
" style="opacity:0.2;"/>
   </g>
   <g id="patch_69">
    <path clip-path="url(#p557382b4d8)" d="M 906.614437 288.68 
L 910.053865 288.68 
L 910.053865 151.475651 
L 906.614437 151.475651 
z
" style="opacity:0.2;"/>
   </g>
   <g id="patch_70">
    <path clip-path="url(#p557382b4d8)" d="M 910.913722 288.68 
L 914.353151 288.68 
L 914.353151 151.475651 
L 910.913722 151.475651 
z
" style="opacity:0.2;"/>
   </g>
   <g id="patch_71">
    <path clip-path="url(#p557382b4d8)" d="M 915.213008 288.68 
L 918.652437 288.68 
L 918.652437 130.367289 
L 915.213008 130.367289 
z
" style="opacity:0.2;"/>
   </g>
   <g id="patch_72">
    <path clip-path="url(#p557382b4d8)" d="M 919.512294 288.68 
L 922.951722 288.68 
L 922.951722 92.372238 
L 919.512294 92.372238 
z
" style="opacity:0.2;"/>
   </g>
   <g id="patch_73">
    <path clip-path="url(#p557382b4d8)" d="M 923.81158 288.68 
L 927.251008 288.68 
L 927.251008 94.483075 
L 923.81158 94.483075 
z
" style="opacity:0.2;"/>
   </g>
   <g id="patch_74">
    <path clip-path="url(#p557382b4d8)" d="M 928.110865 288.68 
L 931.550294 288.68 
L 931.550294 67.042205 
L 928.110865 67.042205 
z
" style="opacity:0.2;"/>
   </g>
   <g id="patch_75">
    <path clip-path="url(#p557382b4d8)" d="M 932.410151 288.68 
L 935.84958 288.68 
L 935.84958 52.266352 
L 932.410151 52.266352 
z
" style="opacity:0.2;"/>
   </g>
   <g id="patch_76">
    <path clip-path="url(#p557382b4d8)" d="M 936.709437 288.68 
L 940.148866 288.68 
L 940.148866 92.372238 
L 936.709437 92.372238 
z
" style="opacity:0.2;"/>
   </g>
   <g id="patch_77">
    <path clip-path="url(#p557382b4d8)" d="M 941.008723 288.68 
L 944.448151 288.68 
L 944.448151 64.931369 
L 941.008723 64.931369 
z
" style="opacity:0.2;"/>
   </g>
   <g id="patch_78">
    <path clip-path="url(#p557382b4d8)" d="M 945.308008 288.68 
L 948.747437 288.68 
L 948.747437 20.60381 
L 945.308008 20.60381 
z
" style="opacity:0.2;"/>
   </g>
   <g id="patch_79">
    <path clip-path="url(#p557382b4d8)" d="M 949.607294 288.68 
L 953.046723 288.68 
L 953.046723 86.03973 
L 949.607294 86.03973 
z
" style="opacity:0.2;"/>
   </g>
   <g id="patch_80">
    <path clip-path="url(#p557382b4d8)" d="M 953.90658 288.68 
L 957.346009 288.68 
L 957.346009 100.815583 
L 953.90658 100.815583 
z
" style="opacity:0.2;"/>
   </g>
   <g id="patch_81">
    <path clip-path="url(#p557382b4d8)" d="M 958.205866 288.68 
L 961.645294 288.68 
L 961.645294 113.4806 
L 958.205866 113.4806 
z
" style="opacity:0.2;"/>
   </g>
   <g id="patch_82">
    <path clip-path="url(#p557382b4d8)" d="M 962.505152 288.68 
L 965.94458 288.68 
L 965.94458 100.815583 
L 962.505152 100.815583 
z
" style="opacity:0.2;"/>
   </g>
   <g id="patch_83">
    <path clip-path="url(#p557382b4d8)" d="M 966.804437 288.68 
L 970.243866 288.68 
L 970.243866 130.367289 
L 966.804437 130.367289 
z
" style="opacity:0.2;"/>
   </g>
   <g id="patch_84">
    <path clip-path="url(#p557382b4d8)" d="M 971.103723 288.68 
L 974.543152 288.68 
L 974.543152 115.591436 
L 971.103723 115.591436 
z
" style="opacity:0.2;"/>
   </g>
   <g id="patch_85">
    <path clip-path="url(#p557382b4d8)" d="M 975.403009 288.68 
L 978.842437 288.68 
L 978.842437 124.034781 
L 975.403009 124.034781 
z
" style="opacity:0.2;"/>
   </g>
   <g id="patch_86">
    <path clip-path="url(#p557382b4d8)" d="M 979.702295 288.68 
L 983.141723 288.68 
L 983.141723 138.810634 
L 979.702295 138.810634 
z
" style="opacity:0.2;"/>
   </g>
   <g id="patch_87">
    <path clip-path="url(#p557382b4d8)" d="M 984.00158 288.68 
L 987.441009 288.68 
L 987.441009 153.586487 
L 984.00158 153.586487 
z
" style="opacity:0.2;"/>
   </g>
   <g id="patch_88">
    <path clip-path="url(#p557382b4d8)" d="M 988.300866 288.68 
L 991.740295 288.68 
L 991.740295 187.359865 
L 988.300866 187.359865 
z
" style="opacity:0.2;"/>
   </g>
   <g id="patch_89">
    <path clip-path="url(#p557382b4d8)" d="M 992.600152 288.68 
L 996.039581 288.68 
L 996.039581 155.697323 
L 992.600152 155.697323 
z
" style="opacity:0.2;"/>
   </g>
   <g id="patch_90">
    <path clip-path="url(#p557382b4d8)" d="M 996.899438 288.68 
L 1000.338866 288.68 
L 1000.338866 204.246554 
L 996.899438 204.246554 
z
" style="opacity:0.2;"/>
   </g>
   <g id="patch_91">
    <path clip-path="url(#p557382b4d8)" d="M 1001.198723 288.68 
L 1004.638152 288.68 
L 1004.638152 174.694848 
L 1001.198723 174.694848 
z
" style="opacity:0.2;"/>
   </g>
   <g id="patch_92">
    <path clip-path="url(#p557382b4d8)" d="M 1005.498009 288.68 
L 1008.937438 288.68 
L 1008.937438 195.80321 
L 1005.498009 195.80321 
z
" style="opacity:0.2;"/>
   </g>
   <g id="patch_93">
    <path clip-path="url(#p557382b4d8)" d="M 1009.797295 288.68 
L 1013.236724 288.68 
L 1013.236724 223.244079 
L 1009.797295 223.244079 
z
" style="opacity:0.2;"/>
   </g>
   <g id="patch_94">
    <path clip-path="url(#p557382b4d8)" d="M 1014.096581 288.68 
L 1017.536009 288.68 
L 1017.536009 225.354916 
L 1014.096581 225.354916 
z
" style="opacity:0.2;"/>
   </g>
   <g id="patch_95">
    <path clip-path="url(#p557382b4d8)" d="M 1018.395867 288.68 
L 1021.835295 288.68 
L 1021.835295 238.019933 
L 1018.395867 238.019933 
z
" style="opacity:0.2;"/>
   </g>
   <g id="patch_96">
    <path clip-path="url(#p557382b4d8)" d="M 1022.695152 288.68 
L 1026.134581 288.68 
L 1026.134581 235.909096 
L 1022.695152 235.909096 
z
" style="opacity:0.2;"/>
   </g>
   <g id="patch_97">
    <path clip-path="url(#p557382b4d8)" d="M 1026.994438 288.68 
L 1030.433867 288.68 
L 1030.433867 246.463277 
L 1026.994438 246.463277 
z
" style="opacity:0.2;"/>
   </g>
   <g id="patch_98">
    <path clip-path="url(#p557382b4d8)" d="M 1031.293724 288.68 
L 1034.733152 288.68 
L 1034.733152 259.128294 
L 1031.293724 259.128294 
z
" style="opacity:0.2;"/>
   </g>
   <g id="patch_99">
    <path clip-path="url(#p557382b4d8)" d="M 1035.59301 288.68 
L 1039.032438 288.68 
L 1039.032438 246.463277 
L 1035.59301 246.463277 
z
" style="opacity:0.2;"/>
   </g>
   <g id="patch_100">
    <path clip-path="url(#p557382b4d8)" d="M 1039.892295 288.68 
L 1043.331724 288.68 
L 1043.331724 263.349966 
L 1039.892295 263.349966 
z
" style="opacity:0.2;"/>
   </g>
   <g id="patch_101">
    <path clip-path="url(#p557382b4d8)" d="M 1044.191581 288.68 
L 1047.63101 288.68 
L 1047.63101 259.128294 
L 1044.191581 259.128294 
z
" style="opacity:0.2;"/>
   </g>
   <g id="patch_102">
    <path clip-path="url(#p557382b4d8)" d="M 1048.490867 288.68 
L 1051.930296 288.68 
L 1051.930296 267.571639 
L 1048.490867 267.571639 
z
" style="opacity:0.2;"/>
   </g>
   <g id="patch_103">
    <path clip-path="url(#p557382b4d8)" d="M 1052.790153 288.68 
L 1056.229581 288.68 
L 1056.229581 265.460802 
L 1052.790153 265.460802 
z
" style="opacity:0.2;"/>
   </g>
   <g id="patch_104">
    <path clip-path="url(#p557382b4d8)" d="M 1057.089438 288.68 
L 1060.528867 288.68 
L 1060.528867 267.571639 
L 1057.089438 267.571639 
z
" style="opacity:0.2;"/>
   </g>
   <g id="patch_105">
    <path clip-path="url(#p557382b4d8)" d="M 1061.388724 288.68 
L 1064.828153 288.68 
L 1064.828153 261.23913 
L 1061.388724 261.23913 
z
" style="opacity:0.2;"/>
   </g>
   <g id="matplotlib.axis_3">
    <g id="xtick_7">
     <g id="line2d_15">
      <g>
       <use style="stroke:#000000;stroke-width:0.8;" x="597.371459" xlink:href="#ma3d72f1ce0" y="290.68"/>
      </g>
     </g>
     <g id="text_17">
      <!-- −1.25 -->
      <defs>
       <path d="M 10.59375 35.5 
L 73.1875 35.5 
L 73.1875 27.203125 
L 10.59375 27.203125 
z
" id="DejaVuSans-8722"/>
       <path d="M 10.6875 12.40625 
L 21 12.40625 
L 21 0 
L 10.6875 0 
z
" id="DejaVuSans-46"/>
      </defs>
      <g transform="translate(582.048803 305.278437)scale(0.1 -0.1)">
       <use xlink:href="#DejaVuSans-8722"/>
       <use x="83.789062" xlink:href="#DejaVuSans-49"/>
       <use x="147.412109" xlink:href="#DejaVuSans-46"/>
       <use x="179.199219" xlink:href="#DejaVuSans-50"/>
       <use x="242.822266" xlink:href="#DejaVuSans-53"/>
      </g>
     </g>
    </g>
    <g id="xtick_8">
     <g id="line2d_16">
      <g>
       <use style="stroke:#000000;stroke-width:0.8;" x="657.393441" xlink:href="#ma3d72f1ce0" y="290.68"/>
      </g>
     </g>
     <g id="text_18">
      <!-- −1.00 -->
      <g transform="translate(642.070784 305.278437)scale(0.1 -0.1)">
       <use xlink:href="#DejaVuSans-8722"/>
       <use x="83.789062" xlink:href="#DejaVuSans-49"/>
       <use x="147.412109" xlink:href="#DejaVuSans-46"/>
       <use x="179.199219" xlink:href="#DejaVuSans-48"/>
       <use x="242.822266" xlink:href="#DejaVuSans-48"/>
      </g>
     </g>
    </g>
    <g id="xtick_9">
     <g id="line2d_17">
      <g>
       <use style="stroke:#000000;stroke-width:0.8;" x="717.415422" xlink:href="#ma3d72f1ce0" y="290.68"/>
      </g>
     </g>
     <g id="text_19">
      <!-- −0.75 -->
      <g transform="translate(702.092766 305.278437)scale(0.1 -0.1)">
       <use xlink:href="#DejaVuSans-8722"/>
       <use x="83.789062" xlink:href="#DejaVuSans-48"/>
       <use x="147.412109" xlink:href="#DejaVuSans-46"/>
       <use x="179.199219" xlink:href="#DejaVuSans-55"/>
       <use x="242.822266" xlink:href="#DejaVuSans-53"/>
      </g>
     </g>
    </g>
    <g id="xtick_10">
     <g id="line2d_18">
      <g>
       <use style="stroke:#000000;stroke-width:0.8;" x="777.437404" xlink:href="#ma3d72f1ce0" y="290.68"/>
      </g>
     </g>
     <g id="text_20">
      <!-- −0.50 -->
      <g transform="translate(762.114747 305.278437)scale(0.1 -0.1)">
       <use xlink:href="#DejaVuSans-8722"/>
       <use x="83.789062" xlink:href="#DejaVuSans-48"/>
       <use x="147.412109" xlink:href="#DejaVuSans-46"/>
       <use x="179.199219" xlink:href="#DejaVuSans-53"/>
       <use x="242.822266" xlink:href="#DejaVuSans-48"/>
      </g>
     </g>
    </g>
    <g id="xtick_11">
     <g id="line2d_19">
      <g>
       <use style="stroke:#000000;stroke-width:0.8;" x="837.459385" xlink:href="#ma3d72f1ce0" y="290.68"/>
      </g>
     </g>
     <g id="text_21">
      <!-- −0.25 -->
      <g transform="translate(822.136729 305.278437)scale(0.1 -0.1)">
       <use xlink:href="#DejaVuSans-8722"/>
       <use x="83.789062" xlink:href="#DejaVuSans-48"/>
       <use x="147.412109" xlink:href="#DejaVuSans-46"/>
       <use x="179.199219" xlink:href="#DejaVuSans-50"/>
       <use x="242.822266" xlink:href="#DejaVuSans-53"/>
      </g>
     </g>
    </g>
    <g id="xtick_12">
     <g id="line2d_20">
      <g>
       <use style="stroke:#000000;stroke-width:0.8;" x="897.481366" xlink:href="#ma3d72f1ce0" y="290.68"/>
      </g>
     </g>
     <g id="text_22">
      <!-- 0.00 -->
      <g transform="translate(886.348554 305.278437)scale(0.1 -0.1)">
       <use xlink:href="#DejaVuSans-48"/>
       <use x="63.623047" xlink:href="#DejaVuSans-46"/>
       <use x="95.410156" xlink:href="#DejaVuSans-48"/>
       <use x="159.033203" xlink:href="#DejaVuSans-48"/>
      </g>
     </g>
    </g>
    <g id="xtick_13">
     <g id="line2d_21">
      <g>
       <use style="stroke:#000000;stroke-width:0.8;" x="957.503348" xlink:href="#ma3d72f1ce0" y="290.68"/>
      </g>
     </g>
     <g id="text_23">
      <!-- 0.25 -->
      <g transform="translate(946.370535 305.278437)scale(0.1 -0.1)">
       <use xlink:href="#DejaVuSans-48"/>
       <use x="63.623047" xlink:href="#DejaVuSans-46"/>
       <use x="95.410156" xlink:href="#DejaVuSans-50"/>
       <use x="159.033203" xlink:href="#DejaVuSans-53"/>
      </g>
     </g>
    </g>
    <g id="xtick_14">
     <g id="line2d_22">
      <g>
       <use style="stroke:#000000;stroke-width:0.8;" x="1017.525329" xlink:href="#ma3d72f1ce0" y="290.68"/>
      </g>
     </g>
     <g id="text_24">
      <!-- 0.50 -->
      <g transform="translate(1006.392517 305.278437)scale(0.1 -0.1)">
       <use xlink:href="#DejaVuSans-48"/>
       <use x="63.623047" xlink:href="#DejaVuSans-46"/>
       <use x="95.410156" xlink:href="#DejaVuSans-53"/>
       <use x="159.033203" xlink:href="#DejaVuSans-48"/>
      </g>
     </g>
    </g>
    <g id="text_25">
     <!-- $\mathrm{log10}(K_{\mathrm{S}})$ -->
     <defs>
      <path d="M 45.40625 27.984375 
Q 45.40625 37.75 41.375 43.109375 
Q 37.359375 48.484375 30.078125 48.484375 
Q 22.859375 48.484375 18.828125 43.109375 
Q 14.796875 37.75 14.796875 27.984375 
Q 14.796875 18.265625 18.828125 12.890625 
Q 22.859375 7.515625 30.078125 7.515625 
Q 37.359375 7.515625 41.375 12.890625 
Q 45.40625 18.265625 45.40625 27.984375 
z
M 54.390625 6.78125 
Q 54.390625 -7.171875 48.1875 -13.984375 
Q 42 -20.796875 29.203125 -20.796875 
Q 24.46875 -20.796875 20.265625 -20.09375 
Q 16.0625 -19.390625 12.109375 -17.921875 
L 12.109375 -9.1875 
Q 16.0625 -11.328125 19.921875 -12.34375 
Q 23.78125 -13.375 27.78125 -13.375 
Q 36.625 -13.375 41.015625 -8.765625 
Q 45.40625 -4.15625 45.40625 5.171875 
L 45.40625 9.625 
Q 42.625 4.78125 38.28125 2.390625 
Q 33.9375 0 27.875 0 
Q 17.828125 0 11.671875 7.65625 
Q 5.515625 15.328125 5.515625 27.984375 
Q 5.515625 40.671875 11.671875 48.328125 
Q 17.828125 56 27.875 56 
Q 33.9375 56 38.28125 53.609375 
Q 42.625 51.21875 45.40625 46.390625 
L 45.40625 54.6875 
L 54.390625 54.6875 
z
" id="DejaVuSans-103"/>
      <path d="M 31 75.875 
Q 24.46875 64.65625 21.28125 53.65625 
Q 18.109375 42.671875 18.109375 31.390625 
Q 18.109375 20.125 21.3125 9.0625 
Q 24.515625 -2 31 -13.1875 
L 23.1875 -13.1875 
Q 15.875 -1.703125 12.234375 9.375 
Q 8.59375 20.453125 8.59375 31.390625 
Q 8.59375 42.28125 12.203125 53.3125 
Q 15.828125 64.359375 23.1875 75.875 
z
" id="DejaVuSans-40"/>
      <path d="M 8.015625 75.875 
L 15.828125 75.875 
Q 23.140625 64.359375 26.78125 53.3125 
Q 30.421875 42.28125 30.421875 31.390625 
Q 30.421875 20.453125 26.78125 9.375 
Q 23.140625 -1.703125 15.828125 -13.1875 
L 8.015625 -13.1875 
Q 14.5 -2 17.703125 9.0625 
Q 20.90625 20.125 20.90625 31.390625 
Q 20.90625 42.671875 17.703125 53.65625 
Q 14.5 64.65625 8.015625 75.875 
z
" id="DejaVuSans-41"/>
     </defs>
     <g transform="translate(801.668125 318.958125)scale(0.1 -0.1)">
      <use transform="translate(0 0.015625)" xlink:href="#DejaVuSans-108"/>
      <use transform="translate(27.783203 0.015625)" xlink:href="#DejaVuSans-111"/>
      <use transform="translate(88.964844 0.015625)" xlink:href="#DejaVuSans-103"/>
      <use transform="translate(152.441406 0.015625)" xlink:href="#DejaVuSans-49"/>
      <use transform="translate(216.064453 0.015625)" xlink:href="#DejaVuSans-48"/>
      <use transform="translate(279.6875 0.015625)" xlink:href="#DejaVuSans-40"/>
      <use transform="translate(318.701172 0.015625)" xlink:href="#DejaVuSans-Oblique-75"/>
      <use transform="translate(384.277344 -16.390625)scale(0.7)" xlink:href="#DejaVuSans-83"/>
      <use transform="translate(431.445312 0.015625)" xlink:href="#DejaVuSans-41"/>
     </g>
    </g>
   </g>
   <g id="matplotlib.axis_4">
    <g id="ytick_9">
     <g id="line2d_23">
      <g>
       <use style="stroke:#000000;stroke-width:0.8;" x="583.140625" xlink:href="#m3332252bbc" y="288.68"/>
      </g>
     </g>
     <g id="text_26">
      <!-- 0 -->
      <g transform="translate(569.778125 292.479219)scale(0.1 -0.1)">
       <use xlink:href="#DejaVuSans-48"/>
      </g>
     </g>
    </g>
    <g id="ytick_10">
     <g id="line2d_24">
      <g>
       <use style="stroke:#000000;stroke-width:0.8;" x="583.140625" xlink:href="#m3332252bbc" y="246.463277"/>
      </g>
     </g>
     <g id="text_27">
      <!-- 20 -->
      <g transform="translate(563.415625 250.262496)scale(0.1 -0.1)">
       <use xlink:href="#DejaVuSans-50"/>
       <use x="63.623047" xlink:href="#DejaVuSans-48"/>
      </g>
     </g>
    </g>
    <g id="ytick_11">
     <g id="line2d_25">
      <g>
       <use style="stroke:#000000;stroke-width:0.8;" x="583.140625" xlink:href="#m3332252bbc" y="204.246554"/>
      </g>
     </g>
     <g id="text_28">
      <!-- 40 -->
      <g transform="translate(563.415625 208.045773)scale(0.1 -0.1)">
       <use xlink:href="#DejaVuSans-52"/>
       <use x="63.623047" xlink:href="#DejaVuSans-48"/>
      </g>
     </g>
    </g>
    <g id="ytick_12">
     <g id="line2d_26">
      <g>
       <use style="stroke:#000000;stroke-width:0.8;" x="583.140625" xlink:href="#m3332252bbc" y="162.029831"/>
      </g>
     </g>
     <g id="text_29">
      <!-- 60 -->
      <defs>
       <path d="M 33.015625 40.375 
Q 26.375 40.375 22.484375 35.828125 
Q 18.609375 31.296875 18.609375 23.390625 
Q 18.609375 15.53125 22.484375 10.953125 
Q 26.375 6.390625 33.015625 6.390625 
Q 39.65625 6.390625 43.53125 10.953125 
Q 47.40625 15.53125 47.40625 23.390625 
Q 47.40625 31.296875 43.53125 35.828125 
Q 39.65625 40.375 33.015625 40.375 
z
M 52.59375 71.296875 
L 52.59375 62.3125 
Q 48.875 64.0625 45.09375 64.984375 
Q 41.3125 65.921875 37.59375 65.921875 
Q 27.828125 65.921875 22.671875 59.328125 
Q 17.53125 52.734375 16.796875 39.40625 
Q 19.671875 43.65625 24.015625 45.921875 
Q 28.375 48.1875 33.59375 48.1875 
Q 44.578125 48.1875 50.953125 41.515625 
Q 57.328125 34.859375 57.328125 23.390625 
Q 57.328125 12.15625 50.6875 5.359375 
Q 44.046875 -1.421875 33.015625 -1.421875 
Q 20.359375 -1.421875 13.671875 8.265625 
Q 6.984375 17.96875 6.984375 36.375 
Q 6.984375 53.65625 15.1875 63.9375 
Q 23.390625 74.21875 37.203125 74.21875 
Q 40.921875 74.21875 44.703125 73.484375 
Q 48.484375 72.75 52.59375 71.296875 
z
" id="DejaVuSans-54"/>
      </defs>
      <g transform="translate(563.415625 165.82905)scale(0.1 -0.1)">
       <use xlink:href="#DejaVuSans-54"/>
       <use x="63.623047" xlink:href="#DejaVuSans-48"/>
      </g>
     </g>
    </g>
    <g id="ytick_13">
     <g id="line2d_27">
      <g>
       <use style="stroke:#000000;stroke-width:0.8;" x="583.140625" xlink:href="#m3332252bbc" y="119.813108"/>
      </g>
     </g>
     <g id="text_30">
      <!-- 80 -->
      <defs>
       <path d="M 31.78125 34.625 
Q 24.75 34.625 20.71875 30.859375 
Q 16.703125 27.09375 16.703125 20.515625 
Q 16.703125 13.921875 20.71875 10.15625 
Q 24.75 6.390625 31.78125 6.390625 
Q 38.8125 6.390625 42.859375 10.171875 
Q 46.921875 13.96875 46.921875 20.515625 
Q 46.921875 27.09375 42.890625 30.859375 
Q 38.875 34.625 31.78125 34.625 
z
M 21.921875 38.8125 
Q 15.578125 40.375 12.03125 44.71875 
Q 8.5 49.078125 8.5 55.328125 
Q 8.5 64.0625 14.71875 69.140625 
Q 20.953125 74.21875 31.78125 74.21875 
Q 42.671875 74.21875 48.875 69.140625 
Q 55.078125 64.0625 55.078125 55.328125 
Q 55.078125 49.078125 51.53125 44.71875 
Q 48 40.375 41.703125 38.8125 
Q 48.828125 37.15625 52.796875 32.3125 
Q 56.78125 27.484375 56.78125 20.515625 
Q 56.78125 9.90625 50.3125 4.234375 
Q 43.84375 -1.421875 31.78125 -1.421875 
Q 19.734375 -1.421875 13.25 4.234375 
Q 6.78125 9.90625 6.78125 20.515625 
Q 6.78125 27.484375 10.78125 32.3125 
Q 14.796875 37.15625 21.921875 38.8125 
z
M 18.3125 54.390625 
Q 18.3125 48.734375 21.84375 45.5625 
Q 25.390625 42.390625 31.78125 42.390625 
Q 38.140625 42.390625 41.71875 45.5625 
Q 45.3125 48.734375 45.3125 54.390625 
Q 45.3125 60.0625 41.71875 63.234375 
Q 38.140625 66.40625 31.78125 66.40625 
Q 25.390625 66.40625 21.84375 63.234375 
Q 18.3125 60.0625 18.3125 54.390625 
z
" id="DejaVuSans-56"/>
      </defs>
      <g transform="translate(563.415625 123.612327)scale(0.1 -0.1)">
       <use xlink:href="#DejaVuSans-56"/>
       <use x="63.623047" xlink:href="#DejaVuSans-48"/>
      </g>
     </g>
    </g>
    <g id="ytick_14">
     <g id="line2d_28">
      <g>
       <use style="stroke:#000000;stroke-width:0.8;" x="583.140625" xlink:href="#m3332252bbc" y="77.596385"/>
      </g>
     </g>
     <g id="text_31">
      <!-- 100 -->
      <g transform="translate(557.053125 81.395604)scale(0.1 -0.1)">
       <use xlink:href="#DejaVuSans-49"/>
       <use x="63.623047" xlink:href="#DejaVuSans-48"/>
       <use x="127.246094" xlink:href="#DejaVuSans-48"/>
      </g>
     </g>
    </g>
    <g id="ytick_15">
     <g id="line2d_29">
      <g>
       <use style="stroke:#000000;stroke-width:0.8;" x="583.140625" xlink:href="#m3332252bbc" y="35.379663"/>
      </g>
     </g>
     <g id="text_32">
      <!-- 120 -->
      <g transform="translate(557.053125 39.178881)scale(0.1 -0.1)">
       <use xlink:href="#DejaVuSans-49"/>
       <use x="63.623047" xlink:href="#DejaVuSans-50"/>
       <use x="127.246094" xlink:href="#DejaVuSans-48"/>
      </g>
     </g>
    </g>
    <g id="text_33">
     <!-- Duplications -->
     <g transform="translate(550.973438 178.906406)rotate(-90)scale(0.1 -0.1)">
      <use xlink:href="#DejaVuSans-68"/>
      <use x="77.001953" xlink:href="#DejaVuSans-117"/>
      <use x="140.380859" xlink:href="#DejaVuSans-112"/>
      <use x="203.857422" xlink:href="#DejaVuSans-108"/>
      <use x="231.640625" xlink:href="#DejaVuSans-105"/>
      <use x="259.423828" xlink:href="#DejaVuSans-99"/>
      <use x="314.404297" xlink:href="#DejaVuSans-97"/>
      <use x="375.683594" xlink:href="#DejaVuSans-116"/>
      <use x="414.892578" xlink:href="#DejaVuSans-105"/>
      <use x="442.675781" xlink:href="#DejaVuSans-111"/>
      <use x="503.857422" xlink:href="#DejaVuSans-110"/>
      <use x="567.236328" xlink:href="#DejaVuSans-115"/>
     </g>
    </g>
   </g>
   <g id="patch_106">
    <path d="M 583.140625 288.68 
L 583.140625 7.2 
" style="fill:none;stroke:#000000;stroke-linecap:square;stroke-linejoin:miter;stroke-width:0.8;"/>
   </g>
   <g id="patch_107">
    <path d="M 585.140625 290.68 
L 1065.295625 290.68 
" style="fill:none;stroke:#000000;stroke-linecap:square;stroke-linejoin:miter;stroke-width:0.8;"/>
   </g>
  </g>
  <g id="axes_3">
   <g id="patch_108">
    <path d="M 48.965625 617 
L 529.120625 617 
L 529.120625 335.52 
L 48.965625 335.52 
z
" style="fill:#ffffff;"/>
   </g>
   <g id="patch_109">
    <path clip-path="url(#pa705d95ac5)" d="M 70.790852 617 
L 77.802973 617 
L 77.802973 615.864084 
L 70.790852 615.864084 
z
" style="opacity:0.2;"/>
   </g>
   <g id="patch_110">
    <path clip-path="url(#pa705d95ac5)" d="M 79.556004 617 
L 86.568125 617 
L 86.568125 617 
L 79.556004 617 
z
" style="opacity:0.2;"/>
   </g>
   <g id="patch_111">
    <path clip-path="url(#pa705d95ac5)" d="M 88.321155 617 
L 95.333277 617 
L 95.333277 617 
L 88.321155 617 
z
" style="opacity:0.2;"/>
   </g>
   <g id="patch_112">
    <path clip-path="url(#pa705d95ac5)" d="M 97.086307 617 
L 104.098428 617 
L 104.098428 617 
L 97.086307 617 
z
" style="opacity:0.2;"/>
   </g>
   <g id="patch_113">
    <path clip-path="url(#pa705d95ac5)" d="M 105.851458 617 
L 112.86358 617 
L 112.86358 615.864084 
L 105.851458 615.864084 
z
" style="opacity:0.2;"/>
   </g>
   <g id="patch_114">
    <path clip-path="url(#pa705d95ac5)" d="M 114.61661 617 
L 121.628731 617 
L 121.628731 617 
L 114.61661 617 
z
" style="opacity:0.2;"/>
   </g>
   <g id="patch_115">
    <path clip-path="url(#pa705d95ac5)" d="M 123.381761 617 
L 130.393883 617 
L 130.393883 615.864084 
L 123.381761 615.864084 
z
" style="opacity:0.2;"/>
   </g>
   <g id="patch_116">
    <path clip-path="url(#pa705d95ac5)" d="M 132.146913 617 
L 139.159034 617 
L 139.159034 617 
L 132.146913 617 
z
" style="opacity:0.2;"/>
   </g>
   <g id="patch_117">
    <path clip-path="url(#pa705d95ac5)" d="M 140.912064 617 
L 147.924186 617 
L 147.924186 617 
L 140.912064 617 
z
" style="opacity:0.2;"/>
   </g>
   <g id="patch_118">
    <path clip-path="url(#pa705d95ac5)" d="M 149.677216 617 
L 156.689337 617 
L 156.689337 617 
L 149.677216 617 
z
" style="opacity:0.2;"/>
   </g>
   <g id="patch_119">
    <path clip-path="url(#pa705d95ac5)" d="M 158.442367 617 
L 165.454489 617 
L 165.454489 617 
L 158.442367 617 
z
" style="opacity:0.2;"/>
   </g>
   <g id="patch_120">
    <path clip-path="url(#pa705d95ac5)" d="M 167.207519 617 
L 174.21964 617 
L 174.21964 617 
L 167.207519 617 
z
" style="opacity:0.2;"/>
   </g>
   <g id="patch_121">
    <path clip-path="url(#pa705d95ac5)" d="M 175.97267 617 
L 182.984792 617 
L 182.984792 617 
L 175.97267 617 
z
" style="opacity:0.2;"/>
   </g>
   <g id="patch_122">
    <path clip-path="url(#pa705d95ac5)" d="M 184.737822 617 
L 191.749943 617 
L 191.749943 617 
L 184.737822 617 
z
" style="opacity:0.2;"/>
   </g>
   <g id="patch_123">
    <path clip-path="url(#pa705d95ac5)" d="M 193.502973 617 
L 200.515095 617 
L 200.515095 617 
L 193.502973 617 
z
" style="opacity:0.2;"/>
   </g>
   <g id="patch_124">
    <path clip-path="url(#pa705d95ac5)" d="M 202.268125 617 
L 209.280246 617 
L 209.280246 617 
L 202.268125 617 
z
" style="opacity:0.2;"/>
   </g>
   <g id="patch_125">
    <path clip-path="url(#pa705d95ac5)" d="M 211.033277 617 
L 218.045398 617 
L 218.045398 615.864084 
L 211.033277 615.864084 
z
" style="opacity:0.2;"/>
   </g>
   <g id="patch_126">
    <path clip-path="url(#pa705d95ac5)" d="M 219.798428 617 
L 226.810549 617 
L 226.810549 615.864084 
L 219.798428 615.864084 
z
" style="opacity:0.2;"/>
   </g>
   <g id="patch_127">
    <path clip-path="url(#pa705d95ac5)" d="M 228.56358 617 
L 235.575701 617 
L 235.575701 613.592252 
L 228.56358 613.592252 
z
" style="opacity:0.2;"/>
   </g>
   <g id="patch_128">
    <path clip-path="url(#pa705d95ac5)" d="M 237.328731 617 
L 244.340852 617 
L 244.340852 615.864084 
L 237.328731 615.864084 
z
" style="opacity:0.2;"/>
   </g>
   <g id="patch_129">
    <path clip-path="url(#pa705d95ac5)" d="M 246.093883 617 
L 253.106004 617 
L 253.106004 614.728168 
L 246.093883 614.728168 
z
" style="opacity:0.2;"/>
   </g>
   <g id="patch_130">
    <path clip-path="url(#pa705d95ac5)" d="M 254.859034 617 
L 261.871155 617 
L 261.871155 611.32042 
L 254.859034 611.32042 
z
" style="opacity:0.2;"/>
   </g>
   <g id="patch_131">
    <path clip-path="url(#pa705d95ac5)" d="M 263.624186 617 
L 270.636307 617 
L 270.636307 613.592252 
L 263.624186 613.592252 
z
" style="opacity:0.2;"/>
   </g>
   <g id="patch_132">
    <path clip-path="url(#pa705d95ac5)" d="M 272.389337 617 
L 279.401458 617 
L 279.401458 612.456336 
L 272.389337 612.456336 
z
" style="opacity:0.2;"/>
   </g>
   <g id="patch_133">
    <path clip-path="url(#pa705d95ac5)" d="M 281.154489 617 
L 288.16661 617 
L 288.16661 606.776755 
L 281.154489 606.776755 
z
" style="opacity:0.2;"/>
   </g>
   <g id="patch_134">
    <path clip-path="url(#pa705d95ac5)" d="M 289.91964 617 
L 296.931761 617 
L 296.931761 609.048588 
L 289.91964 609.048588 
z
" style="opacity:0.2;"/>
   </g>
   <g id="patch_135">
    <path clip-path="url(#pa705d95ac5)" d="M 298.684792 617 
L 305.696913 617 
L 305.696913 606.776755 
L 298.684792 606.776755 
z
" style="opacity:0.2;"/>
   </g>
   <g id="patch_136">
    <path clip-path="url(#pa705d95ac5)" d="M 307.449943 617 
L 314.462064 617 
L 314.462064 597.689427 
L 307.449943 597.689427 
z
" style="opacity:0.2;"/>
   </g>
   <g id="patch_137">
    <path clip-path="url(#pa705d95ac5)" d="M 316.215095 617 
L 323.227216 617 
L 323.227216 592.009847 
L 316.215095 592.009847 
z
" style="opacity:0.2;"/>
   </g>
   <g id="patch_138">
    <path clip-path="url(#pa705d95ac5)" d="M 324.980246 617 
L 331.992367 617 
L 331.992367 590.873931 
L 324.980246 590.873931 
z
" style="opacity:0.2;"/>
   </g>
   <g id="patch_139">
    <path clip-path="url(#pa705d95ac5)" d="M 333.745398 617 
L 340.757519 617 
L 340.757519 585.19435 
L 333.745398 585.19435 
z
" style="opacity:0.2;"/>
   </g>
   <g id="patch_140">
    <path clip-path="url(#pa705d95ac5)" d="M 342.510549 617 
L 349.52267 617 
L 349.52267 570.427441 
L 342.510549 570.427441 
z
" style="opacity:0.2;"/>
   </g>
   <g id="patch_141">
    <path clip-path="url(#pa705d95ac5)" d="M 351.275701 617 
L 358.287822 617 
L 358.287822 549.980952 
L 351.275701 549.980952 
z
" style="opacity:0.2;"/>
   </g>
   <g id="patch_142">
    <path clip-path="url(#pa705d95ac5)" d="M 360.040852 617 
L 367.052973 617 
L 367.052973 519.311219 
L 360.040852 519.311219 
z
" style="opacity:0.2;"/>
   </g>
   <g id="patch_143">
    <path clip-path="url(#pa705d95ac5)" d="M 368.806004 617 
L 375.818125 617 
L 375.818125 484.097821 
L 368.806004 484.097821 
z
" style="opacity:0.2;"/>
   </g>
   <g id="patch_144">
    <path clip-path="url(#pa705d95ac5)" d="M 377.571155 617 
L 384.583277 617 
L 384.583277 456.835835 
L 377.571155 456.835835 
z
" style="opacity:0.2;"/>
   </g>
   <g id="patch_145">
    <path clip-path="url(#pa705d95ac5)" d="M 386.336307 617 
L 393.348428 617 
L 393.348428 428.437934 
L 386.336307 428.437934 
z
" style="opacity:0.2;"/>
   </g>
   <g id="patch_146">
    <path clip-path="url(#pa705d95ac5)" d="M 395.101458 617 
L 402.11358 617 
L 402.11358 411.399193 
L 395.101458 411.399193 
z
" style="opacity:0.2;"/>
   </g>
   <g id="patch_147">
    <path clip-path="url(#pa705d95ac5)" d="M 403.86661 617 
L 410.878731 617 
L 410.878731 363.690718 
L 403.86661 363.690718 
z
" style="opacity:0.2;"/>
   </g>
   <g id="patch_148">
    <path clip-path="url(#pa705d95ac5)" d="M 412.631761 617 
L 419.643883 617 
L 419.643883 348.92381 
L 412.631761 348.92381 
z
" style="opacity:0.2;"/>
   </g>
   <g id="patch_149">
    <path clip-path="url(#pa705d95ac5)" d="M 421.396913 617 
L 428.409034 617 
L 428.409034 387.544956 
L 421.396913 387.544956 
z
" style="opacity:0.2;"/>
   </g>
   <g id="patch_150">
    <path clip-path="url(#pa705d95ac5)" d="M 430.162064 617 
L 437.174186 617 
L 437.174186 390.952704 
L 430.162064 390.952704 
z
" style="opacity:0.2;"/>
   </g>
   <g id="patch_151">
    <path clip-path="url(#pa705d95ac5)" d="M 438.927216 617 
L 445.939337 617 
L 445.939337 426.166102 
L 438.927216 426.166102 
z
" style="opacity:0.2;"/>
   </g>
   <g id="patch_152">
    <path clip-path="url(#pa705d95ac5)" d="M 447.692367 617 
L 454.704489 617 
L 454.704489 484.097821 
L 447.692367 484.097821 
z
" style="opacity:0.2;"/>
   </g>
   <g id="patch_153">
    <path clip-path="url(#pa705d95ac5)" d="M 456.457519 617 
L 463.46964 617 
L 463.46964 532.942211 
L 456.457519 532.942211 
z
" style="opacity:0.2;"/>
   </g>
   <g id="patch_154">
    <path clip-path="url(#pa705d95ac5)" d="M 465.22267 617 
L 472.234792 617 
L 472.234792 559.068281 
L 465.22267 559.068281 
z
" style="opacity:0.2;"/>
   </g>
   <g id="patch_155">
    <path clip-path="url(#pa705d95ac5)" d="M 473.987822 617 
L 480.999943 617 
L 480.999943 572.699274 
L 473.987822 572.699274 
z
" style="opacity:0.2;"/>
   </g>
   <g id="patch_156">
    <path clip-path="url(#pa705d95ac5)" d="M 482.752973 617 
L 489.765095 617 
L 489.765095 602.233091 
L 482.752973 602.233091 
z
" style="opacity:0.2;"/>
   </g>
   <g id="patch_157">
    <path clip-path="url(#pa705d95ac5)" d="M 491.518125 617 
L 498.530246 617 
L 498.530246 603.369007 
L 491.518125 603.369007 
z
" style="opacity:0.2;"/>
   </g>
   <g id="patch_158">
    <path clip-path="url(#pa705d95ac5)" d="M 500.283277 617 
L 507.295398 617 
L 507.295398 607.912672 
L 500.283277 607.912672 
z
" style="opacity:0.2;"/>
   </g>
   <g id="matplotlib.axis_5">
    <g id="xtick_15">
     <g id="line2d_30">
      <g>
       <use style="stroke:#000000;stroke-width:0.8;" x="114.021652" xlink:href="#ma3d72f1ce0" y="619"/>
      </g>
     </g>
     <g id="text_34">
      <!-- −2.5 -->
      <g transform="translate(101.880246 633.598437)scale(0.1 -0.1)">
       <use xlink:href="#DejaVuSans-8722"/>
       <use x="83.789062" xlink:href="#DejaVuSans-50"/>
       <use x="147.412109" xlink:href="#DejaVuSans-46"/>
       <use x="179.199219" xlink:href="#DejaVuSans-53"/>
      </g>
     </g>
    </g>
    <g id="xtick_16">
     <g id="line2d_31">
      <g>
       <use style="stroke:#000000;stroke-width:0.8;" x="195.837898" xlink:href="#ma3d72f1ce0" y="619"/>
      </g>
     </g>
     <g id="text_35">
      <!-- −2.0 -->
      <g transform="translate(183.696492 633.598437)scale(0.1 -0.1)">
       <use xlink:href="#DejaVuSans-8722"/>
       <use x="83.789062" xlink:href="#DejaVuSans-50"/>
       <use x="147.412109" xlink:href="#DejaVuSans-46"/>
       <use x="179.199219" xlink:href="#DejaVuSans-48"/>
      </g>
     </g>
    </g>
    <g id="xtick_17">
     <g id="line2d_32">
      <g>
       <use style="stroke:#000000;stroke-width:0.8;" x="277.654145" xlink:href="#ma3d72f1ce0" y="619"/>
      </g>
     </g>
     <g id="text_36">
      <!-- −1.5 -->
      <g transform="translate(265.512738 633.598437)scale(0.1 -0.1)">
       <use xlink:href="#DejaVuSans-8722"/>
       <use x="83.789062" xlink:href="#DejaVuSans-49"/>
       <use x="147.412109" xlink:href="#DejaVuSans-46"/>
       <use x="179.199219" xlink:href="#DejaVuSans-53"/>
      </g>
     </g>
    </g>
    <g id="xtick_18">
     <g id="line2d_33">
      <g>
       <use style="stroke:#000000;stroke-width:0.8;" x="359.470391" xlink:href="#ma3d72f1ce0" y="619"/>
      </g>
     </g>
     <g id="text_37">
      <!-- −1.0 -->
      <g transform="translate(347.328985 633.598437)scale(0.1 -0.1)">
       <use xlink:href="#DejaVuSans-8722"/>
       <use x="83.789062" xlink:href="#DejaVuSans-49"/>
       <use x="147.412109" xlink:href="#DejaVuSans-46"/>
       <use x="179.199219" xlink:href="#DejaVuSans-48"/>
      </g>
     </g>
    </g>
    <g id="xtick_19">
     <g id="line2d_34">
      <g>
       <use style="stroke:#000000;stroke-width:0.8;" x="441.286637" xlink:href="#ma3d72f1ce0" y="619"/>
      </g>
     </g>
     <g id="text_38">
      <!-- −0.5 -->
      <g transform="translate(429.145231 633.598437)scale(0.1 -0.1)">
       <use xlink:href="#DejaVuSans-8722"/>
       <use x="83.789062" xlink:href="#DejaVuSans-48"/>
       <use x="147.412109" xlink:href="#DejaVuSans-46"/>
       <use x="179.199219" xlink:href="#DejaVuSans-53"/>
      </g>
     </g>
    </g>
    <g id="xtick_20">
     <g id="line2d_35">
      <g>
       <use style="stroke:#000000;stroke-width:0.8;" x="523.102884" xlink:href="#ma3d72f1ce0" y="619"/>
      </g>
     </g>
     <g id="text_39">
      <!-- 0.0 -->
      <g transform="translate(515.151321 633.598437)scale(0.1 -0.1)">
       <use xlink:href="#DejaVuSans-48"/>
       <use x="63.623047" xlink:href="#DejaVuSans-46"/>
       <use x="95.410156" xlink:href="#DejaVuSans-48"/>
      </g>
     </g>
    </g>
    <g id="text_40">
     <!-- $\mathrm{log10}(K_{\mathrm{A}})$ -->
     <defs>
      <path d="M 34.1875 63.1875 
L 20.796875 26.90625 
L 47.609375 26.90625 
z
M 28.609375 72.90625 
L 39.796875 72.90625 
L 67.578125 0 
L 57.328125 0 
L 50.6875 18.703125 
L 17.828125 18.703125 
L 11.1875 0 
L 0.78125 0 
z
" id="DejaVuSans-65"/>
     </defs>
     <g transform="translate(265.343125 647.278125)scale(0.1 -0.1)">
      <use transform="translate(0 0.015625)" xlink:href="#DejaVuSans-108"/>
      <use transform="translate(27.783203 0.015625)" xlink:href="#DejaVuSans-111"/>
      <use transform="translate(88.964844 0.015625)" xlink:href="#DejaVuSans-103"/>
      <use transform="translate(152.441406 0.015625)" xlink:href="#DejaVuSans-49"/>
      <use transform="translate(216.064453 0.015625)" xlink:href="#DejaVuSans-48"/>
      <use transform="translate(279.6875 0.015625)" xlink:href="#DejaVuSans-40"/>
      <use transform="translate(318.701172 0.015625)" xlink:href="#DejaVuSans-Oblique-75"/>
      <use transform="translate(384.277344 -16.390625)scale(0.7)" xlink:href="#DejaVuSans-65"/>
      <use transform="translate(434.897461 0.015625)" xlink:href="#DejaVuSans-41"/>
     </g>
    </g>
   </g>
   <g id="matplotlib.axis_6">
    <g id="ytick_16">
     <g id="line2d_36">
      <g>
       <use style="stroke:#000000;stroke-width:0.8;" x="46.965625" xlink:href="#m3332252bbc" y="617"/>
      </g>
     </g>
     <g id="text_41">
      <!-- 0 -->
      <g transform="translate(33.603125 620.799219)scale(0.1 -0.1)">
       <use xlink:href="#DejaVuSans-48"/>
      </g>
     </g>
    </g>
    <g id="ytick_17">
     <g id="line2d_37">
      <g>
       <use style="stroke:#000000;stroke-width:0.8;" x="46.965625" xlink:href="#m3332252bbc" y="560.204197"/>
      </g>
     </g>
     <g id="text_42">
      <!-- 50 -->
      <g transform="translate(27.240625 564.003416)scale(0.1 -0.1)">
       <use xlink:href="#DejaVuSans-53"/>
       <use x="63.623047" xlink:href="#DejaVuSans-48"/>
      </g>
     </g>
    </g>
    <g id="ytick_18">
     <g id="line2d_38">
      <g>
       <use style="stroke:#000000;stroke-width:0.8;" x="46.965625" xlink:href="#m3332252bbc" y="503.408394"/>
      </g>
     </g>
     <g id="text_43">
      <!-- 100 -->
      <g transform="translate(20.878125 507.207613)scale(0.1 -0.1)">
       <use xlink:href="#DejaVuSans-49"/>
       <use x="63.623047" xlink:href="#DejaVuSans-48"/>
       <use x="127.246094" xlink:href="#DejaVuSans-48"/>
      </g>
     </g>
    </g>
    <g id="ytick_19">
     <g id="line2d_39">
      <g>
       <use style="stroke:#000000;stroke-width:0.8;" x="46.965625" xlink:href="#m3332252bbc" y="446.612591"/>
      </g>
     </g>
     <g id="text_44">
      <!-- 150 -->
      <g transform="translate(20.878125 450.41181)scale(0.1 -0.1)">
       <use xlink:href="#DejaVuSans-49"/>
       <use x="63.623047" xlink:href="#DejaVuSans-53"/>
       <use x="127.246094" xlink:href="#DejaVuSans-48"/>
      </g>
     </g>
    </g>
    <g id="ytick_20">
     <g id="line2d_40">
      <g>
       <use style="stroke:#000000;stroke-width:0.8;" x="46.965625" xlink:href="#m3332252bbc" y="389.816788"/>
      </g>
     </g>
     <g id="text_45">
      <!-- 200 -->
      <g transform="translate(20.878125 393.616006)scale(0.1 -0.1)">
       <use xlink:href="#DejaVuSans-50"/>
       <use x="63.623047" xlink:href="#DejaVuSans-48"/>
       <use x="127.246094" xlink:href="#DejaVuSans-48"/>
      </g>
     </g>
    </g>
    <g id="text_46">
     <!-- Duplications -->
     <g transform="translate(14.798437 507.226406)rotate(-90)scale(0.1 -0.1)">
      <use xlink:href="#DejaVuSans-68"/>
      <use x="77.001953" xlink:href="#DejaVuSans-117"/>
      <use x="140.380859" xlink:href="#DejaVuSans-112"/>
      <use x="203.857422" xlink:href="#DejaVuSans-108"/>
      <use x="231.640625" xlink:href="#DejaVuSans-105"/>
      <use x="259.423828" xlink:href="#DejaVuSans-99"/>
      <use x="314.404297" xlink:href="#DejaVuSans-97"/>
      <use x="375.683594" xlink:href="#DejaVuSans-116"/>
      <use x="414.892578" xlink:href="#DejaVuSans-105"/>
      <use x="442.675781" xlink:href="#DejaVuSans-111"/>
      <use x="503.857422" xlink:href="#DejaVuSans-110"/>
      <use x="567.236328" xlink:href="#DejaVuSans-115"/>
     </g>
    </g>
   </g>
   <g id="patch_159">
    <path d="M 46.965625 617 
L 46.965625 335.52 
" style="fill:none;stroke:#000000;stroke-linecap:square;stroke-linejoin:miter;stroke-width:0.8;"/>
   </g>
   <g id="patch_160">
    <path d="M 48.965625 619 
L 529.120625 619 
" style="fill:none;stroke:#000000;stroke-linecap:square;stroke-linejoin:miter;stroke-width:0.8;"/>
   </g>
  </g>
  <g id="axes_4">
   <g id="patch_161">
    <path d="M 585.140625 617 
L 1065.295625 617 
L 1065.295625 335.52 
L 585.140625 335.52 
z
" style="fill:#ffffff;"/>
   </g>
   <g id="patch_162">
    <path clip-path="url(#pc5d2708d97)" d="M 606.965852 617 
L 613.977973 617 
L 613.977973 614.540585 
L 606.965852 614.540585 
z
" style="opacity:0.2;"/>
   </g>
   <g id="patch_163">
    <path clip-path="url(#pc5d2708d97)" d="M 615.731004 617 
L 622.743125 617 
L 622.743125 617 
L 615.731004 617 
z
" style="opacity:0.2;"/>
   </g>
   <g id="patch_164">
    <path clip-path="url(#pc5d2708d97)" d="M 624.496155 617 
L 631.508277 617 
L 631.508277 617 
L 624.496155 617 
z
" style="opacity:0.2;"/>
   </g>
   <g id="patch_165">
    <path clip-path="url(#pc5d2708d97)" d="M 633.261307 617 
L 640.273428 617 
L 640.273428 617 
L 633.261307 617 
z
" style="opacity:0.2;"/>
   </g>
   <g id="patch_166">
    <path clip-path="url(#pc5d2708d97)" d="M 642.026458 617 
L 649.03858 617 
L 649.03858 617 
L 642.026458 617 
z
" style="opacity:0.2;"/>
   </g>
   <g id="patch_167">
    <path clip-path="url(#pc5d2708d97)" d="M 650.79161 617 
L 657.803731 617 
L 657.803731 617 
L 650.79161 617 
z
" style="opacity:0.2;"/>
   </g>
   <g id="patch_168">
    <path clip-path="url(#pc5d2708d97)" d="M 659.556761 617 
L 666.568883 617 
L 666.568883 617 
L 659.556761 617 
z
" style="opacity:0.2;"/>
   </g>
   <g id="patch_169">
    <path clip-path="url(#pc5d2708d97)" d="M 668.321913 617 
L 675.334034 617 
L 675.334034 617 
L 668.321913 617 
z
" style="opacity:0.2;"/>
   </g>
   <g id="patch_170">
    <path clip-path="url(#pc5d2708d97)" d="M 677.087064 617 
L 684.099186 617 
L 684.099186 617 
L 677.087064 617 
z
" style="opacity:0.2;"/>
   </g>
   <g id="patch_171">
    <path clip-path="url(#pc5d2708d97)" d="M 685.852216 617 
L 692.864337 617 
L 692.864337 617 
L 685.852216 617 
z
" style="opacity:0.2;"/>
   </g>
   <g id="patch_172">
    <path clip-path="url(#pc5d2708d97)" d="M 694.617367 617 
L 701.629489 617 
L 701.629489 615.770293 
L 694.617367 615.770293 
z
" style="opacity:0.2;"/>
   </g>
   <g id="patch_173">
    <path clip-path="url(#pc5d2708d97)" d="M 703.382519 617 
L 710.39464 617 
L 710.39464 617 
L 703.382519 617 
z
" style="opacity:0.2;"/>
   </g>
   <g id="patch_174">
    <path clip-path="url(#pc5d2708d97)" d="M 712.14767 617 
L 719.159792 617 
L 719.159792 617 
L 712.14767 617 
z
" style="opacity:0.2;"/>
   </g>
   <g id="patch_175">
    <path clip-path="url(#pc5d2708d97)" d="M 720.912822 617 
L 727.924943 617 
L 727.924943 617 
L 720.912822 617 
z
" style="opacity:0.2;"/>
   </g>
   <g id="patch_176">
    <path clip-path="url(#pc5d2708d97)" d="M 729.677973 617 
L 736.690095 617 
L 736.690095 614.540585 
L 729.677973 614.540585 
z
" style="opacity:0.2;"/>
   </g>
   <g id="patch_177">
    <path clip-path="url(#pc5d2708d97)" d="M 738.443125 617 
L 745.455246 617 
L 745.455246 615.770293 
L 738.443125 615.770293 
z
" style="opacity:0.2;"/>
   </g>
   <g id="patch_178">
    <path clip-path="url(#pc5d2708d97)" d="M 747.208277 617 
L 754.220398 617 
L 754.220398 617 
L 747.208277 617 
z
" style="opacity:0.2;"/>
   </g>
   <g id="patch_179">
    <path clip-path="url(#pc5d2708d97)" d="M 755.973428 617 
L 762.985549 617 
L 762.985549 614.540585 
L 755.973428 614.540585 
z
" style="opacity:0.2;"/>
   </g>
   <g id="patch_180">
    <path clip-path="url(#pc5d2708d97)" d="M 764.73858 617 
L 771.750701 617 
L 771.750701 615.770293 
L 764.73858 615.770293 
z
" style="opacity:0.2;"/>
   </g>
   <g id="patch_181">
    <path clip-path="url(#pc5d2708d97)" d="M 773.503731 617 
L 780.515852 617 
L 780.515852 614.540585 
L 773.503731 614.540585 
z
" style="opacity:0.2;"/>
   </g>
   <g id="patch_182">
    <path clip-path="url(#pc5d2708d97)" d="M 782.268883 617 
L 789.281004 617 
L 789.281004 615.770293 
L 782.268883 615.770293 
z
" style="opacity:0.2;"/>
   </g>
   <g id="patch_183">
    <path clip-path="url(#pc5d2708d97)" d="M 791.034034 617 
L 798.046155 617 
L 798.046155 610.851464 
L 791.034034 610.851464 
z
" style="opacity:0.2;"/>
   </g>
   <g id="patch_184">
    <path clip-path="url(#pc5d2708d97)" d="M 799.799186 617 
L 806.811307 617 
L 806.811307 610.851464 
L 799.799186 610.851464 
z
" style="opacity:0.2;"/>
   </g>
   <g id="patch_185">
    <path clip-path="url(#pc5d2708d97)" d="M 808.564337 617 
L 815.576458 617 
L 815.576458 609.621756 
L 808.564337 609.621756 
z
" style="opacity:0.2;"/>
   </g>
   <g id="patch_186">
    <path clip-path="url(#pc5d2708d97)" d="M 817.329489 617 
L 824.34161 617 
L 824.34161 604.702927 
L 817.329489 604.702927 
z
" style="opacity:0.2;"/>
   </g>
   <g id="patch_187">
    <path clip-path="url(#pc5d2708d97)" d="M 826.09464 617 
L 833.106761 617 
L 833.106761 604.702927 
L 826.09464 604.702927 
z
" style="opacity:0.2;"/>
   </g>
   <g id="patch_188">
    <path clip-path="url(#pc5d2708d97)" d="M 834.859792 617 
L 841.871913 617 
L 841.871913 602.243512 
L 834.859792 602.243512 
z
" style="opacity:0.2;"/>
   </g>
   <g id="patch_189">
    <path clip-path="url(#pc5d2708d97)" d="M 843.624943 617 
L 850.637064 617 
L 850.637064 593.635561 
L 843.624943 593.635561 
z
" style="opacity:0.2;"/>
   </g>
   <g id="patch_190">
    <path clip-path="url(#pc5d2708d97)" d="M 852.390095 617 
L 859.402216 617 
L 859.402216 588.716732 
L 852.390095 588.716732 
z
" style="opacity:0.2;"/>
   </g>
   <g id="patch_191">
    <path clip-path="url(#pc5d2708d97)" d="M 861.155246 617 
L 868.167367 617 
L 868.167367 588.716732 
L 861.155246 588.716732 
z
" style="opacity:0.2;"/>
   </g>
   <g id="patch_192">
    <path clip-path="url(#pc5d2708d97)" d="M 869.920398 617 
L 876.932519 617 
L 876.932519 545.676977 
L 869.920398 545.676977 
z
" style="opacity:0.2;"/>
   </g>
   <g id="patch_193">
    <path clip-path="url(#pc5d2708d97)" d="M 878.685549 617 
L 885.69767 617 
L 885.69767 537.069026 
L 878.685549 537.069026 
z
" style="opacity:0.2;"/>
   </g>
   <g id="patch_194">
    <path clip-path="url(#pc5d2708d97)" d="M 887.450701 617 
L 894.462822 617 
L 894.462822 511.245173 
L 887.450701 511.245173 
z
" style="opacity:0.2;"/>
   </g>
   <g id="patch_195">
    <path clip-path="url(#pc5d2708d97)" d="M 896.215852 617 
L 903.227973 617 
L 903.227973 497.718392 
L 896.215852 497.718392 
z
" style="opacity:0.2;"/>
   </g>
   <g id="patch_196">
    <path clip-path="url(#pc5d2708d97)" d="M 904.981004 617 
L 911.993125 617 
L 911.993125 469.435125 
L 904.981004 469.435125 
z
" style="opacity:0.2;"/>
   </g>
   <g id="patch_197">
    <path clip-path="url(#pc5d2708d97)" d="M 913.746155 617 
L 920.758277 617 
L 920.758277 423.935955 
L 913.746155 423.935955 
z
" style="opacity:0.2;"/>
   </g>
   <g id="patch_198">
    <path clip-path="url(#pc5d2708d97)" d="M 922.511307 617 
L 929.523428 617 
L 929.523428 369.828834 
L 922.511307 369.828834 
z
" style="opacity:0.2;"/>
   </g>
   <g id="patch_199">
    <path clip-path="url(#pc5d2708d97)" d="M 931.276458 617 
L 938.28858 617 
L 938.28858 355.072346 
L 931.276458 355.072346 
z
" style="opacity:0.2;"/>
   </g>
   <g id="patch_200">
    <path clip-path="url(#pc5d2708d97)" d="M 940.04161 617 
L 947.053731 617 
L 947.053731 348.92381 
L 940.04161 348.92381 
z
" style="opacity:0.2;"/>
   </g>
   <g id="patch_201">
    <path clip-path="url(#pc5d2708d97)" d="M 948.806761 617 
L 955.818883 617 
L 955.818883 355.072346 
L 948.806761 355.072346 
z
" style="opacity:0.2;"/>
   </g>
   <g id="patch_202">
    <path clip-path="url(#pc5d2708d97)" d="M 957.571913 617 
L 964.584034 617 
L 964.584034 363.680297 
L 957.571913 363.680297 
z
" style="opacity:0.2;"/>
   </g>
   <g id="patch_203">
    <path clip-path="url(#pc5d2708d97)" d="M 966.337064 617 
L 973.349186 617 
L 973.349186 399.341809 
L 966.337064 399.341809 
z
" style="opacity:0.2;"/>
   </g>
   <g id="patch_204">
    <path clip-path="url(#pc5d2708d97)" d="M 975.102216 617 
L 982.114337 617 
L 982.114337 452.219222 
L 975.102216 452.219222 
z
" style="opacity:0.2;"/>
   </g>
   <g id="patch_205">
    <path clip-path="url(#pc5d2708d97)" d="M 983.867367 617 
L 990.879489 617 
L 990.879489 507.556051 
L 983.867367 507.556051 
z
" style="opacity:0.2;"/>
   </g>
   <g id="patch_206">
    <path clip-path="url(#pc5d2708d97)" d="M 992.632519 617 
L 999.64464 617 
L 999.64464 559.203757 
L 992.632519 559.203757 
z
" style="opacity:0.2;"/>
   </g>
   <g id="patch_207">
    <path clip-path="url(#pc5d2708d97)" d="M 1001.39767 617 
L 1008.409792 617 
L 1008.409792 575.189952 
L 1001.39767 575.189952 
z
" style="opacity:0.2;"/>
   </g>
   <g id="patch_208">
    <path clip-path="url(#pc5d2708d97)" d="M 1010.162822 617 
L 1017.174943 617 
L 1017.174943 602.243512 
L 1010.162822 602.243512 
z
" style="opacity:0.2;"/>
   </g>
   <g id="patch_209">
    <path clip-path="url(#pc5d2708d97)" d="M 1018.927973 617 
L 1025.940095 617 
L 1025.940095 602.243512 
L 1018.927973 602.243512 
z
" style="opacity:0.2;"/>
   </g>
   <g id="patch_210">
    <path clip-path="url(#pc5d2708d97)" d="M 1027.693125 617 
L 1034.705246 617 
L 1034.705246 613.310878 
L 1027.693125 613.310878 
z
" style="opacity:0.2;"/>
   </g>
   <g id="patch_211">
    <path clip-path="url(#pc5d2708d97)" d="M 1036.458277 617 
L 1043.470398 617 
L 1043.470398 612.081171 
L 1036.458277 612.081171 
z
" style="opacity:0.2;"/>
   </g>
   <g id="matplotlib.axis_7">
    <g id="xtick_21">
     <g id="line2d_41">
      <g>
       <use style="stroke:#000000;stroke-width:0.8;" x="606.089337" xlink:href="#ma3d72f1ce0" y="619"/>
      </g>
     </g>
     <g id="text_47">
      <!-- −3.0 -->
      <g transform="translate(593.947931 633.598437)scale(0.1 -0.1)">
       <use xlink:href="#DejaVuSans-8722"/>
       <use x="83.789062" xlink:href="#DejaVuSans-51"/>
       <use x="147.412109" xlink:href="#DejaVuSans-46"/>
       <use x="179.199219" xlink:href="#DejaVuSans-48"/>
      </g>
     </g>
    </g>
    <g id="xtick_22">
     <g id="line2d_42">
      <g>
       <use style="stroke:#000000;stroke-width:0.8;" x="686.8747" xlink:href="#ma3d72f1ce0" y="619"/>
      </g>
     </g>
     <g id="text_48">
      <!-- −2.5 -->
      <g transform="translate(674.733293 633.598437)scale(0.1 -0.1)">
       <use xlink:href="#DejaVuSans-8722"/>
       <use x="83.789062" xlink:href="#DejaVuSans-50"/>
       <use x="147.412109" xlink:href="#DejaVuSans-46"/>
       <use x="179.199219" xlink:href="#DejaVuSans-53"/>
      </g>
     </g>
    </g>
    <g id="xtick_23">
     <g id="line2d_43">
      <g>
       <use style="stroke:#000000;stroke-width:0.8;" x="767.660062" xlink:href="#ma3d72f1ce0" y="619"/>
      </g>
     </g>
     <g id="text_49">
      <!-- −2.0 -->
      <g transform="translate(755.518656 633.598437)scale(0.1 -0.1)">
       <use xlink:href="#DejaVuSans-8722"/>
       <use x="83.789062" xlink:href="#DejaVuSans-50"/>
       <use x="147.412109" xlink:href="#DejaVuSans-46"/>
       <use x="179.199219" xlink:href="#DejaVuSans-48"/>
      </g>
     </g>
    </g>
    <g id="xtick_24">
     <g id="line2d_44">
      <g>
       <use style="stroke:#000000;stroke-width:0.8;" x="848.445424" xlink:href="#ma3d72f1ce0" y="619"/>
      </g>
     </g>
     <g id="text_50">
      <!-- −1.5 -->
      <g transform="translate(836.304018 633.598437)scale(0.1 -0.1)">
       <use xlink:href="#DejaVuSans-8722"/>
       <use x="83.789062" xlink:href="#DejaVuSans-49"/>
       <use x="147.412109" xlink:href="#DejaVuSans-46"/>
       <use x="179.199219" xlink:href="#DejaVuSans-53"/>
      </g>
     </g>
    </g>
    <g id="xtick_25">
     <g id="line2d_45">
      <g>
       <use style="stroke:#000000;stroke-width:0.8;" x="929.230787" xlink:href="#ma3d72f1ce0" y="619"/>
      </g>
     </g>
     <g id="text_51">
      <!-- −1.0 -->
      <g transform="translate(917.08938 633.598437)scale(0.1 -0.1)">
       <use xlink:href="#DejaVuSans-8722"/>
       <use x="83.789062" xlink:href="#DejaVuSans-49"/>
       <use x="147.412109" xlink:href="#DejaVuSans-46"/>
       <use x="179.199219" xlink:href="#DejaVuSans-48"/>
      </g>
     </g>
    </g>
    <g id="xtick_26">
     <g id="line2d_46">
      <g>
       <use style="stroke:#000000;stroke-width:0.8;" x="1010.016149" xlink:href="#ma3d72f1ce0" y="619"/>
      </g>
     </g>
     <g id="text_52">
      <!-- −0.5 -->
      <g transform="translate(997.874743 633.598437)scale(0.1 -0.1)">
       <use xlink:href="#DejaVuSans-8722"/>
       <use x="83.789062" xlink:href="#DejaVuSans-48"/>
       <use x="147.412109" xlink:href="#DejaVuSans-46"/>
       <use x="179.199219" xlink:href="#DejaVuSans-53"/>
      </g>
     </g>
    </g>
    <g id="text_53">
     <!-- $\mathrm{log10}(\omega)$ -->
     <defs>
      <path d="M 21.390625 -1.421875 
Q 1.125 -1.421875 6.78125 27.59375 
Q 8.984375 39.0625 19.625 54.6875 
L 29.296875 54.6875 
Q 19.234375 39.0625 17 27.34375 
Q 12.796875 6.203125 23.734375 6.203125 
Q 33.84375 6.203125 38.71875 32.46875 
L 47.015625 32.46875 
Q 41.703125 6.0625 51.8125 6.203125 
Q 62.703125 6.296875 66.796875 27.34375 
Q 69.046875 39.0625 65.140625 54.6875 
L 74.8125 54.6875 
Q 79.296875 39.0625 77.09375 27.59375 
Q 71.53125 -1.46875 51.21875 -1.421875 
Q 37.9375 -1.375 39.109375 13.1875 
Q 34.28125 -1.421875 21.390625 -1.421875 
z
" id="DejaVuSans-Oblique-969"/>
     </defs>
     <g transform="translate(803.118125 647.278125)scale(0.1 -0.1)">
      <use transform="translate(0 0.015625)" xlink:href="#DejaVuSans-108"/>
      <use transform="translate(27.783203 0.015625)" xlink:href="#DejaVuSans-111"/>
      <use transform="translate(88.964844 0.015625)" xlink:href="#DejaVuSans-103"/>
      <use transform="translate(152.441406 0.015625)" xlink:href="#DejaVuSans-49"/>
      <use transform="translate(216.064453 0.015625)" xlink:href="#DejaVuSans-48"/>
      <use transform="translate(279.6875 0.015625)" xlink:href="#DejaVuSans-40"/>
      <use transform="translate(318.701172 0.015625)" xlink:href="#DejaVuSans-Oblique-969"/>
      <use transform="translate(402.441406 0.015625)" xlink:href="#DejaVuSans-41"/>
     </g>
    </g>
   </g>
   <g id="matplotlib.axis_8">
    <g id="ytick_21">
     <g id="line2d_47">
      <g>
       <use style="stroke:#000000;stroke-width:0.8;" x="583.140625" xlink:href="#m3332252bbc" y="617"/>
      </g>
     </g>
     <g id="text_54">
      <!-- 0 -->
      <g transform="translate(569.778125 620.799219)scale(0.1 -0.1)">
       <use xlink:href="#DejaVuSans-48"/>
      </g>
     </g>
    </g>
    <g id="ytick_22">
     <g id="line2d_48">
      <g>
       <use style="stroke:#000000;stroke-width:0.8;" x="583.140625" xlink:href="#m3332252bbc" y="555.514635"/>
      </g>
     </g>
     <g id="text_55">
      <!-- 50 -->
      <g transform="translate(563.415625 559.313854)scale(0.1 -0.1)">
       <use xlink:href="#DejaVuSans-53"/>
       <use x="63.623047" xlink:href="#DejaVuSans-48"/>
      </g>
     </g>
    </g>
    <g id="ytick_23">
     <g id="line2d_49">
      <g>
       <use style="stroke:#000000;stroke-width:0.8;" x="583.140625" xlink:href="#m3332252bbc" y="494.02927"/>
      </g>
     </g>
     <g id="text_56">
      <!-- 100 -->
      <g transform="translate(557.053125 497.828489)scale(0.1 -0.1)">
       <use xlink:href="#DejaVuSans-49"/>
       <use x="63.623047" xlink:href="#DejaVuSans-48"/>
       <use x="127.246094" xlink:href="#DejaVuSans-48"/>
      </g>
     </g>
    </g>
    <g id="ytick_24">
     <g id="line2d_50">
      <g>
       <use style="stroke:#000000;stroke-width:0.8;" x="583.140625" xlink:href="#m3332252bbc" y="432.543906"/>
      </g>
     </g>
     <g id="text_57">
      <!-- 150 -->
      <g transform="translate(557.053125 436.343124)scale(0.1 -0.1)">
       <use xlink:href="#DejaVuSans-49"/>
       <use x="63.623047" xlink:href="#DejaVuSans-53"/>
       <use x="127.246094" xlink:href="#DejaVuSans-48"/>
      </g>
     </g>
    </g>
    <g id="ytick_25">
     <g id="line2d_51">
      <g>
       <use style="stroke:#000000;stroke-width:0.8;" x="583.140625" xlink:href="#m3332252bbc" y="371.058541"/>
      </g>
     </g>
     <g id="text_58">
      <!-- 200 -->
      <g transform="translate(557.053125 374.85776)scale(0.1 -0.1)">
       <use xlink:href="#DejaVuSans-50"/>
       <use x="63.623047" xlink:href="#DejaVuSans-48"/>
       <use x="127.246094" xlink:href="#DejaVuSans-48"/>
      </g>
     </g>
    </g>
    <g id="text_59">
     <!-- Duplications -->
     <g transform="translate(550.973438 507.226406)rotate(-90)scale(0.1 -0.1)">
      <use xlink:href="#DejaVuSans-68"/>
      <use x="77.001953" xlink:href="#DejaVuSans-117"/>
      <use x="140.380859" xlink:href="#DejaVuSans-112"/>
      <use x="203.857422" xlink:href="#DejaVuSans-108"/>
      <use x="231.640625" xlink:href="#DejaVuSans-105"/>
      <use x="259.423828" xlink:href="#DejaVuSans-99"/>
      <use x="314.404297" xlink:href="#DejaVuSans-97"/>
      <use x="375.683594" xlink:href="#DejaVuSans-116"/>
      <use x="414.892578" xlink:href="#DejaVuSans-105"/>
      <use x="442.675781" xlink:href="#DejaVuSans-111"/>
      <use x="503.857422" xlink:href="#DejaVuSans-110"/>
      <use x="567.236328" xlink:href="#DejaVuSans-115"/>
     </g>
    </g>
   </g>
   <g id="patch_212">
    <path d="M 583.140625 617 
L 583.140625 335.52 
" style="fill:none;stroke:#000000;stroke-linecap:square;stroke-linejoin:miter;stroke-width:0.8;"/>
   </g>
   <g id="patch_213">
    <path d="M 585.140625 619 
L 1065.295625 619 
" style="fill:none;stroke:#000000;stroke-linecap:square;stroke-linejoin:miter;stroke-width:0.8;"/>
   </g>
  </g>
  <g id="text_60">
   <!-- egu-ugi.2500.rbh -->
   <defs>
    <path d="M 56.203125 29.59375 
L 56.203125 25.203125 
L 14.890625 25.203125 
Q 15.484375 15.921875 20.484375 11.0625 
Q 25.484375 6.203125 34.421875 6.203125 
Q 39.59375 6.203125 44.453125 7.46875 
Q 49.3125 8.734375 54.109375 11.28125 
L 54.109375 2.78125 
Q 49.265625 0.734375 44.1875 -0.34375 
Q 39.109375 -1.421875 33.890625 -1.421875 
Q 20.796875 -1.421875 13.15625 6.1875 
Q 5.515625 13.8125 5.515625 26.8125 
Q 5.515625 40.234375 12.765625 48.109375 
Q 20.015625 56 32.328125 56 
Q 43.359375 56 49.78125 48.890625 
Q 56.203125 41.796875 56.203125 29.59375 
z
M 47.21875 32.234375 
Q 47.125 39.59375 43.09375 43.984375 
Q 39.0625 48.390625 32.421875 48.390625 
Q 24.90625 48.390625 20.390625 44.140625 
Q 15.875 39.890625 15.1875 32.171875 
z
" id="DejaVuSans-101"/>
    <path d="M 4.890625 31.390625 
L 31.203125 31.390625 
L 31.203125 23.390625 
L 4.890625 23.390625 
z
" id="DejaVuSans-45"/>
    <path d="M 41.109375 46.296875 
Q 39.59375 47.171875 37.8125 47.578125 
Q 36.03125 48 33.890625 48 
Q 26.265625 48 22.1875 43.046875 
Q 18.109375 38.09375 18.109375 28.8125 
L 18.109375 0 
L 9.078125 0 
L 9.078125 54.6875 
L 18.109375 54.6875 
L 18.109375 46.1875 
Q 20.953125 51.171875 25.484375 53.578125 
Q 30.03125 56 36.53125 56 
Q 37.453125 56 38.578125 55.875 
Q 39.703125 55.765625 41.0625 55.515625 
z
" id="DejaVuSans-114"/>
    <path d="M 48.6875 27.296875 
Q 48.6875 37.203125 44.609375 42.84375 
Q 40.53125 48.484375 33.40625 48.484375 
Q 26.265625 48.484375 22.1875 42.84375 
Q 18.109375 37.203125 18.109375 27.296875 
Q 18.109375 17.390625 22.1875 11.75 
Q 26.265625 6.109375 33.40625 6.109375 
Q 40.53125 6.109375 44.609375 11.75 
Q 48.6875 17.390625 48.6875 27.296875 
z
M 18.109375 46.390625 
Q 20.953125 51.265625 25.265625 53.625 
Q 29.59375 56 35.59375 56 
Q 45.5625 56 51.78125 48.09375 
Q 58.015625 40.1875 58.015625 27.296875 
Q 58.015625 14.40625 51.78125 6.484375 
Q 45.5625 -1.421875 35.59375 -1.421875 
Q 29.59375 -1.421875 25.265625 0.953125 
Q 20.953125 3.328125 18.109375 8.203125 
L 18.109375 0 
L 9.078125 0 
L 9.078125 75.984375 
L 18.109375 75.984375 
z
" id="DejaVuSans-98"/>
    <path d="M 54.890625 33.015625 
L 54.890625 0 
L 45.90625 0 
L 45.90625 32.71875 
Q 45.90625 40.484375 42.875 44.328125 
Q 39.84375 48.1875 33.796875 48.1875 
Q 26.515625 48.1875 22.3125 43.546875 
Q 18.109375 38.921875 18.109375 30.90625 
L 18.109375 0 
L 9.078125 0 
L 9.078125 75.984375 
L 18.109375 75.984375 
L 18.109375 46.1875 
Q 21.34375 51.125 25.703125 53.5625 
Q 30.078125 56 35.796875 56 
Q 45.21875 56 50.046875 50.171875 
Q 54.890625 44.34375 54.890625 33.015625 
z
" id="DejaVuSans-104"/>
   </defs>
   <g transform="translate(484.187188 18.866925)scale(0.12 -0.12)">
    <use xlink:href="#DejaVuSans-101"/>
    <use x="61.523438" xlink:href="#DejaVuSans-103"/>
    <use x="125" xlink:href="#DejaVuSans-117"/>
    <use x="188.378906" xlink:href="#DejaVuSans-45"/>
    <use x="224.462891" xlink:href="#DejaVuSans-117"/>
    <use x="287.841797" xlink:href="#DejaVuSans-103"/>
    <use x="351.318359" xlink:href="#DejaVuSans-105"/>
    <use x="379.101562" xlink:href="#DejaVuSans-46"/>
    <use x="410.888672" xlink:href="#DejaVuSans-50"/>
    <use x="474.511719" xlink:href="#DejaVuSans-53"/>
    <use x="538.134766" xlink:href="#DejaVuSans-48"/>
    <use x="601.757812" xlink:href="#DejaVuSans-48"/>
    <use x="665.380859" xlink:href="#DejaVuSans-46"/>
    <use x="697.167969" xlink:href="#DejaVuSans-114"/>
    <use x="738.28125" xlink:href="#DejaVuSans-98"/>
    <use x="801.757812" xlink:href="#DejaVuSans-104"/>
   </g>
  </g>
 </g>
 <defs>
  <clipPath id="p89b771dbbf">
   <rect height="281.48" width="480.155" x="48.965625" y="7.2"/>
  </clipPath>
  <clipPath id="p557382b4d8">
   <rect height="281.48" width="480.155" x="585.140625" y="7.2"/>
  </clipPath>
  <clipPath id="pa705d95ac5">
   <rect height="281.48" width="480.155" x="48.965625" y="335.52"/>
  </clipPath>
  <clipPath id="pc5d2708d97">
   <rect height="281.48" width="480.155" x="585.140625" y="335.52"/>
  </clipPath>
 </defs>
</svg>
