<?xml version="1.0" encoding="utf-8"?>
<svg xmlns="http://www.w3.org/2000/svg" xmlns:xlink="http://www.w3.org/1999/xlink" width="600" height="400" viewBox="0 0 2400 1600">
<defs>
  <clipPath id="clip130">
    <rect x="0" y="0" width="2400" height="1600"/>
  </clipPath>
</defs>
<path clip-path="url(#clip130)" d="
M0 1600 L2400 1600 L2400 0 L0 0  Z
  " fill="#ffffff" fill-rule="evenodd" fill-opacity="1"/>
<defs>
  <clipPath id="clip131">
    <rect x="480" y="0" width="1681" height="1600"/>
  </clipPath>
</defs>
<path clip-path="url(#clip130)" d="
M232.899 1423.18 L2352.76 1423.18 L2352.76 47.2441 L232.899 47.2441  Z
  " fill="#ffffff" fill-rule="evenodd" fill-opacity="1"/>
<defs>
  <clipPath id="clip132">
    <rect x="232" y="47" width="2121" height="1377"/>
  </clipPath>
</defs>
<polyline clip-path="url(#clip132)" style="stroke:#000000; stroke-width:2; stroke-opacity:0.1; fill:none" points="
  292.895,1423.18 292.895,47.2441 
  "/>
<polyline clip-path="url(#clip132)" style="stroke:#000000; stroke-width:2; stroke-opacity:0.1; fill:none" points="
  792.861,1423.18 792.861,47.2441 
  "/>
<polyline clip-path="url(#clip132)" style="stroke:#000000; stroke-width:2; stroke-opacity:0.1; fill:none" points="
  1292.83,1423.18 1292.83,47.2441 
  "/>
<polyline clip-path="url(#clip132)" style="stroke:#000000; stroke-width:2; stroke-opacity:0.1; fill:none" points="
  1792.79,1423.18 1792.79,47.2441 
  "/>
<polyline clip-path="url(#clip132)" style="stroke:#000000; stroke-width:2; stroke-opacity:0.1; fill:none" points="
  2292.76,1423.18 2292.76,47.2441 
  "/>
<polyline clip-path="url(#clip130)" style="stroke:#000000; stroke-width:4; stroke-opacity:1; fill:none" points="
  232.899,1423.18 2352.76,1423.18 
  "/>
<polyline clip-path="url(#clip130)" style="stroke:#000000; stroke-width:4; stroke-opacity:1; fill:none" points="
  292.895,1423.18 292.895,1406.67 
  "/>
<polyline clip-path="url(#clip130)" style="stroke:#000000; stroke-width:4; stroke-opacity:1; fill:none" points="
  792.861,1423.18 792.861,1406.67 
  "/>
<polyline clip-path="url(#clip130)" style="stroke:#000000; stroke-width:4; stroke-opacity:1; fill:none" points="
  1292.83,1423.18 1292.83,1406.67 
  "/>
<polyline clip-path="url(#clip130)" style="stroke:#000000; stroke-width:4; stroke-opacity:1; fill:none" points="
  1792.79,1423.18 1792.79,1406.67 
  "/>
<polyline clip-path="url(#clip130)" style="stroke:#000000; stroke-width:4; stroke-opacity:1; fill:none" points="
  2292.76,1423.18 2292.76,1406.67 
  "/>
<path clip-path="url(#clip130)" d="M 0 0 M260.904 1452.37 Q257.293 1452.37 255.464 1455.94 Q253.659 1459.48 253.659 1466.61 Q253.659 1473.71 255.464 1477.28 Q257.293 1480.82 260.904 1480.82 Q264.538 1480.82 266.344 1477.28 Q268.172 1473.71 268.172 1466.61 Q268.172 1459.48 266.344 1455.94 Q264.538 1452.37 260.904 1452.37 M260.904 1448.67 Q266.714 1448.67 269.77 1453.27 Q272.848 1457.86 272.848 1466.61 Q272.848 1475.33 269.77 1479.94 Q266.714 1484.52 260.904 1484.52 Q255.094 1484.52 252.015 1479.94 Q248.96 1475.33 248.96 1466.61 Q248.96 1457.86 252.015 1453.27 Q255.094 1448.67 260.904 1448.67 Z" fill="#000000" fill-rule="evenodd" fill-opacity="1" /><path clip-path="url(#clip130)" d="M 0 0 M277.918 1477.97 L282.802 1477.97 L282.802 1483.85 L277.918 1483.85 L277.918 1477.97 Z" fill="#000000" fill-rule="evenodd" fill-opacity="1" /><path clip-path="url(#clip130)" d="M 0 0 M297.871 1452.37 Q294.26 1452.37 292.432 1455.94 Q290.626 1459.48 290.626 1466.61 Q290.626 1473.71 292.432 1477.28 Q294.26 1480.82 297.871 1480.82 Q301.506 1480.82 303.311 1477.28 Q305.14 1473.71 305.14 1466.61 Q305.14 1459.48 303.311 1455.94 Q301.506 1452.37 297.871 1452.37 M297.871 1448.67 Q303.682 1448.67 306.737 1453.27 Q309.816 1457.86 309.816 1466.61 Q309.816 1475.33 306.737 1479.94 Q303.682 1484.52 297.871 1484.52 Q292.061 1484.52 288.983 1479.94 Q285.927 1475.33 285.927 1466.61 Q285.927 1457.86 288.983 1453.27 Q292.061 1448.67 297.871 1448.67 Z" fill="#000000" fill-rule="evenodd" fill-opacity="1" /><path clip-path="url(#clip130)" d="M 0 0 M324.885 1452.37 Q321.274 1452.37 319.445 1455.94 Q317.64 1459.48 317.64 1466.61 Q317.64 1473.71 319.445 1477.28 Q321.274 1480.82 324.885 1480.82 Q328.519 1480.82 330.325 1477.28 Q332.154 1473.71 332.154 1466.61 Q332.154 1459.48 330.325 1455.94 Q328.519 1452.37 324.885 1452.37 M324.885 1448.67 Q330.695 1448.67 333.751 1453.27 Q336.83 1457.86 336.83 1466.61 Q336.83 1475.33 333.751 1479.94 Q330.695 1484.52 324.885 1484.52 Q319.075 1484.52 315.996 1479.94 Q312.941 1475.33 312.941 1466.61 Q312.941 1457.86 315.996 1453.27 Q319.075 1448.67 324.885 1448.67 Z" fill="#000000" fill-rule="evenodd" fill-opacity="1" /><path clip-path="url(#clip130)" d="M 0 0 M762.167 1452.37 Q758.556 1452.37 756.727 1455.94 Q754.921 1459.48 754.921 1466.61 Q754.921 1473.71 756.727 1477.28 Q758.556 1480.82 762.167 1480.82 Q765.801 1480.82 767.606 1477.28 Q769.435 1473.71 769.435 1466.61 Q769.435 1459.48 767.606 1455.94 Q765.801 1452.37 762.167 1452.37 M762.167 1448.67 Q767.977 1448.67 771.032 1453.27 Q774.111 1457.86 774.111 1466.61 Q774.111 1475.33 771.032 1479.94 Q767.977 1484.52 762.167 1484.52 Q756.356 1484.52 753.278 1479.94 Q750.222 1475.33 750.222 1466.61 Q750.222 1457.86 753.278 1453.27 Q756.356 1448.67 762.167 1448.67 Z" fill="#000000" fill-rule="evenodd" fill-opacity="1" /><path clip-path="url(#clip130)" d="M 0 0 M779.18 1477.97 L784.065 1477.97 L784.065 1483.85 L779.18 1483.85 L779.18 1477.97 Z" fill="#000000" fill-rule="evenodd" fill-opacity="1" /><path clip-path="url(#clip130)" d="M 0 0 M793.162 1479.92 L809.481 1479.92 L809.481 1483.85 L787.537 1483.85 L787.537 1479.92 Q790.199 1477.16 794.782 1472.53 Q799.389 1467.88 800.569 1466.54 Q802.815 1464.01 803.694 1462.28 Q804.597 1460.52 804.597 1458.83 Q804.597 1456.07 802.653 1454.34 Q800.731 1452.6 797.629 1452.6 Q795.43 1452.6 792.977 1453.37 Q790.546 1454.13 787.768 1455.68 L787.768 1450.96 Q790.592 1449.82 793.046 1449.25 Q795.5 1448.67 797.537 1448.67 Q802.907 1448.67 806.102 1451.35 Q809.296 1454.04 809.296 1458.53 Q809.296 1460.66 808.486 1462.58 Q807.699 1464.48 805.592 1467.07 Q805.014 1467.74 801.912 1470.96 Q798.81 1474.15 793.162 1479.92 Z" fill="#000000" fill-rule="evenodd" fill-opacity="1" /><path clip-path="url(#clip130)" d="M 0 0 M814.597 1449.29 L832.953 1449.29 L832.953 1453.23 L818.879 1453.23 L818.879 1461.7 Q819.898 1461.35 820.916 1461.19 Q821.935 1461 822.953 1461 Q828.74 1461 832.12 1464.18 Q835.5 1467.35 835.5 1472.76 Q835.5 1478.34 832.027 1481.44 Q828.555 1484.52 822.236 1484.52 Q820.06 1484.52 817.791 1484.15 Q815.546 1483.78 813.139 1483.04 L813.139 1478.34 Q815.222 1479.48 817.444 1480.03 Q819.666 1480.59 822.143 1480.59 Q826.148 1480.59 828.486 1478.48 Q830.824 1476.38 830.824 1472.76 Q830.824 1469.15 828.486 1467.05 Q826.148 1464.94 822.143 1464.94 Q820.268 1464.94 818.393 1465.36 Q816.541 1465.77 814.597 1466.65 L814.597 1449.29 Z" fill="#000000" fill-rule="evenodd" fill-opacity="1" /><path clip-path="url(#clip130)" d="M 0 0 M1261.33 1452.37 Q1257.72 1452.37 1255.89 1455.94 Q1254.09 1459.48 1254.09 1466.61 Q1254.09 1473.71 1255.89 1477.28 Q1257.72 1480.82 1261.33 1480.82 Q1264.97 1480.82 1266.77 1477.28 Q1268.6 1473.71 1268.6 1466.61 Q1268.6 1459.48 1266.77 1455.94 Q1264.97 1452.37 1261.33 1452.37 M1261.33 1448.67 Q1267.14 1448.67 1270.2 1453.27 Q1273.28 1457.86 1273.28 1466.61 Q1273.28 1475.33 1270.2 1479.94 Q1267.14 1484.52 1261.33 1484.52 Q1255.52 1484.52 1252.45 1479.94 Q1249.39 1475.33 1249.39 1466.61 Q1249.39 1457.86 1252.45 1453.27 Q1255.52 1448.67 1261.33 1448.67 Z" fill="#000000" fill-rule="evenodd" fill-opacity="1" /><path clip-path="url(#clip130)" d="M 0 0 M1278.35 1477.97 L1283.23 1477.97 L1283.23 1483.85 L1278.35 1483.85 L1278.35 1477.97 Z" fill="#000000" fill-rule="evenodd" fill-opacity="1" /><path clip-path="url(#clip130)" d="M 0 0 M1288.35 1449.29 L1306.7 1449.29 L1306.7 1453.23 L1292.63 1453.23 L1292.63 1461.7 Q1293.65 1461.35 1294.67 1461.19 Q1295.69 1461 1296.7 1461 Q1302.49 1461 1305.87 1464.18 Q1309.25 1467.35 1309.25 1472.76 Q1309.25 1478.34 1305.78 1481.44 Q1302.31 1484.52 1295.99 1484.52 Q1293.81 1484.52 1291.54 1484.15 Q1289.3 1483.78 1286.89 1483.04 L1286.89 1478.34 Q1288.97 1479.48 1291.2 1480.03 Q1293.42 1480.59 1295.89 1480.59 Q1299.9 1480.59 1302.24 1478.48 Q1304.57 1476.38 1304.57 1472.76 Q1304.57 1469.15 1302.24 1467.05 Q1299.9 1464.94 1295.89 1464.94 Q1294.02 1464.94 1292.14 1465.36 Q1290.29 1465.77 1288.35 1466.65 L1288.35 1449.29 Z" fill="#000000" fill-rule="evenodd" fill-opacity="1" /><path clip-path="url(#clip130)" d="M 0 0 M1324.32 1452.37 Q1320.71 1452.37 1318.88 1455.94 Q1317.07 1459.48 1317.07 1466.61 Q1317.07 1473.71 1318.88 1477.28 Q1320.71 1480.82 1324.32 1480.82 Q1327.95 1480.82 1329.76 1477.28 Q1331.59 1473.71 1331.59 1466.61 Q1331.59 1459.48 1329.76 1455.94 Q1327.95 1452.37 1324.32 1452.37 M1324.32 1448.67 Q1330.13 1448.67 1333.19 1453.27 Q1336.26 1457.86 1336.26 1466.61 Q1336.26 1475.33 1333.19 1479.94 Q1330.13 1484.52 1324.32 1484.52 Q1318.51 1484.52 1315.43 1479.94 Q1312.38 1475.33 1312.38 1466.61 Q1312.38 1457.86 1315.43 1453.27 Q1318.51 1448.67 1324.32 1448.67 Z" fill="#000000" fill-rule="evenodd" fill-opacity="1" /><path clip-path="url(#clip130)" d="M 0 0 M1761.75 1452.37 Q1758.14 1452.37 1756.31 1455.94 Q1754.51 1459.48 1754.51 1466.61 Q1754.51 1473.71 1756.31 1477.28 Q1758.14 1480.82 1761.75 1480.82 Q1765.39 1480.82 1767.19 1477.28 Q1769.02 1473.71 1769.02 1466.61 Q1769.02 1459.48 1767.19 1455.94 Q1765.39 1452.37 1761.75 1452.37 M1761.75 1448.67 Q1767.56 1448.67 1770.62 1453.27 Q1773.7 1457.86 1773.7 1466.61 Q1773.7 1475.33 1770.62 1479.94 Q1767.56 1484.52 1761.75 1484.52 Q1755.94 1484.52 1752.86 1479.94 Q1749.81 1475.33 1749.81 1466.61 Q1749.81 1457.86 1752.86 1453.27 Q1755.94 1448.67 1761.75 1448.67 Z" fill="#000000" fill-rule="evenodd" fill-opacity="1" /><path clip-path="url(#clip130)" d="M 0 0 M1778.77 1477.97 L1783.65 1477.97 L1783.65 1483.85 L1778.77 1483.85 L1778.77 1477.97 Z" fill="#000000" fill-rule="evenodd" fill-opacity="1" /><path clip-path="url(#clip130)" d="M 0 0 M1787.54 1449.29 L1809.76 1449.29 L1809.76 1451.28 L1797.21 1483.85 L1792.33 1483.85 L1804.14 1453.23 L1787.54 1453.23 L1787.54 1449.29 Z" fill="#000000" fill-rule="evenodd" fill-opacity="1" /><path clip-path="url(#clip130)" d="M 0 0 M1814.88 1449.29 L1833.23 1449.29 L1833.23 1453.23 L1819.16 1453.23 L1819.16 1461.7 Q1820.18 1461.35 1821.2 1461.19 Q1822.21 1461 1823.23 1461 Q1829.02 1461 1832.4 1464.18 Q1835.78 1467.35 1835.78 1472.76 Q1835.78 1478.34 1832.31 1481.44 Q1828.84 1484.52 1822.52 1484.52 Q1820.34 1484.52 1818.07 1484.15 Q1815.83 1483.78 1813.42 1483.04 L1813.42 1478.34 Q1815.5 1479.48 1817.72 1480.03 Q1819.95 1480.59 1822.42 1480.59 Q1826.43 1480.59 1828.77 1478.48 Q1831.1 1476.38 1831.1 1472.76 Q1831.1 1469.15 1828.77 1467.05 Q1826.43 1464.94 1822.42 1464.94 Q1820.55 1464.94 1818.67 1465.36 Q1816.82 1465.77 1814.88 1466.65 L1814.88 1449.29 Z" fill="#000000" fill-rule="evenodd" fill-opacity="1" /><path clip-path="url(#clip130)" d="M 0 0 M2251.15 1479.92 L2258.79 1479.92 L2258.79 1453.55 L2250.48 1455.22 L2250.48 1450.96 L2258.74 1449.29 L2263.42 1449.29 L2263.42 1479.92 L2271.06 1479.92 L2271.06 1483.85 L2251.15 1483.85 L2251.15 1479.92 Z" fill="#000000" fill-rule="evenodd" fill-opacity="1" /><path clip-path="url(#clip130)" d="M 0 0 M2276.13 1477.97 L2281.01 1477.97 L2281.01 1483.85 L2276.13 1483.85 L2276.13 1477.97 Z" fill="#000000" fill-rule="evenodd" fill-opacity="1" /><path clip-path="url(#clip130)" d="M 0 0 M2296.08 1452.37 Q2292.47 1452.37 2290.64 1455.94 Q2288.84 1459.48 2288.84 1466.61 Q2288.84 1473.71 2290.64 1477.28 Q2292.47 1480.82 2296.08 1480.82 Q2299.72 1480.82 2301.52 1477.28 Q2303.35 1473.71 2303.35 1466.61 Q2303.35 1459.48 2301.52 1455.94 Q2299.72 1452.37 2296.08 1452.37 M2296.08 1448.67 Q2301.89 1448.67 2304.95 1453.27 Q2308.03 1457.86 2308.03 1466.61 Q2308.03 1475.33 2304.95 1479.94 Q2301.89 1484.52 2296.08 1484.52 Q2290.27 1484.52 2287.19 1479.94 Q2284.14 1475.33 2284.14 1466.61 Q2284.14 1457.86 2287.19 1453.27 Q2290.27 1448.67 2296.08 1448.67 Z" fill="#000000" fill-rule="evenodd" fill-opacity="1" /><path clip-path="url(#clip130)" d="M 0 0 M2323.1 1452.37 Q2319.48 1452.37 2317.66 1455.94 Q2315.85 1459.48 2315.85 1466.61 Q2315.85 1473.71 2317.66 1477.28 Q2319.48 1480.82 2323.1 1480.82 Q2326.73 1480.82 2328.54 1477.28 Q2330.36 1473.71 2330.36 1466.61 Q2330.36 1459.48 2328.54 1455.94 Q2326.73 1452.37 2323.1 1452.37 M2323.1 1448.67 Q2328.91 1448.67 2331.96 1453.27 Q2335.04 1457.86 2335.04 1466.61 Q2335.04 1475.33 2331.96 1479.94 Q2328.91 1484.52 2323.1 1484.52 Q2317.29 1484.52 2314.21 1479.94 Q2311.15 1475.33 2311.15 1466.61 Q2311.15 1457.86 2314.21 1453.27 Q2317.29 1448.67 2323.1 1448.67 Z" fill="#000000" fill-rule="evenodd" fill-opacity="1" /><path clip-path="url(#clip130)" d="M 0 0 M1200.4 1537.81 L1200.4 1518.52 L1206.25 1518.52 L1206.25 1568.04 L1200.4 1568.04 L1200.4 1562.7 Q1198.55 1565.88 1195.72 1567.44 Q1192.92 1568.97 1188.97 1568.97 Q1182.51 1568.97 1178.44 1563.81 Q1174.39 1558.65 1174.39 1550.25 Q1174.39 1541.85 1178.44 1536.69 Q1182.51 1531.54 1188.97 1531.54 Q1192.92 1531.54 1195.72 1533.1 Q1198.55 1534.62 1200.4 1537.81 M1180.44 1550.25 Q1180.44 1556.71 1183.08 1560.4 Q1185.76 1564.07 1190.4 1564.07 Q1195.05 1564.07 1197.72 1560.4 Q1200.4 1556.71 1200.4 1550.25 Q1200.4 1543.79 1197.72 1540.13 Q1195.05 1536.44 1190.4 1536.44 Q1185.76 1536.44 1183.08 1540.13 Q1180.44 1543.79 1180.44 1550.25 Z" fill="#000000" fill-rule="evenodd" fill-opacity="1" /><path clip-path="url(#clip130)" d="M 0 0 M1212.4 1532.4 L1218.25 1532.4 L1218.25 1568.04 L1212.4 1568.04 L1212.4 1532.4 M1212.4 1518.52 L1218.25 1518.52 L1218.25 1525.93 L1212.4 1525.93 L1212.4 1518.52 Z" fill="#000000" fill-rule="evenodd" fill-opacity="1" /><path clip-path="url(#clip130)" d="M 0 0 M1247.12 1533.45 L1247.12 1538.98 Q1244.64 1537.71 1241.97 1537.07 Q1239.29 1536.44 1236.43 1536.44 Q1232.07 1536.44 1229.87 1537.77 Q1227.71 1539.11 1227.71 1541.79 Q1227.71 1543.82 1229.27 1545 Q1230.83 1546.15 1235.54 1547.2 L1237.54 1547.64 Q1243.78 1548.98 1246.39 1551.43 Q1249.03 1553.85 1249.03 1558.21 Q1249.03 1563.17 1245.08 1566.07 Q1241.17 1568.97 1234.29 1568.97 Q1231.43 1568.97 1228.31 1568.39 Q1225.22 1567.85 1221.79 1566.74 L1221.79 1560.69 Q1225.03 1562.38 1228.18 1563.24 Q1231.33 1564.07 1234.42 1564.07 Q1238.56 1564.07 1240.79 1562.66 Q1243.02 1561.23 1243.02 1558.65 Q1243.02 1556.27 1241.39 1554.99 Q1239.8 1553.72 1234.36 1552.54 L1232.32 1552.07 Q1226.88 1550.92 1224.46 1548.56 Q1222.04 1546.18 1222.04 1542.04 Q1222.04 1537.01 1225.61 1534.27 Q1229.17 1531.54 1235.73 1531.54 Q1238.97 1531.54 1241.84 1532.01 Q1244.7 1532.49 1247.12 1533.45 Z" fill="#000000" fill-rule="evenodd" fill-opacity="1" /><path clip-path="url(#clip130)" d="M 0 0 M1260.97 1522.27 L1260.97 1532.4 L1273.03 1532.4 L1273.03 1536.95 L1260.97 1536.95 L1260.97 1556.3 Q1260.97 1560.66 1262.14 1561.9 Q1263.35 1563.14 1267.01 1563.14 L1273.03 1563.14 L1273.03 1568.04 L1267.01 1568.04 Q1260.23 1568.04 1257.66 1565.53 Q1255.08 1562.98 1255.08 1556.3 L1255.08 1536.95 L1250.78 1536.95 L1250.78 1532.4 L1255.08 1532.4 L1255.08 1522.27 L1260.97 1522.27 Z" fill="#000000" fill-rule="evenodd" fill-opacity="1" /><path clip-path="url(#clip130)" d="M 0 0 M1295.37 1550.12 Q1288.28 1550.12 1285.54 1551.75 Q1282.8 1553.37 1282.8 1557.29 Q1282.8 1560.4 1284.84 1562.25 Q1286.91 1564.07 1290.44 1564.07 Q1295.31 1564.07 1298.24 1560.63 Q1301.2 1557.16 1301.2 1551.43 L1301.2 1550.12 L1295.37 1550.12 M1307.05 1547.71 L1307.05 1568.04 L1301.2 1568.04 L1301.2 1562.63 Q1299.19 1565.88 1296.2 1567.44 Q1293.21 1568.97 1288.88 1568.97 Q1283.41 1568.97 1280.16 1565.91 Q1276.94 1562.82 1276.94 1557.67 Q1276.94 1551.65 1280.96 1548.6 Q1285 1545.54 1292.99 1545.54 L1301.2 1545.54 L1301.2 1544.97 Q1301.2 1540.93 1298.52 1538.73 Q1295.88 1536.5 1291.08 1536.5 Q1288.02 1536.5 1285.12 1537.23 Q1282.23 1537.97 1279.55 1539.43 L1279.55 1534.02 Q1282.77 1532.78 1285.79 1532.17 Q1288.82 1531.54 1291.68 1531.54 Q1299.42 1531.54 1303.24 1535.55 Q1307.05 1539.56 1307.05 1547.71 Z" fill="#000000" fill-rule="evenodd" fill-opacity="1" /><path clip-path="url(#clip130)" d="M 0 0 M1342.83 1546.53 L1342.83 1568.04 L1336.97 1568.04 L1336.97 1546.72 Q1336.97 1541.66 1335 1539.14 Q1333.03 1536.63 1329.08 1536.63 Q1324.34 1536.63 1321.6 1539.65 Q1318.86 1542.68 1318.86 1547.9 L1318.86 1568.04 L1312.97 1568.04 L1312.97 1532.4 L1318.86 1532.4 L1318.86 1537.93 Q1320.96 1534.72 1323.8 1533.13 Q1326.66 1531.54 1330.38 1531.54 Q1336.53 1531.54 1339.68 1535.36 Q1342.83 1539.14 1342.83 1546.53 Z" fill="#000000" fill-rule="evenodd" fill-opacity="1" /><path clip-path="url(#clip130)" d="M 0 0 M1374.63 1533.76 L1374.63 1539.24 Q1372.14 1537.87 1369.63 1537.2 Q1367.15 1536.5 1364.6 1536.5 Q1358.9 1536.5 1355.75 1540.13 Q1352.6 1543.73 1352.6 1550.25 Q1352.6 1556.78 1355.75 1560.4 Q1358.9 1564 1364.6 1564 Q1367.15 1564 1369.63 1563.33 Q1372.14 1562.63 1374.63 1561.26 L1374.63 1566.68 Q1372.18 1567.82 1369.53 1568.39 Q1366.92 1568.97 1363.96 1568.97 Q1355.91 1568.97 1351.17 1563.91 Q1346.43 1558.85 1346.43 1550.25 Q1346.43 1541.53 1351.2 1536.53 Q1356.01 1531.54 1364.35 1531.54 Q1367.05 1531.54 1369.63 1532.11 Q1372.21 1532.65 1374.63 1533.76 Z" fill="#000000" fill-rule="evenodd" fill-opacity="1" /><path clip-path="url(#clip130)" d="M 0 0 M1411.26 1548.76 L1411.26 1551.62 L1384.33 1551.62 Q1384.72 1557.67 1387.96 1560.85 Q1391.24 1564 1397.07 1564 Q1400.44 1564 1403.59 1563.17 Q1406.77 1562.35 1409.89 1560.69 L1409.89 1566.23 Q1406.74 1567.57 1403.43 1568.27 Q1400.12 1568.97 1396.72 1568.97 Q1388.19 1568.97 1383.19 1564 Q1378.22 1559.04 1378.22 1550.57 Q1378.22 1541.82 1382.93 1536.69 Q1387.68 1531.54 1395.7 1531.54 Q1402.89 1531.54 1407.06 1536.18 Q1411.26 1540.8 1411.26 1548.76 M1405.4 1547.04 Q1405.34 1542.23 1402.7 1539.37 Q1400.09 1536.5 1395.76 1536.5 Q1390.86 1536.5 1387.9 1539.27 Q1384.97 1542.04 1384.53 1547.07 L1405.4 1547.04 Z" fill="#000000" fill-rule="evenodd" fill-opacity="1" /><polyline clip-path="url(#clip132)" style="stroke:#000000; stroke-width:2; stroke-opacity:0.1; fill:none" points="
  232.899,1322.06 2352.76,1322.06 
  "/>
<polyline clip-path="url(#clip132)" style="stroke:#000000; stroke-width:2; stroke-opacity:0.1; fill:none" points="
  232.899,1131.32 2352.76,1131.32 
  "/>
<polyline clip-path="url(#clip132)" style="stroke:#000000; stroke-width:2; stroke-opacity:0.1; fill:none" points="
  232.899,940.591 2352.76,940.591 
  "/>
<polyline clip-path="url(#clip132)" style="stroke:#000000; stroke-width:2; stroke-opacity:0.1; fill:none" points="
  232.899,749.859 2352.76,749.859 
  "/>
<polyline clip-path="url(#clip132)" style="stroke:#000000; stroke-width:2; stroke-opacity:0.1; fill:none" points="
  232.899,559.127 2352.76,559.127 
  "/>
<polyline clip-path="url(#clip132)" style="stroke:#000000; stroke-width:2; stroke-opacity:0.1; fill:none" points="
  232.899,368.395 2352.76,368.395 
  "/>
<polyline clip-path="url(#clip132)" style="stroke:#000000; stroke-width:2; stroke-opacity:0.1; fill:none" points="
  232.899,177.663 2352.76,177.663 
  "/>
<polyline clip-path="url(#clip130)" style="stroke:#000000; stroke-width:4; stroke-opacity:1; fill:none" points="
  232.899,1423.18 232.899,47.2441 
  "/>
<polyline clip-path="url(#clip130)" style="stroke:#000000; stroke-width:4; stroke-opacity:1; fill:none" points="
  232.899,1322.06 258.337,1322.06 
  "/>
<polyline clip-path="url(#clip130)" style="stroke:#000000; stroke-width:4; stroke-opacity:1; fill:none" points="
  232.899,1131.32 258.337,1131.32 
  "/>
<polyline clip-path="url(#clip130)" style="stroke:#000000; stroke-width:4; stroke-opacity:1; fill:none" points="
  232.899,940.591 258.337,940.591 
  "/>
<polyline clip-path="url(#clip130)" style="stroke:#000000; stroke-width:4; stroke-opacity:1; fill:none" points="
  232.899,749.859 258.337,749.859 
  "/>
<polyline clip-path="url(#clip130)" style="stroke:#000000; stroke-width:4; stroke-opacity:1; fill:none" points="
  232.899,559.127 258.337,559.127 
  "/>
<polyline clip-path="url(#clip130)" style="stroke:#000000; stroke-width:4; stroke-opacity:1; fill:none" points="
  232.899,368.395 258.337,368.395 
  "/>
<polyline clip-path="url(#clip130)" style="stroke:#000000; stroke-width:4; stroke-opacity:1; fill:none" points="
  232.899,177.663 258.337,177.663 
  "/>
<path clip-path="url(#clip130)" d="M 0 0 M114.885 1322.51 L144.561 1322.51 L144.561 1326.44 L114.885 1326.44 L114.885 1322.51 Z" fill="#000000" fill-rule="evenodd" fill-opacity="1" /><path clip-path="url(#clip130)" d="M 0 0 M153.658 1335.4 L169.977 1335.4 L169.977 1339.34 L148.033 1339.34 L148.033 1335.4 Q150.695 1332.65 155.278 1328.02 Q159.885 1323.36 161.065 1322.02 Q163.311 1319.5 164.19 1317.76 Q165.093 1316 165.093 1314.31 Q165.093 1311.56 163.149 1309.82 Q161.227 1308.09 158.126 1308.09 Q155.927 1308.09 153.473 1308.85 Q151.042 1309.61 148.265 1311.16 L148.265 1306.44 Q151.089 1305.31 153.542 1304.73 Q155.996 1304.15 158.033 1304.15 Q163.403 1304.15 166.598 1306.84 Q169.792 1309.52 169.792 1314.01 Q169.792 1316.14 168.982 1318.06 Q168.195 1319.96 166.089 1322.55 Q165.51 1323.22 162.408 1326.44 Q159.306 1329.64 153.658 1335.4 Z" fill="#000000" fill-rule="evenodd" fill-opacity="1" /><path clip-path="url(#clip130)" d="M 0 0 M185.047 1322.92 Q181.713 1322.92 179.792 1324.71 Q177.894 1326.49 177.894 1329.61 Q177.894 1332.74 179.792 1334.52 Q181.713 1336.3 185.047 1336.3 Q188.38 1336.3 190.301 1334.52 Q192.223 1332.72 192.223 1329.61 Q192.223 1326.49 190.301 1324.71 Q188.403 1322.92 185.047 1322.92 M180.371 1320.93 Q177.362 1320.19 175.672 1318.13 Q174.005 1316.07 174.005 1313.11 Q174.005 1308.97 176.945 1306.56 Q179.908 1304.15 185.047 1304.15 Q190.209 1304.15 193.149 1306.56 Q196.088 1308.97 196.088 1313.11 Q196.088 1316.07 194.399 1318.13 Q192.732 1320.19 189.746 1320.93 Q193.125 1321.72 195 1324.01 Q196.899 1326.3 196.899 1329.61 Q196.899 1334.64 193.82 1337.32 Q190.764 1340.01 185.047 1340.01 Q179.329 1340.01 176.251 1337.32 Q173.195 1334.64 173.195 1329.61 Q173.195 1326.3 175.093 1324.01 Q176.991 1321.72 180.371 1320.93 M178.658 1313.55 Q178.658 1316.23 180.325 1317.74 Q182.014 1319.24 185.047 1319.24 Q188.056 1319.24 189.746 1317.74 Q191.459 1316.23 191.459 1313.55 Q191.459 1310.86 189.746 1309.36 Q188.056 1307.85 185.047 1307.85 Q182.014 1307.85 180.325 1309.36 Q178.658 1310.86 178.658 1313.55 Z" fill="#000000" fill-rule="evenodd" fill-opacity="1" /><path clip-path="url(#clip130)" d="M 0 0 M114.631 1131.77 L144.306 1131.77 L144.306 1135.71 L114.631 1135.71 L114.631 1131.77 Z" fill="#000000" fill-rule="evenodd" fill-opacity="1" /><path clip-path="url(#clip130)" d="M 0 0 M153.403 1144.67 L169.723 1144.67 L169.723 1148.6 L147.778 1148.6 L147.778 1144.67 Q150.441 1141.91 155.024 1137.28 Q159.63 1132.63 160.811 1131.29 Q163.056 1128.77 163.936 1127.03 Q164.839 1125.27 164.839 1123.58 Q164.839 1120.83 162.894 1119.09 Q160.973 1117.35 157.871 1117.35 Q155.672 1117.35 153.218 1118.12 Q150.788 1118.88 148.01 1120.43 L148.01 1115.71 Q150.834 1114.58 153.288 1114 Q155.741 1113.42 157.778 1113.42 Q163.149 1113.42 166.343 1116.1 Q169.538 1118.79 169.538 1123.28 Q169.538 1125.41 168.727 1127.33 Q167.94 1129.23 165.834 1131.82 Q165.255 1132.49 162.153 1135.71 Q159.052 1138.9 153.403 1144.67 Z" fill="#000000" fill-rule="evenodd" fill-opacity="1" /><path clip-path="url(#clip130)" d="M 0 0 M185.371 1129.46 Q182.223 1129.46 180.371 1131.61 Q178.542 1133.77 178.542 1137.52 Q178.542 1141.24 180.371 1143.42 Q182.223 1145.57 185.371 1145.57 Q188.519 1145.57 190.348 1143.42 Q192.2 1141.24 192.2 1137.52 Q192.2 1133.77 190.348 1131.61 Q188.519 1129.46 185.371 1129.46 M194.653 1114.81 L194.653 1119.07 Q192.894 1118.23 191.088 1117.79 Q189.306 1117.35 187.547 1117.35 Q182.917 1117.35 180.464 1120.48 Q178.033 1123.6 177.686 1129.92 Q179.051 1127.91 181.112 1126.84 Q183.172 1125.76 185.649 1125.76 Q190.857 1125.76 193.866 1128.93 Q196.899 1132.08 196.899 1137.52 Q196.899 1142.84 193.75 1146.06 Q190.602 1149.27 185.371 1149.27 Q179.376 1149.27 176.204 1144.69 Q173.033 1140.08 173.033 1131.36 Q173.033 1123.16 176.922 1118.3 Q180.811 1113.42 187.362 1113.42 Q189.121 1113.42 190.903 1113.77 Q192.709 1114.11 194.653 1114.81 Z" fill="#000000" fill-rule="evenodd" fill-opacity="1" /><path clip-path="url(#clip130)" d="M 0 0 M114.306 941.043 L143.982 941.043 L143.982 944.978 L114.306 944.978 L114.306 941.043 Z" fill="#000000" fill-rule="evenodd" fill-opacity="1" /><path clip-path="url(#clip130)" d="M 0 0 M153.079 953.936 L169.399 953.936 L169.399 957.871 L147.454 957.871 L147.454 953.936 Q150.116 951.181 154.7 946.552 Q159.306 941.899 160.487 940.557 Q162.732 938.033 163.612 936.297 Q164.515 934.538 164.515 932.848 Q164.515 930.094 162.57 928.358 Q160.649 926.621 157.547 926.621 Q155.348 926.621 152.894 927.385 Q150.464 928.149 147.686 929.7 L147.686 924.978 Q150.51 923.844 152.964 923.265 Q155.417 922.686 157.454 922.686 Q162.825 922.686 166.019 925.371 Q169.214 928.057 169.214 932.547 Q169.214 934.677 168.403 936.598 Q167.616 938.496 165.51 941.089 Q164.931 941.76 161.829 944.978 Q158.728 948.172 153.079 953.936 Z" fill="#000000" fill-rule="evenodd" fill-opacity="1" /><path clip-path="url(#clip130)" d="M 0 0 M187.315 927.385 L175.51 945.834 L187.315 945.834 L187.315 927.385 M186.088 923.311 L191.968 923.311 L191.968 945.834 L196.899 945.834 L196.899 949.723 L191.968 949.723 L191.968 957.871 L187.315 957.871 L187.315 949.723 L171.714 949.723 L171.714 945.209 L186.088 923.311 Z" fill="#000000" fill-rule="evenodd" fill-opacity="1" /><path clip-path="url(#clip130)" d="M 0 0 M116.39 750.31 L146.066 750.31 L146.066 754.246 L116.39 754.246 L116.39 750.31 Z" fill="#000000" fill-rule="evenodd" fill-opacity="1" /><path clip-path="url(#clip130)" d="M 0 0 M155.163 763.204 L171.482 763.204 L171.482 767.139 L149.538 767.139 L149.538 763.204 Q152.2 760.449 156.783 755.82 Q161.39 751.167 162.57 749.824 Q164.815 747.301 165.695 745.565 Q166.598 743.806 166.598 742.116 Q166.598 739.361 164.653 737.625 Q162.732 735.889 159.63 735.889 Q157.431 735.889 154.978 736.653 Q152.547 737.417 149.769 738.968 L149.769 734.246 Q152.593 733.112 155.047 732.533 Q157.501 731.954 159.538 731.954 Q164.908 731.954 168.102 734.639 Q171.297 737.324 171.297 741.815 Q171.297 743.945 170.487 745.866 Q169.7 747.764 167.593 750.357 Q167.015 751.028 163.913 754.246 Q160.811 757.44 155.163 763.204 Z" fill="#000000" fill-rule="evenodd" fill-opacity="1" /><path clip-path="url(#clip130)" d="M 0 0 M180.579 763.204 L196.899 763.204 L196.899 767.139 L174.954 767.139 L174.954 763.204 Q177.616 760.449 182.2 755.82 Q186.806 751.167 187.987 749.824 Q190.232 747.301 191.112 745.565 Q192.014 743.806 192.014 742.116 Q192.014 739.361 190.07 737.625 Q188.149 735.889 185.047 735.889 Q182.848 735.889 180.394 736.653 Q177.964 737.417 175.186 738.968 L175.186 734.246 Q178.01 733.112 180.464 732.533 Q182.917 731.954 184.954 731.954 Q190.325 731.954 193.519 734.639 Q196.713 737.324 196.713 741.815 Q196.713 743.945 195.903 745.866 Q195.116 747.764 193.01 750.357 Q192.431 751.028 189.329 754.246 Q186.227 757.44 180.579 763.204 Z" fill="#000000" fill-rule="evenodd" fill-opacity="1" /><path clip-path="url(#clip130)" d="M 0 0 M114.793 559.578 L144.468 559.578 L144.468 563.513 L114.793 563.513 L114.793 559.578 Z" fill="#000000" fill-rule="evenodd" fill-opacity="1" /><path clip-path="url(#clip130)" d="M 0 0 M153.566 572.472 L169.885 572.472 L169.885 576.407 L147.941 576.407 L147.941 572.472 Q150.603 569.717 155.186 565.088 Q159.792 560.435 160.973 559.092 Q163.218 556.569 164.098 554.833 Q165.001 553.074 165.001 551.384 Q165.001 548.629 163.056 546.893 Q161.135 545.157 158.033 545.157 Q155.834 545.157 153.38 545.921 Q150.95 546.685 148.172 548.236 L148.172 543.514 Q150.996 542.379 153.45 541.801 Q155.903 541.222 157.94 541.222 Q163.311 541.222 166.505 543.907 Q169.7 546.592 169.7 551.083 Q169.7 553.213 168.889 555.134 Q168.102 557.032 165.996 559.625 Q165.417 560.296 162.315 563.513 Q159.214 566.708 153.566 572.472 Z" fill="#000000" fill-rule="evenodd" fill-opacity="1" /><path clip-path="url(#clip130)" d="M 0 0 M184.954 544.926 Q181.343 544.926 179.514 548.49 Q177.709 552.032 177.709 559.162 Q177.709 566.268 179.514 569.833 Q181.343 573.375 184.954 573.375 Q188.588 573.375 190.394 569.833 Q192.223 566.268 192.223 559.162 Q192.223 552.032 190.394 548.49 Q188.588 544.926 184.954 544.926 M184.954 541.222 Q190.764 541.222 193.82 545.828 Q196.899 550.412 196.899 559.162 Q196.899 567.888 193.82 572.495 Q190.764 577.078 184.954 577.078 Q179.144 577.078 176.065 572.495 Q173.01 567.888 173.01 559.162 Q173.01 550.412 176.065 545.828 Q179.144 541.222 184.954 541.222 Z" fill="#000000" fill-rule="evenodd" fill-opacity="1" /><path clip-path="url(#clip130)" d="M 0 0 M114.515 368.846 L144.191 368.846 L144.191 372.781 L114.515 372.781 L114.515 368.846 Z" fill="#000000" fill-rule="evenodd" fill-opacity="1" /><path clip-path="url(#clip130)" d="M 0 0 M150.07 381.74 L157.709 381.74 L157.709 355.374 L149.399 357.041 L149.399 352.781 L157.663 351.115 L162.339 351.115 L162.339 381.74 L169.977 381.74 L169.977 385.675 L150.07 385.675 L150.07 381.74 Z" fill="#000000" fill-rule="evenodd" fill-opacity="1" /><path clip-path="url(#clip130)" d="M 0 0 M185.047 369.263 Q181.713 369.263 179.792 371.045 Q177.894 372.828 177.894 375.953 Q177.894 379.078 179.792 380.86 Q181.713 382.642 185.047 382.642 Q188.38 382.642 190.301 380.86 Q192.223 379.054 192.223 375.953 Q192.223 372.828 190.301 371.045 Q188.403 369.263 185.047 369.263 M180.371 367.272 Q177.362 366.531 175.672 364.471 Q174.005 362.411 174.005 359.448 Q174.005 355.305 176.945 352.897 Q179.908 350.49 185.047 350.49 Q190.209 350.49 193.149 352.897 Q196.088 355.305 196.088 359.448 Q196.088 362.411 194.399 364.471 Q192.732 366.531 189.746 367.272 Q193.125 368.059 195 370.351 Q196.899 372.642 196.899 375.953 Q196.899 380.976 193.82 383.661 Q190.764 386.346 185.047 386.346 Q179.329 386.346 176.251 383.661 Q173.195 380.976 173.195 375.953 Q173.195 372.642 175.093 370.351 Q176.991 368.059 180.371 367.272 M178.658 359.888 Q178.658 362.573 180.325 364.078 Q182.014 365.582 185.047 365.582 Q188.056 365.582 189.746 364.078 Q191.459 362.573 191.459 359.888 Q191.459 357.203 189.746 355.698 Q188.056 354.193 185.047 354.193 Q182.014 354.193 180.325 355.698 Q178.658 357.203 178.658 359.888 Z" fill="#000000" fill-rule="evenodd" fill-opacity="1" /><path clip-path="url(#clip130)" d="M 0 0 M114.26 178.114 L143.936 178.114 L143.936 182.049 L114.26 182.049 L114.26 178.114 Z" fill="#000000" fill-rule="evenodd" fill-opacity="1" /><path clip-path="url(#clip130)" d="M 0 0 M149.816 191.007 L157.454 191.007 L157.454 164.642 L149.144 166.308 L149.144 162.049 L157.408 160.383 L162.084 160.383 L162.084 191.007 L169.723 191.007 L169.723 194.943 L149.816 194.943 L149.816 191.007 Z" fill="#000000" fill-rule="evenodd" fill-opacity="1" /><path clip-path="url(#clip130)" d="M 0 0 M185.371 175.799 Q182.223 175.799 180.371 177.952 Q178.542 180.105 178.542 183.855 Q178.542 187.582 180.371 189.757 Q182.223 191.91 185.371 191.91 Q188.519 191.91 190.348 189.757 Q192.2 187.582 192.2 183.855 Q192.2 180.105 190.348 177.952 Q188.519 175.799 185.371 175.799 M194.653 161.146 L194.653 165.406 Q192.894 164.572 191.088 164.133 Q189.306 163.693 187.547 163.693 Q182.917 163.693 180.464 166.818 Q178.033 169.943 177.686 176.262 Q179.051 174.248 181.112 173.183 Q183.172 172.096 185.649 172.096 Q190.857 172.096 193.866 175.267 Q196.899 178.415 196.899 183.855 Q196.899 189.179 193.75 192.396 Q190.602 195.614 185.371 195.614 Q179.376 195.614 176.204 191.031 Q173.033 186.424 173.033 177.697 Q173.033 169.503 176.922 164.642 Q180.811 159.758 187.362 159.758 Q189.121 159.758 190.903 160.105 Q192.709 160.452 194.653 161.146 Z" fill="#000000" fill-rule="evenodd" fill-opacity="1" /><path clip-path="url(#clip130)" d="M 0 0 M14.479 916.062 L14.479 910.205 L64.0042 910.205 L64.0042 916.062 L14.479 916.062 Z" fill="#000000" fill-rule="evenodd" fill-opacity="1" /><path clip-path="url(#clip130)" d="M 0 0 M32.4621 890.249 Q32.4621 894.959 36.1542 897.697 Q39.8145 900.434 46.212 900.434 Q52.6095 900.434 56.3017 897.728 Q59.9619 894.991 59.9619 890.249 Q59.9619 885.57 56.2698 882.833 Q52.5777 880.095 46.212 880.095 Q39.8781 880.095 36.186 882.833 Q32.4621 885.57 32.4621 890.249 M27.4968 890.249 Q27.4968 882.61 32.4621 878.249 Q37.4273 873.889 46.212 873.889 Q54.9649 873.889 59.9619 878.249 Q64.9272 882.61 64.9272 890.249 Q64.9272 897.919 59.9619 902.28 Q54.9649 906.609 46.212 906.609 Q37.4273 906.609 32.4621 902.28 Q27.4968 897.919 27.4968 890.249 Z" fill="#000000" fill-rule="evenodd" fill-opacity="1" /><path clip-path="url(#clip130)" d="M 0 0 M45.7664 844.288 Q39.4007 844.288 35.8996 846.93 Q32.3984 849.54 32.3984 854.283 Q32.3984 858.993 35.8996 861.635 Q39.4007 864.245 45.7664 864.245 Q52.1003 864.245 55.6014 861.635 Q59.1026 858.993 59.1026 854.283 Q59.1026 849.54 55.6014 846.93 Q52.1003 844.288 45.7664 844.288 M59.58 838.432 Q68.683 838.432 73.1071 842.474 Q77.5631 846.516 77.5631 854.855 Q77.5631 857.943 77.0857 860.68 Q76.6401 863.417 75.6852 865.995 L69.9879 865.995 Q71.3884 863.417 72.0568 860.903 Q72.7252 858.388 72.7252 855.778 Q72.7252 850.017 69.7015 847.153 Q66.7096 844.288 60.6303 844.288 L57.7339 844.288 Q60.885 846.103 62.4446 848.935 Q64.0042 851.768 64.0042 855.715 Q64.0042 862.271 59.0071 866.282 Q54.01 870.292 45.7664 870.292 Q37.491 870.292 32.4939 866.282 Q27.4968 862.271 27.4968 855.715 Q27.4968 851.768 29.0564 848.935 Q30.616 846.103 33.7671 844.288 L28.3562 844.288 L28.3562 838.432 L59.58 838.432 Z" fill="#000000" fill-rule="evenodd" fill-opacity="1" /><path clip-path="url(#clip130)" d="M 0 0 M43.5384 835.249 L43.5384 818.093 L48.7583 818.093 L48.7583 835.249 L43.5384 835.249 Z" fill="#000000" fill-rule="evenodd" fill-opacity="1" /><path clip-path="url(#clip130)" d="M 0 0 M14.479 811.951 L14.479 806.094 L64.0042 806.094 L64.0042 811.951 L14.479 811.951 Z" fill="#000000" fill-rule="evenodd" fill-opacity="1" /><path clip-path="url(#clip130)" d="M 0 0 M28.3562 799.951 L28.3562 794.095 L64.0042 794.095 L64.0042 799.951 L28.3562 799.951 M14.479 799.951 L14.479 794.095 L21.895 794.095 L21.895 799.951 L14.479 799.951 Z" fill="#000000" fill-rule="evenodd" fill-opacity="1" /><path clip-path="url(#clip130)" d="M 0 0 M14.479 788.175 L14.479 782.286 L43.7294 782.286 L28.3562 764.813 L28.3562 757.333 L45.0344 776.239 L64.0042 756.537 L64.0042 764.176 L46.5939 782.286 L64.0042 782.286 L64.0042 788.175 L14.479 788.175 Z" fill="#000000" fill-rule="evenodd" fill-opacity="1" /><path clip-path="url(#clip130)" d="M 0 0 M44.7161 722.226 L47.5806 722.226 L47.5806 749.153 Q53.6281 748.771 56.8109 745.524 Q59.9619 742.246 59.9619 736.421 Q59.9619 733.048 59.1344 729.897 Q58.3069 726.714 56.6518 723.595 L62.1899 723.595 Q63.5267 726.746 64.227 730.056 Q64.9272 733.366 64.9272 736.772 Q64.9272 745.302 59.9619 750.299 Q54.9967 755.264 46.5303 755.264 Q37.7774 755.264 32.6531 750.553 Q27.4968 745.811 27.4968 737.79 Q27.4968 730.597 32.1438 726.427 Q36.7589 722.226 44.7161 722.226 M42.9973 728.082 Q38.1912 728.146 35.3266 730.788 Q32.4621 733.398 32.4621 737.726 Q32.4621 742.628 35.2312 745.588 Q38.0002 748.516 43.0292 748.962 L42.9973 728.082 Z" fill="#000000" fill-rule="evenodd" fill-opacity="1" /><path clip-path="url(#clip130)" d="M 0 0 M14.479 716.083 L14.479 710.227 L64.0042 710.227 L64.0042 716.083 L14.479 716.083 Z" fill="#000000" fill-rule="evenodd" fill-opacity="1" /><path clip-path="url(#clip130)" d="M 0 0 M28.3562 704.084 L28.3562 698.227 L64.0042 698.227 L64.0042 704.084 L28.3562 704.084 M14.479 704.084 L14.479 698.227 L21.895 698.227 L21.895 704.084 L14.479 704.084 Z" fill="#000000" fill-rule="evenodd" fill-opacity="1" /><path clip-path="url(#clip130)" d="M 0 0 M42.4881 662.452 L64.0042 662.452 L64.0042 668.308 L42.679 668.308 Q37.6183 668.308 35.1038 670.282 Q32.5894 672.255 32.5894 676.202 Q32.5894 680.944 35.6131 683.682 Q38.6368 686.419 43.8567 686.419 L64.0042 686.419 L64.0042 692.307 L14.479 692.307 L14.479 686.419 L33.8944 686.419 Q30.6797 684.318 29.0883 681.485 Q27.4968 678.621 27.4968 674.897 Q27.4968 668.754 31.3163 665.603 Q35.1038 662.452 42.4881 662.452 Z" fill="#000000" fill-rule="evenodd" fill-opacity="1" /><path clip-path="url(#clip130)" d="M 0 0 M32.4621 642.495 Q32.4621 647.206 36.1542 649.943 Q39.8145 652.681 46.212 652.681 Q52.6095 652.681 56.3017 649.975 Q59.9619 647.238 59.9619 642.495 Q59.9619 637.817 56.2698 635.079 Q52.5777 632.342 46.212 632.342 Q39.8781 632.342 36.186 635.079 Q32.4621 637.817 32.4621 642.495 M27.4968 642.495 Q27.4968 634.857 32.4621 630.496 Q37.4273 626.136 46.212 626.136 Q54.9649 626.136 59.9619 630.496 Q64.9272 634.857 64.9272 642.495 Q64.9272 650.166 59.9619 654.527 Q54.9649 658.855 46.212 658.855 Q37.4273 658.855 32.4621 654.527 Q27.4968 650.166 27.4968 642.495 Z" fill="#000000" fill-rule="evenodd" fill-opacity="1" /><path clip-path="url(#clip130)" d="M 0 0 M32.4621 606.179 Q32.4621 610.89 36.1542 613.627 Q39.8145 616.364 46.212 616.364 Q52.6095 616.364 56.3017 613.659 Q59.9619 610.922 59.9619 606.179 Q59.9619 601.5 56.2698 598.763 Q52.5777 596.026 46.212 596.026 Q39.8781 596.026 36.186 598.763 Q32.4621 601.5 32.4621 606.179 M27.4968 606.179 Q27.4968 598.54 32.4621 594.18 Q37.4273 589.819 46.212 589.819 Q54.9649 589.819 59.9619 594.18 Q64.9272 598.54 64.9272 606.179 Q64.9272 613.85 59.9619 618.21 Q54.9649 622.539 46.212 622.539 Q37.4273 622.539 32.4621 618.21 Q27.4968 613.85 27.4968 606.179 Z" fill="#000000" fill-rule="evenodd" fill-opacity="1" /><path clip-path="url(#clip130)" d="M 0 0 M33.7671 560.219 L14.479 560.219 L14.479 554.362 L64.0042 554.362 L64.0042 560.219 L58.657 560.219 Q61.8398 562.065 63.3994 564.897 Q64.9272 567.698 64.9272 571.645 Q64.9272 578.106 59.771 582.18 Q54.6147 586.223 46.212 586.223 Q37.8093 586.223 32.6531 582.18 Q27.4968 578.106 27.4968 571.645 Q27.4968 567.698 29.0564 564.897 Q30.5842 562.065 33.7671 560.219 M46.212 580.175 Q52.6732 580.175 56.3653 577.533 Q60.0256 574.86 60.0256 570.213 Q60.0256 565.566 56.3653 562.892 Q52.6732 560.219 46.212 560.219 Q39.7508 560.219 36.0905 562.892 Q32.3984 565.566 32.3984 570.213 Q32.3984 574.86 36.0905 577.533 Q39.7508 580.175 46.212 580.175 Z" fill="#000000" fill-rule="evenodd" fill-opacity="1" /><polyline clip-path="url(#clip132)" style="stroke:#000000; stroke-width:4; stroke-opacity:1; fill:none" points="
  312.893,1384.24 332.892,1066.38 352.891,885.661 372.889,761.064 392.888,667.201 412.886,592.763 432.885,531.718 452.884,480.464 472.882,436.679 492.881,398.777 
  512.88,365.626 532.878,336.391 552.877,310.438 572.876,287.273 592.874,266.506 612.873,247.82 632.872,230.959 652.87,215.708 672.869,201.889 692.868,189.349 
  712.866,177.961 732.865,167.611 752.864,158.205 772.862,149.658 792.861,141.895 812.86,134.853 832.858,128.472 852.857,122.702 872.856,117.496 892.854,112.813 
  912.853,108.615 932.851,104.869 952.85,101.544 972.849,98.6122 992.847,96.0475 1012.85,93.8269 1032.84,91.9288 1052.84,90.3334 1072.84,89.0225 1092.84,87.9792 
  1112.84,87.1879 1132.84,86.634 1152.84,86.3041 1172.84,86.1857 1192.83,86.2669 1212.83,86.5369 1232.83,86.9853 1252.83,87.6026 1272.83,88.3798 1292.83,89.3083 
  1312.83,90.3803 1332.82,91.5881 1352.82,92.9247 1372.82,94.3833 1392.82,95.9578 1412.82,97.642 1432.82,99.4303 1452.82,101.317 1472.82,103.298 1492.81,105.368 
  1512.81,107.521 1532.81,109.755 1552.81,112.064 1572.81,114.444 1592.81,116.893 1612.81,119.406 1632.8,121.979 1652.8,124.61 1672.8,127.296 1692.8,130.033 
  1712.8,132.818 1732.8,135.649 1752.8,138.523 1772.79,141.437 1792.79,144.39 1812.79,147.378 1832.79,150.4 1852.79,153.454 1872.79,156.536 1892.79,159.646 
  1912.79,162.782 1932.78,165.941 1952.78,169.122 1972.78,172.323 1992.78,175.543 2012.78,178.78 2032.78,182.032 2052.78,185.298 2072.77,188.577 2092.77,191.867 
  2112.77,195.168 2132.77,198.477 2152.77,201.793 2172.77,205.116 2192.77,208.445 2212.77,211.777 2232.76,215.113 2252.76,218.451 2272.76,221.79 2292.76,225.129 
  
  "/>
</svg>
