<?xml version="1.0" encoding="UTF-8" standalone="no"?>
<!-- Created with Inkscape (http://www.inkscape.org/) -->

<svg
   xmlns:dc="http://purl.org/dc/elements/1.1/"
   xmlns:cc="http://creativecommons.org/ns#"
   xmlns:rdf="http://www.w3.org/1999/02/22-rdf-syntax-ns#"
   xmlns:svg="http://www.w3.org/2000/svg"
   xmlns="http://www.w3.org/2000/svg"
   xmlns:sodipodi="http://sodipodi.sourceforge.net/DTD/sodipodi-0.dtd"
   xmlns:inkscape="http://www.inkscape.org/namespaces/inkscape"
   width="539.02899mm"
   height="306.50003mm"
   viewBox="0 0 539.02899 306.50003"
   version="1.1"
   id="svg8"
   inkscape:version="0.92.2 (5c3e80d, 2017-08-06)"
   sodipodi:docname="treemoves.svg">
  <sodipodi:namedview
     id="base"
     pagecolor="#ffffff"
     bordercolor="#666666"
     borderopacity="1.0"
     inkscape:pageopacity="0.0"
     inkscape:pageshadow="2"
     inkscape:zoom="0.49497475"
     inkscape:cx="659.49115"
     inkscape:cy="500.10729"
     inkscape:document-units="mm"
     inkscape:current-layer="g4849"
     showgrid="false"
     inkscape:window-width="1881"
     inkscape:window-height="1025"
     inkscape:window-x="1319"
     inkscape:window-y="27"
     inkscape:window-maximized="1"
     fit-margin-top="10"
     fit-margin-left="10"
     fit-margin-right="10"
     fit-margin-bottom="10" />
  <defs
     id="defs2" />
  <metadata
     id="metadata5">
    <rdf:RDF>
      <cc:Work
         rdf:about="">
        <dc:format>image/svg+xml</dc:format>
        <dc:type
           rdf:resource="http://purl.org/dc/dcmitype/StillImage" />
        <dc:title></dc:title>
      </cc:Work>
    </rdf:RDF>
  </metadata>
  <g
     id="layer1"
     inkscape:groupmode="layer"
     inkscape:label="Layer 1"
     transform="translate(208.90731,-110.10712)">
    <text
       id="text4543"
       y="137.3378"
       x="57.074406"
       style="font-style:italic;font-variant:normal;font-weight:normal;font-stretch:normal;font-size:10.58333302px;line-height:1.25;font-family:sans-serif;-inkscape-font-specification:'sans-serif Italic';letter-spacing:0px;word-spacing:0px;fill:#000000;fill-opacity:1;stroke:none;stroke-width:0.26458332"
       xml:space="preserve"><tspan
         style="stroke-width:0.26458332"
         y="137.3378"
         x="57.074406"
         id="tspan4541"
         sodipodi:role="line">SPR</tspan></text>
    <text
       id="text4547"
       y="137.19827"
       x="228.41898"
       style="font-style:italic;font-variant:normal;font-weight:normal;font-stretch:normal;font-size:10.58333302px;line-height:1.25;font-family:sans-serif;-inkscape-font-specification:'sans-serif Italic';letter-spacing:0px;word-spacing:0px;fill:#000000;fill-opacity:1;stroke:none;stroke-width:0.26458332"
       xml:space="preserve"><tspan
         style="stroke-width:0.26458332"
         y="137.19827"
         x="228.41898"
         id="tspan4545"
         sodipodi:role="line">TBR</tspan></text>
    <flowRoot
       style="font-style:italic;font-variant:normal;font-weight:normal;font-stretch:normal;font-size:40px;line-height:1.25;font-family:sans-serif;-inkscape-font-specification:'sans-serif Italic';letter-spacing:0px;word-spacing:0px;fill:#000000;fill-opacity:1;stroke:none"
       id="flowRoot4549"
       xml:space="preserve"><flowRegion
         id="flowRegion4551"><rect
           y="463.94824"
           x="-281.42856"
           height="144.28572"
           width="1328.5714"
           id="rect4553" /></flowRegion><flowPara
         id="flowPara4555" /></flowRoot>    <rect
       style="opacity:1;fill:none;fill-opacity:1;fill-rule:nonzero;stroke:#000000;stroke-width:1.5;stroke-miterlimit:4;stroke-dasharray:none;stroke-dashoffset:0;stroke-opacity:1"
       id="rect4768"
       width="153.45833"
       height="284.2381"
       x="-11.339286"
       y="121.61903" />
    <rect
       style="opacity:1;fill:none;fill-opacity:1;fill-rule:nonzero;stroke:#000000;stroke-width:1.5;stroke-miterlimit:4;stroke-dasharray:none;stroke-dashoffset:0;stroke-opacity:1"
       id="rect4768-3"
       width="153.45833"
       height="284.2381"
       x="165.91336"
       y="120.85712" />
    <rect
       style="opacity:1;fill:none;fill-opacity:1;fill-rule:nonzero;stroke:#000000;stroke-width:1.5;stroke-miterlimit:4;stroke-dasharray:none;stroke-dashoffset:0;stroke-opacity:1"
       id="rect4768-2"
       width="153.45833"
       height="284.2381"
       x="-191.78474"
       y="121.619" />
    <text
       id="text4539"
       y="138.32191"
       x="-122.43489"
       style="font-style:italic;font-variant:normal;font-weight:normal;font-stretch:normal;font-size:10.58333302px;line-height:1.25;font-family:sans-serif;-inkscape-font-specification:'sans-serif Italic';letter-spacing:0px;word-spacing:0px;fill:#000000;fill-opacity:1;stroke:none;stroke-width:0.26458332"
       xml:space="preserve"><tspan
         style="stroke-width:0.26458332"
         y="138.32191"
         x="-122.43489"
         id="tspan4537"
         sodipodi:role="line">NNI</tspan></text>
    <path
       style="fill:none;stroke:#ff2a00;stroke-width:1.5;stroke-linecap:butt;stroke-linejoin:miter;stroke-opacity:1;stroke-miterlimit:4;stroke-dasharray:none"
       d="m -152.52071,180.61851 7.41531,15.49346 9.0236,-16.49598 -9.0236,16.49598 2.46094,26.13287"
       id="path4944"
       inkscape:connector-curvature="0" />
    <path
       style="fill:none;stroke:#0079de;stroke-width:1.5;stroke-linecap:butt;stroke-linejoin:miter;stroke-opacity:1;stroke-miterlimit:4;stroke-dasharray:none"
       d="m -175.47945,197.38427 8.57507,15.05923 -20.34509,-0.60272 20.34509,0.60272 24.25992,9.80134"
       id="path4946"
       inkscape:connector-curvature="0" />
    <path
       style="fill:none;stroke:#f49b28;stroke-width:1.5;stroke-linecap:butt;stroke-linejoin:miter;stroke-miterlimit:4;stroke-dasharray:none;stroke-opacity:1"
       d="m -117.95595,155.87476 14.38685,15.02715 2.35342,-18.45195 -2.35342,18.45195 6.285179,24.13322 10.974472,-13.24819 -10.974472,13.24819 -7.976569,31.38409"
       id="path4948"
       inkscape:connector-curvature="0" />
    <path
       style="fill:none;stroke:#4ed990;stroke-width:1.5;stroke-linecap:butt;stroke-linejoin:miter;stroke-opacity:1;stroke-miterlimit:4;stroke-dasharray:none"
       d="m -56.595863,182.0435 -4.174098,19.81372 15.967048,-5.66211 -15.967048,5.66211 -17.494911,16.47609 16.91986,6.1973 -16.91986,-6.1973 -27.027828,7.96301"
       id="path4950"
       inkscape:connector-curvature="0" />
    <path
       style="fill:none;stroke:#000000;stroke-width:1.5;stroke-linecap:butt;stroke-linejoin:miter;stroke-opacity:1;stroke-miterlimit:4;stroke-dasharray:none"
       d="m -142.64446,222.24484 15.65359,32.89018 21.69817,-28.8387"
       id="path4952"
       inkscape:connector-curvature="0" />
    <path
       style="fill:none;stroke:#ff2a00;stroke-width:1.5;stroke-linecap:butt;stroke-linejoin:miter;stroke-miterlimit:4;stroke-dasharray:none;stroke-opacity:1"
       d="m -115.56013,312.14527 7.41531,15.49346 9.0236,-16.49598 -9.0236,16.49598 2.46094,26.13287"
       id="path4944-7"
       inkscape:connector-curvature="0" />
    <path
       style="fill:none;stroke:#0079de;stroke-width:1.5;stroke-linecap:butt;stroke-linejoin:miter;stroke-miterlimit:4;stroke-dasharray:none;stroke-opacity:1"
       d="m -175.87063,324.85955 8.57507,15.05923 -20.34509,-0.60272 20.34509,0.60272 24.25992,9.80134"
       id="path4946-1"
       inkscape:connector-curvature="0" />
    <path
       style="fill:none;stroke:#f49b28;stroke-width:1.5;stroke-linecap:butt;stroke-linejoin:miter;stroke-miterlimit:4;stroke-dasharray:none;stroke-opacity:1"
       d="m -155.7311,279.17566 14.38685,15.02715 2.35342,-18.45195 -2.35342,18.45195 6.28518,24.13322 10.97447,-13.24819 -10.97447,13.24819 -7.97657,31.38409"
       id="path4948-1"
       inkscape:connector-curvature="0" />
    <path
       style="fill:none;stroke:#4ed990;stroke-width:1.5;stroke-linecap:butt;stroke-linejoin:miter;stroke-miterlimit:4;stroke-dasharray:none;stroke-opacity:1"
       d="m -56.987043,309.51878 -4.174099,19.81372 15.967049,-5.66211 -15.967049,5.66211 -17.494909,16.47609 16.919858,6.1973 -16.919858,-6.1973 -27.027829,7.96301"
       id="path4950-1"
       inkscape:connector-curvature="0" />
    <path
       style="fill:none;stroke:#000000;stroke-width:1.5;stroke-linecap:butt;stroke-linejoin:miter;stroke-miterlimit:4;stroke-dasharray:none;stroke-opacity:1"
       d="m -143.03564,349.72012 15.65359,32.89018 21.69817,-28.8387"
       id="path4952-7"
       inkscape:connector-curvature="0" />
  </g>
  <g
     id="g4849"
     transform="translate(167.23617,10.761913)">
    <path
       id="path4686"
       style="fill:none;fill-opacity:1;stroke:#000000;stroke-width:1.5;stroke-linecap:butt;stroke-linejoin:miter;stroke-miterlimit:4;stroke-dasharray:none;stroke-opacity:1"
       d="m 116.82444,105.42733 27.02783,-7.963004 16.91986,6.197294 -16.91986,-6.197294 17.49491,-16.47609 15.96705,-5.66211 -15.96705,5.66211 4.1741,-19.81372 c -7.90815,-17.46306 -7.90815,-17.46306 0,0 l -4.1741,19.81372 -17.49491,16.47609 -27.02783,7.963004 7.97655,-31.384094 10.97447,-13.24819 -10.97447,13.24819 -6.28516,-24.13322 2.3534,-18.45195 -2.3534,18.45195 -14.38685,-15.02715 c -17.805459,-3.54826 -17.805459,-3.54826 0,0 l 14.38685,15.02715 6.28516,24.13322 -7.97655,31.384094"
       inkscape:connector-curvature="0"
       sodipodi:nodetypes="ccccccccccccccccccccccc" />
    <path
       sodipodi:nodetypes="cccccccccccccc"
       inkscape:connector-curvature="0"
       d="m 79.472681,101.37585 -2.46094,-26.132874 9.0236,-16.49597 -9.0236,16.49597 -7.41531,-15.49345 7.41531,15.49345 2.46094,26.132874 -24.25992,-9.801334 -8.57507,-15.05924 8.57507,15.05924 -20.345088,-0.60273 c -15.543791,-9.27723 -15.543791,-9.27723 0,0 l 20.345088,0.60273 24.25992,9.801334 15.65359,32.89018"
       style="fill:none;fill-opacity:1;stroke:#f49b28;stroke-width:1.5;stroke-linecap:butt;stroke-linejoin:miter;stroke-miterlimit:4;stroke-dasharray:none;stroke-opacity:1"
       id="path4729" />
    <path
       style="fill:none;stroke:#f49a27;stroke-width:1.5;stroke-linecap:butt;stroke-linejoin:miter;stroke-opacity:1;stroke-miterlimit:4;stroke-dasharray:none"
       d="m 95.126269,134.26603 21.698171,-28.8387"
       id="path4981"
       inkscape:connector-curvature="0" />
  </g>
  <path
     sodipodi:nodetypes="ccccccccccccccccccccccc"
     inkscape:connector-curvature="0"
     d="m 246.97608,288.54978 27.02782,-7.963 16.91986,6.19729 -16.91986,-6.19729 17.49491,-16.47609 15.96705,-5.66211 -15.96705,5.66211 4.1741,-19.81372 c -7.90815,-17.46306 -7.90815,-17.46306 0,0 l -4.1741,19.81372 -17.49491,16.47609 -27.02782,7.963 7.97654,-31.38409 10.97447,-13.24819 -10.97447,13.24819 -6.28515,-24.13322 2.3534,-18.45195 -2.3534,18.45195 -14.38685,-15.02715 c -17.80546,-3.54826 -17.80546,-3.54826 0,0 l 14.38685,15.02715 6.28515,24.13322 -7.97654,31.38409"
     style="fill:none;fill-opacity:1;stroke:#000000;stroke-width:1.5;stroke-linecap:butt;stroke-linejoin:miter;stroke-miterlimit:4;stroke-dasharray:none;stroke-opacity:1"
     id="path4686-0" />
  <path
     id="path4729-9"
     style="fill:none;fill-opacity:1;stroke:#f49b28;stroke-width:1.5;stroke-linecap:butt;stroke-linejoin:miter;stroke-miterlimit:4;stroke-dasharray:none;stroke-opacity:1"
     d="m 282.43764,222.41704 25.88199,-4.37102 17.11337,7.7894 -17.11337,-7.7894 14.90783,-8.53171 -14.90783,8.53171 -25.88199,4.37102 7.99559,-24.91346 14.38973,-9.65649 -14.38973,9.65649 -0.89111,-20.3345 c 8.11218,-16.18236 8.11218,-16.18236 0,0 l 0.89111,20.3345 -7.99559,24.91346 -31.65349,18.02377"
     inkscape:connector-curvature="0"
     sodipodi:nodetypes="cccccccccccccc" />
  <g
     id="g4830"
     transform="translate(171.36417,10.761913)">
    <path
       id="path4686-7"
       style="fill:none;fill-opacity:1;stroke:#000000;stroke-width:1.5;stroke-linecap:butt;stroke-linejoin:miter;stroke-miterlimit:4;stroke-dasharray:none;stroke-opacity:1"
       d="m 270.96656,138.38145 21.69817,-28.83869 27.02783,-7.96301 16.91985,6.1973 -16.91985,-6.1973 17.4949,-16.476087 15.96705,-5.662112 -15.96705,5.662112 4.1741,-19.813722 c -7.90814,-17.463059 -7.90814,-17.463059 0,0 l -4.1741,19.813722 -17.4949,16.476087 -27.02783,7.96301 7.97655,-31.384097 10.97447,-13.24819 -10.97447,13.24819 -6.28516,-24.133221 2.3534,-18.451949 -2.3534,18.451949 -14.38685,-15.027149 c -17.80546,-3.54826 -17.80546,-3.54826 0,0 l 14.38685,15.027149 6.28516,24.133221 -7.97655,31.384097 -21.69817,28.83869 v 0"
       inkscape:connector-curvature="0"
       sodipodi:nodetypes="cccccccccccccccccccccccccc" />
    <path
       sodipodi:nodetypes="cccccccccccccc"
       inkscape:connector-curvature="0"
       d="m 255.31297,105.49128 -2.46094,-26.132877 9.0236,-16.495972 -9.0236,16.495972 -7.41531,-15.49345 7.41531,15.49345 2.46094,26.132877 -24.25992,-9.801338 -8.57507,-15.05924 8.57507,15.05924 -20.34509,-0.602729 c -15.54379,-9.277231 -15.54379,-9.277231 0,0 l 20.34509,0.602729 24.25992,9.801338 15.65359,32.89017"
       style="fill:none;fill-opacity:1;stroke:#f49b28;stroke-width:1.5;stroke-linecap:butt;stroke-linejoin:miter;stroke-miterlimit:4;stroke-dasharray:none;stroke-opacity:1"
       id="path4729-99" />
  </g>
  <g
     id="g4826"
     transform="translate(155.23652,10.761913)">
    <path
       id="path4686-7-3"
       style="fill:none;fill-opacity:1;stroke:#000000;stroke-width:1.5;stroke-linecap:butt;stroke-linejoin:miter;stroke-miterlimit:4;stroke-dasharray:none;stroke-opacity:1"
       d="m 308.16636,250.12653 27.02783,-7.96301 16.91986,6.1973 -16.91986,-6.1973 17.49491,-16.47609 15.96705,-5.66211 -15.96705,5.66211 4.1741,-19.81372 c -7.90815,-17.46306 -7.90815,-17.46306 0,0 l -4.1741,19.81372 -17.49491,16.47609 -27.02783,7.96301 7.97655,-31.3841 10.97447,-13.24819 -10.97447,13.24819 -6.28516,-24.13322 2.3534,-18.45195 -2.3534,18.45195 -14.38685,-15.02715 c -17.80546,-3.54826 -17.80546,-3.54826 0,0 l 14.38685,15.02715 6.28516,24.13322 -7.97655,31.3841"
       inkscape:connector-curvature="0"
       sodipodi:nodetypes="ccccccccccccccccccccccc" />
    <path
       sodipodi:nodetypes="cccccccccccccc"
       inkscape:connector-curvature="0"
       d="m 272.06662,228.35109 -2.46094,-26.13287 9.0236,-16.49598 -9.0236,16.49598 -7.41531,-15.49345 7.41531,15.49345 2.46094,26.13287 -24.25992,-9.80133 -8.57507,-15.05924 8.57507,15.05924 -20.34509,-0.60273 c -15.54379,-9.27723 -15.54379,-9.27723 0,0 l 20.34509,0.60273 24.25992,9.80133"
       style="fill:none;fill-opacity:1;stroke:#f49b28;stroke-width:1.5;stroke-linecap:butt;stroke-linejoin:miter;stroke-miterlimit:4;stroke-dasharray:none;stroke-opacity:1"
       id="path4729-99-4" />
    <path
       inkscape:connector-curvature="0"
       id="path4821"
       d="m 273.65477,194.64581 38.17559,9.44941"
       style="fill:none;stroke:#f29b2a;stroke-width:1.5;stroke-linecap:butt;stroke-linejoin:miter;stroke-miterlimit:4;stroke-dasharray:none;stroke-opacity:1" />
  </g>
</svg>
