<?xml version="1.0" encoding="utf-8"?>
<svg xmlns="http://www.w3.org/2000/svg" xmlns:xlink="http://www.w3.org/1999/xlink" width="600" height="400" viewBox="0 0 2400 1600">
<defs>
  <clipPath id="clip6400">
    <rect x="0" y="0" width="2400" height="1600"/>
  </clipPath>
</defs>
<path clip-path="url(#clip6400)" d="
M0 1600 L2400 1600 L2400 0 L0 0  Z
  " fill="#ffffff" fill-rule="evenodd" fill-opacity="1"/>
<defs>
  <clipPath id="clip6401">
    <rect x="480" y="0" width="1681" height="1600"/>
  </clipPath>
</defs>
<path clip-path="url(#clip6400)" d="
M113.754 1487.47 L2352.76 1487.47 L2352.76 121.675 L113.754 121.675  Z
  " fill="#ffffff" fill-rule="evenodd" fill-opacity="1"/>
<defs>
  <clipPath id="clip6402">
    <rect x="113" y="121" width="2240" height="1367"/>
  </clipPath>
</defs>
<polyline clip-path="url(#clip6402)" style="stroke:#000000; stroke-width:2; stroke-opacity:0.1; fill:none" points="
  113.754,1487.47 113.754,121.675 
  "/>
<polyline clip-path="url(#clip6402)" style="stroke:#000000; stroke-width:2; stroke-opacity:0.1; fill:none" points="
  561.555,1487.47 561.555,121.675 
  "/>
<polyline clip-path="url(#clip6402)" style="stroke:#000000; stroke-width:2; stroke-opacity:0.1; fill:none" points="
  1009.36,1487.47 1009.36,121.675 
  "/>
<polyline clip-path="url(#clip6402)" style="stroke:#000000; stroke-width:2; stroke-opacity:0.1; fill:none" points="
  1457.16,1487.47 1457.16,121.675 
  "/>
<polyline clip-path="url(#clip6402)" style="stroke:#000000; stroke-width:2; stroke-opacity:0.1; fill:none" points="
  1904.96,1487.47 1904.96,121.675 
  "/>
<polyline clip-path="url(#clip6402)" style="stroke:#000000; stroke-width:2; stroke-opacity:0.1; fill:none" points="
  2352.76,1487.47 2352.76,121.675 
  "/>
<polyline clip-path="url(#clip6402)" style="stroke:#000000; stroke-width:2; stroke-opacity:0.1; fill:none" points="
  113.754,1487.47 2352.76,1487.47 
  "/>
<polyline clip-path="url(#clip6402)" style="stroke:#000000; stroke-width:2; stroke-opacity:0.1; fill:none" points="
  113.754,1214.31 2352.76,1214.31 
  "/>
<polyline clip-path="url(#clip6402)" style="stroke:#000000; stroke-width:2; stroke-opacity:0.1; fill:none" points="
  113.754,941.155 2352.76,941.155 
  "/>
<polyline clip-path="url(#clip6402)" style="stroke:#000000; stroke-width:2; stroke-opacity:0.1; fill:none" points="
  113.754,667.995 2352.76,667.995 
  "/>
<polyline clip-path="url(#clip6402)" style="stroke:#000000; stroke-width:2; stroke-opacity:0.1; fill:none" points="
  113.754,394.835 2352.76,394.835 
  "/>
<polyline clip-path="url(#clip6402)" style="stroke:#000000; stroke-width:2; stroke-opacity:0.1; fill:none" points="
  113.754,121.675 2352.76,121.675 
  "/>
<polyline clip-path="url(#clip6400)" style="stroke:#000000; stroke-width:4; stroke-opacity:1; fill:none" points="
  113.754,1487.47 2352.76,1487.47 
  "/>
<polyline clip-path="url(#clip6400)" style="stroke:#000000; stroke-width:4; stroke-opacity:1; fill:none" points="
  113.754,1487.47 113.754,121.675 
  "/>
<polyline clip-path="url(#clip6400)" style="stroke:#000000; stroke-width:4; stroke-opacity:1; fill:none" points="
  113.754,1487.47 113.754,1471.09 
  "/>
<polyline clip-path="url(#clip6400)" style="stroke:#000000; stroke-width:4; stroke-opacity:1; fill:none" points="
  561.555,1487.47 561.555,1471.09 
  "/>
<polyline clip-path="url(#clip6400)" style="stroke:#000000; stroke-width:4; stroke-opacity:1; fill:none" points="
  1009.36,1487.47 1009.36,1471.09 
  "/>
<polyline clip-path="url(#clip6400)" style="stroke:#000000; stroke-width:4; stroke-opacity:1; fill:none" points="
  1457.16,1487.47 1457.16,1471.09 
  "/>
<polyline clip-path="url(#clip6400)" style="stroke:#000000; stroke-width:4; stroke-opacity:1; fill:none" points="
  1904.96,1487.47 1904.96,1471.09 
  "/>
<polyline clip-path="url(#clip6400)" style="stroke:#000000; stroke-width:4; stroke-opacity:1; fill:none" points="
  2352.76,1487.47 2352.76,1471.09 
  "/>
<polyline clip-path="url(#clip6400)" style="stroke:#000000; stroke-width:4; stroke-opacity:1; fill:none" points="
  113.754,1487.47 140.622,1487.47 
  "/>
<polyline clip-path="url(#clip6400)" style="stroke:#000000; stroke-width:4; stroke-opacity:1; fill:none" points="
  113.754,1214.31 140.622,1214.31 
  "/>
<polyline clip-path="url(#clip6400)" style="stroke:#000000; stroke-width:4; stroke-opacity:1; fill:none" points="
  113.754,941.155 140.622,941.155 
  "/>
<polyline clip-path="url(#clip6400)" style="stroke:#000000; stroke-width:4; stroke-opacity:1; fill:none" points="
  113.754,667.995 140.622,667.995 
  "/>
<polyline clip-path="url(#clip6400)" style="stroke:#000000; stroke-width:4; stroke-opacity:1; fill:none" points="
  113.754,394.835 140.622,394.835 
  "/>
<polyline clip-path="url(#clip6400)" style="stroke:#000000; stroke-width:4; stroke-opacity:1; fill:none" points="
  113.754,121.675 140.622,121.675 
  "/>
<g clip-path="url(#clip6400)">
<text style="fill:#000000; fill-opacity:1; font-family:Arial,Helvetica Neue,Helvetica,sans-serif; font-size:48px; text-anchor:middle;" transform="rotate(0, 113.754, 1541.47)" x="113.754" y="1541.47">0</text>
</g>
<g clip-path="url(#clip6400)">
<text style="fill:#000000; fill-opacity:1; font-family:Arial,Helvetica Neue,Helvetica,sans-serif; font-size:48px; text-anchor:middle;" transform="rotate(0, 561.555, 1541.47)" x="561.555" y="1541.47">1</text>
</g>
<g clip-path="url(#clip6400)">
<text style="fill:#000000; fill-opacity:1; font-family:Arial,Helvetica Neue,Helvetica,sans-serif; font-size:48px; text-anchor:middle;" transform="rotate(0, 1009.36, 1541.47)" x="1009.36" y="1541.47">2</text>
</g>
<g clip-path="url(#clip6400)">
<text style="fill:#000000; fill-opacity:1; font-family:Arial,Helvetica Neue,Helvetica,sans-serif; font-size:48px; text-anchor:middle;" transform="rotate(0, 1457.16, 1541.47)" x="1457.16" y="1541.47">3</text>
</g>
<g clip-path="url(#clip6400)">
<text style="fill:#000000; fill-opacity:1; font-family:Arial,Helvetica Neue,Helvetica,sans-serif; font-size:48px; text-anchor:middle;" transform="rotate(0, 1904.96, 1541.47)" x="1904.96" y="1541.47">4</text>
</g>
<g clip-path="url(#clip6400)">
<text style="fill:#000000; fill-opacity:1; font-family:Arial,Helvetica Neue,Helvetica,sans-serif; font-size:48px; text-anchor:middle;" transform="rotate(0, 2352.76, 1541.47)" x="2352.76" y="1541.47">5</text>
</g>
<g clip-path="url(#clip6400)">
<text style="fill:#000000; fill-opacity:1; font-family:Arial,Helvetica Neue,Helvetica,sans-serif; font-size:48px; text-anchor:end;" transform="rotate(0, 89.7545, 1504.97)" x="89.7545" y="1504.97">0</text>
</g>
<g clip-path="url(#clip6400)">
<text style="fill:#000000; fill-opacity:1; font-family:Arial,Helvetica Neue,Helvetica,sans-serif; font-size:48px; text-anchor:end;" transform="rotate(0, 89.7545, 1231.81)" x="89.7545" y="1231.81">1</text>
</g>
<g clip-path="url(#clip6400)">
<text style="fill:#000000; fill-opacity:1; font-family:Arial,Helvetica Neue,Helvetica,sans-serif; font-size:48px; text-anchor:end;" transform="rotate(0, 89.7545, 958.655)" x="89.7545" y="958.655">2</text>
</g>
<g clip-path="url(#clip6400)">
<text style="fill:#000000; fill-opacity:1; font-family:Arial,Helvetica Neue,Helvetica,sans-serif; font-size:48px; text-anchor:end;" transform="rotate(0, 89.7545, 685.495)" x="89.7545" y="685.495">3</text>
</g>
<g clip-path="url(#clip6400)">
<text style="fill:#000000; fill-opacity:1; font-family:Arial,Helvetica Neue,Helvetica,sans-serif; font-size:48px; text-anchor:end;" transform="rotate(0, 89.7545, 412.335)" x="89.7545" y="412.335">4</text>
</g>
<g clip-path="url(#clip6400)">
<text style="fill:#000000; fill-opacity:1; font-family:Arial,Helvetica Neue,Helvetica,sans-serif; font-size:48px; text-anchor:end;" transform="rotate(0, 89.7545, 139.175)" x="89.7545" y="139.175">5</text>
</g>
<g clip-path="url(#clip6400)">
<text style="fill:#000000; fill-opacity:1; font-family:Arial,Helvetica Neue,Helvetica,sans-serif; font-size:84px; text-anchor:middle;" transform="rotate(0, 1233.26, 73.2)" x="1233.26" y="73.2">The Gamma distribution with mean 1</text>
</g>
<polyline clip-path="url(#clip6402)" style="stroke:#009af9; stroke-width:4; stroke-opacity:1; fill:none" points="
  115.571,-1752.99 117.387,-248.342 119.203,282.867 121.02,558.028 122.836,727.447 124.652,842.727 126.469,926.476 128.285,990.204 130.101,1040.4 131.917,1081.01 
  133.734,1114.58 135.55,1142.8 139.183,1187.7 142.815,1221.86 146.448,1248.77 150.08,1270.54 153.713,1288.53 157.346,1303.67 164.611,1327.74 171.876,1346.05 
  179.141,1360.48 186.407,1372.16 193.672,1381.81 200.937,1389.93 215.467,1402.84 229.998,1412.67 244.528,1420.41 259.059,1426.67 273.589,1431.85 288.119,1436.21 
  302.65,1439.93 317.18,1443.14 331.711,1445.94 346.241,1448.41 480.596,1462.33 614.95,1469.05 749.305,1473.03 883.66,1475.68 1152.37,1478.99 1421.08,1480.98 
  1958.5,1483.25 2495.92,1484.5 3141.85,1485.4 3787.78,1485.96 4333.91,1486.29 4880.03,1486.54 6066.53,1486.89 7160.37,1487.08 8333.09,1487.21 9691.8,1487.3 
  10899.3,1487.36 11958.1,1487.39 13112.5,1487.41 14273.8,1487.43 15557.7,1487.44 16779.3,1487.45 18049.5,1487.46 19118.8,1487.46 20424.2,1487.47 21651.4,1487.47 
  23617.4,1487.47 23919.9,1487.47 
  "/>
<polyline clip-path="url(#clip6402)" style="stroke:#e26f46; stroke-width:4; stroke-opacity:1; fill:none" points="
  114.633,-4224.89 115.511,-1907.45 116.39,-1016.03 117.268,-529.182 118.147,-217.573 119.025,1.06817 119.904,164.003 120.782,290.713 121.661,392.434 122.539,476.13 
  123.418,546.362 124.296,606.249 126.053,703.231 127.81,778.663 129.567,839.228 131.324,889.068 133.081,930.897 134.838,966.57 138.352,1024.35 141.866,1069.31 
  145.38,1105.41 148.894,1135.13 152.408,1160.08 155.922,1181.37 162.95,1215.86 169.978,1242.7 177.006,1264.27 184.034,1282.04 191.062,1296.96 198.09,1309.7 
  205.118,1320.71 212.146,1330.34 219.174,1338.85 226.202,1346.43 258.694,1372.98 291.186,1390.86 323.678,1403.84 356.17,1413.75 421.153,1427.97 486.137,1437.78 
  616.105,1450.55 746.072,1458.58 876.04,1464.12 1006.01,1468.17 1135.97,1471.26 1265.94,1473.69 1578.36,1477.8 1890.78,1480.45 2154.93,1482.01 2419.08,1483.17 
  2992.95,1484.83 3522.02,1485.74 4089.23,1486.35 4746.4,1486.78 5330.41,1487.02 5842.54,1487.15 6400.9,1487.26 6962.58,1487.32 7583.58,1487.38 8174.45,1487.41 
  8788.82,1487.43 9305.99,1487.44 9937.39,1487.45 10530.9,1487.46 11481.8,1487.47 11628.2,1487.47 
  "/>
<polyline clip-path="url(#clip6402)" style="stroke:#3da44d; stroke-width:4; stroke-opacity:1; fill:none" points="
  114.272,-1717.4 114.789,-777.407 115.306,-360.726 115.823,-112.19 116.34,57.5172 116.857,182.862 117.374,280.335 117.892,358.951 118.409,424.106 118.926,479.257 
  119.443,526.732 119.96,568.165 120.995,637.341 122.029,693.165 123.063,739.457 124.097,778.662 125.132,812.428 126.166,841.913 128.235,891.18 130.303,930.979 
  132.372,964.015 134.44,992.023 136.509,1016.17 138.578,1037.28 142.715,1072.59 146.852,1101.18 150.989,1124.95 155.126,1145.14 159.263,1162.57 163.401,1177.84 
  167.538,1191.36 171.675,1203.44 175.812,1214.34 179.949,1224.23 199.076,1260.51 218.204,1286.67 237.331,1306.77 256.458,1322.87 294.712,1347.41 332.966,1365.54 
  409.475,1391.09 485.983,1408.6 562.491,1421.52 639,1431.5 715.508,1439.46 792.017,1445.95 883.973,1452.31 975.93,1457.48 1067.89,1461.75 1159.84,1465.3 
  1315.34,1470.08 1470.84,1473.72 1808.66,1479.03 2120.11,1482 2454.01,1483.98 2840.87,1485.37 3184.66,1486.13 3486.14,1486.56 3814.83,1486.87 4145.47,1487.07 
  4511.04,1487.22 4858.87,1487.31 5220.53,1487.37 5524.98,1487.4 5896.67,1487.43 6246.07,1487.44 6805.83,1487.46 6891.98,1487.46 
  "/>
<polyline clip-path="url(#clip6402)" style="stroke:#c271d2; stroke-width:4; stroke-opacity:1; fill:none" points="
  113.754,1214.31 123.824,1220.39 133.894,1226.33 143.963,1232.13 154.033,1237.81 200.586,1262.46 247.14,1284.68 293.693,1304.7 340.247,1322.75 386.801,1339.02 
  433.354,1353.67 479.908,1366.89 526.462,1378.79 582.415,1391.56 638.369,1402.83 694.322,1412.77 750.276,1421.54 844.892,1434.1 939.508,1444.27 1042.29,1453.13 
  1145.07,1460.17 1239.82,1465.38 1334.57,1469.59 1537.75,1476.11 1773.14,1480.76 1982.33,1483.27 2165.77,1484.68 2365.77,1485.69 2566.96,1486.33 2789.4,1486.78 
  3001.05,1487.04 3221.11,1487.21 3406.36,1487.3 3632.52,1487.37 3845.13,1487.41 4185.73,1487.44 4238.15,1487.45 
  "/>
<polyline clip-path="url(#clip6402)" style="stroke:#ac8d18; stroke-width:4; stroke-opacity:1; fill:none" points="
  113.754,1487.47 117.643,1487.47 121.531,1487.47 125.419,1487.46 129.307,1487.43 147.283,1486.71 165.259,1483.97 174.247,1481.45 183.235,1477.99 192.222,1473.51 
  201.21,1467.99 210.198,1461.4 219.186,1453.8 228.174,1445.22 237.162,1435.75 255.138,1414.58 273.114,1391.21 294.719,1361.71 316.324,1332.34 337.93,1304.67 
  359.535,1279.95 377.802,1262.04 396.07,1247.23 405.203,1241.06 414.337,1235.71 423.47,1231.2 432.604,1227.52 442.525,1224.44 452.447,1222.29 462.369,1221.03 
  472.29,1220.64 492.133,1222.26 511.977,1226.76 530.27,1233.1 548.564,1241.19 566.858,1250.71 585.151,1261.34 624.377,1286.56 663.602,1313.15 709.049,1343.28 
  754.496,1370.96 794.883,1392.7 835.271,1411.45 870.687,1425.47 906.103,1437.34 944.717,1448.07 983.33,1456.77 1022.17,1463.77 1061.02,1469.31 1146.91,1477.63 
  1228.63,1482.11 1313.6,1484.69 1385.13,1485.89 1472.46,1486.7 1554.55,1487.08 1686.07,1487.35 1706.31,1487.37 
  "/>
<polyline clip-path="url(#clip6402)" style="stroke:#00a9ad; stroke-width:4; stroke-opacity:1; fill:none" points="
  113.754,1487.47 119.482,1487.47 125.209,1487.47 178.166,1487.43 231.123,1484.28 247.035,1480.44 262.948,1473.87 278.86,1463.73 294.773,1449.38 308.226,1433.7 
  321.68,1414.78 335.134,1392.83 348.588,1368.29 377.817,1309.13 407.046,1248.62 420.519,1222.61 433.993,1198.84 447.466,1177.9 460.939,1160.28 475.384,1145.46 
  489.829,1135.07 504.274,1129.16 518.719,1127.61 527.087,1128.61 535.455,1130.93 543.823,1134.49 552.19,1139.2 568.926,1151.71 585.662,1167.69 615.408,1202.18 
  645.153,1240.89 671.237,1275.5 697.321,1308.81 725.76,1342.19 754.199,1371.61 782.807,1396.84 811.414,1417.73 843.044,1436.18 874.674,1450.39 904.768,1460.62 
  934.863,1468.29 997.446,1478.29 1050.13,1482.7 1114.45,1485.41 1174.91,1486.57 1271.77,1487.25 1286.68,1487.29 
  "/>
<polyline clip-path="url(#clip6402)" style="stroke:#ed5d92; stroke-width:4; stroke-opacity:1; fill:none" points="
  113.754,1487.47 119.944,1487.47 177.173,1487.47 211.565,1487.47 240.643,1487.47 272.23,1487.47 301.351,1487.47 332.571,1487.47 368.743,1487.47 400.888,1487.15 
  429.077,1481.1 436.76,1475.04 444.443,1464.56 452.126,1447.44 459.81,1421 463.674,1403.27 467.539,1382.09 471.403,1357.14 475.267,1328.12 479.132,1294.84 
  482.996,1257.17 486.861,1215.11 490.725,1168.76 499.271,1052.57 507.816,922.214 516.361,786.206 524.906,655.429 528.972,598.461 533.037,546.564 537.102,500.864 
  541.168,462.346 545.233,431.821 549.298,409.9 553.364,396.971 557.429,393.19 561.656,398.881 565.883,414.049 570.11,438.126 574.337,470.338 578.564,509.75 
  582.791,555.297 587.018,605.841 591.245,660.204 605.478,856.309 619.711,1044.27 624.055,1095.85 628.399,1143.9 632.743,1188.17 637.087,1228.54 641.432,1264.99 
  645.776,1297.59 650.12,1326.47 654.464,1351.85 662.631,1390.91 670.799,1420.21 678.966,1441.61 687.133,1456.84 713.303,1480.11 739.472,1486.01 743.499,1486.35 
  747.527,1486.61 
  "/>
<path clip-path="url(#clip6400)" d="
M1832.76 689.035 L2280.76 689.035 L2280.76 205.195 L1832.76 205.195  Z
  " fill="#ffffff" fill-rule="evenodd" fill-opacity="1"/>
<polyline clip-path="url(#clip6400)" style="stroke:#000000; stroke-width:4; stroke-opacity:1; fill:none" points="
  1832.76,689.035 2280.76,689.035 2280.76,205.195 1832.76,205.195 1832.76,689.035 
  "/>
<polyline clip-path="url(#clip6400)" style="stroke:#009af9; stroke-width:4; stroke-opacity:1; fill:none" points="
  1856.76,265.675 2000.76,265.675 
  "/>
<g clip-path="url(#clip6400)">
<text style="fill:#000000; fill-opacity:1; font-family:Symbol; font-size:52px; text-anchor:start;" transform="rotate(0, 2024.76, 279.326)" x="2024.76" y="279.326">α</text>
</g>
<g clip-path="url(#clip6400)">
<text style="fill:#000000; fill-opacity:1; font-family:Arial,Helvetica Neue,Helvetica,sans-serif; font-size:48px; text-anchor:start;" transform="rotate(0, 2057.45, 279.326)" x="2057.45" y="279.326"> = 0.1</text>
</g>
<polyline clip-path="url(#clip6400)" style="stroke:#e26f46; stroke-width:4; stroke-opacity:1; fill:none" points="
  1856.76,326.155 2000.76,326.155 
  "/>
<g clip-path="url(#clip6400)">
<text style="fill:#000000; fill-opacity:1; font-family:Symbol; font-size:52px; text-anchor:start;" transform="rotate(0, 2024.76, 339.806)" x="2024.76" y="339.806">α</text>
</g>
<g clip-path="url(#clip6400)">
<text style="fill:#000000; fill-opacity:1; font-family:Arial,Helvetica Neue,Helvetica,sans-serif; font-size:48px; text-anchor:start;" transform="rotate(0, 2057.45, 339.806)" x="2057.45" y="339.806"> = 0.25</text>
</g>
<polyline clip-path="url(#clip6400)" style="stroke:#3da44d; stroke-width:4; stroke-opacity:1; fill:none" points="
  1856.76,386.635 2000.76,386.635 
  "/>
<g clip-path="url(#clip6400)">
<text style="fill:#000000; fill-opacity:1; font-family:Symbol; font-size:52px; text-anchor:start;" transform="rotate(0, 2024.76, 400.286)" x="2024.76" y="400.286">α</text>
</g>
<g clip-path="url(#clip6400)">
<text style="fill:#000000; fill-opacity:1; font-family:Arial,Helvetica Neue,Helvetica,sans-serif; font-size:48px; text-anchor:start;" transform="rotate(0, 2057.45, 400.286)" x="2057.45" y="400.286"> = 0.5</text>
</g>
<polyline clip-path="url(#clip6400)" style="stroke:#c271d2; stroke-width:4; stroke-opacity:1; fill:none" points="
  1856.76,447.115 2000.76,447.115 
  "/>
<g clip-path="url(#clip6400)">
<text style="fill:#000000; fill-opacity:1; font-family:Symbol; font-size:52px; text-anchor:start;" transform="rotate(0, 2024.76, 460.766)" x="2024.76" y="460.766">α</text>
</g>
<g clip-path="url(#clip6400)">
<text style="fill:#000000; fill-opacity:1; font-family:Arial,Helvetica Neue,Helvetica,sans-serif; font-size:48px; text-anchor:start;" transform="rotate(0, 2057.45, 460.766)" x="2057.45" y="460.766"> = 1.0</text>
</g>
<polyline clip-path="url(#clip6400)" style="stroke:#ac8d18; stroke-width:4; stroke-opacity:1; fill:none" points="
  1856.76,507.595 2000.76,507.595 
  "/>
<g clip-path="url(#clip6400)">
<text style="fill:#000000; fill-opacity:1; font-family:Symbol; font-size:52px; text-anchor:start;" transform="rotate(0, 2024.76, 521.246)" x="2024.76" y="521.246">α</text>
</g>
<g clip-path="url(#clip6400)">
<text style="fill:#000000; fill-opacity:1; font-family:Arial,Helvetica Neue,Helvetica,sans-serif; font-size:48px; text-anchor:start;" transform="rotate(0, 2057.45, 521.246)" x="2057.45" y="521.246"> = 5.0</text>
</g>
<polyline clip-path="url(#clip6400)" style="stroke:#00a9ad; stroke-width:4; stroke-opacity:1; fill:none" points="
  1856.76,568.075 2000.76,568.075 
  "/>
<g clip-path="url(#clip6400)">
<text style="fill:#000000; fill-opacity:1; font-family:Symbol; font-size:52px; text-anchor:start;" transform="rotate(0, 2024.76, 581.726)" x="2024.76" y="581.726">α</text>
</g>
<g clip-path="url(#clip6400)">
<text style="fill:#000000; fill-opacity:1; font-family:Arial,Helvetica Neue,Helvetica,sans-serif; font-size:48px; text-anchor:start;" transform="rotate(0, 2057.45, 581.726)" x="2057.45" y="581.726"> = 10.0</text>
</g>
<polyline clip-path="url(#clip6400)" style="stroke:#ed5d92; stroke-width:4; stroke-opacity:1; fill:none" points="
  1856.76,628.555 2000.76,628.555 
  "/>
<g clip-path="url(#clip6400)">
<text style="fill:#000000; fill-opacity:1; font-family:Symbol; font-size:52px; text-anchor:start;" transform="rotate(0, 2024.76, 642.206)" x="2024.76" y="642.206">α</text>
</g>
<g clip-path="url(#clip6400)">
<text style="fill:#000000; fill-opacity:1; font-family:Arial,Helvetica Neue,Helvetica,sans-serif; font-size:48px; text-anchor:start;" transform="rotate(0, 2057.45, 642.206)" x="2057.45" y="642.206"> = 100.0</text>
</g>
</svg>
