<?xml version="1.0" encoding="utf-8" standalone="no"?>
<!DOCTYPE svg PUBLIC "-//W3C//DTD SVG 1.1//EN"
  "http://www.w3.org/Graphics/SVG/1.1/DTD/svg11.dtd">
<!-- Created with matplotlib (http://matplotlib.org/) -->
<svg height="288pt" version="1.1" viewBox="0 0 504 288" width="504pt" xmlns="http://www.w3.org/2000/svg" xmlns:xlink="http://www.w3.org/1999/xlink">
 <defs>
  <style type="text/css">
*{stroke-linecap:butt;stroke-linejoin:round;}
  </style>
 </defs>
 <g id="figure_1">
  <g id="patch_1">
   <path d="M 0 288 
L 504 288 
L 504 0 
L 0 0 
z
" style="fill:#ffffff;"/>
  </g>
  <g id="axes_1">
   <g id="patch_2">
    <path d="M 47.675 244.2 
L 241.808523 244.2 
L 241.808523 14.3 
L 47.675 14.3 
z
" style="fill:#ffffff;"/>
   </g>
   <g id="matplotlib.axis_1">
    <g id="xtick_1">
     <g id="line2d_1">
      <defs>
       <path d="M 0 0 
L 0 3.5 
" id="mcb35eb5384" style="stroke:#000000;stroke-width:0.8;"/>
      </defs>
      <g>
       <use style="stroke:#000000;stroke-width:0.8;" x="47.675" xlink:href="#mcb35eb5384" y="244.2"/>
      </g>
     </g>
     <g id="text_1">
      <!-- 0.00 -->
      <defs>
       <path d="M 31.78125 66.40625 
Q 24.171875 66.40625 20.328125 58.90625 
Q 16.5 51.421875 16.5 36.375 
Q 16.5 21.390625 20.328125 13.890625 
Q 24.171875 6.390625 31.78125 6.390625 
Q 39.453125 6.390625 43.28125 13.890625 
Q 47.125 21.390625 47.125 36.375 
Q 47.125 51.421875 43.28125 58.90625 
Q 39.453125 66.40625 31.78125 66.40625 
z
M 31.78125 74.21875 
Q 44.046875 74.21875 50.515625 64.515625 
Q 56.984375 54.828125 56.984375 36.375 
Q 56.984375 17.96875 50.515625 8.265625 
Q 44.046875 -1.421875 31.78125 -1.421875 
Q 19.53125 -1.421875 13.0625 8.265625 
Q 6.59375 17.96875 6.59375 36.375 
Q 6.59375 54.828125 13.0625 64.515625 
Q 19.53125 74.21875 31.78125 74.21875 
z
" id="DejaVuSans-30"/>
       <path d="M 10.6875 12.40625 
L 21 12.40625 
L 21 0 
L 10.6875 0 
z
" id="DejaVuSans-2e"/>
      </defs>
      <g transform="translate(36.542188 258.798437)scale(0.1 -0.1)">
       <use xlink:href="#DejaVuSans-30"/>
       <use x="63.623047" xlink:href="#DejaVuSans-2e"/>
       <use x="95.410156" xlink:href="#DejaVuSans-30"/>
       <use x="159.033203" xlink:href="#DejaVuSans-30"/>
      </g>
     </g>
    </g>
    <g id="xtick_2">
     <g id="line2d_2">
      <g>
       <use style="stroke:#000000;stroke-width:0.8;" x="84.652814" xlink:href="#mcb35eb5384" y="244.2"/>
      </g>
     </g>
     <g id="text_2">
      <!-- 0.02 -->
      <defs>
       <path d="M 19.1875 8.296875 
L 53.609375 8.296875 
L 53.609375 0 
L 7.328125 0 
L 7.328125 8.296875 
Q 12.9375 14.109375 22.625 23.890625 
Q 32.328125 33.6875 34.8125 36.53125 
Q 39.546875 41.84375 41.421875 45.53125 
Q 43.3125 49.21875 43.3125 52.78125 
Q 43.3125 58.59375 39.234375 62.25 
Q 35.15625 65.921875 28.609375 65.921875 
Q 23.96875 65.921875 18.8125 64.3125 
Q 13.671875 62.703125 7.8125 59.421875 
L 7.8125 69.390625 
Q 13.765625 71.78125 18.9375 73 
Q 24.125 74.21875 28.421875 74.21875 
Q 39.75 74.21875 46.484375 68.546875 
Q 53.21875 62.890625 53.21875 53.421875 
Q 53.21875 48.921875 51.53125 44.890625 
Q 49.859375 40.875 45.40625 35.40625 
Q 44.1875 33.984375 37.640625 27.21875 
Q 31.109375 20.453125 19.1875 8.296875 
z
" id="DejaVuSans-32"/>
      </defs>
      <g transform="translate(73.520001 258.798437)scale(0.1 -0.1)">
       <use xlink:href="#DejaVuSans-30"/>
       <use x="63.623047" xlink:href="#DejaVuSans-2e"/>
       <use x="95.410156" xlink:href="#DejaVuSans-30"/>
       <use x="159.033203" xlink:href="#DejaVuSans-32"/>
      </g>
     </g>
    </g>
    <g id="xtick_3">
     <g id="line2d_3">
      <g>
       <use style="stroke:#000000;stroke-width:0.8;" x="121.630628" xlink:href="#mcb35eb5384" y="244.2"/>
      </g>
     </g>
     <g id="text_3">
      <!-- 0.04 -->
      <defs>
       <path d="M 37.796875 64.3125 
L 12.890625 25.390625 
L 37.796875 25.390625 
z
M 35.203125 72.90625 
L 47.609375 72.90625 
L 47.609375 25.390625 
L 58.015625 25.390625 
L 58.015625 17.1875 
L 47.609375 17.1875 
L 47.609375 0 
L 37.796875 0 
L 37.796875 17.1875 
L 4.890625 17.1875 
L 4.890625 26.703125 
z
" id="DejaVuSans-34"/>
      </defs>
      <g transform="translate(110.497815 258.798437)scale(0.1 -0.1)">
       <use xlink:href="#DejaVuSans-30"/>
       <use x="63.623047" xlink:href="#DejaVuSans-2e"/>
       <use x="95.410156" xlink:href="#DejaVuSans-30"/>
       <use x="159.033203" xlink:href="#DejaVuSans-34"/>
      </g>
     </g>
    </g>
    <g id="xtick_4">
     <g id="line2d_4">
      <g>
       <use style="stroke:#000000;stroke-width:0.8;" x="158.608442" xlink:href="#mcb35eb5384" y="244.2"/>
      </g>
     </g>
     <g id="text_4">
      <!-- 0.06 -->
      <defs>
       <path d="M 33.015625 40.375 
Q 26.375 40.375 22.484375 35.828125 
Q 18.609375 31.296875 18.609375 23.390625 
Q 18.609375 15.53125 22.484375 10.953125 
Q 26.375 6.390625 33.015625 6.390625 
Q 39.65625 6.390625 43.53125 10.953125 
Q 47.40625 15.53125 47.40625 23.390625 
Q 47.40625 31.296875 43.53125 35.828125 
Q 39.65625 40.375 33.015625 40.375 
z
M 52.59375 71.296875 
L 52.59375 62.3125 
Q 48.875 64.0625 45.09375 64.984375 
Q 41.3125 65.921875 37.59375 65.921875 
Q 27.828125 65.921875 22.671875 59.328125 
Q 17.53125 52.734375 16.796875 39.40625 
Q 19.671875 43.65625 24.015625 45.921875 
Q 28.375 48.1875 33.59375 48.1875 
Q 44.578125 48.1875 50.953125 41.515625 
Q 57.328125 34.859375 57.328125 23.390625 
Q 57.328125 12.15625 50.6875 5.359375 
Q 44.046875 -1.421875 33.015625 -1.421875 
Q 20.359375 -1.421875 13.671875 8.265625 
Q 6.984375 17.96875 6.984375 36.375 
Q 6.984375 53.65625 15.1875 63.9375 
Q 23.390625 74.21875 37.203125 74.21875 
Q 40.921875 74.21875 44.703125 73.484375 
Q 48.484375 72.75 52.59375 71.296875 
z
" id="DejaVuSans-36"/>
      </defs>
      <g transform="translate(147.475629 258.798437)scale(0.1 -0.1)">
       <use xlink:href="#DejaVuSans-30"/>
       <use x="63.623047" xlink:href="#DejaVuSans-2e"/>
       <use x="95.410156" xlink:href="#DejaVuSans-30"/>
       <use x="159.033203" xlink:href="#DejaVuSans-36"/>
      </g>
     </g>
    </g>
    <g id="xtick_5">
     <g id="line2d_5">
      <g>
       <use style="stroke:#000000;stroke-width:0.8;" x="195.586255" xlink:href="#mcb35eb5384" y="244.2"/>
      </g>
     </g>
     <g id="text_5">
      <!-- 0.08 -->
      <defs>
       <path d="M 31.78125 34.625 
Q 24.75 34.625 20.71875 30.859375 
Q 16.703125 27.09375 16.703125 20.515625 
Q 16.703125 13.921875 20.71875 10.15625 
Q 24.75 6.390625 31.78125 6.390625 
Q 38.8125 6.390625 42.859375 10.171875 
Q 46.921875 13.96875 46.921875 20.515625 
Q 46.921875 27.09375 42.890625 30.859375 
Q 38.875 34.625 31.78125 34.625 
z
M 21.921875 38.8125 
Q 15.578125 40.375 12.03125 44.71875 
Q 8.5 49.078125 8.5 55.328125 
Q 8.5 64.0625 14.71875 69.140625 
Q 20.953125 74.21875 31.78125 74.21875 
Q 42.671875 74.21875 48.875 69.140625 
Q 55.078125 64.0625 55.078125 55.328125 
Q 55.078125 49.078125 51.53125 44.71875 
Q 48 40.375 41.703125 38.8125 
Q 48.828125 37.15625 52.796875 32.3125 
Q 56.78125 27.484375 56.78125 20.515625 
Q 56.78125 9.90625 50.3125 4.234375 
Q 43.84375 -1.421875 31.78125 -1.421875 
Q 19.734375 -1.421875 13.25 4.234375 
Q 6.78125 9.90625 6.78125 20.515625 
Q 6.78125 27.484375 10.78125 32.3125 
Q 14.796875 37.15625 21.921875 38.8125 
z
M 18.3125 54.390625 
Q 18.3125 48.734375 21.84375 45.5625 
Q 25.390625 42.390625 31.78125 42.390625 
Q 38.140625 42.390625 41.71875 45.5625 
Q 45.3125 48.734375 45.3125 54.390625 
Q 45.3125 60.0625 41.71875 63.234375 
Q 38.140625 66.40625 31.78125 66.40625 
Q 25.390625 66.40625 21.84375 63.234375 
Q 18.3125 60.0625 18.3125 54.390625 
z
" id="DejaVuSans-38"/>
      </defs>
      <g transform="translate(184.453443 258.798437)scale(0.1 -0.1)">
       <use xlink:href="#DejaVuSans-30"/>
       <use x="63.623047" xlink:href="#DejaVuSans-2e"/>
       <use x="95.410156" xlink:href="#DejaVuSans-30"/>
       <use x="159.033203" xlink:href="#DejaVuSans-38"/>
      </g>
     </g>
    </g>
    <g id="xtick_6">
     <g id="line2d_6">
      <g>
       <use style="stroke:#000000;stroke-width:0.8;" x="232.564069" xlink:href="#mcb35eb5384" y="244.2"/>
      </g>
     </g>
     <g id="text_6">
      <!-- 0.10 -->
      <defs>
       <path d="M 12.40625 8.296875 
L 28.515625 8.296875 
L 28.515625 63.921875 
L 10.984375 60.40625 
L 10.984375 69.390625 
L 28.421875 72.90625 
L 38.28125 72.90625 
L 38.28125 8.296875 
L 54.390625 8.296875 
L 54.390625 0 
L 12.40625 0 
z
" id="DejaVuSans-31"/>
      </defs>
      <g transform="translate(221.431257 258.798437)scale(0.1 -0.1)">
       <use xlink:href="#DejaVuSans-30"/>
       <use x="63.623047" xlink:href="#DejaVuSans-2e"/>
       <use x="95.410156" xlink:href="#DejaVuSans-31"/>
       <use x="159.033203" xlink:href="#DejaVuSans-30"/>
      </g>
     </g>
    </g>
    <g id="text_7">
     <!-- $q$ -->
     <defs>
      <path d="M 41.703125 8.203125 
Q 38.09375 3.46875 33.171875 1.015625 
Q 28.265625 -1.421875 22.3125 -1.421875 
Q 14.015625 -1.421875 9.296875 4.171875 
Q 4.59375 9.765625 4.59375 19.578125 
Q 4.59375 27.484375 7.5 34.859375 
Q 10.40625 42.234375 15.828125 48.09375 
Q 19.34375 51.90625 23.90625 53.953125 
Q 28.46875 56 33.5 56 
Q 39.546875 56 43.453125 53.609375 
Q 47.359375 51.21875 49.125 46.390625 
L 50.6875 54.59375 
L 59.71875 54.59375 
L 45.125 -20.609375 
L 36.078125 -20.609375 
z
M 13.921875 20.90625 
Q 13.921875 13.671875 16.9375 9.890625 
Q 19.96875 6.109375 25.6875 6.109375 
Q 34.1875 6.109375 40.1875 14.234375 
Q 46.1875 22.359375 46.1875 33.984375 
Q 46.1875 41.015625 43.078125 44.75 
Q 39.984375 48.484375 34.1875 48.484375 
Q 29.9375 48.484375 26.3125 46.5 
Q 22.703125 44.53125 20.015625 40.71875 
Q 17.1875 36.71875 15.546875 31.34375 
Q 13.921875 25.984375 13.921875 20.90625 
z
" id="DejaVuSans-Oblique-71"/>
     </defs>
     <g transform="translate(141.541761 272.45625)scale(0.1 -0.1)">
      <use xlink:href="#DejaVuSans-Oblique-71"/>
     </g>
    </g>
   </g>
   <g id="matplotlib.axis_2">
    <g id="ytick_1">
     <g id="line2d_7">
      <path clip-path="url(#pca5fae3b7d)" d="M 47.675 244.2 
L 241.808523 244.2 
" style="fill:none;stroke:#b0b0b0;stroke-dasharray:0.8,1.32;stroke-dashoffset:0;stroke-opacity:0.6;stroke-width:0.8;"/>
     </g>
     <g id="line2d_8">
      <defs>
       <path d="M 0 0 
L -3.5 0 
" id="m95d6093202" style="stroke:#000000;stroke-width:0.8;"/>
      </defs>
      <g>
       <use style="stroke:#000000;stroke-width:0.8;" x="47.675" xlink:href="#m95d6093202" y="244.2"/>
      </g>
     </g>
     <g id="text_8">
      <!-- 0.0 -->
      <g transform="translate(24.771875 247.999219)scale(0.1 -0.1)">
       <use xlink:href="#DejaVuSans-30"/>
       <use x="63.623047" xlink:href="#DejaVuSans-2e"/>
       <use x="95.410156" xlink:href="#DejaVuSans-30"/>
      </g>
     </g>
    </g>
    <g id="ytick_2">
     <g id="line2d_9">
      <path clip-path="url(#pca5fae3b7d)" d="M 47.675 198.675248 
L 241.808523 198.675248 
" style="fill:none;stroke:#b0b0b0;stroke-dasharray:0.8,1.32;stroke-dashoffset:0;stroke-opacity:0.6;stroke-width:0.8;"/>
     </g>
     <g id="line2d_10">
      <g>
       <use style="stroke:#000000;stroke-width:0.8;" x="47.675" xlink:href="#m95d6093202" y="198.675248"/>
      </g>
     </g>
     <g id="text_9">
      <!-- 0.2 -->
      <g transform="translate(24.771875 202.474466)scale(0.1 -0.1)">
       <use xlink:href="#DejaVuSans-30"/>
       <use x="63.623047" xlink:href="#DejaVuSans-2e"/>
       <use x="95.410156" xlink:href="#DejaVuSans-32"/>
      </g>
     </g>
    </g>
    <g id="ytick_3">
     <g id="line2d_11">
      <path clip-path="url(#pca5fae3b7d)" d="M 47.675 153.150495 
L 241.808523 153.150495 
" style="fill:none;stroke:#b0b0b0;stroke-dasharray:0.8,1.32;stroke-dashoffset:0;stroke-opacity:0.6;stroke-width:0.8;"/>
     </g>
     <g id="line2d_12">
      <g>
       <use style="stroke:#000000;stroke-width:0.8;" x="47.675" xlink:href="#m95d6093202" y="153.150495"/>
      </g>
     </g>
     <g id="text_10">
      <!-- 0.4 -->
      <g transform="translate(24.771875 156.949714)scale(0.1 -0.1)">
       <use xlink:href="#DejaVuSans-30"/>
       <use x="63.623047" xlink:href="#DejaVuSans-2e"/>
       <use x="95.410156" xlink:href="#DejaVuSans-34"/>
      </g>
     </g>
    </g>
    <g id="ytick_4">
     <g id="line2d_13">
      <path clip-path="url(#pca5fae3b7d)" d="M 47.675 107.625743 
L 241.808523 107.625743 
" style="fill:none;stroke:#b0b0b0;stroke-dasharray:0.8,1.32;stroke-dashoffset:0;stroke-opacity:0.6;stroke-width:0.8;"/>
     </g>
     <g id="line2d_14">
      <g>
       <use style="stroke:#000000;stroke-width:0.8;" x="47.675" xlink:href="#m95d6093202" y="107.625743"/>
      </g>
     </g>
     <g id="text_11">
      <!-- 0.6 -->
      <g transform="translate(24.771875 111.424961)scale(0.1 -0.1)">
       <use xlink:href="#DejaVuSans-30"/>
       <use x="63.623047" xlink:href="#DejaVuSans-2e"/>
       <use x="95.410156" xlink:href="#DejaVuSans-36"/>
      </g>
     </g>
    </g>
    <g id="ytick_5">
     <g id="line2d_15">
      <path clip-path="url(#pca5fae3b7d)" d="M 47.675 62.10099 
L 241.808523 62.10099 
" style="fill:none;stroke:#b0b0b0;stroke-dasharray:0.8,1.32;stroke-dashoffset:0;stroke-opacity:0.6;stroke-width:0.8;"/>
     </g>
     <g id="line2d_16">
      <g>
       <use style="stroke:#000000;stroke-width:0.8;" x="47.675" xlink:href="#m95d6093202" y="62.10099"/>
      </g>
     </g>
     <g id="text_12">
      <!-- 0.8 -->
      <g transform="translate(24.771875 65.900209)scale(0.1 -0.1)">
       <use xlink:href="#DejaVuSans-30"/>
       <use x="63.623047" xlink:href="#DejaVuSans-2e"/>
       <use x="95.410156" xlink:href="#DejaVuSans-38"/>
      </g>
     </g>
    </g>
    <g id="ytick_6">
     <g id="line2d_17">
      <path clip-path="url(#pca5fae3b7d)" d="M 47.675 16.576238 
L 241.808523 16.576238 
" style="fill:none;stroke:#b0b0b0;stroke-dasharray:0.8,1.32;stroke-dashoffset:0;stroke-opacity:0.6;stroke-width:0.8;"/>
     </g>
     <g id="line2d_18">
      <g>
       <use style="stroke:#000000;stroke-width:0.8;" x="47.675" xlink:href="#m95d6093202" y="16.576238"/>
      </g>
     </g>
     <g id="text_13">
      <!-- 1.0 -->
      <g transform="translate(24.771875 20.375456)scale(0.1 -0.1)">
       <use xlink:href="#DejaVuSans-31"/>
       <use x="63.623047" xlink:href="#DejaVuSans-2e"/>
       <use x="95.410156" xlink:href="#DejaVuSans-30"/>
      </g>
     </g>
    </g>
    <g id="text_14">
     <!-- Power -->
     <defs>
      <path d="M 19.671875 64.796875 
L 19.671875 37.40625 
L 32.078125 37.40625 
Q 38.96875 37.40625 42.71875 40.96875 
Q 46.484375 44.53125 46.484375 51.125 
Q 46.484375 57.671875 42.71875 61.234375 
Q 38.96875 64.796875 32.078125 64.796875 
z
M 9.8125 72.90625 
L 32.078125 72.90625 
Q 44.34375 72.90625 50.609375 67.359375 
Q 56.890625 61.8125 56.890625 51.125 
Q 56.890625 40.328125 50.609375 34.8125 
Q 44.34375 29.296875 32.078125 29.296875 
L 19.671875 29.296875 
L 19.671875 0 
L 9.8125 0 
z
" id="DejaVuSans-50"/>
      <path d="M 30.609375 48.390625 
Q 23.390625 48.390625 19.1875 42.75 
Q 14.984375 37.109375 14.984375 27.296875 
Q 14.984375 17.484375 19.15625 11.84375 
Q 23.34375 6.203125 30.609375 6.203125 
Q 37.796875 6.203125 41.984375 11.859375 
Q 46.1875 17.53125 46.1875 27.296875 
Q 46.1875 37.015625 41.984375 42.703125 
Q 37.796875 48.390625 30.609375 48.390625 
z
M 30.609375 56 
Q 42.328125 56 49.015625 48.375 
Q 55.71875 40.765625 55.71875 27.296875 
Q 55.71875 13.875 49.015625 6.21875 
Q 42.328125 -1.421875 30.609375 -1.421875 
Q 18.84375 -1.421875 12.171875 6.21875 
Q 5.515625 13.875 5.515625 27.296875 
Q 5.515625 40.765625 12.171875 48.375 
Q 18.84375 56 30.609375 56 
z
" id="DejaVuSans-6f"/>
      <path d="M 4.203125 54.6875 
L 13.1875 54.6875 
L 24.421875 12.015625 
L 35.59375 54.6875 
L 46.1875 54.6875 
L 57.421875 12.015625 
L 68.609375 54.6875 
L 77.59375 54.6875 
L 63.28125 0 
L 52.6875 0 
L 40.921875 44.828125 
L 29.109375 0 
L 18.5 0 
z
" id="DejaVuSans-77"/>
      <path d="M 56.203125 29.59375 
L 56.203125 25.203125 
L 14.890625 25.203125 
Q 15.484375 15.921875 20.484375 11.0625 
Q 25.484375 6.203125 34.421875 6.203125 
Q 39.59375 6.203125 44.453125 7.46875 
Q 49.3125 8.734375 54.109375 11.28125 
L 54.109375 2.78125 
Q 49.265625 0.734375 44.1875 -0.34375 
Q 39.109375 -1.421875 33.890625 -1.421875 
Q 20.796875 -1.421875 13.15625 6.1875 
Q 5.515625 13.8125 5.515625 26.8125 
Q 5.515625 40.234375 12.765625 48.109375 
Q 20.015625 56 32.328125 56 
Q 43.359375 56 49.78125 48.890625 
Q 56.203125 41.796875 56.203125 29.59375 
z
M 47.21875 32.234375 
Q 47.125 39.59375 43.09375 43.984375 
Q 39.0625 48.390625 32.421875 48.390625 
Q 24.90625 48.390625 20.390625 44.140625 
Q 15.875 39.890625 15.1875 32.171875 
z
" id="DejaVuSans-65"/>
      <path d="M 41.109375 46.296875 
Q 39.59375 47.171875 37.8125 47.578125 
Q 36.03125 48 33.890625 48 
Q 26.265625 48 22.1875 43.046875 
Q 18.109375 38.09375 18.109375 28.8125 
L 18.109375 0 
L 9.078125 0 
L 9.078125 54.6875 
L 18.109375 54.6875 
L 18.109375 46.1875 
Q 20.953125 51.171875 25.484375 53.578125 
Q 30.03125 56 36.53125 56 
Q 37.453125 56 38.578125 55.875 
Q 39.703125 55.765625 41.0625 55.515625 
z
" id="DejaVuSans-72"/>
     </defs>
     <g transform="translate(18.692187 144.542969)rotate(-90)scale(0.1 -0.1)">
      <use xlink:href="#DejaVuSans-50"/>
      <use x="60.255859" xlink:href="#DejaVuSans-6f"/>
      <use x="121.4375" xlink:href="#DejaVuSans-77"/>
      <use x="203.224609" xlink:href="#DejaVuSans-65"/>
      <use x="264.748047" xlink:href="#DejaVuSans-72"/>
     </g>
    </g>
   </g>
   <g id="line2d_19">
    <path clip-path="url(#pca5fae3b7d)" d="M 66.163907 240.785644 
L 80.553443 236.688416 
L 106.142057 222.120495 
L 151.645764 174.091881 
L 232.564069 64.832475 
" style="fill:none;stroke:#000000;stroke-dasharray:1.5,2.475;stroke-dashoffset:0;stroke-width:1.5;"/>
    <defs>
     <path d="M 0 3 
C 0.795609 3 1.55874 2.683901 2.12132 2.12132 
C 2.683901 1.55874 3 0.795609 3 0 
C 3 -0.795609 2.683901 -1.55874 2.12132 -2.12132 
C 1.55874 -2.683901 0.795609 -3 0 -3 
C -0.795609 -3 -1.55874 -2.683901 -2.12132 -2.12132 
C -2.683901 -1.55874 -3 -0.795609 -3 0 
C -3 0.795609 -2.683901 1.55874 -2.12132 2.12132 
C -1.55874 2.683901 -0.795609 3 0 3 
z
" id="m89fcaf8e3d" style="stroke:#000000;"/>
    </defs>
    <g clip-path="url(#pca5fae3b7d)">
     <use style="stroke:#000000;" x="66.163907" xlink:href="#m89fcaf8e3d" y="240.785644"/>
     <use style="stroke:#000000;" x="80.553443" xlink:href="#m89fcaf8e3d" y="236.688416"/>
     <use style="stroke:#000000;" x="106.142057" xlink:href="#m89fcaf8e3d" y="222.120495"/>
     <use style="stroke:#000000;" x="151.645764" xlink:href="#m89fcaf8e3d" y="174.091881"/>
     <use style="stroke:#000000;" x="232.564069" xlink:href="#m89fcaf8e3d" y="64.832475"/>
    </g>
   </g>
   <g id="line2d_20">
    <path clip-path="url(#pca5fae3b7d)" d="M 66.163907 242.37901 
L 80.553443 239.647525 
L 106.142057 219.161386 
L 151.645764 143.362673 
L 232.564069 31.82703 
" style="fill:none;stroke:#000000;stroke-dasharray:5.55,2.4;stroke-dashoffset:0;stroke-width:1.5;"/>
    <g clip-path="url(#pca5fae3b7d)">
     <use style="stroke:#000000;" x="66.163907" xlink:href="#m89fcaf8e3d" y="242.37901"/>
     <use style="stroke:#000000;" x="80.553443" xlink:href="#m89fcaf8e3d" y="239.647525"/>
     <use style="stroke:#000000;" x="106.142057" xlink:href="#m89fcaf8e3d" y="219.161386"/>
     <use style="stroke:#000000;" x="151.645764" xlink:href="#m89fcaf8e3d" y="143.362673"/>
     <use style="stroke:#000000;" x="232.564069" xlink:href="#m89fcaf8e3d" y="31.82703"/>
    </g>
   </g>
   <g id="line2d_21">
    <path clip-path="url(#pca5fae3b7d)" d="M 66.163907 243.744752 
L 80.553443 239.647525 
L 106.142057 214.836535 
L 151.645764 101.935149 
L 232.564069 27.274554 
" style="fill:none;stroke:#000000;stroke-linecap:square;stroke-width:1.5;"/>
    <g clip-path="url(#pca5fae3b7d)">
     <use style="stroke:#000000;" x="66.163907" xlink:href="#m89fcaf8e3d" y="243.744752"/>
     <use style="stroke:#000000;" x="80.553443" xlink:href="#m89fcaf8e3d" y="239.647525"/>
     <use style="stroke:#000000;" x="106.142057" xlink:href="#m89fcaf8e3d" y="214.836535"/>
     <use style="stroke:#000000;" x="151.645764" xlink:href="#m89fcaf8e3d" y="101.935149"/>
     <use style="stroke:#000000;" x="232.564069" xlink:href="#m89fcaf8e3d" y="27.274554"/>
    </g>
   </g>
   <g id="patch_3">
    <path d="M 47.675 244.2 
L 47.675 14.3 
" style="fill:none;stroke:#000000;stroke-linecap:square;stroke-linejoin:miter;stroke-width:0.8;"/>
   </g>
   <g id="patch_4">
    <path d="M 47.675 244.2 
L 241.808523 244.2 
" style="fill:none;stroke:#000000;stroke-linecap:square;stroke-linejoin:miter;stroke-width:0.8;"/>
   </g>
   <g id="legend_1">
    <g id="line2d_22">
     <path d="M 56.675 27.398437 
L 76.675 27.398437 
" style="fill:none;stroke:#000000;stroke-dasharray:1.5,2.475;stroke-dashoffset:0;stroke-width:1.5;"/>
    </g>
    <g id="line2d_23">
     <g>
      <use style="stroke:#000000;" x="66.675" xlink:href="#m89fcaf8e3d" y="27.398437"/>
     </g>
    </g>
    <g id="text_15">
     <!-- $n = 500$ -->
     <defs>
      <path d="M 55.71875 33.015625 
L 49.3125 0 
L 40.28125 0 
L 46.6875 32.671875 
Q 47.125 34.96875 47.359375 36.71875 
Q 47.609375 38.484375 47.609375 39.5 
Q 47.609375 43.609375 45.015625 45.890625 
Q 42.4375 48.1875 37.796875 48.1875 
Q 30.5625 48.1875 25.34375 43.375 
Q 20.125 38.578125 18.5 30.328125 
L 12.5 0 
L 3.515625 0 
L 14.109375 54.6875 
L 23.09375 54.6875 
L 21.296875 46.09375 
Q 25.046875 50.828125 30.3125 53.40625 
Q 35.59375 56 41.40625 56 
Q 48.640625 56 52.609375 52.09375 
Q 56.59375 48.1875 56.59375 41.109375 
Q 56.59375 39.359375 56.375 37.359375 
Q 56.15625 35.359375 55.71875 33.015625 
z
" id="DejaVuSans-Oblique-6e"/>
      <path d="M 10.59375 45.40625 
L 73.1875 45.40625 
L 73.1875 37.203125 
L 10.59375 37.203125 
z
M 10.59375 25.484375 
L 73.1875 25.484375 
L 73.1875 17.1875 
L 10.59375 17.1875 
z
" id="DejaVuSans-3d"/>
      <path d="M 10.796875 72.90625 
L 49.515625 72.90625 
L 49.515625 64.59375 
L 19.828125 64.59375 
L 19.828125 46.734375 
Q 21.96875 47.46875 24.109375 47.828125 
Q 26.265625 48.1875 28.421875 48.1875 
Q 40.625 48.1875 47.75 41.5 
Q 54.890625 34.8125 54.890625 23.390625 
Q 54.890625 11.625 47.5625 5.09375 
Q 40.234375 -1.421875 26.90625 -1.421875 
Q 22.3125 -1.421875 17.546875 -0.640625 
Q 12.796875 0.140625 7.71875 1.703125 
L 7.71875 11.625 
Q 12.109375 9.234375 16.796875 8.0625 
Q 21.484375 6.890625 26.703125 6.890625 
Q 35.15625 6.890625 40.078125 11.328125 
Q 45.015625 15.765625 45.015625 23.390625 
Q 45.015625 31 40.078125 35.4375 
Q 35.15625 39.890625 26.703125 39.890625 
Q 22.75 39.890625 18.8125 39.015625 
Q 14.890625 38.140625 10.796875 36.28125 
z
" id="DejaVuSans-35"/>
     </defs>
     <g transform="translate(84.675 30.898437)scale(0.1 -0.1)">
      <use transform="translate(0 0.78125)" xlink:href="#DejaVuSans-Oblique-6e"/>
      <use transform="translate(82.861328 0.78125)" xlink:href="#DejaVuSans-3d"/>
      <use transform="translate(186.132812 0.78125)" xlink:href="#DejaVuSans-35"/>
      <use transform="translate(249.755859 0.78125)" xlink:href="#DejaVuSans-30"/>
      <use transform="translate(313.378906 0.78125)" xlink:href="#DejaVuSans-30"/>
     </g>
    </g>
    <g id="line2d_24">
     <path d="M 56.675 42.076562 
L 76.675 42.076562 
" style="fill:none;stroke:#000000;stroke-dasharray:5.55,2.4;stroke-dashoffset:0;stroke-width:1.5;"/>
    </g>
    <g id="line2d_25">
     <g>
      <use style="stroke:#000000;" x="66.675" xlink:href="#m89fcaf8e3d" y="42.076562"/>
     </g>
    </g>
    <g id="text_16">
     <!-- $n = 1000$ -->
     <g transform="translate(84.675 45.576562)scale(0.1 -0.1)">
      <use transform="translate(0 0.78125)" xlink:href="#DejaVuSans-Oblique-6e"/>
      <use transform="translate(82.861328 0.78125)" xlink:href="#DejaVuSans-3d"/>
      <use transform="translate(186.132812 0.78125)" xlink:href="#DejaVuSans-31"/>
      <use transform="translate(249.755859 0.78125)" xlink:href="#DejaVuSans-30"/>
      <use transform="translate(313.378906 0.78125)" xlink:href="#DejaVuSans-30"/>
      <use transform="translate(377.001953 0.78125)" xlink:href="#DejaVuSans-30"/>
     </g>
    </g>
    <g id="line2d_26">
     <path d="M 56.675 56.754687 
L 76.675 56.754687 
" style="fill:none;stroke:#000000;stroke-linecap:square;stroke-width:1.5;"/>
    </g>
    <g id="line2d_27">
     <g>
      <use style="stroke:#000000;" x="66.675" xlink:href="#m89fcaf8e3d" y="56.754687"/>
     </g>
    </g>
    <g id="text_17">
     <!-- $n = 2000$ -->
     <g transform="translate(84.675 60.254687)scale(0.1 -0.1)">
      <use transform="translate(0 0.78125)" xlink:href="#DejaVuSans-Oblique-6e"/>
      <use transform="translate(82.861328 0.78125)" xlink:href="#DejaVuSans-3d"/>
      <use transform="translate(186.132812 0.78125)" xlink:href="#DejaVuSans-32"/>
      <use transform="translate(249.755859 0.78125)" xlink:href="#DejaVuSans-30"/>
      <use transform="translate(313.378906 0.78125)" xlink:href="#DejaVuSans-30"/>
      <use transform="translate(377.001953 0.78125)" xlink:href="#DejaVuSans-30"/>
     </g>
    </g>
   </g>
  </g>
  <g id="axes_2">
   <g id="patch_5">
    <path d="M 295.566477 244.2 
L 489.7 244.2 
L 489.7 14.3 
L 295.566477 14.3 
z
" style="fill:#ffffff;"/>
   </g>
   <g id="PolyCollection_1">
    <defs>
     <path d="M 314.226364 -54.277399 
L 314.164539 -54.277399 
L 314.169452 -54.593751 
L 314.185468 -54.910103 
L 314.181538 -55.226455 
L 314.152334 -55.542807 
L 314.131023 -55.85916 
L 314.042265 -56.175512 
L 312.91745 -56.491864 
L 308.493557 -56.808216 
L 304.390728 -57.124568 
L 307.770627 -57.44092 
L 312.460987 -57.757272 
L 313.823393 -58.073624 
L 313.950954 -58.389976 
L 313.973302 -58.706329 
L 314.012442 -59.022681 
L 314.029569 -59.339033 
L 314.019451 -59.655385 
L 314.036803 -59.971737 
L 314.094848 -60.288089 
L 314.135393 -60.604441 
L 314.139669 -60.920793 
L 314.133815 -61.237145 
L 314.128605 -61.553497 
L 314.127407 -61.86985 
L 314.132245 -62.186202 
L 314.137004 -62.502554 
L 314.145584 -62.818906 
L 314.15379 -63.135258 
L 314.152957 -63.45161 
L 314.160344 -63.767962 
L 314.172033 -64.084314 
L 314.177965 -64.400666 
L 314.176308 -64.717019 
L 314.170436 -65.033371 
L 314.170731 -65.349723 
L 314.175093 -65.666075 
L 314.181719 -65.982427 
L 314.184981 -66.298779 
L 314.18291 -66.615131 
L 314.185022 -66.931483 
L 314.19062 -67.247835 
L 314.191639 -67.564188 
L 314.190729 -67.88054 
L 314.187699 -68.196892 
L 314.180979 -68.513244 
L 314.178696 -68.829596 
L 314.181192 -69.145948 
L 314.183464 -69.4623 
L 314.188543 -69.778652 
L 314.193493 -70.095004 
L 314.194787 -70.411357 
L 314.193117 -70.727709 
L 314.190042 -71.044061 
L 314.189375 -71.360413 
L 314.192084 -71.676765 
L 314.194612 -71.993117 
L 314.195366 -72.309469 
L 314.195448 -72.625821 
L 314.195452 -72.942173 
L 314.195452 -73.258526 
L 314.195451 -73.574878 
L 314.195427 -73.89123 
L 314.195102 -74.207582 
L 314.193585 -74.523934 
L 314.191412 -74.840286 
L 314.190735 -75.156638 
L 314.191059 -75.47299 
L 314.192928 -75.789342 
L 314.194649 -76.105695 
L 314.194091 -76.422047 
L 314.192129 -76.738399 
L 314.192284 -77.054751 
L 314.194319 -77.371103 
L 314.1953 -77.687455 
L 314.195444 -78.003807 
L 314.195452 -78.320159 
L 314.195452 -78.636511 
L 314.195452 -78.952864 
L 314.195452 -79.269216 
L 314.195452 -79.585568 
L 314.195452 -79.90192 
L 314.195452 -80.218272 
L 314.195452 -80.534624 
L 314.195452 -80.850976 
L 314.195452 -81.167328 
L 314.195452 -81.48368 
L 314.195452 -81.800033 
L 314.19545 -82.116385 
L 314.195404 -82.432737 
L 314.194909 -82.749089 
L 314.193147 -83.065441 
L 314.191782 -83.381793 
L 314.193263 -83.698145 
L 314.194963 -84.014497 
L 314.195409 -84.330849 
L 314.195406 -84.647202 
L 314.194936 -84.963554 
L 314.193205 -85.279906 
L 314.191781 -85.596258 
L 314.199122 -85.596258 
L 314.199122 -85.596258 
L 314.197698 -85.279906 
L 314.195967 -84.963554 
L 314.195497 -84.647202 
L 314.195494 -84.330849 
L 314.195941 -84.014497 
L 314.19764 -83.698145 
L 314.199121 -83.381793 
L 314.197757 -83.065441 
L 314.195994 -82.749089 
L 314.195499 -82.432737 
L 314.195453 -82.116385 
L 314.195452 -81.800033 
L 314.195452 -81.48368 
L 314.195452 -81.167328 
L 314.195452 -80.850976 
L 314.195452 -80.534624 
L 314.195452 -80.218272 
L 314.195452 -79.90192 
L 314.195452 -79.585568 
L 314.195452 -79.269216 
L 314.195452 -78.952864 
L 314.195452 -78.636511 
L 314.195452 -78.320159 
L 314.195459 -78.003807 
L 314.195603 -77.687455 
L 314.196584 -77.371103 
L 314.19862 -77.054751 
L 314.198774 -76.738399 
L 314.196812 -76.422047 
L 314.196255 -76.105695 
L 314.197975 -75.789342 
L 314.199844 -75.47299 
L 314.200168 -75.156638 
L 314.199491 -74.840286 
L 314.197318 -74.523934 
L 314.195801 -74.207582 
L 314.195477 -73.89123 
L 314.195452 -73.574878 
L 314.195452 -73.258526 
L 314.195452 -72.942173 
L 314.195455 -72.625821 
L 314.195537 -72.309469 
L 314.196292 -71.993117 
L 314.19882 -71.676765 
L 314.201529 -71.360413 
L 314.200862 -71.044061 
L 314.197786 -70.727709 
L 314.196116 -70.411357 
L 314.19741 -70.095004 
L 314.202361 -69.778652 
L 314.207439 -69.4623 
L 314.209712 -69.145948 
L 314.212208 -68.829596 
L 314.209925 -68.513244 
L 314.203205 -68.196892 
L 314.200175 -67.88054 
L 314.199264 -67.564188 
L 314.200283 -67.247835 
L 314.205881 -66.931483 
L 314.207993 -66.615131 
L 314.205923 -66.298779 
L 314.209184 -65.982427 
L 314.21581 -65.666075 
L 314.220172 -65.349723 
L 314.220467 -65.033371 
L 314.214595 -64.717019 
L 314.212938 -64.400666 
L 314.21887 -64.084314 
L 314.230559 -63.767962 
L 314.237946 -63.45161 
L 314.237113 -63.135258 
L 314.24532 -62.818906 
L 314.2539 -62.502554 
L 314.258658 -62.186202 
L 314.263497 -61.86985 
L 314.262298 -61.553497 
L 314.257088 -61.237145 
L 314.251234 -60.920793 
L 314.25551 -60.604441 
L 314.296055 -60.288089 
L 314.354101 -59.971737 
L 314.371452 -59.655385 
L 314.361335 -59.339033 
L 314.378461 -59.022681 
L 314.417601 -58.706329 
L 314.43995 -58.389976 
L 314.56751 -58.073624 
L 315.929916 -57.757272 
L 320.620277 -57.44092 
L 324.000175 -57.124568 
L 319.897346 -56.808216 
L 315.473453 -56.491864 
L 314.348638 -56.175512 
L 314.25988 -55.85916 
L 314.238569 -55.542807 
L 314.209366 -55.226455 
L 314.205435 -54.910103 
L 314.221451 -54.593751 
L 314.226364 -54.277399 
z
" id="m2d6a401e43" style="stroke:#000000;stroke-opacity:0.2;"/>
    </defs>
    <g clip-path="url(#p6fa9834a02)">
     <use style="fill-opacity:0.2;stroke:#000000;stroke-opacity:0.2;" x="0" xlink:href="#m2d6a401e43" y="288"/>
    </g>
   </g>
   <g id="PolyCollection_2">
    <defs>
     <path d="M 353.44419 -54.320461 
L 353.3845 -54.320461 
L 353.385506 -54.581342 
L 353.391667 -54.842223 
L 353.395068 -55.103105 
L 353.386058 -55.363986 
L 353.336249 -55.624867 
L 353.121619 -55.885748 
L 352.385666 -56.146629 
L 350.574737 -56.40751 
L 347.572742 -56.668391 
L 344.578665 -56.929272 
L 343.609622 -57.190153 
L 345.40187 -57.451035 
L 348.522288 -57.711916 
L 351.076175 -57.972797 
L 352.407209 -58.233678 
L 352.898207 -58.494559 
L 353.048557 -58.75544 
L 353.099167 -59.016321 
L 353.116117 -59.277202 
L 353.117847 -59.538084 
L 353.120623 -59.798965 
L 353.135389 -60.059846 
L 353.15997 -60.320727 
L 353.186328 -60.581608 
L 353.211976 -60.842489 
L 353.238482 -61.10337 
L 353.263014 -61.364251 
L 353.278739 -61.625133 
L 353.282505 -61.886014 
L 353.27714 -62.146895 
L 353.267452 -62.407776 
L 353.258333 -62.668657 
L 353.255841 -62.929538 
L 353.264902 -63.190419 
L 353.284065 -63.4513 
L 353.305727 -63.712182 
L 353.322623 -63.973063 
L 353.332461 -64.233944 
L 353.337627 -64.494825 
L 353.342153 -64.755706 
L 353.348063 -65.016587 
L 353.354317 -65.277468 
L 353.358974 -65.538349 
L 353.360823 -65.79923 
L 353.359216 -66.060112 
L 353.354709 -66.320993 
L 353.350116 -66.581874 
L 353.348688 -66.842755 
L 353.350756 -67.103636 
L 353.354146 -67.364517 
L 353.357871 -67.625398 
L 353.362956 -67.886279 
L 353.369691 -68.147161 
L 353.37632 -68.408042 
L 353.380689 -68.668923 
L 353.382432 -68.929804 
L 353.383315 -69.190685 
L 353.385076 -69.451566 
L 353.38745 -69.712447 
L 353.389102 -69.973328 
L 353.389616 -70.23421 
L 353.389731 -70.495091 
L 353.390385 -70.755972 
L 353.391935 -71.016853 
L 353.393919 -71.277734 
L 353.395565 -71.538615 
L 353.396694 -71.799496 
L 353.398041 -72.060377 
L 353.40059 -72.321259 
L 353.404298 -72.58214 
L 353.40769 -72.843021 
L 353.40922 -73.103902 
L 353.40868 -73.364783 
L 353.406938 -73.625664 
L 353.404929 -73.886545 
L 353.403296 -74.147426 
L 353.402291 -74.408307 
L 353.401741 -74.669189 
L 353.401728 -74.93007 
L 353.402806 -75.190951 
L 353.404891 -75.451832 
L 353.406703 -75.712713 
L 353.407098 -75.973594 
L 353.406548 -76.234475 
L 353.406583 -76.495356 
L 353.407817 -76.756238 
L 353.409267 -77.017119 
L 353.409808 -77.278 
L 353.409514 -77.538881 
L 353.409137 -77.799762 
L 353.409042 -78.060643 
L 353.409298 -78.321524 
L 353.410046 -78.582405 
L 353.411054 -78.843287 
L 353.411448 -79.104168 
L 353.410514 -79.365049 
L 353.408637 -79.62593 
L 353.407214 -79.886811 
L 353.407471 -80.147692 
L 353.421219 -80.147692 
L 353.421219 -80.147692 
L 353.421476 -79.886811 
L 353.420054 -79.62593 
L 353.418176 -79.365049 
L 353.417243 -79.104168 
L 353.417636 -78.843287 
L 353.418644 -78.582405 
L 353.419393 -78.321524 
L 353.419648 -78.060643 
L 353.419553 -77.799762 
L 353.419176 -77.538881 
L 353.418882 -77.278 
L 353.419424 -77.017119 
L 353.420873 -76.756238 
L 353.422108 -76.495356 
L 353.422142 -76.234475 
L 353.421592 -75.973594 
L 353.421987 -75.712713 
L 353.423799 -75.451832 
L 353.425885 -75.190951 
L 353.426963 -74.93007 
L 353.426949 -74.669189 
L 353.4264 -74.408307 
L 353.425394 -74.147426 
L 353.423762 -73.886545 
L 353.421752 -73.625664 
L 353.42001 -73.364783 
L 353.41947 -73.103902 
L 353.421001 -72.843021 
L 353.424392 -72.58214 
L 353.4281 -72.321259 
L 353.430649 -72.060377 
L 353.431997 -71.799496 
L 353.433125 -71.538615 
L 353.434772 -71.277734 
L 353.436756 -71.016853 
L 353.438305 -70.755972 
L 353.438959 -70.495091 
L 353.439075 -70.23421 
L 353.439588 -69.973328 
L 353.441241 -69.712447 
L 353.443614 -69.451566 
L 353.445375 -69.190685 
L 353.446258 -68.929804 
L 353.448001 -68.668923 
L 353.45237 -68.408042 
L 353.458999 -68.147161 
L 353.465735 -67.886279 
L 353.470819 -67.625398 
L 353.474544 -67.364517 
L 353.477934 -67.103636 
L 353.480002 -66.842755 
L 353.478575 -66.581874 
L 353.473981 -66.320993 
L 353.469474 -66.060112 
L 353.467868 -65.79923 
L 353.469716 -65.538349 
L 353.474374 -65.277468 
L 353.480628 -65.016587 
L 353.486538 -64.755706 
L 353.491063 -64.494825 
L 353.496229 -64.233944 
L 353.506068 -63.973063 
L 353.522963 -63.712182 
L 353.544625 -63.4513 
L 353.563788 -63.190419 
L 353.572849 -62.929538 
L 353.570357 -62.668657 
L 353.561238 -62.407776 
L 353.55155 -62.146895 
L 353.546185 -61.886014 
L 353.549952 -61.625133 
L 353.565676 -61.364251 
L 353.590208 -61.10337 
L 353.616715 -60.842489 
L 353.642362 -60.581608 
L 353.66872 -60.320727 
L 353.693302 -60.059846 
L 353.708068 -59.798965 
L 353.710843 -59.538084 
L 353.712574 -59.277202 
L 353.729523 -59.016321 
L 353.780133 -58.75544 
L 353.930483 -58.494559 
L 354.421482 -58.233678 
L 355.752515 -57.972797 
L 358.306402 -57.711916 
L 361.42682 -57.451035 
L 363.219069 -57.190153 
L 362.250026 -56.929272 
L 359.255948 -56.668391 
L 356.253954 -56.40751 
L 354.443024 -56.146629 
L 353.707071 -55.885748 
L 353.492441 -55.624867 
L 353.442632 -55.363986 
L 353.433623 -55.103105 
L 353.437023 -54.842223 
L 353.443185 -54.581342 
L 353.44419 -54.320461 
z
" id="mb99d6bdeb7" style="stroke:#000000;stroke-opacity:0.2;"/>
    </defs>
    <g clip-path="url(#p6fa9834a02)">
     <use style="fill-opacity:0.2;stroke:#000000;stroke-opacity:0.2;" x="0" xlink:href="#mb99d6bdeb7" y="288"/>
    </g>
   </g>
   <g id="PolyCollection_3">
    <defs>
     <path d="M 392.904124 -54.280138 
L 392.362354 -54.280138 
L 391.97168 -54.682891 
L 391.179045 -55.085644 
L 389.820117 -55.488397 
L 387.888081 -55.891151 
L 385.677334 -56.293904 
L 383.777148 -56.696657 
L 382.828515 -57.09941 
L 383.163787 -57.502163 
L 384.602413 -57.904916 
L 386.57436 -58.307669 
L 388.462318 -58.710423 
L 389.890267 -59.113176 
L 390.788617 -59.515929 
L 391.279834 -59.918682 
L 391.530266 -60.321435 
L 391.664755 -60.724188 
L 391.750606 -61.126941 
L 391.814933 -61.529695 
L 391.865441 -61.932448 
L 391.903712 -62.335201 
L 391.931193 -62.737954 
L 391.950754 -63.140707 
L 391.966179 -63.54346 
L 391.981071 -63.946214 
L 391.998055 -64.348967 
L 392.018694 -64.75172 
L 392.04394 -65.154473 
L 392.074429 -65.557226 
L 392.110062 -65.959979 
L 392.149227 -66.362732 
L 392.18872 -66.765486 
L 392.224939 -67.168239 
L 392.255599 -67.570992 
L 392.280565 -67.973745 
L 392.30124 -68.376498 
L 392.319201 -68.779251 
L 392.335247 -69.182004 
L 392.349328 -69.584758 
L 392.360989 -69.987511 
L 392.369854 -70.390264 
L 392.375994 -70.793017 
L 392.3802 -71.19577 
L 392.383941 -71.598523 
L 392.388824 -72.001276 
L 392.395813 -72.40403 
L 392.404806 -72.806783 
L 392.414883 -73.209536 
L 392.424975 -73.612289 
L 392.434483 -74.015042 
L 392.443508 -74.417795 
L 392.452633 -74.820548 
L 392.462508 -75.223302 
L 392.473505 -75.626055 
L 392.485584 -76.028808 
L 392.498261 -76.431561 
L 392.510594 -76.834314 
L 392.521342 -77.237067 
L 392.529418 -77.63982 
L 392.534426 -78.042574 
L 392.536954 -78.445327 
L 392.538414 -78.84808 
L 392.540567 -79.250833 
L 392.544895 -79.653586 
L 392.551985 -80.056339 
L 392.5612 -80.459092 
L 392.570944 -80.861846 
L 392.57956 -81.264599 
L 392.586313 -81.667352 
L 392.591674 -82.070105 
L 392.596621 -82.472858 
L 392.601545 -82.875611 
L 392.605748 -83.278364 
L 392.607952 -83.681118 
L 392.607332 -84.083871 
L 392.604165 -84.486624 
L 392.599642 -84.889377 
L 392.595134 -85.29213 
L 392.59156 -85.694883 
L 392.58926 -86.097636 
L 392.588287 -86.50039 
L 392.588709 -86.903143 
L 392.590605 -87.305896 
L 392.593862 -87.708649 
L 392.598085 -88.111402 
L 392.602758 -88.514155 
L 392.607474 -88.916908 
L 392.611989 -89.319662 
L 392.616115 -89.722415 
L 392.619623 -90.125168 
L 392.62224 -90.527921 
L 392.623688 -90.930674 
L 392.623766 -91.333427 
L 392.622514 -91.73618 
L 392.620391 -92.138934 
L 392.618265 -92.541687 
L 392.617084 -92.94444 
L 392.617419 -93.347193 
L 392.619233 -93.749946 
L 392.621999 -94.152699 
L 392.644479 -94.152699 
L 392.644479 -94.152699 
L 392.647244 -93.749946 
L 392.649058 -93.347193 
L 392.649394 -92.94444 
L 392.648212 -92.541687 
L 392.646086 -92.138934 
L 392.643963 -91.73618 
L 392.642711 -91.333427 
L 392.642789 -90.930674 
L 392.644238 -90.527921 
L 392.646854 -90.125168 
L 392.650362 -89.722415 
L 392.654488 -89.319662 
L 392.659004 -88.916908 
L 392.66372 -88.514155 
L 392.668393 -88.111402 
L 392.672615 -87.708649 
L 392.675872 -87.305896 
L 392.677768 -86.903143 
L 392.67819 -86.50039 
L 392.677218 -86.097636 
L 392.674917 -85.694883 
L 392.671343 -85.29213 
L 392.666835 -84.889377 
L 392.662312 -84.486624 
L 392.659145 -84.083871 
L 392.658525 -83.681118 
L 392.660729 -83.278364 
L 392.664932 -82.875611 
L 392.669856 -82.472858 
L 392.674803 -82.070105 
L 392.680164 -81.667352 
L 392.686917 -81.264599 
L 392.695533 -80.861846 
L 392.705277 -80.459092 
L 392.714492 -80.056339 
L 392.721582 -79.653586 
L 392.72591 -79.250833 
L 392.728063 -78.84808 
L 392.729523 -78.445327 
L 392.732051 -78.042574 
L 392.73706 -77.63982 
L 392.745135 -77.237067 
L 392.755884 -76.834314 
L 392.768216 -76.431561 
L 392.780893 -76.028808 
L 392.792973 -75.626055 
L 392.803969 -75.223302 
L 392.813844 -74.820548 
L 392.822969 -74.417795 
L 392.831994 -74.015042 
L 392.841503 -73.612289 
L 392.851595 -73.209536 
L 392.861671 -72.806783 
L 392.870665 -72.40403 
L 392.877653 -72.001276 
L 392.882536 -71.598523 
L 392.886278 -71.19577 
L 392.890483 -70.793017 
L 392.896624 -70.390264 
L 392.905489 -69.987511 
L 392.91715 -69.584758 
L 392.93123 -69.182004 
L 392.947277 -68.779251 
L 392.965237 -68.376498 
L 392.985912 -67.973745 
L 393.010879 -67.570992 
L 393.041538 -67.168239 
L 393.077758 -66.765486 
L 393.11725 -66.362732 
L 393.156415 -65.959979 
L 393.192049 -65.557226 
L 393.222537 -65.154473 
L 393.247783 -64.75172 
L 393.268423 -64.348967 
L 393.285406 -63.946214 
L 393.300298 -63.54346 
L 393.315723 -63.140707 
L 393.335284 -62.737954 
L 393.362765 -62.335201 
L 393.401037 -61.932448 
L 393.451544 -61.529695 
L 393.515871 -61.126941 
L 393.601723 -60.724188 
L 393.736212 -60.321435 
L 393.986643 -59.918682 
L 394.47786 -59.515929 
L 395.376211 -59.113176 
L 396.804159 -58.710423 
L 398.692118 -58.307669 
L 400.664064 -57.904916 
L 402.10269 -57.502163 
L 402.437962 -57.09941 
L 401.489329 -56.696657 
L 399.589143 -56.293904 
L 397.378396 -55.891151 
L 395.446361 -55.488397 
L 394.087432 -55.085644 
L 393.294797 -54.682891 
L 392.904124 -54.280138 
z
" id="mfaf7c62fa0" style="stroke:#000000;stroke-opacity:0.2;"/>
    </defs>
    <g clip-path="url(#p6fa9834a02)">
     <use style="fill-opacity:0.2;stroke:#000000;stroke-opacity:0.2;" x="0" xlink:href="#mfaf7c62fa0" y="288"/>
    </g>
   </g>
   <g id="PolyCollection_4">
    <defs>
     <path d="M 437.036435 -54.25 
L 426.667829 -54.25 
L 424.513565 -55.363445 
L 422.802295 -56.476891 
L 422.047409 -57.590336 
L 422.382037 -58.703782 
L 423.495528 -59.817227 
L 424.85974 -60.930673 
L 426.040235 -62.044118 
L 426.857734 -63.157563 
L 427.347905 -64.271009 
L 427.631755 -65.384454 
L 427.817492 -66.4979 
L 427.970446 -67.611345 
L 428.123802 -68.724791 
L 428.294934 -69.838236 
L 428.49193 -70.951681 
L 428.71233 -72.065127 
L 428.941943 -73.178572 
L 429.159008 -74.292018 
L 429.343243 -75.405463 
L 429.484971 -76.518909 
L 429.589006 -77.632354 
L 429.671042 -78.745799 
L 429.748857 -79.859245 
L 429.833737 -80.97269 
L 429.927122 -82.086136 
L 430.0237 -83.199581 
L 430.117796 -84.313026 
L 430.208126 -85.426472 
L 430.298032 -86.539917 
L 430.392139 -87.653363 
L 430.492684 -88.766808 
L 430.598048 -89.880254 
L 430.703781 -90.993699 
L 430.804923 -92.107144 
L 430.898221 -93.22059 
L 430.983113 -94.334035 
L 431.0611 -95.447481 
L 431.134216 -96.560926 
L 431.203787 -97.674372 
L 431.270172 -98.787817 
L 431.33327 -99.901262 
L 431.393073 -101.014708 
L 431.449586 -102.128153 
L 431.502005 -103.241599 
L 431.548053 -104.355044 
L 431.584595 -105.46849 
L 431.60954 -106.581935 
L 431.623663 -107.69538 
L 431.630938 -108.808826 
L 431.63711 -109.922271 
L 431.647282 -111.035717 
L 431.663757 -112.149162 
L 431.685186 -113.262608 
L 431.707498 -114.376053 
L 431.726119 -115.489498 
L 431.738229 -116.602944 
L 431.743758 -117.716389 
L 431.744688 -118.829835 
L 431.743364 -119.94328 
L 431.741339 -121.056726 
L 431.739649 -122.170171 
L 431.739844 -123.283616 
L 431.744167 -124.397062 
L 431.754213 -125.510507 
L 431.769292 -126.623953 
L 431.786231 -127.737398 
L 431.801027 -128.850844 
L 431.811018 -129.964289 
L 431.815939 -131.077734 
L 431.817357 -132.19118 
L 431.817342 -133.304625 
L 431.817448 -134.418071 
L 431.818457 -135.531516 
L 431.820578 -136.644961 
L 431.82372 -137.758407 
L 431.827671 -138.871852 
L 431.83217 -139.985298 
L 431.836887 -141.098743 
L 431.841393 -142.212189 
L 431.845205 -143.325634 
L 431.847931 -144.439079 
L 431.849377 -145.552525 
L 431.849556 -146.66597 
L 431.848671 -147.779416 
L 431.847124 -148.892861 
L 431.845526 -150.006307 
L 431.844549 -151.119752 
L 431.844634 -152.233197 
L 431.845747 -153.346643 
L 431.847401 -154.460088 
L 431.848927 -155.573534 
L 431.849752 -156.686979 
L 431.849502 -157.800425 
L 431.848011 -158.91387 
L 431.845372 -160.027315 
L 431.842083 -161.140761 
L 431.839069 -162.254206 
L 431.837388 -163.367652 
L 431.8377 -164.481097 
L 431.866564 -164.481097 
L 431.866564 -164.481097 
L 431.866877 -163.367652 
L 431.865195 -162.254206 
L 431.862181 -161.140761 
L 431.858892 -160.027315 
L 431.856254 -158.91387 
L 431.854762 -157.800425 
L 431.854512 -156.686979 
L 431.855337 -155.573534 
L 431.856863 -154.460088 
L 431.858517 -153.346643 
L 431.85963 -152.233197 
L 431.859715 -151.119752 
L 431.858738 -150.006307 
L 431.85714 -148.892861 
L 431.855593 -147.779416 
L 431.854708 -146.66597 
L 431.854887 -145.552525 
L 431.856333 -144.439079 
L 431.859059 -143.325634 
L 431.862872 -142.212189 
L 431.867377 -141.098743 
L 431.872095 -139.985298 
L 431.876593 -138.871852 
L 431.880544 -137.758407 
L 431.883686 -136.644961 
L 431.885808 -135.531516 
L 431.886816 -134.418071 
L 431.886922 -133.304625 
L 431.886907 -132.19118 
L 431.888326 -131.077734 
L 431.893246 -129.964289 
L 431.903238 -128.850844 
L 431.918034 -127.737398 
L 431.934973 -126.623953 
L 431.950051 -125.510507 
L 431.960097 -124.397062 
L 431.96442 -123.283616 
L 431.964616 -122.170171 
L 431.962925 -121.056726 
L 431.9609 -119.94328 
L 431.959577 -118.829835 
L 431.960506 -117.716389 
L 431.966036 -116.602944 
L 431.978145 -115.489498 
L 431.996766 -114.376053 
L 432.019078 -113.262608 
L 432.040507 -112.149162 
L 432.056983 -111.035717 
L 432.067155 -109.922271 
L 432.073326 -108.808826 
L 432.080601 -107.69538 
L 432.094724 -106.581935 
L 432.119669 -105.46849 
L 432.156212 -104.355044 
L 432.202259 -103.241599 
L 432.254678 -102.128153 
L 432.311191 -101.014708 
L 432.370995 -99.901262 
L 432.434092 -98.787817 
L 432.500478 -97.674372 
L 432.570048 -96.560926 
L 432.643164 -95.447481 
L 432.721152 -94.334035 
L 432.806043 -93.22059 
L 432.899341 -92.107144 
L 433.000483 -90.993699 
L 433.106216 -89.880254 
L 433.211581 -88.766808 
L 433.312125 -87.653363 
L 433.406232 -86.539917 
L 433.496138 -85.426472 
L 433.586468 -84.313026 
L 433.680564 -83.199581 
L 433.777142 -82.086136 
L 433.870527 -80.97269 
L 433.955407 -79.859245 
L 434.033222 -78.745799 
L 434.115258 -77.632354 
L 434.219293 -76.518909 
L 434.361022 -75.405463 
L 434.545256 -74.292018 
L 434.762322 -73.178572 
L 434.991934 -72.065127 
L 435.212334 -70.951681 
L 435.40933 -69.838236 
L 435.580463 -68.724791 
L 435.733819 -67.611345 
L 435.886772 -66.4979 
L 436.072509 -65.384454 
L 436.356359 -64.271009 
L 436.84653 -63.157563 
L 437.664029 -62.044118 
L 438.844524 -60.930673 
L 440.208737 -59.817227 
L 441.322228 -58.703782 
L 441.656855 -57.590336 
L 440.901969 -56.476891 
L 439.190699 -55.363445 
L 437.036435 -54.25 
z
" id="m035b7aa3f9" style="stroke:#000000;stroke-opacity:0.2;"/>
    </defs>
    <g clip-path="url(#p6fa9834a02)">
     <use style="fill-opacity:0.2;stroke:#000000;stroke-opacity:0.2;" x="0" xlink:href="#m035b7aa3f9" y="288"/>
    </g>
   </g>
   <g id="PolyCollection_5">
    <defs>
     <path d="M 476.866413 -57.140132 
L 465.275639 -57.140132 
L 464.570719 -59.22205 
L 463.982359 -61.303968 
L 463.49532 -63.385886 
L 463.080712 -65.467804 
L 462.71051 -67.549722 
L 462.368292 -69.63164 
L 462.052693 -71.713557 
L 461.773993 -73.795475 
L 461.54704 -75.877393 
L 461.384272 -77.959311 
L 461.291362 -80.041229 
L 461.266302 -82.123147 
L 461.301283 -84.205065 
L 461.38605 -86.286982 
L 461.51127 -88.3689 
L 461.670655 -90.450818 
L 461.861137 -92.532736 
L 462.081137 -94.614654 
L 462.327845 -96.696572 
L 462.594886 -98.77849 
L 462.871654 -100.860407 
L 463.144765 -102.942325 
L 463.401089 -105.024243 
L 463.631094 -107.106161 
L 463.831148 -109.188079 
L 464.003966 -111.269997 
L 464.157142 -113.351915 
L 464.300404 -115.433832 
L 464.442591 -117.51575 
L 464.589382 -119.597668 
L 464.742469 -121.679586 
L 464.900314 -123.761504 
L 465.060014 -125.843422 
L 465.219361 -127.92534 
L 465.37815 -130.007257 
L 465.538213 -132.089175 
L 465.702293 -134.171093 
L 465.872462 -136.253011 
L 466.048913 -138.334929 
L 466.229716 -140.416847 
L 466.411557 -142.498764 
L 466.59099 -144.580682 
L 466.765537 -146.6626 
L 466.934137 -148.744518 
L 467.096836 -150.826436 
L 467.254047 -152.908354 
L 467.405889 -154.990272 
L 467.55203 -157.072189 
L 467.692162 -159.154107 
L 467.826807 -161.236025 
L 467.957962 -163.317943 
L 468.089091 -165.399861 
L 468.224317 -167.481779 
L 468.367058 -169.563697 
L 468.518639 -171.645614 
L 468.677468 -173.727532 
L 468.839129 -175.80945 
L 468.997406 -177.891368 
L 469.145887 -179.973286 
L 469.27964 -182.055204 
L 469.396424 -184.137122 
L 469.497071 -186.219039 
L 469.584949 -188.300957 
L 469.664736 -190.382875 
L 469.740986 -192.464793 
L 469.816975 -194.546711 
L 469.894185 -196.628629 
L 469.972454 -198.710547 
L 470.05055 -200.792464 
L 470.126839 -202.874382 
L 470.199785 -204.9563 
L 470.268186 -207.038218 
L 470.33123 -209.120136 
L 470.388474 -211.202054 
L 470.439857 -213.283972 
L 470.485724 -215.365889 
L 470.526837 -217.447807 
L 470.564301 -219.529725 
L 470.599396 -221.611643 
L 470.633353 -223.693561 
L 470.667126 -225.775479 
L 470.701258 -227.857396 
L 470.735832 -229.939314 
L 470.77053 -232.021232 
L 470.804735 -234.10315 
L 470.837667 -236.185068 
L 470.868515 -238.266986 
L 470.896566 -240.348904 
L 470.921321 -242.430821 
L 470.942574 -244.512739 
L 470.960444 -246.594657 
L 470.975328 -248.676575 
L 470.987798 -250.758493 
L 470.998465 -252.840411 
L 471.007869 -254.922329 
L 471.016403 -257.004246 
L 471.024307 -259.086164 
L 471.031693 -261.168082 
L 471.038588 -263.25 
L 471.103463 -263.25 
L 471.103463 -263.25 
L 471.110358 -261.168082 
L 471.117745 -259.086164 
L 471.125648 -257.004246 
L 471.134182 -254.922329 
L 471.143586 -252.840411 
L 471.154254 -250.758493 
L 471.166723 -248.676575 
L 471.181607 -246.594657 
L 471.199477 -244.512739 
L 471.220731 -242.430821 
L 471.245485 -240.348904 
L 471.273536 -238.266986 
L 471.304385 -236.185068 
L 471.337317 -234.10315 
L 471.371521 -232.021232 
L 471.406219 -229.939314 
L 471.440793 -227.857396 
L 471.474925 -225.775479 
L 471.508699 -223.693561 
L 471.542655 -221.611643 
L 471.577751 -219.529725 
L 471.615214 -217.447807 
L 471.656327 -215.365889 
L 471.702194 -213.283972 
L 471.753577 -211.202054 
L 471.810822 -209.120136 
L 471.873865 -207.038218 
L 471.942266 -204.9563 
L 472.015212 -202.874382 
L 472.091502 -200.792464 
L 472.169597 -198.710547 
L 472.247866 -196.628629 
L 472.325077 -194.546711 
L 472.401065 -192.464793 
L 472.477315 -190.382875 
L 472.557103 -188.300957 
L 472.64498 -186.219039 
L 472.745627 -184.137122 
L 472.862411 -182.055204 
L 472.996164 -179.973286 
L 473.144645 -177.891368 
L 473.302922 -175.80945 
L 473.464584 -173.727532 
L 473.623412 -171.645614 
L 473.774993 -169.563697 
L 473.917734 -167.481779 
L 474.05296 -165.399861 
L 474.184089 -163.317943 
L 474.315244 -161.236025 
L 474.44989 -159.154107 
L 474.590021 -157.072189 
L 474.736162 -154.990272 
L 474.888004 -152.908354 
L 475.045216 -150.826436 
L 475.207914 -148.744518 
L 475.376514 -146.6626 
L 475.551062 -144.580682 
L 475.730495 -142.498764 
L 475.912335 -140.416847 
L 476.093138 -138.334929 
L 476.269589 -136.253011 
L 476.439758 -134.171093 
L 476.603838 -132.089175 
L 476.763901 -130.007257 
L 476.92269 -127.92534 
L 477.082038 -125.843422 
L 477.241738 -123.761504 
L 477.399582 -121.679586 
L 477.552669 -119.597668 
L 477.69946 -117.51575 
L 477.841647 -115.433832 
L 477.984909 -113.351915 
L 478.138085 -111.269997 
L 478.310903 -109.188079 
L 478.510957 -107.106161 
L 478.740962 -105.024243 
L 478.997286 -102.942325 
L 479.270397 -100.860407 
L 479.547165 -98.77849 
L 479.814206 -96.696572 
L 480.060914 -94.614654 
L 480.280914 -92.532736 
L 480.471396 -90.450818 
L 480.630781 -88.3689 
L 480.756001 -86.286982 
L 480.840768 -84.205065 
L 480.875749 -82.123147 
L 480.850689 -80.041229 
L 480.757779 -77.959311 
L 480.595011 -75.877393 
L 480.368059 -73.795475 
L 480.089358 -71.713557 
L 479.773759 -69.63164 
L 479.431541 -67.549722 
L 479.061339 -65.467804 
L 478.646731 -63.385886 
L 478.159692 -61.303968 
L 477.571332 -59.22205 
L 476.866413 -57.140132 
z
" id="m8d1a7a6ceb" style="stroke:#000000;stroke-opacity:0.2;"/>
    </defs>
    <g clip-path="url(#p6fa9834a02)">
     <use style="fill-opacity:0.2;stroke:#000000;stroke-opacity:0.2;" x="0" xlink:href="#m8d1a7a6ceb" y="288"/>
    </g>
   </g>
   <g id="matplotlib.axis_3">
    <g id="xtick_7">
     <g id="line2d_28">
      <g>
       <use style="stroke:#000000;stroke-width:0.8;" x="314.195452" xlink:href="#mcb35eb5384" y="244.2"/>
      </g>
     </g>
     <g id="text_18">
      <!-- 0.01 -->
      <g transform="translate(303.062639 258.798437)scale(0.1 -0.1)">
       <use xlink:href="#DejaVuSans-30"/>
       <use x="63.623047" xlink:href="#DejaVuSans-2e"/>
       <use x="95.410156" xlink:href="#DejaVuSans-30"/>
       <use x="159.033203" xlink:href="#DejaVuSans-31"/>
      </g>
     </g>
    </g>
    <g id="xtick_8">
     <g id="line2d_29">
      <g>
       <use style="stroke:#000000;stroke-width:0.8;" x="353.414345" xlink:href="#mcb35eb5384" y="244.2"/>
      </g>
     </g>
     <g id="text_19">
      <!-- 0.02 -->
      <g transform="translate(342.281533 258.798437)scale(0.1 -0.1)">
       <use xlink:href="#DejaVuSans-30"/>
       <use x="63.623047" xlink:href="#DejaVuSans-2e"/>
       <use x="95.410156" xlink:href="#DejaVuSans-30"/>
       <use x="159.033203" xlink:href="#DejaVuSans-32"/>
      </g>
     </g>
    </g>
    <g id="xtick_9">
     <g id="line2d_30">
      <g>
       <use style="stroke:#000000;stroke-width:0.8;" x="392.633239" xlink:href="#mcb35eb5384" y="244.2"/>
      </g>
     </g>
     <g id="text_20">
      <!-- 0.03 -->
      <defs>
       <path d="M 40.578125 39.3125 
Q 47.65625 37.796875 51.625 33 
Q 55.609375 28.21875 55.609375 21.1875 
Q 55.609375 10.40625 48.1875 4.484375 
Q 40.765625 -1.421875 27.09375 -1.421875 
Q 22.515625 -1.421875 17.65625 -0.515625 
Q 12.796875 0.390625 7.625 2.203125 
L 7.625 11.71875 
Q 11.71875 9.328125 16.59375 8.109375 
Q 21.484375 6.890625 26.8125 6.890625 
Q 36.078125 6.890625 40.9375 10.546875 
Q 45.796875 14.203125 45.796875 21.1875 
Q 45.796875 27.640625 41.28125 31.265625 
Q 36.765625 34.90625 28.71875 34.90625 
L 20.21875 34.90625 
L 20.21875 43.015625 
L 29.109375 43.015625 
Q 36.375 43.015625 40.234375 45.921875 
Q 44.09375 48.828125 44.09375 54.296875 
Q 44.09375 59.90625 40.109375 62.90625 
Q 36.140625 65.921875 28.71875 65.921875 
Q 24.65625 65.921875 20.015625 65.03125 
Q 15.375 64.15625 9.8125 62.3125 
L 9.8125 71.09375 
Q 15.4375 72.65625 20.34375 73.4375 
Q 25.25 74.21875 29.59375 74.21875 
Q 40.828125 74.21875 47.359375 69.109375 
Q 53.90625 64.015625 53.90625 55.328125 
Q 53.90625 49.265625 50.4375 45.09375 
Q 46.96875 40.921875 40.578125 39.3125 
z
" id="DejaVuSans-33"/>
      </defs>
      <g transform="translate(381.500426 258.798437)scale(0.1 -0.1)">
       <use xlink:href="#DejaVuSans-30"/>
       <use x="63.623047" xlink:href="#DejaVuSans-2e"/>
       <use x="95.410156" xlink:href="#DejaVuSans-30"/>
       <use x="159.033203" xlink:href="#DejaVuSans-33"/>
      </g>
     </g>
    </g>
    <g id="xtick_10">
     <g id="line2d_31">
      <g>
       <use style="stroke:#000000;stroke-width:0.8;" x="431.852132" xlink:href="#mcb35eb5384" y="244.2"/>
      </g>
     </g>
     <g id="text_21">
      <!-- 0.06 -->
      <g transform="translate(420.71932 258.798437)scale(0.1 -0.1)">
       <use xlink:href="#DejaVuSans-30"/>
       <use x="63.623047" xlink:href="#DejaVuSans-2e"/>
       <use x="95.410156" xlink:href="#DejaVuSans-30"/>
       <use x="159.033203" xlink:href="#DejaVuSans-36"/>
      </g>
     </g>
    </g>
    <g id="xtick_11">
     <g id="line2d_32">
      <g>
       <use style="stroke:#000000;stroke-width:0.8;" x="471.071026" xlink:href="#mcb35eb5384" y="244.2"/>
      </g>
     </g>
     <g id="text_22">
      <!-- 0.1 -->
      <g transform="translate(463.119463 258.798437)scale(0.1 -0.1)">
       <use xlink:href="#DejaVuSans-30"/>
       <use x="63.623047" xlink:href="#DejaVuSans-2e"/>
       <use x="95.410156" xlink:href="#DejaVuSans-31"/>
      </g>
     </g>
    </g>
    <g id="text_23">
     <!-- $q$ -->
     <g transform="translate(389.433239 272.45625)scale(0.1 -0.1)">
      <use xlink:href="#DejaVuSans-Oblique-71"/>
     </g>
    </g>
   </g>
   <g id="matplotlib.axis_4">
    <g id="ytick_7">
     <g id="line2d_33">
      <path clip-path="url(#p6fa9834a02)" d="M 295.566477 230.859834 
L 489.7 230.859834 
" style="fill:none;stroke:#b0b0b0;stroke-dasharray:0.8,1.32;stroke-dashoffset:0;stroke-opacity:0.6;stroke-width:0.8;"/>
     </g>
     <g id="line2d_34">
      <g>
       <use style="stroke:#000000;stroke-width:0.8;" x="295.566477" xlink:href="#m95d6093202" y="230.859834"/>
      </g>
     </g>
     <g id="text_24">
      <!-- 0 -->
      <g transform="translate(282.203977 234.659053)scale(0.1 -0.1)">
       <use xlink:href="#DejaVuSans-30"/>
      </g>
     </g>
    </g>
    <g id="ytick_8">
     <g id="line2d_35">
      <path clip-path="url(#p6fa9834a02)" d="M 295.566477 200.637425 
L 489.7 200.637425 
" style="fill:none;stroke:#b0b0b0;stroke-dasharray:0.8,1.32;stroke-dashoffset:0;stroke-opacity:0.6;stroke-width:0.8;"/>
     </g>
     <g id="line2d_36">
      <g>
       <use style="stroke:#000000;stroke-width:0.8;" x="295.566477" xlink:href="#m95d6093202" y="200.637425"/>
      </g>
     </g>
     <g id="text_25">
      <!-- 10 -->
      <g transform="translate(275.841477 204.436644)scale(0.1 -0.1)">
       <use xlink:href="#DejaVuSans-31"/>
       <use x="63.623047" xlink:href="#DejaVuSans-30"/>
      </g>
     </g>
    </g>
    <g id="ytick_9">
     <g id="line2d_37">
      <path clip-path="url(#p6fa9834a02)" d="M 295.566477 170.415016 
L 489.7 170.415016 
" style="fill:none;stroke:#b0b0b0;stroke-dasharray:0.8,1.32;stroke-dashoffset:0;stroke-opacity:0.6;stroke-width:0.8;"/>
     </g>
     <g id="line2d_38">
      <g>
       <use style="stroke:#000000;stroke-width:0.8;" x="295.566477" xlink:href="#m95d6093202" y="170.415016"/>
      </g>
     </g>
     <g id="text_26">
      <!-- 20 -->
      <g transform="translate(275.841477 174.214234)scale(0.1 -0.1)">
       <use xlink:href="#DejaVuSans-32"/>
       <use x="63.623047" xlink:href="#DejaVuSans-30"/>
      </g>
     </g>
    </g>
    <g id="ytick_10">
     <g id="line2d_39">
      <path clip-path="url(#p6fa9834a02)" d="M 295.566477 140.192606 
L 489.7 140.192606 
" style="fill:none;stroke:#b0b0b0;stroke-dasharray:0.8,1.32;stroke-dashoffset:0;stroke-opacity:0.6;stroke-width:0.8;"/>
     </g>
     <g id="line2d_40">
      <g>
       <use style="stroke:#000000;stroke-width:0.8;" x="295.566477" xlink:href="#m95d6093202" y="140.192606"/>
      </g>
     </g>
     <g id="text_27">
      <!-- 30 -->
      <g transform="translate(275.841477 143.991825)scale(0.1 -0.1)">
       <use xlink:href="#DejaVuSans-33"/>
       <use x="63.623047" xlink:href="#DejaVuSans-30"/>
      </g>
     </g>
    </g>
    <g id="ytick_11">
     <g id="line2d_41">
      <path clip-path="url(#p6fa9834a02)" d="M 295.566477 109.970197 
L 489.7 109.970197 
" style="fill:none;stroke:#b0b0b0;stroke-dasharray:0.8,1.32;stroke-dashoffset:0;stroke-opacity:0.6;stroke-width:0.8;"/>
     </g>
     <g id="line2d_42">
      <g>
       <use style="stroke:#000000;stroke-width:0.8;" x="295.566477" xlink:href="#m95d6093202" y="109.970197"/>
      </g>
     </g>
     <g id="text_28">
      <!-- 40 -->
      <g transform="translate(275.841477 113.769416)scale(0.1 -0.1)">
       <use xlink:href="#DejaVuSans-34"/>
       <use x="63.623047" xlink:href="#DejaVuSans-30"/>
      </g>
     </g>
    </g>
    <g id="ytick_12">
     <g id="line2d_43">
      <path clip-path="url(#p6fa9834a02)" d="M 295.566477 79.747788 
L 489.7 79.747788 
" style="fill:none;stroke:#b0b0b0;stroke-dasharray:0.8,1.32;stroke-dashoffset:0;stroke-opacity:0.6;stroke-width:0.8;"/>
     </g>
     <g id="line2d_44">
      <g>
       <use style="stroke:#000000;stroke-width:0.8;" x="295.566477" xlink:href="#m95d6093202" y="79.747788"/>
      </g>
     </g>
     <g id="text_29">
      <!-- 50 -->
      <g transform="translate(275.841477 83.547006)scale(0.1 -0.1)">
       <use xlink:href="#DejaVuSans-35"/>
       <use x="63.623047" xlink:href="#DejaVuSans-30"/>
      </g>
     </g>
    </g>
    <g id="ytick_13">
     <g id="line2d_45">
      <path clip-path="url(#p6fa9834a02)" d="M 295.566477 49.525378 
L 489.7 49.525378 
" style="fill:none;stroke:#b0b0b0;stroke-dasharray:0.8,1.32;stroke-dashoffset:0;stroke-opacity:0.6;stroke-width:0.8;"/>
     </g>
     <g id="line2d_46">
      <g>
       <use style="stroke:#000000;stroke-width:0.8;" x="295.566477" xlink:href="#m95d6093202" y="49.525378"/>
      </g>
     </g>
     <g id="text_30">
      <!-- 60 -->
      <g transform="translate(275.841477 53.324597)scale(0.1 -0.1)">
       <use xlink:href="#DejaVuSans-36"/>
       <use x="63.623047" xlink:href="#DejaVuSans-30"/>
      </g>
     </g>
    </g>
    <g id="ytick_14">
     <g id="line2d_47">
      <path clip-path="url(#p6fa9834a02)" d="M 295.566477 19.302969 
L 489.7 19.302969 
" style="fill:none;stroke:#b0b0b0;stroke-dasharray:0.8,1.32;stroke-dashoffset:0;stroke-opacity:0.6;stroke-width:0.8;"/>
     </g>
     <g id="line2d_48">
      <g>
       <use style="stroke:#000000;stroke-width:0.8;" x="295.566477" xlink:href="#m95d6093202" y="19.302969"/>
      </g>
     </g>
     <g id="text_31">
      <!-- 70 -->
      <defs>
       <path d="M 8.203125 72.90625 
L 55.078125 72.90625 
L 55.078125 68.703125 
L 28.609375 0 
L 18.3125 0 
L 43.21875 64.59375 
L 8.203125 64.59375 
z
" id="DejaVuSans-37"/>
      </defs>
      <g transform="translate(275.841477 23.102188)scale(0.1 -0.1)">
       <use xlink:href="#DejaVuSans-37"/>
       <use x="63.623047" xlink:href="#DejaVuSans-30"/>
      </g>
     </g>
    </g>
    <g id="text_32">
     <!-- $2(l_1 - l_0)$ -->
     <defs>
      <path d="M 31 75.875 
Q 24.46875 64.65625 21.28125 53.65625 
Q 18.109375 42.671875 18.109375 31.390625 
Q 18.109375 20.125 21.3125 9.0625 
Q 24.515625 -2 31 -13.1875 
L 23.1875 -13.1875 
Q 15.875 -1.703125 12.234375 9.375 
Q 8.59375 20.453125 8.59375 31.390625 
Q 8.59375 42.28125 12.203125 53.3125 
Q 15.828125 64.359375 23.1875 75.875 
z
" id="DejaVuSans-28"/>
      <path d="M 18.3125 75.984375 
L 27.296875 75.984375 
L 12.5 0 
L 3.515625 0 
z
" id="DejaVuSans-Oblique-6c"/>
      <path d="M 10.59375 35.5 
L 73.1875 35.5 
L 73.1875 27.203125 
L 10.59375 27.203125 
z
" id="DejaVuSans-2212"/>
      <path d="M 8.015625 75.875 
L 15.828125 75.875 
Q 23.140625 64.359375 26.78125 53.3125 
Q 30.421875 42.28125 30.421875 31.390625 
Q 30.421875 20.453125 26.78125 9.375 
Q 23.140625 -1.703125 15.828125 -13.1875 
L 8.015625 -13.1875 
Q 14.5 -2 17.703125 9.0625 
Q 20.90625 20.125 20.90625 31.390625 
Q 20.90625 42.671875 17.703125 53.65625 
Q 14.5 64.65625 8.015625 75.875 
z
" id="DejaVuSans-29"/>
     </defs>
     <g transform="translate(269.76179 150)rotate(-90)scale(0.1 -0.1)">
      <use transform="translate(0 0.015625)" xlink:href="#DejaVuSans-32"/>
      <use transform="translate(63.623047 0.015625)" xlink:href="#DejaVuSans-28"/>
      <use transform="translate(102.636719 0.015625)" xlink:href="#DejaVuSans-Oblique-6c"/>
      <use transform="translate(130.419922 -16.390625)scale(0.7)" xlink:href="#DejaVuSans-31"/>
      <use transform="translate(197.172852 0.015625)" xlink:href="#DejaVuSans-2212"/>
      <use transform="translate(300.444336 0.015625)" xlink:href="#DejaVuSans-Oblique-6c"/>
      <use transform="translate(328.227539 -16.390625)scale(0.7)" xlink:href="#DejaVuSans-30"/>
      <use transform="translate(375.498047 0.015625)" xlink:href="#DejaVuSans-29"/>
     </g>
    </g>
   </g>
   <g id="LineCollection_1">
    <path clip-path="url(#p6fa9834a02)" d="M 309.29309 202.403742 
L 319.097813 202.403742 
" style="fill-opacity:0.8;stroke:#000000;stroke-opacity:0.8;stroke-width:1.5;"/>
    <path clip-path="url(#p6fa9834a02)" d="M 348.511983 207.852308 
L 358.316707 207.852308 
" style="fill-opacity:0.8;stroke:#000000;stroke-opacity:0.8;stroke-width:1.5;"/>
    <path clip-path="url(#p6fa9834a02)" d="M 387.730877 193.847301 
L 397.5356 193.847301 
" style="fill-opacity:0.8;stroke:#000000;stroke-opacity:0.8;stroke-width:1.5;"/>
    <path clip-path="url(#p6fa9834a02)" d="M 426.94977 123.518903 
L 436.754494 123.518903 
" style="fill-opacity:0.8;stroke:#000000;stroke-opacity:0.8;stroke-width:1.5;"/>
    <path clip-path="url(#p6fa9834a02)" d="M 466.168664 24.75 
L 475.973387 24.75 
" style="fill-opacity:0.8;stroke:#000000;stroke-opacity:0.8;stroke-width:1.5;"/>
   </g>
   <g id="LineCollection_2">
    <path clip-path="url(#p6fa9834a02)" d="M 309.29309 233.722601 
L 319.097813 233.722601 
" style="fill-opacity:0.8;stroke:#000000;stroke-opacity:0.8;stroke-width:1.5;"/>
    <path clip-path="url(#p6fa9834a02)" d="M 348.511983 233.679539 
L 358.316707 233.679539 
" style="fill-opacity:0.8;stroke:#000000;stroke-opacity:0.8;stroke-width:1.5;"/>
    <path clip-path="url(#p6fa9834a02)" d="M 387.730877 233.719862 
L 397.5356 233.719862 
" style="fill-opacity:0.8;stroke:#000000;stroke-opacity:0.8;stroke-width:1.5;"/>
    <path clip-path="url(#p6fa9834a02)" d="M 426.94977 233.75 
L 436.754494 233.75 
" style="fill-opacity:0.8;stroke:#000000;stroke-opacity:0.8;stroke-width:1.5;"/>
    <path clip-path="url(#p6fa9834a02)" d="M 466.168664 230.859868 
L 475.973387 230.859868 
" style="fill-opacity:0.8;stroke:#000000;stroke-opacity:0.8;stroke-width:1.5;"/>
   </g>
   <g id="LineCollection_3">
    <path clip-path="url(#p6fa9834a02)" d="M 314.195452 233.722601 
L 314.195452 202.403742 
" style="fill-opacity:0.8;stroke:#000000;stroke-opacity:0.8;stroke-width:1.5;"/>
    <path clip-path="url(#p6fa9834a02)" d="M 353.414345 233.679539 
L 353.414345 207.852308 
" style="fill-opacity:0.8;stroke:#000000;stroke-opacity:0.8;stroke-width:1.5;"/>
    <path clip-path="url(#p6fa9834a02)" d="M 392.633239 233.719862 
L 392.633239 193.847301 
" style="fill-opacity:0.8;stroke:#000000;stroke-opacity:0.8;stroke-width:1.5;"/>
    <path clip-path="url(#p6fa9834a02)" d="M 431.852132 233.75 
L 431.852132 123.518903 
" style="fill-opacity:0.8;stroke:#000000;stroke-opacity:0.8;stroke-width:1.5;"/>
    <path clip-path="url(#p6fa9834a02)" d="M 471.071026 230.859868 
L 471.071026 24.75 
" style="fill-opacity:0.8;stroke:#000000;stroke-opacity:0.8;stroke-width:1.5;"/>
   </g>
   <g id="patch_6">
    <path d="M 295.566477 244.2 
L 295.566477 14.3 
" style="fill:none;stroke:#000000;stroke-linecap:square;stroke-linejoin:miter;stroke-width:0.8;"/>
   </g>
   <g id="patch_7">
    <path d="M 295.566477 244.2 
L 489.7 244.2 
" style="fill:none;stroke:#000000;stroke-linecap:square;stroke-linejoin:miter;stroke-width:0.8;"/>
   </g>
  </g>
 </g>
 <defs>
  <clipPath id="pca5fae3b7d">
   <rect height="229.9" width="194.133523" x="47.675" y="14.3"/>
  </clipPath>
  <clipPath id="p6fa9834a02">
   <rect height="229.9" width="194.133523" x="295.566477" y="14.3"/>
  </clipPath>
 </defs>
</svg>
