<?xml version="1.0" encoding="utf-8" standalone="no"?>
<!DOCTYPE svg PUBLIC "-//W3C//DTD SVG 1.1//EN"
  "http://www.w3.org/Graphics/SVG/1.1/DTD/svg11.dtd">
<!-- Created with matplotlib (https://matplotlib.org/) -->
<svg height="288pt" version="1.1" viewBox="0 0 288 288" width="288pt" xmlns="http://www.w3.org/2000/svg" xmlns:xlink="http://www.w3.org/1999/xlink">
 <defs>
  <style type="text/css">
*{stroke-linecap:butt;stroke-linejoin:round;}
  </style>
 </defs>
 <g id="figure_1">
  <g id="patch_1">
   <path d="M 0 288 
L 288 288 
L 288 0 
L 0 0 
z
" style="fill:#ffffff;"/>
  </g>
  <g id="axes_1">
   <g id="patch_2">
    <path d="M 49.675 244.2 
L 269.2625 244.2 
L 269.2625 14.8 
L 49.675 14.8 
z
" style="fill:#ffffff;"/>
   </g>
   <g id="matplotlib.axis_1">
    <g id="xtick_1">
     <g id="line2d_1">
      <defs>
       <path d="M 0 0 
L 0 3.5 
" id="m316cbe3f81" style="stroke:#000000;stroke-width:0.8;"/>
      </defs>
      <g>
       <use style="stroke:#000000;stroke-width:0.8;" x="49.675" xlink:href="#m316cbe3f81" y="244.2"/>
      </g>
     </g>
     <g id="text_1">
      <!-- 0.0 -->
      <defs>
       <path d="M 31.78125 66.40625 
Q 24.171875 66.40625 20.328125 58.90625 
Q 16.5 51.421875 16.5 36.375 
Q 16.5 21.390625 20.328125 13.890625 
Q 24.171875 6.390625 31.78125 6.390625 
Q 39.453125 6.390625 43.28125 13.890625 
Q 47.125 21.390625 47.125 36.375 
Q 47.125 51.421875 43.28125 58.90625 
Q 39.453125 66.40625 31.78125 66.40625 
z
M 31.78125 74.21875 
Q 44.046875 74.21875 50.515625 64.515625 
Q 56.984375 54.828125 56.984375 36.375 
Q 56.984375 17.96875 50.515625 8.265625 
Q 44.046875 -1.421875 31.78125 -1.421875 
Q 19.53125 -1.421875 13.0625 8.265625 
Q 6.59375 17.96875 6.59375 36.375 
Q 6.59375 54.828125 13.0625 64.515625 
Q 19.53125 74.21875 31.78125 74.21875 
z
" id="DejaVuSans-48"/>
       <path d="M 10.6875 12.40625 
L 21 12.40625 
L 21 0 
L 10.6875 0 
z
" id="DejaVuSans-46"/>
      </defs>
      <g transform="translate(41.723438 258.798437)scale(0.1 -0.1)">
       <use xlink:href="#DejaVuSans-48"/>
       <use x="63.623047" xlink:href="#DejaVuSans-46"/>
       <use x="95.410156" xlink:href="#DejaVuSans-48"/>
      </g>
     </g>
    </g>
    <g id="xtick_2">
     <g id="line2d_2">
      <g>
       <use style="stroke:#000000;stroke-width:0.8;" x="93.5925" xlink:href="#m316cbe3f81" y="244.2"/>
      </g>
     </g>
     <g id="text_2">
      <!-- 0.1 -->
      <defs>
       <path d="M 12.40625 8.296875 
L 28.515625 8.296875 
L 28.515625 63.921875 
L 10.984375 60.40625 
L 10.984375 69.390625 
L 28.421875 72.90625 
L 38.28125 72.90625 
L 38.28125 8.296875 
L 54.390625 8.296875 
L 54.390625 0 
L 12.40625 0 
z
" id="DejaVuSans-49"/>
      </defs>
      <g transform="translate(85.640938 258.798437)scale(0.1 -0.1)">
       <use xlink:href="#DejaVuSans-48"/>
       <use x="63.623047" xlink:href="#DejaVuSans-46"/>
       <use x="95.410156" xlink:href="#DejaVuSans-49"/>
      </g>
     </g>
    </g>
    <g id="xtick_3">
     <g id="line2d_3">
      <g>
       <use style="stroke:#000000;stroke-width:0.8;" x="137.51" xlink:href="#m316cbe3f81" y="244.2"/>
      </g>
     </g>
     <g id="text_3">
      <!-- 0.2 -->
      <defs>
       <path d="M 19.1875 8.296875 
L 53.609375 8.296875 
L 53.609375 0 
L 7.328125 0 
L 7.328125 8.296875 
Q 12.9375 14.109375 22.625 23.890625 
Q 32.328125 33.6875 34.8125 36.53125 
Q 39.546875 41.84375 41.421875 45.53125 
Q 43.3125 49.21875 43.3125 52.78125 
Q 43.3125 58.59375 39.234375 62.25 
Q 35.15625 65.921875 28.609375 65.921875 
Q 23.96875 65.921875 18.8125 64.3125 
Q 13.671875 62.703125 7.8125 59.421875 
L 7.8125 69.390625 
Q 13.765625 71.78125 18.9375 73 
Q 24.125 74.21875 28.421875 74.21875 
Q 39.75 74.21875 46.484375 68.546875 
Q 53.21875 62.890625 53.21875 53.421875 
Q 53.21875 48.921875 51.53125 44.890625 
Q 49.859375 40.875 45.40625 35.40625 
Q 44.1875 33.984375 37.640625 27.21875 
Q 31.109375 20.453125 19.1875 8.296875 
z
" id="DejaVuSans-50"/>
      </defs>
      <g transform="translate(129.558438 258.798437)scale(0.1 -0.1)">
       <use xlink:href="#DejaVuSans-48"/>
       <use x="63.623047" xlink:href="#DejaVuSans-46"/>
       <use x="95.410156" xlink:href="#DejaVuSans-50"/>
      </g>
     </g>
    </g>
    <g id="xtick_4">
     <g id="line2d_4">
      <g>
       <use style="stroke:#000000;stroke-width:0.8;" x="181.4275" xlink:href="#m316cbe3f81" y="244.2"/>
      </g>
     </g>
     <g id="text_4">
      <!-- 0.3 -->
      <defs>
       <path d="M 40.578125 39.3125 
Q 47.65625 37.796875 51.625 33 
Q 55.609375 28.21875 55.609375 21.1875 
Q 55.609375 10.40625 48.1875 4.484375 
Q 40.765625 -1.421875 27.09375 -1.421875 
Q 22.515625 -1.421875 17.65625 -0.515625 
Q 12.796875 0.390625 7.625 2.203125 
L 7.625 11.71875 
Q 11.71875 9.328125 16.59375 8.109375 
Q 21.484375 6.890625 26.8125 6.890625 
Q 36.078125 6.890625 40.9375 10.546875 
Q 45.796875 14.203125 45.796875 21.1875 
Q 45.796875 27.640625 41.28125 31.265625 
Q 36.765625 34.90625 28.71875 34.90625 
L 20.21875 34.90625 
L 20.21875 43.015625 
L 29.109375 43.015625 
Q 36.375 43.015625 40.234375 45.921875 
Q 44.09375 48.828125 44.09375 54.296875 
Q 44.09375 59.90625 40.109375 62.90625 
Q 36.140625 65.921875 28.71875 65.921875 
Q 24.65625 65.921875 20.015625 65.03125 
Q 15.375 64.15625 9.8125 62.3125 
L 9.8125 71.09375 
Q 15.4375 72.65625 20.34375 73.4375 
Q 25.25 74.21875 29.59375 74.21875 
Q 40.828125 74.21875 47.359375 69.109375 
Q 53.90625 64.015625 53.90625 55.328125 
Q 53.90625 49.265625 50.4375 45.09375 
Q 46.96875 40.921875 40.578125 39.3125 
z
" id="DejaVuSans-51"/>
      </defs>
      <g transform="translate(173.475938 258.798437)scale(0.1 -0.1)">
       <use xlink:href="#DejaVuSans-48"/>
       <use x="63.623047" xlink:href="#DejaVuSans-46"/>
       <use x="95.410156" xlink:href="#DejaVuSans-51"/>
      </g>
     </g>
    </g>
    <g id="xtick_5">
     <g id="line2d_5">
      <g>
       <use style="stroke:#000000;stroke-width:0.8;" x="225.345" xlink:href="#m316cbe3f81" y="244.2"/>
      </g>
     </g>
     <g id="text_5">
      <!-- 0.4 -->
      <defs>
       <path d="M 37.796875 64.3125 
L 12.890625 25.390625 
L 37.796875 25.390625 
z
M 35.203125 72.90625 
L 47.609375 72.90625 
L 47.609375 25.390625 
L 58.015625 25.390625 
L 58.015625 17.1875 
L 47.609375 17.1875 
L 47.609375 0 
L 37.796875 0 
L 37.796875 17.1875 
L 4.890625 17.1875 
L 4.890625 26.703125 
z
" id="DejaVuSans-52"/>
      </defs>
      <g transform="translate(217.393438 258.798437)scale(0.1 -0.1)">
       <use xlink:href="#DejaVuSans-48"/>
       <use x="63.623047" xlink:href="#DejaVuSans-46"/>
       <use x="95.410156" xlink:href="#DejaVuSans-52"/>
      </g>
     </g>
    </g>
    <g id="xtick_6">
     <g id="line2d_6">
      <g>
       <use style="stroke:#000000;stroke-width:0.8;" x="269.2625" xlink:href="#m316cbe3f81" y="244.2"/>
      </g>
     </g>
     <g id="text_6">
      <!-- 0.5 -->
      <defs>
       <path d="M 10.796875 72.90625 
L 49.515625 72.90625 
L 49.515625 64.59375 
L 19.828125 64.59375 
L 19.828125 46.734375 
Q 21.96875 47.46875 24.109375 47.828125 
Q 26.265625 48.1875 28.421875 48.1875 
Q 40.625 48.1875 47.75 41.5 
Q 54.890625 34.8125 54.890625 23.390625 
Q 54.890625 11.625 47.5625 5.09375 
Q 40.234375 -1.421875 26.90625 -1.421875 
Q 22.3125 -1.421875 17.546875 -0.640625 
Q 12.796875 0.140625 7.71875 1.703125 
L 7.71875 11.625 
Q 12.109375 9.234375 16.796875 8.0625 
Q 21.484375 6.890625 26.703125 6.890625 
Q 35.15625 6.890625 40.078125 11.328125 
Q 45.015625 15.765625 45.015625 23.390625 
Q 45.015625 31 40.078125 35.4375 
Q 35.15625 39.890625 26.703125 39.890625 
Q 22.75 39.890625 18.8125 39.015625 
Q 14.890625 38.140625 10.796875 36.28125 
z
" id="DejaVuSans-53"/>
      </defs>
      <g transform="translate(261.310938 258.798437)scale(0.1 -0.1)">
       <use xlink:href="#DejaVuSans-48"/>
       <use x="63.623047" xlink:href="#DejaVuSans-46"/>
       <use x="95.410156" xlink:href="#DejaVuSans-53"/>
      </g>
     </g>
    </g>
    <g id="text_7">
     <!-- $\lambda$ -->
     <defs>
      <path d="M 36.71875 67.4375 
L 48.828125 0 
L 39.3125 0 
L 31.84375 40.4375 
L 5.125 0 
L -4.390625 0 
L 29.734375 52.4375 
L 28.03125 62.109375 
Q 26.953125 68.265625 21.734375 68.265625 
L 17.046875 68.265625 
L 18.5 75.984375 
L 24.21875 75.875 
Q 35.203125 75.734375 36.71875 67.4375 
z
" id="DejaVuSans-Oblique-955"/>
     </defs>
     <g transform="translate(156.46875 272.476562)scale(0.1 -0.1)">
      <use transform="translate(0 0.015625)" xlink:href="#DejaVuSans-Oblique-955"/>
     </g>
    </g>
   </g>
   <g id="matplotlib.axis_2">
    <g id="ytick_1">
     <g id="line2d_7">
      <defs>
       <path d="M 0 0 
L -3.5 0 
" id="m4471313bac" style="stroke:#000000;stroke-width:0.8;"/>
      </defs>
      <g>
       <use style="stroke:#000000;stroke-width:0.8;" x="49.675" xlink:href="#m4471313bac" y="244.2"/>
      </g>
     </g>
     <g id="text_8">
      <!-- 0.0 -->
      <g transform="translate(26.771875 247.999219)scale(0.1 -0.1)">
       <use xlink:href="#DejaVuSans-48"/>
       <use x="63.623047" xlink:href="#DejaVuSans-46"/>
       <use x="95.410156" xlink:href="#DejaVuSans-48"/>
      </g>
     </g>
    </g>
    <g id="ytick_2">
     <g id="line2d_8">
      <g>
       <use style="stroke:#000000;stroke-width:0.8;" x="49.675" xlink:href="#m4471313bac" y="198.32"/>
      </g>
     </g>
     <g id="text_9">
      <!-- 0.1 -->
      <g transform="translate(26.771875 202.119219)scale(0.1 -0.1)">
       <use xlink:href="#DejaVuSans-48"/>
       <use x="63.623047" xlink:href="#DejaVuSans-46"/>
       <use x="95.410156" xlink:href="#DejaVuSans-49"/>
      </g>
     </g>
    </g>
    <g id="ytick_3">
     <g id="line2d_9">
      <g>
       <use style="stroke:#000000;stroke-width:0.8;" x="49.675" xlink:href="#m4471313bac" y="152.44"/>
      </g>
     </g>
     <g id="text_10">
      <!-- 0.2 -->
      <g transform="translate(26.771875 156.239219)scale(0.1 -0.1)">
       <use xlink:href="#DejaVuSans-48"/>
       <use x="63.623047" xlink:href="#DejaVuSans-46"/>
       <use x="95.410156" xlink:href="#DejaVuSans-50"/>
      </g>
     </g>
    </g>
    <g id="ytick_4">
     <g id="line2d_10">
      <g>
       <use style="stroke:#000000;stroke-width:0.8;" x="49.675" xlink:href="#m4471313bac" y="106.56"/>
      </g>
     </g>
     <g id="text_11">
      <!-- 0.3 -->
      <g transform="translate(26.771875 110.359219)scale(0.1 -0.1)">
       <use xlink:href="#DejaVuSans-48"/>
       <use x="63.623047" xlink:href="#DejaVuSans-46"/>
       <use x="95.410156" xlink:href="#DejaVuSans-51"/>
      </g>
     </g>
    </g>
    <g id="ytick_5">
     <g id="line2d_11">
      <g>
       <use style="stroke:#000000;stroke-width:0.8;" x="49.675" xlink:href="#m4471313bac" y="60.68"/>
      </g>
     </g>
     <g id="text_12">
      <!-- 0.4 -->
      <g transform="translate(26.771875 64.479219)scale(0.1 -0.1)">
       <use xlink:href="#DejaVuSans-48"/>
       <use x="63.623047" xlink:href="#DejaVuSans-46"/>
       <use x="95.410156" xlink:href="#DejaVuSans-52"/>
      </g>
     </g>
    </g>
    <g id="ytick_6">
     <g id="line2d_12">
      <g>
       <use style="stroke:#000000;stroke-width:0.8;" x="49.675" xlink:href="#m4471313bac" y="14.8"/>
      </g>
     </g>
     <g id="text_13">
      <!-- 0.5 -->
      <g transform="translate(26.771875 18.599219)scale(0.1 -0.1)">
       <use xlink:href="#DejaVuSans-48"/>
       <use x="63.623047" xlink:href="#DejaVuSans-46"/>
       <use x="95.410156" xlink:href="#DejaVuSans-53"/>
      </g>
     </g>
    </g>
    <g id="text_14">
     <!-- $\mu$ -->
     <defs>
      <path d="M -1.3125 -20.796875 
L 13.375 54.6875 
L 22.40625 54.6875 
L 15.765625 20.65625 
Q 15.578125 19.625 15.421875 18.359375 
Q 15.28125 17.09375 15.28125 15.828125 
Q 15.28125 11.28125 18.140625 8.828125 
Q 21 6.390625 26.3125 6.390625 
Q 33.546875 6.390625 37.984375 10.484375 
Q 42.4375 14.59375 44 22.796875 
L 50.203125 54.6875 
L 59.1875 54.6875 
L 51.03125 12.640625 
Q 50.828125 11.71875 50.75 11.03125 
Q 50.6875 10.359375 50.6875 9.8125 
Q 50.6875 8.296875 51.296875 7.59375 
Q 51.90625 6.890625 53.21875 6.890625 
Q 53.71875 6.890625 54.5625 7.125 
Q 55.421875 7.375 56.984375 8.015625 
L 55.609375 0.78125 
Q 53.46875 -0.296875 51.515625 -0.859375 
Q 49.5625 -1.421875 47.703125 -1.421875 
Q 44.484375 -1.421875 42.65625 0.625 
Q 40.828125 2.6875 40.828125 6.296875 
Q 38.09375 2.390625 34.296875 0.484375 
Q 30.515625 -1.421875 25.390625 -1.421875 
Q 20.84375 -1.421875 17.453125 0.671875 
Q 14.0625 2.78125 12.984375 6.203125 
L 7.71875 -20.796875 
z
" id="DejaVuSans-Oblique-956"/>
     </defs>
     <g transform="translate(20.671875 132.7)rotate(-90)scale(0.1 -0.1)">
      <use transform="translate(0 0.3125)" xlink:href="#DejaVuSans-Oblique-956"/>
     </g>
    </g>
   </g>
   <g id="LineCollection_1">
    <path clip-path="url(#p57ee22d4b0)" d="M 108.940609 2.8712 
L 106.579532 4.976147 
L 103.983644 7.786914 
L 101.874086 12.160909 
L 101.642955 12.702629 
L 99.550285 17.618343 
L 97.168639 22.361961 
L 97.092677 22.534057 
L 94.91798 27.449771 
L 92.583912 32.365486 
L 92.463193 32.636883 
L 90.646131 37.2812 
L 88.571944 42.196914 
L 87.757746 44.223106 
L 86.78537 47.112629 
L 85.048301 52.028343 
L 83.333102 56.944057 
L 83.0523 57.799854 
L 81.882326 61.859771 
L 80.296435 66.775486 
L 78.944457 71.6912 
L 78.346854 73.51771 
L 77.514212 76.606914 
L 76.520466 81.522629 
L 75.215618 86.438343 
L 74.065595 91.354057 
L 73.641407 93.854689 
L 73.245439 96.269771 
L 71.857499 101.185486 
L 71.284375 106.1012 
L 69.941598 111.016914 
L 69.185526 115.932629 
L 68.935961 117.139863 
L 68.554621 120.848343 
L 68.126121 125.764057 
L 67.671802 130.679771 
L 67.430578 135.595486 
L 66.861981 140.5112 
L 66.879714 145.426914 
L 66.399555 150.342629 
L 66.41672 155.258343 
L 66.324693 160.174057 
L 66.108311 165.089771 
L 66.500568 170.005486 
L 66.26204 174.9212 
L 66.932707 179.836914 
L 67.148633 184.752629 
L 67.835569 189.668343 
L 68.604135 194.584057 
L 68.935961 196.139341 
L 70.735042 199.499771 
L 73.245302 204.415486 
L 73.641407 204.818525 
L 77.862501 209.3312 
L 78.346854 209.895938 
L 83.0523 212.894611 
L 85.396824 214.246914 
L 87.757746 215.246324 
L 92.463193 216.148148 
L 97.168639 217.023527 
L 101.874086 217.318446 
L 106.579532 217.036913 
L 111.284979 217.135648 
L 115.990425 216.185186 
L 120.695871 215.891778 
L 125.401318 214.866829 
L 128.79585 214.246914 
L 130.106764 213.938061 
L 134.812211 212.632986 
L 139.517657 211.137796 
L 144.223104 209.771739 
L 145.335025 209.3312 
L 148.92855 207.788735 
L 153.633996 206.13398 
L 157.715391 204.415486 
L 158.339443 204.108163 
L 163.044889 201.789792 
L 167.574832 199.499771 
L 167.750336 199.398884 
L 172.455782 196.599134 
L 175.907164 194.584057 
L 177.161229 193.751696 
L 181.866675 190.510692 
L 183.11044 189.668343 
L 186.572121 187.026875 
L 189.468684 184.752629 
L 191.277568 183.204665 
L 195.262492 179.836914 
L 195.983014 179.156053 
L 200.444424 174.9212 
L 200.688461 174.671917 
L 205.241163 170.005486 
L 205.393907 169.833765 
L 209.646203 165.089771 
L 210.099354 164.549626 
L 213.724852 160.174057 
L 214.8048 158.779366 
L 217.557191 155.258343 
L 218.257705 154.300258 
" style="fill:none;stroke:#000000;stroke-width:1.5;"/>
    <path clip-path="url(#p57ee22d4b0)" d="M 246.324105 105.333258 
L 247.742925 102.182091 
L 248.200779 101.185486 
L 250.24891 96.269771 
L 252.270966 91.354057 
L 252.448371 90.894696 
L 254.155858 86.438343 
L 255.947136 81.522629 
L 257.153818 78.179535 
L 257.73278 76.606914 
L 259.346795 71.6912 
L 261.019147 66.775486 
L 261.859264 64.008218 
L 262.509587 61.859771 
L 264.00794 56.944057 
L 265.405621 52.028343 
L 266.564711 47.512075 
L 266.675506 47.112629 
L 268.237125 42.196914 
L 269.214999 37.2812 
L 270.965092 32.365486 
L 271.270157 30.593793 
L 271.867414 27.449771 
L 273.561872 22.534057 
L 275.310252 17.618343 
L 275.975604 16.544102 
L 276.82083 12.702629 
L 277.440836 7.786914 
L 275.975604 4.824973 
L 273.71997 2.8712 
" style="fill:none;stroke:#000000;stroke-width:1.5;"/>
   </g>
   <g id="LineCollection_2">
    <path clip-path="url(#p57ee22d4b0)" d="M 115.419848 2.8712 
L 110.475125 7.786914 
L 105.408349 17.618343 
L 101.874086 23.818741 
L 100.064119 27.449771 
L 97.168639 32.977479 
L 95.272998 37.2812 
L 92.463193 43.275163 
L 88.957947 52.028343 
L 87.757746 55.005222 
L 83.0523 69.135055 
L 82.40779 71.6912 
L 80.768836 76.606914 
L 78.05719 86.438343 
L 76.940613 91.354057 
L 76.010666 96.269771 
L 74.625837 101.185486 
L 74.189171 106.1012 
L 72.647633 111.016914 
L 72.123698 115.932629 
L 71.040274 120.848343 
L 70.234658 125.764057 
L 69.601714 130.679771 
L 68.935961 134.392268 
L 68.83717 135.595486 
L 68.058349 150.342629 
L 67.79813 165.089771 
L 68.072742 174.9212 
L 68.401005 179.836914 
L 68.935961 185.186137 
L 70.015527 189.668343 
L 71.820047 194.584057 
L 77.426714 204.415486 
L 78.346854 205.404275 
L 84.062893 209.3312 
L 87.757746 211.635591 
L 92.463193 213.038161 
L 97.168639 214.039345 
L 101.874086 214.408993 
L 111.284979 214.176187 
L 115.990425 213.40466 
L 120.695871 212.77692 
L 134.832044 209.3312 
L 148.92855 204.277187 
L 153.633996 202.15821 
L 159.094715 199.499771 
L 167.876543 194.584057 
L 175.309667 189.668343 
L 181.743506 184.752629 
L 187.660745 179.836914 
L 192.846012 174.9212 
L 197.695484 170.005486 
L 202.080186 165.089771 
L 206.168853 160.174057 
L 210.099354 155.10106 
L 214.8048 148.397969 
L 216.840548 145.426914 
L 219.970394 140.5112 
L 224.215693 133.300232 
L 228.365705 125.764057 
L 230.870888 120.848343 
L 235.529426 111.016914 
L 239.745526 101.185486 
L 243.567566 91.354057 
L 246.97389 81.522629 
L 248.603768 76.606914 
L 252.873462 61.859771 
L 255.286641 52.028343 
L 257.404082 42.196914 
L 258.212953 37.2812 
L 259.161739 32.365486 
L 259.817736 27.449771 
L 261.375956 17.618343 
L 262.876382 12.702629 
L 264.633035 7.786914 
L 261.859264 5.084058 
L 260.025172 2.8712 
L 260.025172 2.8712 
" style="fill:none;stroke:#000000;stroke-width:1.5;"/>
   </g>
   <g id="LineCollection_3">
    <path clip-path="url(#p57ee22d4b0)" d="M 124.675419 2.8712 
L 118.318385 7.786914 
L 115.436447 12.702629 
L 109.159175 22.534057 
L 106.164472 27.449771 
L 101.874086 34.79148 
L 98.055008 42.196914 
L 97.168639 43.937615 
L 91.444133 56.944057 
L 87.587998 66.775486 
L 86.089931 71.6912 
L 84.349567 76.606914 
L 81.471969 86.438343 
L 78.346854 98.133728 
L 77.631573 101.185486 
L 76.884278 106.1012 
L 75.583731 111.016914 
L 75.011075 115.932629 
L 73.641407 122.250716 
L 73.093024 125.764057 
L 72.641106 130.679771 
L 71.598733 135.595486 
L 71.521083 140.5112 
L 70.550593 145.426914 
L 70.446428 150.342629 
L 69.984273 155.258343 
L 69.844977 160.174057 
L 70.028649 165.089771 
L 69.95664 170.005486 
L 70.864593 174.9212 
L 71.02001 179.836914 
L 72.527547 184.752629 
L 73.641407 189.913773 
L 75.555679 194.584057 
L 78.346854 199.679412 
L 83.0523 204.637825 
L 87.757746 207.582411 
L 92.769158 209.3312 
L 97.168639 210.369977 
L 101.874086 210.845614 
L 111.284979 210.686579 
L 115.990425 209.836259 
L 120.927423 209.3312 
L 134.812211 205.581356 
L 139.517657 203.955801 
L 144.223104 202.059339 
L 149.923192 199.499771 
L 153.633996 197.653907 
L 159.279334 194.584057 
L 167.750336 189.195457 
L 173.743097 184.752629 
L 179.74064 179.836914 
L 186.572121 173.39225 
L 191.277568 168.456333 
L 195.983014 163.063144 
L 198.375452 160.174057 
L 202.147117 155.258343 
L 205.640304 150.342629 
L 210.099354 143.569687 
L 214.896227 135.595486 
L 220.171213 125.764057 
L 224.215693 117.301778 
L 227.027615 111.016914 
L 231.001721 101.185486 
L 234.542002 91.354057 
L 237.661409 81.522629 
L 239.108807 76.606914 
L 241.665175 66.775486 
L 243.83047 56.944057 
L 244.748384 52.028343 
L 246.311776 42.196914 
L 246.788853 37.2812 
L 247.435869 32.365486 
L 247.742925 26.783553 
L 248.080928 22.534057 
L 248.227036 17.618343 
L 248.953136 12.702629 
L 250.107555 7.786914 
L 247.742925 4.058614 
L 246.396228 2.8712 
L 246.396228 2.8712 
" style="fill:none;stroke:#000000;stroke-width:1.5;"/>
   </g>
   <g id="LineCollection_4">
    <path clip-path="url(#p57ee22d4b0)" d="M 136.553826 2.8712 
L 134.812211 3.902745 
L 130.106764 6.644849 
L 128.308533 7.786914 
L 125.401318 11.618308 
L 124.621629 12.702629 
L 120.805298 17.618343 
L 120.695871 17.744288 
L 117.176895 22.534057 
L 115.990425 24.102963 
L 113.643167 27.449771 
L 111.284979 30.640683 
L 110.186589 32.365486 
L 107.446685 36.763019 
" style="fill:none;stroke:#000000;stroke-width:1.5;"/>
    <path clip-path="url(#p57ee22d4b0)" d="M 84.56648 88.651288 
L 83.736453 91.354057 
L 83.0523 93.792161 
L 82.448881 96.269771 
L 81.085368 101.185486 
L 80.051921 106.1012 
L 78.703764 111.016914 
L 78.346854 112.747348 
L 77.846624 115.932629 
L 76.920231 120.848343 
L 76.127055 125.764057 
L 75.608199 130.679771 
L 74.560186 135.595486 
L 74.634571 140.5112 
L 73.641407 144.706288 
L 73.46956 145.426914 
L 73.641407 149.934912 
L 73.657946 150.342629 
L 73.641407 150.482815 
L 73.079902 155.258343 
L 72.994282 160.174057 
L 73.413264 165.089771 
L 73.114368 170.005486 
L 73.641407 171.992692 
L 74.420659 174.9212 
L 74.391647 179.836914 
L 76.023624 184.752629 
L 77.314096 189.668343 
L 78.346854 192.14199 
L 79.77533 194.584057 
L 83.0523 198.701775 
L 83.834836 199.499771 
L 87.757746 202.852575 
L 90.768907 204.415486 
L 92.463193 205.074903 
L 97.168639 206.324832 
L 101.874086 206.945249 
L 106.579532 206.985112 
L 111.284979 206.870556 
L 115.990425 206.129611 
L 120.695871 205.473892 
L 125.308326 204.415486 
L 125.401318 204.390051 
L 130.106764 202.958611 
L 134.812211 201.335892 
L 139.517657 199.529206 
L 139.592898 199.499771 
L 144.223104 197.424461 
L 148.92855 195.074134 
L 149.921563 194.584057 
L 153.633996 192.470381 
L 158.269952 189.668343 
L 158.339443 189.620364 
L 163.044889 186.333667 
L 165.256858 184.752629 
L 167.750336 182.787358 
L 171.429227 179.836914 
L 172.455782 178.904629 
L 176.869446 174.9212 
L 177.161229 174.636707 
L 181.771256 170.005486 
L 181.866675 169.899212 
L 186.219923 165.089771 
L 186.572121 164.67196 
L 190.277549 160.174057 
L 191.277568 158.863655 
L 194.031407 155.258343 
L 195.983014 152.500213 
L 197.499262 150.342629 
L 200.688461 145.534196 
L 200.759264 145.426914 
L 203.718945 140.5112 
L 205.393907 137.61299 
L 206.563477 135.595486 
L 209.192073 130.679771 
L 210.099354 128.884277 
L 211.657768 125.764057 
L 213.971118 120.848343 
L 214.8048 118.938204 
L 216.125806 115.932629 
L 218.191596 111.016914 
L 219.510246 107.628248 
L 220.097677 106.1012 
L 221.884898 101.185486 
L 223.540521 96.269771 
L 224.215693 94.145134 
L 225.10597 91.354057 
L 226.54287 86.438343 
L 227.871771 81.522629 
L 228.921139 77.394486 
L 229.119904 76.606914 
L 230.193069 71.6912 
L 231.203369 66.775486 
L 232.063392 61.859771 
L 232.841384 56.944057 
L 233.483248 52.028343 
L 233.626586 50.590338 
L 233.969717 47.112629 
L 234.355169 42.196914 
L 234.523616 37.2812 
L 234.638394 32.365486 
L 234.480579 27.449771 
L 234.287693 22.534057 
L 233.940177 17.618343 
L 234.083955 12.702629 
L 234.149565 7.786914 
L 233.626586 7.326729 
L 228.921139 3.48851 
L 228.197746 2.8712 
" style="fill:none;stroke:#000000;stroke-width:1.5;"/>
   </g>
   <g id="LineCollection_5">
    <path clip-path="url(#p57ee22d4b0)" d="M 155.998908 2.8712 
L 153.633996 3.763318 
L 148.92855 4.778179 
L 142.711842 7.786914 
L 139.517657 10.74812 
L 137.577122 12.702629 
L 134.812211 15.23078 
L 132.651446 17.618343 
L 130.106764 20.026561 
L 123.258534 27.449771 
L 120.695871 30.251146 
L 115.990425 36.326299 
L 115.31643 37.2812 
L 111.284979 42.620139 
L 105.412537 52.028343 
L 101.874086 58.160294 
L 97.168639 67.537849 
L 95.44382 71.6912 
L 92.463193 78.530191 
L 87.757746 91.552466 
L 84.962985 101.185486 
L 83.860592 106.1012 
L 82.388131 111.016914 
L 81.450353 115.932629 
L 80.353321 120.848343 
L 79.403798 125.764057 
L 77.810571 135.595486 
L 77.501511 140.5112 
L 76.79583 145.426914 
L 76.730867 150.342629 
L 76.364794 155.258343 
L 76.322019 160.174057 
L 76.629484 165.089771 
L 76.667797 170.005486 
L 77.555022 174.9212 
L 78.346854 180.497505 
L 79.931492 184.752629 
L 82.02638 189.668343 
L 83.0523 191.392679 
L 85.48864 194.584057 
L 87.757746 196.897258 
L 92.463193 199.859331 
L 97.168639 201.573907 
L 101.874086 202.454259 
L 106.579532 202.663399 
L 111.284979 202.523963 
L 115.990425 201.821637 
L 120.695871 201.006687 
L 126.328028 199.499771 
L 130.106764 198.251708 
L 134.812211 196.446836 
L 139.517657 194.434076 
L 144.223104 192.038852 
L 148.92855 189.401526 
L 156.026196 184.752629 
L 163.044889 179.412123 
L 168.13838 174.9212 
L 173.17924 170.005486 
L 177.691068 165.089771 
L 181.866675 160.061703 
L 186.572121 153.799944 
L 188.964544 150.342629 
L 192.174514 145.426914 
L 195.983014 138.949267 
L 197.853739 135.595486 
L 200.688461 130.076864 
L 202.750603 125.764057 
L 205.393907 119.797102 
L 208.906879 111.016914 
L 210.655152 106.1012 
L 212.275496 101.185486 
L 215.122309 91.354057 
L 216.33974 86.438343 
L 218.419915 76.606914 
L 219.510246 69.901956 
L 219.954215 66.775486 
L 220.473689 61.859771 
L 220.869457 56.944057 
L 221.090526 52.028343 
L 221.125912 47.112629 
L 221.005424 42.196914 
L 220.611413 37.2812 
L 220.061843 32.365486 
L 219.147888 27.449771 
L 217.973421 22.534057 
L 216.386768 17.618343 
L 214.8048 11.841274 
L 214.123421 7.786914 
L 210.099354 5.85638 
L 205.393907 3.296388 
L 203.916337 2.8712 
L 203.916337 2.8712 
" style="fill:none;stroke:#000000;stroke-width:1.5;"/>
   </g>
   <g id="LineCollection_6">
    <path clip-path="url(#p57ee22d4b0)" d="M 97.168639 195.770968 
L 101.874086 196.979441 
L 106.579532 197.363677 
L 111.284979 197.339575 
L 115.990425 196.639428 
L 120.695871 195.780442 
L 125.401318 194.445908 
L 130.106764 192.701969 
L 137.01484 189.668343 
L 144.223104 185.642655 
L 145.635299 184.752629 
L 153.633996 179.128409 
L 158.622323 174.9212 
L 163.929729 170.005486 
L 168.541757 165.089771 
L 172.721386 160.174057 
L 177.161229 154.336979 
L 181.866675 147.304216 
L 183.083678 145.426914 
L 186.572121 139.415356 
L 188.625395 135.595486 
L 191.277568 130.204038 
L 193.305294 125.764057 
L 195.983014 119.304232 
L 197.26558 115.932629 
L 199.004631 111.016914 
L 200.688461 105.717701 
L 201.988908 101.185486 
L 204.346299 91.354057 
L 205.393907 85.91798 
L 206.078274 81.522629 
L 206.719338 76.606914 
L 207.136331 71.6912 
L 207.432872 66.775486 
L 207.472048 61.859771 
L 207.332071 56.944057 
L 206.924879 52.028343 
L 206.219431 47.112629 
L 205.25145 42.196914 
L 203.698159 37.2812 
L 201.836784 32.365486 
L 200.688461 30.086193 
L 199.082686 27.449771 
L 195.486043 22.534057 
L 191.277568 18.75135 
L 189.763072 17.618343 
L 186.572121 14.874921 
L 181.866675 13.666885 
L 177.161229 11.800972 
L 172.455782 12.158796 
L 167.750336 12.383832 
L 163.044889 13.575593 
L 153.329421 17.618343 
L 144.223104 22.662208 
L 137.622212 27.449771 
L 134.812211 29.519948 
L 130.106764 33.565066 
L 125.401318 38.21201 
L 120.695871 43.218817 
L 113.794333 52.028343 
L 111.284979 55.408948 
L 106.579532 62.813329 
L 101.592653 71.6912 
L 96.883389 81.522629 
L 92.463193 92.385209 
L 87.757746 106.762011 
L 86.631019 111.016914 
L 83.0523 127.103103 
L 82.529663 130.679771 
L 81.661213 135.595486 
L 81.299541 140.5112 
L 80.547062 145.426914 
L 80.064676 155.258343 
L 80.082366 160.174057 
L 80.790843 170.005486 
L 82.017114 174.9212 
L 83.0523 180.225489 
L 85.270528 184.752629 
L 87.757746 189.149704 
L 88.207869 189.668343 
L 92.463193 193.361254 
L 94.571524 194.584057 
L 97.168639 195.770968 
L 97.168639 195.770968 
" style="fill:none;stroke:#000000;stroke-width:1.5;"/>
   </g>
   <g id="LineCollection_7">
    <path clip-path="url(#p57ee22d4b0)" d="M 180.859752 130.880612 
L 180.953724 130.679771 
L 181.866675 128.574126 
L 183.08261 125.764057 
L 184.991346 120.848343 
L 186.572121 116.364262 
L 186.720606 115.932629 
L 188.216816 111.016914 
L 189.509935 106.1012 
L 190.691504 101.185486 
L 191.277568 98.098198 
L 191.62112 96.269771 
L 192.379983 91.354057 
L 192.928177 86.438343 
L 193.250517 81.522629 
L 193.382811 76.606914 
L 193.194561 71.6912 
L 192.799033 66.775486 
L 191.995104 61.859771 
L 191.277568 58.639887 
L 190.840308 56.944057 
L 189.087294 52.028343 
L 186.719356 47.112629 
L 186.572121 46.857534 
L 183.099609 42.196914 
L 181.866675 40.948077 
L 177.333876 37.2812 
L 177.161229 37.155131 
L 172.455782 35.050699 
L 167.750336 33.822207 
L 163.044889 33.506112 
L 158.339443 33.942828 
L 153.633996 34.912011 
L 148.92855 36.670246 
L 147.510041 37.2812 
L 144.223104 38.608893 
L 139.517657 41.268873 
L 138.118274 42.196914 
L 134.812211 44.418477 
L 131.431201 47.112629 
L 130.106764 48.139738 
L 125.829614 52.028343 
L 125.401318 52.413394 
L 121.024904 56.944057 
L 120.695871 57.281523 
L 116.965956 61.859771 
L 115.990425 63.010274 
L 113.16809 66.775486 
L 111.284979 69.336288 
L 109.838739 71.6912 
L 106.659001 76.606914 
L 106.579532 76.735947 
L 104.025108 81.522629 
L 101.874086 85.385109 
L 101.382232 86.438343 
L 99.147212 91.354057 
L 97.168639 95.766976 
L 96.979837 96.269771 
L 95.113752 101.185486 
L 93.426199 106.1012 
L 92.463193 108.692298 
L 91.733293 111.016914 
L 90.42425 115.932629 
L 89.08005 120.848343 
L 87.858713 125.764057 
L 87.757746 126.229625 
L 86.999631 130.679771 
L 86.155534 135.595486 
L 85.70513 140.5112 
L 84.996099 145.426914 
L 84.822111 150.342629 
L 84.605012 155.258343 
L 84.740502 160.174057 
L 85.261835 165.089771 
L 85.895494 170.005486 
L 87.241232 174.9212 
L 87.757746 176.630437 
L 89.258519 179.836914 
L 92.463193 184.339522 
L 92.884779 184.752629 
L 97.168639 188.188801 
L 100.385584 189.668343 
L 101.874086 190.196584 
L 106.579532 190.908931 
L 111.284979 191.020949 
L 115.990425 190.420978 
L 119.875666 189.668343 
L 120.695871 189.481904 
L 125.401318 187.827446 
L 130.106764 185.94555 
L 132.660846 184.752629 
L 134.812211 183.628382 
L 139.517657 180.885103 
L 141.22592 179.836914 
L 144.223104 177.713478 
L 147.402708 175.208102 
" style="fill:none;stroke:#000000;stroke-width:1.5;"/>
   </g>
   <g id="LineCollection_8">
    <path clip-path="url(#p57ee22d4b0)" d="M 101.874086 180.71438 
L 106.579532 182.175956 
L 111.284979 182.715884 
L 115.990425 182.1932 
L 120.695871 181.239311 
L 124.836626 179.836914 
L 125.401318 179.610214 
L 130.106764 177.290138 
L 134.283409 174.9212 
L 134.812211 174.590318 
L 139.517657 171.236738 
L 141.163549 170.005486 
L 144.223104 167.369648 
L 146.644671 165.089771 
L 148.92855 162.73639 
L 151.375577 160.174057 
L 153.633996 157.526009 
L 155.460528 155.258343 
L 158.339443 151.282189 
L 159.005258 150.342629 
L 162.20993 145.426914 
L 163.044889 143.970613 
L 164.965766 140.5112 
L 167.517416 135.595486 
L 167.750336 135.076357 
L 169.658639 130.679771 
L 171.622824 125.764057 
L 172.455782 123.36768 
L 173.314901 120.848343 
L 174.734175 115.932629 
L 175.979546 111.016914 
L 176.95949 106.1012 
L 177.161229 104.775494 
L 177.685232 101.185486 
L 178.11151 96.269771 
L 178.293638 91.354057 
L 178.158585 86.438343 
L 177.664552 81.522629 
L 177.161229 78.586052 
L 176.748078 76.606914 
L 175.136844 71.6912 
L 172.925711 66.775486 
L 172.455782 65.998361 
L 169.194111 61.859771 
L 167.750336 60.383804 
L 163.044889 57.21719 
L 162.324712 56.944057 
L 158.339443 55.686463 
L 153.633996 55.180712 
L 148.92855 55.648179 
L 144.223104 56.763402 
L 143.796052 56.944057 
L 139.517657 58.746608 
L 134.812211 61.274515 
L 133.982513 61.859771 
L 130.106764 64.520306 
L 127.40241 66.775486 
L 125.401318 68.476427 
L 122.187386 71.6912 
L 120.695871 73.122492 
L 117.734774 76.606914 
L 115.990425 78.710413 
L 113.973871 81.522629 
L 111.284979 85.128954 
L 110.487472 86.438343 
L 107.528005 91.354057 
L 106.579532 92.971408 
L 104.922876 96.269771 
L 102.373506 101.185486 
L 101.874086 102.229923 
L 100.354798 106.1012 
L 98.35717 111.016914 
L 97.168639 114.260608 
L 96.667245 115.932629 
L 95.208832 120.848343 
L 93.883012 125.764057 
L 92.738633 130.679771 
L 92.463193 131.887617 
L 91.768309 135.595486 
L 91.205154 140.5112 
L 90.606586 145.426914 
L 90.43864 150.342629 
L 90.411506 155.258343 
L 90.783619 160.174057 
L 91.632574 165.089771 
L 92.463193 168.579789 
L 92.935542 170.005486 
L 95.745068 174.9212 
L 97.168639 176.961833 
L 100.460268 179.836914 
L 101.874086 180.71438 
" style="fill:none;stroke:#000000;stroke-width:1.5;"/>
   </g>
   <g id="LineCollection_9">
    <path clip-path="url(#p57ee22d4b0)" d="M 111.284979 170.569597 
L 115.990425 170.590744 
L 119.490386 170.005486 
L 120.695871 169.753229 
L 125.401318 167.699243 
L 130.106764 165.134481 
L 130.172406 165.089771 
L 134.812211 161.570037 
L 136.42583 160.174057 
L 139.517657 157.153465 
L 141.320307 155.258343 
L 144.223104 151.810737 
L 145.334446 150.342629 
L 148.769316 145.426914 
L 148.92855 145.146039 
L 151.49396 140.5112 
L 153.633996 136.488447 
L 154.066997 135.595486 
L 156.023924 130.679771 
L 157.75776 125.764057 
L 158.339443 123.677612 
L 159.094411 120.848343 
L 160.036927 115.932629 
L 160.707375 111.016914 
L 160.890532 106.1012 
L 160.73095 101.185486 
L 159.915115 96.269771 
L 158.498356 91.354057 
L 158.339443 90.984139 
L 155.643651 86.438343 
L 153.633996 84.107386 
L 149.500882 81.522629 
L 148.92855 81.239385 
L 144.223104 80.152651 
L 139.517657 80.593343 
L 136.433831 81.522629 
L 134.812211 81.997318 
L 130.106764 84.480749 
L 127.415742 86.438343 
L 125.401318 87.907902 
L 121.694313 91.354057 
L 120.695871 92.285463 
L 117.463557 96.269771 
L 115.990425 98.018505 
L 113.757232 101.185486 
L 111.284979 104.882345 
L 110.649011 106.1012 
L 108.036555 111.016914 
L 106.579532 114.043719 
L 105.826558 115.932629 
L 103.873235 120.848343 
L 102.096559 125.764057 
L 101.874086 126.491765 
L 100.86981 130.679771 
L 99.807837 135.595486 
L 99.148784 140.5112 
L 98.623789 145.426914 
L 98.698221 150.342629 
L 99.160888 155.258343 
L 100.370987 160.174057 
L 101.874086 163.684652 
L 102.901991 165.089771 
L 106.579532 168.636675 
L 109.522789 170.005486 
L 111.284979 170.569597 
" style="fill:none;stroke:#000000;stroke-width:1.5;"/>
   </g>
   <g id="LineCollection_10">
    <path clip-path="url(#p57ee22d4b0)" d="M 120.695871 143.837309 
L 125.401318 142.100964 
L 127.073203 140.5112 
L 130.106764 137.388757 
L 131.192005 135.595486 
L 132.867456 130.679771 
L 133.54497 125.764057 
L 131.586133 120.848343 
L 130.106764 119.738507 
L 125.401318 120.745379 
L 125.285486 120.848343 
L 120.695871 125.496423 
L 120.548166 125.764057 
L 118.701721 130.679771 
L 117.248622 135.595486 
L 118.44476 140.5112 
L 120.695871 143.837309 
" style="fill:none;stroke:#000000;stroke-width:1.5;"/>
   </g>
   <g id="patch_3">
    <path d="M 49.675 244.2 
L 49.675 14.8 
" style="fill:none;stroke:#000000;stroke-linecap:square;stroke-linejoin:miter;stroke-width:0.8;"/>
   </g>
   <g id="patch_4">
    <path d="M 49.675 244.2 
L 269.2625 244.2 
" style="fill:none;stroke:#000000;stroke-linecap:square;stroke-linejoin:miter;stroke-width:0.8;"/>
   </g>
   <g id="text_15">
    <g clip-path="url(#p57ee22d4b0)">
     <!-- -7500.0 -->
     <defs>
      <path d="M 4.890625 31.390625 
L 31.203125 31.390625 
L 31.203125 23.390625 
L 4.890625 23.390625 
z
" id="DejaVuSans-45"/>
      <path d="M 8.203125 72.90625 
L 55.078125 72.90625 
L 55.078125 68.703125 
L 28.609375 0 
L 18.3125 0 
L 43.21875 64.59375 
L 8.203125 64.59375 
z
" id="DejaVuSans-55"/>
     </defs>
     <g transform="translate(225.852827 148.571793)rotate(-58.462696)scale(0.1 -0.1)">
      <use xlink:href="#DejaVuSans-45"/>
      <use x="36.083984" xlink:href="#DejaVuSans-55"/>
      <use x="99.707031" xlink:href="#DejaVuSans-53"/>
      <use x="163.330078" xlink:href="#DejaVuSans-48"/>
      <use x="226.953125" xlink:href="#DejaVuSans-48"/>
      <use x="290.576172" xlink:href="#DejaVuSans-46"/>
      <use x="322.363281" xlink:href="#DejaVuSans-48"/>
     </g>
    </g>
   </g>
   <g id="text_16">
    <g clip-path="url(#p57ee22d4b0)">
     <!-- -7262.6 -->
     <defs>
      <path d="M 33.015625 40.375 
Q 26.375 40.375 22.484375 35.828125 
Q 18.609375 31.296875 18.609375 23.390625 
Q 18.609375 15.53125 22.484375 10.953125 
Q 26.375 6.390625 33.015625 6.390625 
Q 39.65625 6.390625 43.53125 10.953125 
Q 47.40625 15.53125 47.40625 23.390625 
Q 47.40625 31.296875 43.53125 35.828125 
Q 39.65625 40.375 33.015625 40.375 
z
M 52.59375 71.296875 
L 52.59375 62.3125 
Q 48.875 64.0625 45.09375 64.984375 
Q 41.3125 65.921875 37.59375 65.921875 
Q 27.828125 65.921875 22.671875 59.328125 
Q 17.53125 52.734375 16.796875 39.40625 
Q 19.671875 43.65625 24.015625 45.921875 
Q 28.375 48.1875 33.59375 48.1875 
Q 44.578125 48.1875 50.953125 41.515625 
Q 57.328125 34.859375 57.328125 23.390625 
Q 57.328125 12.15625 50.6875 5.359375 
Q 44.046875 -1.421875 33.015625 -1.421875 
Q 20.359375 -1.421875 13.671875 8.265625 
Q 6.984375 17.96875 6.984375 36.375 
Q 6.984375 53.65625 15.1875 63.9375 
Q 23.390625 74.21875 37.203125 74.21875 
Q 40.921875 74.21875 44.703125 73.484375 
Q 48.484375 72.75 52.59375 71.296875 
z
" id="DejaVuSans-54"/>
     </defs>
     <g transform="translate(88.623667 80.497899)rotate(-64.807892)scale(0.1 -0.1)">
      <use xlink:href="#DejaVuSans-45"/>
      <use x="36.083984" xlink:href="#DejaVuSans-55"/>
      <use x="99.707031" xlink:href="#DejaVuSans-50"/>
      <use x="163.330078" xlink:href="#DejaVuSans-54"/>
      <use x="226.953125" xlink:href="#DejaVuSans-50"/>
      <use x="290.576172" xlink:href="#DejaVuSans-46"/>
      <use x="322.363281" xlink:href="#DejaVuSans-54"/>
     </g>
    </g>
   </g>
   <g id="text_17">
    <g clip-path="url(#p57ee22d4b0)">
     <!-- -7032.6 -->
     <g transform="translate(156.692161 172.015102)rotate(-51.125803)scale(0.1 -0.1)">
      <use xlink:href="#DejaVuSans-45"/>
      <use x="36.083984" xlink:href="#DejaVuSans-55"/>
      <use x="99.707031" xlink:href="#DejaVuSans-48"/>
      <use x="163.330078" xlink:href="#DejaVuSans-51"/>
      <use x="226.953125" xlink:href="#DejaVuSans-50"/>
      <use x="290.576172" xlink:href="#DejaVuSans-46"/>
      <use x="322.363281" xlink:href="#DejaVuSans-54"/>
     </g>
    </g>
   </g>
  </g>
 </g>
 <defs>
  <clipPath id="p57ee22d4b0">
   <rect height="229.4" width="219.5875" x="49.675" y="14.8"/>
  </clipPath>
 </defs>
</svg>
