<?xml version="1.0" encoding="UTF-8" standalone="no"?>
<!-- Created with Inkscape (http://www.inkscape.org/) -->

<svg
   xmlns:dc="http://purl.org/dc/elements/1.1/"
   xmlns:cc="http://creativecommons.org/ns#"
   xmlns:rdf="http://www.w3.org/1999/02/22-rdf-syntax-ns#"
   xmlns:svg="http://www.w3.org/2000/svg"
   xmlns="http://www.w3.org/2000/svg"
   xmlns:sodipodi="http://sodipodi.sourceforge.net/DTD/sodipodi-0.dtd"
   xmlns:inkscape="http://www.inkscape.org/namespaces/inkscape"
   width="210mm"
   height="297mm"
   viewBox="0 0 210 297"
   version="1.1"
   id="svg8"
   inkscape:version="0.92.2 (5c3e80d, 2017-08-06)"
   sodipodi:docname="drawing.svg">
  <defs
     id="defs2" />
  <sodipodi:namedview
     id="base"
     pagecolor="#ffffff"
     bordercolor="#666666"
     borderopacity="1.0"
     inkscape:pageopacity="0.0"
     inkscape:pageshadow="2"
     inkscape:zoom="6.705361"
     inkscape:cx="81.010882"
     inkscape:cy="784.33534"
     inkscape:document-units="mm"
     inkscape:current-layer="layer1"
     showgrid="false"
     showguides="false"
     inkscape:window-width="1881"
     inkscape:window-height="1025"
     inkscape:window-x="39"
     inkscape:window-y="27"
     inkscape:window-maximized="1" />
  <metadata
     id="metadata5">
    <rdf:RDF>
      <cc:Work
         rdf:about="">
        <dc:format>image/svg+xml</dc:format>
        <dc:type
           rdf:resource="http://purl.org/dc/dcmitype/StillImage" />
        <dc:title></dc:title>
      </cc:Work>
    </rdf:RDF>
  </metadata>
  <g
     inkscape:label="Layer 1"
     inkscape:groupmode="layer"
     id="layer1">
    <path
       style="fill:none;stroke:#000000;stroke-width:0.26458332px;stroke-linecap:butt;stroke-linejoin:miter;stroke-opacity:1"
       d="m 23.771955,81.936343 v 0 L 18.637229,101.0994 h 3.014223 l 2.487706,-9.284241 2.465736,9.202251 h 2.579925 l -3.961469,-14.784401 0.739584,-2.760165 0.549818,-2.051946 5.274639,19.685212 h 2.475476 L 27.842056,77.143326 v -2.51714 h -2.898243 l 0.06975,2.622729 -1.262573,4.711983"
       id="path885"
       inkscape:connector-curvature="0"
       sodipodi:nodetypes="ccccccccccccccccc" />
    <path
       style="fill:#ececec;stroke:none;stroke-width:0.37795276;stroke-miterlimit:4;stroke-dasharray:none"
       d="m 71.348855,381.23316 c 0,-0.1121 4.261368,-16.12791 9.469707,-35.59071 5.208339,-19.46279 10.564457,-39.51542 11.902486,-44.56139 l 2.432779,-9.17449 -0.122643,-4.58725 -0.122643,-4.58725 h 4.88188 4.881879 v 4.53806 4.53806 l 11.82072,44.12894 c 6.50139,24.27091 11.90353,44.43739 12.00475,44.81439 l 0.18403,0.68545 h -4.05307 -4.05308 l -10.0912,-37.69979 c -5.55016,-20.73488 -10.15356,-37.7711 -10.22978,-37.85826 -0.0762,-0.0872 -1.35401,4.3873 -2.839546,9.94326 l -2.700973,10.10173 7.305239,27.28199 c 4.01788,15.00509 7.35694,27.45006 7.42013,27.65549 0.10772,0.35017 -0.15244,0.36993 -4.16523,0.31636 l -4.28013,-0.0571 -4.663117,-17.39991 c -2.564718,-9.56994 -4.732009,-17.67462 -4.816205,-18.0104 -0.08555,-0.34118 -0.230715,-0.52726 -0.329059,-0.42181 -0.09679,0.10377 -2.339645,8.27964 -4.984129,18.16858 l -4.808152,17.9799 h -5.022321 c -3.09098,0 -5.022322,-0.0784 -5.022322,-0.20381 z"
       id="path887"
       inkscape:connector-curvature="0"
       transform="scale(0.26458333)" />
    <path
       style="fill:none;stroke:#000000;stroke-width:0.065;stroke-linecap:butt;stroke-linejoin:miter;stroke-miterlimit:4;stroke-dasharray:none;stroke-opacity:1"
       d="m 26.219577,74.712001 c 0.09588,5.535007 -1.548044,6.082723 -1.952614,8.718992 -0.03591,0.234009 -0.434043,4.261514 -0.434043,4.261514 l -0.51296,1.459965 c 0,0 -1.479693,5.484728 -1.598069,5.977959 -0.118375,0.493231 -1.381046,3.492074 -1.381046,3.492074 l -0.177564,1.479695 -0.335396,1.02592"
       id="path891"
       inkscape:connector-curvature="0"
       sodipodi:nodetypes="cscccccc" />
    <path
       style="fill:none;stroke:#000000;stroke-width:0.065;stroke-linecap:butt;stroke-linejoin:miter;stroke-miterlimit:4;stroke-dasharray:none;stroke-opacity:1"
       d="m 23.83292,87.692507 1.676985,5.543917 c 0,0 1.913736,4.261514 1.953194,4.715288 0.03946,0.453771 -0.295937,2.979118 -0.295937,2.979118"
       id="path893"
       inkscape:connector-curvature="0"
       sodipodi:nodetypes="cccc" />
    <path
       style="fill:none;stroke:#000000;stroke-width:0.06689262;stroke-linecap:butt;stroke-linejoin:miter;stroke-miterlimit:4;stroke-dasharray:none;stroke-opacity:1"
       d="m 27.404229,97.695196 1.084474,3.235674"
       id="path895"
       inkscape:connector-curvature="0" />
    <path
       style="fill:none;stroke:#000000;stroke-width:0.06553576;stroke-linecap:butt;stroke-linejoin:miter;stroke-miterlimit:4;stroke-dasharray:none;stroke-opacity:1"
       d="m 26.151242,76.841598 c 0.996284,1.434053 1.114654,2.346629 1.124518,2.386744 0.0099,0.04012 -0.197284,1.093088 -0.197284,1.093088 0,0 -0.108506,0.330936 0.18742,0.942663 0.295927,0.611729 0.246605,1.183346 0.246605,1.183346 0,0 0,0.02007 0.02959,0.300847 0.02959,0.280793 0.463617,1.654677 0.463617,1.654677 0,0 0.828593,3.72051 1.400717,4.352296 0.572123,0.631786 0.729952,2.095921 0.887779,3.680398 0.157825,1.584477 0.08878,1.534334 0.591851,2.396772 0.503076,0.862436 1.390853,4.913885 1.390853,4.913885 l 0.256468,0.762156 c 0,0 0.05919,-0.0402 0.05919,0.50141"
       id="path897"
       inkscape:connector-curvature="0" />
    <path
       style="fill:none;stroke:#000000;stroke-width:0.26458332px;stroke-linecap:butt;stroke-linejoin:miter;stroke-opacity:1"
       d="M 27.107972,78.912997 Z"
       id="path899"
       inkscape:connector-curvature="0" />
    <path
       style="fill:none;stroke:#000000;stroke-width:0.065;stroke-linecap:butt;stroke-linejoin:miter;stroke-miterlimit:4;stroke-dasharray:none;stroke-opacity:1"
       d="m 26.979732,78.291526 c 0.8089,1.104836 1.410641,3.561127 1.410641,3.561127 0,0 0.157835,1.755902 0.157835,1.933466 0,0.177562 0.414314,2.111028 0.414314,2.111028 0,0 0.535381,1.602854 1.203483,3.176408 1.499422,3.531533 0.848357,4.596911 1.755904,6.648752 0.907545,2.051841 1.381181,1.953059 1.302129,3.590721 -0.0873,1.808432 -0.177564,1.815092 -0.177564,1.815092"
       id="path901"
       inkscape:connector-curvature="0"
       sodipodi:nodetypes="ccscsssc" />
    <path
       style="fill:none;stroke:#000000;stroke-width:0.065;stroke-linecap:butt;stroke-linejoin:miter;stroke-miterlimit:4;stroke-dasharray:none;stroke-opacity:1"
       d="m 33.233407,99.036821 0.813652,1.885039"
       id="path903"
       inkscape:connector-curvature="0"
       sodipodi:nodetypes="cc" />
  </g>
</svg>
