<?xml version="1.0" encoding="UTF-8" standalone="no"?>
<!-- Created with Inkscape (http://www.inkscape.org/) -->

<svg
   xmlns:dc="http://purl.org/dc/elements/1.1/"
   xmlns:cc="http://creativecommons.org/ns#"
   xmlns:rdf="http://www.w3.org/1999/02/22-rdf-syntax-ns#"
   xmlns:svg="http://www.w3.org/2000/svg"
   xmlns="http://www.w3.org/2000/svg"
   xmlns:sodipodi="http://sodipodi.sourceforge.net/DTD/sodipodi-0.dtd"
   xmlns:inkscape="http://www.inkscape.org/namespaces/inkscape"
   id="svg2"
   version="1.1"
   inkscape:version="0.91 r13725"
   xml:space="preserve"
   width="690.16821"
   height="187.55717"
   viewBox="0 0 690.16821 187.55718"
   sodipodi:docname="freeling.svg"><metadata
     id="metadata8"><rdf:RDF><cc:Work
         rdf:about=""><dc:format>image/svg+xml</dc:format><dc:type
           rdf:resource="http://purl.org/dc/dcmitype/StillImage" /><dc:title></dc:title></cc:Work></rdf:RDF></metadata><defs
     id="defs6"><clipPath
       clipPathUnits="userSpaceOnUse"
       id="clipPath20"><path
         d="m 47.308239,564.72291 152.181821,0 0,112.46896 -152.181821,0 0,-112.46896 z"
         id="path22"
         inkscape:connector-curvature="0" /></clipPath><clipPath
       clipPathUnits="userSpaceOnUse"
       id="clipPath30"><path
         d="m 47.308239,564.72291 152.181821,0 0,112.46896 -152.181821,0 0,-112.46896 z"
         id="path32"
         inkscape:connector-curvature="0" /></clipPath><clipPath
       clipPathUnits="userSpaceOnUse"
       id="clipPath40"><path
         d="m 47.308239,564.72291 152.181821,0 0,112.46896 -152.181821,0 0,-112.46896 z"
         id="path42"
         inkscape:connector-curvature="0" /></clipPath><clipPath
       clipPathUnits="userSpaceOnUse"
       id="clipPath50"><path
         d="m 47.308239,564.72291 152.181821,0 0,112.46896 -152.181821,0 0,-112.46896 z"
         id="path52"
         inkscape:connector-curvature="0" /></clipPath><clipPath
       clipPathUnits="userSpaceOnUse"
       id="clipPath114"><path
         d="m 47.308239,564.72291 152.181821,0 0,112.46896 -152.181821,0 0,-112.46896 z"
         id="path116"
         inkscape:connector-curvature="0" /></clipPath><clipPath
       clipPathUnits="userSpaceOnUse"
       id="clipPath124"><path
         d="m 47.308239,564.72291 152.181821,0 0,112.46896 -152.181821,0 0,-112.46896 z"
         id="path126"
         inkscape:connector-curvature="0" /></clipPath><clipPath
       clipPathUnits="userSpaceOnUse"
       id="clipPath142"><path
         d="m 229.92642,564.72291 152.18182,0 0,112.46896 -152.18182,0 0,-112.46896 z"
         id="path144"
         inkscape:connector-curvature="0" /></clipPath><clipPath
       clipPathUnits="userSpaceOnUse"
       id="clipPath152"><path
         d="m 229.92642,564.72291 152.18182,0 0,112.46896 -152.18182,0 0,-112.46896 z"
         id="path154"
         inkscape:connector-curvature="0" /></clipPath><clipPath
       clipPathUnits="userSpaceOnUse"
       id="clipPath162"><path
         d="m 229.92642,564.72291 152.18182,0 0,112.46896 -152.18182,0 0,-112.46896 z"
         id="path164"
         inkscape:connector-curvature="0" /></clipPath><clipPath
       clipPathUnits="userSpaceOnUse"
       id="clipPath172"><path
         d="m 229.92642,564.72291 152.18182,0 0,112.46896 -152.18182,0 0,-112.46896 z"
         id="path174"
         inkscape:connector-curvature="0" /></clipPath><clipPath
       clipPathUnits="userSpaceOnUse"
       id="clipPath232"><path
         d="m 229.92642,564.72291 152.18182,0 0,112.46896 -152.18182,0 0,-112.46896 z"
         id="path234"
         inkscape:connector-curvature="0" /></clipPath><clipPath
       clipPathUnits="userSpaceOnUse"
       id="clipPath242"><path
         d="m 229.92642,564.72291 152.18182,0 0,112.46896 -152.18182,0 0,-112.46896 z"
         id="path244"
         inkscape:connector-curvature="0" /></clipPath><clipPath
       clipPathUnits="userSpaceOnUse"
       id="clipPath260"><path
         d="m 47.308239,429.76015 152.181821,0 0,112.46897 -152.181821,0 0,-112.46897 z"
         id="path262"
         inkscape:connector-curvature="0" /></clipPath><clipPath
       clipPathUnits="userSpaceOnUse"
       id="clipPath270"><path
         d="m 47.308239,429.76015 152.181821,0 0,112.46897 -152.181821,0 0,-112.46897 z"
         id="path272"
         inkscape:connector-curvature="0" /></clipPath><clipPath
       clipPathUnits="userSpaceOnUse"
       id="clipPath280"><path
         d="m 47.308239,429.76015 152.181821,0 0,112.46897 -152.181821,0 0,-112.46897 z"
         id="path282"
         inkscape:connector-curvature="0" /></clipPath><clipPath
       clipPathUnits="userSpaceOnUse"
       id="clipPath290"><path
         d="m 47.308239,429.76015 152.181821,0 0,112.46897 -152.181821,0 0,-112.46897 z"
         id="path292"
         inkscape:connector-curvature="0" /></clipPath><clipPath
       clipPathUnits="userSpaceOnUse"
       id="clipPath360"><path
         d="m 47.308239,429.76015 152.181821,0 0,112.46897 -152.181821,0 0,-112.46897 z"
         id="path362"
         inkscape:connector-curvature="0" /></clipPath><clipPath
       clipPathUnits="userSpaceOnUse"
       id="clipPath370"><path
         d="m 47.308239,429.76015 152.181821,0 0,112.46897 -152.181821,0 0,-112.46897 z"
         id="path372"
         inkscape:connector-curvature="0" /></clipPath><clipPath
       clipPathUnits="userSpaceOnUse"
       id="clipPath388"><path
         d="m 229.92642,429.76015 152.18182,0 0,112.46897 -152.18182,0 0,-112.46897 z"
         id="path390"
         inkscape:connector-curvature="0" /></clipPath><clipPath
       clipPathUnits="userSpaceOnUse"
       id="clipPath398"><path
         d="m 229.92642,429.76015 152.18182,0 0,112.46897 -152.18182,0 0,-112.46897 z"
         id="path400"
         inkscape:connector-curvature="0" /></clipPath><clipPath
       clipPathUnits="userSpaceOnUse"
       id="clipPath408"><path
         d="m 229.92642,429.76015 152.18182,0 0,112.46897 -152.18182,0 0,-112.46897 z"
         id="path410"
         inkscape:connector-curvature="0" /></clipPath><clipPath
       clipPathUnits="userSpaceOnUse"
       id="clipPath418"><path
         d="m 229.92642,429.76015 152.18182,0 0,112.46897 -152.18182,0 0,-112.46897 z"
         id="path420"
         inkscape:connector-curvature="0" /></clipPath><clipPath
       clipPathUnits="userSpaceOnUse"
       id="clipPath478"><path
         d="m 229.92642,429.76015 152.18182,0 0,112.46897 -152.18182,0 0,-112.46897 z"
         id="path480"
         inkscape:connector-curvature="0" /></clipPath><clipPath
       clipPathUnits="userSpaceOnUse"
       id="clipPath488"><path
         d="m 229.92642,429.76015 152.18182,0 0,112.46897 -152.18182,0 0,-112.46897 z"
         id="path490"
         inkscape:connector-curvature="0" /></clipPath><clipPath
       clipPathUnits="userSpaceOnUse"
       id="clipPath506"><path
         d="m 47.308239,294.79739 152.181821,0 0,112.46897 -152.181821,0 0,-112.46897 z"
         id="path508"
         inkscape:connector-curvature="0" /></clipPath><clipPath
       clipPathUnits="userSpaceOnUse"
       id="clipPath516"><path
         d="m 47.308239,294.79739 152.181821,0 0,112.46897 -152.181821,0 0,-112.46897 z"
         id="path518"
         inkscape:connector-curvature="0" /></clipPath><clipPath
       clipPathUnits="userSpaceOnUse"
       id="clipPath526"><path
         d="m 47.308239,294.79739 152.181821,0 0,112.46897 -152.181821,0 0,-112.46897 z"
         id="path528"
         inkscape:connector-curvature="0" /></clipPath><clipPath
       clipPathUnits="userSpaceOnUse"
       id="clipPath536"><path
         d="m 47.308239,294.79739 152.181821,0 0,112.46897 -152.181821,0 0,-112.46897 z"
         id="path538"
         inkscape:connector-curvature="0" /></clipPath><clipPath
       clipPathUnits="userSpaceOnUse"
       id="clipPath612"><path
         d="m 47.308239,294.79739 152.181821,0 0,112.46897 -152.181821,0 0,-112.46897 z"
         id="path614"
         inkscape:connector-curvature="0" /></clipPath><clipPath
       clipPathUnits="userSpaceOnUse"
       id="clipPath622"><path
         d="m 47.308239,294.79739 152.181821,0 0,112.46897 -152.181821,0 0,-112.46897 z"
         id="path624"
         inkscape:connector-curvature="0" /></clipPath><clipPath
       clipPathUnits="userSpaceOnUse"
       id="clipPath640"><path
         d="m 229.92642,294.79739 152.18182,0 0,112.46897 -152.18182,0 0,-112.46897 z"
         id="path642"
         inkscape:connector-curvature="0" /></clipPath><clipPath
       clipPathUnits="userSpaceOnUse"
       id="clipPath650"><path
         d="m 229.92642,294.79739 152.18182,0 0,112.46897 -152.18182,0 0,-112.46897 z"
         id="path652"
         inkscape:connector-curvature="0" /></clipPath><clipPath
       clipPathUnits="userSpaceOnUse"
       id="clipPath660"><path
         d="m 229.92642,294.79739 152.18182,0 0,112.46897 -152.18182,0 0,-112.46897 z"
         id="path662"
         inkscape:connector-curvature="0" /></clipPath><clipPath
       clipPathUnits="userSpaceOnUse"
       id="clipPath670"><path
         d="m 229.92642,294.79739 152.18182,0 0,112.46897 -152.18182,0 0,-112.46897 z"
         id="path672"
         inkscape:connector-curvature="0" /></clipPath><clipPath
       clipPathUnits="userSpaceOnUse"
       id="clipPath736"><path
         d="m 229.92642,294.79739 152.18182,0 0,112.46897 -152.18182,0 0,-112.46897 z"
         id="path738"
         inkscape:connector-curvature="0" /></clipPath><clipPath
       clipPathUnits="userSpaceOnUse"
       id="clipPath746"><path
         d="m 229.92642,294.79739 152.18182,0 0,112.46897 -152.18182,0 0,-112.46897 z"
         id="path748"
         inkscape:connector-curvature="0" /></clipPath><clipPath
       clipPathUnits="userSpaceOnUse"
       id="clipPath764"><path
         d="m 47.308239,159.83463 152.181821,0 0,112.46897 -152.181821,0 0,-112.46897 z"
         id="path766"
         inkscape:connector-curvature="0" /></clipPath><clipPath
       clipPathUnits="userSpaceOnUse"
       id="clipPath774"><path
         d="m 47.308239,159.83463 152.181821,0 0,112.46897 -152.181821,0 0,-112.46897 z"
         id="path776"
         inkscape:connector-curvature="0" /></clipPath><clipPath
       clipPathUnits="userSpaceOnUse"
       id="clipPath784"><path
         d="m 47.308239,159.83463 152.181821,0 0,112.46897 -152.181821,0 0,-112.46897 z"
         id="path786"
         inkscape:connector-curvature="0" /></clipPath><clipPath
       clipPathUnits="userSpaceOnUse"
       id="clipPath794"><path
         d="m 47.308239,159.83463 152.181821,0 0,112.46897 -152.181821,0 0,-112.46897 z"
         id="path796"
         inkscape:connector-curvature="0" /></clipPath><clipPath
       clipPathUnits="userSpaceOnUse"
       id="clipPath870"><path
         d="m 47.308239,159.83463 152.181821,0 0,112.46897 -152.181821,0 0,-112.46897 z"
         id="path872"
         inkscape:connector-curvature="0" /></clipPath><clipPath
       clipPathUnits="userSpaceOnUse"
       id="clipPath880"><path
         d="m 47.308239,159.83463 152.181821,0 0,112.46897 -152.181821,0 0,-112.46897 z"
         id="path882"
         inkscape:connector-curvature="0" /></clipPath><clipPath
       clipPathUnits="userSpaceOnUse"
       id="clipPath898"><path
         d="m 229.92642,159.83463 152.18182,0 0,112.46897 -152.18182,0 0,-112.46897 z"
         id="path900"
         inkscape:connector-curvature="0" /></clipPath><clipPath
       clipPathUnits="userSpaceOnUse"
       id="clipPath908"><path
         d="m 229.92642,159.83463 152.18182,0 0,112.46897 -152.18182,0 0,-112.46897 z"
         id="path910"
         inkscape:connector-curvature="0" /></clipPath><clipPath
       clipPathUnits="userSpaceOnUse"
       id="clipPath918"><path
         d="m 229.92642,159.83463 152.18182,0 0,112.46897 -152.18182,0 0,-112.46897 z"
         id="path920"
         inkscape:connector-curvature="0" /></clipPath><clipPath
       clipPathUnits="userSpaceOnUse"
       id="clipPath928"><path
         d="m 229.92642,159.83463 152.18182,0 0,112.46897 -152.18182,0 0,-112.46897 z"
         id="path930"
         inkscape:connector-curvature="0" /></clipPath><clipPath
       clipPathUnits="userSpaceOnUse"
       id="clipPath994"><path
         d="m 229.92642,159.83463 152.18182,0 0,112.46897 -152.18182,0 0,-112.46897 z"
         id="path996"
         inkscape:connector-curvature="0" /></clipPath><clipPath
       clipPathUnits="userSpaceOnUse"
       id="clipPath1004"><path
         d="m 229.92642,159.83463 152.18182,0 0,112.46897 -152.18182,0 0,-112.46897 z"
         id="path1006"
         inkscape:connector-curvature="0" /></clipPath><clipPath
       clipPathUnits="userSpaceOnUse"
       id="clipPath1022"><path
         d="m 47.308239,24.871875 152.181821,0 0,112.468965 -152.181821,0 0,-112.468965 z"
         id="path1024"
         inkscape:connector-curvature="0" /></clipPath><clipPath
       clipPathUnits="userSpaceOnUse"
       id="clipPath1032"><path
         d="m 47.308239,24.871875 152.181821,0 0,112.468965 -152.181821,0 0,-112.468965 z"
         id="path1034"
         inkscape:connector-curvature="0" /></clipPath><clipPath
       clipPathUnits="userSpaceOnUse"
       id="clipPath1042"><path
         d="m 47.308239,24.871875 152.181821,0 0,112.468965 -152.181821,0 0,-112.468965 z"
         id="path1044"
         inkscape:connector-curvature="0" /></clipPath><clipPath
       clipPathUnits="userSpaceOnUse"
       id="clipPath1052"><path
         d="m 47.308239,24.871875 152.181821,0 0,112.468965 -152.181821,0 0,-112.468965 z"
         id="path1054"
         inkscape:connector-curvature="0" /></clipPath><clipPath
       clipPathUnits="userSpaceOnUse"
       id="clipPath1104"><path
         d="m -1021,-463 2815,0 0,1696 -2815,0 0,-1696 z"
         id="path1106"
         inkscape:connector-curvature="0" /></clipPath><clipPath
       clipPathUnits="userSpaceOnUse"
       id="clipPath1136"><path
         d="m 47.308239,24.871875 152.181821,0 0,112.468965 -152.181821,0 0,-112.468965 z"
         id="path1138"
         inkscape:connector-curvature="0" /></clipPath><clipPath
       clipPathUnits="userSpaceOnUse"
       id="clipPath1146"><path
         d="m 47.308239,24.871875 152.181821,0 0,112.468965 -152.181821,0 0,-112.468965 z"
         id="path1148"
         inkscape:connector-curvature="0" /></clipPath><clipPath
       clipPathUnits="userSpaceOnUse"
       id="clipPath1164"><path
         d="m 229.92642,24.871875 152.18182,0 0,112.468965 -152.18182,0 0,-112.468965 z"
         id="path1166"
         inkscape:connector-curvature="0" /></clipPath><clipPath
       clipPathUnits="userSpaceOnUse"
       id="clipPath1174"><path
         d="m 229.92642,24.871875 152.18182,0 0,112.468965 -152.18182,0 0,-112.468965 z"
         id="path1176"
         inkscape:connector-curvature="0" /></clipPath><clipPath
       clipPathUnits="userSpaceOnUse"
       id="clipPath1184"><path
         d="m 229.92642,24.871875 152.18182,0 0,112.468965 -152.18182,0 0,-112.468965 z"
         id="path1186"
         inkscape:connector-curvature="0" /></clipPath><clipPath
       clipPathUnits="userSpaceOnUse"
       id="clipPath1194"><path
         d="m 229.92642,24.871875 152.18182,0 0,112.468965 -152.18182,0 0,-112.468965 z"
         id="path1196"
         inkscape:connector-curvature="0" /></clipPath><clipPath
       clipPathUnits="userSpaceOnUse"
       id="clipPath1246"><path
         d="m -1021,-463 2815,0 0,1696 -2815,0 0,-1696 z"
         id="path1248"
         inkscape:connector-curvature="0" /></clipPath><clipPath
       clipPathUnits="userSpaceOnUse"
       id="clipPath1274"><path
         d="m 229.92642,24.871875 152.18182,0 0,112.468965 -152.18182,0 0,-112.468965 z"
         id="path1276"
         inkscape:connector-curvature="0" /></clipPath><clipPath
       clipPathUnits="userSpaceOnUse"
       id="clipPath1284"><path
         d="m 229.92642,24.871875 152.18182,0 0,112.468965 -152.18182,0 0,-112.468965 z"
         id="path1286"
         inkscape:connector-curvature="0" /></clipPath></defs><sodipodi:namedview
     pagecolor="#ffffff"
     bordercolor="#666666"
     borderopacity="1"
     objecttolerance="10"
     gridtolerance="10"
     guidetolerance="10"
     inkscape:pageopacity="0"
     inkscape:pageshadow="2"
     inkscape:window-width="2516"
     inkscape:window-height="1410"
     id="namedview4"
     showgrid="false"
     fit-margin-top="0"
     fit-margin-left="0"
     fit-margin-right="0"
     fit-margin-bottom="0"
     inkscape:zoom="1.0978469"
     inkscape:cx="536.91544"
     inkscape:cy="247.59603"
     inkscape:window-x="44"
     inkscape:window-y="30"
     inkscape:window-maximized="1"
     inkscape:current-layer="g10" /><g
     id="g10"
     inkscape:groupmode="layer"
     inkscape:label="freeling_deu"
     transform="matrix(1.25,0,0,-1.25,-29.8121,366.93512)"><g
       id="g628"><path
         d="m 37.549872,161.08112 152.181818,0 0,112.46897 -152.181818,0 0,-112.46897 z"
         style="fill:#ffffff;fill-opacity:1;fill-rule:nonzero;stroke:none"
         id="path634"
         inkscape:connector-curvature="0" /></g><g
       id="g636"
       transform="translate(-192.37655,-133.71627)"><g
         id="g638"
         clip-path="url(#clipPath640)"><path
           d="m -610.91817,356.14533 0,-3.68297 8.00957,-0.0119 8.00957,-0.36719 8.00957,0.27023 8.00956,-0.2484 8.00957,-0.18331 8.00957,0.14553 8.00957,0.29286 8.00957,0.0788 8.00957,0.36926 8.00957,-0.26192 8.00957,-0.0676 8.00957,0.40307 8.00957,0.34523 8.00957,-0.77995 8.00957,0.728 8.00957,-0.25426 8.00957,-0.42808 8.00957,-0.0885 8.00957,0.45049 8.00957,-0.16583 8.00956,-0.019 8.00957,0.21888 8.00957,0.052 8.00957,-0.01 8.00957,-0.0461 8.00957,0.0819 8.00957,-0.0131 8.00957,-0.0117 8.00957,0.008 8.00957,-0.65652 8.00957,0.0884 8.00957,0.47643 8.00957,-0.61714 8.00957,1.02882 8.00957,-0.87325 8.00957,0.37967 8.00956,0.16554 8.00957,0.0153 8.00957,-0.34635 8.00957,-0.24754 8.00957,0.24706 8.00957,-0.1334 8.00957,0.62312 8.00957,-0.0703 8.00957,-0.22576 8.00957,0.14447 8.00957,-0.45251 8.00957,0.39995 8.00957,0.48296 8.00957,-0.5693 8.00957,-0.098 8.00957,-0.32468 8.00956,-0.12354 8.00957,0.74322 8.00957,-0.17008 8.00957,0.22874 8.00957,0.40329 8.00957,-0.86174 8.00957,0.64637 8.00957,-0.0319 8.00957,-0.46915 8.00957,0.35128 8.00957,-0.16313 8.009567,0.31771 8.00957,0.36676 8.009569,-1.54317 8.009569,0.89719 8.00957,0.61557 8.009569,-0.21586 8.00957,-0.77003 8.009569,0.85981 8.009569,-0.16901 8.00957,-0.2193 8.009569,0.67763 8.00957,-0.56282 8.009569,0.009 8.009569,-0.0466 8.00957,0.21847 8.009569,0.0474 8.009569,0.28853 8.00957,-0.49118 8.009569,-0.0198 8.00957,-0.0457 8.009569,0.56319 8.009569,-0.31117 8.00957,-0.19008 8.009569,-0.19397 8.009569,0.83701 8.009568,-0.5108 8.00957,-0.19031 8.00957,-0.22952 8.00957,0.43196 8.00957,0.21507 8.00957,0.0499 8.00957,0.24403 8.00957,-0.0445 8.00957,0.0326 8.00957,-0.64579 8.00957,0.066 8.00956,0.33048 8.00957,-0.088 8.00957,0.48713 8.00957,-0.38091 7.84938,0.15504 0.16019,-1.96752 1.60192,0.47208 1.60191,0.20732 1.60191,0.1226 1.60192,-0.10305 1.60191,-0.23944 1.60192,0.51386 1.60191,-0.5449 1.60191,0.13082 1.60192,0.10127 1.60191,-0.0773 1.60191,0.10564 1.60192,0.26851 1.60191,-0.22062 1.60192,0.008 1.60191,0.0303 1.60191,0.30046 1.60192,-0.15997 1.60191,-0.19574 1.60192,0.12288 1.60191,-0.20168 1.60191,0.2695 1.60192,-0.15604 1.60191,0.27132 1.60191,-0.16063 1.60192,-0.19607 1.60191,-0.0742 1.60192,-0.16051 1.60191,0.0954 1.60191,-0.58781 1.60192,-0.56068 1.60191,-0.18192 1.60192,-0.2115 1.60191,-0.45959 1.60191,-0.56142 1.60192,-0.89097 1.60191,-0.41348 1.60192,-0.41512 1.60191,-1.07818 1.60191,-0.1325 1.60192,-0.4726 1.60191,-0.53421 1.60192,-0.10363 1.60191,-1.00748 1.60191,-1.1987 1.60192,-0.38761 1.60191,-0.58856 1.60191,-0.42023 1.60192,-1.23615 1.60191,0.64882 1.60192,-1.93078 1.60191,-0.76425 1.60191,-0.99473 1.60192,0.27019 1.60191,0.17832 1.60192,-2.89868 1.60191,1.47777 1.60191,-2.37664 1.60192,-1.70602 1.60191,-1.13121 1.60191,3.03295 1.60192,-0.7797 1.60191,-1.77605 1.60192,1.7604 1.60191,-1.36409 1.60191,0.58559 1.60192,-3.20807 1.60191,0.57589 1.60192,1.47743 1.60191,-0.44682 1.60191,0.51967 1.60192,-1.39933 1.60191,-1.24932 1.60191,3.57373 1.60192,-5.51883 1.60191,2.70219 1.60192,1.57142 1.60191,-0.39876 1.60191,-2.74585 1.60192,0.062 1.60191,-0.60256 1.60192,3.74586 1.60191,-5.6019 1.60191,-1.23049 1.60192,2.74161 1.60191,11.95589 1.60192,-4.11861 1.60191,-5.72859 1.60191,-12.15371 1.60192,15.21435 1.60191,7.71779 1.60191,-14.7724 1.60192,9.35133 1.60191,-22.10631 1.60192,8.88586 1.60191,5.89632 1.60191,-6.76741 1.60192,-16.51893 1.60191,12.13919 0,76.87271 0,0 -1.60191,-5.97988 -1.60192,-13.554 -1.60191,8.54851 -1.60191,14.92302 -1.60192,-29.47049 -1.60191,-1.21376 -1.60192,-4.46604 -1.60191,2.47254 -1.60191,12.05623 -1.60192,-0.98128 -1.60191,-19.78974 -1.60191,8.13724 -1.60192,-2.88476 -1.60191,3.30853 -1.60192,1.73353 -1.60191,-2.08065 -1.60191,0.0255 -1.60192,1.47787 -1.60191,3.31819 -1.60192,-5.00029 -1.60191,-6.18769 -1.60191,5.27831 -1.60192,-0.90397 -1.60191,1.07364 -1.60192,-1.48582 -1.60191,1.41444 -1.60191,-2.38363 -1.60192,-0.27884 -1.60191,-2.24483 -1.60191,4.91293 -1.60192,-5.94815 -1.60191,2.06779 -1.60192,-0.5218 -1.60191,-1.04474 -1.60191,-3.48463 -1.60192,4.73475 -1.60191,-3.8965 -1.60192,0.62161 -1.60191,2.15418 -1.60191,-3.06633 -1.60192,1.0052 -1.60191,-1.3222 -1.60191,0.96229 -1.60192,-1.35841 -1.60191,0.83714 -1.60192,-0.629 -1.60191,-0.50597 -1.60191,0.52229 -1.60192,-0.48928 -1.60191,0.81355 -1.60192,-0.46698 -1.60191,0.17361 -1.60191,-0.0942 -1.60192,0.4401 -1.60191,0.52561 -1.60191,0.25244 -1.60192,0.43823 -1.60191,0.25278 -1.60192,-0.26751 -1.60191,0.54518 -1.60191,0.46442 -1.60192,0.43768 -1.60191,0.16987 -1.60192,-0.0287 -1.60191,0.72337 -1.60191,-0.005 -1.60192,0.35474 -1.60191,0.40131 -1.60192,-0.003 -1.60191,0.35712 -1.60191,0.13283 -1.60192,0.0352 -1.60191,0.32574 -1.60192,-0.16105 -1.60191,0.17363 -1.60191,-0.43362 -1.60192,0.28555 -1.60191,0.23351 -1.60191,-0.32227 -1.60192,0.21752 -1.60191,0.18609 -1.60192,-0.40043 -1.60191,0.22105 -1.60191,-0.05 -1.60192,-0.17049 -1.60191,-6e-4 -1.60192,0.004 -1.60191,0.0422 -1.60191,-0.14095 -1.60192,0.17502 -1.60191,-0.18748 -1.60191,0.27472 -1.60192,-0.37862 -1.60191,0.37091 -1.60192,-0.65195 -1.60191,0.43245 -1.60191,-0.26204 -1.60192,-0.28782 -0.16019,1.49542 -7.84938,0.28555 -8.00957,-0.26121 -8.00957,0.039 -8.00957,-0.23562 -8.00956,0.54596 -8.00957,-0.18403 -8.00957,-0.44796 -8.00957,0.90188 -8.00957,-0.46627 -8.00957,-0.53761 -8.00957,0.40909 -8.00957,-0.69881 -8.00957,0.80014 -8.00957,0.0451 -8.00957,-0.21058 -8.009568,-0.56781 -8.009569,1.3997 -8.009569,-0.48197 -8.00957,-0.33485 -8.009569,0.42957 -8.009569,-0.76343 -8.00957,0.54367 -8.009569,-0.15508 -8.00957,-0.10142 -8.009569,-0.62487 -8.009569,0.27022 -8.00957,-0.34827 -8.009569,-0.0656 -8.009569,0.25517 -8.00957,0.0147 -8.009569,0.61637 -8.00957,0.098 -8.009569,-0.73529 -8.009569,0.0154 -8.00957,0.25862 -8.009569,0.23052 -8.00957,-0.34479 -8.009569,-0.3184 -8.009569,0.1711 -8.00957,0.83887 -8.009567,-1.1264 -8.00957,-0.58081 -8.00957,0.76938 -8.00957,0.49125 -8.00957,0.10464 -8.00957,-0.97098 -8.00957,0.6928 -8.00957,-0.11012 -8.00957,-1.09113 -8.00957,0.81029 -8.00957,-0.0778 -8.00956,-0.094 -8.00957,0.15664 -8.00957,-0.54098 -8.00957,0.78073 -8.00957,-1.0548 -8.00957,0.20393 -8.00957,0.0544 -8.00957,-0.0853 -8.00957,0.12066 -8.00957,-0.24436 -8.00957,0.17895 -8.00957,-0.47005 -8.00957,-0.37636 -8.00957,0.14099 -8.00957,0.51276 -8.00957,-0.23747 -8.00956,-0.23587 -8.00957,-0.79442 -8.00957,0.85378 -8.00957,-1.40434 -8.00957,0.23269 -8.00957,-0.22484 -8.00957,0.40892 -8.00957,0.0457 -8.00957,0.27565 -8.00957,-0.47044 -8.00957,0.19687 -8.00957,-0.4864 -8.00957,-0.19944 -8.00957,-0.1496 -8.00957,0.71997 -8.00957,-0.47818 -8.00956,-0.37221 -8.00957,0.24079 -8.00957,0.0501 -8.00957,-0.12918 -8.00957,-0.53012 -8.00957,0.17289 -8.00957,0.235 -8.00957,-0.35933 -8.00957,-0.46269 -8.00957,-0.28483 -8.00957,0.45912 -8.00957,-0.37481 -8.00957,-0.16544 -8.00957,-0.1317 -8.00957,-0.21733 -8.00957,0.32173 -8.00957,-0.25572 -8.00956,-0.0382 -8.00957,0.7427 -8.00957,-0.17319 -8.00957,0.26092 z"
           style="fill:#1f77b4;fill-opacity:0.2;fill-rule:nonzero;stroke:none"
           id="path644"
           inkscape:connector-curvature="0" /></g></g><g
       id="g646"
       transform="translate(-192.37655,-133.71627)"><g
         id="g648"
         clip-path="url(#clipPath650)"><path
           d="m 263.7268,373.95651 0,-52.48908 1.60192,5.32171 1.60191,4.03281 1.60191,2.40102 1.60192,-0.0955 1.60191,-0.15344 1.60192,-0.0202 1.60191,-0.46386 1.60191,1.1756 1.60192,-1.34882 1.60191,1.19187 1.60192,0.85104 1.60191,0.0797 1.60191,1.58692 1.60192,-0.0684 1.60191,-0.43374 1.60192,-0.38526 1.60191,1.95093 1.60191,0.21937 1.60192,-0.45441 1.60191,1.25506 1.60191,-0.65615 1.60192,2.03758 1.60191,-0.29489 1.60192,1.58653 1.60191,-1.45339 1.60191,0.90043 1.60192,0.37119 1.60191,-0.11441 1.60192,-0.39574 1.60191,1.88828 1.60191,0.78402 1.60192,-0.85737 1.60191,1.33467 1.60191,-2.40383 1.60192,1.68324 1.60191,-0.2119 1.60192,-0.89304 1.60191,1.48256 1.60191,-0.85302 1.60192,0.57676 1.60191,-0.47492 1.60192,0.8688 1.60191,-1.79609 1.60191,2.38668 1.60192,-0.53516 1.60191,0.49209 1.60191,0.0999 1.60192,0.28565 1.60191,-0.42973 1.60192,0.065 1.60191,0.28742 1.60191,-2.19736 1.60192,2.63461 1.60191,-0.58706 1.60192,0.37018 1.60191,0.6367 1.60191,-0.28227 1.60192,-0.32889 1.60191,0.10119 1.60192,-0.05 1.60191,0.29275 1.60191,-0.24937 1.60192,-0.48748 1.60191,0.14999 1.60191,0.63492 1.60192,0.067 1.60191,0.11875 1.60192,0.26837 1.60191,-1.88946 1.60191,0.48906 1.60192,-0.18316 1.60191,0.64577 1.60192,0.25239 1.44172,0.17798 0,14.3632 0,0 -1.44172,-0.50487 -1.60192,0.1456 -1.60191,0.019 -1.60192,0.35162 -1.60191,-0.49245 -1.60191,-0.37188 -1.60192,0.47883 -1.60191,-0.36371 -1.60192,-0.15869 -1.60191,0.38138 -1.60191,0.57978 -1.60192,-0.59116 -1.60191,0.1317 -1.60191,0.12317 -1.60192,-0.21269 -1.60191,-0.0726 -1.60192,-0.0367 -1.60191,-0.46852 -1.60191,0.3188 -1.60192,0.30202 -1.60191,-1.04861 -1.60192,3.61584 -1.60191,-2.91203 -1.60191,0.0142 -1.60192,0.75894 -1.60191,-0.67474 -1.60192,-0.34266 -1.60191,0.41578 -1.60191,0.18219 -1.60192,-0.31349 -1.60191,0.45525 -1.60191,0.0811 -1.60192,-0.33652 -1.60191,-0.27217 -1.60192,0.36212 -1.60191,0.62716 -1.60191,-0.82461 -1.60192,-0.75696 -1.60191,0.46724 -1.60192,0.29514 -1.60191,-1.02625 -1.60191,0.0144 -1.60192,-0.18018 -1.60191,0.47212 -1.60191,0.6462 -1.60192,-0.94416 -1.60191,-0.17485 -1.60192,1.7654 -1.60191,0.59864 -1.60191,-1.96885 -1.60192,0.17599 -1.60191,0.37648 -1.60192,0.75902 -1.60191,1.81765 -1.60191,-2.1842 -1.60192,0.0886 -1.60191,1.18811 -1.60191,-1.98371 -1.60192,1.43812 -1.60191,-0.43885 -1.60192,1.16157 -1.60191,0.42838 -1.60191,-0.89874 -1.60192,-0.40912 -1.60191,2.68476 -1.60192,-2.71641 -1.60191,1.85541 -1.60191,-0.28231 -1.60192,0.80631 -1.60191,2.98365 -1.60192,-0.76886 -1.60191,-0.82588 -1.60191,1.10535 -1.60192,10.22203 z"
           style="fill:#ff7f0e;fill-opacity:0.2;fill-rule:nonzero;stroke:none"
           id="path654"
           inkscape:connector-curvature="0" /></g></g><g
       id="g656"
       transform="translate(-192.37655,-133.71627)"><g
         id="g658"
         clip-path="url(#clipPath660)"><path
           d="m 261.9647,299.90962 -32.03828,0 0,102.24451 32.03828,0 0,0 0,-102.24451 z"
           style="fill:#000000;fill-opacity:0.05;fill-rule:nonzero;stroke:#000000;stroke-width:1;stroke-linecap:butt;stroke-linejoin:round;stroke-miterlimit:10;stroke-dasharray:none;stroke-opacity:0.05"
           id="path664"
           inkscape:connector-curvature="0" /></g></g><g
       id="g666"
       transform="translate(-192.37655,-133.71627)"><g
         id="g668"
         clip-path="url(#clipPath670)"><path
           d="m 382.10824,299.90962 -40.04785,0 0,102.24451 40.04785,0 0,0 0,-102.24451 z"
           style="fill:#000000;fill-opacity:0.05;fill-rule:nonzero;stroke:#000000;stroke-width:1;stroke-linecap:butt;stroke-linejoin:round;stroke-miterlimit:10;stroke-dasharray:none;stroke-opacity:0.05"
           id="path674"
           inkscape:connector-curvature="0" /></g></g><g
       id="g676"
       transform="translate(-192.37655,-133.71627)"><path
         d="m 245.94556,293.79739 0,-3.5"
         style="fill:#000000;fill-opacity:1;fill-rule:nonzero;stroke:#000000;stroke-width:0.80000001;stroke-linecap:butt;stroke-linejoin:round;stroke-miterlimit:10;stroke-dasharray:none;stroke-opacity:1"
         id="path678"
         inkscape:connector-curvature="0" /><text
         transform="matrix(1,0,0,-1,233.22681,279.20364)"
         style="font-variant:normal;font-weight:normal;font-size:10px;font-family:'DejaVu Sans';-inkscape-font-specification:DejaVuSans;writing-mode:lr-tb;fill:#000000;fill-opacity:1;fill-rule:nonzero;stroke:none"
         id="text680"><tspan
           x="0 6.3600001 12.72 19.08"
           y="0"
           sodipodi:role="line"
           id="tspan682">5400</tspan></text>
<path
         d="m 277.98384,293.79739 0,-3.5"
         style="fill:#000000;fill-opacity:1;fill-rule:nonzero;stroke:#000000;stroke-width:0.80000001;stroke-linecap:butt;stroke-linejoin:round;stroke-miterlimit:10;stroke-dasharray:none;stroke-opacity:1"
         id="path684"
         inkscape:connector-curvature="0" /><text
         transform="matrix(1,0,0,-1,265.26509,279.20364)"
         style="font-variant:normal;font-weight:normal;font-size:10px;font-family:'DejaVu Sans';-inkscape-font-specification:DejaVuSans;writing-mode:lr-tb;fill:#000000;fill-opacity:1;fill-rule:nonzero;stroke:none"
         id="text686"><tspan
           x="0 6.3600001 12.72 19.08"
           y="0"
           sodipodi:role="line"
           id="tspan688">5600</tspan></text>
<path
         d="m 310.02211,293.79739 0,-3.5"
         style="fill:#000000;fill-opacity:1;fill-rule:nonzero;stroke:#000000;stroke-width:0.80000001;stroke-linecap:butt;stroke-linejoin:round;stroke-miterlimit:10;stroke-dasharray:none;stroke-opacity:1"
         id="path690"
         inkscape:connector-curvature="0" /><text
         transform="matrix(1,0,0,-1,297.30336,279.20364)"
         style="font-variant:normal;font-weight:normal;font-size:10px;font-family:'DejaVu Sans';-inkscape-font-specification:DejaVuSans;writing-mode:lr-tb;fill:#000000;fill-opacity:1;fill-rule:nonzero;stroke:none"
         id="text692"><tspan
           x="0 6.3600001 12.72 19.08"
           y="0"
           sodipodi:role="line"
           id="tspan694">5800</tspan></text>
<path
         d="m 342.06039,293.79739 0,-3.5"
         style="fill:#000000;fill-opacity:1;fill-rule:nonzero;stroke:#000000;stroke-width:0.80000001;stroke-linecap:butt;stroke-linejoin:round;stroke-miterlimit:10;stroke-dasharray:none;stroke-opacity:1"
         id="path696"
         inkscape:connector-curvature="0" /><text
         transform="matrix(1,0,0,-1,329.34164,279.20364)"
         style="font-variant:normal;font-weight:normal;font-size:10px;font-family:'DejaVu Sans';-inkscape-font-specification:DejaVuSans;writing-mode:lr-tb;fill:#000000;fill-opacity:1;fill-rule:nonzero;stroke:none"
         id="text698"><tspan
           x="0 6.3600001 12.72 19.08"
           y="0"
           sodipodi:role="line"
           id="tspan700">6000</tspan></text>
<path
         d="m 374.09867,293.79739 0,-3.5"
         style="fill:#000000;fill-opacity:1;fill-rule:nonzero;stroke:#000000;stroke-width:0.80000001;stroke-linecap:butt;stroke-linejoin:round;stroke-miterlimit:10;stroke-dasharray:none;stroke-opacity:1"
         id="path702"
         inkscape:connector-curvature="0" /><text
         transform="matrix(1,0,0,-1,361.37992,279.20364)"
         style="font-variant:normal;font-weight:normal;font-size:10px;font-family:'DejaVu Sans';-inkscape-font-specification:DejaVuSans;writing-mode:lr-tb;fill:#000000;fill-opacity:1;fill-rule:nonzero;stroke:none"
         id="text704"><tspan
           x="0 6.3600001 12.72 19.08"
           y="0"
           sodipodi:role="line"
           id="tspan706">6200</tspan></text>
<path
         d="m 228.92642,300.77542 -3.5,0"
         style="fill:#000000;fill-opacity:1;fill-rule:nonzero;stroke:#000000;stroke-width:0.80000001;stroke-linecap:butt;stroke-linejoin:round;stroke-miterlimit:10;stroke-dasharray:none;stroke-opacity:1"
         id="path708"
         inkscape:connector-curvature="0" /><text
         transform="matrix(1,0,0,-1,215.56705,296.97855)"
         style="font-variant:normal;font-weight:normal;font-size:10px;font-family:'DejaVu Sans';-inkscape-font-specification:DejaVuSans;writing-mode:lr-tb;fill:#000000;fill-opacity:1;fill-rule:nonzero;stroke:none"
         id="text710"><tspan
           x="0"
           y="0"
           id="tspan712">0</tspan></text>
<path
         d="m 228.92642,327.95403 -3.5,0"
         style="fill:#000000;fill-opacity:1;fill-rule:nonzero;stroke:#000000;stroke-width:0.80000001;stroke-linecap:butt;stroke-linejoin:round;stroke-miterlimit:10;stroke-dasharray:none;stroke-opacity:1"
         id="path714"
         inkscape:connector-curvature="0" /><text
         transform="matrix(1,0,0,-1,215.56705,324.15716)"
         style="font-variant:normal;font-weight:normal;font-size:10px;font-family:'DejaVu Sans';-inkscape-font-specification:DejaVuSans;writing-mode:lr-tb;fill:#000000;fill-opacity:1;fill-rule:nonzero;stroke:none"
         id="text716"><tspan
           x="0"
           y="0"
           id="tspan718">1</tspan></text>
<path
         d="m 228.92642,355.13264 -3.5,0"
         style="fill:#000000;fill-opacity:1;fill-rule:nonzero;stroke:#000000;stroke-width:0.80000001;stroke-linecap:butt;stroke-linejoin:round;stroke-miterlimit:10;stroke-dasharray:none;stroke-opacity:1"
         id="path720"
         inkscape:connector-curvature="0" /><text
         transform="matrix(1,0,0,-1,215.56705,351.33577)"
         style="font-variant:normal;font-weight:normal;font-size:10px;font-family:'DejaVu Sans';-inkscape-font-specification:DejaVuSans;writing-mode:lr-tb;fill:#000000;fill-opacity:1;fill-rule:nonzero;stroke:none"
         id="text722"><tspan
           x="0"
           y="0"
           id="tspan724">2</tspan></text>
<path
         d="m 228.92642,382.31125 -3.5,0"
         style="fill:#000000;fill-opacity:1;fill-rule:nonzero;stroke:#000000;stroke-width:0.80000001;stroke-linecap:butt;stroke-linejoin:round;stroke-miterlimit:10;stroke-dasharray:none;stroke-opacity:1"
         id="path726"
         inkscape:connector-curvature="0" /><text
         transform="matrix(1,0,0,-1,215.56705,378.51438)"
         style="font-variant:normal;font-weight:normal;font-size:10px;font-family:'DejaVu Sans';-inkscape-font-specification:DejaVuSans;writing-mode:lr-tb;fill:#000000;fill-opacity:1;fill-rule:nonzero;stroke:none"
         id="text728"><tspan
           x="0"
           y="0"
           id="tspan730">3</tspan></text>
</g><g
       id="g732"
       transform="translate(-192.37655,-133.71627)"><g
         id="g734"
         clip-path="url(#clipPath736)"><path
           d="m -1,356.50769 6.818669,0.008 8.00957,0.28337 8.009569,-0.11144 8.009569,0.4567 8.00957,-0.19488 8.009569,0.0676 8.00957,-0.29467 8.009569,0.66331 8.009569,-0.37037 16.019139,0.21639 8.009569,-0.28135 16.019138,0.0386 16.01914,-0.32141 8.00957,0.45694 8.00957,-0.17957 8.00957,0.39082 8.00957,0.21088 8.00957,-0.43463 8.00957,-0.0989 8.00957,0.12502 8.00956,-0.10774 8.00957,0.0738 8.00957,0.22407 15.85895,-0.1251 0.16019,-1.73147 1.60192,0.37995 1.60191,0.23468 1.60191,-0.15493 1.60192,0.27446 1.60191,-0.30518 1.60192,0.44624 1.60191,-0.40981 1.60191,0.15915 3.20383,-0.005 9.61148,0.2231 1.60192,0.12023 1.60191,-0.19092 3.20383,0.013 1.60191,0.018 1.60192,-0.22079 1.60191,0.35247 1.60191,-0.16713 1.60192,-0.0175 3.20383,-0.29781 1.60191,-0.0187 1.60191,-0.47246 6.40766,-1.08072 1.60191,-0.64239 1.60192,-0.43113 1.60191,-0.29167 1.60192,-0.4264 1.60191,-0.7713 1.60191,-0.33884 1.60192,-0.10254 1.60191,-0.3935 1.60192,-0.27093 1.60191,-0.62996 1.60191,-0.86215 1.60192,-0.41386 3.20382,-0.54408 1.60192,-0.38459 1.60191,-0.0824 3.20383,-1.36402 1.60191,-0.24438 1.60192,0.44959 1.60191,-0.32941 1.60192,-0.77013 1.60191,0.25774 1.60191,-0.52722 1.60192,-1.35561 1.60191,0.96756 1.60191,0.43939 1.60192,-0.70066 1.60191,1.06022 1.60192,-1.48717 1.60191,1.06027 1.60191,0.81516 1.60192,-1.34313 1.60191,-0.74595 1.60192,3.71279 1.60191,-2.67987 1.60191,1.38224 1.60192,-0.56024 1.60191,0.56716 1.60191,1.07964 1.60192,-2.0165 1.60191,0.81427 1.60192,1.23769 1.60191,-2.83853 1.60191,1.72092 1.60192,2.53112 1.60191,-1.96037 1.60192,1.13399 1.60191,-2.8137 3.20383,0.92912 1.60191,4.32368 1.60192,-0.61692 1.60191,-6.93292 1.60191,3.81802 1.60192,8.09781 1.60191,-2.16922 1.60191,-8.62247 1.60192,6.90869 1.60191,-10.44628 1.60192,19.17818 1.60191,-4.51336 1.60191,-7.65795 1.60192,-1.48247 1.60191,9.05953 1.60192,-27.17861 0,0"
           style="fill:none;stroke:#1f77b4;stroke-width:1.5;stroke-linecap:square;stroke-linejoin:round;stroke-miterlimit:10;stroke-dasharray:none;stroke-opacity:1"
           id="path740"
           inkscape:connector-curvature="0" /></g></g><g
       id="g742"
       transform="translate(-192.37655,-133.71627)"><g
         id="g744"
         clip-path="url(#clipPath746)"><path
           d="m 263.7268,347.71197 1.60192,-2.45016 1.60191,1.46373 1.60191,1.61345 1.60192,0.33667 1.60191,-1.56855 1.60192,-0.41324 1.60191,-0.0908 1.60191,-0.3399 1.60192,0.68379 1.60191,-0.74644 1.60192,0.63007 1.60191,0.48922 1.60191,0.57927 1.60192,-0.61498 1.60191,0.003 1.60192,-0.91169 1.60191,1.96731 1.60191,-0.48437 1.60192,-0.27151 1.60191,1.71962 1.60191,-1.2369 1.60192,0.63929 1.60191,-0.33569 1.60192,0.70527 1.60191,0.25773 1.60191,0.1509 1.60192,-0.69711 1.60191,0.0302 1.60192,0.27421 1.60191,0.62104 1.60191,0.15595 1.60192,-0.3386 1.60191,0.66013 1.60191,-0.6888 1.60192,0.69405 1.60191,-0.33957 1.60192,-0.068 1.60191,1.15359 1.60191,-0.74009 1.60192,0.10732 1.60191,-0.10137 1.60192,0.60266 1.60191,-0.9386 1.60191,0.96571 1.60192,-0.11083 1.60191,0.15495 1.60191,-0.15792 1.60192,0.31416 1.60191,0.12251 1.60192,-0.34697 1.60191,0.13661 1.60191,0.35734 1.60192,-0.49061 1.60191,0.23077 1.60192,0.0341 1.60191,0.15895 1.60191,0.0931 1.60192,-0.14608 1.60191,0.0869 1.60192,0.0813 1.60191,0.0848 1.60191,-0.19054 1.60192,0.0518 1.60191,-0.2149 1.60191,0.12678 1.60192,0.11282 1.60191,0.24124 1.60192,-0.10523 1.60191,-0.75879 1.60191,0.49075 1.60192,-0.26739 1.60191,0.31336 1.60192,0.0534 1.44172,0.34143"
           style="fill:none;stroke:#ff7f0e;stroke-width:1.5;stroke-linecap:square;stroke-linejoin:round;stroke-miterlimit:10;stroke-dasharray:none;stroke-opacity:1"
           id="path750"
           inkscape:connector-curvature="0" /></g></g><g
       id="g752"
       transform="translate(-192.37655,-133.71627)"><path
         d="m 228.92642,294.79739 0,112.46897"
         style="fill:none;stroke:#000000;stroke-width:0.80000001;stroke-linecap:square;stroke-linejoin:miter;stroke-miterlimit:10;stroke-dasharray:none;stroke-opacity:1"
         id="path754"
         inkscape:connector-curvature="0" /><path
         d="m 229.92642,293.79739 152.18182,0"
         style="fill:none;stroke:#000000;stroke-width:0.80000001;stroke-linecap:square;stroke-linejoin:miter;stroke-miterlimit:10;stroke-dasharray:none;stroke-opacity:1"
         id="path756"
         inkscape:connector-curvature="0" /><text
         xml:space="preserve"
         style="font-style:normal;font-weight:normal;font-size:32px;line-height:125%;font-family:sans-serif;letter-spacing:0px;word-spacing:0px;fill:#000000;fill-opacity:1;stroke:none;stroke-width:1px;stroke-linecap:butt;stroke-linejoin:miter;stroke-opacity:1"
         x="295.10727"
         y="-416.40015"
         id="text59946"
         sodipodi:linespacing="125%"
         transform="scale(1,-1)"><tspan
           sodipodi:role="line"
           id="tspan59948"
           x="295.10727"
           y="-416.40015"
           style="font-style:italic;font-variant:normal;font-weight:normal;font-stretch:normal;font-size:24.31999969px;line-height:125%;font-family:STIX;-inkscape-font-specification:'STIX, Normal';text-align:start;writing-mode:lr-tb;text-anchor:start">w<tspan
   style="font-size:51.99999809%;baseline-shift:sub"
   id="tspan59952">r</tspan></tspan></text>
<text
         xml:space="preserve"
         style="font-style:normal;font-weight:normal;font-size:32px;line-height:125%;font-family:sans-serif;letter-spacing:0px;word-spacing:0px;fill:#000000;fill-opacity:1;stroke:none;stroke-width:1px;stroke-linecap:butt;stroke-linejoin:miter;stroke-opacity:1"
         x="487.48383"
         y="-416.53925"
         id="text59946-6"
         sodipodi:linespacing="125%"
         transform="scale(1,-1)"><tspan
           sodipodi:role="line"
           id="tspan59948-7"
           x="487.48383"
           y="-416.53925"
           style="font-style:italic;font-variant:normal;font-weight:normal;font-stretch:normal;font-size:24.31999969px;line-height:125%;font-family:STIX;-inkscape-font-specification:'STIX, Normal';text-align:start;writing-mode:lr-tb;text-anchor:start">w<tspan
   style="font-size:51.99999809%;baseline-shift:sub"
   id="tspan59985">e</tspan></tspan></text>
<text
         xml:space="preserve"
         style="font-style:normal;font-weight:normal;font-size:32px;line-height:125%;font-family:sans-serif;letter-spacing:0px;word-spacing:0px;fill:#000000;fill-opacity:1;stroke:none;stroke-width:1px;stroke-linecap:butt;stroke-linejoin:miter;stroke-opacity:1"
         x="683.62347"
         y="-413.50607"
         id="text59946-8"
         sodipodi:linespacing="125%"
         transform="scale(1,-1)"><tspan
           sodipodi:role="line"
           id="tspan59948-1"
           x="683.62347"
           y="-413.50607"
           style="font-style:italic;font-variant:normal;font-weight:normal;font-stretch:normal;font-size:24.31999969px;line-height:125%;font-family:STIX;-inkscape-font-specification:'STIX, Normal';text-align:start;writing-mode:lr-tb;text-anchor:start">z</tspan></text>
</g><g
       id="g886"><path
         d="m 229.92642,159.83463 152.18182,0 0,112.46897 -152.18182,0 0,-112.46897 z"
         style="fill:#ffffff;fill-opacity:1;fill-rule:nonzero;stroke:none"
         id="path892"
         inkscape:connector-curvature="0" /></g><g
       id="g894"><g
         id="g896"
         clip-path="url(#clipPath898)"><path
           d="m -618.92774,258.41179 0,0 8.00957,-53.05281 8.00957,1.2709 8.00957,7.0221 8.00957,6.02055 8.00956,2.15964 8.00957,1.63927 8.00957,0.0761 8.00957,0.29664 8.00957,0.26049 8.00957,-0.0214 8.00957,0.20366 8.00957,-0.30194 8.00957,0.34202 8.00957,-0.0258 8.00957,0.20553 8.00957,-0.28701 8.00957,-0.12494 8.00957,0.1718 8.00957,-0.45135 8.00957,0.417 8.00957,0.1575 8.00956,-0.0244 8.00957,-0.20514 8.00957,0.18142 8.00957,-0.0301 8.00957,0.28129 8.00957,-0.13314 8.00957,-0.35438 8.00957,0.11669 8.00957,0.39243 8.00957,-0.28023 8.00957,0.35825 8.00957,-0.27237 8.00957,-0.2185 8.00957,0.0805 8.00957,-0.0136 8.00957,0.0965 8.00956,-0.034 8.00957,-0.15452 8.00957,0.26775 8.00957,-0.007 8.00957,-0.0364 8.00957,0.11216 8.00957,-0.0313 8.00957,0.17234 8.00957,-0.22428 8.00957,-0.0654 8.00957,0.0965 8.00957,-0.26468 8.00957,0.23641 8.00957,0.20765 8.00957,-0.41215 8.00957,0.18612 8.00956,-0.0375 8.00957,0.0173 8.00957,-0.0665 8.00957,0.15396 8.00957,-0.0245 8.00957,-0.14866 8.00957,0.23232 8.00957,0.0147 8.00957,-0.1026 8.00957,0.15103 8.00957,-0.0405 8.009567,-0.1039 8.00957,-0.20357 8.009569,0.2684 8.009569,-0.30856 8.00957,0.18279 8.009569,0.0723 8.00957,-0.14768 8.009569,0.27278 8.009569,-0.28669 8.00957,0.30028 8.009569,-0.12266 8.00957,0.0342 8.009569,-0.008 8.009569,-0.41175 8.00957,0.50541 8.009569,-0.0528 8.009569,-0.15061 8.00957,-0.0541 8.009569,0.1186 8.00957,-0.28406 8.009569,0.2174 8.009569,-0.11509 8.00957,0.50383 8.009569,-0.23155 8.009569,-0.042 8.009568,-0.0249 8.00957,-0.37986 8.00957,0.12518 8.00957,0.29325 8.00957,-0.16041 8.00957,0.19466 8.00957,0.0479 8.00957,-0.14504 8.00957,0.0152 8.00957,-0.0328 8.00957,0.1268 8.00956,-0.18961 8.00957,-0.0749 8.00957,0.0651 8.00957,0.18223 7.84938,0.0857 0.16019,2.12365 1.60192,1.77732 1.60191,0.8426 1.60191,0.43258 1.60192,0.31107 1.60191,0.1893 1.60192,0.16115 1.60191,0.0936 1.60191,-0.002 1.60192,0.0871 1.60191,0.0373 1.60191,0.15572 1.60192,-0.0244 1.60191,0.11884 1.60192,0.0974 1.60191,-0.0561 1.60191,-0.0218 1.60192,-0.11084 1.60191,0.065 1.60192,-0.0933 1.60191,0.0805 1.60191,-0.009 1.60192,0.0891 1.60191,-0.0101 1.60191,0.0986 1.60192,-0.0301 1.60191,-0.8588 1.60192,-1.51888 1.60191,-0.97255 1.60191,-1.87913 1.60192,-1.30041 1.60191,-2.32252 1.60192,-0.91493 1.60191,-2.21552 1.60191,-1.42693 1.60192,-2.38901 1.60191,-1.75197 1.60192,-1.02296 1.60191,-2.1746 1.60191,-0.90942 1.60192,-1.30187 1.60191,-0.61136 1.60192,-1.06415 1.60191,-2.30734 1.60191,-1.67828 1.60192,-0.72194 1.60191,-1.26776 1.60191,-1.05558 1.60192,-1.01225 1.60191,-0.4167 1.60192,-1.84835 1.60191,-1.49989 1.60191,-1.40393 1.60192,-0.51805 1.60191,0.17893 1.60192,-0.91581 1.60191,-0.73859 1.60191,-1.27976 1.60192,-0.84202 1.60191,-1.01384 1.60191,0.66058 1.60192,-0.62634 1.60191,1.09469 1.60192,-0.62747 1.60191,-0.56479 1.60191,0.60955 1.60192,-1.26645 1.60191,-0.11532 1.60192,1.66948 1.60191,-1.19311 1.60191,1.30944 1.60192,-2.31038 1.60191,0.50483 1.60191,1.00403 1.60192,-0.34311 1.60191,0.0326 1.60192,-0.66493 1.60191,1.0683 1.60191,0.29566 1.60192,0.41684 1.60191,-0.12047 1.60192,0.46875 1.60191,-1.62298 1.60191,-2.1437 1.60192,2.42061 1.60191,-0.13588 1.60192,6.61294 1.60191,0.16975 1.60191,-1.2791 1.60192,0.0217 1.60191,0.428 1.60191,-1.99807 1.60192,-2.90567 1.60191,-5.16248 1.60192,14.28777 1.60191,-11.24955 1.60191,5.76857 1.60192,-21.25379 1.60191,-1.73637 0,73.34811 0,0 -1.60191,19.60145 -1.60192,-20.37932 -1.60191,-3.15979 -1.60191,-3.2528 -1.60192,-6.66702 -1.60191,-3.49933 -1.60192,6.47757 -1.60191,0.94835 -1.60191,-4.08441 -1.60192,-1.473 -1.60191,-2.18905 -1.60191,3.84325 -1.60192,-1.74706 -1.60191,1.20472 -1.60192,2.61119 -1.60191,-4.25948 -1.60191,0.4708 -1.60192,-4.79035 -1.60191,1.29221 -1.60192,0.16956 -1.60191,-1.8688 -1.60191,-2.22487 -1.60192,0.83261 -1.60191,1.91385 -1.60192,-1.76297 -1.60191,-0.40608 -1.60191,-2.61773 -1.60192,-0.60518 -1.60191,0.3488 -1.60191,1.34273 -1.60192,-2.10992 -1.60191,-0.008 -1.60192,0.10194 -1.60191,-1.44403 -1.60191,-0.78145 -1.60192,0.64418 -1.60191,0.94738 -1.60192,-0.65568 -1.60191,0.57563 -1.60191,-1.25309 -1.60192,0.91874 -1.60191,0.12337 -1.60191,-0.56619 -1.60192,1.49189 -1.60191,0.28148 -1.60192,-0.48547 -1.60191,0.60202 -1.60191,0.75495 -1.60192,-0.29589 -1.60191,0.53776 -1.60192,0.95914 -1.60191,-0.2908 -1.60191,0.40791 -1.60192,0.26891 -1.60191,1.29783 -1.60191,0.48711 -1.60192,0.45834 -1.60191,0.1385 -1.60192,1.05924 -1.60191,0.42547 -1.60191,0.69645 -1.60192,1.49557 -1.60191,0.8139 -1.60192,0.60899 -1.60191,1.29813 -1.60191,0.47543 -1.60192,1.38453 -1.60191,0.93192 -1.60192,1.18048 -1.60191,0.59597 -1.60191,0.49578 -1.60192,0.12309 -1.60191,0.84954 -1.60192,0.0196 -1.60191,-0.0115 -1.60191,-0.0375 -1.60192,-0.0109 -1.60191,-0.065 -1.60191,0.0417 -1.60192,0.007 -1.60191,-0.11585 -1.60192,0.12864 -1.60191,0.0101 -1.60191,-0.0498 -1.60192,0.0154 -1.60191,-0.16294 -1.60192,0.0118 -1.60191,-0.0521 -1.60191,0.005 -1.60192,-0.035 -1.60191,-0.035 -1.60191,-0.11472 -1.60192,-0.31553 -1.60191,-0.0863 -1.60192,-0.23472 -1.60191,-0.45503 -1.60191,-0.72614 -1.60192,-1.91153 -0.16019,-2.42713 -7.84938,0.1899 -8.00957,0.15165 -8.00957,-0.3678 -8.00957,0.0891 -8.00956,0.004 -8.00957,0.15957 -8.00957,-0.10453 -8.00957,0.0778 -8.00957,0.0879 -8.00957,-0.44144 -8.00957,0.28604 -8.00957,-0.0341 -8.00957,0.0166 -8.00957,-0.29188 -8.00957,0.40168 -8.009568,-0.17049 -8.009569,0.22235 -8.009569,-0.34243 -8.00957,0.28879 -8.009569,0.0803 -8.009569,-0.28654 -8.00957,0.096 -8.009569,-0.13315 -8.00957,0.4826 -8.009569,-0.31044 -8.009569,-0.12059 -8.00957,0.14 -8.009569,-0.10229 -8.009569,0.0631 -8.00957,-0.32623 -8.009569,0.25318 -8.00957,0.0893 -8.009569,0.0616 -8.009569,0.097 -8.00957,-0.23861 -8.009569,-0.0851 -8.00957,0.0139 -8.009569,-0.19744 -8.009569,0.0692 -8.00957,-0.10812 -8.009567,0.42078 -8.00957,-0.30456 -8.00957,0.30027 -8.00957,-0.16022 -8.00957,-0.0842 -8.00957,-0.0631 -8.00957,-0.0359 -8.00957,0.0881 -8.00957,0.15335 -8.00957,-0.2251 -8.00957,0.0391 -8.00956,0.0205 -8.00957,-0.28136 -8.00957,0.22487 -8.00957,0.0761 -8.00957,-0.1952 -8.00957,0.0788 -8.00957,0.0342 -8.00957,-0.0236 -8.00957,0.19279 -8.00957,0.23953 -8.00957,-0.12666 -8.00957,-0.22154 -8.00957,-0.21724 -8.00957,0.4567 -8.00957,-0.10066 -8.00957,-0.0449 -8.00956,-0.0384 -8.00957,0.27981 -8.00957,-0.3049 -8.00957,-0.15529 -8.00957,0.32064 -8.00957,-0.29621 -8.00957,-0.16347 -8.00957,0.26701 -8.00957,-0.0461 -8.00957,-0.10226 -8.00957,0.15948 -8.00957,-1.1e-4 -8.00957,-0.15433 -8.00957,0.0475 -8.00957,-0.11452 -8.00957,0.42404 -8.00956,-0.47656 -8.00957,0.11511 -8.00957,-0.56337 -8.00957,0.39228 -8.00957,-0.29543 -8.00957,0.41944 -8.00957,0.0523 -8.00957,-0.3431 -8.00957,0.10295 -8.00957,-0.0142 -8.00957,-0.47019 -8.00957,0.46005 -8.00957,-0.45325 -8.00957,0.38097 -8.00957,-0.47149 -8.00957,-0.21448 -8.00957,-1.22138 -8.00956,-0.99104 -8.00957,-2.48097 -8.00957,-3.09415 -8.00957,-0.9706 -8.00957,40.47781 z"
           style="fill:#1f77b4;fill-opacity:0.2;fill-rule:nonzero;stroke:none"
           id="path902"
           inkscape:connector-curvature="0" /></g></g><g
       id="g904"><g
         id="g906"
         clip-path="url(#clipPath908)"><path
           d="m 263.7268,239.35446 0,-18.65136 1.60192,1.33172 1.60191,-0.71362 1.60191,-0.77686 1.60192,-1.34668 1.60191,-1.61019 1.60192,-1.26109 1.60191,-2.61443 1.60191,0.1783 1.60192,-1.98906 1.60191,-1.52288 1.60192,-1.2651 1.60191,-1.57413 1.60191,-1.12266 1.60192,-1.41101 1.60191,-0.57304 1.60192,-3.05952 1.60191,-1.33465 1.60191,-1.13857 1.60192,-0.79826 1.60191,-2.27356 1.60191,-0.19597 1.60192,-0.21479 1.60191,-1.10176 1.60192,-0.11563 1.60191,-0.64231 1.60191,-1.49505 1.60192,-0.46867 1.60191,-0.70172 1.60192,-1.06854 1.60191,-0.57332 1.60191,-0.36069 1.60192,-0.39458 1.60191,-0.89367 1.60191,-0.27999 1.60192,-0.68123 1.60191,-0.25069 1.60192,-1.13254 1.60191,0.3801 1.60191,-0.49725 1.60192,-0.97153 1.60191,0.81781 1.60192,-0.67036 1.60191,-0.4813 1.60191,0.25346 1.60192,-0.24496 1.60191,0.56562 1.60191,0.13118 1.60192,0.26394 1.60191,0.1333 1.60192,-0.59511 1.60191,-0.0353 1.60191,0.19025 1.60192,-0.009 1.60191,0.36999 1.60192,0.0703 1.60191,0.0934 1.60191,-0.20262 1.60192,-0.0876 1.60191,0.25795 1.60192,0.10309 1.60191,-0.22115 1.60191,0.24868 1.60192,0.0144 1.60191,-0.0574 1.60191,-0.40464 1.60192,0.1568 1.60191,0.11545 1.60192,0.3831 1.60191,-0.0485 1.60191,0.16021 1.60192,-0.19101 1.60191,0.11396 1.60192,0.0257 1.44172,0.16213 0,29.79439 0,0 -1.44172,-0.25847 -1.60192,0.008 -1.60191,-0.0442 -1.60192,-0.15043 -1.60191,-0.003 -1.60191,-0.005 -1.60192,-0.0917 -1.60191,-0.12417 -1.60192,-0.0466 -1.60191,-0.0637 -1.60191,-0.17004 -1.60192,-0.1269 -1.60191,-0.11426 -1.60191,-0.16477 -1.60192,-0.0663 -1.60191,-0.30375 -1.60192,0.0233 -1.60191,-0.0912 -1.60191,-0.009 -1.60192,-0.0693 -1.60191,-0.24495 -1.60192,-0.37096 -1.60191,-0.17078 -1.60191,0.10565 -1.60192,-0.29699 -1.60191,0.3745 -1.60192,-0.37791 -1.60191,0.0574 -1.60191,-0.28009 -1.60192,0.0201 -1.60191,-0.28816 -1.60191,0.40265 -1.60192,-1.27515 -1.60191,0.63129 -1.60192,0.53252 -1.60191,0.16719 -1.60191,-0.0951 -1.60192,0.15494 -1.60191,0.49496 -1.60192,-0.48878 -1.60191,0.96869 -1.60191,0.30901 -1.60192,0.29423 -1.60191,0.17373 -1.60191,0.8096 -1.60192,0.59464 -1.60191,0.49452 -1.60192,0.19949 -1.60191,0.42936 -1.60191,0.69371 -1.60192,0.20012 -1.60191,0.2495 -1.60192,0.44609 -1.60191,0.54757 -1.60191,-0.0464 -1.60192,0.83011 -1.60191,0.48143 -1.60191,-0.21731 -1.60192,2.30804 -1.60191,0.27089 -1.60192,2.00134 -1.60191,0.91948 -1.60191,-0.65639 -1.60192,2.68985 -1.60191,0.40917 -1.60192,1.32422 -1.60191,0.68431 -1.60191,1.56629 -1.60192,1.12432 -1.60191,1.8586 -1.60192,0.25273 -1.60191,1.58882 -1.60191,0.81099 -1.60192,2.2205 z"
           style="fill:#ff7f0e;fill-opacity:0.2;fill-rule:nonzero;stroke:none"
           id="path912"
           inkscape:connector-curvature="0" /></g></g><g
       id="g914"><g
         id="g916"
         clip-path="url(#clipPath918)"><path
           d="m 261.9647,164.94686 -32.03828,0 0,102.24451 32.03828,0 0,0 0,-102.24451 z"
           style="fill:#000000;fill-opacity:0.05;fill-rule:nonzero;stroke:#000000;stroke-width:1;stroke-linecap:butt;stroke-linejoin:round;stroke-miterlimit:10;stroke-dasharray:none;stroke-opacity:0.05"
           id="path922"
           inkscape:connector-curvature="0" /></g></g><g
       id="g924"><g
         id="g926"
         clip-path="url(#clipPath928)"><path
           d="m 382.10824,164.94686 -40.04785,0 0,102.24451 40.04785,0 0,0 0,-102.24451 z"
           style="fill:#000000;fill-opacity:0.05;fill-rule:nonzero;stroke:#000000;stroke-width:1;stroke-linecap:butt;stroke-linejoin:round;stroke-miterlimit:10;stroke-dasharray:none;stroke-opacity:0.05"
           id="path932"
           inkscape:connector-curvature="0" /></g></g><g
       id="g934"><path
         d="m 245.94556,158.83463 0,-3.5"
         style="fill:#000000;fill-opacity:1;fill-rule:nonzero;stroke:#000000;stroke-width:0.80000001;stroke-linecap:butt;stroke-linejoin:round;stroke-miterlimit:10;stroke-dasharray:none;stroke-opacity:1"
         id="path936"
         inkscape:connector-curvature="0" /><text
         transform="matrix(1,0,0,-1,233.22681,144.24088)"
         style="font-variant:normal;font-weight:normal;font-size:10px;font-family:'DejaVu Sans';-inkscape-font-specification:DejaVuSans;writing-mode:lr-tb;fill:#000000;fill-opacity:1;fill-rule:nonzero;stroke:none"
         id="text938"><tspan
           x="0 6.3600001 12.72 19.08"
           y="0"
           sodipodi:role="line"
           id="tspan940">5400</tspan></text>
<path
         d="m 277.98384,158.83463 0,-3.5"
         style="fill:#000000;fill-opacity:1;fill-rule:nonzero;stroke:#000000;stroke-width:0.80000001;stroke-linecap:butt;stroke-linejoin:round;stroke-miterlimit:10;stroke-dasharray:none;stroke-opacity:1"
         id="path942"
         inkscape:connector-curvature="0" /><text
         transform="matrix(1,0,0,-1,265.26509,144.24088)"
         style="font-variant:normal;font-weight:normal;font-size:10px;font-family:'DejaVu Sans';-inkscape-font-specification:DejaVuSans;writing-mode:lr-tb;fill:#000000;fill-opacity:1;fill-rule:nonzero;stroke:none"
         id="text944"><tspan
           x="0 6.3600001 12.72 19.08"
           y="0"
           sodipodi:role="line"
           id="tspan946">5600</tspan></text>
<path
         d="m 310.02211,158.83463 0,-3.5"
         style="fill:#000000;fill-opacity:1;fill-rule:nonzero;stroke:#000000;stroke-width:0.80000001;stroke-linecap:butt;stroke-linejoin:round;stroke-miterlimit:10;stroke-dasharray:none;stroke-opacity:1"
         id="path948"
         inkscape:connector-curvature="0" /><text
         transform="matrix(1,0,0,-1,297.30336,144.24088)"
         style="font-variant:normal;font-weight:normal;font-size:10px;font-family:'DejaVu Sans';-inkscape-font-specification:DejaVuSans;writing-mode:lr-tb;fill:#000000;fill-opacity:1;fill-rule:nonzero;stroke:none"
         id="text950"><tspan
           x="0 6.3600001 12.72 19.08"
           y="0"
           sodipodi:role="line"
           id="tspan952">5800</tspan></text>
<path
         d="m 342.06039,158.83463 0,-3.5"
         style="fill:#000000;fill-opacity:1;fill-rule:nonzero;stroke:#000000;stroke-width:0.80000001;stroke-linecap:butt;stroke-linejoin:round;stroke-miterlimit:10;stroke-dasharray:none;stroke-opacity:1"
         id="path954"
         inkscape:connector-curvature="0" /><text
         transform="matrix(1,0,0,-1,329.34164,144.24088)"
         style="font-variant:normal;font-weight:normal;font-size:10px;font-family:'DejaVu Sans';-inkscape-font-specification:DejaVuSans;writing-mode:lr-tb;fill:#000000;fill-opacity:1;fill-rule:nonzero;stroke:none"
         id="text956"><tspan
           x="0 6.3600001 12.72 19.08"
           y="0"
           sodipodi:role="line"
           id="tspan958">6000</tspan></text>
<path
         d="m 374.09867,158.83463 0,-3.5"
         style="fill:#000000;fill-opacity:1;fill-rule:nonzero;stroke:#000000;stroke-width:0.80000001;stroke-linecap:butt;stroke-linejoin:round;stroke-miterlimit:10;stroke-dasharray:none;stroke-opacity:1"
         id="path960"
         inkscape:connector-curvature="0" /><text
         transform="matrix(1,0,0,-1,361.37992,144.24088)"
         style="font-variant:normal;font-weight:normal;font-size:10px;font-family:'DejaVu Sans';-inkscape-font-specification:DejaVuSans;writing-mode:lr-tb;fill:#000000;fill-opacity:1;fill-rule:nonzero;stroke:none"
         id="text962"><tspan
           x="0 6.3600001 12.72 19.08"
           y="0"
           sodipodi:role="line"
           id="tspan964">6200</tspan></text>
<path
         d="m 228.92642,178.77922 -3.5,0"
         style="fill:#000000;fill-opacity:1;fill-rule:nonzero;stroke:#000000;stroke-width:0.80000001;stroke-linecap:butt;stroke-linejoin:round;stroke-miterlimit:10;stroke-dasharray:none;stroke-opacity:1"
         id="path966"
         inkscape:connector-curvature="0" /><text
         transform="matrix(1,0,0,-1,199.6608,174.98234)"
         style="font-variant:normal;font-weight:normal;font-size:10px;font-family:'DejaVu Sans';-inkscape-font-specification:DejaVuSans;writing-mode:lr-tb;fill:#000000;fill-opacity:1;fill-rule:nonzero;stroke:none"
         id="text968"><tspan
           x="0 6.3600001 9.54 15.9"
           y="0"
           sodipodi:role="line"
           id="tspan970">0.25</tspan></text>
<path
         d="m 228.92642,205.32341 -3.5,0"
         style="fill:#000000;fill-opacity:1;fill-rule:nonzero;stroke:#000000;stroke-width:0.80000001;stroke-linecap:butt;stroke-linejoin:round;stroke-miterlimit:10;stroke-dasharray:none;stroke-opacity:1"
         id="path972"
         inkscape:connector-curvature="0" /><text
         transform="matrix(1,0,0,-1,199.6608,201.52653)"
         style="font-variant:normal;font-weight:normal;font-size:10px;font-family:'DejaVu Sans';-inkscape-font-specification:DejaVuSans;writing-mode:lr-tb;fill:#000000;fill-opacity:1;fill-rule:nonzero;stroke:none"
         id="text974"><tspan
           x="0 6.3600001 9.54 15.9"
           y="0"
           sodipodi:role="line"
           id="tspan976">0.50</tspan></text>
<path
         d="m 228.92642,231.8676 -3.5,0"
         style="fill:#000000;fill-opacity:1;fill-rule:nonzero;stroke:#000000;stroke-width:0.80000001;stroke-linecap:butt;stroke-linejoin:round;stroke-miterlimit:10;stroke-dasharray:none;stroke-opacity:1"
         id="path978"
         inkscape:connector-curvature="0" /><text
         transform="matrix(1,0,0,-1,199.6608,228.07072)"
         style="font-variant:normal;font-weight:normal;font-size:10px;font-family:'DejaVu Sans';-inkscape-font-specification:DejaVuSans;writing-mode:lr-tb;fill:#000000;fill-opacity:1;fill-rule:nonzero;stroke:none"
         id="text980"><tspan
           x="0 6.3600001 9.54 15.9"
           y="0"
           sodipodi:role="line"
           id="tspan982">0.75</tspan></text>
<path
         d="m 228.92642,258.41179 -3.5,0"
         style="fill:#000000;fill-opacity:1;fill-rule:nonzero;stroke:#000000;stroke-width:0.80000001;stroke-linecap:butt;stroke-linejoin:round;stroke-miterlimit:10;stroke-dasharray:none;stroke-opacity:1"
         id="path984"
         inkscape:connector-curvature="0" /><text
         transform="matrix(1,0,0,-1,199.6608,254.61491)"
         style="font-variant:normal;font-weight:normal;font-size:10px;font-family:'DejaVu Sans';-inkscape-font-specification:DejaVuSans;writing-mode:lr-tb;fill:#000000;fill-opacity:1;fill-rule:nonzero;stroke:none"
         id="text986"><tspan
           x="0 6.3600001 9.54 15.9"
           y="0"
           sodipodi:role="line"
           id="tspan988">1.00</tspan></text>
</g><g
       id="g990"><g
         id="g992"
         clip-path="url(#clipPath994)"><path
           d="m -1,226.24081 6.818669,-0.13172 8.00957,0.1827 16.019138,0.11383 8.00957,-0.26835 8.009569,0.12587 8.00957,-0.19001 8.009569,0.25197 8.009569,-0.0977 16.019139,0.16297 8.009569,-0.13218 8.009568,0.0728 8.00957,-0.39077 16.01914,0.34687 16.01914,-0.10886 8.00957,0.24465 16.01914,-0.14774 16.01914,0.0195 16.01913,-0.17898 8.00957,0.21644 15.85895,-0.0368 0.16019,2.27539 1.60192,1.84442 1.60191,0.78437 1.60191,0.44381 1.60192,0.27289 6.40765,0.49659 11.2134,0.34164 9.61148,-0.0483 6.40766,0.094 3.20383,-1.67516 1.60191,-0.73416 3.20383,-2.478 1.60191,-1.62722 1.60192,-1.14973 3.20382,-2.70799 1.60192,-1.49901 4.80574,-3.97773 1.60191,-0.66744 1.60192,-1.18056 1.60191,-0.37492 1.60192,-0.76125 3.20382,-2.88528 1.60192,-0.49542 1.60191,-0.83784 1.60191,-0.38239 1.60192,-0.9857 1.60191,-0.47723 1.60192,-0.77622 3.20382,-2.1304 3.20383,-0.0676 1.60192,-1.20384 1.60191,-0.0862 1.60191,-0.70156 1.60192,-0.88038 3.20382,0.1621 3.20383,0.0883 1.60192,-0.63583 1.60191,0.10833 1.60191,1.02679 1.60192,-0.6842 1.60191,-0.0539 1.60192,1.8897 1.60191,-1.26792 1.60191,0.48032 1.60192,-0.8526 1.60191,1.56128 3.20383,1.41499 1.60191,-0.94061 1.60192,-0.74877 1.60191,1.64658 1.60191,1.08223 1.60192,0.12364 1.60191,-0.70633 1.60192,2.62955 1.60191,-1.0469 1.60191,1.05789 1.60192,-0.0953 1.60191,-0.67031 1.60192,4.18001 1.60191,-1.83675 1.60191,0.45497 1.60192,0.74733 1.60191,2.2562 1.60191,-1.4732 1.60192,-4.69163 1.60191,-0.83157 1.60192,10.47739 1.60191,-3.99837 1.60191,4.46418 1.60192,-0.43724 1.60191,-10.66891 1.60192,37.03508 0,0"
           style="fill:none;stroke:#1f77b4;stroke-width:1.5;stroke-linecap:square;stroke-linejoin:round;stroke-miterlimit:10;stroke-dasharray:none;stroke-opacity:1"
           id="path998"
           inkscape:connector-curvature="0" /></g></g><g
       id="g1000"><g
         id="g1002"
         clip-path="url(#clipPath1004)"><path
           d="m 263.7268,230.02878 1.60192,-0.44439 1.60191,-0.76231 1.60191,-1.18283 1.60192,-0.79971 1.60191,-1.7344 1.60192,-1.1927 1.60191,-2.09036 1.60191,-0.25301 1.60192,-1.65663 1.60191,-0.96603 1.60192,-1.97747 1.60191,-0.45887 1.60191,-1.02107 1.60192,-1.70618 1.60191,-0.42197 1.60192,-2.68377 1.60191,-0.55867 1.60191,-0.81 1.60192,-0.81419 1.60191,-1.11356 1.60191,-0.37177 1.60192,-0.33045 1.60191,-0.67563 1.60192,-0.15787 1.60191,-0.66801 1.60191,-0.9622 1.60192,-0.33408 1.60191,-0.59813 1.60192,-0.83158 1.60191,-0.69146 1.60191,-0.26721 1.60192,-0.34441 1.60191,-0.60134 1.60191,-0.62434 1.60192,-0.0962 1.60191,-0.37282 1.60192,-0.64374 1.60191,0.23758 1.60191,-0.33221 1.60192,-0.75203 1.60191,0.0933 1.60192,0.3024 1.60191,-0.44198 1.60191,0.27081 1.60192,-0.13251 1.60191,0.42285 1.60191,0.0369 1.60192,0.32093 1.60191,-0.12061 1.60192,-0.14906 1.60191,-0.0705 1.60191,0.18051 1.60192,0.18074 1.60191,0.30747 1.60192,0.0698 1.60191,0.0513 1.60191,-0.0557 1.60192,-0.0555 1.60191,0.28085 1.60192,0.0847 1.60191,-0.0282 1.60191,0.18147 1.60192,0.0706 1.60191,0.0563 1.60191,-0.17047 1.60192,0.10169 1.60191,0.1198 1.60192,0.23742 1.60191,-0.0215 1.60191,0.0817 1.60192,-0.0203 1.60191,0.0791 1.60192,0.009 1.44172,0.21031"
           style="fill:none;stroke:#ff7f0e;stroke-width:1.5;stroke-linecap:square;stroke-linejoin:round;stroke-miterlimit:10;stroke-dasharray:none;stroke-opacity:1"
           id="path1008"
           inkscape:connector-curvature="0" /></g></g><g
       id="g1010"><path
         d="m 228.92642,159.83463 0,112.46897"
         style="fill:none;stroke:#000000;stroke-width:0.80000001;stroke-linecap:square;stroke-linejoin:miter;stroke-miterlimit:10;stroke-dasharray:none;stroke-opacity:1"
         id="path1012"
         inkscape:connector-curvature="0" /><path
         d="m 229.92642,158.83463 152.18182,0"
         style="fill:none;stroke:#000000;stroke-width:0.80000001;stroke-linecap:square;stroke-linejoin:miter;stroke-miterlimit:10;stroke-dasharray:none;stroke-opacity:1"
         id="path1014"
         inkscape:connector-curvature="0" /><path
         d="m 47.308239,24.871875 152.181821,0 0,112.468965 -152.181821,0 0,-112.468965 z"
         style="fill:#ffffff;fill-opacity:1;fill-rule:nonzero;stroke:none"
         id="path1016"
         inkscape:connector-curvature="0" /></g><g
       id="g1152"
       transform="translate(189.8261,134.36583)"><path
         d="m 229.92642,24.871875 152.18182,0 0,112.468965 -152.18182,0 0,-112.468965 z"
         style="fill:#ffffff;fill-opacity:1;fill-rule:nonzero;stroke:none"
         id="path1158"
         inkscape:connector-curvature="0" /></g><g
       id="g1160"
       transform="translate(189.8261,134.36583)"><g
         id="g1162"
         clip-path="url(#clipPath1164)"><path
           d="m -618.92774,89.955527 0,-55.323948 8.00957,0.633767 8.00957,2.644191 8.00957,6.448504 8.00957,8.043133 8.00956,3.044327 8.00957,1.197913 8.00957,-0.03924 8.00957,-0.357906 8.00957,-0.23613 8.00957,0.274724 8.00957,0.761732 8.00957,-0.652551 8.00957,-0.230697 8.00957,0.582641 8.00957,-0.08163 8.00957,-0.711415 8.00957,0.399508 8.00957,0.244523 8.00957,-0.02195 8.00957,-0.419006 8.00957,0.08852 8.00956,-0.127784 8.00957,-0.496167 8.00957,-0.322527 8.00957,-0.0511 8.00957,0.790429 8.00957,-0.623781 8.00957,0.397148 8.00957,0.158502 8.00957,-0.03798 8.00957,0.05882 8.00957,0.121696 8.00957,-0.297816 8.00957,0.37548 8.00957,-0.510376 8.00957,0.208323 8.00957,-0.338533 8.00956,0.274085 8.00957,-0.05042 8.00957,0.33409 8.00957,0.480337 8.00957,-0.250504 8.00957,0.200913 8.00957,-0.240921 8.00957,0.213946 8.00957,-0.248896 8.00957,0.131359 8.00957,0.08328 8.00957,0.223242 8.00957,-0.0032 8.00957,-0.04447 8.00957,-0.06584 8.00957,-0.213319 8.00956,0.133767 8.00957,0.140251 8.00957,-0.170724 8.00957,0.01635 8.00957,-0.02783 8.00957,-0.02407 8.00957,-0.295163 8.00957,-0.135158 8.00957,0.112152 8.00957,-0.557796 8.00957,0.435486 8.009567,-0.103382 8.00957,-0.03991 8.009569,-0.199646 8.009569,0.510218 8.00957,-0.0826 8.009569,-0.145414 8.00957,0.341067 8.009569,-0.105113 8.009569,0.04163 8.00957,0.08849 8.009569,-0.01943 8.00957,0.251084 8.009569,-0.279073 8.009569,-0.10791 8.00957,0.205923 8.009569,0.302121 8.009569,0.0088 8.00957,0.03616 8.009569,0.001 8.00957,0.416782 8.009569,-0.641057 8.009569,0.02659 8.00957,0.06721 8.009569,-0.189369 8.009569,-0.0637 8.009568,0.210282 8.00957,-0.204797 8.00957,-0.0939 8.00957,0.257483 8.00957,0.142219 8.00957,-0.71211 8.00957,0.08085 8.00957,0.240108 8.00957,0.08784 8.00957,0.197412 8.00957,-0.01315 8.00956,0.0089 8.00957,-0.05772 8.00957,0.05603 8.00957,-0.203822 7.84938,0.428043 0.16019,-0.08182 1.60192,-0.05308 1.60191,-0.08261 1.60191,0.04802 1.60192,0.01727 1.60191,0.147773 1.60192,-0.04309 1.60191,0.01273 1.60191,0.06352 1.60192,2.95e-4 1.60191,-0.07935 1.60191,0.08 1.60192,-0.103813 1.60191,0.127503 1.60192,-0.08191 1.60191,0.02376 1.60191,-0.153582 1.60192,-0.06078 1.60191,0.116059 1.60192,-0.12 1.60191,-0.02498 1.60191,0.02008 1.60192,-0.05007 1.60191,2.34e-4 1.60191,-0.04905 1.60192,6.76e-4 1.60191,0.07657 1.60192,0.01437 1.60191,0.467638 1.60191,0.693556 1.60192,0.572516 1.60191,0.693882 1.60192,0.841894 1.60191,0.783191 1.60191,0.943778 1.60192,0.747115 1.60191,0.918178 1.60192,0.72754 1.60191,0.847181 1.60191,0.955313 1.60192,0.844035 1.60191,0.873517 1.60192,0.740012 1.60191,0.680852 1.60191,0.79823 1.60192,0.71997 1.60191,0.650507 1.60191,0.513645 1.60192,0.248721 1.60191,0.660462 1.60192,0.0837 1.60191,0.626725 1.60191,0.129538 1.60192,0.363195 1.60191,0.3698 1.60192,0.16266 1.60191,0.376301 1.60191,-0.162169 1.60192,0.914932 1.60191,0.512742 1.60191,-0.216412 1.60192,0.396057 1.60191,-0.198582 1.60192,-0.390174 1.60191,-0.288281 1.60191,0.236472 1.60192,1.038511 1.60191,1.293896 1.60192,0.319358 1.60191,-0.406511 1.60191,0.223396 1.60192,0.434578 1.60191,0.509633 1.60191,-0.751749 1.60192,0.993514 1.60191,0.333231 1.60192,0.473812 1.60191,0.140728 1.60191,1.009155 1.60192,1.72859 1.60191,-1.603673 1.60192,1.075134 1.60191,-0.210792 1.60191,0.730048 1.60192,0.08762 1.60191,-0.0484 1.60192,-1.987966 1.60191,-3.719158 1.60191,0.893529 1.60192,-2.466128 1.60191,1.85211 1.60191,-2.084243 1.60192,-2.447616 1.60191,-1.595929 1.60192,5.923431 1.60191,-3.595098 1.60191,-1.00332 1.60192,-7.743649 1.60191,-6.005359 0,28.533472 0,0 -1.60191,1.155418 -1.60192,16.259518 -1.60191,1.46292 -1.60191,0.8823 -1.60192,13.11926 -1.60191,-3.84195 -1.60192,1.02903 -1.60191,1.06768 -1.60191,-2.79949 -1.60192,0.21082 -1.60191,-0.53604 -1.60191,-2.95876 -1.60192,-1.38882 -1.60191,4.51701 -1.60192,-2.4731 -1.60191,1.50976 -1.60191,-1.46285 -1.60192,-0.39164 -1.60191,0.69854 -1.60192,-1.68856 -1.60191,0.0917 -1.60191,0.83129 -1.60192,-0.43318 -1.60191,-1.22386 -1.60192,-0.70658 -1.60191,-0.0549 -1.60191,-0.86261 -1.60192,0.47342 -1.60191,1.27317 -1.60191,-0.76547 -1.60192,-0.54793 -1.60191,-0.23125 -1.60192,-1.25745 -1.60191,-0.34268 -1.60191,-0.14247 -1.60192,-0.55056 -1.60191,-0.56581 -1.60192,-1.0206 -1.60191,-0.47345 -1.60191,-0.92453 -1.60192,-0.63255 -1.60191,-0.10183 -1.60191,-0.83405 -1.60192,-0.74085 -1.60191,-0.71801 -1.60192,-0.67846 -1.60191,-0.721702 -1.60191,-0.945401 -1.60192,-0.614906 -1.60191,-1.026417 -1.60192,-1.013269 -1.60191,-0.961352 -1.60191,-1.113744 -1.60192,-1.253807 -1.60191,-1.181586 -1.60191,-1.24779 -1.60192,-1.450646 -1.60191,-1.391922 -1.60192,-1.428259 -1.60191,-1.632682 -1.60191,-1.529652 -1.60192,-1.459985 -1.60191,-1.446666 -1.60192,-1.357161 -1.60191,-1.308815 -1.60191,-0.911487 -1.60192,-0.945496 -1.60191,-0.874404 -1.60192,-0.765165 -1.60191,-0.660391 -1.60191,-0.28365 -1.60192,-0.249148 -1.60191,-0.11286 -1.60192,0.08675 -1.60191,-0.0554 -1.60191,0.09751 -1.60192,0.01342 -1.60191,0.03635 -1.60191,-0.0017 -1.60192,-0.07842 -1.60191,-0.0667 -1.60192,-0.08798 -1.60191,0.04007 -1.60191,0.0343 -1.60192,-0.08619 -1.60191,0.131726 -1.60192,-0.04397 -1.60191,0.05764 -1.60191,-0.01213 -1.60192,-0.03972 -1.60191,-0.0854 -1.60191,0.04816 -1.60192,-0.05908 -1.60191,0.03109 -1.60192,-0.101494 -1.60191,-0.0065 -1.60191,-0.0081 -1.60192,-0.03314 -0.16019,0.0062 -7.84938,0.37703 -8.00957,0.201292 -8.00957,0.150064 -8.00957,-0.630408 -8.00956,0.287278 -8.00957,-0.143549 -8.00957,-0.05105 -8.00957,-0.232522 -8.00957,0.134464 -8.00957,-0.0059 -8.00957,0.487705 -8.00957,-0.193477 -8.00957,-0.31916 -8.00957,-0.136305 -8.00957,0.169788 -8.009568,-0.308672 -8.009569,0.457188 -8.009569,-0.142587 -8.00957,-0.04738 -8.009569,0.0181 -8.009569,0.06424 -8.00957,-0.478089 -8.009569,-0.09277 -8.00957,0.642598 -8.009569,0.151185 -8.009569,-0.373374 -8.00957,0.318111 -8.009569,0.103469 -8.009569,-0.626993 -8.00957,0.354028 -8.009569,-0.368023 -8.00957,0.389578 -8.009569,0.375299 -8.009569,-0.76396 -8.00957,-0.229195 -8.009569,0.387219 -8.00957,0.3911 -8.009569,-0.222554 -8.009569,0.175386 -8.00957,-0.03106 -8.009567,-0.162798 -8.00957,-0.104503 -8.00957,0.397107 -8.00957,-0.0718 -8.00957,0.132536 -8.00957,0.13151 -8.00957,0.136607 -8.00957,-0.218721 -8.00957,-0.424133 -8.00957,-0.218756 -8.00957,0.232689 -8.00956,0.218469 -8.00957,-0.377388 -8.00957,0.38426 -8.00957,-0.362829 -8.00957,0.288329 -8.00957,-0.198296 -8.00957,0.445955 -8.00957,0.129274 -8.00957,0.01674 -8.00957,-0.270548 -8.00957,-0.373558 -8.00957,0.420187 -8.00957,0.07902 -8.00957,0.07478 -8.00957,0.3749 -8.00957,-0.366194 -8.00956,0.06611 -8.00957,-0.569333 -8.00957,0.545723 -8.00957,0.06579 -8.00957,-0.546045 -8.00957,0.271147 -8.00957,-0.381466 -8.00957,-0.324303 -8.00957,0.363389 -8.00957,-0.41725 -8.00957,-0.116262 -8.00957,-0.07667 -8.00957,0.744367 -8.00957,-0.196966 -8.00957,0.318789 -8.00957,-0.42439 -8.00956,-0.605296 -8.00957,0.695658 -8.00957,-0.250865 -8.00957,0.594467 -8.00957,-0.582778 -8.00957,0.223041 -8.00957,0.268352 -8.00957,-0.169855 -8.00957,0.136297 -8.00957,-0.185616 -8.00957,0.245319 -8.00957,0.07082 -8.00957,-0.40332 -8.00957,0.122169 -8.00957,0.257191 -8.00957,0.358707 -8.00957,1.116392 -8.00956,2.490878 -8.00957,4.286097 -8.00957,4.964278 -8.00957,3.476569 -8.00957,0.541908 z"
           style="fill:#1f77b4;fill-opacity:0.2;fill-rule:nonzero;stroke:none"
           id="path1168"
           inkscape:connector-curvature="0" /></g></g><g
       id="g1170"
       transform="translate(189.8261,134.36583)"><g
         id="g1172"
         clip-path="url(#clipPath1174)"><path
           d="m 263.7268,83.531958 0,-33.324465 1.60192,-0.346187 1.60191,2.681785 1.60191,0.555912 1.60192,1.035029 1.60191,0.472201 1.60192,0.940417 1.60191,1.183597 1.60191,0.84373 1.60192,1.528206 1.60191,2.3583 1.60192,0.107002 1.60191,1.314159 1.60191,1.648048 1.60192,1.139564 1.60191,2.199905 1.60192,1.136363 1.60191,0.564546 1.60191,1.270075 1.60192,0.908044 1.60191,0.08782 1.60191,1.976703 1.60192,1.332988 1.60191,0.231079 1.60192,0.976929 1.60191,-0.372971 1.60191,0.64932 1.60192,1.941185 1.60191,-0.164903 1.60192,-0.422508 1.60191,0.398691 1.60191,0.566788 1.60192,0.442729 1.60191,-0.08196 1.60191,0.841433 1.60192,-0.275097 1.60191,0.244318 1.60192,0.239453 1.60191,0.503545 1.60191,0.110865 1.60192,0.156676 1.60191,0.199212 1.60192,0.08239 1.60191,0.18891 1.60191,0.01268 1.60192,0.315924 1.60191,0.263266 1.60191,0.102717 1.60192,0.243675 1.60191,-0.154125 1.60192,-0.434375 1.60191,0.183544 1.60191,0.09484 1.60192,0.124638 1.60191,-0.03563 1.60192,-0.09958 1.60191,0.06776 1.60191,0.0034 1.60192,0.110979 1.60191,0.16655 1.60192,0.08218 1.60191,0.01744 1.60191,0.124554 1.60192,-0.07695 1.60191,-0.05685 1.60191,0.104702 1.60192,0.138061 1.60191,-0.0093 1.60192,0.178982 1.60191,0.0031 1.60191,0.08631 1.60192,0.105345 1.60191,-0.07004 1.60192,0.113808 1.44172,0.0269 0,44.244811 0,0 -1.44172,-0.20282 -1.60192,0.0627 -1.60191,-0.10782 -1.60192,-0.0359 -1.60191,-0.0372 -1.60191,-0.0882 -1.60192,-0.0372 -1.60191,-0.061 -1.60192,-0.15751 -1.60191,-0.12229 -1.60191,-0.039 -1.60192,-0.13211 -1.60191,0.0213 -1.60191,-0.0631 -1.60192,-0.0459 -1.60191,0.004 -1.60192,0.027 -1.60191,-0.20241 -1.60191,-0.0619 -1.60192,-0.23101 -1.60191,-0.19063 -1.60192,-0.3319 -1.60191,-0.03 -1.60191,-0.1608 -1.60192,-0.0471 -1.60191,-0.19994 -1.60192,-0.38313 -1.60191,-0.23123 -1.60191,0.10192 -1.60192,0.002 -1.60191,-0.26766 -1.60191,-0.60762 -1.60192,-0.52179 -1.60191,-0.26405 -1.60192,-0.48059 -1.60191,-0.25122 -1.60191,0.18419 -1.60192,-0.5158 -1.60191,-0.48834 -1.60192,-0.30479 -1.60191,-0.10543 -1.60191,-0.17173 -1.60192,-0.43797 -1.60191,-0.64471 -1.60191,-0.24455 -1.60192,-0.45575 -1.60191,-0.79139 -1.60192,-0.77978 -1.60191,-0.17598 -1.60191,-0.81758 -1.60192,-0.8428 -1.60191,-1.60903 -1.60192,-1.07117 -1.60191,-1.58801 -1.60191,-1.41878 -1.60192,-1.17229 -1.60191,-1.47243 -1.60191,-1.97712 -1.60192,-2.54488 -1.60191,-2.18227 -1.60192,-1.653203 -1.60191,-1.826106 -1.60191,-2.006277 -1.60192,-1.928479 -1.60191,-1.79664 -1.60192,-2.607229 -1.60191,0.08151 -1.60191,-2.107984 -1.60192,-2.061907 -1.60191,-1.903675 -1.60192,-0.375827 -1.60191,-2.166408 -1.60191,0.3111 -1.60192,2.994234 z"
           style="fill:#ff7f0e;fill-opacity:0.2;fill-rule:nonzero;stroke:none"
           id="path1178"
           inkscape:connector-curvature="0" /></g></g><g
       id="g1180"
       transform="translate(189.8261,134.36583)"><g
         id="g1182"
         clip-path="url(#clipPath1184)"><path
           d="m 261.9647,29.984101 -32.03828,0 0,102.244509 32.03828,0 0,0 0,-102.244509 z"
           style="fill:#000000;fill-opacity:0.05;fill-rule:nonzero;stroke:#000000;stroke-width:1;stroke-linecap:butt;stroke-linejoin:round;stroke-miterlimit:10;stroke-dasharray:none;stroke-opacity:0.05"
           id="path1188"
           inkscape:connector-curvature="0" /></g></g><g
       id="g1190"
       transform="translate(189.8261,134.36583)"><g
         id="g1192"
         clip-path="url(#clipPath1194)"><path
           d="m 382.10824,29.984101 -40.04785,0 0,102.244509 40.04785,0 0,0 0,-102.244509 z"
           style="fill:#000000;fill-opacity:0.05;fill-rule:nonzero;stroke:#000000;stroke-width:1;stroke-linecap:butt;stroke-linejoin:round;stroke-miterlimit:10;stroke-dasharray:none;stroke-opacity:0.05"
           id="path1198"
           inkscape:connector-curvature="0" /></g></g><g
       id="g1200"
       transform="translate(189.8261,134.36583)"><path
         d="m 245.94556,23.871875 0,-3.5"
         style="fill:#000000;fill-opacity:1;fill-rule:nonzero;stroke:#000000;stroke-width:0.80000001;stroke-linecap:butt;stroke-linejoin:round;stroke-miterlimit:10;stroke-dasharray:none;stroke-opacity:1"
         id="path1202"
         inkscape:connector-curvature="0" /><text
         transform="matrix(1,0,0,-1,233.22681,9.278125)"
         style="font-variant:normal;font-weight:normal;font-size:10px;font-family:'DejaVu Sans';-inkscape-font-specification:DejaVuSans;writing-mode:lr-tb;fill:#000000;fill-opacity:1;fill-rule:nonzero;stroke:none"
         id="text1204"><tspan
           x="0 6.3600001 12.72 19.08"
           y="0"
           sodipodi:role="line"
           id="tspan1206">5400</tspan></text>
<path
         d="m 277.98384,23.871875 0,-3.5"
         style="fill:#000000;fill-opacity:1;fill-rule:nonzero;stroke:#000000;stroke-width:0.80000001;stroke-linecap:butt;stroke-linejoin:round;stroke-miterlimit:10;stroke-dasharray:none;stroke-opacity:1"
         id="path1208"
         inkscape:connector-curvature="0" /><text
         transform="matrix(1,0,0,-1,265.26509,9.278125)"
         style="font-variant:normal;font-weight:normal;font-size:10px;font-family:'DejaVu Sans';-inkscape-font-specification:DejaVuSans;writing-mode:lr-tb;fill:#000000;fill-opacity:1;fill-rule:nonzero;stroke:none"
         id="text1210"><tspan
           x="0 6.3600001 12.72 19.08"
           y="0"
           sodipodi:role="line"
           id="tspan1212">5600</tspan></text>
<path
         d="m 310.02211,23.871875 0,-3.5"
         style="fill:#000000;fill-opacity:1;fill-rule:nonzero;stroke:#000000;stroke-width:0.80000001;stroke-linecap:butt;stroke-linejoin:round;stroke-miterlimit:10;stroke-dasharray:none;stroke-opacity:1"
         id="path1214"
         inkscape:connector-curvature="0" /><text
         transform="matrix(1,0,0,-1,297.30336,9.278125)"
         style="font-variant:normal;font-weight:normal;font-size:10px;font-family:'DejaVu Sans';-inkscape-font-specification:DejaVuSans;writing-mode:lr-tb;fill:#000000;fill-opacity:1;fill-rule:nonzero;stroke:none"
         id="text1216"><tspan
           x="0 6.3600001 12.72 19.08"
           y="0"
           sodipodi:role="line"
           id="tspan1218">5800</tspan></text>
<path
         d="m 342.06039,23.871875 0,-3.5"
         style="fill:#000000;fill-opacity:1;fill-rule:nonzero;stroke:#000000;stroke-width:0.80000001;stroke-linecap:butt;stroke-linejoin:round;stroke-miterlimit:10;stroke-dasharray:none;stroke-opacity:1"
         id="path1220"
         inkscape:connector-curvature="0" /><text
         transform="matrix(1,0,0,-1,329.34164,9.278125)"
         style="font-variant:normal;font-weight:normal;font-size:10px;font-family:'DejaVu Sans';-inkscape-font-specification:DejaVuSans;writing-mode:lr-tb;fill:#000000;fill-opacity:1;fill-rule:nonzero;stroke:none"
         id="text1222"><tspan
           x="0 6.3600001 12.72 19.08"
           y="0"
           sodipodi:role="line"
           id="tspan1224">6000</tspan></text>
<path
         d="m 374.09867,23.871875 0,-3.5"
         style="fill:#000000;fill-opacity:1;fill-rule:nonzero;stroke:#000000;stroke-width:0.80000001;stroke-linecap:butt;stroke-linejoin:round;stroke-miterlimit:10;stroke-dasharray:none;stroke-opacity:1"
         id="path1226"
         inkscape:connector-curvature="0" /><text
         transform="matrix(1,0,0,-1,361.37992,9.278125)"
         style="font-variant:normal;font-weight:normal;font-size:10px;font-family:'DejaVu Sans';-inkscape-font-specification:DejaVuSans;writing-mode:lr-tb;fill:#000000;fill-opacity:1;fill-rule:nonzero;stroke:none"
         id="text1228"><tspan
           x="0 6.3600001 12.72 19.08"
           y="0"
           sodipodi:role="line"
           id="tspan1230">6200</tspan></text>
<path
         d="m 228.92642,31.690661 -3.5,0"
         style="fill:#000000;fill-opacity:1;fill-rule:nonzero;stroke:#000000;stroke-width:0.80000001;stroke-linecap:butt;stroke-linejoin:round;stroke-miterlimit:10;stroke-dasharray:none;stroke-opacity:1"
         id="path1232"
         inkscape:connector-curvature="0" /><g
         id="g1234"
         transform="translate(197.64517,27.893786)"><text
           transform="matrix(1,0,0,-1,8.3789063,0)"
           style="font-variant:normal;font-weight:normal;font-size:10px;font-family:'DejaVu Sans';-inkscape-font-specification:DejaVuSans;writing-mode:lr-tb;fill:#000000;fill-opacity:1;fill-rule:nonzero;stroke:none"
           id="text1236"><tspan
             x="0 6.3600001 9.54"
             y="0"
             sodipodi:role="line"
             id="tspan1238">0.5</tspan></text>
<g
           id="g1240"
           transform="scale(0.01,0.01)"><g
             id="g1242"><g
               id="g1244"
               clip-path="url(#clipPath1246)"><path
                 d="m 106,355 626,0 0,-83 -626,0 0,83"
                 style="fill:#000000;fill-opacity:1;fill-rule:nonzero;stroke:none"
                 id="path1250"
                 inkscape:connector-curvature="0" /></g></g></g></g><path
         d="m 228.92642,66.422071 -3.5,0"
         style="fill:#000000;fill-opacity:1;fill-rule:nonzero;stroke:#000000;stroke-width:0.80000001;stroke-linecap:butt;stroke-linejoin:round;stroke-miterlimit:10;stroke-dasharray:none;stroke-opacity:1"
         id="path1252"
         inkscape:connector-curvature="0" /><text
         transform="matrix(1,0,0,-1,206.02017,62.625196)"
         style="font-variant:normal;font-weight:normal;font-size:10px;font-family:'DejaVu Sans';-inkscape-font-specification:DejaVuSans;writing-mode:lr-tb;fill:#000000;fill-opacity:1;fill-rule:nonzero;stroke:none"
         id="text1254"><tspan
           x="0 6.3600001 9.54"
           y="0"
           sodipodi:role="line"
           id="tspan1256">0.0</tspan></text>
<path
         d="m 228.92642,101.15348 -3.5,0"
         style="fill:#000000;fill-opacity:1;fill-rule:nonzero;stroke:#000000;stroke-width:0.80000001;stroke-linecap:butt;stroke-linejoin:round;stroke-miterlimit:10;stroke-dasharray:none;stroke-opacity:1"
         id="path1258"
         inkscape:connector-curvature="0" /><text
         transform="matrix(1,0,0,-1,206.02017,97.356606)"
         style="font-variant:normal;font-weight:normal;font-size:10px;font-family:'DejaVu Sans';-inkscape-font-specification:DejaVuSans;writing-mode:lr-tb;fill:#000000;fill-opacity:1;fill-rule:nonzero;stroke:none"
         id="text1260"><tspan
           x="0 6.3600001 9.54"
           y="0"
           sodipodi:role="line"
           id="tspan1262">0.5</tspan></text>
<path
         d="m 228.92642,135.88489 -3.5,0"
         style="fill:#000000;fill-opacity:1;fill-rule:nonzero;stroke:#000000;stroke-width:0.80000001;stroke-linecap:butt;stroke-linejoin:round;stroke-miterlimit:10;stroke-dasharray:none;stroke-opacity:1"
         id="path1264"
         inkscape:connector-curvature="0" /><text
         transform="matrix(1,0,0,-1,206.02017,132.08802)"
         style="font-variant:normal;font-weight:normal;font-size:10px;font-family:'DejaVu Sans';-inkscape-font-specification:DejaVuSans;writing-mode:lr-tb;fill:#000000;fill-opacity:1;fill-rule:nonzero;stroke:none"
         id="text1266"><tspan
           x="0 6.3600001 9.54"
           y="0"
           sodipodi:role="line"
           id="tspan1268">1.0</tspan></text>
</g><g
       id="g1270"
       transform="translate(189.8261,134.36583)"><g
         id="g1272"
         clip-path="url(#clipPath1274)"><path
           d="m -1,64.532578 14.828239,-0.14607 8.009569,0.337748 8.009569,-0.07121 8.00957,-0.303219 8.009569,0.04689 8.00957,0.447435 8.009569,-0.352649 24.028708,0.03815 8.009569,-0.260446 8.009568,0.259478 8.00957,-0.187293 8.00957,0.0212 8.00957,0.288321 8.00957,0.167849 8.00957,-0.599908 16.01914,0.09618 16.01914,0.284412 8.00957,0.0652 8.00956,-0.139192 8.00957,0.286343 8.00957,-0.04702 8.00957,-0.202557 43.25168,0.04223 4.80574,-0.0885 3.20383,0.226478 1.60191,0.375644 4.80574,2.129957 3.20383,1.741034 8.00957,5.643035 1.60191,1.293998 4.80575,3.364196 6.40765,3.823243 4.80574,2.211932 1.60192,0.349303 1.60191,0.786063 3.20383,0.946445 4.80574,1.600836 1.60191,-0.03017 3.20383,1.49238 1.60191,0.128515 1.60192,0.70833 3.20383,0.26381 1.60191,-0.07291 1.60191,0.289576 1.60192,1.14798 1.60191,0.76257 1.60192,0.433649 1.60191,0.179477 1.60191,-0.524885 1.60192,-0.01942 1.60191,0.686121 1.60191,-0.348408 3.20383,1.628593 1.60192,0.453498 1.60191,-0.345282 1.60191,0.458734 1.60192,1.708574 1.60191,-1.15111 3.20383,1.359416 1.60191,-0.389855 1.60192,1.280361 1.60191,-2.28271 3.20383,-0.67977 1.60191,0.714785 1.60192,-1.338472 1.60191,2.325795 1.60191,-1.575961 1.60192,-1.738322 1.60191,1.123011 1.60192,-3.597913 1.60191,-2.238702 1.60191,-1.23312 1.60192,-12.00158 1.60191,-3.580388 1.60192,10.088106 0,0"
           style="fill:none;stroke:#1f77b4;stroke-width:1.5;stroke-linecap:square;stroke-linejoin:round;stroke-miterlimit:10;stroke-dasharray:none;stroke-opacity:1"
           id="path1278"
           inkscape:connector-curvature="0" /></g></g><g
       id="g1280"
       transform="translate(189.8261,134.36583)"><g
         id="g1282"
         clip-path="url(#clipPath1284)"><path
           d="m 263.7268,66.869725 1.60192,-1.67021 1.60191,1.185342 1.60191,1.36116 1.60192,0.705429 1.60191,1.187938 1.60192,1.501161 1.60191,1.645791 1.60191,0.381111 1.60192,2.067717 1.60191,2.07747 1.60192,1.017741 1.60191,1.660218 1.60191,1.737077 1.60192,1.396384 1.60191,2.191085 1.60192,1.840623 1.60191,1.270833 1.60191,1.371254 1.60192,1.040165 1.60191,0.753304 1.60191,1.782355 1.60192,1.202077 1.60191,0.920055 1.60192,0.909865 1.60191,0.222304 1.60191,0.412649 1.60192,1.360482 1.60191,0.313245 1.60192,0.01662 1.60191,0.32162 1.60191,0.605749 1.60192,0.440351 1.60191,0.0449 1.60191,0.47344 1.60192,0.0149 1.60191,0.36632 1.60192,0.37763 1.60191,0.15968 1.60191,0.18104 1.60192,0.31863 1.60191,0.23163 1.60192,0.30209 1.60191,0.39827 1.60191,0.14016 1.60192,0.15711 1.60191,0.0807 1.60191,0.16698 1.60192,0.3134 1.60191,0.0229 1.60192,-0.19362 1.60191,0.17217 1.60191,0.0624 1.60192,0.22827 1.60191,0.0775 1.60192,0.0657 1.60191,0.0648 1.60191,0.10292 1.60192,0.042 1.60191,0.0811 1.60192,0.064 1.60191,0.0403 1.60191,0.0516 1.60192,0.0276 1.60191,-0.009 1.60191,0.1135 1.60192,0.14778 1.60191,0.0259 1.60192,0.10808 1.60191,0.0456 1.60191,0.0617 1.60192,0.0706 1.60191,0.0189 1.60192,0.0255 1.44172,0.11486"
           style="fill:none;stroke:#ff7f0e;stroke-width:1.5;stroke-linecap:square;stroke-linejoin:round;stroke-miterlimit:10;stroke-dasharray:none;stroke-opacity:1"
           id="path1288"
           inkscape:connector-curvature="0" /></g></g><g
       id="g1290"
       transform="translate(189.8261,134.36583)"><path
         d="m 228.92642,24.871875 0,112.468965"
         style="fill:none;stroke:#000000;stroke-width:0.80000001;stroke-linecap:square;stroke-linejoin:miter;stroke-miterlimit:10;stroke-dasharray:none;stroke-opacity:1"
         id="path1292"
         inkscape:connector-curvature="0" /><path
         d="m 229.92642,23.871875 152.18182,0"
         style="fill:none;stroke:#000000;stroke-width:0.80000001;stroke-linecap:square;stroke-linejoin:miter;stroke-miterlimit:10;stroke-dasharray:none;stroke-opacity:1"
         id="path1294"
         inkscape:connector-curvature="0" /></g></g></svg>