<?xml version="1.0" encoding="utf-8" standalone="no"?>
<!DOCTYPE svg PUBLIC "-//W3C//DTD SVG 1.1//EN"
  "http://www.w3.org/Graphics/SVG/1.1/DTD/svg11.dtd">
<!-- Created with matplotlib (http://matplotlib.org/) -->
<svg height="345.6pt" version="1.1" viewBox="0 0 460.8 345.6" width="460.8pt" xmlns="http://www.w3.org/2000/svg" xmlns:xlink="http://www.w3.org/1999/xlink">
 <defs>
  <style type="text/css">
*{stroke-linecap:butt;stroke-linejoin:round;}
  </style>
 </defs>
 <g id="figure_1">
  <g id="patch_1">
   <path d="M 0 345.6 
L 460.8 345.6 
L 460.8 0 
L 0 0 
z
" style="fill:#ffffff;"/>
  </g>
  <g id="axes_1">
   <g id="patch_2">
    <path d="M 57.6 307.584 
L 414.72 307.584 
L 414.72 41.472 
L 57.6 41.472 
z
" style="fill:#ffffff;"/>
   </g>
   <g id="matplotlib.axis_1">
    <g id="xtick_1">
     <g id="line2d_1">
      <defs>
       <path d="M 0 0 
L 0 3.5 
" id="m9b74895da3" style="stroke:#000000;stroke-width:0.8;"/>
      </defs>
      <g>
       <use style="stroke:#000000;stroke-width:0.8;" x="73.832727" xlink:href="#m9b74895da3" y="307.584"/>
      </g>
     </g>
     <g id="text_1">
      <!-- 0 -->
      <defs>
       <path d="M 31.78125 66.40625 
Q 24.171875 66.40625 20.328125 58.90625 
Q 16.5 51.421875 16.5 36.375 
Q 16.5 21.390625 20.328125 13.890625 
Q 24.171875 6.390625 31.78125 6.390625 
Q 39.453125 6.390625 43.28125 13.890625 
Q 47.125 21.390625 47.125 36.375 
Q 47.125 51.421875 43.28125 58.90625 
Q 39.453125 66.40625 31.78125 66.40625 
z
M 31.78125 74.21875 
Q 44.046875 74.21875 50.515625 64.515625 
Q 56.984375 54.828125 56.984375 36.375 
Q 56.984375 17.96875 50.515625 8.265625 
Q 44.046875 -1.421875 31.78125 -1.421875 
Q 19.53125 -1.421875 13.0625 8.265625 
Q 6.59375 17.96875 6.59375 36.375 
Q 6.59375 54.828125 13.0625 64.515625 
Q 19.53125 74.21875 31.78125 74.21875 
z
" id="DejaVuSans-30"/>
      </defs>
      <g transform="translate(70.651477 322.182437)scale(0.1 -0.1)">
       <use xlink:href="#DejaVuSans-30"/>
      </g>
     </g>
    </g>
    <g id="xtick_2">
     <g id="line2d_2">
      <g>
       <use style="stroke:#000000;stroke-width:0.8;" x="138.763636" xlink:href="#m9b74895da3" y="307.584"/>
      </g>
     </g>
     <g id="text_2">
      <!-- 200 -->
      <defs>
       <path d="M 19.1875 8.296875 
L 53.609375 8.296875 
L 53.609375 0 
L 7.328125 0 
L 7.328125 8.296875 
Q 12.9375 14.109375 22.625 23.890625 
Q 32.328125 33.6875 34.8125 36.53125 
Q 39.546875 41.84375 41.421875 45.53125 
Q 43.3125 49.21875 43.3125 52.78125 
Q 43.3125 58.59375 39.234375 62.25 
Q 35.15625 65.921875 28.609375 65.921875 
Q 23.96875 65.921875 18.8125 64.3125 
Q 13.671875 62.703125 7.8125 59.421875 
L 7.8125 69.390625 
Q 13.765625 71.78125 18.9375 73 
Q 24.125 74.21875 28.421875 74.21875 
Q 39.75 74.21875 46.484375 68.546875 
Q 53.21875 62.890625 53.21875 53.421875 
Q 53.21875 48.921875 51.53125 44.890625 
Q 49.859375 40.875 45.40625 35.40625 
Q 44.1875 33.984375 37.640625 27.21875 
Q 31.109375 20.453125 19.1875 8.296875 
z
" id="DejaVuSans-32"/>
      </defs>
      <g transform="translate(129.219886 322.182437)scale(0.1 -0.1)">
       <use xlink:href="#DejaVuSans-32"/>
       <use x="63.623047" xlink:href="#DejaVuSans-30"/>
       <use x="127.246094" xlink:href="#DejaVuSans-30"/>
      </g>
     </g>
    </g>
    <g id="xtick_3">
     <g id="line2d_3">
      <g>
       <use style="stroke:#000000;stroke-width:0.8;" x="203.694545" xlink:href="#m9b74895da3" y="307.584"/>
      </g>
     </g>
     <g id="text_3">
      <!-- 400 -->
      <defs>
       <path d="M 37.796875 64.3125 
L 12.890625 25.390625 
L 37.796875 25.390625 
z
M 35.203125 72.90625 
L 47.609375 72.90625 
L 47.609375 25.390625 
L 58.015625 25.390625 
L 58.015625 17.1875 
L 47.609375 17.1875 
L 47.609375 0 
L 37.796875 0 
L 37.796875 17.1875 
L 4.890625 17.1875 
L 4.890625 26.703125 
z
" id="DejaVuSans-34"/>
      </defs>
      <g transform="translate(194.150795 322.182437)scale(0.1 -0.1)">
       <use xlink:href="#DejaVuSans-34"/>
       <use x="63.623047" xlink:href="#DejaVuSans-30"/>
       <use x="127.246094" xlink:href="#DejaVuSans-30"/>
      </g>
     </g>
    </g>
    <g id="xtick_4">
     <g id="line2d_4">
      <g>
       <use style="stroke:#000000;stroke-width:0.8;" x="268.625455" xlink:href="#m9b74895da3" y="307.584"/>
      </g>
     </g>
     <g id="text_4">
      <!-- 600 -->
      <defs>
       <path d="M 33.015625 40.375 
Q 26.375 40.375 22.484375 35.828125 
Q 18.609375 31.296875 18.609375 23.390625 
Q 18.609375 15.53125 22.484375 10.953125 
Q 26.375 6.390625 33.015625 6.390625 
Q 39.65625 6.390625 43.53125 10.953125 
Q 47.40625 15.53125 47.40625 23.390625 
Q 47.40625 31.296875 43.53125 35.828125 
Q 39.65625 40.375 33.015625 40.375 
z
M 52.59375 71.296875 
L 52.59375 62.3125 
Q 48.875 64.0625 45.09375 64.984375 
Q 41.3125 65.921875 37.59375 65.921875 
Q 27.828125 65.921875 22.671875 59.328125 
Q 17.53125 52.734375 16.796875 39.40625 
Q 19.671875 43.65625 24.015625 45.921875 
Q 28.375 48.1875 33.59375 48.1875 
Q 44.578125 48.1875 50.953125 41.515625 
Q 57.328125 34.859375 57.328125 23.390625 
Q 57.328125 12.15625 50.6875 5.359375 
Q 44.046875 -1.421875 33.015625 -1.421875 
Q 20.359375 -1.421875 13.671875 8.265625 
Q 6.984375 17.96875 6.984375 36.375 
Q 6.984375 53.65625 15.1875 63.9375 
Q 23.390625 74.21875 37.203125 74.21875 
Q 40.921875 74.21875 44.703125 73.484375 
Q 48.484375 72.75 52.59375 71.296875 
z
" id="DejaVuSans-36"/>
      </defs>
      <g transform="translate(259.081705 322.182437)scale(0.1 -0.1)">
       <use xlink:href="#DejaVuSans-36"/>
       <use x="63.623047" xlink:href="#DejaVuSans-30"/>
       <use x="127.246094" xlink:href="#DejaVuSans-30"/>
      </g>
     </g>
    </g>
    <g id="xtick_5">
     <g id="line2d_5">
      <g>
       <use style="stroke:#000000;stroke-width:0.8;" x="333.556364" xlink:href="#m9b74895da3" y="307.584"/>
      </g>
     </g>
     <g id="text_5">
      <!-- 800 -->
      <defs>
       <path d="M 31.78125 34.625 
Q 24.75 34.625 20.71875 30.859375 
Q 16.703125 27.09375 16.703125 20.515625 
Q 16.703125 13.921875 20.71875 10.15625 
Q 24.75 6.390625 31.78125 6.390625 
Q 38.8125 6.390625 42.859375 10.171875 
Q 46.921875 13.96875 46.921875 20.515625 
Q 46.921875 27.09375 42.890625 30.859375 
Q 38.875 34.625 31.78125 34.625 
z
M 21.921875 38.8125 
Q 15.578125 40.375 12.03125 44.71875 
Q 8.5 49.078125 8.5 55.328125 
Q 8.5 64.0625 14.71875 69.140625 
Q 20.953125 74.21875 31.78125 74.21875 
Q 42.671875 74.21875 48.875 69.140625 
Q 55.078125 64.0625 55.078125 55.328125 
Q 55.078125 49.078125 51.53125 44.71875 
Q 48 40.375 41.703125 38.8125 
Q 48.828125 37.15625 52.796875 32.3125 
Q 56.78125 27.484375 56.78125 20.515625 
Q 56.78125 9.90625 50.3125 4.234375 
Q 43.84375 -1.421875 31.78125 -1.421875 
Q 19.734375 -1.421875 13.25 4.234375 
Q 6.78125 9.90625 6.78125 20.515625 
Q 6.78125 27.484375 10.78125 32.3125 
Q 14.796875 37.15625 21.921875 38.8125 
z
M 18.3125 54.390625 
Q 18.3125 48.734375 21.84375 45.5625 
Q 25.390625 42.390625 31.78125 42.390625 
Q 38.140625 42.390625 41.71875 45.5625 
Q 45.3125 48.734375 45.3125 54.390625 
Q 45.3125 60.0625 41.71875 63.234375 
Q 38.140625 66.40625 31.78125 66.40625 
Q 25.390625 66.40625 21.84375 63.234375 
Q 18.3125 60.0625 18.3125 54.390625 
z
" id="DejaVuSans-38"/>
      </defs>
      <g transform="translate(324.012614 322.182437)scale(0.1 -0.1)">
       <use xlink:href="#DejaVuSans-38"/>
       <use x="63.623047" xlink:href="#DejaVuSans-30"/>
       <use x="127.246094" xlink:href="#DejaVuSans-30"/>
      </g>
     </g>
    </g>
    <g id="xtick_6">
     <g id="line2d_6">
      <g>
       <use style="stroke:#000000;stroke-width:0.8;" x="398.487273" xlink:href="#m9b74895da3" y="307.584"/>
      </g>
     </g>
     <g id="text_6">
      <!-- 1000 -->
      <defs>
       <path d="M 12.40625 8.296875 
L 28.515625 8.296875 
L 28.515625 63.921875 
L 10.984375 60.40625 
L 10.984375 69.390625 
L 28.421875 72.90625 
L 38.28125 72.90625 
L 38.28125 8.296875 
L 54.390625 8.296875 
L 54.390625 0 
L 12.40625 0 
z
" id="DejaVuSans-31"/>
      </defs>
      <g transform="translate(385.762273 322.182437)scale(0.1 -0.1)">
       <use xlink:href="#DejaVuSans-31"/>
       <use x="63.623047" xlink:href="#DejaVuSans-30"/>
       <use x="127.246094" xlink:href="#DejaVuSans-30"/>
       <use x="190.869141" xlink:href="#DejaVuSans-30"/>
      </g>
     </g>
    </g>
    <g id="text_7">
     <!-- Generation -->
     <defs>
      <path d="M 59.515625 10.40625 
L 59.515625 29.984375 
L 43.40625 29.984375 
L 43.40625 38.09375 
L 69.28125 38.09375 
L 69.28125 6.78125 
Q 63.578125 2.734375 56.6875 0.65625 
Q 49.8125 -1.421875 42 -1.421875 
Q 24.90625 -1.421875 15.25 8.5625 
Q 5.609375 18.5625 5.609375 36.375 
Q 5.609375 54.25 15.25 64.234375 
Q 24.90625 74.21875 42 74.21875 
Q 49.125 74.21875 55.546875 72.453125 
Q 61.96875 70.703125 67.390625 67.28125 
L 67.390625 56.78125 
Q 61.921875 61.421875 55.765625 63.765625 
Q 49.609375 66.109375 42.828125 66.109375 
Q 29.4375 66.109375 22.71875 58.640625 
Q 16.015625 51.171875 16.015625 36.375 
Q 16.015625 21.625 22.71875 14.15625 
Q 29.4375 6.6875 42.828125 6.6875 
Q 48.046875 6.6875 52.140625 7.59375 
Q 56.25 8.5 59.515625 10.40625 
z
" id="DejaVuSans-47"/>
      <path d="M 56.203125 29.59375 
L 56.203125 25.203125 
L 14.890625 25.203125 
Q 15.484375 15.921875 20.484375 11.0625 
Q 25.484375 6.203125 34.421875 6.203125 
Q 39.59375 6.203125 44.453125 7.46875 
Q 49.3125 8.734375 54.109375 11.28125 
L 54.109375 2.78125 
Q 49.265625 0.734375 44.1875 -0.34375 
Q 39.109375 -1.421875 33.890625 -1.421875 
Q 20.796875 -1.421875 13.15625 6.1875 
Q 5.515625 13.8125 5.515625 26.8125 
Q 5.515625 40.234375 12.765625 48.109375 
Q 20.015625 56 32.328125 56 
Q 43.359375 56 49.78125 48.890625 
Q 56.203125 41.796875 56.203125 29.59375 
z
M 47.21875 32.234375 
Q 47.125 39.59375 43.09375 43.984375 
Q 39.0625 48.390625 32.421875 48.390625 
Q 24.90625 48.390625 20.390625 44.140625 
Q 15.875 39.890625 15.1875 32.171875 
z
" id="DejaVuSans-65"/>
      <path d="M 54.890625 33.015625 
L 54.890625 0 
L 45.90625 0 
L 45.90625 32.71875 
Q 45.90625 40.484375 42.875 44.328125 
Q 39.84375 48.1875 33.796875 48.1875 
Q 26.515625 48.1875 22.3125 43.546875 
Q 18.109375 38.921875 18.109375 30.90625 
L 18.109375 0 
L 9.078125 0 
L 9.078125 54.6875 
L 18.109375 54.6875 
L 18.109375 46.1875 
Q 21.34375 51.125 25.703125 53.5625 
Q 30.078125 56 35.796875 56 
Q 45.21875 56 50.046875 50.171875 
Q 54.890625 44.34375 54.890625 33.015625 
z
" id="DejaVuSans-6e"/>
      <path d="M 41.109375 46.296875 
Q 39.59375 47.171875 37.8125 47.578125 
Q 36.03125 48 33.890625 48 
Q 26.265625 48 22.1875 43.046875 
Q 18.109375 38.09375 18.109375 28.8125 
L 18.109375 0 
L 9.078125 0 
L 9.078125 54.6875 
L 18.109375 54.6875 
L 18.109375 46.1875 
Q 20.953125 51.171875 25.484375 53.578125 
Q 30.03125 56 36.53125 56 
Q 37.453125 56 38.578125 55.875 
Q 39.703125 55.765625 41.0625 55.515625 
z
" id="DejaVuSans-72"/>
      <path d="M 34.28125 27.484375 
Q 23.390625 27.484375 19.1875 25 
Q 14.984375 22.515625 14.984375 16.5 
Q 14.984375 11.71875 18.140625 8.90625 
Q 21.296875 6.109375 26.703125 6.109375 
Q 34.1875 6.109375 38.703125 11.40625 
Q 43.21875 16.703125 43.21875 25.484375 
L 43.21875 27.484375 
z
M 52.203125 31.203125 
L 52.203125 0 
L 43.21875 0 
L 43.21875 8.296875 
Q 40.140625 3.328125 35.546875 0.953125 
Q 30.953125 -1.421875 24.3125 -1.421875 
Q 15.921875 -1.421875 10.953125 3.296875 
Q 6 8.015625 6 15.921875 
Q 6 25.140625 12.171875 29.828125 
Q 18.359375 34.515625 30.609375 34.515625 
L 43.21875 34.515625 
L 43.21875 35.40625 
Q 43.21875 41.609375 39.140625 45 
Q 35.0625 48.390625 27.6875 48.390625 
Q 23 48.390625 18.546875 47.265625 
Q 14.109375 46.140625 10.015625 43.890625 
L 10.015625 52.203125 
Q 14.9375 54.109375 19.578125 55.046875 
Q 24.21875 56 28.609375 56 
Q 40.484375 56 46.34375 49.84375 
Q 52.203125 43.703125 52.203125 31.203125 
z
" id="DejaVuSans-61"/>
      <path d="M 18.3125 70.21875 
L 18.3125 54.6875 
L 36.8125 54.6875 
L 36.8125 47.703125 
L 18.3125 47.703125 
L 18.3125 18.015625 
Q 18.3125 11.328125 20.140625 9.421875 
Q 21.96875 7.515625 27.59375 7.515625 
L 36.8125 7.515625 
L 36.8125 0 
L 27.59375 0 
Q 17.1875 0 13.234375 3.875 
Q 9.28125 7.765625 9.28125 18.015625 
L 9.28125 47.703125 
L 2.6875 47.703125 
L 2.6875 54.6875 
L 9.28125 54.6875 
L 9.28125 70.21875 
z
" id="DejaVuSans-74"/>
      <path d="M 9.421875 54.6875 
L 18.40625 54.6875 
L 18.40625 0 
L 9.421875 0 
z
M 9.421875 75.984375 
L 18.40625 75.984375 
L 18.40625 64.59375 
L 9.421875 64.59375 
z
" id="DejaVuSans-69"/>
      <path d="M 30.609375 48.390625 
Q 23.390625 48.390625 19.1875 42.75 
Q 14.984375 37.109375 14.984375 27.296875 
Q 14.984375 17.484375 19.15625 11.84375 
Q 23.34375 6.203125 30.609375 6.203125 
Q 37.796875 6.203125 41.984375 11.859375 
Q 46.1875 17.53125 46.1875 27.296875 
Q 46.1875 37.015625 41.984375 42.703125 
Q 37.796875 48.390625 30.609375 48.390625 
z
M 30.609375 56 
Q 42.328125 56 49.015625 48.375 
Q 55.71875 40.765625 55.71875 27.296875 
Q 55.71875 13.875 49.015625 6.21875 
Q 42.328125 -1.421875 30.609375 -1.421875 
Q 18.84375 -1.421875 12.171875 6.21875 
Q 5.515625 13.875 5.515625 27.296875 
Q 5.515625 40.765625 12.171875 48.375 
Q 18.84375 56 30.609375 56 
z
" id="DejaVuSans-6f"/>
     </defs>
     <g transform="translate(208.267031 335.860562)scale(0.1 -0.1)">
      <use xlink:href="#DejaVuSans-47"/>
      <use x="77.490234" xlink:href="#DejaVuSans-65"/>
      <use x="139.013672" xlink:href="#DejaVuSans-6e"/>
      <use x="202.392578" xlink:href="#DejaVuSans-65"/>
      <use x="263.916016" xlink:href="#DejaVuSans-72"/>
      <use x="305.029297" xlink:href="#DejaVuSans-61"/>
      <use x="366.308594" xlink:href="#DejaVuSans-74"/>
      <use x="405.517578" xlink:href="#DejaVuSans-69"/>
      <use x="433.300781" xlink:href="#DejaVuSans-6f"/>
      <use x="494.482422" xlink:href="#DejaVuSans-6e"/>
     </g>
    </g>
   </g>
   <g id="matplotlib.axis_2">
    <g id="ytick_1">
     <g id="line2d_7">
      <defs>
       <path d="M 0 0 
L -3.5 0 
" id="m48cc3ba813" style="stroke:#000000;stroke-width:0.8;"/>
      </defs>
      <g>
       <use style="stroke:#000000;stroke-width:0.8;" x="57.6" xlink:href="#m48cc3ba813" y="307.584"/>
      </g>
     </g>
     <g id="text_8">
      <!-- 0.0 -->
      <defs>
       <path d="M 10.6875 12.40625 
L 21 12.40625 
L 21 0 
L 10.6875 0 
z
" id="DejaVuSans-2e"/>
      </defs>
      <g transform="translate(34.696875 311.383219)scale(0.1 -0.1)">
       <use xlink:href="#DejaVuSans-30"/>
       <use x="63.623047" xlink:href="#DejaVuSans-2e"/>
       <use x="95.410156" xlink:href="#DejaVuSans-30"/>
      </g>
     </g>
    </g>
    <g id="ytick_2">
     <g id="line2d_8">
      <g>
       <use style="stroke:#000000;stroke-width:0.8;" x="57.6" xlink:href="#m48cc3ba813" y="254.3616"/>
      </g>
     </g>
     <g id="text_9">
      <!-- 0.2 -->
      <g transform="translate(34.696875 258.160819)scale(0.1 -0.1)">
       <use xlink:href="#DejaVuSans-30"/>
       <use x="63.623047" xlink:href="#DejaVuSans-2e"/>
       <use x="95.410156" xlink:href="#DejaVuSans-32"/>
      </g>
     </g>
    </g>
    <g id="ytick_3">
     <g id="line2d_9">
      <g>
       <use style="stroke:#000000;stroke-width:0.8;" x="57.6" xlink:href="#m48cc3ba813" y="201.1392"/>
      </g>
     </g>
     <g id="text_10">
      <!-- 0.4 -->
      <g transform="translate(34.696875 204.938419)scale(0.1 -0.1)">
       <use xlink:href="#DejaVuSans-30"/>
       <use x="63.623047" xlink:href="#DejaVuSans-2e"/>
       <use x="95.410156" xlink:href="#DejaVuSans-34"/>
      </g>
     </g>
    </g>
    <g id="ytick_4">
     <g id="line2d_10">
      <g>
       <use style="stroke:#000000;stroke-width:0.8;" x="57.6" xlink:href="#m48cc3ba813" y="147.9168"/>
      </g>
     </g>
     <g id="text_11">
      <!-- 0.6 -->
      <g transform="translate(34.696875 151.716019)scale(0.1 -0.1)">
       <use xlink:href="#DejaVuSans-30"/>
       <use x="63.623047" xlink:href="#DejaVuSans-2e"/>
       <use x="95.410156" xlink:href="#DejaVuSans-36"/>
      </g>
     </g>
    </g>
    <g id="ytick_5">
     <g id="line2d_11">
      <g>
       <use style="stroke:#000000;stroke-width:0.8;" x="57.6" xlink:href="#m48cc3ba813" y="94.6944"/>
      </g>
     </g>
     <g id="text_12">
      <!-- 0.8 -->
      <g transform="translate(34.696875 98.493619)scale(0.1 -0.1)">
       <use xlink:href="#DejaVuSans-30"/>
       <use x="63.623047" xlink:href="#DejaVuSans-2e"/>
       <use x="95.410156" xlink:href="#DejaVuSans-38"/>
      </g>
     </g>
    </g>
    <g id="ytick_6">
     <g id="line2d_12">
      <g>
       <use style="stroke:#000000;stroke-width:0.8;" x="57.6" xlink:href="#m48cc3ba813" y="41.472"/>
      </g>
     </g>
     <g id="text_13">
      <!-- 1.0 -->
      <g transform="translate(34.696875 45.271219)scale(0.1 -0.1)">
       <use xlink:href="#DejaVuSans-31"/>
       <use x="63.623047" xlink:href="#DejaVuSans-2e"/>
       <use x="95.410156" xlink:href="#DejaVuSans-30"/>
      </g>
     </g>
    </g>
    <g id="text_14">
     <!-- $p$ -->
     <defs>
      <path d="M 49.609375 33.6875 
Q 49.609375 40.875 46.484375 44.671875 
Q 43.359375 48.484375 37.5 48.484375 
Q 33.5 48.484375 29.859375 46.4375 
Q 26.21875 44.390625 23.390625 40.484375 
Q 20.609375 36.625 18.9375 31.15625 
Q 17.28125 25.6875 17.28125 20.3125 
Q 17.28125 13.484375 20.40625 9.796875 
Q 23.53125 6.109375 29.296875 6.109375 
Q 33.546875 6.109375 37.1875 8.109375 
Q 40.828125 10.109375 43.40625 13.921875 
Q 46.1875 17.921875 47.890625 23.34375 
Q 49.609375 28.765625 49.609375 33.6875 
z
M 21.78125 46.390625 
Q 25.390625 51.125 30.296875 53.5625 
Q 35.203125 56 41.21875 56 
Q 49.609375 56 54.25 50.5 
Q 58.890625 45.015625 58.890625 35.109375 
Q 58.890625 27 56 19.65625 
Q 53.125 12.3125 47.703125 6.5 
Q 44.09375 2.640625 39.546875 0.609375 
Q 35.015625 -1.421875 29.984375 -1.421875 
Q 24.171875 -1.421875 20.21875 1 
Q 16.265625 3.421875 14.3125 8.203125 
L 8.6875 -20.796875 
L -0.296875 -20.796875 
L 14.40625 54.6875 
L 23.390625 54.6875 
z
" id="DejaVuSans-Oblique-70"/>
     </defs>
     <g transform="translate(28.596875 177.728)rotate(-90)scale(0.1 -0.1)">
      <use xlink:href="#DejaVuSans-Oblique-70"/>
     </g>
    </g>
   </g>
   <g id="line2d_13">
    <path clip-path="url(#pb640be7ebf)" d="M 73.832727 294.2784 
L 74.157382 294.012288 
L 74.482036 293.213952 
L 75.456 287.093376 
L 75.780655 286.161984 
L 76.105309 282.96864 
L 76.429964 283.766976 
L 76.754618 284.166144 
L 77.079273 283.234752 
L 77.403927 280.174464 
L 77.728582 279.64224 
L 78.053236 278.178624 
L 78.702545 272.98944 
L 79.351855 270.32832 
L 79.676509 271.924992 
L 80.001164 268.199424 
L 80.325818 267.534144 
L 80.650473 261.945792 
L 80.975127 259.949952 
L 81.299782 261.546624 
L 81.624436 259.151616 
L 81.949091 257.954112 
L 82.273745 257.554944 
L 82.5984 256.889664 
L 82.923055 254.494656 
L 83.572364 246.37824 
L 83.897018 240.124608 
L 84.546327 233.07264 
L 84.870982 228.548736 
L 85.195636 226.685952 
L 85.844945 216.839808 
L 86.1696 214.710912 
L 86.494255 209.12256 
L 86.818909 205.79616 
L 87.792873 184.906368 
L 88.117527 183.309696 
L 88.442182 180.249408 
L 88.766836 180.51552 
L 89.416145 170.935488 
L 89.7408 169.604928 
L 90.065455 165.21408 
L 90.390109 162.819072 
L 90.714764 157.896 
L 91.039418 159.625728 
L 91.364073 159.22656 
L 91.688727 154.303488 
L 92.013382 152.972928 
L 92.338036 149.779584 
L 92.662691 148.449024 
L 93.312 131.151744 
L 93.636655 128.224512 
L 94.285964 133.413696 
L 94.610618 130.486464 
L 95.259927 123.434496 
L 95.584582 121.039488 
L 95.909236 120.773376 
L 96.558545 114.519744 
L 96.8832 114.253632 
L 97.207855 113.32224 
L 97.532509 111.725568 
L 97.857164 112.65696 
L 98.181818 106.66944 
L 98.506473 106.802496 
L 98.831127 106.403328 
L 99.155782 111.858624 
L 99.480436 108.266112 
L 99.805091 108.133056 
L 100.129745 103.476096 
L 100.4544 103.209984 
L 100.779055 102.01248 
L 101.103709 96.557184 
L 101.428364 96.291072 
L 101.753018 97.089408 
L 102.077673 96.956352 
L 102.402327 98.286912 
L 102.726982 96.02496 
L 103.051636 94.827456 
L 103.376291 91.101888 
L 103.700945 91.101888 
L 104.0256 91.368 
L 104.350255 90.436608 
L 104.674909 90.03744 
L 104.999564 90.170496 
L 105.324218 91.501056 
L 105.648873 91.101888 
L 105.973527 88.972992 
L 106.298182 85.114368 
L 106.622836 84.182976 
L 106.947491 89.37216 
L 107.272145 87.908544 
L 107.5968 85.779648 
L 107.921455 84.848256 
L 108.246109 85.779648 
L 108.570764 85.114368 
L 109.220073 81.3888 
L 109.544727 80.324352 
L 109.869382 80.191296 
L 110.194036 77.530176 
L 110.518691 79.126848 
L 110.843345 76.997952 
L 111.168 79.659072 
L 111.492655 80.590464 
L 111.817309 77.530176 
L 112.141964 76.598784 
L 112.466618 78.328512 
L 112.791273 76.864896 
L 113.115927 82.453248 
L 113.440582 82.453248 
L 113.765236 81.921024 
L 114.089891 78.461568 
L 114.414545 77.264064 
L 114.7392 79.792128 
L 115.063855 79.659072 
L 115.713164 77.39712 
L 116.362473 78.72768 
L 116.687127 78.461568 
L 117.011782 74.07072 
L 117.336436 72.607104 
L 117.985745 65.688192 
L 118.635055 67.817088 
L 118.959709 68.216256 
L 119.609018 67.41792 
L 119.933673 63.559296 
L 120.258327 62.361792 
L 120.582982 59.833728 
L 120.907636 59.035392 
L 121.232291 60.898176 
L 121.556945 59.567616 
L 121.8816 57.571776 
L 122.530909 58.237056 
L 122.855564 57.837888 
L 123.180218 59.301504 
L 123.504873 57.970944 
L 123.829527 58.237056 
L 124.154182 57.571776 
L 124.478836 54.7776 
L 125.128145 52.515648 
L 125.4528 53.047872 
L 125.777455 52.249536 
L 126.102109 52.11648 
L 126.426764 50.918976 
L 126.751418 50.386752 
L 127.076073 50.386752 
L 127.400727 50.78592 
L 127.725382 52.249536 
L 128.374691 50.253696 
L 128.699345 51.850368 
L 129.024 51.983424 
L 129.348655 48.390912 
L 129.673309 48.523968 
L 130.322618 48.1248 
L 130.647273 49.721472 
L 130.971927 50.253696 
L 131.296582 51.052032 
L 131.621236 52.78176 
L 131.945891 52.78176 
L 132.270545 52.249536 
L 132.5952 52.515648 
L 132.919855 51.717312 
L 133.244509 51.318144 
L 133.569164 50.253696 
L 133.893818 49.721472 
L 134.218473 50.12064 
L 134.543127 48.79008 
L 134.867782 48.79008 
L 135.192436 48.923136 
L 135.517091 48.1248 
L 135.841745 48.257856 
L 136.1664 47.725632 
L 136.491055 47.858688 
L 136.815709 47.725632 
L 137.140364 47.45952 
L 137.465018 47.991744 
L 137.789673 47.991744 
L 138.114327 48.257856 
L 138.438982 47.725632 
L 138.763636 47.592576 
L 139.088291 46.927296 
L 139.412945 46.79424 
L 139.7376 46.79424 
L 140.386909 46.262016 
L 140.711564 45.596736 
L 141.036218 44.13312 
L 141.036218 44.13312 
" style="fill:none;stroke:#1f77b4;stroke-linecap:square;stroke-width:1.5;"/>
   </g>
   <g id="line2d_14">
    <path clip-path="url(#pb640be7ebf)" d="M 73.832727 294.2784 
L 74.482036 292.082976 
L 75.131345 288.490464 
L 75.456 287.426016 
L 75.780655 284.96448 
L 76.105309 284.831424 
L 76.754618 283.035168 
L 77.403927 277.114176 
L 77.728582 276.581952 
L 78.053236 275.184864 
L 78.377891 273.055968 
L 78.702545 267.134976 
L 79.0272 266.33664 
L 79.676509 262.810656 
L 80.001164 262.478016 
L 80.650473 255.69216 
L 80.975127 254.228544 
L 81.624436 250.303392 
L 82.273745 250.303392 
L 82.5984 249.105888 
L 82.923055 249.638112 
L 83.247709 249.505056 
L 83.572364 248.174496 
L 83.897018 243.783648 
L 84.221673 237.06432 
L 84.546327 235.268064 
L 84.870982 229.214016 
L 85.195636 229.613184 
L 85.520291 230.478048 
L 85.844945 226.0872 
L 86.1696 224.424 
L 86.494255 220.43232 
L 86.818909 222.361632 
L 87.143564 222.893856 
L 87.468218 222.494688 
L 87.792873 220.831488 
L 89.091491 212.382432 
L 89.416145 211.650624 
L 89.7408 208.723392 
L 90.065455 208.390752 
L 90.390109 209.322144 
L 90.714764 209.255616 
L 91.364073 205.663104 
L 91.688727 203.80032 
L 92.013382 203.334624 
L 92.338036 205.663104 
L 93.636655 196.748352 
L 94.285964 186.50304 
L 94.610618 185.105952 
L 94.935273 185.039424 
L 95.259927 187.101792 
L 95.584582 187.966656 
L 95.909236 184.041504 
L 96.233891 182.910528 
L 96.558545 179.251488 
L 96.8832 182.644416 
L 97.207855 179.18496 
L 97.532509 179.251488 
L 98.181818 181.51344 
L 98.506473 180.648576 
L 98.831127 180.781632 
L 99.155782 179.584128 
L 100.129745 174.261888 
L 100.4544 174.594528 
L 100.779055 172.997856 
L 101.103709 172.8648 
L 101.428364 171.068544 
L 101.753018 173.064384 
L 102.077673 173.729664 
L 102.402327 174.794112 
L 102.726982 174.594528 
L 103.051636 177.52176 
L 103.376291 176.52384 
L 103.700945 177.322176 
L 104.0256 177.122592 
L 104.350255 176.457312 
L 104.674909 177.18912 
L 104.999564 173.663136 
L 105.324218 174.927168 
L 105.648873 175.392864 
L 105.973527 172.798272 
L 106.298182 174.261888 
L 106.622836 177.787872 
L 107.272145 175.792032 
L 107.5968 175.792032 
L 108.246109 180.84816 
L 108.570764 181.979136 
L 108.895418 181.380384 
L 109.220073 179.051904 
L 109.544727 178.51968 
L 109.869382 179.916768 
L 110.518691 172.997856 
L 110.843345 169.072704 
L 111.168 168.074784 
L 111.492655 168.074784 
L 111.817309 167.143392 
L 112.141964 164.947968 
L 112.466618 163.88352 
L 112.791273 165.480192 
L 113.115927 161.355456 
L 113.440582 164.21616 
L 113.765236 164.016576 
L 114.089891 162.22032 
L 114.7392 155.23488 
L 115.063855 156.498912 
L 115.388509 153.90432 
L 115.713164 149.713056 
L 116.037818 150.045696 
L 116.362473 150.91056 
L 117.011782 146.985408 
L 117.336436 146.719296 
L 117.661091 147.184992 
L 118.3104 144.523872 
L 118.635055 145.189152 
L 119.284364 144.191232 
L 120.582982 134.345088 
L 120.907636 134.078976 
L 121.232291 134.744256 
L 121.556945 133.480224 
L 121.8816 133.214112 
L 122.206255 129.887712 
L 122.530909 128.157984 
L 122.855564 128.95632 
L 123.504873 130.020768 
L 123.829527 129.555072 
L 124.154182 130.020768 
L 124.478836 130.686048 
L 124.803491 131.085216 
L 125.128145 127.492704 
L 125.4528 125.363808 
L 125.777455 127.027008 
L 126.102109 128.024928 
L 126.426764 127.692288 
L 126.751418 127.692288 
L 127.076073 126.62784 
L 127.400727 126.561312 
L 127.725382 126.893952 
L 128.050036 124.898112 
L 128.374691 126.893952 
L 128.699345 128.024928 
L 129.024 127.825344 
L 129.348655 129.422016 
L 129.997964 128.157984 
L 130.322618 127.692288 
L 130.647273 128.424096 
L 130.971927 126.2952 
L 131.296582 125.363808 
L 131.621236 126.095616 
L 131.945891 127.692288 
L 132.270545 128.424096 
L 132.5952 125.496864 
L 132.919855 123.700608 
L 133.244509 125.230752 
L 133.569164 126.029088 
L 134.218473 126.561312 
L 134.543127 126.561312 
L 134.867782 128.690208 
L 135.192436 127.825344 
L 135.517091 128.823264 
L 135.841745 125.829504 
L 136.1664 126.2952 
L 136.491055 126.162144 
L 136.815709 128.490624 
L 137.140364 127.692288 
L 137.465018 124.099776 
L 137.789673 122.9688 
L 138.114327 122.63616 
L 138.438982 125.62992 
L 138.763636 123.833664 
L 139.088291 125.896032 
L 139.412945 126.2952 
L 139.7376 125.96256 
L 140.062255 124.099776 
L 140.386909 123.833664 
L 140.711564 121.3056 
L 141.036218 120.97296 
L 141.360873 114.98544 
L 142.010182 117.580032 
L 142.334836 117.513504 
L 142.659491 114.386688 
L 142.984145 113.920992 
L 143.3088 112.923072 
L 143.633455 113.255712 
L 143.958109 115.584192 
L 144.282764 116.316 
L 144.607418 119.110176 
L 144.932073 120.64032 
L 145.256727 118.178784 
L 145.581382 117.912672 
L 145.906036 116.382528 
L 146.230691 117.114336 
L 146.555345 112.723488 
L 146.88 116.781696 
L 147.204655 115.31808 
L 147.529309 119.509344 
L 147.853964 118.378368 
L 148.178618 118.178784 
L 148.503273 116.715168 
L 148.827927 120.507264 
L 149.152582 119.708928 
L 149.477236 120.839904 
L 149.801891 119.841984 
L 150.126545 117.180864 
L 150.4512 112.257792 
L 150.775855 112.191264 
L 151.100509 111.792096 
L 151.425164 111.858624 
L 151.749818 112.856544 
L 152.074473 112.390848 
L 152.399127 115.850304 
L 152.723782 116.64864 
L 153.048436 117.846144 
L 153.697745 115.850304 
L 154.0224 116.049888 
L 154.347055 118.378368 
L 154.996364 119.30976 
L 155.321018 117.31392 
L 155.645673 113.721408 
L 155.970327 114.98544 
L 156.294982 114.386688 
L 156.619636 114.785856 
L 156.944291 112.65696 
L 157.5936 116.182944 
L 157.918255 116.182944 
L 158.242909 115.185024 
L 158.567564 116.515584 
L 158.892218 114.453216 
L 159.541527 116.582112 
L 159.866182 117.047808 
L 160.190836 116.515584 
L 160.515491 118.577952 
L 160.840145 116.515584 
L 161.1648 118.245312 
L 161.489455 117.9792 
L 161.814109 117.180864 
L 162.138764 116.848224 
L 162.463418 116.715168 
L 162.788073 117.580032 
L 163.112727 116.515584 
L 163.437382 117.64656 
L 164.086691 115.783776 
L 164.411345 117.31392 
L 164.736 119.841984 
L 165.385309 120.839904 
L 165.709964 121.904352 
L 166.359273 125.563392 
L 166.683927 127.758816 
L 167.008582 126.2952 
L 167.333236 131.151744 
L 167.657891 132.61536 
L 167.982545 130.419936 
L 168.3072 126.827424 
L 168.631855 128.091456 
L 168.956509 130.752576 
L 169.281164 130.552992 
L 169.605818 129.6216 
L 169.930473 130.087296 
L 170.255127 131.817024 
L 170.579782 131.61744 
L 170.904436 130.220352 
L 171.229091 131.218272 
L 171.553745 128.756736 
L 171.8784 128.95632 
L 172.203055 130.752576 
L 172.527709 129.355488 
L 172.852364 130.486464 
L 173.177018 130.486464 
L 173.501673 126.827424 
L 173.826327 128.95632 
L 174.150982 125.031168 
L 174.800291 121.3056 
L 175.124945 121.571712 
L 175.774255 116.316 
L 176.098909 117.513504 
L 176.423564 119.97504 
L 176.748218 119.243232 
L 177.072873 116.116416 
L 177.722182 117.180864 
L 178.046836 119.775456 
L 178.371491 118.045728 
L 178.696145 117.446976 
L 179.0208 117.446976 
L 179.345455 115.584192 
L 179.670109 114.98544 
L 179.994764 120.507264 
L 180.319418 119.176704 
L 180.644073 118.577952 
L 180.968727 118.31184 
L 181.293382 115.251552 
L 181.618036 116.316 
L 181.942691 113.32224 
L 182.267345 113.65488 
L 182.592 114.253632 
L 183.241309 119.043648 
L 183.565964 121.039488 
L 183.890618 121.239072 
L 184.215273 121.837824 
L 184.539927 121.505184 
L 184.864582 124.898112 
L 185.189236 125.896032 
L 185.513891 125.363808 
L 185.838545 125.829504 
L 186.1632 128.490624 
L 186.487855 128.024928 
L 186.812509 127.027008 
L 187.137164 127.891872 
L 187.461818 127.825344 
L 187.786473 129.821184 
L 188.111127 130.153824 
L 188.435782 128.490624 
L 188.760436 128.157984 
L 189.085091 128.95632 
L 189.409745 127.825344 
L 189.7344 129.355488 
L 190.059055 130.28688 
L 190.383709 130.153824 
L 190.708364 132.482304 
L 191.033018 131.085216 
L 191.357673 132.149664 
L 191.682327 136.008288 
L 192.006982 137.738016 
L 192.331636 135.476064 
L 192.656291 135.742176 
L 192.980945 136.673568 
L 193.3056 137.072736 
L 193.630255 134.677728 
L 193.954909 135.742176 
L 194.279564 136.407456 
L 194.604218 136.340928 
L 194.928873 134.078976 
L 195.253527 133.679808 
L 195.578182 133.746336 
L 195.902836 134.677728 
L 196.227491 134.345088 
L 196.552145 134.810784 
L 196.8768 135.010368 
L 197.201455 134.27856 
L 197.526109 136.340928 
L 198.175418 129.022848 
L 198.500073 130.686048 
L 198.824727 128.756736 
L 199.149382 124.632 
L 199.474036 123.900192 
L 200.123345 124.033248 
L 200.448 122.63616 
L 200.772655 122.9688 
L 201.097309 126.162144 
L 201.421964 126.893952 
L 201.746618 121.771296 
L 202.071273 127.027008 
L 202.395927 126.162144 
L 202.720582 125.762976 
L 203.369891 128.490624 
L 203.694545 131.817024 
L 204.0192 131.351328 
L 204.343855 131.817024 
L 204.668509 133.546752 
L 204.993164 133.61328 
L 205.317818 130.95216 
L 205.642473 131.085216 
L 205.967127 127.359648 
L 206.291782 125.829504 
L 206.616436 125.696448 
L 206.941091 125.097696 
L 207.265745 123.501024 
L 207.5904 124.232832 
L 207.915055 121.904352 
L 208.239709 120.64032 
L 208.564364 118.378368 
L 208.889018 114.918912 
L 209.213673 115.451136 
L 209.538327 114.785856 
L 209.862982 113.65488 
L 210.187636 113.920992 
L 210.512291 109.130976 
L 210.836945 107.733888 
L 211.486255 103.076928 
L 211.810909 104.939712 
L 212.460218 98.952192 
L 212.784873 99.35136 
L 213.109527 98.752608 
L 213.434182 98.619552 
L 213.758836 98.68608 
L 214.083491 101.879424 
L 214.7328 105.538464 
L 215.057455 104.34096 
L 215.382109 104.207904 
L 215.706764 100.881504 
L 216.031418 101.879424 
L 216.356073 100.748448 
L 216.680727 101.945952 
L 217.005382 101.879424 
L 217.330036 103.409568 
L 217.654691 102.943872 
L 218.304 106.070688 
L 218.953309 104.407488 
L 219.277964 103.875264 
L 219.602618 104.274432 
L 219.927273 104.939712 
L 220.251927 105.871104 
L 220.576582 106.203744 
L 220.901236 103.0104 
L 221.225891 106.66944 
L 221.550545 105.072768 
L 221.8752 107.933472 
L 222.199855 105.205824 
L 222.524509 103.941792 
L 222.849164 105.604992 
L 223.173818 104.474016 
L 223.498473 105.272352 
L 223.823127 102.943872 
L 224.147782 103.209984 
L 225.121745 97.35552 
L 225.771055 95.492736 
L 226.095709 95.825376 
L 226.420364 95.293152 
L 226.745018 90.968832 
L 227.069673 91.966752 
L 227.394327 91.434528 
L 227.718982 91.833696 
L 228.043636 89.970912 
L 228.368291 91.168416 
L 228.692945 89.904384 
L 229.0176 90.03744 
L 229.666909 88.507296 
L 229.991564 90.303552 
L 230.316218 87.309792 
L 230.640873 87.176736 
L 230.965527 86.844096 
L 231.290182 88.70688 
L 231.614836 88.241184 
L 231.939491 84.316032 
L 232.5888 86.311872 
L 233.238109 87.37632 
L 233.562764 88.507296 
L 233.887418 88.241184 
L 234.212073 88.773408 
L 234.536727 89.771328 
L 234.861382 87.243264 
L 235.186036 86.71104 
L 235.510691 83.71728 
L 235.835345 84.04992 
L 236.16 84.582144 
L 236.484655 86.245344 
L 236.809309 85.580064 
L 237.133964 85.646592 
L 237.458618 87.110208 
L 237.783273 86.311872 
L 238.107927 88.307712 
L 238.432582 87.842016 
L 238.757236 87.842016 
L 239.081891 86.511456 
L 239.406545 86.977152 
L 239.7312 87.642432 
L 240.055855 86.910624 
L 240.380509 84.04992 
L 240.705164 85.180896 
L 241.029818 86.777568 
L 241.354473 85.912704 
L 241.679127 88.440768 
L 242.328436 88.972992 
L 242.653091 89.571744 
L 242.977745 90.503136 
L 243.951709 84.449088 
L 244.276364 86.112288 
L 244.601018 85.447008 
L 244.925673 86.777568 
L 245.250327 86.910624 
L 245.574982 87.70896 
L 245.899636 90.03744 
L 246.224291 91.03536 
L 246.548945 89.7048 
L 246.8736 89.771328 
L 247.198255 86.644512 
L 247.522909 87.575904 
L 247.847564 86.644512 
L 248.172218 84.848256 
L 248.496873 86.977152 
L 248.821527 86.112288 
L 249.470836 88.0416 
L 249.795491 85.912704 
L 250.120145 85.646592 
L 250.4448 86.04576 
L 250.769455 86.71104 
L 251.418764 86.644512 
L 251.743418 87.775488 
L 252.068073 87.243264 
L 252.392727 87.110208 
L 252.717382 87.842016 
L 253.366691 86.112288 
L 253.691345 85.313952 
L 254.016 84.981312 
L 254.340655 84.04992 
L 254.665309 85.114368 
L 254.989964 88.0416 
L 255.314618 86.311872 
L 255.639273 86.178816 
L 255.963927 86.511456 
L 256.288582 87.575904 
L 256.613236 87.842016 
L 256.937891 91.101888 
L 257.262545 90.902304 
L 257.5872 90.503136 
L 257.911855 91.234944 
L 258.236509 93.430368 
L 258.561164 94.827456 
L 258.885818 97.555104 
L 259.210473 96.889824 
L 259.535127 97.155936 
L 259.859782 96.889824 
L 260.184436 94.494816 
L 260.509091 94.893984 
L 260.833745 96.224544 
L 261.1584 92.632032 
L 261.807709 98.619552 
L 262.132364 96.756768 
L 262.457018 98.35344 
L 262.781673 98.819136 
L 263.106327 100.34928 
L 263.430982 100.68192 
L 263.755636 102.810816 
L 264.404945 101.879424 
L 264.7296 102.544704 
L 265.054255 100.415808 
L 265.378909 101.67984 
L 265.703564 101.413728 
L 266.028218 100.149696 
L 266.352873 100.216224 
L 266.677527 97.887744 
L 267.002182 97.155936 
L 267.326836 99.617472 
L 267.651491 96.02496 
L 268.3008 97.68816 
L 268.950109 98.752608 
L 269.274764 101.67984 
L 269.599418 99.950112 
L 269.924073 102.01248 
L 270.248727 100.01664 
L 270.573382 100.615392 
L 270.898036 99.151776 
L 271.222691 100.68192 
L 271.547345 101.613312 
L 271.872 101.280672 
L 272.196655 104.474016 
L 272.521309 104.873184 
L 272.845964 102.01248 
L 273.170618 102.212064 
L 273.495273 105.871104 
L 273.819927 103.409568 
L 274.144582 106.270272 
L 274.469236 105.471936 
L 274.793891 105.471936 
L 275.118545 104.274432 
L 275.4432 105.405408 
L 275.767855 107.068608 
L 276.417164 106.270272 
L 276.741818 106.802496 
L 277.066473 108.731808 
L 277.391127 107.66736 
L 278.040436 107.866944 
L 278.365091 109.729728 
L 278.689745 107.933472 
L 279.0144 111.126816 
L 279.339055 112.390848 
L 279.663709 112.457376 
L 279.988364 115.118496 
L 280.313018 113.854464 
L 280.637673 115.65072 
L 280.962327 112.32432 
L 281.286982 113.388768 
L 281.611636 112.9896 
L 281.936291 114.719328 
L 282.260945 114.586272 
L 282.910255 111.65904 
L 283.234909 111.725568 
L 283.559564 112.723488 
L 284.208873 116.98128 
L 284.533527 117.9792 
L 284.858182 116.249472 
L 285.182836 116.249472 
L 285.507491 119.841984 
L 285.832145 120.706848 
L 286.1568 119.575872 
L 286.481455 122.835744 
L 286.806109 120.97296 
L 287.455418 116.715168 
L 287.780073 117.779616 
L 288.104727 120.241152 
L 288.754036 112.32432 
L 289.078691 113.787936 
L 289.403345 116.64864 
L 289.728 116.914752 
L 290.052655 116.449056 
L 290.377309 114.120576 
L 290.701964 112.723488 
L 291.026618 114.054048 
L 291.351273 118.245312 
L 291.675927 116.781696 
L 292.000582 121.239072 
L 292.325236 122.63616 
L 292.649891 124.831584 
L 292.974545 123.567552 
L 293.2992 120.773376 
L 293.623855 121.571712 
L 293.948509 121.172544 
L 294.273164 117.446976 
L 294.922473 123.367968 
L 295.247127 123.234912 
L 295.571782 121.904352 
L 295.896436 122.436576 
L 296.221091 123.367968 
L 296.8704 127.891872 
L 297.195055 126.494784 
L 297.844364 127.226592 
L 299.142982 117.713088 
L 299.467636 117.912672 
L 299.792291 121.372128 
L 300.116945 121.505184 
L 301.090909 115.65072 
L 301.415564 117.846144 
L 301.740218 116.64864 
L 302.064873 117.846144 
L 302.389527 119.6424 
L 302.714182 119.575872 
L 303.038836 120.30768 
L 303.363491 118.577952 
L 303.688145 122.037408 
L 304.0128 119.775456 
L 304.337455 119.110176 
L 304.662109 122.370048 
L 304.986764 121.438656 
L 305.311418 122.30352 
L 305.636073 121.571712 
L 305.960727 122.170464 
L 306.285382 121.172544 
L 306.610036 124.96464 
L 306.934691 122.769216 
L 307.259345 123.567552 
L 307.584 126.760896 
L 307.908655 126.228672 
L 308.233309 124.96464 
L 308.557964 121.837824 
L 308.882618 124.29936 
L 309.207273 124.432416 
L 310.181236 118.777536 
L 310.830545 118.577952 
L 311.1552 119.376288 
L 311.479855 117.247392 
L 311.804509 114.187104 
L 312.129164 115.850304 
L 312.453818 115.185024 
L 312.778473 116.249472 
L 313.427782 111.592512 
L 313.752436 108.931392 
L 314.077091 110.794176 
L 314.401745 114.054048 
L 314.7264 112.32432 
L 315.051055 114.187104 
L 315.375709 113.65488 
L 315.700364 114.586272 
L 316.025018 118.444896 
L 316.349673 117.580032 
L 316.674327 118.045728 
L 316.998982 118.777536 
L 317.323636 117.513504 
L 317.648291 119.243232 
L 317.972945 116.848224 
L 318.2976 117.114336 
L 318.622255 115.916832 
L 318.946909 113.721408 
L 319.271564 113.98752 
L 319.596218 114.785856 
L 319.920873 113.388768 
L 320.570182 116.449056 
L 320.894836 113.588352 
L 321.219491 112.257792 
L 321.544145 112.191264 
L 321.8688 112.9896 
L 322.193455 112.523904 
L 322.518109 115.451136 
L 322.842764 116.382528 
L 323.167418 114.918912 
L 323.492073 116.582112 
L 323.816727 116.98128 
L 324.141382 111.858624 
L 324.466036 110.99376 
L 324.790691 113.787936 
L 325.115345 112.65696 
L 325.44 116.449056 
L 325.764655 116.049888 
L 326.089309 114.519744 
L 326.413964 114.187104 
L 326.738618 115.384608 
L 327.063273 117.247392 
L 327.387927 115.717248 
L 327.712582 115.850304 
L 328.037236 116.182944 
L 328.361891 115.850304 
L 328.686545 114.253632 
L 329.0112 114.253632 
L 329.660509 113.854464 
L 330.309818 110.794176 
L 330.634473 112.390848 
L 330.959127 111.858624 
L 331.283782 113.455296 
L 331.608436 113.056128 
L 331.933091 109.796256 
L 332.257745 108.931392 
L 332.5824 112.523904 
L 332.907055 109.862784 
L 333.231709 111.592512 
L 333.556364 111.193344 
L 333.881018 109.463616 
L 334.205673 109.530144 
L 334.530327 108.066528 
L 334.854982 104.806656 
L 335.179636 105.604992 
L 335.504291 105.33888 
L 335.828945 106.203744 
L 336.1536 106.137216 
L 336.478255 106.802496 
L 336.802909 106.935552 
L 337.127564 109.264032 
L 337.776873 106.00416 
L 338.101527 107.401248 
L 338.750836 100.948032 
L 339.075491 100.083168 
L 339.400145 100.216224 
L 339.7248 98.087328 
L 340.374109 102.810816 
L 340.698764 101.280672 
L 341.023418 100.615392 
L 341.348073 101.081088 
L 341.672727 99.950112 
L 341.997382 97.02288 
L 342.646691 94.02912 
L 342.971345 91.03536 
L 343.296 91.234944 
L 343.620655 91.70064 
L 343.945309 93.430368 
L 344.269964 89.771328 
L 344.919273 95.093568 
L 345.243927 95.492736 
L 345.568582 97.68816 
L 345.893236 98.087328 
L 346.217891 96.424128 
L 346.8672 92.099808 
L 347.191855 93.36384 
L 347.841164 92.232864 
L 348.165818 92.299392 
L 348.490473 91.234944 
L 348.815127 90.569664 
L 349.139782 90.968832 
L 349.464436 91.833696 
L 349.789091 93.829536 
L 350.113745 94.02912 
L 350.763055 98.752608 
L 351.412364 96.823296 
L 351.737018 97.887744 
L 352.061673 99.750528 
L 352.386327 100.548864 
L 352.710982 100.548864 
L 353.035636 102.278592 
L 353.360291 101.01456 
L 353.684945 102.411648 
L 354.0096 100.814976 
L 354.334255 104.207904 
L 354.658909 104.540544 
L 354.983564 105.072768 
L 355.308218 108 
L 355.632873 107.33472 
L 355.957527 110.395008 
L 356.282182 111.592512 
L 356.606836 112.257792 
L 356.931491 116.914752 
L 357.256145 117.380448 
L 357.5808 116.64864 
L 357.905455 118.844064 
L 358.230109 114.054048 
L 358.554764 114.32016 
L 358.879418 110.461536 
L 359.204073 110.794176 
L 359.528727 109.463616 
L 359.853382 113.787936 
L 360.178036 113.920992 
L 360.502691 111.525984 
L 360.827345 111.725568 
L 361.152 110.395008 
L 362.125964 108.66528 
L 362.450618 108.399168 
L 363.099927 111.392928 
L 363.424582 110.66112 
L 363.749236 111.925152 
L 364.073891 110.66112 
L 364.398545 110.927232 
L 364.7232 113.32224 
L 365.047855 113.32224 
L 365.372509 111.525984 
L 365.697164 114.32016 
L 366.021818 115.916832 
L 366.346473 115.118496 
L 366.671127 114.719328 
L 366.995782 111.060288 
L 367.320436 109.197504 
L 367.969745 107.33472 
L 368.2944 107.33472 
L 368.619055 107.201664 
L 368.943709 104.806656 
L 369.268364 106.00416 
L 369.593018 105.072768 
L 369.917673 106.802496 
L 370.242327 106.66944 
L 370.566982 106.802496 
L 370.891636 107.66736 
L 371.216291 106.869024 
L 371.540945 105.738048 
L 371.8656 106.935552 
L 372.190255 107.66736 
L 372.514909 110.128896 
L 372.839564 108.931392 
L 373.164218 104.34096 
L 373.488873 105.405408 
L 373.813527 104.806656 
L 374.138182 105.67152 
L 374.462836 103.941792 
L 374.787491 99.417888 
L 375.112145 96.623712 
L 375.4368 95.958432 
L 375.761455 97.954272 
L 376.086109 97.35552 
L 376.410764 98.153856 
L 377.060073 100.748448 
L 377.384727 98.553024 
L 377.709382 99.151776 
L 378.358691 95.426208 
L 378.683345 96.02496 
L 379.008 97.222464 
L 379.332655 96.69024 
L 379.657309 97.222464 
L 379.981964 98.087328 
L 380.306618 98.0208 
L 380.631273 98.619552 
L 381.280582 101.147616 
L 381.605236 101.413728 
L 381.929891 102.744288 
L 382.254545 99.950112 
L 382.5792 101.613312 
L 382.903855 100.814976 
L 383.228509 101.613312 
L 383.553164 101.613312 
L 383.877818 103.276512 
L 384.202473 100.68192 
L 384.527127 103.076928 
L 384.851782 101.879424 
L 385.501091 96.69024 
L 385.825745 96.823296 
L 386.1504 96.291072 
L 386.475055 91.567584 
L 386.799709 88.773408 
L 387.124364 89.904384 
L 387.449018 91.634112 
L 387.773673 91.767168 
L 388.098327 90.636192 
L 388.422982 88.440768 
L 389.072291 85.979232 
L 389.396945 87.243264 
L 389.7216 87.176736 
L 390.046255 84.981312 
L 390.370909 86.444928 
L 390.695564 88.839936 
L 391.020218 86.245344 
L 391.344873 86.577984 
L 391.669527 83.783808 
L 391.994182 82.985472 
L 392.318836 82.785888 
L 392.643491 82.253664 
L 393.2928 82.320192 
L 393.617455 81.72144 
L 393.942109 82.05408 
L 394.266764 82.852416 
L 394.591418 81.787968 
L 395.240727 83.850336 
L 395.565382 81.322272 
L 395.890036 81.189216 
L 396.214691 78.594624 
L 396.539345 81.787968 
L 396.864 81.654912 
L 397.188655 84.04992 
L 397.513309 84.981312 
L 397.837964 83.38464 
L 398.162618 83.185056 
L 398.487273 83.71728 
L 398.487273 83.71728 
" style="fill:none;stroke:#ff7f0e;stroke-linecap:square;stroke-width:1.5;"/>
   </g>
   <g id="line2d_15">
    <path clip-path="url(#pb640be7ebf)" d="M 73.832727 294.2784 
L 74.157382 294.322752 
L 74.482036 293.213952 
L 74.806691 292.814784 
L 75.131345 290.153664 
L 75.456 289.532736 
L 75.780655 288.202176 
L 76.105309 287.581248 
L 76.429964 285.762816 
L 76.754618 286.694208 
L 77.079273 286.339392 
L 77.403927 284.166144 
L 77.728582 283.41216 
L 78.053236 283.589568 
L 78.377891 283.63392 
L 78.702545 281.105856 
L 79.0272 280.263168 
L 79.351855 279.775296 
L 79.676509 277.380288 
L 80.001164 276.848064 
L 80.975127 268.820352 
L 81.299782 268.022016 
L 81.624436 268.909056 
L 81.949091 269.130816 
L 82.273745 267.534144 
L 82.5984 263.808576 
L 82.923055 262.300608 
L 83.247709 262.167552 
L 84.221673 252.321408 
L 84.870982 249.571584 
L 85.520291 243.71712 
L 86.1696 238.217472 
L 86.494255 238.61664 
L 86.818909 238.17312 
L 87.792873 230.367168 
L 88.117527 229.74624 
L 88.442182 230.278464 
L 88.766836 228.992256 
L 89.091491 225.887616 
L 89.416145 227.040768 
L 89.7408 226.41984 
L 90.065455 221.141952 
L 90.390109 220.121856 
L 90.714764 218.259072 
L 91.039418 217.10592 
L 91.364073 216.529344 
L 91.688727 215.33184 
L 92.013382 215.420544 
L 92.662691 212.715072 
L 92.987345 214.089984 
L 93.312 213.868224 
L 93.636655 210.807936 
L 93.961309 209.433024 
L 94.285964 213.646464 
L 94.610618 213.55776 
L 94.935273 210.852288 
L 95.259927 213.336 
L 95.909236 209.654784 
L 96.233891 210.719232 
L 96.558545 205.219584 
L 97.207855 208.01376 
L 97.857164 207.792 
L 98.181818 205.219584 
L 98.506473 205.751808 
L 98.831127 205.219584 
L 99.155782 205.263936 
L 99.480436 204.598656 
L 99.805091 205.884864 
L 100.4544 202.425408 
L 100.779055 202.46976 
L 101.103709 201.36096 
L 101.428364 201.449664 
L 101.753018 199.58688 
L 102.402327 198.788544 
L 102.726982 196.970112 
L 103.051636 194.442048 
L 103.376291 193.865472 
L 103.700945 196.171776 
L 104.0256 197.546688 
L 104.674909 198.965952 
L 105.324218 197.59104 
L 105.648873 198.389376 
L 105.973527 197.191872 
L 106.298182 195.506496 
L 106.622836 199.498176 
L 106.947491 197.457984 
L 107.272145 199.631232 
L 107.921455 196.127424 
L 108.246109 195.018624 
L 108.570764 196.127424 
L 108.895418 197.857152 
L 109.220073 198.965952 
L 109.544727 197.280576 
L 109.869382 197.413632 
L 110.194036 195.994368 
L 110.518691 199.852992 
L 110.843345 201.760128 
L 111.168 200.340864 
L 111.492655 197.014464 
L 111.817309 195.950016 
L 112.141964 195.329088 
L 112.466618 197.014464 
L 112.791273 196.704 
L 113.440582 193.776768 
L 113.765236 191.470464 
L 114.089891 192.224448 
L 114.414545 191.026944 
L 114.7392 190.450368 
L 115.063855 190.184256 
L 115.388509 189.031104 
L 115.713164 189.740736 
L 116.037818 187.434432 
L 116.362473 188.188416 
L 116.687127 186.458688 
L 117.336436 185.305536 
L 117.661091 184.019328 
L 117.985745 185.039424 
L 118.3104 183.62016 
L 118.635055 182.95488 
L 118.959709 178.07616 
L 119.609018 173.4192 
L 119.933673 172.08864 
L 120.258327 174.128832 
L 120.907636 174.838464 
L 121.232291 175.41504 
L 121.556945 172.709568 
L 121.8816 172.53216 
L 122.206255 171.778176 
L 122.530909 170.137152 
L 122.855564 171.689472 
L 123.180218 169.737984 
L 123.504873 169.915392 
L 123.829527 169.782336 
L 124.154182 169.516224 
L 124.478836 167.032512 
L 125.128145 164.903616 
L 125.4528 163.306944 
L 125.777455 163.262592 
L 126.102109 165.613248 
L 126.426764 164.149632 
L 126.751418 164.32704 
L 127.076073 163.88352 
L 127.400727 163.173888 
L 128.050036 160.291008 
L 128.374691 159.803136 
L 128.699345 161.133696 
L 129.024 161.488512 
L 129.348655 160.734528 
L 129.673309 160.690176 
L 130.322618 159.137856 
L 130.971927 162.863424 
L 131.296582 163.573056 
L 131.621236 163.040832 
L 131.945891 163.040832 
L 132.270545 166.7664 
L 132.5952 167.076864 
L 132.919855 166.411584 
L 133.244509 167.830848 
L 133.569164 168.54048 
L 133.893818 167.742144 
L 134.218473 168.76224 
L 134.543127 171.2016 
L 134.867782 171.911232 
L 135.192436 170.802432 
L 135.517091 172.487808 
L 135.841745 170.53632 
L 136.1664 170.270208 
L 136.491055 169.161408 
L 136.815709 170.225856 
L 137.140364 168.09696 
L 137.465018 169.250112 
L 137.789673 168.806592 
L 138.114327 170.891136 
L 138.438982 171.379008 
L 138.763636 170.625024 
L 139.088291 171.024192 
L 139.412945 172.576512 
L 139.7376 169.560576 
L 140.062255 169.028352 
L 140.386909 169.338816 
L 140.711564 169.072704 
L 141.036218 165.480192 
L 141.360873 164.947968 
L 142.010182 173.951424 
L 142.659491 177.144768 
L 142.984145 180.072 
L 143.3088 179.096256 
L 143.633455 179.18496 
L 143.958109 181.136448 
L 144.282764 180.160704 
L 144.932073 175.814208 
L 145.256727 175.592448 
L 145.581382 174.350592 
L 145.906036 176.435136 
L 146.230691 176.612544 
L 146.555345 174.350592 
L 146.88 173.596608 
L 147.204655 175.814208 
L 147.529309 177.056064 
L 147.853964 176.435136 
L 148.178618 176.96736 
L 148.503273 172.08864 
L 148.827927 173.374848 
L 149.152582 173.241792 
L 149.477236 172.842624 
L 149.801891 175.326336 
L 150.4512 172.931328 
L 150.775855 172.75392 
L 151.100509 171.2016 
L 151.425164 170.625024 
L 151.749818 168.230016 
L 152.074473 167.520384 
L 152.399127 169.516224 
L 153.048436 168.407424 
L 153.373091 171.334656 
L 153.697745 170.0928 
L 154.0224 170.669376 
L 154.347055 169.604928 
L 154.671709 169.383168 
L 154.996364 166.411584 
L 155.321018 164.99232 
L 155.645673 165.081024 
L 156.294982 159.0048 
L 156.619636 160.823232 
L 156.944291 160.157952 
L 157.268945 158.250816 
L 157.5936 157.896 
L 157.918255 156.210624 
L 158.242909 155.6784 
L 158.567564 154.392192 
L 158.892218 155.767104 
L 159.216873 156.34368 
L 159.541527 154.037376 
L 159.866182 154.081728 
L 160.190836 152.041536 
L 160.515491 152.839872 
L 160.840145 154.214784 
L 161.1648 153.194688 
L 161.489455 154.12608 
L 161.814109 152.972928 
L 162.138764 154.880064 
L 162.463418 153.593856 
L 162.788073 151.819776 
L 163.437382 149.735232 
L 163.762036 149.336064 
L 164.086691 148.182912 
L 164.411345 145.654848 
L 164.736 146.719296 
L 165.060655 148.227264 
L 165.385309 146.808 
L 165.709964 146.630592 
L 166.034618 145.344384 
L 166.359273 145.03392 
L 166.683927 146.852352 
L 167.008582 146.497536 
L 167.333236 146.453184 
L 167.657891 148.182912 
L 167.982545 150.57792 
L 168.3072 150.400512 
L 168.631855 150.666624 
L 169.281164 150.045696 
L 169.930473 148.13856 
L 170.255127 148.848192 
L 170.904436 144.279936 
L 171.229091 146.36448 
L 171.553745 144.191232 
L 171.8784 145.300032 
L 172.203055 144.81216 
L 172.527709 144.767808 
L 173.177018 148.094208 
L 173.826327 152.485056 
L 174.150982 149.46912 
L 174.475636 152.13024 
L 174.800291 153.01728 
L 175.124945 155.23488 
L 175.4496 151.775424 
L 175.774255 155.23488 
L 176.098909 156.033216 
L 176.423564 157.984704 
L 176.748218 157.408128 
L 177.072873 157.629888 
L 177.397527 155.589696 
L 177.722182 154.968768 
L 178.046836 153.327744 
L 178.371491 153.815616 
L 178.696145 155.279232 
L 179.0208 155.279232 
L 179.670109 157.097664 
L 179.994764 156.742848 
L 180.644073 158.428224 
L 180.968727 156.166272 
L 181.293382 156.476736 
L 181.618036 157.097664 
L 181.942691 153.23904 
L 182.267345 151.598016 
L 182.592 149.203008 
L 182.916655 149.291712 
L 183.241309 151.198848 
L 183.890618 153.505152 
L 184.215273 153.815616 
L 184.864582 156.210624 
L 185.189236 156.388032 
L 185.513891 157.319424 
L 185.838545 159.758784 
L 186.1632 160.512768 
L 186.487855 156.34368 
L 186.812509 155.279232 
L 187.137164 153.771264 
L 187.461818 155.23488 
L 187.786473 153.372096 
L 188.111127 152.440704 
L 188.435782 155.412288 
L 189.085091 157.762944 
L 189.409745 160.024896 
L 189.7344 157.807296 
L 190.059055 157.718592 
L 190.383709 155.811456 
L 190.708364 154.968768 
L 191.033018 153.01728 
L 191.357673 153.061632 
L 191.682327 152.884224 
L 192.006982 152.839872 
L 192.331636 151.775424 
L 192.656291 152.263296 
L 192.980945 156.077568 
L 193.3056 157.00896 
L 193.630255 155.190528 
L 193.954909 155.23488 
L 194.279564 155.057472 
L 194.604218 152.839872 
L 195.253527 152.884224 
L 195.578182 150.977088 
L 195.902836 150.844032 
L 196.227491 150.977088 
L 196.552145 150.888384 
L 196.8768 148.848192 
L 197.201455 149.24736 
L 197.526109 149.823936 
L 197.850764 150.090048 
L 198.500073 148.005504 
L 199.149382 149.823936 
L 199.474036 149.0256 
L 199.798691 149.069952 
L 200.123345 151.90848 
L 200.448 147.517632 
L 200.772655 147.162816 
L 201.097309 148.715136 
L 201.421964 148.759488 
L 201.746618 149.0256 
L 202.071273 148.58208 
L 202.395927 149.203008 
L 202.720582 149.069952 
L 203.045236 149.91264 
L 203.369891 149.46912 
L 203.694545 149.868288 
L 204.0192 146.763648 
L 204.343855 147.162816 
L 205.317818 145.433088 
L 205.967127 139.356864 
L 206.291782 139.401216 
L 206.616436 135.232128 
L 207.265745 129.998592 
L 207.5904 129.998592 
L 207.915055 129.466368 
L 208.239709 126.62784 
L 208.564364 125.430336 
L 208.889018 125.07552 
L 209.213673 122.680512 
L 209.538327 124.85376 
L 209.862982 124.055424 
L 210.187636 124.765056 
L 210.512291 123.478848 
L 210.836945 122.902272 
L 211.1616 123.96672 
L 211.810909 123.07968 
L 212.135564 121.571712 
L 212.460218 122.059584 
L 212.784873 121.793472 
L 213.109527 124.543296 
L 213.434182 125.696448 
L 213.758836 126.228672 
L 214.083491 124.942464 
L 214.408145 122.813568 
L 214.7328 126.139968 
L 215.057455 127.692288 
L 215.382109 125.119872 
L 215.706764 124.365888 
L 216.031418 122.325696 
L 216.356073 122.059584 
L 216.680727 122.4144 
L 217.005382 120.86208 
L 217.654691 125.873856 
L 217.979345 124.011072 
L 218.304 126.672192 
L 218.628655 127.027008 
L 219.277964 124.765056 
L 219.602618 125.652096 
L 219.927273 124.85376 
L 220.576582 127.204416 
L 220.901236 125.696448 
L 221.550545 120.64032 
L 221.8752 120.817728 
L 222.199855 121.349952 
L 222.524509 124.365888 
L 222.849164 124.011072 
L 223.173818 122.015232 
L 223.498473 121.216896 
L 223.823127 121.039488 
L 224.147782 122.990976 
L 224.472436 128.534976 
L 224.797091 127.204416 
L 225.121745 130.309056 
L 225.4464 130.264704 
L 225.771055 129.821184 
L 226.095709 132.792768 
L 227.069673 131.861376 
L 227.394327 130.264704 
L 228.043636 130.309056 
L 228.692945 135.49824 
L 229.0176 135.27648 
L 229.342255 138.691584 
L 229.666909 137.627136 
L 229.991564 137.094912 
L 230.316218 134.433792 
L 230.640873 133.591104 
L 230.965527 133.458048 
L 231.290182 134.788608 
L 231.614836 135.409536 
L 232.264145 139.223808 
L 232.5888 138.735936 
L 232.913455 135.986112 
L 233.238109 139.223808 
L 233.887418 141.70752 
L 234.212073 141.397056 
L 234.861382 138.868992 
L 235.186036 138.780288 
L 235.510691 138.425472 
L 235.835345 139.844736 
L 236.16 139.93344 
L 236.484655 143.03808 
L 236.809309 144.5904 
L 237.133964 143.92512 
L 237.458618 143.792064 
L 237.783273 145.610496 
L 238.107927 146.58624 
L 238.432582 147.162816 
L 239.081891 143.880768 
L 239.406545 144.5904 
L 239.7312 146.231424 
L 240.055855 146.719296 
L 240.380509 146.009664 
L 240.705164 146.896704 
L 241.029818 145.300032 
L 241.354473 142.905024 
L 242.003782 145.832256 
L 242.328436 144.900864 
L 242.653091 145.521792 
L 242.977745 144.945216 
L 243.3024 142.328448 
L 243.627055 142.683264 
L 243.951709 142.59456 
L 244.276364 142.284096 
L 244.601018 140.199552 
L 244.925673 139.977792 
L 245.250327 137.582784 
L 245.574982 136.961856 
L 245.899636 137.405376 
L 246.224291 138.82464 
L 246.548945 142.993728 
L 246.8736 143.304192 
L 247.198255 143.792064 
L 247.522909 142.106688 
L 248.172218 144.989568 
L 248.496873 144.191232 
L 248.821527 144.191232 
L 249.146182 144.058176 
L 249.470836 144.36864 
L 249.795491 148.493376 
L 251.094109 157.363776 
L 251.418764 157.940352 
L 251.743418 157.186368 
L 252.068073 157.851648 
L 252.392727 157.896 
L 252.717382 159.44832 
L 253.042036 159.492672 
L 253.691345 154.480896 
L 254.016 157.363776 
L 254.340655 154.34784 
L 254.665309 154.12608 
L 254.989964 153.4608 
L 255.314618 150.888384 
L 255.639273 152.839872 
L 255.963927 151.952832 
L 256.288582 153.4608 
L 256.613236 154.436544 
L 256.937891 152.79552 
L 257.262545 154.702656 
L 257.5872 153.01728 
L 258.236509 148.493376 
L 258.561164 147.25152 
L 258.885818 144.279936 
L 259.210473 142.638912 
L 259.535127 140.421312 
L 259.859782 137.183616 
L 260.184436 138.425472 
L 260.509091 138.026304 
L 260.833745 136.38528 
L 261.1584 132.216192 
L 261.483055 130.885632 
L 261.807709 128.668032 
L 262.132364 127.869696 
L 262.457018 132.216192 
L 262.781673 130.708224 
L 263.106327 131.772672 
L 263.430982 133.768512 
L 263.755636 134.699904 
L 264.404945 134.522496 
L 264.7296 133.191936 
L 265.054255 133.103232 
L 265.378909 134.123328 
L 265.703564 131.683968 
L 266.028218 131.151744 
L 266.352873 129.200256 
L 266.677527 128.668032 
L 267.002182 128.801088 
L 267.326836 130.131648 
L 267.651491 128.84544 
L 267.976145 129.28896 
L 268.3008 130.663872 
L 268.625455 130.131648 
L 268.950109 131.151744 
L 269.599418 138.115008 
L 269.924073 136.651392 
L 270.248727 134.38944 
L 270.898036 136.961856 
L 271.222691 136.8288 
L 271.547345 137.183616 
L 272.196655 135.187776 
L 272.521309 136.873152 
L 272.845964 135.631296 
L 273.170618 135.675648 
L 273.495273 136.207872 
L 273.819927 134.16768 
L 274.144582 133.635456 
L 274.469236 131.595264 
L 275.118545 132.748416 
L 275.4432 131.329152 
L 275.767855 132.482304 
L 276.092509 134.078976 
L 276.741818 130.84128 
L 277.066473 131.772672 
L 277.391127 132.216192 
L 277.715782 134.034624 
L 278.040436 131.373504 
L 278.365091 129.998592 
L 278.689745 132.349248 
L 279.0144 132.659712 
L 279.339055 132.571008 
L 279.663709 131.018688 
L 279.988364 132.659712 
L 280.313018 133.5024 
L 280.637673 131.994432 
L 280.962327 133.014528 
L 281.286982 131.861376 
L 281.611636 129.377664 
L 282.260945 126.716544 
L 282.5856 125.51904 
L 282.910255 123.5232 
L 283.234909 124.942464 
L 283.559564 123.168384 
L 283.884218 125.563392 
L 284.208873 126.095616 
L 284.533527 123.74496 
L 284.858182 125.430336 
L 285.182836 122.902272 
L 285.507491 123.789312 
L 285.832145 122.902272 
L 286.1568 122.547456 
L 286.481455 122.769216 
L 286.806109 121.97088 
L 287.130764 123.07968 
L 287.455418 121.571712 
L 287.780073 121.660416 
L 288.104727 122.813568 
L 288.429382 124.587648 
L 288.754036 125.07552 
L 289.403345 128.047104 
L 289.728 127.603584 
L 290.052655 125.873856 
L 290.377309 126.051264 
L 290.701964 125.29728 
L 291.026618 123.74496 
L 291.351273 124.676352 
L 291.675927 126.539136 
L 292.000582 126.273024 
L 292.325236 125.385984 
L 292.649891 126.539136 
L 292.974545 124.898112 
L 293.948509 124.543296 
L 294.273164 126.716544 
L 294.597818 125.96256 
L 294.922473 126.40608 
L 295.247127 127.07136 
L 295.571782 127.381824 
L 295.896436 130.042944 
L 296.221091 128.978496 
L 296.545745 126.494784 
L 296.8704 126.893952 
L 297.195055 126.760896 
L 297.519709 125.607744 
L 297.844364 122.236992 
L 298.169018 122.547456 
L 298.493673 123.789312 
L 298.818327 122.547456 
L 299.142982 124.543296 
L 299.467636 127.559232 
L 299.792291 126.139968 
L 300.116945 128.002752 
L 300.4416 128.801088 
L 300.766255 128.801088 
L 301.090909 126.18432 
L 301.415564 127.027008 
L 301.740218 126.539136 
L 302.064873 127.869696 
L 302.389527 125.918208 
L 302.714182 128.091456 
L 303.038836 128.62368 
L 303.363491 128.756736 
L 303.688145 128.668032 
L 304.0128 127.780992 
L 304.337455 127.603584 
L 304.662109 130.929984 
L 304.986764 130.264704 
L 305.311418 128.224512 
L 305.636073 130.796928 
L 305.960727 131.196096 
L 306.285382 130.708224 
L 306.610036 131.595264 
L 307.259345 135.143424 
L 307.584 135.010368 
L 307.908655 137.139264 
L 308.557964 135.986112 
L 308.882618 134.123328 
L 309.207273 133.191936 
L 309.531927 133.857216 
L 309.856582 131.772672 
L 310.181236 131.905728 
L 310.505891 131.373504 
L 310.830545 132.704064 
L 311.1552 133.28064 
L 311.479855 132.526656 
L 311.804509 134.256384 
L 312.129164 132.881472 
L 312.453818 135.72 
L 312.778473 136.784448 
L 313.103127 138.913344 
L 313.427782 138.558528 
L 315.375709 127.51488 
L 315.700364 126.583488 
L 316.025018 127.337472 
L 316.349673 128.801088 
L 316.674327 131.018688 
L 316.998982 131.240448 
L 317.323636 129.643776 
L 317.648291 129.377664 
L 317.972945 132.61536 
L 318.2976 131.417856 
L 318.622255 132.304896 
L 318.946909 130.353408 
L 319.271564 129.111552 
L 319.596218 129.688128 
L 319.920873 130.663872 
L 320.245527 130.442112 
L 320.570182 130.708224 
L 320.894836 131.462208 
L 321.219491 132.526656 
L 321.544145 132.437952 
L 321.8688 132.526656 
L 322.193455 135.099072 
L 322.842764 136.429632 
L 323.167418 139.889088 
L 323.492073 138.647232 
L 323.816727 138.15936 
L 324.141382 140.066496 
L 324.466036 140.066496 
L 324.790691 139.534272 
L 325.115345 140.110848 
L 325.44 141.530112 
L 325.764655 141.530112 
L 326.089309 139.534272 
L 326.413964 140.465664 
L 326.738618 140.37696 
L 327.387927 139.26816 
L 327.712582 140.1552 
L 328.037236 140.199552 
L 328.361891 139.622976 
L 328.686545 138.647232 
L 329.0112 138.15936 
L 329.660509 131.151744 
L 329.985164 131.462208 
L 330.309818 134.123328 
L 330.634473 134.921664 
L 330.959127 136.784448 
L 331.283782 137.361024 
L 331.608436 136.651392 
L 331.933091 139.534272 
L 332.257745 140.243904 
L 332.5824 137.316672 
L 332.907055 136.873152 
L 333.231709 137.05056 
L 333.556364 137.981952 
L 333.881018 138.115008 
L 334.205673 139.0464 
L 334.530327 140.997888 
L 334.854982 145.03392 
L 335.179636 146.941056 
L 335.504291 146.231424 
L 335.828945 147.25152 
L 336.1536 147.517632 
L 336.478255 147.517632 
L 336.802909 146.36448 
L 337.127564 145.92096 
L 337.452218 145.965312 
L 337.776873 144.324288 
L 338.101527 140.776128 
L 338.426182 139.977792 
L 338.750836 138.115008 
L 339.075491 138.425472 
L 339.7248 139.800384 
L 340.049455 137.804544 
L 340.374109 139.356864 
L 341.023418 135.586944 
L 341.348073 135.764352 
L 341.672727 133.990272 
L 341.997382 134.966016 
L 342.646691 131.107392 
L 342.971345 130.309056 
L 343.296 130.264704 
L 343.620655 130.087296 
L 343.945309 129.155904 
L 344.269964 126.317376 
L 344.594618 127.29312 
L 344.919273 130.929984 
L 345.243927 131.196096 
L 345.568582 129.51072 
L 345.893236 131.06304 
L 346.542545 130.752576 
L 347.191855 133.990272 
L 347.516509 133.5024 
L 347.841164 134.566848 
L 348.165818 134.478144 
L 348.490473 131.683968 
L 348.815127 130.663872 
L 349.139782 131.95008 
L 349.464436 132.704064 
L 349.789091 131.373504 
L 350.113745 132.437952 
L 350.4384 133.103232 
L 350.763055 132.260544 
L 351.087709 134.699904 
L 351.412364 134.566848 
L 351.737018 134.699904 
L 352.061673 135.764352 
L 352.386327 134.699904 
L 352.710982 136.030464 
L 353.035636 133.635456 
L 353.360291 133.369344 
L 353.684945 134.921664 
L 354.334255 136.16352 
L 354.658909 136.917504 
L 354.983564 135.143424 
L 355.308218 135.94176 
L 355.632873 134.877312 
L 356.282182 138.691584 
L 356.606836 134.212032 
L 356.931491 133.147584 
L 357.256145 131.240448 
L 357.5808 127.825344 
L 357.905455 131.683968 
L 358.230109 131.95008 
L 358.554764 131.772672 
L 358.879418 128.40192 
L 359.204073 129.51072 
L 359.528727 130.042944 
L 359.853382 129.155904 
L 360.178036 132.216192 
L 360.502691 131.639616 
L 360.827345 129.73248 
L 361.476655 122.236992 
L 361.801309 121.926528 
L 362.125964 122.503104 
L 362.450618 121.660416 
L 362.775273 118.245312 
L 363.099927 117.446976 
L 363.749236 119.398464 
L 364.073891 115.406784 
L 364.398545 118.245312 
L 364.7232 116.914752 
L 365.372509 116.116416 
L 366.346473 111.99168 
L 366.671127 109.818432 
L 367.320436 109.020096 
L 367.645091 107.290368 
L 367.969745 106.8912 
L 368.2944 103.609152 
L 368.619055 103.431744 
L 369.268364 107.201664 
L 369.593018 107.33472 
L 370.242327 109.153152 
L 370.566982 108.88704 
L 370.891636 110.040192 
L 371.540945 106.048512 
L 371.8656 105.427584 
L 372.190255 105.161472 
L 372.514909 103.032576 
L 372.839564 103.165632 
L 373.164218 104.407488 
L 373.488873 106.403328 
L 373.813527 105.7824 
L 374.138182 105.604992 
L 374.462836 105.7824 
L 375.112145 110.173248 
L 375.4368 110.306304 
L 375.761455 111.10464 
L 376.086109 109.153152 
L 376.410764 109.596672 
L 377.060073 111.370752 
L 377.384727 113.898816 
L 377.709382 114.741504 
L 378.034036 113.011776 
L 378.358691 113.410944 
L 378.683345 111.3264 
L 379.008 111.415104 
L 379.332655 112.21344 
L 379.657309 109.907136 
L 379.981964 109.907136 
L 380.955927 107.379072 
L 381.280582 106.44768 
L 381.929891 110.749824 
L 382.254545 111.015936 
L 382.5792 110.66112 
L 383.228509 117.31392 
L 383.553164 115.98336 
L 383.877818 115.672896 
L 384.202473 113.588352 
L 384.527127 113.76576 
L 384.851782 113.277888 
L 385.176436 114.076224 
L 385.825745 114.164928 
L 386.1504 115.406784 
L 386.475055 113.632704 
L 386.799709 113.455296 
L 387.124364 111.636864 
L 387.449018 113.854464 
L 387.773673 113.455296 
L 388.098327 110.66112 
L 388.747636 116.20512 
L 389.072291 116.604288 
L 389.396945 114.253632 
L 389.7216 113.810112 
L 390.046255 112.080384 
L 390.695564 113.32224 
L 391.020218 113.056128 
L 391.344873 113.943168 
L 391.669527 112.346496 
L 391.994182 110.084544 
L 392.318836 111.415104 
L 392.643491 113.277888 
L 392.968145 113.943168 
L 393.617455 112.967424 
L 393.942109 115.31808 
L 394.266764 116.604288 
L 394.591418 116.781696 
L 394.916073 117.713088 
L 395.240727 117.801792 
L 395.890036 120.684672 
L 396.214691 119.487168 
L 396.539345 117.180864 
L 396.864 116.692992 
L 397.188655 114.519744 
L 397.513309 115.894656 
L 397.837964 114.6528 
L 398.162618 115.09632 
L 398.487273 111.902976 
L 398.487273 111.902976 
" style="fill:none;stroke:#2ca02c;stroke-linecap:square;stroke-width:1.5;"/>
   </g>
   <g id="line2d_16">
    <path clip-path="url(#pb640be7ebf)" d="M 73.832727 294.2784 
L 74.157382 293.845968 
L 74.482036 292.149504 
L 74.806691 291.584016 
L 75.131345 291.484224 
L 75.456 291.650544 
L 75.780655 290.885472 
L 76.429964 287.45928 
L 77.079273 285.929136 
L 77.728582 284.398992 
L 78.053236 284.166144 
L 78.377891 282.669264 
L 79.0272 281.438496 
L 79.351855 279.941616 
L 80.001164 278.677584 
L 80.650473 276.947856 
L 80.975127 275.584032 
L 81.299782 275.683824 
L 82.273745 270.927072 
L 82.923055 269.16408 
L 83.247709 268.066368 
L 83.572364 267.534144 
L 84.221673 262.211904 
L 84.546327 262.6776 
L 85.195636 258.952032 
L 85.520291 258.453072 
L 86.1696 254.794032 
L 86.494255 254.927088 
L 86.818909 252.36576 
L 87.143564 251.234784 
L 87.468218 252.631872 
L 87.792873 252.232704 
L 88.117527 253.164096 
L 88.766836 251.567424 
L 89.091491 251.301312 
L 89.7408 245.214 
L 90.714764 242.353296 
L 91.039418 242.22024 
L 91.364073 241.754544 
L 91.688727 242.153712 
L 92.338036 240.024816 
L 92.662691 239.791968 
L 92.987345 239.193216 
L 93.312 239.093424 
L 93.636655 238.295088 
L 93.961309 235.56744 
L 94.285964 235.800288 
L 94.610618 236.299248 
L 95.259927 233.937504 
L 95.584582 231.675552 
L 95.909236 230.41152 
L 96.233891 226.519632 
L 96.558545 224.956224 
L 96.8832 224.424 
L 97.207855 225.721296 
L 97.532509 225.621504 
L 97.857164 226.186992 
L 98.181818 223.492608 
L 98.506473 223.392816 
L 98.831127 224.490528 
L 99.155782 224.457264 
L 99.480436 225.654768 
L 99.805091 225.08928 
L 100.129745 225.854352 
L 100.4544 225.688032 
L 100.779055 227.816928 
L 101.103709 227.983248 
L 101.428364 228.681792 
L 102.077673 228.981168 
L 102.402327 228.282624 
L 102.726982 229.014432 
L 103.051636 227.484288 
L 103.376291 228.615264 
L 103.700945 228.049776 
L 104.0256 228.116304 
L 104.350255 228.582 
L 104.674909 228.548736 
L 104.999564 229.646448 
L 105.324218 227.218176 
L 105.648873 227.018592 
L 105.973527 226.353312 
L 106.298182 226.120464 
L 106.622836 227.650608 
L 106.947491 227.41776 
L 107.272145 226.020672 
L 107.5968 225.288864 
L 107.921455 225.022752 
L 108.570764 221.9292 
L 108.895418 221.396976 
L 109.220073 225.022752 
L 109.544727 222.228576 
L 109.869382 220.698432 
L 110.194036 220.798224 
L 110.518691 220.365792 
L 110.843345 221.796144 
L 111.168 218.669328 
L 111.492655 220.132944 
L 111.817309 219.999888 
L 112.141964 218.369952 
L 112.466618 218.669328 
L 113.115927 214.4448 
L 113.440582 213.979104 
L 113.765236 214.478064 
L 114.089891 213.014448 
L 114.414545 212.848128 
L 115.063855 214.078896 
L 115.388509 215.143344 
L 115.713164 215.076816 
L 116.037818 215.475984 
L 116.362473 216.906336 
L 116.687127 219.035232 
L 117.336436 217.006128 
L 117.661091 212.149584 
L 117.985745 212.981184 
L 118.3104 213.247296 
L 118.635055 216.507168 
L 118.959709 215.2764 
L 119.284364 215.2764 
L 119.609018 214.644384 
L 119.933673 216.141264 
L 120.258327 215.043552 
L 120.582982 216.407376 
L 120.907636 216.374112 
L 121.232291 213.94584 
L 121.8816 212.216112 
L 122.206255 211.218192 
L 122.530909 210.985344 
L 122.855564 209.022768 
L 123.504873 202.602816 
L 124.154182 203.500944 
L 124.478836 204.166224 
L 124.803491 203.101776 
L 125.128145 202.46976 
L 125.4528 202.868928 
L 125.777455 202.004064 
L 126.102109 203.30136 
L 126.426764 201.30552 
L 126.751418 201.871008 
L 127.076073 199.97496 
L 127.400727 203.068512 
L 127.725382 200.773296 
L 128.050036 200.440656 
L 128.374691 201.704688 
L 128.699345 201.1392 
L 129.348655 198.411552 
L 129.673309 199.476 
L 129.997964 201.937536 
L 130.322618 201.63816 
L 130.647273 200.673504 
L 130.971927 201.438576 
L 131.296582 201.871008 
L 131.621236 201.937536 
L 131.945891 199.64232 
L 132.270545 198.611136 
L 132.5952 200.241072 
L 132.919855 200.340864 
L 133.244509 199.30968 
L 133.893818 202.536288 
L 134.218473 203.13504 
L 134.543127 204.13296 
L 135.192436 204.698448 
L 135.517091 203.767056 
L 136.1664 204.831504 
L 136.491055 204.864768 
L 136.815709 204.731712 
L 137.465018 201.538368 
L 137.789673 200.64024 
L 138.114327 201.006144 
L 138.438982 200.906352 
L 138.763636 199.010304 
L 139.088291 200.008224 
L 139.412945 201.405312 
L 139.7376 201.604896 
L 140.062255 199.575792 
L 140.386909 201.438576 
L 141.036218 198.81072 
L 141.360873 199.64232 
L 141.685527 199.542528 
L 142.010182 201.47184 
L 142.334836 199.708848 
L 142.659491 201.238992 
L 142.984145 199.875168 
L 143.633455 200.074752 
L 143.958109 201.105936 
L 144.282764 199.575792 
L 144.932073 198.078912 
L 145.256727 194.619456 
L 145.581382 193.32216 
L 146.230691 189.363744 
L 146.555345 189.4968 
L 146.88 189.862704 
L 147.204655 188.432352 
L 147.529309 189.66312 
L 147.853964 188.132976 
L 148.178618 188.598672 
L 148.503273 187.567488 
L 148.827927 187.50096 
L 149.152582 187.800336 
L 149.477236 189.230688 
L 149.801891 189.263952 
L 150.126545 191.758752 
L 150.4512 192.357504 
L 150.775855 191.925072 
L 151.425164 193.355424 
L 151.749818 195.750432 
L 152.074473 195.916752 
L 152.399127 193.754592 
L 152.723782 195.018624 
L 153.048436 192.922992 
L 153.373091 194.885568 
L 153.697745 195.98328 
L 154.347055 191.16 
L 154.671709 189.729648 
L 154.996364 189.363744 
L 155.321018 189.629856 
L 155.645673 190.49472 
L 155.970327 191.026944 
L 156.294982 192.623616 
L 156.619636 192.856464 
L 156.944291 192.290976 
L 157.268945 192.590352 
L 157.5936 193.288896 
L 157.918255 194.286816 
L 158.242909 192.889728 
L 158.567564 193.754592 
L 158.892218 194.286816 
L 159.216873 194.586192 
L 159.541527 193.48848 
L 159.866182 195.085152 
L 160.190836 195.550848 
L 160.515491 197.579952 
L 161.1648 197.014464 
L 161.489455 197.846064 
L 161.814109 199.675584 
L 162.138764 199.542528 
L 162.463418 198.278496 
L 162.788073 195.950016 
L 163.112727 197.080992 
L 163.437382 195.085152 
L 163.762036 194.419872 
L 164.086691 196.548768 
L 164.411345 196.415712 
L 164.736 195.318 
L 165.060655 197.8128 
L 166.034618 201.238992 
L 166.359273 201.47184 
L 166.683927 200.3076 
L 167.008582 200.008224 
L 167.333236 200.440656 
L 167.657891 199.775376 
L 167.982545 201.338784 
L 168.3072 197.846064 
L 168.631855 196.282656 
L 168.956509 193.355424 
L 169.281164 192.590352 
L 169.605818 193.787856 
L 169.930473 193.32216 
L 170.255127 194.353344 
L 170.579782 196.31592 
L 170.904436 196.681824 
L 171.229091 194.32008 
L 171.553745 192.789936 
L 171.8784 190.627776 
L 172.203055 190.694304 
L 172.527709 190.893888 
L 173.177018 189.66312 
L 173.501673 190.527984 
L 174.150982 193.854384 
L 174.475636 195.184944 
L 174.800291 195.550848 
L 175.4496 194.81904 
L 175.774255 196.1496 
L 176.098909 196.415712 
L 176.423564 195.517584 
L 177.072873 198.178704 
L 177.397527 198.012384 
L 177.722182 201.538368 
L 178.046836 201.538368 
L 178.371491 200.440656 
L 178.696145 201.47184 
L 179.345455 201.1392 
L 179.670109 201.1392 
L 179.994764 201.272256 
L 180.319418 201.904272 
L 180.644073 205.2972 
L 181.293382 201.771216 
L 181.618036 201.837744 
L 181.942691 202.170384 
L 182.267345 201.571632 
L 182.592 203.667264 
L 182.916655 202.30344 
L 183.241309 201.47184 
L 183.565964 202.835664 
L 183.890618 200.97288 
L 184.539927 201.072672 
L 184.864582 199.775376 
L 185.189236 201.372048 
L 185.513891 199.675584 
L 185.838545 199.609056 
L 186.1632 197.879328 
L 186.487855 197.746272 
L 186.812509 198.278496 
L 187.137164 198.345024 
L 187.786473 193.954176 
L 188.111127 195.184944 
L 188.435782 195.051888 
L 188.760436 193.588272 
L 189.085091 192.98952 
L 189.409745 191.9916 
L 189.7344 191.692224 
L 190.059055 191.792016 
L 190.383709 188.764992 
L 190.708364 188.798256 
L 191.033018 189.097632 
L 191.357673 187.8336 
L 191.682327 187.99992 
L 192.006982 189.130896 
L 192.331636 188.49888 
L 192.656291 191.16 
L 192.980945 190.960416 
L 193.3056 191.226528 
L 193.630255 192.756672 
L 193.954909 192.65688 
L 194.279564 191.392848 
L 194.604218 192.956256 
L 194.928873 192.390768 
L 195.253527 196.049808 
L 195.578182 195.417792 
L 195.902836 193.022784 
L 196.227491 193.688064 
L 196.552145 192.756672 
L 196.8768 192.457296 
L 197.201455 191.359584 
L 197.526109 191.82528 
L 197.850764 192.889728 
L 198.175418 192.623616 
L 198.824727 190.794096 
L 199.149382 190.960416 
L 199.474036 192.390768 
L 199.798691 193.15584 
L 200.123345 190.760832 
L 200.448 191.226528 
L 200.772655 189.66312 
L 201.097309 189.629856 
L 201.421964 190.195344 
L 201.746618 190.49472 
L 202.071273 194.552928 
L 202.395927 192.922992 
L 202.720582 194.386608 
L 203.045236 191.758752 
L 203.369891 190.195344 
L 203.694545 192.756672 
L 204.0192 190.627776 
L 204.343855 189.762912 
L 204.668509 191.359584 
L 205.317818 190.195344 
L 206.291782 184.374144 
L 206.616436 183.775392 
L 207.265745 185.105952 
L 207.5904 184.640256 
L 207.915055 183.01032 
L 208.564364 184.606992 
L 208.889018 184.806576 
L 209.538327 187.101792 
L 209.862982 184.773312 
L 210.187636 183.409488 
L 210.512291 184.34088 
L 210.836945 183.708864 
L 211.1616 181.51344 
L 211.486255 182.145456 
L 211.810909 181.646496 
L 212.135564 183.110112 
L 212.460218 180.083088 
L 212.784873 179.916768 
L 213.109527 179.151696 
L 213.434182 180.149616 
L 213.758836 177.821136 
L 214.083491 178.985376 
L 214.408145 178.952112 
L 214.7328 179.550864 
L 215.057455 180.881424 
L 215.382109 178.918848 
L 215.706764 179.451072 
L 216.031418 176.656896 
L 216.356073 178.486416 
L 216.680727 177.721344 
L 217.005382 179.417808 
L 217.330036 178.819056 
L 217.979345 176.157936 
L 218.304 175.69224 
L 218.628655 176.889744 
L 218.953309 176.889744 
L 219.277964 176.457312 
L 219.602618 176.457312 
L 219.927273 177.0228 
L 220.251927 176.889744 
L 220.576582 177.322176 
L 220.901236 179.816976 
L 221.225891 178.286832 
L 221.550545 180.482256 
L 221.8752 181.67976 
L 222.199855 180.781632 
L 222.524509 182.311776 
L 222.849164 180.981216 
L 223.173818 180.68184 
L 223.498473 183.708864 
L 223.823127 183.609072 
L 224.147782 183.941712 
L 224.472436 185.3388 
L 224.797091 183.6756 
L 225.121745 183.974976 
L 225.4464 183.908448 
L 225.771055 182.145456 
L 226.420364 181.081008 
L 226.745018 180.947952 
L 227.069673 183.376224 
L 227.394327 182.544624 
L 228.043636 184.906368 
L 228.368291 184.440672 
L 228.692945 185.438592 
L 229.0176 182.311776 
L 229.342255 183.609072 
L 229.666909 183.542544 
L 229.991564 184.17456 
L 230.316218 184.00824 
L 230.640873 183.309696 
L 230.965527 184.606992 
L 231.290182 185.3388 
L 231.939491 188.199504 
L 232.264145 187.99992 
L 232.5888 188.33256 
L 232.913455 187.101792 
L 233.238109 187.467696 
L 233.562764 186.602832 
L 233.887418 188.798256 
L 234.212073 188.16624 
L 234.536727 186.636096 
L 234.861382 186.103872 
L 235.186036 183.908448 
L 235.510691 186.270192 
L 235.835345 185.737968 
L 236.16 186.469776 
L 236.809309 189.363744 
L 237.133964 189.263952 
L 237.458618 188.83152 
L 237.783273 189.397008 
L 238.107927 190.394928 
L 238.432582 189.4968 
L 238.757236 188.99784 
L 239.081891 185.205744 
L 239.406545 185.072688 
L 239.7312 183.276432 
L 240.055855 180.216144 
L 240.380509 179.68392 
L 240.705164 178.885584 
L 241.029818 177.222384 
L 241.354473 178.02072 
L 241.679127 177.588288 
L 242.003782 179.883504 
L 242.328436 179.251488 
L 242.653091 179.883504 
L 242.977745 177.18912 
L 243.627055 176.52384 
L 244.276364 172.465632 
L 244.601018 171.86688 
L 244.925673 171.667296 
L 245.250327 170.004096 
L 245.574982 170.669376 
L 245.899636 170.70264 
L 246.224291 168.839856 
L 246.548945 167.974992 
L 246.8736 168.607008 
L 247.198255 167.176656 
L 247.522909 167.143392 
L 247.847564 167.476032 
L 248.172218 167.575824 
L 248.496873 165.446928 
L 248.821527 166.744224 
L 249.146182 164.5488 
L 249.470836 165.87936 
L 249.795491 166.54464 
L 250.4448 163.7172 
L 250.769455 160.424064 
L 251.094109 162.187056 
L 251.418764 163.251504 
L 251.743418 164.71512 
L 252.717382 164.083104 
L 253.366691 165.779568 
L 253.691345 167.509296 
L 254.016 166.943808 
L 254.340655 167.575824 
L 254.665309 167.675616 
L 254.989964 164.947968 
L 255.314618 164.04984 
L 255.639273 165.147552 
L 255.963927 165.446928 
L 256.288582 164.149632 
L 256.613236 164.482272 
L 256.937891 162.985392 
L 257.262545 162.652752 
L 257.5872 163.21824 
L 257.911855 163.451088 
L 258.561164 162.486432 
L 258.885818 160.424064 
L 259.535127 160.590384 
L 259.859782 161.954208 
L 260.184436 161.521776 
L 260.509091 160.72344 
L 260.833745 160.823232 
L 261.1584 158.39496 
L 261.483055 157.031136 
L 261.807709 157.297248 
L 262.132364 156.266064 
L 262.781673 161.488512 
L 263.106327 161.488512 
L 263.430982 161.355456 
L 263.755636 160.88976 
L 264.080291 162.353376 
L 264.404945 160.024896 
L 264.7296 161.38872 
L 265.378909 158.960448 
L 265.703564 158.661072 
L 266.028218 159.858576 
L 266.677527 157.862736 
L 267.002182 156.2328 
L 267.326836 157.164192 
L 267.651491 157.56336 
L 268.3008 160.523856 
L 268.625455 159.858576 
L 269.274764 161.322192 
L 269.599418 162.71928 
L 269.924073 161.05608 
L 270.248727 163.584144 
L 270.573382 161.954208 
L 270.898036 162.952128 
L 271.222691 162.586224 
L 271.547345 162.453168 
L 271.872 164.5488 
L 272.196655 164.848176 
L 272.521309 163.21824 
L 272.845964 165.04776 
L 273.170618 164.981232 
L 273.495273 164.449008 
L 273.819927 163.38456 
L 274.469236 167.675616 
L 274.793891 168.740064 
L 275.118545 166.744224 
L 275.4432 166.04568 
L 275.767855 168.440688 
L 276.092509 168.972912 
L 276.741818 172.598688 
L 277.391127 173.53008 
L 277.715782 173.86272 
L 278.040436 175.259808 
L 278.365091 173.829456 
L 278.689745 174.727584 
L 279.0144 174.993696 
L 279.339055 175.625712 
L 279.663709 175.592448 
L 279.988364 176.823216 
L 280.313018 179.01864 
L 280.637673 179.451072 
L 280.962327 182.112192 
L 281.286982 181.912608 
L 281.936291 181.147536 
L 282.260945 182.34504 
L 282.5856 182.478096 
L 282.910255 184.074768 
L 283.234909 184.573728 
L 283.559564 185.471856 
L 284.208873 182.378304 
L 284.533527 179.051904 
L 284.858182 180.814896 
L 285.182836 180.68184 
L 285.507491 180.814896 
L 285.832145 180.715104 
L 286.481455 185.571648 
L 286.806109 185.00616 
L 287.130764 188.232768 
L 287.455418 188.266032 
L 287.780073 189.230688 
L 288.104727 189.796176 
L 288.429382 187.8336 
L 288.754036 187.301376 
L 289.078691 184.17456 
L 289.403345 184.374144 
L 290.701964 188.931312 
L 291.026618 188.066448 
L 291.351273 185.139216 
L 291.675927 183.775392 
L 292.325236 185.17248 
L 292.974545 189.130896 
L 293.2992 188.698464 
L 293.623855 189.629856 
L 293.948509 188.731728 
L 294.273164 188.598672 
L 294.597818 191.16 
L 294.922473 190.228608 
L 295.247127 187.634016 
L 295.571782 188.598672 
L 295.896436 188.33256 
L 296.221091 191.359584 
L 296.545745 190.428192 
L 296.8704 191.925072 
L 297.195055 192.257712 
L 297.519709 191.82528 
L 297.844364 192.124656 
L 298.169018 191.525904 
L 298.493673 190.062288 
L 298.818327 190.261872 
L 299.142982 188.731728 
L 299.467636 190.893888 
L 299.792291 190.527984 
L 300.4416 188.99784 
L 300.766255 189.064368 
L 301.090909 188.432352 
L 301.740218 183.974976 
L 302.064873 182.710944 
L 302.389527 182.611152 
L 302.714182 181.812816 
L 303.038836 183.742128 
L 303.363491 184.972896 
L 303.688145 185.372064 
L 304.0128 184.706784 
L 304.337455 186.403248 
L 304.662109 185.904288 
L 304.986764 185.937552 
L 305.311418 185.105952 
L 305.636073 183.01032 
L 305.960727 182.411568 
L 306.285382 182.34504 
L 306.610036 183.575808 
L 306.934691 182.67768 
L 307.908655 177.18912 
L 308.233309 178.286832 
L 308.557964 176.557104 
L 308.882618 176.457312 
L 309.207273 175.592448 
L 309.531927 177.721344 
L 309.856582 178.419888 
L 310.181236 178.652736 
L 310.505891 179.717184 
L 310.830545 180.216144 
L 311.1552 177.954192 
L 311.479855 178.453152 
L 311.804509 180.083088 
L 312.129164 180.881424 
L 312.778473 179.617392 
L 313.103127 179.68392 
L 313.427782 180.083088 
L 313.752436 177.887664 
L 314.077091 177.52176 
L 314.401745 175.459392 
L 315.051055 177.555024 
L 315.375709 178.18704 
L 315.700364 176.424048 
L 316.025018 175.958352 
L 316.349673 175.891824 
L 316.674327 177.654816 
L 316.998982 177.388704 
L 317.648291 177.954192 
L 317.972945 177.455232 
L 318.2976 180.282672 
L 318.622255 180.947952 
L 318.946909 183.276432 
L 319.271564 183.84192 
L 319.596218 184.740048 
L 320.245527 188.066448 
L 321.219491 184.873104 
L 321.8688 190.16208 
L 322.193455 190.261872 
L 322.518109 191.026944 
L 322.842764 190.261872 
L 323.167418 190.627776 
L 323.492073 189.031104 
L 323.816727 188.964576 
L 324.141382 190.627776 
L 324.466036 193.288896 
L 324.790691 191.858544 
L 325.115345 191.65896 
L 325.44 189.097632 
L 325.764655 188.33256 
L 326.089309 186.270192 
L 326.413964 188.432352 
L 326.738618 188.299296 
L 327.063273 186.303456 
L 327.387927 185.638176 
L 327.712582 184.573728 
L 328.037236 184.207824 
L 328.361891 184.074768 
L 328.686545 185.139216 
L 329.0112 185.039424 
L 329.335855 184.274352 
L 329.660509 181.313856 
L 329.985164 180.51552 
L 330.309818 178.153776 
L 330.634473 177.488496 
L 330.959127 178.286832 
L 331.283782 177.887664 
L 331.608436 179.550864 
L 331.933091 177.155856 
L 332.257745 177.0228 
L 332.5824 175.426128 
L 332.907055 177.322176 
L 333.231709 177.288912 
L 333.556364 175.891824 
L 333.881018 176.557104 
L 334.205673 178.51968 
L 334.530327 176.956272 
L 334.854982 173.796192 
L 335.179636 174.461472 
L 335.504291 175.392864 
L 335.828945 175.226544 
L 336.1536 176.823216 
L 336.478255 175.69224 
L 336.802909 176.257728 
L 337.452218 174.993696 
L 337.776873 172.432368 
L 338.101527 171.002016 
L 338.426182 170.802432 
L 338.750836 171.567504 
L 339.075491 171.301392 
L 339.400145 170.835696 
L 339.7248 173.03112 
L 340.049455 174.295152 
L 340.374109 172.19952 
L 341.023418 175.426128 
L 341.348073 176.157936 
L 341.672727 175.426128 
L 341.997382 173.962512 
L 342.322036 177.089328 
L 342.646691 178.918848 
L 342.971345 177.18912 
L 343.296 178.985376 
L 343.620655 177.421968 
L 343.945309 176.656896 
L 344.269964 174.062304 
L 344.594618 173.6964 
L 344.919273 175.160016 
L 345.243927 175.3596 
L 345.568582 173.03112 
L 345.893236 174.794112 
L 346.217891 172.931328 
L 346.542545 173.463552 
L 346.8672 173.496816 
L 347.516509 169.37208 
L 347.841164 170.004096 
L 348.490473 168.307632 
L 348.815127 167.974992 
L 349.139782 166.810752 
L 349.464436 167.575824 
L 349.789091 167.0436 
L 350.113745 167.742144 
L 350.4384 166.844016 
L 350.763055 166.311792 
L 351.087709 166.411584 
L 352.386327 170.070624 
L 352.710982 170.270208 
L 353.035636 169.405344 
L 353.360291 168.906384 
L 353.684945 168.7068 
L 354.0096 167.575824 
L 354.334255 169.20576 
L 354.658909 168.54048 
L 355.308218 170.336736 
L 355.632873 172.132992 
L 355.957527 170.070624 
L 356.282182 169.239024 
L 356.606836 167.243184 
L 356.931491 169.804512 
L 357.5808 166.611168 
L 357.905455 166.178736 
L 358.230109 163.351296 
L 358.554764 162.985392 
L 358.879418 162.918864 
L 359.204073 161.821152 
L 359.528727 162.586224 
L 359.853382 162.353376 
L 360.178036 160.490592 
L 360.502691 160.3908 
L 360.827345 162.586224 
L 361.152 162.120528 
L 361.476655 164.648592 
L 361.801309 163.38456 
L 362.125964 161.288928 
L 362.450618 163.417824 
L 362.775273 163.417824 
L 363.099927 162.153792 
L 363.424582 162.353376 
L 363.749236 163.284768 
L 364.073891 164.71512 
L 364.398545 167.575824 
L 364.7232 165.945888 
L 365.047855 166.245264 
L 365.372509 165.3804 
L 365.697164 163.451088 
L 366.021818 163.650672 
L 366.671127 167.342976 
L 366.995782 168.20784 
L 367.320436 168.740064 
L 367.645091 168.972912 
L 367.969745 168.340896 
L 368.2944 171.36792 
L 368.619055 170.170416 
L 369.593018 172.266048 
L 369.917673 169.438608 
L 370.242327 168.573744 
L 370.566982 168.407424 
L 370.891636 166.844016 
L 371.216291 166.777488 
L 371.540945 164.981232 
L 371.8656 164.681856 
L 372.190255 163.683936 
L 372.514909 161.821152 
L 372.839564 160.690176 
L 373.164218 158.860656 
L 373.488873 158.794128 
L 373.813527 159.625728 
L 374.462836 159.093504 
L 374.787491 157.796208 
L 375.112145 160.424064 
L 375.4368 160.856496 
L 375.761455 163.950048 
L 376.086109 165.014496 
L 376.410764 164.116368 
L 376.735418 166.278528 
L 377.060073 166.112208 
L 377.384727 164.149632 
L 378.034036 167.076864 
L 378.358691 167.37624 
L 379.008 169.105968 
L 379.657309 172.8648 
L 379.981964 173.629872 
L 380.306618 173.164176 
L 380.631273 172.066464 
L 380.955927 172.8648 
L 381.280582 172.997856 
L 381.605236 170.602848 
L 381.929891 169.105968 
L 382.254545 171.068544 
L 382.5792 171.03528 
L 382.903855 170.403264 
L 383.228509 171.500976 
L 383.877818 172.432368 
L 384.202473 171.168336 
L 384.527127 170.37 
L 384.851782 169.272288 
L 385.176436 167.342976 
L 385.501091 167.70888 
L 385.825745 167.143392 
L 386.1504 167.176656 
L 386.475055 167.808672 
L 386.799709 165.846096 
L 387.124364 166.245264 
L 387.449018 165.646512 
L 387.773673 166.012416 
L 388.098327 167.37624 
L 388.422982 166.212 
L 388.747636 165.71304 
L 389.072291 167.70888 
L 389.396945 167.70888 
L 389.7216 167.509296 
L 390.370909 169.338816 
L 390.695564 168.673536 
L 391.020218 165.480192 
L 391.344873 166.112208 
L 391.669527 164.38248 
L 391.994182 163.617408 
L 392.318836 161.987472 
L 392.643491 163.318032 
L 392.968145 160.823232 
L 393.617455 164.04984 
L 393.942109 163.118448 
L 394.266764 162.918864 
L 394.916073 163.517616 
L 395.240727 162.8856 
L 395.565382 163.683936 
L 395.890036 162.8856 
L 396.214691 162.852336 
L 396.539345 163.085184 
L 396.864 164.515536 
L 397.188655 163.318032 
L 397.513309 163.950048 
L 397.837964 162.187056 
L 398.162618 162.652752 
L 398.487273 162.586224 
L 398.487273 162.586224 
" style="fill:none;stroke:#d62728;stroke-linecap:square;stroke-width:1.5;"/>
   </g>
   <g id="patch_3">
    <path d="M 57.6 307.584 
L 57.6 41.472 
" style="fill:none;stroke:#000000;stroke-linecap:square;stroke-linejoin:miter;stroke-width:0.8;"/>
   </g>
   <g id="patch_4">
    <path d="M 414.72 307.584 
L 414.72 41.472 
" style="fill:none;stroke:#000000;stroke-linecap:square;stroke-linejoin:miter;stroke-width:0.8;"/>
   </g>
   <g id="patch_5">
    <path d="M 57.6 307.584 
L 414.72 307.584 
" style="fill:none;stroke:#000000;stroke-linecap:square;stroke-linejoin:miter;stroke-width:0.8;"/>
   </g>
   <g id="patch_6">
    <path d="M 57.6 41.472 
L 414.72 41.472 
" style="fill:none;stroke:#000000;stroke-linecap:square;stroke-linejoin:miter;stroke-width:0.8;"/>
   </g>
   <g id="legend_1">
    <g id="line2d_17">
     <path d="M 353.22 248.969937 
L 373.22 248.969937 
" style="fill:none;stroke:#1f77b4;stroke-linecap:square;stroke-width:1.5;"/>
    </g>
    <g id="line2d_18"/>
    <g id="text_15">
     <!-- $k=2$ -->
     <defs>
      <path d="M 18.3125 75.984375 
L 27.296875 75.984375 
L 18.703125 31.6875 
L 49.515625 54.6875 
L 61.1875 54.6875 
L 26.8125 28.515625 
L 51.90625 0 
L 41.015625 0 
L 17.671875 26.703125 
L 12.5 0 
L 3.515625 0 
z
" id="DejaVuSans-Oblique-6b"/>
      <path d="M 10.59375 45.40625 
L 73.1875 45.40625 
L 73.1875 37.203125 
L 10.59375 37.203125 
z
M 10.59375 25.484375 
L 73.1875 25.484375 
L 73.1875 17.1875 
L 10.59375 17.1875 
z
" id="DejaVuSans-3d"/>
     </defs>
     <g transform="translate(381.22 252.469937)scale(0.1 -0.1)">
      <use transform="translate(0 0.015625)" xlink:href="#DejaVuSans-Oblique-6b"/>
      <use transform="translate(77.392578 0.015625)" xlink:href="#DejaVuSans-3d"/>
      <use transform="translate(180.664062 0.015625)" xlink:href="#DejaVuSans-32"/>
     </g>
    </g>
    <g id="line2d_19">
     <path d="M 353.22 263.648062 
L 373.22 263.648062 
" style="fill:none;stroke:#ff7f0e;stroke-linecap:square;stroke-width:1.5;"/>
    </g>
    <g id="line2d_20"/>
    <g id="text_16">
     <!-- $k=4$ -->
     <g transform="translate(381.22 267.148062)scale(0.1 -0.1)">
      <use transform="translate(0 0.015625)" xlink:href="#DejaVuSans-Oblique-6b"/>
      <use transform="translate(77.392578 0.015625)" xlink:href="#DejaVuSans-3d"/>
      <use transform="translate(180.664062 0.015625)" xlink:href="#DejaVuSans-34"/>
     </g>
    </g>
    <g id="line2d_21">
     <path d="M 353.22 278.326187 
L 373.22 278.326187 
" style="fill:none;stroke:#2ca02c;stroke-linecap:square;stroke-width:1.5;"/>
    </g>
    <g id="line2d_22"/>
    <g id="text_17">
     <!-- $k=6$ -->
     <g transform="translate(381.22 281.826187)scale(0.1 -0.1)">
      <use transform="translate(0 0.015625)" xlink:href="#DejaVuSans-Oblique-6b"/>
      <use transform="translate(77.392578 0.015625)" xlink:href="#DejaVuSans-3d"/>
      <use transform="translate(180.664062 0.015625)" xlink:href="#DejaVuSans-36"/>
     </g>
    </g>
    <g id="line2d_23">
     <path d="M 353.22 293.004312 
L 373.22 293.004312 
" style="fill:none;stroke:#d62728;stroke-linecap:square;stroke-width:1.5;"/>
    </g>
    <g id="line2d_24"/>
    <g id="text_18">
     <!-- $k=8$ -->
     <g transform="translate(381.22 296.504312)scale(0.1 -0.1)">
      <use transform="translate(0 0.015625)" xlink:href="#DejaVuSans-Oblique-6b"/>
      <use transform="translate(77.392578 0.015625)" xlink:href="#DejaVuSans-3d"/>
      <use transform="translate(180.664062 0.015625)" xlink:href="#DejaVuSans-38"/>
     </g>
    </g>
   </g>
  </g>
 </g>
 <defs>
  <clipPath id="pb640be7ebf">
   <rect height="266.112" width="357.12" x="57.6" y="41.472"/>
  </clipPath>
 </defs>
</svg>
