<?xml version="1.0" encoding="utf-8" standalone="no"?>
<!DOCTYPE svg PUBLIC "-//W3C//DTD SVG 1.1//EN"
  "http://www.w3.org/Graphics/SVG/1.1/DTD/svg11.dtd">
<!-- Created with matplotlib (http://matplotlib.org/) -->
<svg height="345.6pt" version="1.1" viewBox="0 0 460.8 345.6" width="460.8pt" xmlns="http://www.w3.org/2000/svg" xmlns:xlink="http://www.w3.org/1999/xlink">
 <defs>
  <style type="text/css">
*{stroke-linecap:butt;stroke-linejoin:round;}
  </style>
 </defs>
 <g id="figure_1">
  <g id="patch_1">
   <path d="M 0 345.6 
L 460.8 345.6 
L 460.8 0 
L 0 0 
z
" style="fill:#ffffff;"/>
  </g>
  <g id="axes_1">
   <g id="patch_2">
    <path d="M 57.6 307.584 
L 414.72 307.584 
L 414.72 41.472 
L 57.6 41.472 
z
" style="fill:#ffffff;"/>
   </g>
   <g id="matplotlib.axis_1">
    <g id="xtick_1">
     <g id="line2d_1">
      <defs>
       <path d="M 0 0 
L 0 3.5 
" id="m382e469e65" style="stroke:#000000;stroke-width:0.8;"/>
      </defs>
      <g>
       <use style="stroke:#000000;stroke-width:0.8;" x="73.832727" xlink:href="#m382e469e65" y="307.584"/>
      </g>
     </g>
     <g id="text_1">
      <!-- 0 -->
      <defs>
       <path d="M 31.78125 66.40625 
Q 24.171875 66.40625 20.328125 58.90625 
Q 16.5 51.421875 16.5 36.375 
Q 16.5 21.390625 20.328125 13.890625 
Q 24.171875 6.390625 31.78125 6.390625 
Q 39.453125 6.390625 43.28125 13.890625 
Q 47.125 21.390625 47.125 36.375 
Q 47.125 51.421875 43.28125 58.90625 
Q 39.453125 66.40625 31.78125 66.40625 
z
M 31.78125 74.21875 
Q 44.046875 74.21875 50.515625 64.515625 
Q 56.984375 54.828125 56.984375 36.375 
Q 56.984375 17.96875 50.515625 8.265625 
Q 44.046875 -1.421875 31.78125 -1.421875 
Q 19.53125 -1.421875 13.0625 8.265625 
Q 6.59375 17.96875 6.59375 36.375 
Q 6.59375 54.828125 13.0625 64.515625 
Q 19.53125 74.21875 31.78125 74.21875 
z
" id="DejaVuSans-30"/>
      </defs>
      <g transform="translate(70.651477 322.182437)scale(0.1 -0.1)">
       <use xlink:href="#DejaVuSans-30"/>
      </g>
     </g>
    </g>
    <g id="xtick_2">
     <g id="line2d_2">
      <g>
       <use style="stroke:#000000;stroke-width:0.8;" x="138.763636" xlink:href="#m382e469e65" y="307.584"/>
      </g>
     </g>
     <g id="text_2">
      <!-- 200 -->
      <defs>
       <path d="M 19.1875 8.296875 
L 53.609375 8.296875 
L 53.609375 0 
L 7.328125 0 
L 7.328125 8.296875 
Q 12.9375 14.109375 22.625 23.890625 
Q 32.328125 33.6875 34.8125 36.53125 
Q 39.546875 41.84375 41.421875 45.53125 
Q 43.3125 49.21875 43.3125 52.78125 
Q 43.3125 58.59375 39.234375 62.25 
Q 35.15625 65.921875 28.609375 65.921875 
Q 23.96875 65.921875 18.8125 64.3125 
Q 13.671875 62.703125 7.8125 59.421875 
L 7.8125 69.390625 
Q 13.765625 71.78125 18.9375 73 
Q 24.125 74.21875 28.421875 74.21875 
Q 39.75 74.21875 46.484375 68.546875 
Q 53.21875 62.890625 53.21875 53.421875 
Q 53.21875 48.921875 51.53125 44.890625 
Q 49.859375 40.875 45.40625 35.40625 
Q 44.1875 33.984375 37.640625 27.21875 
Q 31.109375 20.453125 19.1875 8.296875 
z
" id="DejaVuSans-32"/>
      </defs>
      <g transform="translate(129.219886 322.182437)scale(0.1 -0.1)">
       <use xlink:href="#DejaVuSans-32"/>
       <use x="63.623047" xlink:href="#DejaVuSans-30"/>
       <use x="127.246094" xlink:href="#DejaVuSans-30"/>
      </g>
     </g>
    </g>
    <g id="xtick_3">
     <g id="line2d_3">
      <g>
       <use style="stroke:#000000;stroke-width:0.8;" x="203.694545" xlink:href="#m382e469e65" y="307.584"/>
      </g>
     </g>
     <g id="text_3">
      <!-- 400 -->
      <defs>
       <path d="M 37.796875 64.3125 
L 12.890625 25.390625 
L 37.796875 25.390625 
z
M 35.203125 72.90625 
L 47.609375 72.90625 
L 47.609375 25.390625 
L 58.015625 25.390625 
L 58.015625 17.1875 
L 47.609375 17.1875 
L 47.609375 0 
L 37.796875 0 
L 37.796875 17.1875 
L 4.890625 17.1875 
L 4.890625 26.703125 
z
" id="DejaVuSans-34"/>
      </defs>
      <g transform="translate(194.150795 322.182437)scale(0.1 -0.1)">
       <use xlink:href="#DejaVuSans-34"/>
       <use x="63.623047" xlink:href="#DejaVuSans-30"/>
       <use x="127.246094" xlink:href="#DejaVuSans-30"/>
      </g>
     </g>
    </g>
    <g id="xtick_4">
     <g id="line2d_4">
      <g>
       <use style="stroke:#000000;stroke-width:0.8;" x="268.625455" xlink:href="#m382e469e65" y="307.584"/>
      </g>
     </g>
     <g id="text_4">
      <!-- 600 -->
      <defs>
       <path d="M 33.015625 40.375 
Q 26.375 40.375 22.484375 35.828125 
Q 18.609375 31.296875 18.609375 23.390625 
Q 18.609375 15.53125 22.484375 10.953125 
Q 26.375 6.390625 33.015625 6.390625 
Q 39.65625 6.390625 43.53125 10.953125 
Q 47.40625 15.53125 47.40625 23.390625 
Q 47.40625 31.296875 43.53125 35.828125 
Q 39.65625 40.375 33.015625 40.375 
z
M 52.59375 71.296875 
L 52.59375 62.3125 
Q 48.875 64.0625 45.09375 64.984375 
Q 41.3125 65.921875 37.59375 65.921875 
Q 27.828125 65.921875 22.671875 59.328125 
Q 17.53125 52.734375 16.796875 39.40625 
Q 19.671875 43.65625 24.015625 45.921875 
Q 28.375 48.1875 33.59375 48.1875 
Q 44.578125 48.1875 50.953125 41.515625 
Q 57.328125 34.859375 57.328125 23.390625 
Q 57.328125 12.15625 50.6875 5.359375 
Q 44.046875 -1.421875 33.015625 -1.421875 
Q 20.359375 -1.421875 13.671875 8.265625 
Q 6.984375 17.96875 6.984375 36.375 
Q 6.984375 53.65625 15.1875 63.9375 
Q 23.390625 74.21875 37.203125 74.21875 
Q 40.921875 74.21875 44.703125 73.484375 
Q 48.484375 72.75 52.59375 71.296875 
z
" id="DejaVuSans-36"/>
      </defs>
      <g transform="translate(259.081705 322.182437)scale(0.1 -0.1)">
       <use xlink:href="#DejaVuSans-36"/>
       <use x="63.623047" xlink:href="#DejaVuSans-30"/>
       <use x="127.246094" xlink:href="#DejaVuSans-30"/>
      </g>
     </g>
    </g>
    <g id="xtick_5">
     <g id="line2d_5">
      <g>
       <use style="stroke:#000000;stroke-width:0.8;" x="333.556364" xlink:href="#m382e469e65" y="307.584"/>
      </g>
     </g>
     <g id="text_5">
      <!-- 800 -->
      <defs>
       <path d="M 31.78125 34.625 
Q 24.75 34.625 20.71875 30.859375 
Q 16.703125 27.09375 16.703125 20.515625 
Q 16.703125 13.921875 20.71875 10.15625 
Q 24.75 6.390625 31.78125 6.390625 
Q 38.8125 6.390625 42.859375 10.171875 
Q 46.921875 13.96875 46.921875 20.515625 
Q 46.921875 27.09375 42.890625 30.859375 
Q 38.875 34.625 31.78125 34.625 
z
M 21.921875 38.8125 
Q 15.578125 40.375 12.03125 44.71875 
Q 8.5 49.078125 8.5 55.328125 
Q 8.5 64.0625 14.71875 69.140625 
Q 20.953125 74.21875 31.78125 74.21875 
Q 42.671875 74.21875 48.875 69.140625 
Q 55.078125 64.0625 55.078125 55.328125 
Q 55.078125 49.078125 51.53125 44.71875 
Q 48 40.375 41.703125 38.8125 
Q 48.828125 37.15625 52.796875 32.3125 
Q 56.78125 27.484375 56.78125 20.515625 
Q 56.78125 9.90625 50.3125 4.234375 
Q 43.84375 -1.421875 31.78125 -1.421875 
Q 19.734375 -1.421875 13.25 4.234375 
Q 6.78125 9.90625 6.78125 20.515625 
Q 6.78125 27.484375 10.78125 32.3125 
Q 14.796875 37.15625 21.921875 38.8125 
z
M 18.3125 54.390625 
Q 18.3125 48.734375 21.84375 45.5625 
Q 25.390625 42.390625 31.78125 42.390625 
Q 38.140625 42.390625 41.71875 45.5625 
Q 45.3125 48.734375 45.3125 54.390625 
Q 45.3125 60.0625 41.71875 63.234375 
Q 38.140625 66.40625 31.78125 66.40625 
Q 25.390625 66.40625 21.84375 63.234375 
Q 18.3125 60.0625 18.3125 54.390625 
z
" id="DejaVuSans-38"/>
      </defs>
      <g transform="translate(324.012614 322.182437)scale(0.1 -0.1)">
       <use xlink:href="#DejaVuSans-38"/>
       <use x="63.623047" xlink:href="#DejaVuSans-30"/>
       <use x="127.246094" xlink:href="#DejaVuSans-30"/>
      </g>
     </g>
    </g>
    <g id="xtick_6">
     <g id="line2d_6">
      <g>
       <use style="stroke:#000000;stroke-width:0.8;" x="398.487273" xlink:href="#m382e469e65" y="307.584"/>
      </g>
     </g>
     <g id="text_6">
      <!-- 1000 -->
      <defs>
       <path d="M 12.40625 8.296875 
L 28.515625 8.296875 
L 28.515625 63.921875 
L 10.984375 60.40625 
L 10.984375 69.390625 
L 28.421875 72.90625 
L 38.28125 72.90625 
L 38.28125 8.296875 
L 54.390625 8.296875 
L 54.390625 0 
L 12.40625 0 
z
" id="DejaVuSans-31"/>
      </defs>
      <g transform="translate(385.762273 322.182437)scale(0.1 -0.1)">
       <use xlink:href="#DejaVuSans-31"/>
       <use x="63.623047" xlink:href="#DejaVuSans-30"/>
       <use x="127.246094" xlink:href="#DejaVuSans-30"/>
       <use x="190.869141" xlink:href="#DejaVuSans-30"/>
      </g>
     </g>
    </g>
    <g id="text_7">
     <!-- Generation -->
     <defs>
      <path d="M 59.515625 10.40625 
L 59.515625 29.984375 
L 43.40625 29.984375 
L 43.40625 38.09375 
L 69.28125 38.09375 
L 69.28125 6.78125 
Q 63.578125 2.734375 56.6875 0.65625 
Q 49.8125 -1.421875 42 -1.421875 
Q 24.90625 -1.421875 15.25 8.5625 
Q 5.609375 18.5625 5.609375 36.375 
Q 5.609375 54.25 15.25 64.234375 
Q 24.90625 74.21875 42 74.21875 
Q 49.125 74.21875 55.546875 72.453125 
Q 61.96875 70.703125 67.390625 67.28125 
L 67.390625 56.78125 
Q 61.921875 61.421875 55.765625 63.765625 
Q 49.609375 66.109375 42.828125 66.109375 
Q 29.4375 66.109375 22.71875 58.640625 
Q 16.015625 51.171875 16.015625 36.375 
Q 16.015625 21.625 22.71875 14.15625 
Q 29.4375 6.6875 42.828125 6.6875 
Q 48.046875 6.6875 52.140625 7.59375 
Q 56.25 8.5 59.515625 10.40625 
z
" id="DejaVuSans-47"/>
      <path d="M 56.203125 29.59375 
L 56.203125 25.203125 
L 14.890625 25.203125 
Q 15.484375 15.921875 20.484375 11.0625 
Q 25.484375 6.203125 34.421875 6.203125 
Q 39.59375 6.203125 44.453125 7.46875 
Q 49.3125 8.734375 54.109375 11.28125 
L 54.109375 2.78125 
Q 49.265625 0.734375 44.1875 -0.34375 
Q 39.109375 -1.421875 33.890625 -1.421875 
Q 20.796875 -1.421875 13.15625 6.1875 
Q 5.515625 13.8125 5.515625 26.8125 
Q 5.515625 40.234375 12.765625 48.109375 
Q 20.015625 56 32.328125 56 
Q 43.359375 56 49.78125 48.890625 
Q 56.203125 41.796875 56.203125 29.59375 
z
M 47.21875 32.234375 
Q 47.125 39.59375 43.09375 43.984375 
Q 39.0625 48.390625 32.421875 48.390625 
Q 24.90625 48.390625 20.390625 44.140625 
Q 15.875 39.890625 15.1875 32.171875 
z
" id="DejaVuSans-65"/>
      <path d="M 54.890625 33.015625 
L 54.890625 0 
L 45.90625 0 
L 45.90625 32.71875 
Q 45.90625 40.484375 42.875 44.328125 
Q 39.84375 48.1875 33.796875 48.1875 
Q 26.515625 48.1875 22.3125 43.546875 
Q 18.109375 38.921875 18.109375 30.90625 
L 18.109375 0 
L 9.078125 0 
L 9.078125 54.6875 
L 18.109375 54.6875 
L 18.109375 46.1875 
Q 21.34375 51.125 25.703125 53.5625 
Q 30.078125 56 35.796875 56 
Q 45.21875 56 50.046875 50.171875 
Q 54.890625 44.34375 54.890625 33.015625 
z
" id="DejaVuSans-6e"/>
      <path d="M 41.109375 46.296875 
Q 39.59375 47.171875 37.8125 47.578125 
Q 36.03125 48 33.890625 48 
Q 26.265625 48 22.1875 43.046875 
Q 18.109375 38.09375 18.109375 28.8125 
L 18.109375 0 
L 9.078125 0 
L 9.078125 54.6875 
L 18.109375 54.6875 
L 18.109375 46.1875 
Q 20.953125 51.171875 25.484375 53.578125 
Q 30.03125 56 36.53125 56 
Q 37.453125 56 38.578125 55.875 
Q 39.703125 55.765625 41.0625 55.515625 
z
" id="DejaVuSans-72"/>
      <path d="M 34.28125 27.484375 
Q 23.390625 27.484375 19.1875 25 
Q 14.984375 22.515625 14.984375 16.5 
Q 14.984375 11.71875 18.140625 8.90625 
Q 21.296875 6.109375 26.703125 6.109375 
Q 34.1875 6.109375 38.703125 11.40625 
Q 43.21875 16.703125 43.21875 25.484375 
L 43.21875 27.484375 
z
M 52.203125 31.203125 
L 52.203125 0 
L 43.21875 0 
L 43.21875 8.296875 
Q 40.140625 3.328125 35.546875 0.953125 
Q 30.953125 -1.421875 24.3125 -1.421875 
Q 15.921875 -1.421875 10.953125 3.296875 
Q 6 8.015625 6 15.921875 
Q 6 25.140625 12.171875 29.828125 
Q 18.359375 34.515625 30.609375 34.515625 
L 43.21875 34.515625 
L 43.21875 35.40625 
Q 43.21875 41.609375 39.140625 45 
Q 35.0625 48.390625 27.6875 48.390625 
Q 23 48.390625 18.546875 47.265625 
Q 14.109375 46.140625 10.015625 43.890625 
L 10.015625 52.203125 
Q 14.9375 54.109375 19.578125 55.046875 
Q 24.21875 56 28.609375 56 
Q 40.484375 56 46.34375 49.84375 
Q 52.203125 43.703125 52.203125 31.203125 
z
" id="DejaVuSans-61"/>
      <path d="M 18.3125 70.21875 
L 18.3125 54.6875 
L 36.8125 54.6875 
L 36.8125 47.703125 
L 18.3125 47.703125 
L 18.3125 18.015625 
Q 18.3125 11.328125 20.140625 9.421875 
Q 21.96875 7.515625 27.59375 7.515625 
L 36.8125 7.515625 
L 36.8125 0 
L 27.59375 0 
Q 17.1875 0 13.234375 3.875 
Q 9.28125 7.765625 9.28125 18.015625 
L 9.28125 47.703125 
L 2.6875 47.703125 
L 2.6875 54.6875 
L 9.28125 54.6875 
L 9.28125 70.21875 
z
" id="DejaVuSans-74"/>
      <path d="M 9.421875 54.6875 
L 18.40625 54.6875 
L 18.40625 0 
L 9.421875 0 
z
M 9.421875 75.984375 
L 18.40625 75.984375 
L 18.40625 64.59375 
L 9.421875 64.59375 
z
" id="DejaVuSans-69"/>
      <path d="M 30.609375 48.390625 
Q 23.390625 48.390625 19.1875 42.75 
Q 14.984375 37.109375 14.984375 27.296875 
Q 14.984375 17.484375 19.15625 11.84375 
Q 23.34375 6.203125 30.609375 6.203125 
Q 37.796875 6.203125 41.984375 11.859375 
Q 46.1875 17.53125 46.1875 27.296875 
Q 46.1875 37.015625 41.984375 42.703125 
Q 37.796875 48.390625 30.609375 48.390625 
z
M 30.609375 56 
Q 42.328125 56 49.015625 48.375 
Q 55.71875 40.765625 55.71875 27.296875 
Q 55.71875 13.875 49.015625 6.21875 
Q 42.328125 -1.421875 30.609375 -1.421875 
Q 18.84375 -1.421875 12.171875 6.21875 
Q 5.515625 13.875 5.515625 27.296875 
Q 5.515625 40.765625 12.171875 48.375 
Q 18.84375 56 30.609375 56 
z
" id="DejaVuSans-6f"/>
     </defs>
     <g transform="translate(208.267031 335.860562)scale(0.1 -0.1)">
      <use xlink:href="#DejaVuSans-47"/>
      <use x="77.490234" xlink:href="#DejaVuSans-65"/>
      <use x="139.013672" xlink:href="#DejaVuSans-6e"/>
      <use x="202.392578" xlink:href="#DejaVuSans-65"/>
      <use x="263.916016" xlink:href="#DejaVuSans-72"/>
      <use x="305.029297" xlink:href="#DejaVuSans-61"/>
      <use x="366.308594" xlink:href="#DejaVuSans-74"/>
      <use x="405.517578" xlink:href="#DejaVuSans-69"/>
      <use x="433.300781" xlink:href="#DejaVuSans-6f"/>
      <use x="494.482422" xlink:href="#DejaVuSans-6e"/>
     </g>
    </g>
   </g>
   <g id="matplotlib.axis_2">
    <g id="ytick_1">
     <g id="line2d_7">
      <defs>
       <path d="M 0 0 
L -3.5 0 
" id="m8834956248" style="stroke:#000000;stroke-width:0.8;"/>
      </defs>
      <g>
       <use style="stroke:#000000;stroke-width:0.8;" x="57.6" xlink:href="#m8834956248" y="307.584"/>
      </g>
     </g>
     <g id="text_8">
      <!-- 0.0 -->
      <defs>
       <path d="M 10.6875 12.40625 
L 21 12.40625 
L 21 0 
L 10.6875 0 
z
" id="DejaVuSans-2e"/>
      </defs>
      <g transform="translate(34.696875 311.383219)scale(0.1 -0.1)">
       <use xlink:href="#DejaVuSans-30"/>
       <use x="63.623047" xlink:href="#DejaVuSans-2e"/>
       <use x="95.410156" xlink:href="#DejaVuSans-30"/>
      </g>
     </g>
    </g>
    <g id="ytick_2">
     <g id="line2d_8">
      <g>
       <use style="stroke:#000000;stroke-width:0.8;" x="57.6" xlink:href="#m8834956248" y="254.3616"/>
      </g>
     </g>
     <g id="text_9">
      <!-- 0.2 -->
      <g transform="translate(34.696875 258.160819)scale(0.1 -0.1)">
       <use xlink:href="#DejaVuSans-30"/>
       <use x="63.623047" xlink:href="#DejaVuSans-2e"/>
       <use x="95.410156" xlink:href="#DejaVuSans-32"/>
      </g>
     </g>
    </g>
    <g id="ytick_3">
     <g id="line2d_9">
      <g>
       <use style="stroke:#000000;stroke-width:0.8;" x="57.6" xlink:href="#m8834956248" y="201.1392"/>
      </g>
     </g>
     <g id="text_10">
      <!-- 0.4 -->
      <g transform="translate(34.696875 204.938419)scale(0.1 -0.1)">
       <use xlink:href="#DejaVuSans-30"/>
       <use x="63.623047" xlink:href="#DejaVuSans-2e"/>
       <use x="95.410156" xlink:href="#DejaVuSans-34"/>
      </g>
     </g>
    </g>
    <g id="ytick_4">
     <g id="line2d_10">
      <g>
       <use style="stroke:#000000;stroke-width:0.8;" x="57.6" xlink:href="#m8834956248" y="147.9168"/>
      </g>
     </g>
     <g id="text_11">
      <!-- 0.6 -->
      <g transform="translate(34.696875 151.716019)scale(0.1 -0.1)">
       <use xlink:href="#DejaVuSans-30"/>
       <use x="63.623047" xlink:href="#DejaVuSans-2e"/>
       <use x="95.410156" xlink:href="#DejaVuSans-36"/>
      </g>
     </g>
    </g>
    <g id="ytick_5">
     <g id="line2d_11">
      <g>
       <use style="stroke:#000000;stroke-width:0.8;" x="57.6" xlink:href="#m8834956248" y="94.6944"/>
      </g>
     </g>
     <g id="text_12">
      <!-- 0.8 -->
      <g transform="translate(34.696875 98.493619)scale(0.1 -0.1)">
       <use xlink:href="#DejaVuSans-30"/>
       <use x="63.623047" xlink:href="#DejaVuSans-2e"/>
       <use x="95.410156" xlink:href="#DejaVuSans-38"/>
      </g>
     </g>
    </g>
    <g id="ytick_6">
     <g id="line2d_12">
      <g>
       <use style="stroke:#000000;stroke-width:0.8;" x="57.6" xlink:href="#m8834956248" y="41.472"/>
      </g>
     </g>
     <g id="text_13">
      <!-- 1.0 -->
      <g transform="translate(34.696875 45.271219)scale(0.1 -0.1)">
       <use xlink:href="#DejaVuSans-31"/>
       <use x="63.623047" xlink:href="#DejaVuSans-2e"/>
       <use x="95.410156" xlink:href="#DejaVuSans-30"/>
      </g>
     </g>
    </g>
    <g id="text_14">
     <!-- $p$ -->
     <defs>
      <path d="M 49.609375 33.6875 
Q 49.609375 40.875 46.484375 44.671875 
Q 43.359375 48.484375 37.5 48.484375 
Q 33.5 48.484375 29.859375 46.4375 
Q 26.21875 44.390625 23.390625 40.484375 
Q 20.609375 36.625 18.9375 31.15625 
Q 17.28125 25.6875 17.28125 20.3125 
Q 17.28125 13.484375 20.40625 9.796875 
Q 23.53125 6.109375 29.296875 6.109375 
Q 33.546875 6.109375 37.1875 8.109375 
Q 40.828125 10.109375 43.40625 13.921875 
Q 46.1875 17.921875 47.890625 23.34375 
Q 49.609375 28.765625 49.609375 33.6875 
z
M 21.78125 46.390625 
Q 25.390625 51.125 30.296875 53.5625 
Q 35.203125 56 41.21875 56 
Q 49.609375 56 54.25 50.5 
Q 58.890625 45.015625 58.890625 35.109375 
Q 58.890625 27 56 19.65625 
Q 53.125 12.3125 47.703125 6.5 
Q 44.09375 2.640625 39.546875 0.609375 
Q 35.015625 -1.421875 29.984375 -1.421875 
Q 24.171875 -1.421875 20.21875 1 
Q 16.265625 3.421875 14.3125 8.203125 
L 8.6875 -20.796875 
L -0.296875 -20.796875 
L 14.40625 54.6875 
L 23.390625 54.6875 
z
" id="DejaVuSans-Oblique-70"/>
     </defs>
     <g transform="translate(28.596875 177.728)rotate(-90)scale(0.1 -0.1)">
      <use xlink:href="#DejaVuSans-Oblique-70"/>
     </g>
    </g>
   </g>
   <g id="line2d_13">
    <path clip-path="url(#pafbe6abe62)" d="M 73.832727 294.2784 
L 74.157382 296.673408 
L 74.482036 296.806464 
L 74.806691 295.742016 
L 75.131345 295.076736 
L 75.456 295.342848 
L 75.780655 293.879232 
L 76.429964 296.27424 
L 76.754618 295.342848 
L 77.079273 297.338688 
L 77.403927 297.338688 
L 77.728582 297.870912 
L 78.053236 296.407296 
L 78.377891 296.27424 
L 78.702545 295.742016 
L 79.0272 296.27424 
L 79.351855 296.141184 
L 79.676509 294.94368 
L 80.001164 295.875072 
L 80.325818 295.742016 
L 80.650473 295.742016 
L 80.975127 295.875072 
L 81.299782 294.544512 
L 81.949091 298.27008 
L 82.273745 297.205632 
L 82.5984 297.870912 
L 82.923055 295.875072 
L 83.572364 296.540352 
L 83.897018 298.93536 
L 84.546327 299.467584 
L 84.870982 299.467584 
L 85.195636 299.201472 
L 85.520291 299.201472 
L 85.844945 301.064256 
L 86.1696 302.128704 
L 86.494255 302.394816 
L 87.143564 303.858432 
L 87.468218 304.2576 
L 87.792873 303.725376 
L 88.117527 304.124544 
L 88.442182 302.660928 
L 88.766836 300.398976 
L 89.416145 299.467584 
L 89.7408 299.467584 
L 90.065455 299.999808 
L 90.390109 300.26592 
L 90.714764 301.330368 
L 91.039418 302.92704 
L 91.364073 302.793984 
L 92.338036 299.866752 
L 92.662691 300.798144 
L 92.987345 301.064256 
L 93.312 300.798144 
L 93.636655 303.060096 
L 93.961309 302.26176 
L 94.285964 301.064256 
L 94.610618 302.128704 
L 95.259927 302.394816 
L 95.584582 303.326208 
L 95.909236 302.793984 
L 96.233891 303.060096 
L 96.558545 303.725376 
L 96.8832 303.858432 
L 97.207855 301.729536 
L 97.857164 302.92704 
L 98.181818 301.330368 
L 98.506473 302.128704 
L 98.831127 301.729536 
L 99.155782 302.793984 
L 99.480436 302.660928 
L 99.805091 303.326208 
L 100.129745 302.527872 
L 100.4544 303.193152 
L 100.779055 303.326208 
L 101.103709 303.326208 
L 102.077673 304.124544 
L 102.402327 304.124544 
L 102.726982 303.193152 
L 103.051636 302.660928 
L 103.376291 304.124544 
L 103.700945 303.725376 
L 104.0256 303.991488 
L 104.350255 303.725376 
L 104.674909 303.858432 
L 104.999564 303.193152 
L 105.324218 303.326208 
L 105.973527 302.793984 
L 106.298182 301.197312 
L 106.622836 300.398976 
L 106.947491 300.26592 
L 107.272145 300.9312 
L 107.5968 301.064256 
L 107.921455 299.999808 
L 108.246109 299.467584 
L 108.570764 299.999808 
L 108.895418 299.068416 
L 109.220073 300.798144 
L 109.544727 301.330368 
L 109.869382 302.793984 
L 110.194036 303.725376 
L 110.518691 302.92704 
L 110.843345 302.660928 
L 111.168 301.729536 
L 111.492655 301.862592 
L 111.817309 300.798144 
L 112.141964 300.398976 
L 112.466618 299.467584 
L 112.791273 299.733696 
L 113.440582 296.008128 
L 113.765236 297.205632 
L 114.089891 296.141184 
L 114.414545 293.61312 
L 114.7392 294.012288 
L 115.063855 295.076736 
L 115.713164 293.213952 
L 116.037818 293.879232 
L 116.362473 294.012288 
L 117.336436 288.157824 
L 117.661091 288.157824 
L 117.985745 285.62976 
L 118.3104 285.895872 
L 118.635055 286.428096 
L 118.959709 283.900032 
L 119.284364 284.033088 
L 119.609018 283.766976 
L 119.933673 281.904192 
L 120.258327 283.101696 
L 120.582982 282.30336 
L 120.907636 280.839744 
L 121.232291 278.577792 
L 121.556945 279.64224 
L 121.8816 284.033088 
L 122.206255 282.037248 
L 122.530909 282.569472 
L 122.855564 281.904192 
L 123.180218 284.698368 
L 123.504873 284.432256 
L 123.829527 285.62976 
L 124.478836 286.29504 
L 124.803491 286.161984 
L 125.128145 287.226432 
L 125.4528 283.63392 
L 125.777455 284.166144 
L 126.102109 283.101696 
L 126.426764 282.835584 
L 126.751418 278.444736 
L 127.076073 277.513344 
L 127.400727 276.98112 
L 127.725382 275.916672 
L 128.050036 279.908352 
L 128.374691 278.178624 
L 128.699345 275.517504 
L 129.024 279.110016 
L 129.348655 276.182784 
L 129.673309 278.843904 
L 129.997964 278.577792 
L 130.322618 279.908352 
L 130.647273 279.243072 
L 130.971927 281.771136 
L 131.296582 280.30752 
L 131.621236 280.573632 
L 132.270545 282.436416 
L 132.5952 281.238912 
L 132.919855 281.505024 
L 133.244509 280.30752 
L 133.569164 278.045568 
L 133.893818 277.6464 
L 134.218473 279.509184 
L 134.543127 282.037248 
L 134.867782 281.238912 
L 135.192436 279.509184 
L 135.517091 280.30752 
L 135.841745 280.440576 
L 136.1664 279.775296 
L 136.815709 282.96864 
L 137.140364 281.505024 
L 137.465018 281.771136 
L 137.789673 279.775296 
L 138.114327 281.238912 
L 138.763636 277.6464 
L 139.412945 283.234752 
L 139.7376 283.766976 
L 140.062255 284.831424 
L 140.386909 286.694208 
L 140.711564 286.29504 
L 141.036218 286.694208 
L 141.360873 286.694208 
L 141.685527 286.028928 
L 142.010182 286.161984 
L 142.334836 282.835584 
L 142.659491 282.436416 
L 142.984145 284.432256 
L 143.3088 283.63392 
L 143.633455 284.2992 
L 143.958109 283.766976 
L 144.282764 284.432256 
L 144.607418 285.363648 
L 144.932073 282.569472 
L 145.256727 282.835584 
L 145.581382 282.30336 
L 146.230691 283.63392 
L 146.555345 285.363648 
L 146.88 284.96448 
L 147.853964 280.174464 
L 148.178618 280.30752 
L 148.503273 279.243072 
L 148.827927 274.852224 
L 149.152582 276.581952 
L 149.477236 276.848064 
L 149.801891 278.31168 
L 150.4512 274.586112 
L 150.775855 270.9936 
L 151.425164 272.856384 
L 151.749818 272.590272 
L 152.074473 274.053888 
L 152.723782 269.529984 
L 153.048436 272.723328 
L 153.373091 271.126656 
L 153.697745 271.791936 
L 154.671709 278.31168 
L 154.996364 275.916672 
L 155.321018 274.852224 
L 155.645673 272.98944 
L 155.970327 274.053888 
L 156.294982 274.32 
L 156.619636 271.924992 
L 156.944291 275.118336 
L 157.268945 273.255552 
L 157.5936 275.384448 
L 157.918255 273.521664 
L 158.567564 278.577792 
L 158.892218 279.908352 
L 159.216873 277.513344 
L 159.541527 276.31584 
L 159.866182 276.715008 
L 160.190836 278.178624 
L 160.515491 278.577792 
L 160.840145 279.908352 
L 161.1648 278.31168 
L 161.489455 283.101696 
L 161.814109 279.64224 
L 162.138764 278.045568 
L 162.463418 277.912512 
L 162.788073 281.505024 
L 163.112727 281.63808 
L 163.437382 283.234752 
L 163.762036 282.170304 
L 164.086691 279.110016 
L 164.411345 279.775296 
L 165.060655 284.698368 
L 165.385309 284.96448 
L 165.709964 283.234752 
L 166.034618 283.367808 
L 166.359273 285.496704 
L 166.683927 283.900032 
L 167.008582 284.432256 
L 167.657891 282.569472 
L 167.982545 281.63808 
L 168.3072 278.577792 
L 168.631855 281.238912 
L 168.956509 279.376128 
L 169.281164 280.174464 
L 169.605818 276.448896 
L 169.930473 277.779456 
L 170.255127 277.912512 
L 170.904436 279.64224 
L 171.229091 279.110016 
L 171.553745 280.839744 
L 171.8784 280.30752 
L 172.203055 278.444736 
L 172.527709 280.30752 
L 172.852364 277.513344 
L 173.177018 277.114176 
L 173.501673 280.573632 
L 173.826327 282.037248 
L 174.150982 284.96448 
L 174.475636 285.62976 
L 174.800291 287.093376 
L 175.124945 290.419776 
L 175.4496 291.61728 
L 175.774255 290.552832 
L 176.098909 288.29088 
L 176.423564 287.492544 
L 176.748218 285.230592 
L 177.072873 285.895872 
L 177.397527 286.96032 
L 177.722182 285.895872 
L 178.046836 284.432256 
L 178.696145 286.428096 
L 179.0208 285.895872 
L 179.345455 284.96448 
L 179.994764 281.63808 
L 180.644073 280.9728 
L 180.968727 282.170304 
L 181.293382 282.037248 
L 181.618036 280.440576 
L 181.942691 280.041408 
L 182.267345 282.170304 
L 182.592 281.904192 
L 182.916655 284.698368 
L 183.241309 284.432256 
L 183.565964 285.62976 
L 183.890618 285.895872 
L 184.215273 285.363648 
L 184.539927 282.170304 
L 184.864582 283.766976 
L 185.189236 284.432256 
L 185.838545 281.105856 
L 186.1632 283.500864 
L 186.487855 281.505024 
L 186.812509 282.30336 
L 187.137164 286.561152 
L 187.461818 287.891712 
L 187.786473 286.29504 
L 188.111127 287.226432 
L 188.435782 282.30336 
L 188.760436 280.30752 
L 189.085091 279.775296 
L 189.409745 280.041408 
L 190.059055 283.900032 
L 190.383709 284.2992 
L 190.708364 282.702528 
L 191.033018 284.432256 
L 191.357673 284.432256 
L 191.682327 284.565312 
L 192.006982 282.30336 
L 192.656291 284.033088 
L 192.980945 282.170304 
L 193.3056 278.710848 
L 193.630255 279.376128 
L 193.954909 281.238912 
L 194.279564 282.30336 
L 194.604218 280.30752 
L 194.928873 281.63808 
L 195.253527 280.440576 
L 195.902836 282.30336 
L 196.552145 280.839744 
L 196.8768 282.835584 
L 197.201455 285.762816 
L 198.175418 289.089216 
L 198.500073 288.157824 
L 199.149382 286.96032 
L 199.474036 286.827264 
L 199.798691 286.96032 
L 200.123345 286.694208 
L 200.448 284.166144 
L 200.772655 280.30752 
L 201.097309 280.706688 
L 201.746618 279.376128 
L 202.071273 279.243072 
L 202.395927 274.852224 
L 202.720582 278.178624 
L 203.045236 278.31168 
L 203.369891 276.182784 
L 204.0192 279.509184 
L 204.343855 283.500864 
L 204.668509 282.702528 
L 204.993164 282.702528 
L 205.317818 281.63808 
L 205.642473 285.496704 
L 205.967127 283.900032 
L 206.291782 284.2992 
L 206.941091 283.900032 
L 207.265745 280.9728 
L 207.915055 278.97696 
L 208.239709 278.444736 
L 208.564364 280.041408 
L 209.213673 279.376128 
L 209.538327 279.376128 
L 209.862982 276.182784 
L 210.187636 274.852224 
L 210.512291 276.31584 
L 210.836945 276.049728 
L 211.1616 273.920832 
L 211.486255 275.251392 
L 212.135564 273.255552 
L 212.460218 271.392768 
L 212.784873 272.191104 
L 213.109527 271.525824 
L 213.434182 272.32416 
L 213.758836 273.787776 
L 214.083491 272.98944 
L 214.408145 274.586112 
L 214.7328 273.65472 
L 215.057455 269.66304 
L 215.382109 269.263872 
L 215.706764 267.134976 
L 216.031418 266.33664 
L 216.356073 266.469696 
L 216.680727 263.276352 
L 217.005382 261.945792 
L 217.330036 259.816896 
L 217.979345 252.36576 
L 218.304 250.636032 
L 218.628655 250.36992 
L 218.953309 250.636032 
L 219.277964 250.502976 
L 219.602618 250.636032 
L 219.927273 250.236864 
L 220.251927 253.03104 
L 221.8752 241.322112 
L 222.199855 244.648512 
L 222.524509 246.644352 
L 222.849164 246.644352 
L 223.173818 250.502976 
L 223.498473 249.970752 
L 223.823127 249.70464 
L 224.797091 253.297152 
L 225.4464 248.107968 
L 226.095709 256.091328 
L 226.420364 254.228544 
L 226.745018 254.095488 
L 227.069673 247.04352 
L 227.394327 249.03936 
L 227.718982 249.970752 
L 228.043636 250.103808 
L 228.368291 250.103808 
L 228.692945 247.841856 
L 229.0176 246.511296 
L 229.342255 240.124608 
L 229.991564 235.334592 
L 230.640873 227.484288 
L 230.965527 225.887616 
L 231.290182 225.08928 
L 231.939491 226.552896 
L 232.264145 223.492608 
L 232.5888 219.367872 
L 232.913455 218.569536 
L 233.238109 216.174528 
L 233.562764 212.315904 
L 234.212073 200.873088 
L 234.536727 200.207808 
L 234.861382 199.14336 
L 235.186036 202.336704 
L 236.16 190.627776 
L 236.484655 190.760832 
L 236.809309 189.297216 
L 237.458618 175.060224 
L 237.783273 172.399104 
L 238.107927 166.145472 
L 238.432582 162.686016 
L 238.757236 160.55712 
L 239.406545 147.25152 
L 239.7312 145.25568 
L 240.380509 138.735936 
L 240.705164 139.002048 
L 241.354473 132.482304 
L 241.679127 125.430336 
L 242.328436 116.914752 
L 242.653091 117.047808 
L 242.977745 107.600832 
L 243.3024 106.403328 
L 243.951709 92.964672 
L 244.276364 89.505216 
L 244.601018 88.972992 
L 245.250327 81.521856 
L 245.574982 82.852416 
L 245.899636 76.332672 
L 246.224291 74.336832 
L 246.548945 74.07072 
L 246.8736 70.07904 
L 247.198255 68.482368 
L 248.172218 61.031232 
L 248.496873 60.632064 
L 249.146182 58.76928 
L 249.470836 56.906496 
L 249.795491 55.708992 
L 250.4448 50.519808 
L 250.769455 50.386752 
L 251.094109 49.056192 
L 251.418764 48.657024 
L 251.743418 49.056192 
L 252.392727 47.592576 
L 252.717382 47.45952 
L 253.042036 48.390912 
L 253.366691 47.991744 
L 253.691345 46.661184 
L 254.016 46.395072 
L 254.989964 43.46784 
L 254.989964 43.46784 
" style="fill:none;stroke:#1f77b4;stroke-linecap:square;stroke-width:1.5;"/>
   </g>
   <g id="line2d_14">
    <path clip-path="url(#pafbe6abe62)" d="M 73.832727 294.2784 
L 74.157382 293.94576 
L 74.806691 295.27632 
L 75.131345 294.810624 
L 75.456 292.216032 
L 75.780655 290.61936 
L 76.105309 290.685888 
L 76.429964 291.218112 
L 76.754618 289.687968 
L 77.079273 289.089216 
L 77.403927 287.559072 
L 77.728582 287.159904 
L 78.053236 286.095456 
L 78.377891 286.760736 
L 78.702545 286.760736 
L 79.0272 287.825184 
L 79.351855 287.825184 
L 79.676509 288.091296 
L 80.001164 286.893792 
L 80.325818 284.166144 
L 80.650473 284.365728 
L 80.975127 286.827264 
L 81.299782 287.29296 
L 81.624436 288.157824 
L 82.273745 287.226432 
L 82.5984 287.29296 
L 82.923055 286.561152 
L 83.247709 287.226432 
L 83.572364 286.827264 
L 83.897018 286.694208 
L 84.221673 285.563232 
L 84.870982 285.563232 
L 85.195636 285.696288 
L 85.520291 286.028928 
L 85.844945 285.230592 
L 86.1696 283.30128 
L 86.494255 284.232672 
L 86.818909 283.500864 
L 87.143564 284.698368 
L 87.468218 282.103776 
L 87.792873 283.30128 
L 88.117527 280.9728 
L 88.442182 282.170304 
L 88.766836 282.702528 
L 89.091491 284.698368 
L 89.416145 284.365728 
L 89.7408 287.6256 
L 90.065455 287.559072 
L 90.390109 286.361568 
L 90.714764 287.758656 
L 91.039418 288.556992 
L 91.364073 289.022688 
L 91.688727 287.825184 
L 92.013382 288.157824 
L 92.662691 287.758656 
L 93.312 289.421856 
L 93.636655 287.426016 
L 93.961309 288.556992 
L 94.285964 286.29504 
L 94.610618 285.62976 
L 94.935273 288.224352 
L 95.259927 288.62352 
L 95.584582 287.6256 
L 95.909236 288.889632 
L 96.233891 288.091296 
L 96.558545 288.024768 
L 96.8832 290.087136 
L 97.207855 290.28672 
L 97.532509 290.153664 
L 97.857164 290.61936 
L 98.181818 290.61936 
L 98.506473 289.222272 
L 98.831127 289.887552 
L 99.155782 289.022688 
L 99.480436 289.687968 
L 99.805091 289.62144 
L 100.129745 290.020608 
L 100.4544 289.821024 
L 100.779055 291.218112 
L 101.103709 290.885472 
L 101.428364 289.488384 
L 101.753018 290.220192 
L 102.077673 289.2888 
L 102.726982 291.28464 
L 103.051636 292.216032 
L 103.376291 292.415616 
L 103.700945 294.078816 
L 104.0256 293.480064 
L 104.350255 293.94576 
L 104.674909 293.546592 
L 104.999564 296.872992 
L 105.324218 296.872992 
L 105.648873 297.139104 
L 105.973527 296.806464 
L 106.298182 297.671328 
L 106.622836 298.137024 
L 106.947491 297.804384 
L 107.272145 297.737856 
L 107.5968 297.538272 
L 107.921455 298.27008 
L 108.246109 297.870912 
L 108.570764 296.60688 
L 108.895418 297.737856 
L 109.220073 298.003968 
L 109.544727 297.737856 
L 109.869382 299.134944 
L 110.194036 298.60272 
L 110.518691 299.068416 
L 110.843345 299.268 
L 111.168 298.669248 
L 111.492655 298.868832 
L 111.817309 298.93536 
L 112.141964 300.066336 
L 112.466618 300.26592 
L 112.791273 300.199392 
L 113.115927 301.064256 
L 113.440582 300.798144 
L 113.765236 301.729536 
L 114.089891 300.665088 
L 114.7392 300.9312 
L 115.388509 299.800224 
L 115.713164 300.199392 
L 116.037818 298.336608 
L 116.362473 299.068416 
L 116.687127 298.536192 
L 117.011782 298.802304 
L 117.336436 297.737856 
L 117.661091 296.141184 
L 117.985745 295.875072 
L 118.959709 292.814784 
L 119.284364 291.218112 
L 119.609018 291.550752 
L 119.933673 291.28464 
L 120.258327 290.353248 
L 120.582982 290.220192 
L 120.907636 288.091296 
L 121.232291 288.490464 
L 121.8816 286.095456 
L 122.206255 286.361568 
L 122.530909 287.492544 
L 122.855564 287.026848 
L 123.180218 284.232672 
L 123.504873 284.2992 
L 123.829527 283.367808 
L 124.154182 285.230592 
L 124.478836 284.2992 
L 124.803491 284.698368 
L 125.128145 285.496704 
L 125.4528 286.893792 
L 126.102109 283.234752 
L 126.426764 283.234752 
L 126.751418 283.567392 
L 127.076073 282.636 
L 127.400727 282.636 
L 127.725382 284.498784 
L 128.050036 283.900032 
L 128.374691 282.769056 
L 128.699345 284.498784 
L 129.024 284.63184 
L 129.348655 282.569472 
L 129.673309 282.769056 
L 129.997964 280.174464 
L 130.322618 279.708768 
L 130.647273 278.910432 
L 130.971927 278.910432 
L 131.296582 279.509184 
L 131.621236 277.513344 
L 131.945891 276.515424 
L 132.270545 274.586112 
L 132.5952 274.386528 
L 132.919855 274.98528 
L 133.569164 272.32416 
L 133.893818 268.33248 
L 134.218473 267.733728 
L 134.543127 269.99568 
L 135.192436 266.868864 
L 135.517091 264.939552 
L 135.841745 264.806496 
L 136.1664 263.67552 
L 136.491055 261.080928 
L 136.815709 262.34496 
L 137.140364 262.611072 
L 137.465018 261.613152 
L 137.789673 259.417728 
L 138.114327 260.748288 
L 138.763636 266.735808 
L 139.088291 265.471776 
L 139.412945 265.072608 
L 139.7376 265.67136 
L 140.386909 266.137056 
L 140.711564 265.139136 
L 141.036218 266.203584 
L 141.360873 266.602752 
L 141.685527 265.471776 
L 142.010182 266.004 
L 142.659491 268.132896 
L 142.984145 268.532064 
L 143.3088 267.99984 
L 143.633455 269.862624 
L 143.958109 270.9936 
L 144.282764 269.796096 
L 144.607418 267.534144 
L 144.932073 270.727488 
L 145.256727 269.929152 
L 145.581382 270.32832 
L 145.906036 268.199424 
L 146.230691 267.134976 
L 146.555345 267.99984 
L 146.88 268.265952 
L 147.204655 267.201504 
L 147.529309 265.67136 
L 148.178618 267.201504 
L 148.503273 266.004 
L 148.827927 263.276352 
L 149.152582 263.542464 
L 149.477236 260.881344 
L 149.801891 263.608992 
L 150.126545 261.746208 
L 150.4512 263.209824 
L 150.775855 262.6776 
L 151.100509 262.6776 
L 151.425164 261.746208 
L 151.749818 259.417728 
L 152.074473 259.151616 
L 152.399127 259.151616 
L 152.723782 261.746208 
L 153.048436 262.211904 
L 153.373091 261.945792 
L 153.697745 261.213984 
L 154.347055 265.139136 
L 154.671709 266.070528 
L 154.996364 267.866784 
L 155.321018 267.866784 
L 155.645673 265.870944 
L 156.294982 266.935392 
L 156.619636 269.929152 
L 156.944291 268.731648 
L 157.268945 268.66512 
L 157.5936 267.600672 
L 157.918255 268.731648 
L 158.242909 269.396928 
L 158.567564 272.058048 
L 158.892218 271.99152 
L 159.216873 271.725408 
L 159.541527 271.725408 
L 160.190836 270.860544 
L 160.515491 271.126656 
L 160.840145 271.126656 
L 161.1648 273.32208 
L 161.489455 272.191104 
L 161.814109 273.255552 
L 162.138764 269.729568 
L 162.463418 268.864704 
L 162.788073 268.465536 
L 163.112727 269.862624 
L 163.437382 269.929152 
L 163.762036 270.261792 
L 164.086691 271.592352 
L 164.736 269.929152 
L 165.060655 270.32832 
L 165.385309 271.525824 
L 165.709964 271.99152 
L 166.034618 271.924992 
L 166.359273 272.789856 
L 166.683927 274.32 
L 167.008582 274.98528 
L 167.982545 278.112096 
L 168.3072 277.31376 
L 168.631855 275.916672 
L 168.956509 275.184864 
L 169.281164 275.65056 
L 169.605818 276.515424 
L 169.930473 276.64848 
L 170.255127 279.243072 
L 170.579782 280.839744 
L 170.904436 281.172384 
L 171.553745 278.511264 
L 171.8784 278.577792 
L 172.203055 279.442656 
L 172.527709 278.31168 
L 172.852364 278.710848 
L 173.177018 280.64016 
L 173.501673 284.831424 
L 173.826327 286.494624 
L 174.475636 284.2992 
L 174.800291 284.432256 
L 176.098909 279.708768 
L 176.423564 280.240992 
L 176.748218 281.039328 
L 177.072873 280.9728 
L 177.397527 279.442656 
L 177.722182 279.509184 
L 178.046836 280.041408 
L 178.696145 278.777376 
L 179.0208 279.442656 
L 179.345455 280.440576 
L 179.670109 282.170304 
L 179.994764 281.63808 
L 180.319418 281.771136 
L 180.644073 281.704608 
L 180.968727 282.569472 
L 181.293382 283.035168 
L 181.618036 283.30128 
L 181.942691 285.031008 
L 182.267345 284.96448 
L 182.592 286.29504 
L 182.916655 284.831424 
L 183.241309 283.96656 
L 183.565964 282.636 
L 183.890618 283.101696 
L 184.539927 283.434336 
L 184.864582 282.636 
L 185.189236 284.2992 
L 185.838545 285.895872 
L 186.1632 285.430176 
L 186.487855 287.29296 
L 186.812509 288.157824 
L 187.137164 288.423936 
L 187.461818 286.760736 
L 187.786473 286.694208 
L 188.111127 287.492544 
L 188.760436 285.829344 
L 189.085091 285.29712 
L 189.7344 289.222272 
L 190.059055 290.020608 
L 190.383709 288.690048 
L 190.708364 286.095456 
L 191.033018 287.758656 
L 191.357673 287.95824 
L 191.682327 290.61936 
L 192.006982 291.484224 
L 192.331636 291.94992 
L 192.656291 291.683808 
L 192.980945 291.750336 
L 193.3056 293.879232 
L 193.630255 294.145344 
L 193.954909 293.94576 
L 194.279564 293.546592 
L 194.604218 293.413536 
L 194.928873 292.548672 
L 195.253527 292.748256 
L 195.578182 293.147424 
L 195.902836 294.012288 
L 196.227491 294.145344 
L 196.552145 293.879232 
L 196.8768 294.012288 
L 197.201455 293.014368 
L 197.526109 293.480064 
L 197.850764 293.480064 
L 198.175418 294.810624 
L 198.500073 293.879232 
L 198.824727 293.679648 
L 199.149382 292.016448 
L 199.474036 292.349088 
L 199.798691 293.94576 
L 200.123345 292.94784 
L 200.448 290.486304 
L 201.421964 292.881312 
L 201.746618 293.28048 
L 202.071273 292.814784 
L 202.395927 290.952 
L 202.720582 290.885472 
L 203.045236 291.484224 
L 203.369891 290.353248 
L 203.694545 291.018528 
L 204.0192 289.089216 
L 204.343855 288.224352 
L 204.668509 289.155744 
L 204.993164 289.62144 
L 205.317818 289.62144 
L 205.642473 290.885472 
L 205.967127 289.887552 
L 206.291782 290.61936 
L 206.616436 289.355328 
L 206.941091 288.823104 
L 207.265745 288.024768 
L 207.5904 285.9624 
L 207.915055 286.29504 
L 208.239709 286.361568 
L 208.564364 285.097536 
L 208.889018 284.2992 
L 209.213673 284.764896 
L 209.862982 284.831424 
L 210.187636 285.496704 
L 210.512291 285.762816 
L 210.836945 285.164064 
L 211.1616 284.099616 
L 211.486255 284.232672 
L 211.810909 283.567392 
L 212.135564 281.837664 
L 212.460218 282.502944 
L 212.784873 280.573632 
L 213.109527 280.507104 
L 213.434182 279.64224 
L 213.758836 281.505024 
L 214.083491 281.704608 
L 214.408145 281.105856 
L 214.7328 281.238912 
L 215.057455 279.442656 
L 215.382109 279.97488 
L 215.706764 279.908352 
L 216.680727 285.29712 
L 217.330036 286.494624 
L 217.654691 288.490464 
L 217.979345 288.889632 
L 218.953309 287.093376 
L 219.277964 287.758656 
L 219.602618 286.96032 
L 220.251927 287.29296 
L 220.576582 285.563232 
L 220.901236 284.831424 
L 221.225891 283.63392 
L 221.8752 282.835584 
L 222.199855 283.900032 
L 222.524509 281.904192 
L 222.849164 280.64016 
L 223.173818 279.841824 
L 223.498473 279.708768 
L 223.823127 278.511264 
L 224.147782 279.3096 
L 224.472436 278.710848 
L 224.797091 277.6464 
L 225.121745 276.116256 
L 225.4464 276.116256 
L 225.771055 277.579872 
L 226.095709 279.908352 
L 226.745018 282.702528 
L 227.394327 283.168224 
L 227.718982 285.097536 
L 228.043636 284.764896 
L 228.692945 283.035168 
L 229.0176 283.900032 
L 229.342255 283.168224 
L 229.666909 283.367808 
L 229.991564 282.170304 
L 230.316218 281.63808 
L 230.640873 282.769056 
L 231.290182 279.043488 
L 231.614836 280.107936 
L 231.939491 280.440576 
L 232.264145 281.505024 
L 232.5888 281.63808 
L 232.913455 280.30752 
L 233.238109 279.775296 
L 233.887418 281.837664 
L 234.212073 281.371968 
L 234.536727 279.97488 
L 234.861382 280.107936 
L 235.186036 281.371968 
L 235.510691 283.168224 
L 235.835345 282.835584 
L 236.16 283.766976 
L 236.484655 284.166144 
L 236.809309 282.436416 
L 237.133964 282.636 
L 237.458618 283.900032 
L 237.783273 286.028928 
L 238.107927 284.2992 
L 238.432582 284.099616 
L 238.757236 284.365728 
L 239.406545 283.766976 
L 239.7312 284.232672 
L 240.055855 284.365728 
L 240.380509 283.833504 
L 241.029818 285.762816 
L 241.354473 284.897952 
L 241.679127 286.028928 
L 242.003782 287.825184 
L 242.328436 285.430176 
L 242.653091 285.496704 
L 242.977745 286.228512 
L 243.3024 286.228512 
L 243.627055 286.96032 
L 243.951709 285.829344 
L 244.276364 285.696288 
L 244.601018 285.164064 
L 244.925673 283.500864 
L 245.250327 286.095456 
L 245.574982 285.164064 
L 245.899636 284.764896 
L 246.224291 286.561152 
L 246.548945 285.031008 
L 246.8736 282.835584 
L 247.198255 283.63392 
L 247.847564 281.904192 
L 248.172218 280.041408 
L 248.496873 280.507104 
L 248.821527 282.902112 
L 249.470836 281.438496 
L 249.795491 282.569472 
L 250.120145 282.436416 
L 250.4448 281.837664 
L 250.769455 281.771136 
L 251.094109 282.835584 
L 251.418764 281.63808 
L 251.743418 283.367808 
L 252.068073 283.30128 
L 252.392727 281.039328 
L 252.717382 281.105856 
L 253.042036 280.573632 
L 253.366691 277.180704 
L 253.691345 278.577792 
L 254.016 279.376128 
L 254.340655 279.376128 
L 254.665309 280.906272 
L 254.989964 278.843904 
L 255.314618 279.110016 
L 255.639273 278.710848 
L 255.963927 279.509184 
L 256.288582 278.045568 
L 256.613236 278.045568 
L 256.937891 277.247232 
L 257.5872 276.914592 
L 257.911855 275.251392 
L 258.236509 276.182784 
L 258.561164 275.31792 
L 258.885818 273.521664 
L 259.210473 275.384448 
L 259.535127 275.118336 
L 259.859782 275.850144 
L 260.184436 274.65264 
L 260.509091 275.517504 
L 260.833745 273.787776 
L 261.1584 273.521664 
L 261.483055 273.055968 
L 261.807709 271.791936 
L 262.132364 271.791936 
L 262.457018 271.060128 
L 262.781673 271.32624 
L 263.106327 269.396928 
L 263.430982 268.465536 
L 263.755636 269.130816 
L 264.080291 268.731648 
L 264.404945 267.800256 
L 265.054255 271.193184 
L 265.378909 269.463456 
L 265.703564 270.062208 
L 266.028218 271.392768 
L 266.352873 270.195264 
L 266.677527 269.463456 
L 267.002182 268.132896 
L 267.326836 268.399008 
L 267.651491 267.401088 
L 267.976145 268.132896 
L 268.3008 267.733728 
L 268.625455 266.004 
L 268.950109 265.67136 
L 269.274764 264.873024 
L 269.599418 262.145376 
L 269.924073 260.68176 
L 270.248727 260.548704 
L 270.573382 259.949952 
L 270.898036 258.220224 
L 271.547345 260.814816 
L 271.872 264.606912 
L 272.521309 265.471776 
L 272.845964 263.542464 
L 273.170618 263.941632 
L 273.495273 264.939552 
L 273.819927 265.33872 
L 274.144582 265.405248 
L 274.469236 266.469696 
L 274.793891 265.139136 
L 275.118545 266.735808 
L 275.4432 266.602752 
L 275.767855 268.132896 
L 276.092509 268.265952 
L 276.417164 272.191104 
L 276.741818 270.594432 
L 277.066473 270.527904 
L 277.715782 267.534144 
L 278.040436 266.868864 
L 278.365091 267.134976 
L 278.689745 268.99776 
L 279.0144 269.729568 
L 279.339055 269.3304 
L 279.663709 269.463456 
L 279.988364 269.197344 
L 280.313018 265.67136 
L 280.962327 264.274272 
L 281.286982 266.004 
L 281.611636 266.203584 
L 281.936291 266.070528 
L 282.5856 269.862624 
L 282.910255 270.461376 
L 283.559564 267.068448 
L 283.884218 266.602752 
L 284.533527 269.729568 
L 284.858182 268.199424 
L 285.182836 269.197344 
L 285.507491 268.532064 
L 285.832145 268.99776 
L 286.1568 268.132896 
L 286.481455 268.132896 
L 286.806109 268.598592 
L 287.455418 268.931232 
L 288.104727 272.856384 
L 288.429382 271.99152 
L 288.754036 271.99152 
L 289.078691 271.791936 
L 289.403345 270.860544 
L 289.728 271.592352 
L 290.052655 270.727488 
L 290.377309 271.459296 
L 290.701964 268.99776 
L 291.026618 269.729568 
L 291.351273 269.796096 
L 291.675927 270.195264 
L 292.000582 270.394848 
L 292.325236 268.532064 
L 292.649891 268.66512 
L 292.974545 265.405248 
L 293.2992 265.33872 
L 293.623855 265.604832 
L 293.948509 265.139136 
L 294.273164 266.536224 
L 294.597818 266.602752 
L 294.922473 266.802336 
L 295.571782 263.076768 
L 295.896436 264.806496 
L 296.221091 263.808576 
L 296.545745 263.742048 
L 296.8704 263.542464 
L 297.844364 268.931232 
L 298.169018 269.197344 
L 299.142982 270.594432 
L 299.467636 269.197344 
L 299.792291 270.66096 
L 300.116945 270.860544 
L 300.4416 270.461376 
L 300.766255 270.66096 
L 301.090909 270.9936 
L 301.415564 269.3304 
L 301.740218 271.259712 
L 302.064873 271.193184 
L 302.389527 272.257632 
L 302.714182 269.929152 
L 303.363491 268.199424 
L 303.688145 269.3304 
L 304.0128 267.134976 
L 304.337455 267.6672 
L 304.662109 267.33456 
L 304.986764 266.735808 
L 305.311418 265.00608 
L 305.636073 266.33664 
L 305.960727 265.139136 
L 306.285382 265.937472 
L 306.610036 264.407328 
L 306.934691 267.134976 
L 307.259345 267.800256 
L 308.233309 275.916672 
L 308.557964 274.852224 
L 308.882618 274.386528 
L 309.207273 274.519584 
L 309.531927 273.588192 
L 309.856582 276.581952 
L 310.181236 276.049728 
L 310.505891 278.112096 
L 310.830545 279.176544 
L 311.1552 279.176544 
L 311.479855 278.112096 
L 312.453818 272.257632 
L 312.778473 273.055968 
L 313.103127 271.459296 
L 313.427782 272.390688 
L 314.077091 272.32416 
L 314.401745 271.791936 
L 314.7264 272.32416 
L 315.051055 271.259712 
L 315.375709 274.120416 
L 315.700364 271.924992 
L 316.025018 271.060128 
L 316.349673 269.130816 
L 316.674327 270.461376 
L 316.998982 270.062208 
L 317.323636 266.469696 
L 317.648291 267.00192 
L 317.972945 269.529984 
L 318.2976 269.796096 
L 318.622255 269.197344 
L 318.946909 267.866784 
L 319.271564 268.798176 
L 319.920873 267.534144 
L 320.245527 265.33872 
L 320.570182 265.272192 
L 320.894836 264.274272 
L 321.219491 267.134976 
L 321.544145 267.00192 
L 322.193455 269.66304 
L 322.842764 268.33248 
L 323.167418 266.33664 
L 323.492073 266.33664 
L 323.816727 265.804416 
L 324.141382 268.399008 
L 324.466036 267.600672 
L 325.115345 268.066368 
L 325.44 268.798176 
L 326.089309 265.737888 
L 326.413964 266.270112 
L 326.738618 266.270112 
L 327.063273 266.137056 
L 327.387927 268.265952 
L 327.712582 267.00192 
L 328.037236 267.933312 
L 328.361891 267.6672 
L 329.0112 266.270112 
L 329.335855 267.800256 
L 329.660509 264.739968 
L 329.985164 264.274272 
L 330.634473 261.879264 
L 331.283782 256.889664 
L 331.608436 257.887584 
L 331.933091 258.419808 
L 332.257745 261.147456 
L 332.5824 262.278432 
L 332.907055 261.080928 
L 333.231709 258.552864 
L 333.556364 258.02064 
L 333.881018 254.494656 
L 334.205673 253.629792 
L 334.530327 255.492576 
L 334.854982 254.02896 
L 335.179636 254.827296 
L 335.504291 251.0352 
L 335.828945 250.569504 
L 336.1536 251.500896 
L 336.478255 250.170336 
L 337.127564 252.099648 
L 337.452218 253.829376 
L 338.426182 246.444768 
L 338.750836 244.648512 
L 339.075491 246.976992 
L 339.400145 250.502976 
L 339.7248 251.567424 
L 340.049455 249.638112 
L 340.374109 248.906304 
L 340.698764 247.37616 
L 341.023418 251.0352 
L 341.348073 252.432288 
L 341.672727 252.36576 
L 342.322036 258.619392 
L 342.646691 260.947872 
L 342.971345 260.548704 
L 343.296 261.480096 
L 343.620655 260.881344 
L 343.945309 262.34496 
L 344.269964 261.480096 
L 344.594618 261.0144 
L 344.919273 259.01856 
L 345.243927 260.548704 
L 345.893236 257.754528 
L 346.217891 255.825216 
L 346.542545 255.891744 
L 346.8672 256.35744 
L 347.191855 253.36368 
L 347.516509 252.36576 
L 347.841164 251.966592 
L 348.165818 248.70672 
L 348.490473 247.110048 
L 348.815127 249.505056 
L 349.139782 250.103808 
L 349.464436 251.434368 
L 349.789091 250.236864 
L 350.113745 244.848096 
L 350.4384 243.517536 
L 350.763055 243.517536 
L 351.087709 241.455168 
L 351.412364 244.914624 
L 351.737018 243.850176 
L 352.061673 241.920864 
L 352.386327 243.983232 
L 352.710982 241.38864 
L 353.035636 240.39072 
L 353.360291 241.72128 
L 353.684945 243.650592 
L 354.0096 241.38864 
L 354.658909 240.457248 
L 354.983564 238.128768 
L 355.957527 234.336672 
L 356.282182 234.669312 
L 356.606836 233.07264 
L 356.931491 234.802368 
L 357.256145 235.40112 
L 357.905455 238.927104 
L 358.230109 237.596544 
L 358.554764 237.530016 
L 358.879418 237.7296 
L 359.204073 236.532096 
L 359.528727 236.39904 
L 359.853382 234.868896 
L 360.178036 236.532096 
L 360.502691 234.004032 
L 360.827345 233.73792 
L 361.152 232.141248 
L 361.476655 231.74208 
L 361.801309 232.274304 
L 362.125964 227.218176 
L 362.450618 229.4136 
L 362.775273 226.486368 
L 363.099927 226.353312 
L 363.424582 227.151648 
L 363.749236 226.41984 
L 364.073891 223.75872 
L 364.398545 223.226496 
L 364.7232 225.488448 
L 365.047855 226.819008 
L 365.372509 224.024832 
L 365.697164 224.557056 
L 366.021818 223.026912 
L 366.346473 223.625664 
L 366.671127 221.43024 
L 366.995782 218.43648 
L 367.320436 214.045632 
L 367.969745 210.053952 
L 368.2944 210.918816 
L 368.619055 206.927136 
L 368.943709 204.931296 
L 369.268364 204.79824 
L 369.593018 206.79408 
L 369.917673 207.060192 
L 370.242327 211.184928 
L 370.566982 212.848128 
L 370.891636 212.249376 
L 371.216291 213.047712 
L 372.190255 209.255616 
L 372.514909 208.390752 
L 372.839564 209.12256 
L 373.164218 210.253536 
L 373.488873 209.189088 
L 373.813527 207.525888 
L 374.138182 205.197408 
L 374.787491 205.79616 
L 375.112145 209.322144 
L 375.4368 211.184928 
L 375.761455 209.12256 
L 376.086109 207.925056 
L 376.410764 207.525888 
L 376.735418 209.854368 
L 377.060073 207.326304 
L 377.384727 206.860608 
L 378.034036 208.922976 
L 378.358691 208.590336 
L 378.683345 207.925056 
L 379.008 205.862688 
L 379.332655 202.004064 
L 379.657309 201.737952 
L 379.981964 200.873088 
L 380.631273 209.189088 
L 380.955927 207.658944 
L 381.280582 207.858528 
L 381.605236 206.661024 
L 381.929891 204.066432 
L 382.254545 204.4656 
L 383.228509 197.14752 
L 383.553164 197.014464 
L 383.877818 194.685984 
L 384.202473 196.615296 
L 384.527127 194.552928 
L 384.851782 194.4864 
L 385.176436 197.879328 
L 385.501091 197.14752 
L 385.825745 197.347104 
L 386.1504 193.82112 
L 386.475055 192.024864 
L 386.799709 186.769152 
L 387.124364 186.436512 
L 387.449018 184.706784 
L 387.773673 187.301376 
L 388.098327 187.8336 
L 388.422982 187.234848 
L 388.747636 186.037344 
L 389.072291 185.372064 
L 389.7216 182.710944 
L 390.046255 181.579968 
L 390.370909 182.112192 
L 390.695564 182.245248 
L 391.020218 184.706784 
L 391.344873 185.904288 
L 391.994182 189.4968 
L 392.318836 194.020704 
L 392.968145 192.956256 
L 393.2928 191.891808 
L 393.617455 192.424032 
L 393.942109 195.218208 
L 394.266764 189.363744 
L 394.591418 187.8336 
L 395.240727 190.16208 
L 395.890036 188.764992 
L 396.214691 186.103872 
L 396.539345 188.565408 
L 396.864 186.902208 
L 397.188655 186.968736 
L 397.513309 182.844 
L 397.837964 181.247328 
L 398.162618 181.912608 
L 398.487273 181.779552 
L 398.487273 181.779552 
" style="fill:none;stroke:#ff7f0e;stroke-linecap:square;stroke-width:1.5;"/>
   </g>
   <g id="line2d_15">
    <path clip-path="url(#pafbe6abe62)" d="M 73.832727 294.2784 
L 74.482036 295.431552 
L 74.806691 294.50016 
L 75.131345 294.455808 
L 75.456 295.076736 
L 75.780655 295.342848 
L 76.105309 297.072576 
L 76.429964 297.516096 
L 76.754618 295.963776 
L 77.079273 297.028224 
L 77.403927 297.294336 
L 77.728582 296.895168 
L 78.053236 297.782208 
L 79.351855 299.290176 
L 79.676509 300.177216 
L 80.325818 300.398976 
L 80.650473 300.088512 
L 80.975127 300.132864 
L 81.299782 300.576384 
L 81.624436 300.088512 
L 81.949091 300.532032 
L 82.273745 300.620736 
L 82.5984 300.48768 
L 82.923055 301.197312 
L 83.247709 301.59648 
L 83.897018 301.640832 
L 84.221673 301.37472 
L 84.546327 301.773888 
L 85.195636 301.685184 
L 85.520291 301.286016 
L 85.844945 301.330368 
L 86.494255 300.088512 
L 86.818909 300.088512 
L 87.143564 300.798144 
L 87.792873 299.911104 
L 88.442182 300.753792 
L 88.766836 300.398976 
L 89.416145 300.532032 
L 89.7408 299.8224 
L 90.065455 300.354624 
L 90.390109 300.665088 
L 90.714764 299.778048 
L 91.039418 300.26592 
L 91.364073 300.398976 
L 91.688727 300.886848 
L 92.013382 301.906944 
L 92.338036 301.59648 
L 92.662691 301.640832 
L 92.987345 301.906944 
L 93.312 301.685184 
L 93.636655 301.951296 
L 93.961309 301.81824 
L 94.285964 302.48352 
L 94.935273 302.838336 
L 95.259927 302.660928 
L 95.584582 303.503616 
L 95.909236 303.414912 
L 96.233891 303.681024 
L 96.558545 302.749632 
L 96.8832 302.48352 
L 97.207855 303.015744 
L 97.532509 302.971392 
L 97.857164 302.749632 
L 98.181818 302.838336 
L 98.506473 302.749632 
L 98.831127 302.173056 
L 99.155782 301.906944 
L 99.480436 300.886848 
L 99.805091 301.197312 
L 100.129745 300.886848 
L 100.779055 302.882688 
L 101.428364 302.350464 
L 101.753018 302.48352 
L 102.077673 302.793984 
L 102.402327 302.48352 
L 102.726982 301.729536 
L 103.051636 301.862592 
L 103.376291 303.015744 
L 103.700945 302.749632 
L 104.0256 301.862592 
L 104.350255 301.552128 
L 104.674909 301.59648 
L 104.999564 301.862592 
L 105.324218 300.576384 
L 105.973527 301.019904 
L 106.622836 301.773888 
L 106.947491 301.862592 
L 107.272145 302.439168 
L 107.5968 302.660928 
L 108.246109 301.685184 
L 108.570764 301.951296 
L 108.895418 301.419072 
L 109.220073 301.773888 
L 109.544727 301.773888 
L 109.869382 301.951296 
L 110.194036 302.660928 
L 110.518691 302.882688 
L 110.843345 302.04 
L 111.168 302.439168 
L 111.492655 302.04 
L 111.817309 300.886848 
L 112.141964 300.398976 
L 112.466618 301.330368 
L 112.791273 300.842496 
L 113.115927 300.576384 
L 113.440582 301.552128 
L 113.765236 301.197312 
L 114.414545 302.04 
L 114.7392 301.862592 
L 115.063855 301.906944 
L 115.388509 302.70528 
L 115.713164 303.104448 
L 116.037818 303.015744 
L 116.362473 302.439168 
L 116.687127 301.552128 
L 117.011782 302.527872 
L 117.336436 302.350464 
L 117.985745 301.507776 
L 118.3104 301.37472 
L 118.635055 301.995648 
L 120.582982 304.03584 
L 121.232291 303.902784 
L 121.556945 304.390656 
L 122.206255 303.947136 
L 122.530909 304.346304 
L 122.855564 303.547968 
L 123.180218 303.902784 
L 123.504873 304.03584 
L 124.478836 304.967232 
L 124.803491 304.301952 
L 125.128145 304.523712 
L 125.4528 305.233344 
L 125.777455 305.277696 
L 126.102109 304.834176 
L 126.751418 305.854272 
L 127.076073 306.209088 
L 127.400727 306.342144 
L 127.725382 306.03168 
L 128.050036 306.25344 
L 128.374691 306.164736 
L 128.699345 306.430848 
L 129.348655 306.164736 
L 129.673309 306.164736 
L 129.997964 306.4752 
L 130.322618 306.297792 
L 130.647273 305.80992 
L 130.971927 306.209088 
L 131.296582 305.987328 
L 131.945891 306.25344 
L 132.270545 306.164736 
L 132.919855 305.721216 
L 133.569164 306.03168 
L 133.893818 305.632512 
L 134.218473 305.898624 
L 134.543127 305.676864 
L 135.192436 305.765568 
L 135.517091 305.055936 
L 135.841745 305.14464 
L 136.1664 305.100288 
L 136.491055 305.233344 
L 136.815709 305.055936 
L 137.140364 305.233344 
L 137.465018 305.632512 
L 137.789673 305.765568 
L 138.114327 305.676864 
L 138.438982 306.076032 
L 138.763636 306.076032 
L 139.088291 305.854272 
L 139.412945 305.854272 
L 139.7376 304.878528 
L 140.386909 304.523712 
L 141.360873 303.59232 
L 141.685527 303.503616 
L 142.010182 303.59232 
L 142.659491 304.213248 
L 142.984145 304.168896 
L 143.3088 304.301952 
L 143.633455 303.991488 
L 143.958109 304.168896 
L 144.282764 303.547968 
L 144.607418 303.81408 
L 144.932073 303.681024 
L 145.581382 303.636672 
L 145.906036 303.81408 
L 146.230691 304.168896 
L 146.555345 304.789824 
L 146.88 305.055936 
L 147.529309 304.346304 
L 147.853964 304.390656 
L 148.178618 304.568064 
L 148.827927 304.612416 
L 149.152582 305.410752 
L 149.477236 305.055936 
L 149.801891 305.055936 
L 150.126545 304.789824 
L 150.4512 305.011584 
L 151.100509 304.612416 
L 151.749818 303.769728 
L 152.074473 303.547968 
L 152.723782 303.947136 
L 153.048436 303.636672 
L 153.373091 303.060096 
L 154.0224 302.971392 
L 154.347055 303.237504 
L 154.671709 303.1488 
L 154.996364 303.37056 
L 155.321018 302.92704 
L 155.645673 303.237504 
L 155.970327 303.725376 
L 156.294982 303.060096 
L 156.619636 303.59232 
L 156.944291 303.281856 
L 157.5936 303.281856 
L 157.918255 302.527872 
L 158.242909 302.92704 
L 158.892218 302.616576 
L 159.216873 303.81408 
L 159.541527 303.636672 
L 159.866182 303.991488 
L 160.190836 304.70112 
L 160.515491 304.92288 
L 160.840145 304.390656 
L 161.1648 304.47936 
L 161.489455 303.991488 
L 161.814109 303.193152 
L 162.138764 303.37056 
L 162.463418 303.281856 
L 162.788073 303.37056 
L 163.112727 303.81408 
L 163.437382 304.03584 
L 164.411345 304.2576 
L 164.736 304.47936 
L 165.060655 303.902784 
L 165.385309 303.59232 
L 165.709964 302.971392 
L 166.034618 303.947136 
L 166.359273 304.435008 
L 166.683927 304.70112 
L 167.008582 304.789824 
L 167.333236 304.390656 
L 167.657891 304.346304 
L 167.982545 304.70112 
L 168.3072 304.523712 
L 168.956509 304.523712 
L 169.281164 304.390656 
L 169.605818 303.547968 
L 169.930473 303.503616 
L 170.255127 304.124544 
L 170.579782 303.947136 
L 170.904436 304.523712 
L 171.229091 304.168896 
L 171.553745 305.055936 
L 171.8784 305.233344 
L 172.527709 305.721216 
L 173.177018 306.297792 
L 173.501673 306.209088 
L 173.826327 306.342144 
L 174.475636 306.25344 
L 174.800291 306.076032 
L 175.4496 305.499456 
L 176.098909 306.342144 
L 176.423564 306.519552 
L 176.748218 306.297792 
L 177.072873 306.519552 
L 178.046836 305.58816 
L 178.696145 305.854272 
L 179.0208 305.58816 
L 179.345455 305.632512 
L 179.994764 305.011584 
L 180.319418 305.011584 
L 181.618036 303.991488 
L 181.942691 304.124544 
L 182.267345 303.769728 
L 182.592 304.390656 
L 183.890618 304.301952 
L 184.215273 304.124544 
L 184.539927 304.2576 
L 184.864582 303.414912 
L 185.189236 302.971392 
L 185.838545 303.503616 
L 186.487855 303.503616 
L 186.812509 302.92704 
L 187.137164 303.59232 
L 187.461818 303.193152 
L 187.786473 302.527872 
L 188.111127 302.838336 
L 188.435782 303.414912 
L 188.760436 303.681024 
L 189.085091 303.281856 
L 189.409745 303.060096 
L 189.7344 303.326208 
L 190.059055 302.971392 
L 190.383709 303.193152 
L 190.708364 302.084352 
L 191.033018 302.48352 
L 191.357673 302.660928 
L 191.682327 303.104448 
L 192.006982 303.193152 
L 192.331636 303.503616 
L 192.656291 303.326208 
L 192.980945 303.858432 
L 193.3056 303.636672 
L 193.630255 304.080192 
L 193.954909 303.81408 
L 194.279564 303.991488 
L 194.928873 304.568064 
L 195.578182 304.745472 
L 195.902836 304.878528 
L 196.227491 304.878528 
L 196.552145 304.47936 
L 197.201455 304.346304 
L 197.526109 305.055936 
L 197.850764 304.47936 
L 198.500073 304.213248 
L 199.149382 305.188992 
L 199.798691 304.47936 
L 200.123345 304.568064 
L 200.772655 304.080192 
L 201.097309 304.080192 
L 201.421964 304.2576 
L 201.746618 304.03584 
L 202.395927 303.193152 
L 202.720582 303.193152 
L 203.045236 303.414912 
L 203.369891 302.92704 
L 203.694545 303.104448 
L 204.0192 303.636672 
L 204.343855 303.503616 
L 204.668509 303.902784 
L 204.993164 304.03584 
L 205.317818 304.523712 
L 205.642473 304.346304 
L 205.967127 304.03584 
L 206.291782 302.971392 
L 206.616436 302.660928 
L 206.941091 301.773888 
L 207.265745 302.48352 
L 207.5904 301.729536 
L 207.915055 301.906944 
L 208.239709 301.773888 
L 208.564364 302.616576 
L 208.889018 302.749632 
L 209.213673 303.015744 
L 210.187636 303.193152 
L 210.512291 303.59232 
L 210.836945 304.346304 
L 211.1616 304.435008 
L 211.486255 304.745472 
L 211.810909 304.789824 
L 212.135564 304.301952 
L 212.460218 305.055936 
L 212.784873 305.322048 
L 213.109527 305.410752 
L 213.434182 305.14464 
L 213.758836 305.233344 
L 214.083491 304.70112 
L 214.408145 304.745472 
L 214.7328 304.568064 
L 215.057455 304.70112 
L 215.382109 305.322048 
L 215.706764 305.58816 
L 216.031418 305.499456 
L 216.680727 304.612416 
L 217.005382 304.612416 
L 217.330036 304.967232 
L 217.654691 305.011584 
L 218.953309 304.568064 
L 219.277964 304.745472 
L 219.927273 303.237504 
L 220.251927 303.37056 
L 220.576582 304.124544 
L 220.901236 304.213248 
L 221.225891 303.681024 
L 221.550545 304.124544 
L 221.8752 303.81408 
L 222.199855 304.168896 
L 222.849164 303.947136 
L 223.498473 303.37056 
L 224.147782 302.971392 
L 224.472436 303.104448 
L 224.797091 302.838336 
L 225.4464 304.301952 
L 226.095709 304.612416 
L 226.420364 304.346304 
L 226.745018 304.47936 
L 227.069673 304.03584 
L 227.718982 304.080192 
L 228.043636 304.47936 
L 228.368291 303.858432 
L 228.692945 303.547968 
L 229.0176 302.882688 
L 229.342255 302.660928 
L 229.666909 303.237504 
L 229.991564 303.37056 
L 230.640873 302.971392 
L 231.290182 303.769728 
L 231.614836 303.1488 
L 232.5888 303.104448 
L 232.913455 303.459264 
L 233.562764 304.47936 
L 233.887418 304.435008 
L 234.212073 303.725376 
L 234.536727 303.769728 
L 234.861382 304.080192 
L 235.510691 303.326208 
L 235.835345 303.237504 
L 236.16 302.749632 
L 236.809309 303.725376 
L 237.458618 301.862592 
L 237.783273 302.616576 
L 238.107927 303.060096 
L 238.432582 303.104448 
L 239.081891 302.749632 
L 239.406545 303.281856 
L 239.7312 302.793984 
L 240.380509 303.725376 
L 240.705164 304.168896 
L 241.029818 303.459264 
L 241.354473 303.459264 
L 241.679127 303.725376 
L 242.003782 303.37056 
L 242.328436 304.124544 
L 242.653091 303.858432 
L 243.3024 304.568064 
L 243.627055 304.2576 
L 243.951709 303.193152 
L 244.276364 302.971392 
L 244.925673 303.326208 
L 245.250327 303.015744 
L 245.574982 303.414912 
L 246.224291 301.862592 
L 246.548945 301.286016 
L 246.8736 301.81824 
L 247.198255 301.507776 
L 247.522909 302.173056 
L 247.847564 301.685184 
L 248.172218 301.773888 
L 248.496873 301.995648 
L 249.146182 301.729536 
L 249.470836 302.394816 
L 249.795491 302.350464 
L 250.120145 302.882688 
L 250.4448 302.660928 
L 250.769455 302.749632 
L 251.094109 302.70528 
L 251.418764 302.92704 
L 251.743418 303.681024 
L 252.392727 303.991488 
L 252.717382 303.193152 
L 253.042036 303.104448 
L 253.366691 303.414912 
L 253.691345 303.193152 
L 254.340655 302.128704 
L 254.665309 302.084352 
L 254.989964 302.616576 
L 255.314618 301.773888 
L 255.639273 302.04 
L 255.963927 301.685184 
L 256.288582 302.26176 
L 256.613236 301.640832 
L 257.5872 301.685184 
L 257.911855 302.084352 
L 258.236509 302.217408 
L 258.885818 303.858432 
L 259.210473 303.681024 
L 259.535127 304.080192 
L 259.859782 304.124544 
L 260.184436 303.636672 
L 260.509091 304.213248 
L 260.833745 303.547968 
L 261.1584 303.237504 
L 261.483055 303.858432 
L 262.457018 304.523712 
L 262.781673 304.346304 
L 263.106327 304.346304 
L 263.430982 303.81408 
L 263.755636 303.681024 
L 264.080291 303.414912 
L 264.404945 304.390656 
L 264.7296 304.080192 
L 265.378909 303.104448 
L 265.703564 303.769728 
L 266.028218 303.902784 
L 266.352873 303.459264 
L 266.677527 303.547968 
L 267.002182 303.104448 
L 267.326836 303.326208 
L 268.3008 302.616576 
L 269.599418 302.882688 
L 269.924073 302.793984 
L 270.573382 302.971392 
L 271.222691 301.951296 
L 271.547345 302.48352 
L 271.872 302.572224 
L 272.845964 303.104448 
L 273.170618 302.92704 
L 273.495273 302.48352 
L 273.819927 302.306112 
L 274.144582 302.616576 
L 274.469236 302.527872 
L 275.118545 301.37472 
L 275.4432 300.9312 
L 275.767855 301.507776 
L 276.092509 301.064256 
L 276.417164 299.467584 
L 276.741818 299.511936 
L 277.066473 300.665088 
L 277.391127 301.108608 
L 278.040436 301.330368 
L 278.365091 301.330368 
L 278.689745 300.753792 
L 279.0144 301.507776 
L 279.339055 301.507776 
L 279.988364 302.572224 
L 280.313018 302.660928 
L 280.637673 303.015744 
L 280.962327 302.04 
L 281.286982 302.128704 
L 281.936291 303.769728 
L 282.260945 303.547968 
L 282.5856 303.636672 
L 282.910255 304.03584 
L 283.234909 303.725376 
L 283.559564 303.902784 
L 283.884218 304.435008 
L 284.208873 304.612416 
L 284.533527 304.080192 
L 284.858182 304.2576 
L 285.182836 304.080192 
L 285.507491 304.523712 
L 285.832145 304.2576 
L 286.1568 304.346304 
L 286.481455 303.681024 
L 286.806109 303.681024 
L 287.130764 304.2576 
L 287.455418 304.080192 
L 288.429382 304.789824 
L 288.754036 305.188992 
L 289.078691 304.878528 
L 289.403345 305.721216 
L 289.728 305.322048 
L 290.052655 305.499456 
L 290.377309 305.854272 
L 290.701964 305.765568 
L 291.026618 306.209088 
L 291.351273 306.25344 
L 291.675927 306.608256 
L 292.325236 305.987328 
L 292.649891 305.410752 
L 292.974545 305.277696 
L 293.2992 305.721216 
L 293.623855 305.854272 
L 293.948509 306.209088 
L 294.273164 306.120384 
L 294.597818 306.430848 
L 294.922473 306.4752 
L 295.247127 306.785664 
L 295.896436 306.342144 
L 296.221091 306.563904 
L 296.545745 306.519552 
L 296.8704 306.741312 
L 297.519709 306.430848 
L 297.844364 306.69696 
L 298.169018 306.608256 
L 299.792291 305.543808 
L 300.116945 305.676864 
L 300.4416 306.03168 
L 300.766255 306.209088 
L 301.415564 305.765568 
L 302.064873 305.898624 
L 302.714182 306.120384 
L 303.038836 306.519552 
L 303.363491 306.4752 
L 303.688145 306.608256 
L 304.662109 306.209088 
L 305.311418 306.608256 
L 305.636073 306.652608 
L 306.285382 306.297792 
L 306.610036 306.91872 
L 306.934691 307.184832 
L 307.584 307.096128 
L 307.908655 306.69696 
L 308.233309 306.563904 
L 308.882618 306.830016 
L 309.207273 307.096128 
L 309.856582 307.184832 
L 310.181236 307.406592 
L 312.453818 307.495296 
L 313.103127 307.495296 
L 315.700364 307.229184 
L 316.025018 307.273536 
L 316.349673 307.096128 
L 316.998982 307.317888 
L 317.323636 307.184832 
L 317.648291 307.317888 
L 317.972945 307.229184 
L 318.2976 306.963072 
L 318.622255 307.096128 
L 318.946909 306.874368 
L 319.596218 306.963072 
L 319.920873 307.273536 
L 320.245527 307.14048 
L 321.219491 307.36224 
L 321.544145 307.051776 
L 321.8688 306.91872 
L 322.518109 306.297792 
L 322.842764 306.25344 
L 323.492073 306.830016 
L 323.816727 306.91872 
L 324.466036 306.519552 
L 326.089309 307.495296 
L 326.413964 307.450944 
L 326.738618 307.539648 
L 327.063273 307.450944 
L 327.387927 307.229184 
L 329.0112 307.584 
L 398.487273 307.584 
L 398.487273 307.584 
" style="fill:none;stroke:#2ca02c;stroke-linecap:square;stroke-width:1.5;"/>
   </g>
   <g id="line2d_16">
    <path clip-path="url(#pafbe6abe62)" d="M 73.832727 294.2784 
L 74.157382 293.480064 
L 74.482036 293.413536 
L 74.806691 293.180688 
L 75.131345 293.912496 
L 75.456 293.712912 
L 75.780655 294.344928 
L 76.429964 291.717072 
L 76.754618 292.415616 
L 77.079273 292.249296 
L 77.403927 291.683808 
L 77.728582 291.7836 
L 78.053236 292.216032 
L 78.377891 291.351168 
L 78.702545 290.852208 
L 79.0272 290.918736 
L 79.351855 290.719152 
L 80.001164 291.184848 
L 80.325818 291.085056 
L 80.650473 289.721232 
L 80.975127 289.521648 
L 81.299782 288.191088 
L 81.624436 289.022688 
L 82.273745 289.089216 
L 82.5984 288.590256 
L 82.923055 287.858448 
L 83.247709 288.091296 
L 83.572364 287.592336 
L 83.897018 287.525808 
L 84.221673 286.794 
L 84.546327 285.197328 
L 84.870982 285.29712 
L 85.195636 284.066352 
L 85.520291 283.833504 
L 85.844945 283.268016 
L 86.1696 283.30128 
L 86.818909 284.731632 
L 87.143564 284.46552 
L 87.468218 283.999824 
L 87.792873 283.168224 
L 88.117527 283.30128 
L 88.442182 284.46552 
L 88.766836 283.999824 
L 89.091491 283.101696 
L 89.416145 283.035168 
L 89.7408 285.829344 
L 90.065455 286.161984 
L 90.390109 287.159904 
L 90.714764 287.326224 
L 91.688727 286.594416 
L 92.013382 287.559072 
L 92.338036 287.559072 
L 92.662691 287.692128 
L 92.987345 287.12664 
L 93.312 287.026848 
L 93.636655 287.492544 
L 93.961309 287.159904 
L 94.285964 286.161984 
L 94.610618 286.527888 
L 94.935273 285.496704 
L 95.584582 285.363648 
L 96.233891 284.099616 
L 96.558545 284.13288 
L 97.532509 283.13496 
L 97.857164 283.201488 
L 98.506473 284.731632 
L 98.831127 284.398992 
L 99.155782 284.432256 
L 99.480436 283.933296 
L 99.805091 283.035168 
L 100.129745 283.434336 
L 100.4544 283.600656 
L 100.779055 282.003984 
L 101.428364 280.9728 
L 101.753018 280.939536 
L 102.077673 279.376128 
L 102.402327 278.411472 
L 102.726982 278.211888 
L 103.051636 278.344944 
L 103.376291 278.211888 
L 103.700945 277.247232 
L 104.0256 277.347024 
L 104.350255 276.581952 
L 104.674909 276.216048 
L 104.999564 276.448896 
L 105.324218 274.719168 
L 105.648873 274.186944 
L 105.973527 274.918752 
L 106.298182 273.854304 
L 106.622836 274.885488 
L 106.947491 274.353264 
L 107.272145 274.885488 
L 107.5968 276.914592 
L 108.246109 278.012304 
L 108.570764 277.014384 
L 108.895418 277.180704 
L 109.220073 279.209808 
L 109.544727 279.110016 
L 109.869382 277.912512 
L 110.194036 278.611056 
L 110.843345 277.945776 
L 111.168 277.81272 
L 111.817309 278.411472 
L 112.141964 278.278416 
L 112.466618 276.14952 
L 112.791273 276.382368 
L 113.440582 275.617296 
L 114.089891 273.920832 
L 114.414545 274.053888 
L 115.063855 273.288816 
L 115.388509 274.353264 
L 115.713164 275.916672 
L 116.037818 275.218128 
L 116.362473 275.550768 
L 116.687127 276.116256 
L 117.011782 277.613136 
L 117.661091 275.1516 
L 117.985745 274.120416 
L 118.3104 272.357424 
L 118.635055 273.355344 
L 118.959709 273.421872 
L 119.284364 272.856384 
L 119.609018 272.523744 
L 119.933673 271.15992 
L 120.258327 272.32416 
L 120.582982 272.789856 
L 120.907636 272.922912 
L 121.232291 271.758672 
L 121.8816 271.858464 
L 122.206255 270.561168 
L 122.530909 271.725408 
L 122.855564 271.060128 
L 123.180218 269.762832 
L 123.504873 270.9936 
L 123.829527 271.559088 
L 124.154182 270.860544 
L 124.478836 269.263872 
L 124.803491 268.897968 
L 125.128145 267.234768 
L 125.4528 266.369904 
L 125.777455 264.307536 
L 126.102109 263.475936 
L 126.426764 263.67552 
L 126.751418 261.779472 
L 127.076073 261.247248 
L 127.725382 258.552864 
L 128.050036 258.652656 
L 128.374691 258.320016 
L 129.024 255.991536 
L 129.348655 255.625632 
L 129.673309 254.827296 
L 129.997964 255.060144 
L 130.322618 254.794032 
L 130.971927 254.827296 
L 131.296582 251.36784 
L 131.621236 252.299232 
L 131.945891 251.467632 
L 132.919855 255.426048 
L 133.244509 258.453072 
L 133.569164 258.785712 
L 133.893818 258.552864 
L 134.543127 254.86056 
L 134.867782 255.592368 
L 135.192436 255.725424 
L 135.517091 256.557024 
L 135.841745 258.053904 
L 136.1664 257.255568 
L 136.491055 258.087168 
L 136.815709 257.588208 
L 137.140364 259.051824 
L 138.114327 259.983216 
L 138.438982 259.949952 
L 139.088291 258.85224 
L 139.7376 256.19112 
L 140.062255 255.326256 
L 140.711564 252.099648 
L 141.036218 254.162016 
L 141.360873 252.099648 
L 141.685527 254.3616 
L 142.010182 254.960352 
L 142.334836 253.330416 
L 142.659491 253.629792 
L 142.984145 253.729584 
L 143.3088 253.164096 
L 143.633455 253.463472 
L 143.958109 253.36368 
L 144.282764 251.833536 
L 144.607418 251.301312 
L 145.256727 246.777408 
L 145.581382 245.846016 
L 145.906036 245.945808 
L 146.230691 245.04768 
L 146.555345 246.910464 
L 146.88 246.8772 
L 147.204655 244.349136 
L 147.529309 244.182816 
L 147.853964 243.71712 
L 148.178618 243.683856 
L 148.503273 244.814832 
L 149.152582 242.38656 
L 149.477236 240.357456 
L 149.801891 241.22232 
L 150.126545 244.083024 
L 150.4512 243.983232 
L 150.775855 243.584064 
L 151.100509 245.04768 
L 151.425164 244.482192 
L 151.749818 244.914624 
L 152.074473 244.415664 
L 152.399127 243.584064 
L 152.723782 243.251424 
L 153.373091 244.315872 
L 153.697745 243.484272 
L 154.671709 241.821072 
L 154.996364 239.758704 
L 155.321018 239.925024 
L 155.645673 239.72544 
L 155.970327 238.72752 
L 156.294982 238.594464 
L 156.619636 237.696336 
L 156.944291 235.06848 
L 157.268945 235.56744 
L 157.5936 239.592384 
L 157.918255 239.55912 
L 158.242909 241.621488 
L 158.567564 242.586144 
L 158.892218 243.085104 
L 159.216873 244.182816 
L 159.541527 243.750384 
L 159.866182 244.282608 
L 160.190836 243.584064 
L 160.840145 242.918784 
L 161.1648 245.014416 
L 161.489455 245.646432 
L 161.814109 245.579904 
L 162.138764 245.779488 
L 162.788073 248.340816 
L 163.112727 246.278448 
L 164.086691 242.586144 
L 164.411345 243.683856 
L 165.060655 247.04352 
L 165.385309 246.178656 
L 165.709964 246.245184 
L 166.034618 248.107968 
L 166.359273 249.006096 
L 166.683927 249.405264 
L 167.008582 247.54248 
L 167.333236 250.636032 
L 167.982545 253.164096 
L 168.3072 253.164096 
L 168.631855 252.798192 
L 168.956509 252.86472 
L 169.281164 254.062224 
L 169.605818 252.53208 
L 169.930473 253.762848 
L 170.255127 253.36368 
L 170.579782 252.432288 
L 170.904436 251.0352 
L 171.229091 252.831456 
L 171.8784 254.02896 
L 172.203055 253.130832 
L 172.527709 255.126672 
L 172.852364 254.960352 
L 173.826327 253.396944 
L 174.150982 254.128752 
L 174.475636 253.962432 
L 174.800291 253.297152 
L 175.124945 254.594448 
L 175.4496 252.03312 
L 176.098909 249.172416 
L 176.423564 250.436448 
L 176.748218 247.87512 
L 177.072873 247.642272 
L 177.397527 249.505056 
L 177.722182 249.837696 
L 178.046836 249.53832 
L 178.371491 248.606928 
L 178.696145 249.03936 
L 179.345455 252.36576 
L 179.670109 251.401104 
L 179.994764 251.500896 
L 180.319418 252.299232 
L 180.644073 250.70256 
L 180.968727 253.263888 
L 181.293382 249.671376 
L 181.618036 250.436448 
L 182.267345 253.430208 
L 182.592 253.663056 
L 183.241309 255.52584 
L 183.565964 253.995696 
L 183.890618 254.494656 
L 184.215273 253.463472 
L 184.539927 253.629792 
L 184.864582 251.999856 
L 185.189236 252.299232 
L 185.513891 254.727504 
L 185.838545 256.091328 
L 186.1632 255.758688 
L 186.487855 257.18904 
L 186.812509 254.095488 
L 187.137164 252.831456 
L 187.461818 252.731664 
L 187.786473 252.798192 
L 188.111127 253.663056 
L 188.435782 253.496736 
L 188.760436 250.802352 
L 189.085091 252.831456 
L 189.409745 252.53208 
L 189.7344 251.767008 
L 190.059055 250.53624 
L 190.383709 250.36992 
L 190.708364 251.334576 
L 191.033018 251.20152 
L 191.357673 250.902144 
L 191.682327 250.86888 
L 192.006982 250.303392 
L 192.656291 250.236864 
L 192.980945 248.407344 
L 193.3056 248.739984 
L 193.630255 251.500896 
L 193.954909 252.36576 
L 194.279564 252.598608 
L 194.604218 254.561184 
L 194.928873 254.760768 
L 195.253527 256.058064 
L 195.578182 256.19112 
L 195.902836 255.426048 
L 196.227491 257.821056 
L 196.552145 255.559104 
L 196.8768 254.993616 
L 197.201455 255.791952 
L 197.526109 254.86056 
L 197.850764 254.627712 
L 198.175418 254.561184 
L 198.500073 254.827296 
L 198.824727 256.257648 
L 199.149382 256.823136 
L 199.474036 260.01648 
L 199.798691 259.218144 
L 200.123345 257.155776 
L 200.448 258.18696 
L 200.772655 255.758688 
L 201.421964 253.330416 
L 201.746618 253.663056 
L 202.395927 249.238944 
L 202.720582 248.640192 
L 203.045236 249.03936 
L 203.369891 247.475952 
L 203.694545 248.04144 
L 204.343855 246.744144 
L 204.668509 247.475952 
L 204.993164 248.87304 
L 205.317818 246.976992 
L 205.642473 246.145392 
L 205.967127 246.0456 
L 206.291782 246.511296 
L 206.941091 245.979072 
L 207.5904 247.841856 
L 207.915055 247.941648 
L 208.239709 247.309632 
L 208.564364 245.945808 
L 208.889018 245.313792 
L 209.213673 245.812752 
L 209.538327 243.983232 
L 209.862982 242.818992 
L 210.187636 245.014416 
L 210.836945 241.854336 
L 211.1616 241.521696 
L 211.486255 240.88968 
L 212.460218 246.21192 
L 212.784873 245.746224 
L 213.109527 243.916704 
L 213.434182 244.349136 
L 213.758836 243.916704 
L 214.083491 243.949968 
L 214.7328 245.313792 
L 215.057455 244.748304 
L 215.706764 246.910464 
L 216.031418 243.850176 
L 216.356073 245.114208 
L 216.680727 245.347056 
L 217.005382 243.916704 
L 217.330036 243.317952 
L 217.979345 240.88968 
L 218.628655 240.656832 
L 218.953309 241.654752 
L 219.277964 241.122528 
L 219.602618 239.159952 
L 219.927273 238.794048 
L 220.576582 236.73168 
L 220.901236 237.197376 
L 221.550545 240.423984 
L 222.199855 240.257664 
L 222.524509 239.625648 
L 223.173818 236.931264 
L 223.498473 236.299248 
L 223.823127 236.299248 
L 224.147782 237.23064 
L 224.472436 236.299248 
L 224.797091 235.800288 
L 225.4464 238.89384 
L 225.771055 240.091344 
L 226.095709 239.991552 
L 226.420364 240.690096 
L 226.745018 241.920864 
L 227.069673 240.690096 
L 227.394327 238.860576 
L 227.718982 239.758704 
L 228.368291 236.831472 
L 228.692945 237.762864 
L 229.0176 236.798208 
L 229.342255 237.06432 
L 229.991564 241.8876 
L 230.316218 242.486352 
L 230.640873 242.419824 
L 231.290182 243.484272 
L 231.614836 243.683856 
L 231.939491 243.38448 
L 233.238109 239.858496 
L 233.887418 239.259744 
L 234.536727 242.652672 
L 234.861382 242.087184 
L 235.186036 239.625648 
L 235.510691 240.590304 
L 235.835345 240.922944 
L 236.16 239.791968 
L 236.484655 239.525856 
L 236.809309 240.856416 
L 237.133964 240.856416 
L 237.458618 240.324192 
L 237.783273 238.827312 
L 238.107927 238.627728 
L 238.757236 236.898 
L 239.081891 236.631888 
L 239.406545 238.428144 
L 239.7312 238.461408 
L 240.055855 239.525856 
L 240.380509 237.39696 
L 240.705164 237.862656 
L 241.354473 245.04768 
L 241.679127 245.679696 
L 242.003782 243.484272 
L 242.328436 245.38032 
L 242.653091 244.54872 
L 242.977745 246.344976 
L 243.3024 247.37616 
L 243.627055 250.502976 
L 243.951709 250.336656 
L 244.276364 251.999856 
L 244.601018 252.6984 
L 244.925673 252.066384 
L 245.250327 253.230624 
L 245.574982 253.629792 
L 245.899636 250.86888 
L 246.224291 250.436448 
L 246.548945 249.139152 
L 246.8736 250.569504 
L 247.198255 249.471792 
L 247.522909 248.773248 
L 248.172218 246.278448 
L 248.496873 243.783648 
L 249.470836 245.71296 
L 249.795491 246.311712 
L 250.120145 245.280528 
L 250.4448 243.5508 
L 251.094109 244.083024 
L 251.418764 243.05184 
L 252.068073 246.37824 
L 252.392727 246.478032 
L 252.717382 246.777408 
L 253.042036 245.979072 
L 253.366691 243.351216 
L 253.691345 244.448928 
L 254.340655 243.71712 
L 254.665309 242.486352 
L 254.989964 243.38448 
L 255.314618 243.151632 
L 255.639273 244.947888 
L 255.963927 243.317952 
L 256.288582 245.214 
L 257.262545 240.856416 
L 257.5872 240.39072 
L 257.911855 238.428144 
L 258.236509 239.758704 
L 258.561164 238.89384 
L 258.885818 239.459328 
L 259.210473 237.596544 
L 259.535127 239.858496 
L 259.859782 239.925024 
L 260.184436 238.794048 
L 260.509091 238.162032 
L 260.833745 239.426064 
L 261.483055 243.750384 
L 262.132364 241.954128 
L 262.457018 242.253504 
L 262.781673 243.584064 
L 263.106327 244.249344 
L 263.430982 243.21816 
L 264.080291 242.120448 
L 264.404945 240.656832 
L 265.054255 239.159952 
L 265.378909 238.195296 
L 265.703564 236.033136 
L 266.028218 236.964528 
L 266.352873 236.665152 
L 266.677527 239.55912 
L 267.002182 240.623568 
L 267.326836 240.257664 
L 267.651491 240.72336 
L 267.976145 239.22648 
L 268.3008 239.825232 
L 268.625455 238.794048 
L 268.950109 239.093424 
L 269.274764 238.89384 
L 269.599418 238.993632 
L 270.573382 236.166192 
L 270.898036 234.23688 
L 271.222691 233.804448 
L 271.547345 235.633968 
L 271.872 235.201536 
L 272.196655 234.270144 
L 272.521309 234.4032 
L 273.170618 230.977008 
L 273.495273 233.837712 
L 273.819927 235.168272 
L 274.144582 232.873056 
L 274.469236 232.340832 
L 274.793891 232.473888 
L 275.118545 236.033136 
L 275.767855 238.461408 
L 276.092509 238.22856 
L 276.417164 239.592384 
L 276.741818 239.126688 
L 277.066473 239.3928 
L 277.391127 238.295088 
L 277.715782 236.665152 
L 278.040436 237.596544 
L 278.365091 239.525856 
L 278.689745 240.590304 
L 279.0144 240.124608 
L 279.339055 238.760784 
L 279.663709 241.355376 
L 279.988364 242.38656 
L 280.313018 242.120448 
L 280.637673 243.018576 
L 280.962327 244.681776 
L 281.286982 242.353296 
L 281.611636 242.186976 
L 281.936291 242.38656 
L 282.5856 246.311712 
L 282.910255 245.945808 
L 283.234909 245.347056 
L 283.559564 245.313792 
L 284.858182 239.825232 
L 285.182836 240.2244 
L 285.507491 240.124608 
L 285.832145 237.130848 
L 286.1568 236.265984 
L 286.481455 234.636048 
L 287.130764 237.23064 
L 287.455418 237.862656 
L 287.780073 235.700496 
L 288.104727 235.667232 
L 288.429382 237.596544 
L 288.754036 238.06224 
L 289.078691 239.991552 
L 289.728 235.268064 
L 290.377309 239.06016 
L 290.701964 239.492592 
L 291.026618 239.658912 
L 291.351273 238.527936 
L 292.000582 238.527936 
L 292.325236 239.991552 
L 292.649891 238.5612 
L 292.974545 237.862656 
L 293.2992 238.428144 
L 293.948509 240.623568 
L 294.273164 239.991552 
L 294.597818 238.993632 
L 294.922473 239.958288 
L 295.247127 239.925024 
L 295.571782 238.261824 
L 295.896436 239.925024 
L 296.221091 240.290928 
L 296.545745 239.592384 
L 296.8704 237.39696 
L 297.195055 237.031056 
L 297.519709 234.669312 
L 297.844364 234.636048 
L 298.169018 236.432304 
L 298.493673 235.90008 
L 298.818327 237.031056 
L 299.142982 237.629808 
L 299.467636 236.698416 
L 299.792291 238.028976 
L 300.116945 237.463488 
L 300.4416 236.665152 
L 300.766255 235.268064 
L 301.090909 235.999872 
L 301.415564 237.39696 
L 301.740218 237.696336 
L 302.064873 238.494672 
L 302.389527 238.06224 
L 302.714182 238.594464 
L 303.038836 238.428144 
L 303.688145 240.091344 
L 304.0128 239.093424 
L 304.337455 240.457248 
L 304.662109 240.157872 
L 304.986764 239.259744 
L 305.311418 240.024816 
L 305.636073 238.89384 
L 305.960727 239.293008 
L 306.285382 238.993632 
L 306.610036 240.024816 
L 306.934691 239.758704 
L 307.584 242.153712 
L 307.908655 242.153712 
L 308.233309 241.987392 
L 308.557964 241.022736 
L 308.882618 240.423984 
L 309.207273 237.962448 
L 309.531927 238.89384 
L 309.856582 240.39072 
L 310.181236 241.155792 
L 310.505891 237.330432 
L 310.830545 236.931264 
L 311.1552 235.301328 
L 311.479855 237.06432 
L 311.804509 237.862656 
L 312.129164 235.866816 
L 312.453818 236.56536 
L 313.103127 233.23896 
L 313.427782 233.771184 
L 314.077091 237.097584 
L 314.401745 236.997792 
L 314.7264 238.261824 
L 315.051055 238.927104 
L 315.375709 236.532096 
L 315.700364 235.999872 
L 316.025018 236.265984 
L 316.349673 235.667232 
L 316.674327 235.434384 
L 316.998982 234.436464 
L 317.323636 233.937504 
L 317.648291 235.500912 
L 317.972945 233.272224 
L 318.2976 232.340832 
L 318.946909 235.06848 
L 319.271564 236.332512 
L 319.596218 234.536256 
L 320.245527 236.498832 
L 320.894836 235.700496 
L 321.544145 231.808608 
L 321.8688 231.609024 
L 322.193455 232.673472 
L 322.518109 231.342912 
L 322.842764 231.974928 
L 323.167418 228.681792 
L 323.492073 228.216096 
L 324.141382 231.475968 
L 324.790691 230.278464 
L 325.115345 229.014432 
L 325.44 229.57992 
L 325.764655 229.480128 
L 326.089309 228.515472 
L 326.413964 230.178672 
L 326.738618 230.344992 
L 327.063273 231.209856 
L 327.387927 232.74 
L 327.712582 233.172432 
L 328.037236 231.442704 
L 328.361891 230.977008 
L 328.686545 231.010272 
L 329.0112 230.544576 
L 329.335855 227.650608 
L 329.660509 227.550816 
L 329.985164 229.57992 
L 330.309818 228.448944 
L 330.634473 229.4136 
L 330.959127 228.848112 
L 331.283782 230.112144 
L 331.608436 230.677632 
L 331.933091 231.010272 
L 332.5824 233.538336 
L 332.907055 230.611104 
L 333.231709 232.74 
L 333.556364 230.41152 
L 333.881018 230.91048 
L 334.530327 227.550816 
L 334.854982 228.41568 
L 335.179636 226.153728 
L 335.504291 226.020672 
L 335.828945 225.022752 
L 336.1536 226.952064 
L 336.802909 225.122544 
L 337.127564 226.685952 
L 337.452218 225.92088 
L 338.101527 222.727536 
L 338.426182 222.960384 
L 338.750836 225.488448 
L 339.075491 224.191152 
L 339.400145 224.191152 
L 339.7248 225.288864 
L 340.049455 224.357472 
L 340.374109 224.290944 
L 340.698764 225.222336 
L 341.348073 222.661008 
L 341.672727 221.563296 
L 341.997382 222.461424 
L 342.322036 225.355392 
L 342.646691 222.893856 
L 342.971345 225.488448 
L 343.296 226.75248 
L 343.620655 227.351232 
L 343.945309 227.184912 
L 344.269964 227.683872 
L 344.594618 226.186992 
L 344.919273 223.991568 
L 345.243927 222.661008 
L 345.568582 222.860592 
L 345.893236 223.459344 
L 346.217891 223.658928 
L 346.542545 225.189072 
L 346.8672 224.058096 
L 347.191855 222.26184 
L 347.516509 222.228576 
L 347.841164 223.026912 
L 348.165818 221.463504 
L 348.490473 221.396976 
L 348.815127 221.629824 
L 349.139782 222.661008 
L 349.464436 225.355392 
L 349.789091 225.322128 
L 350.113745 223.891776 
L 350.4384 223.75872 
L 350.763055 225.887616 
L 351.087709 225.222336 
L 351.412364 223.891776 
L 351.737018 223.060176 
L 352.061673 224.324208 
L 352.386327 226.486368 
L 352.710982 225.189072 
L 353.035636 224.457264 
L 353.360291 225.887616 
L 353.684945 225.887616 
L 354.0096 227.650608 
L 354.334255 227.650608 
L 354.658909 230.977008 
L 354.983564 232.107984 
L 355.308218 231.609024 
L 355.632873 231.376176 
L 355.957527 230.74416 
L 356.282182 230.710896 
L 356.606836 233.870976 
L 356.931491 233.139168 
L 357.256145 233.139168 
L 357.5808 232.74 
L 357.905455 231.0768 
L 358.230109 232.107984 
L 358.554764 234.536256 
L 358.879418 232.473888 
L 359.204073 231.841872 
L 359.528727 232.340832 
L 359.853382 233.305488 
L 360.178036 231.376176 
L 360.502691 231.043536 
L 360.827345 228.116304 
L 361.152 226.819008 
L 361.476655 229.347072 
L 361.801309 229.979088 
L 362.125964 227.683872 
L 362.450618 229.779504 
L 362.775273 228.615264 
L 363.099927 230.74416 
L 363.424582 230.344992 
L 363.749236 228.681792 
L 364.073891 228.349152 
L 364.398545 227.7504 
L 364.7232 228.382416 
L 365.047855 228.482208 
L 365.372509 230.843952 
L 365.697164 231.24312 
L 366.021818 232.873056 
L 366.346473 233.704656 
L 366.671127 233.338752 
L 366.995782 228.715056 
L 367.320436 229.679712 
L 367.645091 228.448944 
L 368.2944 230.611104 
L 368.619055 232.440624 
L 368.943709 232.972848 
L 369.268364 231.841872 
L 369.593018 231.609024 
L 370.566982 228.947904 
L 370.891636 230.810688 
L 371.216291 231.775344 
L 371.540945 230.57784 
L 371.8656 230.444784 
L 372.190255 227.816928 
L 372.839564 229.4136 
L 373.164218 229.08096 
L 373.488873 228.24936 
L 374.138182 224.656848 
L 374.462836 225.122544 
L 374.787491 222.42816 
L 375.112145 221.796144 
L 375.4368 223.293024 
L 375.761455 221.995728 
L 376.086109 221.530032 
L 376.410764 220.565376 
L 376.735418 223.09344 
L 377.060073 224.557056 
L 377.384727 224.656848 
L 378.034036 221.729616 
L 378.358691 222.661008 
L 378.683345 221.297184 
L 379.008 221.164128 
L 379.657309 219.201552 
L 379.981964 219.999888 
L 380.306618 216.473904 
L 380.631273 215.475984 
L 380.955927 213.413616 
L 381.280582 210.419856 
L 381.929891 207.658944 
L 382.254545 208.424016 
L 382.5792 205.530048 
L 383.553164 212.814864 
L 383.877818 212.881392 
L 384.202473 211.184928 
L 384.527127 211.051872 
L 385.176436 208.523808 
L 385.501091 208.690128 
L 385.825745 207.592416 
L 386.1504 205.762896 
L 386.475055 206.561232 
L 386.799709 206.361648 
L 387.124364 206.893872 
L 387.449018 205.330464 
L 387.773673 204.764976 
L 388.098327 207.492624 
L 388.422982 207.925056 
L 388.747636 205.696368 
L 389.072291 204.598656 
L 389.396945 201.671424 
L 389.7216 202.569552 
L 390.370909 202.103856 
L 390.695564 204.199488 
L 391.020218 202.46976 
L 391.344873 204.432336 
L 391.669527 205.097616 
L 391.994182 202.236912 
L 392.318836 204.432336 
L 392.968145 203.068512 
L 393.2928 204.099696 
L 393.617455 202.96872 
L 393.942109 204.13296 
L 394.266764 207.226512 
L 394.591418 208.157904 
L 394.916073 208.590336 
L 395.240727 207.159984 
L 395.565382 209.854368 
L 395.890036 210.253536 
L 396.214691 209.521728 
L 396.539345 207.758736 
L 396.864 208.690128 
L 397.188655 207.758736 
L 397.837964 209.255616 
L 398.162618 205.663104 
L 398.487273 204.29928 
L 398.487273 204.29928 
" style="fill:none;stroke:#d62728;stroke-linecap:square;stroke-width:1.5;"/>
   </g>
   <g id="patch_3">
    <path d="M 57.6 307.584 
L 57.6 41.472 
" style="fill:none;stroke:#000000;stroke-linecap:square;stroke-linejoin:miter;stroke-width:0.8;"/>
   </g>
   <g id="patch_4">
    <path d="M 414.72 307.584 
L 414.72 41.472 
" style="fill:none;stroke:#000000;stroke-linecap:square;stroke-linejoin:miter;stroke-width:0.8;"/>
   </g>
   <g id="patch_5">
    <path d="M 57.6 307.584 
L 414.72 307.584 
" style="fill:none;stroke:#000000;stroke-linecap:square;stroke-linejoin:miter;stroke-width:0.8;"/>
   </g>
   <g id="patch_6">
    <path d="M 57.6 41.472 
L 414.72 41.472 
" style="fill:none;stroke:#000000;stroke-linecap:square;stroke-linejoin:miter;stroke-width:0.8;"/>
   </g>
   <g id="legend_1">
    <g id="line2d_17">
     <path d="M 353.22 54.570438 
L 373.22 54.570438 
" style="fill:none;stroke:#1f77b4;stroke-linecap:square;stroke-width:1.5;"/>
    </g>
    <g id="line2d_18"/>
    <g id="text_15">
     <!-- $k=2$ -->
     <defs>
      <path d="M 18.3125 75.984375 
L 27.296875 75.984375 
L 18.703125 31.6875 
L 49.515625 54.6875 
L 61.1875 54.6875 
L 26.8125 28.515625 
L 51.90625 0 
L 41.015625 0 
L 17.671875 26.703125 
L 12.5 0 
L 3.515625 0 
z
" id="DejaVuSans-Oblique-6b"/>
      <path d="M 10.59375 45.40625 
L 73.1875 45.40625 
L 73.1875 37.203125 
L 10.59375 37.203125 
z
M 10.59375 25.484375 
L 73.1875 25.484375 
L 73.1875 17.1875 
L 10.59375 17.1875 
z
" id="DejaVuSans-3d"/>
     </defs>
     <g transform="translate(381.22 58.070438)scale(0.1 -0.1)">
      <use transform="translate(0 0.015625)" xlink:href="#DejaVuSans-Oblique-6b"/>
      <use transform="translate(77.392578 0.015625)" xlink:href="#DejaVuSans-3d"/>
      <use transform="translate(180.664062 0.015625)" xlink:href="#DejaVuSans-32"/>
     </g>
    </g>
    <g id="line2d_19">
     <path d="M 353.22 69.248563 
L 373.22 69.248563 
" style="fill:none;stroke:#ff7f0e;stroke-linecap:square;stroke-width:1.5;"/>
    </g>
    <g id="line2d_20"/>
    <g id="text_16">
     <!-- $k=4$ -->
     <g transform="translate(381.22 72.748563)scale(0.1 -0.1)">
      <use transform="translate(0 0.015625)" xlink:href="#DejaVuSans-Oblique-6b"/>
      <use transform="translate(77.392578 0.015625)" xlink:href="#DejaVuSans-3d"/>
      <use transform="translate(180.664062 0.015625)" xlink:href="#DejaVuSans-34"/>
     </g>
    </g>
    <g id="line2d_21">
     <path d="M 353.22 83.926688 
L 373.22 83.926688 
" style="fill:none;stroke:#2ca02c;stroke-linecap:square;stroke-width:1.5;"/>
    </g>
    <g id="line2d_22"/>
    <g id="text_17">
     <!-- $k=6$ -->
     <g transform="translate(381.22 87.426688)scale(0.1 -0.1)">
      <use transform="translate(0 0.015625)" xlink:href="#DejaVuSans-Oblique-6b"/>
      <use transform="translate(77.392578 0.015625)" xlink:href="#DejaVuSans-3d"/>
      <use transform="translate(180.664062 0.015625)" xlink:href="#DejaVuSans-36"/>
     </g>
    </g>
    <g id="line2d_23">
     <path d="M 353.22 98.604813 
L 373.22 98.604813 
" style="fill:none;stroke:#d62728;stroke-linecap:square;stroke-width:1.5;"/>
    </g>
    <g id="line2d_24"/>
    <g id="text_18">
     <!-- $k=8$ -->
     <g transform="translate(381.22 102.104813)scale(0.1 -0.1)">
      <use transform="translate(0 0.015625)" xlink:href="#DejaVuSans-Oblique-6b"/>
      <use transform="translate(77.392578 0.015625)" xlink:href="#DejaVuSans-3d"/>
      <use transform="translate(180.664062 0.015625)" xlink:href="#DejaVuSans-38"/>
     </g>
    </g>
   </g>
  </g>
 </g>
 <defs>
  <clipPath id="pafbe6abe62">
   <rect height="266.112" width="357.12" x="57.6" y="41.472"/>
  </clipPath>
 </defs>
</svg>
