<?xml version="1.0" encoding="utf-8"?>
<svg xmlns="http://www.w3.org/2000/svg" xmlns:xlink="http://www.w3.org/1999/xlink" width="600" height="400" viewBox="0 0 2400 1600">
<defs>
  <clipPath id="clip840">
    <rect x="0" y="0" width="2400" height="1600"/>
  </clipPath>
</defs>
<path clip-path="url(#clip840)" d="
M0 1600 L2400 1600 L2400 0 L0 0  Z
  " fill="#ffffff" fill-rule="evenodd" fill-opacity="1"/>
<defs>
  <clipPath id="clip841">
    <rect x="480" y="0" width="1681" height="1600"/>
  </clipPath>
</defs>
<path clip-path="url(#clip840)" d="
M112.177 1486.45 L2352.76 1486.45 L2352.76 123.472 L112.177 123.472  Z
  " fill="#ffffff" fill-rule="evenodd" fill-opacity="1"/>
<defs>
  <clipPath id="clip842">
    <rect x="112" y="123" width="2242" height="1364"/>
  </clipPath>
</defs>
<polyline clip-path="url(#clip842)" style="stroke:#000000; stroke-width:2; stroke-opacity:0.1; fill:none" points="
  112.177,1486.45 112.177,123.472 
  "/>
<polyline clip-path="url(#clip842)" style="stroke:#000000; stroke-width:2; stroke-opacity:0.1; fill:none" points="
  560.293,1486.45 560.293,123.472 
  "/>
<polyline clip-path="url(#clip842)" style="stroke:#000000; stroke-width:2; stroke-opacity:0.1; fill:none" points="
  1008.41,1486.45 1008.41,123.472 
  "/>
<polyline clip-path="url(#clip842)" style="stroke:#000000; stroke-width:2; stroke-opacity:0.1; fill:none" points="
  1456.52,1486.45 1456.52,123.472 
  "/>
<polyline clip-path="url(#clip842)" style="stroke:#000000; stroke-width:2; stroke-opacity:0.1; fill:none" points="
  1904.64,1486.45 1904.64,123.472 
  "/>
<polyline clip-path="url(#clip842)" style="stroke:#000000; stroke-width:2; stroke-opacity:0.1; fill:none" points="
  2352.76,1486.45 2352.76,123.472 
  "/>
<polyline clip-path="url(#clip840)" style="stroke:#000000; stroke-width:4; stroke-opacity:1; fill:none" points="
  112.177,1486.45 2352.76,1486.45 
  "/>
<polyline clip-path="url(#clip840)" style="stroke:#000000; stroke-width:4; stroke-opacity:1; fill:none" points="
  112.177,1486.45 112.177,1470.09 
  "/>
<polyline clip-path="url(#clip840)" style="stroke:#000000; stroke-width:4; stroke-opacity:1; fill:none" points="
  560.293,1486.45 560.293,1470.09 
  "/>
<polyline clip-path="url(#clip840)" style="stroke:#000000; stroke-width:4; stroke-opacity:1; fill:none" points="
  1008.41,1486.45 1008.41,1470.09 
  "/>
<polyline clip-path="url(#clip840)" style="stroke:#000000; stroke-width:4; stroke-opacity:1; fill:none" points="
  1456.52,1486.45 1456.52,1470.09 
  "/>
<polyline clip-path="url(#clip840)" style="stroke:#000000; stroke-width:4; stroke-opacity:1; fill:none" points="
  1904.64,1486.45 1904.64,1470.09 
  "/>
<polyline clip-path="url(#clip840)" style="stroke:#000000; stroke-width:4; stroke-opacity:1; fill:none" points="
  2352.76,1486.45 2352.76,1470.09 
  "/>
<path clip-path="url(#clip840)" d="M 0 0 M112.177 1515.64 Q108.566 1515.64 106.737 1519.2 Q104.932 1522.75 104.932 1529.87 Q104.932 1536.98 106.737 1540.55 Q108.566 1544.09 112.177 1544.09 Q115.811 1544.09 117.617 1540.55 Q119.446 1536.98 119.446 1529.87 Q119.446 1522.75 117.617 1519.2 Q115.811 1515.64 112.177 1515.64 M112.177 1511.93 Q117.987 1511.93 121.043 1516.54 Q124.122 1521.12 124.122 1529.87 Q124.122 1538.6 121.043 1543.21 Q117.987 1547.79 112.177 1547.79 Q106.367 1547.79 103.288 1543.21 Q100.233 1538.6 100.233 1529.87 Q100.233 1521.12 103.288 1516.54 Q106.367 1511.93 112.177 1511.93 Z" fill="#000000" fill-rule="evenodd" fill-opacity="1" /><path clip-path="url(#clip840)" d="M 0 0 M550.675 1543.18 L558.314 1543.18 L558.314 1516.82 L550.004 1518.49 L550.004 1514.23 L558.267 1512.56 L562.943 1512.56 L562.943 1543.18 L570.582 1543.18 L570.582 1547.12 L550.675 1547.12 L550.675 1543.18 Z" fill="#000000" fill-rule="evenodd" fill-opacity="1" /><path clip-path="url(#clip840)" d="M 0 0 M1003.06 1543.18 L1019.38 1543.18 L1019.38 1547.12 L997.437 1547.12 L997.437 1543.18 Q1000.1 1540.43 1004.68 1535.8 Q1009.29 1531.15 1010.47 1529.81 Q1012.71 1527.28 1013.59 1525.55 Q1014.5 1523.79 1014.5 1522.1 Q1014.5 1519.34 1012.55 1517.61 Q1010.63 1515.87 1007.53 1515.87 Q1005.33 1515.87 1002.88 1516.63 Q1000.45 1517.4 997.668 1518.95 L997.668 1514.23 Q1000.49 1513.09 1002.95 1512.51 Q1005.4 1511.93 1007.44 1511.93 Q1012.81 1511.93 1016 1514.62 Q1019.2 1517.31 1019.2 1521.8 Q1019.2 1523.93 1018.39 1525.85 Q1017.6 1527.74 1015.49 1530.34 Q1014.91 1531.01 1011.81 1534.23 Q1008.71 1537.42 1003.06 1543.18 Z" fill="#000000" fill-rule="evenodd" fill-opacity="1" /><path clip-path="url(#clip840)" d="M 0 0 M1460.77 1528.49 Q1464.13 1529.2 1466 1531.47 Q1467.9 1533.74 1467.9 1537.07 Q1467.9 1542.19 1464.38 1544.99 Q1460.86 1547.79 1454.38 1547.79 Q1452.21 1547.79 1449.89 1547.35 Q1447.6 1546.93 1445.15 1546.08 L1445.15 1541.56 Q1447.09 1542.7 1449.41 1543.28 Q1451.72 1543.86 1454.24 1543.86 Q1458.64 1543.86 1460.93 1542.12 Q1463.25 1540.38 1463.25 1537.07 Q1463.25 1534.02 1461.1 1532.31 Q1458.97 1530.57 1455.15 1530.57 L1451.12 1530.57 L1451.12 1526.73 L1455.33 1526.73 Q1458.78 1526.73 1460.61 1525.36 Q1462.44 1523.97 1462.44 1521.38 Q1462.44 1518.72 1460.54 1517.31 Q1458.67 1515.87 1455.15 1515.87 Q1453.23 1515.87 1451.03 1516.29 Q1448.83 1516.7 1446.19 1517.58 L1446.19 1513.42 Q1448.85 1512.68 1451.17 1512.31 Q1453.5 1511.93 1455.56 1511.93 Q1460.89 1511.93 1463.99 1514.37 Q1467.09 1516.77 1467.09 1520.89 Q1467.09 1523.76 1465.45 1525.75 Q1463.8 1527.72 1460.77 1528.49 Z" fill="#000000" fill-rule="evenodd" fill-opacity="1" /><path clip-path="url(#clip840)" d="M 0 0 M1907.65 1516.63 L1895.84 1535.08 L1907.65 1535.08 L1907.65 1516.63 M1906.42 1512.56 L1912.3 1512.56 L1912.3 1535.08 L1917.23 1535.08 L1917.23 1538.97 L1912.3 1538.97 L1912.3 1547.12 L1907.65 1547.12 L1907.65 1538.97 L1892.05 1538.97 L1892.05 1534.46 L1906.42 1512.56 Z" fill="#000000" fill-rule="evenodd" fill-opacity="1" /><path clip-path="url(#clip840)" d="M 0 0 M2343.03 1512.56 L2361.39 1512.56 L2361.39 1516.5 L2347.32 1516.5 L2347.32 1524.97 Q2348.33 1524.62 2349.35 1524.46 Q2350.37 1524.27 2351.39 1524.27 Q2357.18 1524.27 2360.56 1527.44 Q2363.94 1530.62 2363.94 1536.03 Q2363.94 1541.61 2360.46 1544.71 Q2356.99 1547.79 2350.67 1547.79 Q2348.5 1547.79 2346.23 1547.42 Q2343.98 1547.05 2341.58 1546.31 L2341.58 1541.61 Q2343.66 1542.74 2345.88 1543.3 Q2348.1 1543.86 2350.58 1543.86 Q2354.58 1543.86 2356.92 1541.75 Q2359.26 1539.64 2359.26 1536.03 Q2359.26 1532.42 2356.92 1530.31 Q2354.58 1528.21 2350.58 1528.21 Q2348.71 1528.21 2346.83 1528.62 Q2344.98 1529.04 2343.03 1529.92 L2343.03 1512.56 Z" fill="#000000" fill-rule="evenodd" fill-opacity="1" /><polyline clip-path="url(#clip842)" style="stroke:#000000; stroke-width:2; stroke-opacity:0.1; fill:none" points="
  112.177,1486.45 2352.76,1486.45 
  "/>
<polyline clip-path="url(#clip842)" style="stroke:#000000; stroke-width:2; stroke-opacity:0.1; fill:none" points="
  112.177,1213.85 2352.76,1213.85 
  "/>
<polyline clip-path="url(#clip842)" style="stroke:#000000; stroke-width:2; stroke-opacity:0.1; fill:none" points="
  112.177,941.258 2352.76,941.258 
  "/>
<polyline clip-path="url(#clip842)" style="stroke:#000000; stroke-width:2; stroke-opacity:0.1; fill:none" points="
  112.177,668.662 2352.76,668.662 
  "/>
<polyline clip-path="url(#clip842)" style="stroke:#000000; stroke-width:2; stroke-opacity:0.1; fill:none" points="
  112.177,396.067 2352.76,396.067 
  "/>
<polyline clip-path="url(#clip842)" style="stroke:#000000; stroke-width:2; stroke-opacity:0.1; fill:none" points="
  112.177,123.472 2352.76,123.472 
  "/>
<polyline clip-path="url(#clip840)" style="stroke:#000000; stroke-width:4; stroke-opacity:1; fill:none" points="
  112.177,1486.45 112.177,123.472 
  "/>
<polyline clip-path="url(#clip840)" style="stroke:#000000; stroke-width:4; stroke-opacity:1; fill:none" points="
  112.177,1486.45 139.064,1486.45 
  "/>
<polyline clip-path="url(#clip840)" style="stroke:#000000; stroke-width:4; stroke-opacity:1; fill:none" points="
  112.177,1213.85 139.064,1213.85 
  "/>
<polyline clip-path="url(#clip840)" style="stroke:#000000; stroke-width:4; stroke-opacity:1; fill:none" points="
  112.177,941.258 139.064,941.258 
  "/>
<polyline clip-path="url(#clip840)" style="stroke:#000000; stroke-width:4; stroke-opacity:1; fill:none" points="
  112.177,668.662 139.064,668.662 
  "/>
<polyline clip-path="url(#clip840)" style="stroke:#000000; stroke-width:4; stroke-opacity:1; fill:none" points="
  112.177,396.067 139.064,396.067 
  "/>
<polyline clip-path="url(#clip840)" style="stroke:#000000; stroke-width:4; stroke-opacity:1; fill:none" points="
  112.177,123.472 139.064,123.472 
  "/>
<path clip-path="url(#clip840)" d="M 0 0 M64.2328 1472.25 Q60.6217 1472.25 58.793 1475.81 Q56.9875 1479.35 56.9875 1486.48 Q56.9875 1493.59 58.793 1497.15 Q60.6217 1500.7 64.2328 1500.7 Q67.867 1500.7 69.6726 1497.15 Q71.5013 1493.59 71.5013 1486.48 Q71.5013 1479.35 69.6726 1475.81 Q67.867 1472.25 64.2328 1472.25 M64.2328 1468.54 Q70.0429 1468.54 73.0985 1473.15 Q76.1772 1477.73 76.1772 1486.48 Q76.1772 1495.21 73.0985 1499.82 Q70.0429 1504.4 64.2328 1504.4 Q58.4226 1504.4 55.344 1499.82 Q52.2884 1495.21 52.2884 1486.48 Q52.2884 1477.73 55.344 1473.15 Q58.4226 1468.54 64.2328 1468.54 Z" fill="#000000" fill-rule="evenodd" fill-opacity="1" /><path clip-path="url(#clip840)" d="M 0 0 M56.2699 1227.2 L63.9087 1227.2 L63.9087 1200.83 L55.5986 1202.5 L55.5986 1198.24 L63.8624 1196.57 L68.5383 1196.57 L68.5383 1227.2 L76.1772 1227.2 L76.1772 1231.13 L56.2699 1231.13 L56.2699 1227.2 Z" fill="#000000" fill-rule="evenodd" fill-opacity="1" /><path clip-path="url(#clip840)" d="M 0 0 M59.8578 954.602 L76.1772 954.602 L76.1772 958.538 L54.2328 958.538 L54.2328 954.602 Q56.8949 951.848 61.4782 947.218 Q66.0846 942.565 67.2652 941.223 Q69.5105 938.7 70.3902 936.964 Q71.2929 935.204 71.2929 933.515 Q71.2929 930.76 69.3485 929.024 Q67.4272 927.288 64.3254 927.288 Q62.1263 927.288 59.6726 928.052 Q57.2421 928.816 54.4643 930.366 L54.4643 925.644 Q57.2884 924.51 59.7421 923.931 Q62.1958 923.353 64.2328 923.353 Q69.6031 923.353 72.7976 926.038 Q75.992 928.723 75.992 933.214 Q75.992 935.343 75.1818 937.265 Q74.3948 939.163 72.2883 941.755 Q71.7096 942.427 68.6078 945.644 Q65.5059 948.839 59.8578 954.602 Z" fill="#000000" fill-rule="evenodd" fill-opacity="1" /><path clip-path="url(#clip840)" d="M 0 0 M69.0476 667.308 Q72.404 668.026 74.279 670.294 Q76.1772 672.563 76.1772 675.896 Q76.1772 681.012 72.6587 683.813 Q69.1402 686.614 62.6587 686.614 Q60.4828 686.614 58.168 686.174 Q55.8764 685.757 53.4227 684.901 L53.4227 680.387 Q55.3671 681.521 57.6819 682.1 Q59.9967 682.679 62.5198 682.679 Q66.918 682.679 69.2096 680.942 Q71.5244 679.206 71.5244 675.896 Q71.5244 672.841 69.3717 671.128 Q67.242 669.392 63.4226 669.392 L59.3949 669.392 L59.3949 665.549 L63.6078 665.549 Q67.0569 665.549 68.8855 664.183 Q70.7142 662.794 70.7142 660.202 Q70.7142 657.54 68.8161 656.128 Q66.9411 654.693 63.4226 654.693 Q61.5013 654.693 59.3023 655.109 Q57.1032 655.526 54.4643 656.406 L54.4643 652.239 Q57.1264 651.498 59.4412 651.128 Q61.7791 650.757 63.8393 650.757 Q69.1633 650.757 72.2652 653.188 Q75.367 655.595 75.367 659.716 Q75.367 662.586 73.7235 664.577 Q72.08 666.544 69.0476 667.308 Z" fill="#000000" fill-rule="evenodd" fill-opacity="1" /><path clip-path="url(#clip840)" d="M 0 0 M66.5939 382.861 L54.7884 401.31 L66.5939 401.31 L66.5939 382.861 M65.367 378.787 L71.2466 378.787 L71.2466 401.31 L76.1772 401.31 L76.1772 405.199 L71.2466 405.199 L71.2466 413.347 L66.5939 413.347 L66.5939 405.199 L50.9921 405.199 L50.9921 400.685 L65.367 378.787 Z" fill="#000000" fill-rule="evenodd" fill-opacity="1" /><path clip-path="url(#clip840)" d="M 0 0 M55.2745 106.192 L73.6309 106.192 L73.6309 110.127 L59.5569 110.127 L59.5569 118.599 Q60.5754 118.252 61.5939 118.09 Q62.6124 117.905 63.6309 117.905 Q69.418 117.905 72.7976 121.076 Q76.1772 124.248 76.1772 129.664 Q76.1772 135.243 72.705 138.345 Q69.2328 141.423 62.9134 141.423 Q60.7374 141.423 58.4689 141.053 Q56.2236 140.683 53.8162 139.942 L53.8162 135.243 Q55.8995 136.377 58.1217 136.933 Q60.3439 137.488 62.8208 137.488 Q66.8254 137.488 69.1633 135.382 Q71.5013 133.275 71.5013 129.664 Q71.5013 126.053 69.1633 123.947 Q66.8254 121.84 62.8208 121.84 Q60.9458 121.84 59.0708 122.257 Q57.2189 122.674 55.2745 123.553 L55.2745 106.192 Z" fill="#000000" fill-rule="evenodd" fill-opacity="1" /><path clip-path="url(#clip840)" d="M 0 0 M538.911 12.096 L590.074 12.096 L590.074 18.9825 L568.604 18.9825 L568.604 72.576 L560.381 72.576 L560.381 18.9825 L538.911 18.9825 L538.911 12.096 Z" fill="#000000" fill-rule="evenodd" fill-opacity="1" /><path clip-path="url(#clip840)" d="M 0 0 M635.606 45.1919 L635.606 72.576 L628.153 72.576 L628.153 45.4349 Q628.153 38.994 625.641 35.7938 Q623.13 32.5936 618.106 32.5936 Q612.071 32.5936 608.587 36.4419 Q605.103 40.2903 605.103 46.9338 L605.103 72.576 L597.609 72.576 L597.609 9.54393 L605.103 9.54393 L605.103 34.2544 Q607.777 30.163 611.382 28.1376 Q615.028 26.1121 619.767 26.1121 Q627.586 26.1121 631.596 30.9732 Q635.606 35.7938 635.606 45.1919 Z" fill="#000000" fill-rule="evenodd" fill-opacity="1" /><path clip-path="url(#clip840)" d="M 0 0 M682.232 48.0275 L682.232 51.6733 L647.962 51.6733 Q648.448 59.3701 652.58 63.421 Q656.752 67.4314 664.165 67.4314 Q668.459 67.4314 672.47 66.3781 Q676.52 65.3249 680.49 63.2184 L680.49 70.267 Q676.48 71.9684 672.267 72.8596 Q668.054 73.7508 663.72 73.7508 Q652.863 73.7508 646.503 67.4314 Q640.184 61.1119 640.184 50.3365 Q640.184 39.1965 646.179 32.6746 Q652.215 26.1121 662.423 26.1121 Q671.578 26.1121 676.885 32.0264 Q682.232 37.9003 682.232 48.0275 M674.779 45.84 Q674.698 39.7232 671.335 36.0774 Q668.014 32.4315 662.504 32.4315 Q656.266 32.4315 652.499 35.9558 Q648.772 39.4801 648.205 45.8805 L674.779 45.84 Z" fill="#000000" fill-rule="evenodd" fill-opacity="1" /><path clip-path="url(#clip840)" d="M 0 0 M757.984 63.9476 L757.984 47.7034 L744.616 47.7034 L744.616 40.9789 L766.086 40.9789 L766.086 66.9452 Q761.346 70.3075 755.635 72.0494 Q749.923 73.7508 743.441 73.7508 Q729.263 73.7508 721.242 65.4869 Q713.262 57.1826 713.262 42.3968 Q713.262 27.5705 721.242 19.3066 Q729.263 11.0023 743.441 11.0023 Q749.356 11.0023 754.662 12.4606 Q760.01 13.9189 764.506 16.7545 L764.506 25.464 Q759.969 21.6156 754.865 19.6712 Q749.761 17.7268 744.13 17.7268 Q733.031 17.7268 727.44 23.9246 Q721.891 30.1225 721.891 42.3968 Q721.891 54.6305 727.44 60.8284 Q733.031 67.0263 744.13 67.0263 Q748.465 67.0263 751.867 66.2971 Q755.27 65.5274 757.984 63.9476 Z" fill="#000000" fill-rule="evenodd" fill-opacity="1" /><path clip-path="url(#clip840)" d="M 0 0 M794.523 49.7694 Q785.49 49.7694 782.006 51.8354 Q778.522 53.9013 778.522 58.8839 Q778.522 62.8538 781.115 65.2034 Q783.748 67.5124 788.244 67.5124 Q794.442 67.5124 798.169 63.1374 Q801.936 58.7219 801.936 51.4303 L801.936 49.7694 L794.523 49.7694 M809.39 46.6907 L809.39 72.576 L801.936 72.576 L801.936 65.6895 Q799.384 69.8214 795.577 71.8063 Q791.769 73.7508 786.259 73.7508 Q779.292 73.7508 775.16 69.8619 Q771.069 65.9325 771.069 59.3701 Q771.069 51.7138 776.173 47.825 Q781.317 43.9361 791.485 43.9361 L801.936 43.9361 L801.936 43.2069 Q801.936 38.0623 798.534 35.2672 Q795.171 32.4315 789.055 32.4315 Q785.166 32.4315 781.479 33.3632 Q777.793 34.295 774.39 36.1584 L774.39 29.2718 Q778.482 27.692 782.33 26.9223 Q786.178 26.1121 789.824 26.1121 Q799.668 26.1121 804.529 31.2163 Q809.39 36.3204 809.39 46.6907 Z" fill="#000000" fill-rule="evenodd" fill-opacity="1" /><path clip-path="url(#clip840)" d="M 0 0 M852.532 35.9153 Q855.327 30.8922 859.216 28.5022 Q863.105 26.1121 868.371 26.1121 Q875.46 26.1121 879.309 31.0947 Q883.157 36.0368 883.157 45.1919 L883.157 72.576 L875.663 72.576 L875.663 45.4349 Q875.663 38.913 873.354 35.7533 Q871.045 32.5936 866.305 32.5936 Q860.513 32.5936 857.15 36.4419 Q853.788 40.2903 853.788 46.9338 L853.788 72.576 L846.294 72.576 L846.294 45.4349 Q846.294 38.8725 843.985 35.7533 Q841.676 32.5936 836.855 32.5936 Q831.143 32.5936 827.781 36.4824 Q824.419 40.3308 824.419 46.9338 L824.419 72.576 L816.925 72.576 L816.925 27.2059 L824.419 27.2059 L824.419 34.2544 Q826.971 30.082 830.536 28.0971 Q834.101 26.1121 839.002 26.1121 Q843.944 26.1121 847.388 28.6237 Q850.871 31.1352 852.532 35.9153 Z" fill="#000000" fill-rule="evenodd" fill-opacity="1" /><path clip-path="url(#clip840)" d="M 0 0 M926.299 35.9153 Q929.094 30.8922 932.983 28.5022 Q936.872 26.1121 942.138 26.1121 Q949.227 26.1121 953.076 31.0947 Q956.924 36.0368 956.924 45.1919 L956.924 72.576 L949.43 72.576 L949.43 45.4349 Q949.43 38.913 947.121 35.7533 Q944.812 32.5936 940.072 32.5936 Q934.279 32.5936 930.917 36.4419 Q927.555 40.2903 927.555 46.9338 L927.555 72.576 L920.061 72.576 L920.061 45.4349 Q920.061 38.8725 917.752 35.7533 Q915.443 32.5936 910.622 32.5936 Q904.91 32.5936 901.548 36.4824 Q898.186 40.3308 898.186 46.9338 L898.186 72.576 L890.692 72.576 L890.692 27.2059 L898.186 27.2059 L898.186 34.2544 Q900.738 30.082 904.303 28.0971 Q907.868 26.1121 912.769 26.1121 Q917.711 26.1121 921.155 28.6237 Q924.638 31.1352 926.299 35.9153 Z" fill="#000000" fill-rule="evenodd" fill-opacity="1" /><path clip-path="url(#clip840)" d="M 0 0 M985.361 49.7694 Q976.328 49.7694 972.844 51.8354 Q969.36 53.9013 969.36 58.8839 Q969.36 62.8538 971.953 65.2034 Q974.586 67.5124 979.082 67.5124 Q985.28 67.5124 989.007 63.1374 Q992.775 58.7219 992.775 51.4303 L992.775 49.7694 L985.361 49.7694 M1000.23 46.6907 L1000.23 72.576 L992.775 72.576 L992.775 65.6895 Q990.222 69.8214 986.415 71.8063 Q982.607 73.7508 977.098 73.7508 Q970.13 73.7508 965.998 69.8619 Q961.907 65.9325 961.907 59.3701 Q961.907 51.7138 967.011 47.825 Q972.155 43.9361 982.323 43.9361 L992.775 43.9361 L992.775 43.2069 Q992.775 38.0623 989.372 35.2672 Q986.01 32.4315 979.893 32.4315 Q976.004 32.4315 972.317 33.3632 Q968.631 34.295 965.228 36.1584 L965.228 29.2718 Q969.32 27.692 973.168 26.9223 Q977.017 26.1121 980.662 26.1121 Q990.506 26.1121 995.367 31.2163 Q1000.23 36.3204 1000.23 46.6907 Z" fill="#000000" fill-rule="evenodd" fill-opacity="1" /><path clip-path="url(#clip840)" d="M 0 0 M1064.27 34.0924 L1064.27 9.54393 L1071.73 9.54393 L1071.73 72.576 L1064.27 72.576 L1064.27 65.7705 Q1061.92 69.8214 1058.32 71.8063 Q1054.75 73.7508 1049.73 73.7508 Q1041.51 73.7508 1036.32 67.1883 Q1031.18 60.6258 1031.18 49.9314 Q1031.18 39.2371 1036.32 32.6746 Q1041.51 26.1121 1049.73 26.1121 Q1054.75 26.1121 1058.32 28.0971 Q1061.92 30.0415 1064.27 34.0924 M1038.87 49.9314 Q1038.87 58.1548 1042.24 62.8538 Q1045.64 67.5124 1051.55 67.5124 Q1057.47 67.5124 1060.87 62.8538 Q1064.27 58.1548 1064.27 49.9314 Q1064.27 41.7081 1060.87 37.0496 Q1057.47 32.3505 1051.55 32.3505 Q1045.64 32.3505 1042.24 37.0496 Q1038.87 41.7081 1038.87 49.9314 Z" fill="#000000" fill-rule="evenodd" fill-opacity="1" /><path clip-path="url(#clip840)" d="M 0 0 M1079.54 27.2059 L1087 27.2059 L1087 72.576 L1079.54 72.576 L1079.54 27.2059 M1079.54 9.54393 L1087 9.54393 L1087 18.9825 L1079.54 18.9825 L1079.54 9.54393 Z" fill="#000000" fill-rule="evenodd" fill-opacity="1" /><path clip-path="url(#clip840)" d="M 0 0 M1123.74 28.5427 L1123.74 35.5912 Q1120.58 33.9709 1117.18 33.1607 Q1113.78 32.3505 1110.13 32.3505 Q1104.58 32.3505 1101.78 34.0519 Q1099.03 35.7533 1099.03 39.156 Q1099.03 41.7486 1101.01 43.2475 Q1103 44.7058 1108.99 46.0426 L1111.55 46.6097 Q1119.49 48.3111 1122.81 51.4303 Q1126.17 54.509 1126.17 60.0587 Q1126.17 66.3781 1121.15 70.0644 Q1116.17 73.7508 1107.42 73.7508 Q1103.77 73.7508 1099.8 73.0216 Q1095.87 72.3329 1091.5 70.9151 L1091.5 63.2184 Q1095.63 65.3654 1099.64 66.4591 Q1103.65 67.5124 1107.58 67.5124 Q1112.84 67.5124 1115.68 65.73 Q1118.51 63.9071 1118.51 60.6258 Q1118.51 57.5877 1116.45 55.9673 Q1114.42 54.3469 1107.5 52.8481 L1104.9 52.2405 Q1097.98 50.7821 1094.9 47.7845 Q1091.82 44.7463 1091.82 39.4801 Q1091.82 33.0797 1096.36 29.5959 Q1100.89 26.1121 1109.24 26.1121 Q1113.37 26.1121 1117.02 26.7198 Q1120.66 27.3274 1123.74 28.5427 Z" fill="#000000" fill-rule="evenodd" fill-opacity="1" /><path clip-path="url(#clip840)" d="M 0 0 M1141.36 14.324 L1141.36 27.2059 L1156.71 27.2059 L1156.71 32.9987 L1141.36 32.9987 L1141.36 57.6282 Q1141.36 63.1779 1142.86 64.7578 Q1144.4 66.3376 1149.06 66.3376 L1156.71 66.3376 L1156.71 72.576 L1149.06 72.576 Q1140.43 72.576 1137.15 69.3758 Q1133.87 66.1351 1133.87 57.6282 L1133.87 32.9987 L1128.4 32.9987 L1128.4 27.2059 L1133.87 27.2059 L1133.87 14.324 L1141.36 14.324 Z" fill="#000000" fill-rule="evenodd" fill-opacity="1" /><path clip-path="url(#clip840)" d="M 0 0 M1190.82 34.1734 Q1189.57 33.4443 1188.07 33.1202 Q1186.61 32.7556 1184.83 32.7556 Q1178.51 32.7556 1175.11 36.8875 Q1171.74 40.9789 1171.74 48.6757 L1171.74 72.576 L1164.25 72.576 L1164.25 27.2059 L1171.74 27.2059 L1171.74 34.2544 Q1174.09 30.1225 1177.86 28.1376 Q1181.63 26.1121 1187.02 26.1121 Q1187.79 26.1121 1188.72 26.2337 Q1189.65 26.3147 1190.78 26.5172 L1190.82 34.1734 Z" fill="#000000" fill-rule="evenodd" fill-opacity="1" /><path clip-path="url(#clip840)" d="M 0 0 M1198.64 27.2059 L1206.1 27.2059 L1206.1 72.576 L1198.64 72.576 L1198.64 27.2059 M1198.64 9.54393 L1206.1 9.54393 L1206.1 18.9825 L1198.64 18.9825 L1198.64 9.54393 Z" fill="#000000" fill-rule="evenodd" fill-opacity="1" /><path clip-path="url(#clip840)" d="M 0 0 M1246.48 49.9314 Q1246.48 41.7081 1243.08 37.0496 Q1239.72 32.3505 1233.8 32.3505 Q1227.89 32.3505 1224.49 37.0496 Q1221.12 41.7081 1221.12 49.9314 Q1221.12 58.1548 1224.49 62.8538 Q1227.89 67.5124 1233.8 67.5124 Q1239.72 67.5124 1243.08 62.8538 Q1246.48 58.1548 1246.48 49.9314 M1221.12 34.0924 Q1223.47 30.0415 1227.04 28.0971 Q1230.64 26.1121 1235.63 26.1121 Q1243.89 26.1121 1249.03 32.6746 Q1254.22 39.2371 1254.22 49.9314 Q1254.22 60.6258 1249.03 67.1883 Q1243.89 73.7508 1235.63 73.7508 Q1230.64 73.7508 1227.04 71.8063 Q1223.47 69.8214 1221.12 65.7705 L1221.12 72.576 L1213.63 72.576 L1213.63 9.54393 L1221.12 9.54393 L1221.12 34.0924 Z" fill="#000000" fill-rule="evenodd" fill-opacity="1" /><path clip-path="url(#clip840)" d="M 0 0 M1261.27 54.671 L1261.27 27.2059 L1268.72 27.2059 L1268.72 54.3874 Q1268.72 60.8284 1271.23 64.0691 Q1273.75 67.2693 1278.77 67.2693 Q1284.8 67.2693 1288.29 63.421 Q1291.81 59.5726 1291.81 52.9291 L1291.81 27.2059 L1299.27 27.2059 L1299.27 72.576 L1291.81 72.576 L1291.81 65.6084 Q1289.1 69.7404 1285.49 71.7658 Q1281.93 73.7508 1277.19 73.7508 Q1269.37 73.7508 1265.32 68.8897 Q1261.27 64.0286 1261.27 54.671 M1280.02 26.1121 L1280.02 26.1121 Z" fill="#000000" fill-rule="evenodd" fill-opacity="1" /><path clip-path="url(#clip840)" d="M 0 0 M1314.46 14.324 L1314.46 27.2059 L1329.81 27.2059 L1329.81 32.9987 L1314.46 32.9987 L1314.46 57.6282 Q1314.46 63.1779 1315.96 64.7578 Q1317.5 66.3376 1322.15 66.3376 L1329.81 66.3376 L1329.81 72.576 L1322.15 72.576 Q1313.53 72.576 1310.24 69.3758 Q1306.96 66.1351 1306.96 57.6282 L1306.96 32.9987 L1301.49 32.9987 L1301.49 27.2059 L1306.96 27.2059 L1306.96 14.324 L1314.46 14.324 Z" fill="#000000" fill-rule="evenodd" fill-opacity="1" /><path clip-path="url(#clip840)" d="M 0 0 M1337.63 27.2059 L1345.08 27.2059 L1345.08 72.576 L1337.63 72.576 L1337.63 27.2059 M1337.63 9.54393 L1345.08 9.54393 L1345.08 18.9825 L1337.63 18.9825 L1337.63 9.54393 Z" fill="#000000" fill-rule="evenodd" fill-opacity="1" /><path clip-path="url(#clip840)" d="M 0 0 M1370.48 32.4315 Q1364.49 32.4315 1361 37.1306 Q1357.52 41.7891 1357.52 49.9314 Q1357.52 58.0738 1360.96 62.7728 Q1364.45 67.4314 1370.48 67.4314 Q1376.44 67.4314 1379.92 62.7323 Q1383.4 58.0333 1383.4 49.9314 Q1383.4 41.8701 1379.92 37.1711 Q1376.44 32.4315 1370.48 32.4315 M1370.48 26.1121 Q1380.2 26.1121 1385.75 32.4315 Q1391.3 38.7509 1391.3 49.9314 Q1391.3 61.0714 1385.75 67.4314 Q1380.2 73.7508 1370.48 73.7508 Q1360.72 73.7508 1355.17 67.4314 Q1349.66 61.0714 1349.66 49.9314 Q1349.66 38.7509 1355.17 32.4315 Q1360.72 26.1121 1370.48 26.1121 Z" fill="#000000" fill-rule="evenodd" fill-opacity="1" /><path clip-path="url(#clip840)" d="M 0 0 M1436.83 45.1919 L1436.83 72.576 L1429.38 72.576 L1429.38 45.4349 Q1429.38 38.994 1426.87 35.7938 Q1424.36 32.5936 1419.33 32.5936 Q1413.3 32.5936 1409.82 36.4419 Q1406.33 40.2903 1406.33 46.9338 L1406.33 72.576 L1398.84 72.576 L1398.84 27.2059 L1406.33 27.2059 L1406.33 34.2544 Q1409 30.163 1412.61 28.1376 Q1416.26 26.1121 1421 26.1121 Q1428.81 26.1121 1432.82 30.9732 Q1436.83 35.7938 1436.83 45.1919 Z" fill="#000000" fill-rule="evenodd" fill-opacity="1" /><path clip-path="url(#clip840)" d="M 0 0 M1466.69 27.2059 L1474.14 27.2059 L1483.46 62.6108 L1492.74 27.2059 L1501.53 27.2059 L1510.84 62.6108 L1520.12 27.2059 L1527.57 27.2059 L1515.71 72.576 L1506.92 72.576 L1497.15 35.3887 L1487.35 72.576 L1478.56 72.576 L1466.69 27.2059 Z" fill="#000000" fill-rule="evenodd" fill-opacity="1" /><path clip-path="url(#clip840)" d="M 0 0 M1535.39 27.2059 L1542.85 27.2059 L1542.85 72.576 L1535.39 72.576 L1535.39 27.2059 M1535.39 9.54393 L1542.85 9.54393 L1542.85 18.9825 L1535.39 18.9825 L1535.39 9.54393 Z" fill="#000000" fill-rule="evenodd" fill-opacity="1" /><path clip-path="url(#clip840)" d="M 0 0 M1558.04 14.324 L1558.04 27.2059 L1573.39 27.2059 L1573.39 32.9987 L1558.04 32.9987 L1558.04 57.6282 Q1558.04 63.1779 1559.54 64.7578 Q1561.08 66.3376 1565.73 66.3376 L1573.39 66.3376 L1573.39 72.576 L1565.73 72.576 Q1557.11 72.576 1553.82 69.3758 Q1550.54 66.1351 1550.54 57.6282 L1550.54 32.9987 L1545.07 32.9987 L1545.07 27.2059 L1550.54 27.2059 L1550.54 14.324 L1558.04 14.324 Z" fill="#000000" fill-rule="evenodd" fill-opacity="1" /><path clip-path="url(#clip840)" d="M 0 0 M1618.92 45.1919 L1618.92 72.576 L1611.47 72.576 L1611.47 45.4349 Q1611.47 38.994 1608.96 35.7938 Q1606.45 32.5936 1601.42 32.5936 Q1595.39 32.5936 1591.9 36.4419 Q1588.42 40.2903 1588.42 46.9338 L1588.42 72.576 L1580.93 72.576 L1580.93 9.54393 L1588.42 9.54393 L1588.42 34.2544 Q1591.09 30.163 1594.7 28.1376 Q1598.34 26.1121 1603.08 26.1121 Q1610.9 26.1121 1614.91 30.9732 Q1618.92 35.7938 1618.92 45.1919 Z" fill="#000000" fill-rule="evenodd" fill-opacity="1" /><path clip-path="url(#clip840)" d="M 0 0 M1688.44 35.9153 Q1691.23 30.8922 1695.12 28.5022 Q1699.01 26.1121 1704.28 26.1121 Q1711.36 26.1121 1715.21 31.0947 Q1719.06 36.0368 1719.06 45.1919 L1719.06 72.576 L1711.57 72.576 L1711.57 45.4349 Q1711.57 38.913 1709.26 35.7533 Q1706.95 32.5936 1702.21 32.5936 Q1696.42 32.5936 1693.05 36.4419 Q1689.69 40.2903 1689.69 46.9338 L1689.69 72.576 L1682.2 72.576 L1682.2 45.4349 Q1682.2 38.8725 1679.89 35.7533 Q1677.58 32.5936 1672.76 32.5936 Q1667.05 32.5936 1663.69 36.4824 Q1660.32 40.3308 1660.32 46.9338 L1660.32 72.576 L1652.83 72.576 L1652.83 27.2059 L1660.32 27.2059 L1660.32 34.2544 Q1662.88 30.082 1666.44 28.0971 Q1670 26.1121 1674.91 26.1121 Q1679.85 26.1121 1683.29 28.6237 Q1686.78 31.1352 1688.44 35.9153 Z" fill="#000000" fill-rule="evenodd" fill-opacity="1" /><path clip-path="url(#clip840)" d="M 0 0 M1765.69 48.0275 L1765.69 51.6733 L1731.42 51.6733 Q1731.9 59.3701 1736.03 63.421 Q1740.21 67.4314 1747.62 67.4314 Q1751.91 67.4314 1755.92 66.3781 Q1759.98 65.3249 1763.95 63.2184 L1763.95 70.267 Q1759.93 71.9684 1755.72 72.8596 Q1751.51 73.7508 1747.17 73.7508 Q1736.32 73.7508 1729.96 67.4314 Q1723.64 61.1119 1723.64 50.3365 Q1723.64 39.1965 1729.63 32.6746 Q1735.67 26.1121 1745.88 26.1121 Q1755.03 26.1121 1760.34 32.0264 Q1765.69 37.9003 1765.69 48.0275 M1758.23 45.84 Q1758.15 39.7232 1754.79 36.0774 Q1751.47 32.4315 1745.96 32.4315 Q1739.72 32.4315 1735.95 35.9558 Q1732.23 39.4801 1731.66 45.8805 L1758.23 45.84 Z" fill="#000000" fill-rule="evenodd" fill-opacity="1" /><path clip-path="url(#clip840)" d="M 0 0 M1794.12 49.7694 Q1785.09 49.7694 1781.61 51.8354 Q1778.12 53.9013 1778.12 58.8839 Q1778.12 62.8538 1780.72 65.2034 Q1783.35 67.5124 1787.85 67.5124 Q1794.04 67.5124 1797.77 63.1374 Q1801.54 58.7219 1801.54 51.4303 L1801.54 49.7694 L1794.12 49.7694 M1808.99 46.6907 L1808.99 72.576 L1801.54 72.576 L1801.54 65.6895 Q1798.99 69.8214 1795.18 71.8063 Q1791.37 73.7508 1785.86 73.7508 Q1778.89 73.7508 1774.76 69.8619 Q1770.67 65.9325 1770.67 59.3701 Q1770.67 51.7138 1775.77 47.825 Q1780.92 43.9361 1791.09 43.9361 L1801.54 43.9361 L1801.54 43.2069 Q1801.54 38.0623 1798.13 35.2672 Q1794.77 32.4315 1788.66 32.4315 Q1784.77 32.4315 1781.08 33.3632 Q1777.39 34.295 1773.99 36.1584 L1773.99 29.2718 Q1778.08 27.692 1781.93 26.9223 Q1785.78 26.1121 1789.43 26.1121 Q1799.27 26.1121 1804.13 31.2163 Q1808.99 36.3204 1808.99 46.6907 Z" fill="#000000" fill-rule="evenodd" fill-opacity="1" /><path clip-path="url(#clip840)" d="M 0 0 M1854.52 45.1919 L1854.52 72.576 L1847.07 72.576 L1847.07 45.4349 Q1847.07 38.994 1844.56 35.7938 Q1842.05 32.5936 1837.02 32.5936 Q1830.99 32.5936 1827.5 36.4419 Q1824.02 40.2903 1824.02 46.9338 L1824.02 72.576 L1816.53 72.576 L1816.53 27.2059 L1824.02 27.2059 L1824.02 34.2544 Q1826.69 30.163 1830.3 28.1376 Q1833.94 26.1121 1838.68 26.1121 Q1846.5 26.1121 1850.51 30.9732 Q1854.52 35.7938 1854.52 45.1919 Z" fill="#000000" fill-rule="evenodd" fill-opacity="1" /><path clip-path="url(#clip840)" d="M 0 0 M1891.18 65.6895 L1904.55 65.6895 L1904.55 19.5497 L1890.01 22.4663 L1890.01 15.0127 L1904.47 12.096 L1912.65 12.096 L1912.65 65.6895 L1926.02 65.6895 L1926.02 72.576 L1891.18 72.576 L1891.18 65.6895 Z" fill="#000000" fill-rule="evenodd" fill-opacity="1" /><polyline clip-path="url(#clip842)" style="stroke:#009af9; stroke-width:4; stroke-opacity:1; fill:none" points="
  113.995,-1747.31 115.812,-245.78 117.63,284.331 119.448,558.923 121.265,727.992 123.083,843.033 124.9,926.609 126.718,990.205 128.535,1040.3 130.353,1080.82 
  132.171,1114.32 133.988,1142.49 137.623,1187.29 141.258,1221.38 144.894,1248.23 148.529,1269.96 152.164,1287.92 155.799,1303.02 163.069,1327.04 170.34,1345.32 
  177.61,1359.72 184.88,1371.37 192.151,1381 199.421,1389.1 213.962,1401.99 228.502,1411.79 243.043,1419.52 257.584,1425.77 272.124,1430.94 286.665,1435.29 
  301.206,1439 315.746,1442.2 330.287,1445 344.828,1447.47 479.277,1461.36 613.726,1468.06 748.175,1472.04 882.625,1474.68 1151.52,1477.98 1420.42,1479.97 
  1958.22,1482.23 2496.02,1483.48 3142.4,1484.38 3788.79,1484.94 4335.3,1485.27 4881.82,1485.51 6069.15,1485.86 7163.76,1486.05 8337.3,1486.18 9696.97,1486.28 
  10905.3,1486.33 11964.9,1486.36 13120.1,1486.39 14282.2,1486.4 15567,1486.42 16789.5,1486.43 18060.6,1486.43 19130.6,1486.44 20437,1486.44 21665,1486.44 
  23632.3,1486.44 23935.1,1486.44 
  "/>
<polyline clip-path="url(#clip842)" style="stroke:#e26f46; stroke-width:4; stroke-opacity:1; fill:none" points="
  113.056,-4214.11 113.935,-1901.46 114.815,-1011.88 115.694,-526.04 116.573,-215.075 117.452,3.11453 118.331,165.713 119.21,292.161 120.089,393.671 120.968,477.195 
  121.847,547.281 122.727,607.044 124.485,703.826 126.243,779.101 128.001,839.541 129.759,889.278 131.518,931.021 133.276,966.62 136.792,1024.28 140.309,1069.14 
  143.825,1105.18 147.342,1134.83 150.858,1159.73 154.375,1180.97 161.408,1215.39 168.441,1242.18 175.474,1263.71 182.506,1281.44 189.539,1296.33 196.572,1309.04 
  203.605,1320.03 210.638,1329.64 217.671,1338.13 224.704,1345.69 257.219,1372.19 289.734,1390.03 322.248,1402.99 354.763,1412.87 419.793,1427.07 484.822,1436.86 
  614.881,1449.6 744.94,1457.61 874.999,1463.14 1005.06,1467.18 1135.12,1470.27 1265.18,1472.69 1577.82,1476.8 1890.46,1479.44 2154.79,1481 2419.12,1482.15 
  2993.4,1483.81 3522.84,1484.72 4090.45,1485.32 4748.08,1485.75 5332.51,1485.99 5845,1486.13 6403.75,1486.23 6965.82,1486.3 7587.27,1486.35 8178.55,1486.38 
  8793.35,1486.4 9310.89,1486.42 9942.73,1486.43 10536.7,1486.43 11488.3,1486.44 11634.7,1486.44 
  "/>
<polyline clip-path="url(#clip842)" style="stroke:#3da44d; stroke-width:4; stroke-opacity:1; fill:none" points="
  112.695,-1711.8 113.212,-773.751 113.73,-357.931 114.247,-109.909 114.765,59.4469 115.282,184.532 115.8,281.804 116.317,360.257 116.835,425.278 117.352,480.315 
  117.87,527.691 118.387,569.038 119.422,638.072 120.457,693.781 121.492,739.977 122.527,779.101 123.562,812.797 124.597,842.221 126.668,891.386 128.738,931.102 
  130.808,964.071 132.878,992.021 134.948,1016.12 137.018,1037.18 141.158,1072.42 145.298,1100.95 149.438,1124.67 153.578,1144.82 157.718,1162.22 161.858,1177.45 
  165.998,1190.94 170.138,1203 174.279,1213.88 178.419,1223.75 197.559,1259.95 216.7,1286.06 235.84,1306.11 254.981,1322.18 293.262,1346.67 331.543,1364.76 
  408.106,1390.26 484.668,1407.73 561.23,1420.63 637.793,1430.59 714.355,1438.53 790.917,1445.01 882.939,1451.36 974.96,1456.52 1066.98,1460.77 1159,1464.32 
  1314.61,1469.09 1470.22,1472.72 1808.28,1478.02 2119.94,1480.98 2454.08,1482.96 2841.21,1484.35 3185.25,1485.1 3486.94,1485.53 3815.86,1485.84 4146.74,1486.05 
  4512.56,1486.19 4860.64,1486.28 5222.55,1486.34 5527.21,1486.37 5899.16,1486.4 6248.81,1486.42 6808.97,1486.43 6895.17,1486.43 
  "/>
<polyline clip-path="url(#clip842)" style="stroke:#c271d2; stroke-width:4; stroke-opacity:1; fill:none" points="
  112.177,1213.85 122.254,1219.91 132.33,1225.84 142.407,1231.64 152.484,1237.3 199.07,1261.9 245.656,1284.07 292.243,1304.06 338.829,1322.06 385.416,1338.3 
  432.002,1352.92 478.589,1366.11 525.175,1377.99 581.168,1390.73 637.161,1401.97 693.154,1411.9 749.147,1420.65 843.83,1433.18 938.512,1443.33 1041.36,1452.17 
  1144.22,1459.2 1239.04,1464.4 1333.86,1468.6 1537.17,1475.11 1772.73,1479.75 1982.07,1482.25 2165.64,1483.66 2365.78,1484.66 2567.11,1485.31 2789.71,1485.76 
  3001.51,1486.02 3221.72,1486.18 3407.1,1486.27 3633.43,1486.34 3846.18,1486.38 4187.02,1486.42 4239.48,1486.42 
  "/>
<polyline clip-path="url(#clip842)" style="stroke:#ac8d18; stroke-width:4; stroke-opacity:1; fill:none" points="
  112.177,1486.45 116.068,1486.45 119.959,1486.44 123.85,1486.43 127.741,1486.4 145.729,1485.68 163.718,1482.95 172.712,1480.43 181.706,1476.98 190.7,1472.51 
  199.695,1467 208.689,1460.43 217.683,1452.84 226.677,1444.28 235.672,1434.83 253.66,1413.7 271.649,1390.38 293.269,1360.94 314.89,1331.63 336.511,1304.02 
  358.131,1279.35 376.411,1261.48 394.691,1246.7 403.831,1240.54 412.971,1235.21 422.111,1230.71 431.251,1227.03 441.18,1223.95 451.108,1221.81 461.037,1220.56 
  470.965,1220.17 490.823,1221.79 510.68,1226.27 528.986,1232.6 547.293,1240.67 565.6,1250.17 583.906,1260.78 623.159,1285.95 662.412,1312.48 707.891,1342.55 
  753.37,1370.18 793.786,1391.87 834.202,1410.59 869.643,1424.57 905.084,1436.42 943.725,1447.13 982.365,1455.81 1021.24,1462.8 1060.11,1468.32 1146.06,1476.62 
  1227.84,1481.1 1312.87,1483.67 1384.45,1484.87 1471.84,1485.67 1553.99,1486.06 1685.6,1486.32 1705.86,1486.34 
  "/>
<polyline clip-path="url(#clip842)" style="stroke:#00a9ad; stroke-width:4; stroke-opacity:1; fill:none" points="
  112.177,1486.45 117.908,1486.45 123.64,1486.45 176.634,1486.4 229.628,1483.26 245.552,1479.43 261.476,1472.87 277.399,1462.76 293.323,1448.44 306.786,1432.79 
  320.249,1413.9 333.713,1392 347.176,1367.51 376.426,1308.47 405.675,1248.09 419.158,1222.13 432.641,1198.4 446.124,1177.51 459.607,1159.93 474.062,1145.14 
  488.517,1134.77 502.972,1128.87 517.427,1127.33 525.801,1128.33 534.174,1130.64 542.548,1134.19 550.922,1138.89 567.67,1151.38 584.417,1167.32 614.184,1201.74 
  643.95,1240.37 670.053,1274.91 696.155,1308.15 724.614,1341.46 753.073,1370.82 781.701,1396 810.329,1416.85 841.981,1435.26 873.632,1449.44 903.748,1459.65 
  933.864,1467.3 996.491,1477.28 1049.21,1481.69 1113.57,1484.39 1174.08,1485.54 1271.01,1486.22 1285.93,1486.26 
  "/>
<polyline clip-path="url(#clip842)" style="stroke:#ed5d92; stroke-width:4; stroke-opacity:1; fill:none" points="
  112.177,1486.45 118.371,1486.45 175.64,1486.45 210.057,1486.45 239.155,1486.45 270.765,1486.45 299.906,1486.45 331.148,1486.45 367.345,1486.44 399.513,1486.12 
  427.722,1480.08 435.41,1474.04 443.099,1463.58 450.787,1446.49 458.476,1420.11 462.343,1402.42 466.21,1381.28 470.078,1356.38 473.945,1327.42 477.812,1294.21 
  481.679,1256.62 485.546,1214.64 489.414,1168.39 497.965,1052.45 506.516,922.356 515.067,786.629 523.619,656.123 527.687,599.272 531.755,547.483 535.823,501.877 
  539.892,463.438 543.96,432.977 548.028,411.101 552.096,398.198 556.164,394.426 560.394,400.105 564.624,415.241 568.854,439.268 573.084,471.415 577.314,510.744 
  581.544,556.198 585.774,606.637 590.004,660.887 604.247,856.587 618.49,1044.16 622.837,1095.63 627.184,1143.58 631.531,1187.76 635.879,1228.05 640.226,1264.42 
  644.573,1296.95 648.92,1325.78 653.268,1351.1 661.441,1390.08 669.614,1419.32 677.787,1440.68 685.96,1455.88 712.148,1479.1 738.336,1484.99 742.366,1485.33 
  746.396,1485.59 
  "/>
<path clip-path="url(#clip840)" d="
M1821.13 652.745 L2278.07 652.745 L2278.07 168.905 L1821.13 168.905  Z
  " fill="#ffffff" fill-rule="evenodd" fill-opacity="1"/>
<polyline clip-path="url(#clip840)" style="stroke:#000000; stroke-width:4; stroke-opacity:1; fill:none" points="
  1821.13,652.745 2278.07,652.745 2278.07,168.905 1821.13,168.905 1821.13,652.745 
  "/>
<polyline clip-path="url(#clip840)" style="stroke:#009af9; stroke-width:4; stroke-opacity:1; fill:none" points="
  1846.03,229.385 1995.4,229.385 
  "/>
<path clip-path="url(#clip840)" d="M 0 0 M2037.26 230.976 L2036.24 225.629 Q2035.2 220.142 2031.08 220.142 Q2027.98 220.142 2026.57 222.689 Q2024.79 225.883 2024.79 230.096 Q2024.79 235.189 2026.52 237.619 Q2028.28 240.096 2031.08 240.096 Q2034.18 240.096 2035.85 235.166 L2037.26 230.976 M2039.65 223.892 L2041.94 217.11 L2045.73 217.11 L2040.99 231.161 L2041.91 236.23 Q2042.12 237.365 2042.93 238.314 Q2043.88 239.425 2044.62 239.425 L2046.66 239.425 L2046.66 243.036 L2044.11 243.036 Q2041.94 243.036 2039.99 241.091 Q2039.04 240.119 2038.65 238.082 Q2037.59 240.652 2035.41 242.665 Q2034.39 243.615 2031.08 243.615 Q2025.64 243.615 2023 240.096 Q2020.29 236.462 2020.29 230.096 Q2020.29 223.291 2023.23 220.096 Q2026.5 216.531 2031.08 216.531 Q2038.28 216.531 2039.65 223.892 Z" fill="#000000" fill-rule="evenodd" fill-opacity="1" /><path clip-path="url(#clip840)" d="M 0 0 M2066.75 221.508 L2096.43 221.508 L2096.43 225.397 L2066.75 225.397 L2066.75 221.508 M2066.75 230.953 L2096.43 230.953 L2096.43 234.888 L2066.75 234.888 L2066.75 230.953 Z" fill="#000000" fill-rule="evenodd" fill-opacity="1" /><path clip-path="url(#clip840)" d="M 0 0 M2126.57 211.555 Q2122.96 211.555 2121.13 215.119 Q2119.32 218.661 2119.32 225.791 Q2119.32 232.897 2121.13 236.462 Q2122.96 240.003 2126.57 240.003 Q2130.2 240.003 2132.01 236.462 Q2133.84 232.897 2133.84 225.791 Q2133.84 218.661 2132.01 215.119 Q2130.2 211.555 2126.57 211.555 M2126.57 207.851 Q2132.38 207.851 2135.43 212.457 Q2138.51 217.041 2138.51 225.791 Q2138.51 234.517 2135.43 239.124 Q2132.38 243.707 2126.57 243.707 Q2120.76 243.707 2117.68 239.124 Q2114.62 234.517 2114.62 225.791 Q2114.62 217.041 2117.68 212.457 Q2120.76 207.851 2126.57 207.851 Z" fill="#000000" fill-rule="evenodd" fill-opacity="1" /><path clip-path="url(#clip840)" d="M 0 0 M2143.58 237.156 L2148.46 237.156 L2148.46 243.036 L2143.58 243.036 L2143.58 237.156 Z" fill="#000000" fill-rule="evenodd" fill-opacity="1" /><path clip-path="url(#clip840)" d="M 0 0 M2154.34 239.101 L2161.98 239.101 L2161.98 212.735 L2153.67 214.402 L2153.67 210.143 L2161.94 208.476 L2166.61 208.476 L2166.61 239.101 L2174.25 239.101 L2174.25 243.036 L2154.34 243.036 L2154.34 239.101 Z" fill="#000000" fill-rule="evenodd" fill-opacity="1" /><polyline clip-path="url(#clip840)" style="stroke:#e26f46; stroke-width:4; stroke-opacity:1; fill:none" points="
  1846.03,289.865 1995.4,289.865 
  "/>
<path clip-path="url(#clip840)" d="M 0 0 M2037.26 291.456 L2036.24 286.109 Q2035.2 280.622 2031.08 280.622 Q2027.98 280.622 2026.57 283.169 Q2024.79 286.363 2024.79 290.576 Q2024.79 295.669 2026.52 298.099 Q2028.28 300.576 2031.08 300.576 Q2034.18 300.576 2035.85 295.646 L2037.26 291.456 M2039.65 284.372 L2041.94 277.59 L2045.73 277.59 L2040.99 291.641 L2041.91 296.71 Q2042.12 297.845 2042.93 298.794 Q2043.88 299.905 2044.62 299.905 L2046.66 299.905 L2046.66 303.516 L2044.11 303.516 Q2041.94 303.516 2039.99 301.571 Q2039.04 300.599 2038.65 298.562 Q2037.59 301.132 2035.41 303.145 Q2034.39 304.095 2031.08 304.095 Q2025.64 304.095 2023 300.576 Q2020.29 296.942 2020.29 290.576 Q2020.29 283.771 2023.23 280.576 Q2026.5 277.011 2031.08 277.011 Q2038.28 277.011 2039.65 284.372 Z" fill="#000000" fill-rule="evenodd" fill-opacity="1" /><path clip-path="url(#clip840)" d="M 0 0 M2066.75 281.988 L2096.43 281.988 L2096.43 285.877 L2066.75 285.877 L2066.75 281.988 M2066.75 291.433 L2096.43 291.433 L2096.43 295.368 L2066.75 295.368 L2066.75 291.433 Z" fill="#000000" fill-rule="evenodd" fill-opacity="1" /><path clip-path="url(#clip840)" d="M 0 0 M2126.57 272.035 Q2122.96 272.035 2121.13 275.599 Q2119.32 279.141 2119.32 286.271 Q2119.32 293.377 2121.13 296.942 Q2122.96 300.483 2126.57 300.483 Q2130.2 300.483 2132.01 296.942 Q2133.84 293.377 2133.84 286.271 Q2133.84 279.141 2132.01 275.599 Q2130.2 272.035 2126.57 272.035 M2126.57 268.331 Q2132.38 268.331 2135.43 272.937 Q2138.51 277.521 2138.51 286.271 Q2138.51 294.997 2135.43 299.604 Q2132.38 304.187 2126.57 304.187 Q2120.76 304.187 2117.68 299.604 Q2114.62 294.997 2114.62 286.271 Q2114.62 277.521 2117.68 272.937 Q2120.76 268.331 2126.57 268.331 Z" fill="#000000" fill-rule="evenodd" fill-opacity="1" /><path clip-path="url(#clip840)" d="M 0 0 M2143.58 297.636 L2148.46 297.636 L2148.46 303.516 L2143.58 303.516 L2143.58 297.636 Z" fill="#000000" fill-rule="evenodd" fill-opacity="1" /><path clip-path="url(#clip840)" d="M 0 0 M2157.56 299.581 L2173.88 299.581 L2173.88 303.516 L2151.94 303.516 L2151.94 299.581 Q2154.6 296.826 2159.18 292.196 Q2163.79 287.544 2164.97 286.201 Q2167.21 283.678 2168.09 281.942 Q2169 280.183 2169 278.493 Q2169 275.738 2167.05 274.002 Q2165.13 272.266 2162.03 272.266 Q2159.83 272.266 2157.38 273.03 Q2154.95 273.794 2152.17 275.345 L2152.17 270.623 Q2154.99 269.488 2157.45 268.91 Q2159.9 268.331 2161.94 268.331 Q2167.31 268.331 2170.5 271.016 Q2173.7 273.701 2173.7 278.192 Q2173.7 280.322 2172.89 282.243 Q2172.1 284.141 2169.99 286.734 Q2169.41 287.405 2166.31 290.622 Q2163.21 293.817 2157.56 299.581 Z" fill="#000000" fill-rule="evenodd" fill-opacity="1" /><path clip-path="url(#clip840)" d="M 0 0 M2179 268.956 L2197.35 268.956 L2197.35 272.891 L2183.28 272.891 L2183.28 281.363 Q2184.3 281.016 2185.32 280.854 Q2186.34 280.669 2187.35 280.669 Q2193.14 280.669 2196.52 283.84 Q2199.9 287.011 2199.9 292.428 Q2199.9 298.007 2196.43 301.108 Q2192.96 304.187 2186.64 304.187 Q2184.46 304.187 2182.19 303.817 Q2179.95 303.446 2177.54 302.706 L2177.54 298.007 Q2179.62 299.141 2181.84 299.696 Q2184.07 300.252 2186.54 300.252 Q2190.55 300.252 2192.89 298.146 Q2195.22 296.039 2195.22 292.428 Q2195.22 288.817 2192.89 286.71 Q2190.55 284.604 2186.54 284.604 Q2184.67 284.604 2182.79 285.021 Q2180.94 285.437 2179 286.317 L2179 268.956 Z" fill="#000000" fill-rule="evenodd" fill-opacity="1" /><polyline clip-path="url(#clip840)" style="stroke:#3da44d; stroke-width:4; stroke-opacity:1; fill:none" points="
  1846.03,350.345 1995.4,350.345 
  "/>
<path clip-path="url(#clip840)" d="M 0 0 M2037.26 351.936 L2036.24 346.589 Q2035.2 341.102 2031.08 341.102 Q2027.98 341.102 2026.57 343.649 Q2024.79 346.843 2024.79 351.056 Q2024.79 356.149 2026.52 358.579 Q2028.28 361.056 2031.08 361.056 Q2034.18 361.056 2035.85 356.126 L2037.26 351.936 M2039.65 344.852 L2041.94 338.07 L2045.73 338.07 L2040.99 352.121 L2041.91 357.19 Q2042.12 358.325 2042.93 359.274 Q2043.88 360.385 2044.62 360.385 L2046.66 360.385 L2046.66 363.996 L2044.11 363.996 Q2041.94 363.996 2039.99 362.051 Q2039.04 361.079 2038.65 359.042 Q2037.59 361.612 2035.41 363.625 Q2034.39 364.575 2031.08 364.575 Q2025.64 364.575 2023 361.056 Q2020.29 357.422 2020.29 351.056 Q2020.29 344.251 2023.23 341.056 Q2026.5 337.491 2031.08 337.491 Q2038.28 337.491 2039.65 344.852 Z" fill="#000000" fill-rule="evenodd" fill-opacity="1" /><path clip-path="url(#clip840)" d="M 0 0 M2066.75 342.468 L2096.43 342.468 L2096.43 346.357 L2066.75 346.357 L2066.75 342.468 M2066.75 351.913 L2096.43 351.913 L2096.43 355.848 L2066.75 355.848 L2066.75 351.913 Z" fill="#000000" fill-rule="evenodd" fill-opacity="1" /><path clip-path="url(#clip840)" d="M 0 0 M2126.57 332.515 Q2122.96 332.515 2121.13 336.079 Q2119.32 339.621 2119.32 346.751 Q2119.32 353.857 2121.13 357.422 Q2122.96 360.963 2126.57 360.963 Q2130.2 360.963 2132.01 357.422 Q2133.84 353.857 2133.84 346.751 Q2133.84 339.621 2132.01 336.079 Q2130.2 332.515 2126.57 332.515 M2126.57 328.811 Q2132.38 328.811 2135.43 333.417 Q2138.51 338.001 2138.51 346.751 Q2138.51 355.477 2135.43 360.084 Q2132.38 364.667 2126.57 364.667 Q2120.76 364.667 2117.68 360.084 Q2114.62 355.477 2114.62 346.751 Q2114.62 338.001 2117.68 333.417 Q2120.76 328.811 2126.57 328.811 Z" fill="#000000" fill-rule="evenodd" fill-opacity="1" /><path clip-path="url(#clip840)" d="M 0 0 M2143.58 358.116 L2148.46 358.116 L2148.46 363.996 L2143.58 363.996 L2143.58 358.116 Z" fill="#000000" fill-rule="evenodd" fill-opacity="1" /><path clip-path="url(#clip840)" d="M 0 0 M2153.58 329.436 L2171.94 329.436 L2171.94 333.371 L2157.86 333.371 L2157.86 341.843 Q2158.88 341.496 2159.9 341.334 Q2160.92 341.149 2161.94 341.149 Q2167.72 341.149 2171.1 344.32 Q2174.48 347.491 2174.48 352.908 Q2174.48 358.487 2171.01 361.588 Q2167.54 364.667 2161.22 364.667 Q2159.04 364.667 2156.78 364.297 Q2154.53 363.926 2152.12 363.186 L2152.12 358.487 Q2154.21 359.621 2156.43 360.176 Q2158.65 360.732 2161.13 360.732 Q2165.13 360.732 2167.47 358.626 Q2169.81 356.519 2169.81 352.908 Q2169.81 349.297 2167.47 347.19 Q2165.13 345.084 2161.13 345.084 Q2159.25 345.084 2157.38 345.501 Q2155.53 345.917 2153.58 346.797 L2153.58 329.436 Z" fill="#000000" fill-rule="evenodd" fill-opacity="1" /><polyline clip-path="url(#clip840)" style="stroke:#c271d2; stroke-width:4; stroke-opacity:1; fill:none" points="
  1846.03,410.825 1995.4,410.825 
  "/>
<path clip-path="url(#clip840)" d="M 0 0 M2037.26 412.416 L2036.24 407.069 Q2035.2 401.582 2031.08 401.582 Q2027.98 401.582 2026.57 404.129 Q2024.79 407.323 2024.79 411.536 Q2024.79 416.629 2026.52 419.059 Q2028.28 421.536 2031.08 421.536 Q2034.18 421.536 2035.85 416.606 L2037.26 412.416 M2039.65 405.332 L2041.94 398.55 L2045.73 398.55 L2040.99 412.601 L2041.91 417.67 Q2042.12 418.805 2042.93 419.754 Q2043.88 420.865 2044.62 420.865 L2046.66 420.865 L2046.66 424.476 L2044.11 424.476 Q2041.94 424.476 2039.99 422.531 Q2039.04 421.559 2038.65 419.522 Q2037.59 422.092 2035.41 424.105 Q2034.39 425.055 2031.08 425.055 Q2025.64 425.055 2023 421.536 Q2020.29 417.902 2020.29 411.536 Q2020.29 404.731 2023.23 401.536 Q2026.5 397.971 2031.08 397.971 Q2038.28 397.971 2039.65 405.332 Z" fill="#000000" fill-rule="evenodd" fill-opacity="1" /><path clip-path="url(#clip840)" d="M 0 0 M2066.75 402.948 L2096.43 402.948 L2096.43 406.837 L2066.75 406.837 L2066.75 402.948 M2066.75 412.393 L2096.43 412.393 L2096.43 416.328 L2066.75 416.328 L2066.75 412.393 Z" fill="#000000" fill-rule="evenodd" fill-opacity="1" /><path clip-path="url(#clip840)" d="M 0 0 M2117.38 420.541 L2125.02 420.541 L2125.02 394.175 L2116.71 395.842 L2116.71 391.583 L2124.97 389.916 L2129.65 389.916 L2129.65 420.541 L2137.28 420.541 L2137.28 424.476 L2117.38 424.476 L2117.38 420.541 Z" fill="#000000" fill-rule="evenodd" fill-opacity="1" /><path clip-path="url(#clip840)" d="M 0 0 M2142.35 418.596 L2147.24 418.596 L2147.24 424.476 L2142.35 424.476 L2142.35 418.596 Z" fill="#000000" fill-rule="evenodd" fill-opacity="1" /><path clip-path="url(#clip840)" d="M 0 0 M2162.31 392.995 Q2158.7 392.995 2156.87 396.559 Q2155.06 400.101 2155.06 407.231 Q2155.06 414.337 2156.87 417.902 Q2158.7 421.443 2162.31 421.443 Q2165.94 421.443 2167.75 417.902 Q2169.58 414.337 2169.58 407.231 Q2169.58 400.101 2167.75 396.559 Q2165.94 392.995 2162.31 392.995 M2162.31 389.291 Q2168.12 389.291 2171.17 393.897 Q2174.25 398.481 2174.25 407.231 Q2174.25 415.957 2171.17 420.564 Q2168.12 425.147 2162.31 425.147 Q2156.5 425.147 2153.42 420.564 Q2150.36 415.957 2150.36 407.231 Q2150.36 398.481 2153.42 393.897 Q2156.5 389.291 2162.31 389.291 Z" fill="#000000" fill-rule="evenodd" fill-opacity="1" /><polyline clip-path="url(#clip840)" style="stroke:#ac8d18; stroke-width:4; stroke-opacity:1; fill:none" points="
  1846.03,471.305 1995.4,471.305 
  "/>
<path clip-path="url(#clip840)" d="M 0 0 M2037.26 472.896 L2036.24 467.549 Q2035.2 462.062 2031.08 462.062 Q2027.98 462.062 2026.57 464.609 Q2024.79 467.803 2024.79 472.016 Q2024.79 477.109 2026.52 479.539 Q2028.28 482.016 2031.08 482.016 Q2034.18 482.016 2035.85 477.086 L2037.26 472.896 M2039.65 465.812 L2041.94 459.03 L2045.73 459.03 L2040.99 473.081 L2041.91 478.15 Q2042.12 479.285 2042.93 480.234 Q2043.88 481.345 2044.62 481.345 L2046.66 481.345 L2046.66 484.956 L2044.11 484.956 Q2041.94 484.956 2039.99 483.011 Q2039.04 482.039 2038.65 480.002 Q2037.59 482.572 2035.41 484.585 Q2034.39 485.535 2031.08 485.535 Q2025.64 485.535 2023 482.016 Q2020.29 478.382 2020.29 472.016 Q2020.29 465.211 2023.23 462.016 Q2026.5 458.451 2031.08 458.451 Q2038.28 458.451 2039.65 465.812 Z" fill="#000000" fill-rule="evenodd" fill-opacity="1" /><path clip-path="url(#clip840)" d="M 0 0 M2066.75 463.428 L2096.43 463.428 L2096.43 467.317 L2066.75 467.317 L2066.75 463.428 M2066.75 472.873 L2096.43 472.873 L2096.43 476.808 L2066.75 476.808 L2066.75 472.873 Z" fill="#000000" fill-rule="evenodd" fill-opacity="1" /><path clip-path="url(#clip840)" d="M 0 0 M2116.61 450.396 L2134.97 450.396 L2134.97 454.331 L2120.9 454.331 L2120.9 462.803 Q2121.91 462.456 2122.93 462.294 Q2123.95 462.109 2124.97 462.109 Q2130.76 462.109 2134.14 465.28 Q2137.52 468.451 2137.52 473.868 Q2137.52 479.447 2134.04 482.548 Q2130.57 485.627 2124.25 485.627 Q2122.08 485.627 2119.81 485.257 Q2117.56 484.886 2115.15 484.146 L2115.15 479.447 Q2117.24 480.581 2119.46 481.136 Q2121.68 481.692 2124.16 481.692 Q2128.16 481.692 2130.5 479.586 Q2132.84 477.479 2132.84 473.868 Q2132.84 470.257 2130.5 468.15 Q2128.16 466.044 2124.16 466.044 Q2122.28 466.044 2120.41 466.461 Q2118.56 466.877 2116.61 467.757 L2116.61 450.396 Z" fill="#000000" fill-rule="evenodd" fill-opacity="1" /><path clip-path="url(#clip840)" d="M 0 0 M2142.59 479.076 L2147.47 479.076 L2147.47 484.956 L2142.59 484.956 L2142.59 479.076 Z" fill="#000000" fill-rule="evenodd" fill-opacity="1" /><path clip-path="url(#clip840)" d="M 0 0 M2162.54 453.475 Q2158.93 453.475 2157.1 457.039 Q2155.29 460.581 2155.29 467.711 Q2155.29 474.817 2157.1 478.382 Q2158.93 481.923 2162.54 481.923 Q2166.17 481.923 2167.98 478.382 Q2169.81 474.817 2169.81 467.711 Q2169.81 460.581 2167.98 457.039 Q2166.17 453.475 2162.54 453.475 M2162.54 449.771 Q2168.35 449.771 2171.4 454.377 Q2174.48 458.961 2174.48 467.711 Q2174.48 476.437 2171.4 481.044 Q2168.35 485.627 2162.54 485.627 Q2156.73 485.627 2153.65 481.044 Q2150.59 476.437 2150.59 467.711 Q2150.59 458.961 2153.65 454.377 Q2156.73 449.771 2162.54 449.771 Z" fill="#000000" fill-rule="evenodd" fill-opacity="1" /><polyline clip-path="url(#clip840)" style="stroke:#00a9ad; stroke-width:4; stroke-opacity:1; fill:none" points="
  1846.03,531.785 1995.4,531.785 
  "/>
<path clip-path="url(#clip840)" d="M 0 0 M2037.26 533.376 L2036.24 528.029 Q2035.2 522.542 2031.08 522.542 Q2027.98 522.542 2026.57 525.089 Q2024.79 528.283 2024.79 532.496 Q2024.79 537.589 2026.52 540.019 Q2028.28 542.496 2031.08 542.496 Q2034.18 542.496 2035.85 537.566 L2037.26 533.376 M2039.65 526.292 L2041.94 519.51 L2045.73 519.51 L2040.99 533.561 L2041.91 538.63 Q2042.12 539.765 2042.93 540.714 Q2043.88 541.825 2044.62 541.825 L2046.66 541.825 L2046.66 545.436 L2044.11 545.436 Q2041.94 545.436 2039.99 543.491 Q2039.04 542.519 2038.65 540.482 Q2037.59 543.052 2035.41 545.065 Q2034.39 546.015 2031.08 546.015 Q2025.64 546.015 2023 542.496 Q2020.29 538.862 2020.29 532.496 Q2020.29 525.691 2023.23 522.496 Q2026.5 518.931 2031.08 518.931 Q2038.28 518.931 2039.65 526.292 Z" fill="#000000" fill-rule="evenodd" fill-opacity="1" /><path clip-path="url(#clip840)" d="M 0 0 M2066.75 523.908 L2096.43 523.908 L2096.43 527.797 L2066.75 527.797 L2066.75 523.908 M2066.75 533.353 L2096.43 533.353 L2096.43 537.288 L2066.75 537.288 L2066.75 533.353 Z" fill="#000000" fill-rule="evenodd" fill-opacity="1" /><path clip-path="url(#clip840)" d="M 0 0 M2117.38 541.501 L2125.02 541.501 L2125.02 515.135 L2116.71 516.802 L2116.71 512.543 L2124.97 510.876 L2129.65 510.876 L2129.65 541.501 L2137.28 541.501 L2137.28 545.436 L2117.38 545.436 L2117.38 541.501 Z" fill="#000000" fill-rule="evenodd" fill-opacity="1" /><path clip-path="url(#clip840)" d="M 0 0 M2152.35 513.955 Q2148.74 513.955 2146.91 517.519 Q2145.11 521.061 2145.11 528.191 Q2145.11 535.297 2146.91 538.862 Q2148.74 542.403 2152.35 542.403 Q2155.99 542.403 2157.79 538.862 Q2159.62 535.297 2159.62 528.191 Q2159.62 521.061 2157.79 517.519 Q2155.99 513.955 2152.35 513.955 M2152.35 510.251 Q2158.16 510.251 2161.22 514.857 Q2164.3 519.441 2164.3 528.191 Q2164.3 536.917 2161.22 541.524 Q2158.16 546.107 2152.35 546.107 Q2146.54 546.107 2143.46 541.524 Q2140.41 536.917 2140.41 528.191 Q2140.41 519.441 2143.46 514.857 Q2146.54 510.251 2152.35 510.251 Z" fill="#000000" fill-rule="evenodd" fill-opacity="1" /><path clip-path="url(#clip840)" d="M 0 0 M2169.37 539.556 L2174.25 539.556 L2174.25 545.436 L2169.37 545.436 L2169.37 539.556 Z" fill="#000000" fill-rule="evenodd" fill-opacity="1" /><path clip-path="url(#clip840)" d="M 0 0 M2189.32 513.955 Q2185.71 513.955 2183.88 517.519 Q2182.08 521.061 2182.08 528.191 Q2182.08 535.297 2183.88 538.862 Q2185.71 542.403 2189.32 542.403 Q2192.96 542.403 2194.76 538.862 Q2196.59 535.297 2196.59 528.191 Q2196.59 521.061 2194.76 517.519 Q2192.96 513.955 2189.32 513.955 M2189.32 510.251 Q2195.13 510.251 2198.19 514.857 Q2201.27 519.441 2201.27 528.191 Q2201.27 536.917 2198.19 541.524 Q2195.13 546.107 2189.32 546.107 Q2183.51 546.107 2180.43 541.524 Q2177.38 536.917 2177.38 528.191 Q2177.38 519.441 2180.43 514.857 Q2183.51 510.251 2189.32 510.251 Z" fill="#000000" fill-rule="evenodd" fill-opacity="1" /><polyline clip-path="url(#clip840)" style="stroke:#ed5d92; stroke-width:4; stroke-opacity:1; fill:none" points="
  1846.03,592.265 1995.4,592.265 
  "/>
<path clip-path="url(#clip840)" d="M 0 0 M2037.26 593.856 L2036.24 588.509 Q2035.2 583.022 2031.08 583.022 Q2027.98 583.022 2026.57 585.569 Q2024.79 588.763 2024.79 592.976 Q2024.79 598.069 2026.52 600.499 Q2028.28 602.976 2031.08 602.976 Q2034.18 602.976 2035.85 598.046 L2037.26 593.856 M2039.65 586.772 L2041.94 579.99 L2045.73 579.99 L2040.99 594.041 L2041.91 599.11 Q2042.12 600.245 2042.93 601.194 Q2043.88 602.305 2044.62 602.305 L2046.66 602.305 L2046.66 605.916 L2044.11 605.916 Q2041.94 605.916 2039.99 603.971 Q2039.04 602.999 2038.65 600.962 Q2037.59 603.532 2035.41 605.545 Q2034.39 606.495 2031.08 606.495 Q2025.64 606.495 2023 602.976 Q2020.29 599.342 2020.29 592.976 Q2020.29 586.171 2023.23 582.976 Q2026.5 579.411 2031.08 579.411 Q2038.28 579.411 2039.65 586.772 Z" fill="#000000" fill-rule="evenodd" fill-opacity="1" /><path clip-path="url(#clip840)" d="M 0 0 M2066.75 584.388 L2096.43 584.388 L2096.43 588.277 L2066.75 588.277 L2066.75 584.388 M2066.75 593.833 L2096.43 593.833 L2096.43 597.768 L2066.75 597.768 L2066.75 593.833 Z" fill="#000000" fill-rule="evenodd" fill-opacity="1" /><path clip-path="url(#clip840)" d="M 0 0 M2117.38 601.981 L2125.02 601.981 L2125.02 575.615 L2116.71 577.282 L2116.71 573.023 L2124.97 571.356 L2129.65 571.356 L2129.65 601.981 L2137.28 601.981 L2137.28 605.916 L2117.38 605.916 L2117.38 601.981 Z" fill="#000000" fill-rule="evenodd" fill-opacity="1" /><path clip-path="url(#clip840)" d="M 0 0 M2152.35 574.435 Q2148.74 574.435 2146.91 577.999 Q2145.11 581.541 2145.11 588.671 Q2145.11 595.777 2146.91 599.342 Q2148.74 602.883 2152.35 602.883 Q2155.99 602.883 2157.79 599.342 Q2159.62 595.777 2159.62 588.671 Q2159.62 581.541 2157.79 577.999 Q2155.99 574.435 2152.35 574.435 M2152.35 570.731 Q2158.16 570.731 2161.22 575.337 Q2164.3 579.921 2164.3 588.671 Q2164.3 597.397 2161.22 602.004 Q2158.16 606.587 2152.35 606.587 Q2146.54 606.587 2143.46 602.004 Q2140.41 597.397 2140.41 588.671 Q2140.41 579.921 2143.46 575.337 Q2146.54 570.731 2152.35 570.731 Z" fill="#000000" fill-rule="evenodd" fill-opacity="1" /><path clip-path="url(#clip840)" d="M 0 0 M2179.37 574.435 Q2175.76 574.435 2173.93 577.999 Q2172.12 581.541 2172.12 588.671 Q2172.12 595.777 2173.93 599.342 Q2175.76 602.883 2179.37 602.883 Q2183 602.883 2184.81 599.342 Q2186.64 595.777 2186.64 588.671 Q2186.64 581.541 2184.81 577.999 Q2183 574.435 2179.37 574.435 M2179.37 570.731 Q2185.18 570.731 2188.23 575.337 Q2191.31 579.921 2191.31 588.671 Q2191.31 597.397 2188.23 602.004 Q2185.18 606.587 2179.37 606.587 Q2173.56 606.587 2170.48 602.004 Q2167.42 597.397 2167.42 588.671 Q2167.42 579.921 2170.48 575.337 Q2173.56 570.731 2179.37 570.731 Z" fill="#000000" fill-rule="evenodd" fill-opacity="1" /><path clip-path="url(#clip840)" d="M 0 0 M2196.38 600.036 L2201.27 600.036 L2201.27 605.916 L2196.38 605.916 L2196.38 600.036 Z" fill="#000000" fill-rule="evenodd" fill-opacity="1" /><path clip-path="url(#clip840)" d="M 0 0 M2216.33 574.435 Q2212.72 574.435 2210.9 577.999 Q2209.09 581.541 2209.09 588.671 Q2209.09 595.777 2210.9 599.342 Q2212.72 602.883 2216.33 602.883 Q2219.97 602.883 2221.77 599.342 Q2223.6 595.777 2223.6 588.671 Q2223.6 581.541 2221.77 577.999 Q2219.97 574.435 2216.33 574.435 M2216.33 570.731 Q2222.15 570.731 2225.2 575.337 Q2228.28 579.921 2228.28 588.671 Q2228.28 597.397 2225.2 602.004 Q2222.15 606.587 2216.33 606.587 Q2210.52 606.587 2207.45 602.004 Q2204.39 597.397 2204.39 588.671 Q2204.39 579.921 2207.45 575.337 Q2210.52 570.731 2216.33 570.731 Z" fill="#000000" fill-rule="evenodd" fill-opacity="1" /></svg>
