<?xml version="1.0" encoding="utf-8"?>
<svg xmlns="http://www.w3.org/2000/svg" xmlns:xlink="http://www.w3.org/1999/xlink" width="600" height="400" viewBox="0 0 2400 1600">
<defs>
  <clipPath id="clip1500">
    <rect x="0" y="0" width="2400" height="1600"/>
  </clipPath>
</defs>
<path clip-path="url(#clip1500)" d="
M0 1600 L2400 1600 L2400 0 L0 0  Z
  " fill="#ffffff" fill-rule="evenodd" fill-opacity="1"/>
<defs>
  <clipPath id="clip1501">
    <rect x="480" y="0" width="1681" height="1600"/>
  </clipPath>
</defs>
<path clip-path="url(#clip1500)" d="
M236.892 1402.73 L2352.76 1402.73 L2352.76 47.2441 L236.892 47.2441  Z
  " fill="#ffffff" fill-rule="evenodd" fill-opacity="1"/>
<defs>
  <clipPath id="clip1502">
    <rect x="236" y="47" width="2117" height="1356"/>
  </clipPath>
</defs>
<polyline clip-path="url(#clip1502)" style="stroke:#000000; stroke-width:2; stroke-opacity:0.1; fill:none" points="
  296.775,1402.73 296.775,47.2441 
  "/>
<polyline clip-path="url(#clip1502)" style="stroke:#000000; stroke-width:2; stroke-opacity:0.1; fill:none" points="
  795.799,1402.73 795.799,47.2441 
  "/>
<polyline clip-path="url(#clip1502)" style="stroke:#000000; stroke-width:2; stroke-opacity:0.1; fill:none" points="
  1294.82,1402.73 1294.82,47.2441 
  "/>
<polyline clip-path="url(#clip1502)" style="stroke:#000000; stroke-width:2; stroke-opacity:0.1; fill:none" points="
  1793.85,1402.73 1793.85,47.2441 
  "/>
<polyline clip-path="url(#clip1502)" style="stroke:#000000; stroke-width:2; stroke-opacity:0.1; fill:none" points="
  2292.87,1402.73 2292.87,47.2441 
  "/>
<polyline clip-path="url(#clip1502)" style="stroke:#000000; stroke-width:2; stroke-opacity:0.1; fill:none" points="
  236.892,1303.11 2352.76,1303.11 
  "/>
<polyline clip-path="url(#clip1502)" style="stroke:#000000; stroke-width:2; stroke-opacity:0.1; fill:none" points="
  236.892,1115.21 2352.76,1115.21 
  "/>
<polyline clip-path="url(#clip1502)" style="stroke:#000000; stroke-width:2; stroke-opacity:0.1; fill:none" points="
  236.892,927.314 2352.76,927.314 
  "/>
<polyline clip-path="url(#clip1502)" style="stroke:#000000; stroke-width:2; stroke-opacity:0.1; fill:none" points="
  236.892,739.417 2352.76,739.417 
  "/>
<polyline clip-path="url(#clip1502)" style="stroke:#000000; stroke-width:2; stroke-opacity:0.1; fill:none" points="
  236.892,551.519 2352.76,551.519 
  "/>
<polyline clip-path="url(#clip1502)" style="stroke:#000000; stroke-width:2; stroke-opacity:0.1; fill:none" points="
  236.892,363.622 2352.76,363.622 
  "/>
<polyline clip-path="url(#clip1502)" style="stroke:#000000; stroke-width:2; stroke-opacity:0.1; fill:none" points="
  236.892,175.724 2352.76,175.724 
  "/>
<polyline clip-path="url(#clip1500)" style="stroke:#000000; stroke-width:4; stroke-opacity:1; fill:none" points="
  236.892,1402.73 2352.76,1402.73 
  "/>
<polyline clip-path="url(#clip1500)" style="stroke:#000000; stroke-width:4; stroke-opacity:1; fill:none" points="
  236.892,1402.73 236.892,47.2441 
  "/>
<polyline clip-path="url(#clip1500)" style="stroke:#000000; stroke-width:4; stroke-opacity:1; fill:none" points="
  296.775,1402.73 296.775,1386.46 
  "/>
<polyline clip-path="url(#clip1500)" style="stroke:#000000; stroke-width:4; stroke-opacity:1; fill:none" points="
  795.799,1402.73 795.799,1386.46 
  "/>
<polyline clip-path="url(#clip1500)" style="stroke:#000000; stroke-width:4; stroke-opacity:1; fill:none" points="
  1294.82,1402.73 1294.82,1386.46 
  "/>
<polyline clip-path="url(#clip1500)" style="stroke:#000000; stroke-width:4; stroke-opacity:1; fill:none" points="
  1793.85,1402.73 1793.85,1386.46 
  "/>
<polyline clip-path="url(#clip1500)" style="stroke:#000000; stroke-width:4; stroke-opacity:1; fill:none" points="
  2292.87,1402.73 2292.87,1386.46 
  "/>
<polyline clip-path="url(#clip1500)" style="stroke:#000000; stroke-width:4; stroke-opacity:1; fill:none" points="
  236.892,1303.11 262.282,1303.11 
  "/>
<polyline clip-path="url(#clip1500)" style="stroke:#000000; stroke-width:4; stroke-opacity:1; fill:none" points="
  236.892,1115.21 262.282,1115.21 
  "/>
<polyline clip-path="url(#clip1500)" style="stroke:#000000; stroke-width:4; stroke-opacity:1; fill:none" points="
  236.892,927.314 262.282,927.314 
  "/>
<polyline clip-path="url(#clip1500)" style="stroke:#000000; stroke-width:4; stroke-opacity:1; fill:none" points="
  236.892,739.417 262.282,739.417 
  "/>
<polyline clip-path="url(#clip1500)" style="stroke:#000000; stroke-width:4; stroke-opacity:1; fill:none" points="
  236.892,551.519 262.282,551.519 
  "/>
<polyline clip-path="url(#clip1500)" style="stroke:#000000; stroke-width:4; stroke-opacity:1; fill:none" points="
  236.892,363.622 262.282,363.622 
  "/>
<polyline clip-path="url(#clip1500)" style="stroke:#000000; stroke-width:4; stroke-opacity:1; fill:none" points="
  236.892,175.724 262.282,175.724 
  "/>
<g clip-path="url(#clip1500)">
<text style="fill:#000000; fill-opacity:1; font-family:Arial,Helvetica Neue,Helvetica,sans-serif; font-size:48px; text-anchor:middle;" transform="rotate(0, 296.775, 1456.73)" x="296.775" y="1456.73">0.00</text>
</g>
<g clip-path="url(#clip1500)">
<text style="fill:#000000; fill-opacity:1; font-family:Arial,Helvetica Neue,Helvetica,sans-serif; font-size:48px; text-anchor:middle;" transform="rotate(0, 795.799, 1456.73)" x="795.799" y="1456.73">0.25</text>
</g>
<g clip-path="url(#clip1500)">
<text style="fill:#000000; fill-opacity:1; font-family:Arial,Helvetica Neue,Helvetica,sans-serif; font-size:48px; text-anchor:middle;" transform="rotate(0, 1294.82, 1456.73)" x="1294.82" y="1456.73">0.50</text>
</g>
<g clip-path="url(#clip1500)">
<text style="fill:#000000; fill-opacity:1; font-family:Arial,Helvetica Neue,Helvetica,sans-serif; font-size:48px; text-anchor:middle;" transform="rotate(0, 1793.85, 1456.73)" x="1793.85" y="1456.73">0.75</text>
</g>
<g clip-path="url(#clip1500)">
<text style="fill:#000000; fill-opacity:1; font-family:Arial,Helvetica Neue,Helvetica,sans-serif; font-size:48px; text-anchor:middle;" transform="rotate(0, 2292.87, 1456.73)" x="2292.87" y="1456.73">1.00</text>
</g>
<g clip-path="url(#clip1500)">
<text style="fill:#000000; fill-opacity:1; font-family:Arial,Helvetica Neue,Helvetica,sans-serif; font-size:48px; text-anchor:end;" transform="rotate(0, 212.892, 1320.61)" x="212.892" y="1320.61">-28</text>
</g>
<g clip-path="url(#clip1500)">
<text style="fill:#000000; fill-opacity:1; font-family:Arial,Helvetica Neue,Helvetica,sans-serif; font-size:48px; text-anchor:end;" transform="rotate(0, 212.892, 1132.71)" x="212.892" y="1132.71">-26</text>
</g>
<g clip-path="url(#clip1500)">
<text style="fill:#000000; fill-opacity:1; font-family:Arial,Helvetica Neue,Helvetica,sans-serif; font-size:48px; text-anchor:end;" transform="rotate(0, 212.892, 944.814)" x="212.892" y="944.814">-24</text>
</g>
<g clip-path="url(#clip1500)">
<text style="fill:#000000; fill-opacity:1; font-family:Arial,Helvetica Neue,Helvetica,sans-serif; font-size:48px; text-anchor:end;" transform="rotate(0, 212.892, 756.917)" x="212.892" y="756.917">-22</text>
</g>
<g clip-path="url(#clip1500)">
<text style="fill:#000000; fill-opacity:1; font-family:Arial,Helvetica Neue,Helvetica,sans-serif; font-size:48px; text-anchor:end;" transform="rotate(0, 212.892, 569.019)" x="212.892" y="569.019">-20</text>
</g>
<g clip-path="url(#clip1500)">
<text style="fill:#000000; fill-opacity:1; font-family:Arial,Helvetica Neue,Helvetica,sans-serif; font-size:48px; text-anchor:end;" transform="rotate(0, 212.892, 381.122)" x="212.892" y="381.122">-18</text>
</g>
<g clip-path="url(#clip1500)">
<text style="fill:#000000; fill-opacity:1; font-family:Arial,Helvetica Neue,Helvetica,sans-serif; font-size:48px; text-anchor:end;" transform="rotate(0, 212.892, 193.224)" x="212.892" y="193.224">-16</text>
</g>
<g clip-path="url(#clip1500)">
<text style="fill:#000000; fill-opacity:1; font-family:Arial,Helvetica Neue,Helvetica,sans-serif; font-size:66px; text-anchor:middle;" transform="rotate(0, 1294.82, 1536.59)" x="1294.82" y="1536.59">distance</text>
</g>
<g clip-path="url(#clip1500)">
<text style="fill:#000000; fill-opacity:1; font-family:Arial,Helvetica Neue,Helvetica,sans-serif; font-size:66px; text-anchor:middle;" transform="rotate(-90, 95.6949, 724.987)" x="95.6949" y="724.987">log-likelihood</text>
</g>
<polyline clip-path="url(#clip1502)" style="stroke:#000000; stroke-width:4; stroke-opacity:1; fill:none" points="
  316.736,1364.37 336.697,1051.24 356.658,873.201 376.619,750.455 396.58,657.987 416.541,584.655 436.502,524.517 456.463,474.025 476.424,430.891 496.385,393.552 
  516.346,360.894 536.307,332.094 556.267,306.526 576.228,283.706 596.189,263.247 616.15,244.839 636.111,228.228 656.072,213.204 676.033,199.59 695.994,187.237 
  715.955,176.018 735.916,165.823 755.877,156.556 775.838,148.136 795.799,140.489 815.76,133.551 835.721,127.265 855.682,121.58 875.643,116.452 895.604,111.838 
  915.565,107.703 935.526,104.013 955.487,100.737 975.448,97.8487 995.409,95.3222 1015.37,93.1346 1035.33,91.2647 1055.29,89.693 1075.25,88.4016 1095.21,87.3738 
  1115.17,86.5942 1135.14,86.0486 1155.1,85.7236 1175.06,85.6069 1195.02,85.6869 1214.98,85.9529 1234.94,86.3947 1254.9,87.0028 1274.86,87.7684 1294.82,88.6832 
  1314.78,89.7392 1334.75,90.929 1354.71,92.2458 1374.67,93.6828 1394.63,95.2338 1414.59,96.893 1434.55,98.6547 1454.51,100.514 1474.47,102.465 1494.43,104.504 
  1514.39,106.625 1534.36,108.826 1554.32,111.1 1574.28,113.446 1594.24,115.858 1614.2,118.333 1634.16,120.869 1654.12,123.461 1674.08,126.106 1694.04,128.802 
  1714,131.546 1733.97,134.335 1753.93,137.166 1773.89,140.038 1793.85,142.946 1813.81,145.89 1833.77,148.867 1853.73,151.875 1873.69,154.912 1893.65,157.976 
  1913.61,161.065 1933.58,164.177 1953.54,167.311 1973.5,170.464 1993.46,173.636 2013.42,176.825 2033.38,180.029 2053.34,183.247 2073.3,186.477 2093.26,189.718 
  2113.22,192.969 2133.19,196.229 2153.15,199.496 2173.11,202.77 2193.07,206.049 2213.03,209.332 2232.99,212.618 2252.95,215.906 2272.91,219.196 2292.87,222.485 
  
  "/>
</svg>
