<?xml version="1.0" encoding="utf-8"?>
<svg xmlns="http://www.w3.org/2000/svg" xmlns:xlink="http://www.w3.org/1999/xlink" width="600" height="400" viewBox="0 0 2400 1600">
<defs>
  <clipPath id="clip0700">
    <rect x="0" y="0" width="2400" height="1600"/>
  </clipPath>
</defs>
<path clip-path="url(#clip0700)" d="
M0 1600 L2400 1600 L2400 0 L0 0  Z
  " fill="#ffffff" fill-rule="evenodd" fill-opacity="1"/>
<defs>
  <clipPath id="clip0701">
    <rect x="480" y="0" width="1681" height="1600"/>
  </clipPath>
</defs>
<path clip-path="url(#clip0700)" d="
M230.483 1425.62 L2352.76 1425.62 L2352.76 47.2441 L230.483 47.2441  Z
  " fill="#ffffff" fill-rule="evenodd" fill-opacity="1"/>
<defs>
  <clipPath id="clip0702">
    <rect x="230" y="47" width="2123" height="1379"/>
  </clipPath>
</defs>
<polyline clip-path="url(#clip0700)" style="stroke:#000000; stroke-width:4; stroke-opacity:1; fill:none" points="
  230.483,1425.62 2352.76,1425.62 
  "/>
<polyline clip-path="url(#clip0700)" style="stroke:#000000; stroke-width:4; stroke-opacity:1; fill:none" points="
  230.483,1425.62 230.483,47.2441 
  "/>
<polyline clip-path="url(#clip0700)" style="stroke:#000000; stroke-width:4; stroke-opacity:1; fill:none" points="
  290.547,1425.62 290.547,1409.08 
  "/>
<polyline clip-path="url(#clip0700)" style="stroke:#000000; stroke-width:4; stroke-opacity:1; fill:none" points="
  791.083,1425.62 791.083,1409.08 
  "/>
<polyline clip-path="url(#clip0700)" style="stroke:#000000; stroke-width:4; stroke-opacity:1; fill:none" points="
  1291.62,1425.62 1291.62,1409.08 
  "/>
<polyline clip-path="url(#clip0700)" style="stroke:#000000; stroke-width:4; stroke-opacity:1; fill:none" points="
  1792.16,1425.62 1792.16,1409.08 
  "/>
<polyline clip-path="url(#clip0700)" style="stroke:#000000; stroke-width:4; stroke-opacity:1; fill:none" points="
  2292.69,1425.62 2292.69,1409.08 
  "/>
<polyline clip-path="url(#clip0700)" style="stroke:#000000; stroke-width:4; stroke-opacity:1; fill:none" points="
  230.483,1293.8 255.95,1293.8 
  "/>
<polyline clip-path="url(#clip0700)" style="stroke:#000000; stroke-width:4; stroke-opacity:1; fill:none" points="
  230.483,1084.56 255.95,1084.56 
  "/>
<polyline clip-path="url(#clip0700)" style="stroke:#000000; stroke-width:4; stroke-opacity:1; fill:none" points="
  230.483,875.323 255.95,875.323 
  "/>
<polyline clip-path="url(#clip0700)" style="stroke:#000000; stroke-width:4; stroke-opacity:1; fill:none" points="
  230.483,666.084 255.95,666.084 
  "/>
<polyline clip-path="url(#clip0700)" style="stroke:#000000; stroke-width:4; stroke-opacity:1; fill:none" points="
  230.483,456.844 255.95,456.844 
  "/>
<polyline clip-path="url(#clip0700)" style="stroke:#000000; stroke-width:4; stroke-opacity:1; fill:none" points="
  230.483,247.604 255.95,247.604 
  "/>
<g clip-path="url(#clip0700)">
<text style="fill:#000000; fill-opacity:1; font-family:Arial,Helvetica Neue,Helvetica,sans-serif; font-size:48px; text-anchor:middle;" transform="rotate(0, 290.547, 1479.62)" x="290.547" y="1479.62">0.00</text>
</g>
<g clip-path="url(#clip0700)">
<text style="fill:#000000; fill-opacity:1; font-family:Arial,Helvetica Neue,Helvetica,sans-serif; font-size:48px; text-anchor:middle;" transform="rotate(0, 791.083, 1479.62)" x="791.083" y="1479.62">0.25</text>
</g>
<g clip-path="url(#clip0700)">
<text style="fill:#000000; fill-opacity:1; font-family:Arial,Helvetica Neue,Helvetica,sans-serif; font-size:48px; text-anchor:middle;" transform="rotate(0, 1291.62, 1479.62)" x="1291.62" y="1479.62">0.50</text>
</g>
<g clip-path="url(#clip0700)">
<text style="fill:#000000; fill-opacity:1; font-family:Arial,Helvetica Neue,Helvetica,sans-serif; font-size:48px; text-anchor:middle;" transform="rotate(0, 1792.16, 1479.62)" x="1792.16" y="1479.62">0.75</text>
</g>
<g clip-path="url(#clip0700)">
<text style="fill:#000000; fill-opacity:1; font-family:Arial,Helvetica Neue,Helvetica,sans-serif; font-size:48px; text-anchor:middle;" transform="rotate(0, 2292.69, 1479.62)" x="2292.69" y="1479.62">1.00</text>
</g>
<g clip-path="url(#clip0700)">
<text style="fill:#000000; fill-opacity:1; font-family:Arial,Helvetica Neue,Helvetica,sans-serif; font-size:48px; text-anchor:end;" transform="rotate(0, 206.483, 1311.3)" x="206.483" y="1311.3">-55</text>
</g>
<g clip-path="url(#clip0700)">
<text style="fill:#000000; fill-opacity:1; font-family:Arial,Helvetica Neue,Helvetica,sans-serif; font-size:48px; text-anchor:end;" transform="rotate(0, 206.483, 1102.06)" x="206.483" y="1102.06">-50</text>
</g>
<g clip-path="url(#clip0700)">
<text style="fill:#000000; fill-opacity:1; font-family:Arial,Helvetica Neue,Helvetica,sans-serif; font-size:48px; text-anchor:end;" transform="rotate(0, 206.483, 892.823)" x="206.483" y="892.823">-45</text>
</g>
<g clip-path="url(#clip0700)">
<text style="fill:#000000; fill-opacity:1; font-family:Arial,Helvetica Neue,Helvetica,sans-serif; font-size:48px; text-anchor:end;" transform="rotate(0, 206.483, 683.584)" x="206.483" y="683.584">-40</text>
</g>
<g clip-path="url(#clip0700)">
<text style="fill:#000000; fill-opacity:1; font-family:Arial,Helvetica Neue,Helvetica,sans-serif; font-size:48px; text-anchor:end;" transform="rotate(0, 206.483, 474.344)" x="206.483" y="474.344">-35</text>
</g>
<g clip-path="url(#clip0700)">
<text style="fill:#000000; fill-opacity:1; font-family:Arial,Helvetica Neue,Helvetica,sans-serif; font-size:48px; text-anchor:end;" transform="rotate(0, 206.483, 265.104)" x="206.483" y="265.104">-30</text>
</g>
<g clip-path="url(#clip0700)">
<text style="fill:#000000; fill-opacity:1; font-family:Arial,Helvetica Neue,Helvetica,sans-serif; font-size:66px; text-anchor:middle;" transform="rotate(0, 1291.62, 1559.48)" x="1291.62" y="1559.48">p</text>
</g>
<g clip-path="url(#clip0700)">
<text style="fill:#000000; fill-opacity:1; font-family:Arial,Helvetica Neue,Helvetica,sans-serif; font-size:66px; text-anchor:middle;" transform="rotate(-90, 89.2861, 736.431)" x="89.2861" y="736.431">P(data|p)</text>
</g>
<polyline clip-path="url(#clip0702)" style="stroke:#000000; stroke-width:4; stroke-opacity:1; fill:none" points="
  292.549,1386.61 294.552,1104.05 296.554,941.874 298.556,828.972 300.558,743.064 302.56,674.225 304.562,617.162 306.564,568.713 308.567,526.84 310.569,490.152 
  312.571,457.654 314.573,428.615 316.575,402.477 318.577,378.808 320.579,357.263 322.582,337.567 324.584,319.493 326.586,302.854 328.588,287.493 330.59,273.275 
  332.592,260.089 334.594,247.837 336.597,236.433 338.599,225.803 340.601,215.884 342.603,206.617 344.605,197.953 346.607,189.844 348.61,182.253 350.612,175.14 
  352.614,168.475 354.616,162.227 356.618,156.369 358.62,150.877 360.622,145.727 362.625,140.901 364.627,136.377 366.629,132.14 368.631,128.173 370.633,124.462 
  372.635,120.991 374.637,117.75 376.64,114.725 378.642,111.906 380.644,109.282 382.646,106.844 384.648,104.582 386.65,102.489 388.652,100.555 390.655,98.7741 
  392.657,97.1387 394.659,95.642 396.661,94.2779 398.663,93.0403 400.665,91.9237 402.667,90.9226 404.67,90.032 406.672,89.2472 408.674,88.5635 410.676,87.9765 
  412.678,87.4823 414.68,87.0768 416.682,86.7563 418.685,86.5172 420.687,86.356 422.689,86.2696 424.691,86.2547 426.693,86.3084 428.695,86.4279 430.697,86.6103 
  432.7,86.8531 434.702,87.1536 436.704,87.5096 438.706,87.9187 440.708,88.3786 442.71,88.8871 444.712,89.4423 446.715,90.0421 448.717,90.6845 450.719,91.3678 
  452.721,92.0902 454.723,92.85 456.725,93.6454 458.727,94.4749 460.73,95.337 462.732,96.2302 464.734,97.153 466.736,98.104 468.738,99.082 470.74,100.086 
  472.742,101.113 474.745,102.164 476.747,103.237 478.749,104.331 480.751,105.445 482.753,106.577 484.755,107.727 486.757,108.893 488.76,110.076 490.762,111.273 
  492.764,112.483 494.766,113.707 496.768,114.943 498.77,116.19 500.772,117.448 502.775,118.715 504.777,119.992 506.779,121.276 508.781,122.568 510.783,123.867 
  512.785,125.173 514.787,126.483 516.79,127.799 518.792,129.119 520.794,130.443 522.796,131.77 524.798,133.1 526.8,134.432 528.802,135.765 530.805,137.1 
  532.807,138.435 534.809,139.771 536.811,141.106 538.813,142.441 540.815,143.774 542.818,145.106 544.82,146.436 546.822,147.764 548.824,149.089 550.826,150.411 
  552.828,151.729 554.83,153.044 556.833,154.355 558.835,155.662 560.837,156.964 562.839,158.261 564.841,159.553 566.843,160.84 568.845,162.121 570.848,163.396 
  572.85,164.664 574.852,165.927 576.854,167.182 578.856,168.431 580.858,169.673 582.86,170.908 584.863,172.136 586.865,173.355 588.867,174.567 590.869,175.772 
  592.871,176.968 594.873,178.156 596.875,179.335 598.878,180.507 600.88,181.669 602.882,182.823 604.884,183.968 606.886,185.104 608.888,186.232 610.89,187.35 
  612.893,188.459 614.895,189.558 616.897,190.649 618.899,191.73 620.901,192.801 622.903,193.863 624.905,194.915 626.908,195.958 628.91,196.991 630.912,198.015 
  632.914,199.028 634.916,200.032 636.918,201.026 638.92,202.01 640.923,202.984 642.925,203.949 644.927,204.904 646.929,205.848 648.931,206.783 650.933,207.708 
  652.935,208.623 654.938,209.528 656.94,210.424 658.942,211.309 660.944,212.185 662.946,213.051 664.948,213.907 666.95,214.753 668.953,215.59 670.955,216.417 
  672.957,217.234 674.959,218.041 676.961,218.839 678.963,219.628 680.965,220.406 682.968,221.176 684.97,221.936 686.972,222.686 688.974,223.427 690.976,224.159 
  692.978,224.882 694.98,225.595 696.983,226.299 698.985,226.994 700.987,227.681 702.989,228.358 704.991,229.026 706.993,229.686 708.995,230.336 710.998,230.978 
  713,231.611 715.002,232.236 717.004,232.852 719.006,233.46 721.008,234.059 723.01,234.65 725.013,235.233 727.015,235.808 729.017,236.374 731.019,236.933 
  733.021,237.483 735.023,238.026 737.025,238.561 739.028,239.088 741.03,239.607 743.032,240.119 745.034,240.623 747.036,241.12 749.038,241.609 751.041,242.091 
  753.043,242.566 755.045,243.034 757.047,243.495 759.049,243.948 761.051,244.395 763.053,244.835 765.056,245.268 767.058,245.694 769.06,246.114 771.062,246.528 
  773.064,246.934 775.066,247.335 777.068,247.729 779.071,248.117 781.073,248.498 783.075,248.874 785.077,249.243 787.079,249.607 789.081,249.964 791.083,250.316 
  793.086,250.662 795.088,251.003 797.09,251.338 799.092,251.667 801.094,251.991 803.096,252.309 805.098,252.623 807.101,252.93 809.103,253.233 811.105,253.531 
  813.107,253.824 815.109,254.111 817.111,254.394 819.113,254.672 821.116,254.945 823.118,255.213 825.12,255.477 827.122,255.736 829.124,255.991 831.126,256.241 
  833.128,256.487 835.131,256.729 837.133,256.966 839.135,257.199 841.137,257.428 843.139,257.653 845.141,257.874 847.143,258.091 849.146,258.304 851.148,258.513 
  853.15,258.719 855.152,258.92 857.154,259.118 859.156,259.313 861.158,259.504 863.161,259.691 865.163,259.875 867.165,260.055 869.167,260.232 871.169,260.406 
  873.171,260.577 875.173,260.744 877.176,260.908 879.178,261.07 881.18,261.228 883.182,261.383 885.184,261.535 887.186,261.684 889.188,261.831 891.191,261.974 
  893.193,262.115 895.195,262.253 897.197,262.389 899.199,262.522 901.201,262.652 903.203,262.78 905.206,262.905 907.208,263.028 909.21,263.148 911.212,263.266 
  913.214,263.382 915.216,263.495 917.218,263.607 919.221,263.715 921.223,263.822 923.225,263.927 925.227,264.029 927.229,264.13 929.231,264.228 931.233,264.325 
  933.236,264.419 935.238,264.512 937.24,264.602 939.242,264.691 941.244,264.778 943.246,264.863 945.248,264.947 947.251,265.028 949.253,265.108 951.255,265.187 
  953.257,265.263 955.259,265.338 957.261,265.412 959.264,265.484 961.266,265.554 963.268,265.623 965.27,265.691 967.272,265.757 969.274,265.821 971.276,265.885 
  973.279,265.947 975.281,266.007 977.283,266.066 979.285,266.124 981.287,266.181 983.289,266.237 985.291,266.291 987.294,266.344 989.296,266.396 991.298,266.447 
  993.3,266.496 995.302,266.545 997.304,266.592 999.306,266.639 1001.31,266.684 1003.31,266.729 1005.31,266.772 1007.31,266.814 1009.32,266.856 1011.32,266.896 
  1013.32,266.936 1015.32,266.975 1017.33,267.013 1019.33,267.05 1021.33,267.086 1023.33,267.121 1025.33,267.155 1027.34,267.189 1029.34,267.222 1031.34,267.254 
  1033.34,267.286 1035.34,267.316 1037.35,267.346 1039.35,267.375 1041.35,267.404 1043.35,267.432 1045.36,267.459 1047.36,267.486 1049.36,267.512 1051.36,267.537 
  1053.36,267.562 1055.37,267.586 1057.37,267.609 1059.37,267.632 1061.37,267.655 1063.38,267.676 1065.38,267.698 1067.38,267.719 1069.38,267.739 1071.38,267.759 
  1073.39,267.778 1075.39,267.797 1077.39,267.815 1079.39,267.833 1081.39,267.851 1083.4,267.868 1085.4,267.884 1087.4,267.901 1089.4,267.916 1091.41,267.932 
  1093.41,267.947 1095.41,267.961 1097.41,267.976 1099.41,267.989 1101.42,268.003 1103.42,268.016 1105.42,268.029 1107.42,268.042 1109.42,268.054 1111.43,268.066 
  1113.43,268.077 1115.43,268.088 1117.43,268.099 1119.44,268.11 1121.44,268.12 1123.44,268.131 1125.44,268.14 1127.44,268.15 1129.45,268.159 1131.45,268.168 
  1133.45,268.177 1135.45,268.186 1137.45,268.194 1139.46,268.202 1141.46,268.21 1143.46,268.218 1145.46,268.225 1147.47,268.233 1149.47,268.24 1151.47,268.247 
  1153.47,268.253 1155.47,268.26 1157.48,268.266 1159.48,268.272 1161.48,268.278 1163.48,268.284 1165.48,268.29 1167.49,268.295 1169.49,268.301 1171.49,268.306 
  1173.49,268.311 1175.5,268.316 1177.5,268.32 1179.5,268.325 1181.5,268.33 1183.5,268.334 1185.51,268.338 1187.51,268.342 1189.51,268.346 1191.51,268.35 
  1193.51,268.354 1195.52,268.357 1197.52,268.361 1199.52,268.364 1201.52,268.368 1203.53,268.371 1205.53,268.374 1207.53,268.377 1209.53,268.38 1211.53,268.383 
  1213.54,268.386 1215.54,268.388 1217.54,268.391 1219.54,268.393 1221.54,268.396 1223.55,268.398 1225.55,268.4 1227.55,268.403 1229.55,268.405 1231.56,268.407 
  1233.56,268.409 1235.56,268.411 1237.56,268.413 1239.56,268.415 1241.57,268.416 1243.57,268.418 1245.57,268.42 1247.57,268.421 1249.57,268.423 1251.58,268.424 
  1253.58,268.426 1255.58,268.427 1257.58,268.429 1259.59,268.43 1261.59,268.431 1263.59,268.432 1265.59,268.434 1267.59,268.435 1269.6,268.436 1271.6,268.437 
  1273.6,268.438 1275.6,268.439 1277.6,268.44 1279.61,268.441 1281.61,268.442 1283.61,268.443 1285.61,268.443 1287.62,268.444 1289.62,268.445 1291.62,268.446 
  1293.62,268.446 1295.62,268.447 1297.63,268.448 1299.63,268.448 1301.63,268.449 1303.63,268.45 1305.63,268.45 1307.64,268.451 1309.64,268.451 1311.64,268.452 
  1313.64,268.452 1315.65,268.453 1317.65,268.453 1319.65,268.454 1321.65,268.454 1323.65,268.455 1325.66,268.455 1327.66,268.455 1329.66,268.456 1331.66,268.456 
  1333.66,268.456 1335.67,268.457 1337.67,268.457 1339.67,268.457 1341.67,268.458 1343.68,268.458 1345.68,268.458 1347.68,268.459 1349.68,268.459 1351.68,268.459 
  1353.69,268.459 1355.69,268.459 1357.69,268.46 1359.69,268.46 1361.69,268.46 1363.7,268.46 1365.7,268.46 1367.7,268.461 1369.7,268.461 1371.71,268.461 
  1373.71,268.461 1375.71,268.461 1377.71,268.461 1379.71,268.461 1381.72,268.462 1383.72,268.462 1385.72,268.462 1387.72,268.462 1389.72,268.462 1391.73,268.462 
  1393.73,268.462 1395.73,268.462 1397.73,268.462 1399.74,268.463 1401.74,268.463 1403.74,268.463 1405.74,268.463 1407.74,268.463 1409.75,268.463 1411.75,268.463 
  1413.75,268.463 1415.75,268.463 1417.75,268.463 1419.76,268.463 1421.76,268.463 1423.76,268.463 1425.76,268.463 1427.77,268.463 1429.77,268.463 1431.77,268.463 
  1433.77,268.463 1435.77,268.464 1437.78,268.464 1439.78,268.464 1441.78,268.464 1443.78,268.464 1445.78,268.464 1447.79,268.464 1449.79,268.464 1451.79,268.464 
  1453.79,268.464 1455.8,268.464 1457.8,268.464 1459.8,268.464 1461.8,268.464 1463.8,268.464 1465.81,268.464 1467.81,268.464 1469.81,268.464 1471.81,268.464 
  1473.81,268.464 1475.82,268.464 1477.82,268.464 1479.82,268.464 1481.82,268.464 1483.83,268.464 1485.83,268.464 1487.83,268.464 1489.83,268.464 1491.83,268.464 
  1493.84,268.464 1495.84,268.464 1497.84,268.464 1499.84,268.464 1501.84,268.464 1503.85,268.464 1505.85,268.464 1507.85,268.464 1509.85,268.464 1511.86,268.464 
  1513.86,268.464 1515.86,268.464 1517.86,268.464 1519.86,268.464 1521.87,268.464 1523.87,268.464 1525.87,268.464 1527.87,268.464 1529.87,268.464 1531.88,268.464 
  1533.88,268.464 1535.88,268.464 1537.88,268.464 1539.89,268.464 1541.89,268.464 1543.89,268.464 1545.89,268.464 1547.89,268.464 1549.9,268.464 1551.9,268.464 
  1553.9,268.464 1555.9,268.464 1557.9,268.464 1559.91,268.464 1561.91,268.464 1563.91,268.464 1565.91,268.464 1567.92,268.464 1569.92,268.464 1571.92,268.464 
  1573.92,268.464 1575.92,268.464 1577.93,268.464 1579.93,268.464 1581.93,268.464 1583.93,268.464 1585.93,268.464 1587.94,268.464 1589.94,268.464 1591.94,268.464 
  1593.94,268.464 1595.95,268.464 1597.95,268.464 1599.95,268.464 1601.95,268.464 1603.95,268.464 1605.96,268.464 1607.96,268.464 1609.96,268.464 1611.96,268.464 
  1613.96,268.464 1615.97,268.464 1617.97,268.464 1619.97,268.464 1621.97,268.464 1623.98,268.464 1625.98,268.464 1627.98,268.464 1629.98,268.464 1631.98,268.464 
  1633.99,268.464 1635.99,268.464 1637.99,268.464 1639.99,268.464 1641.99,268.464 1644,268.464 1646,268.464 1648,268.464 1650,268.464 1652.01,268.464 
  1654.01,268.464 1656.01,268.464 1658.01,268.464 1660.01,268.464 1662.02,268.464 1664.02,268.464 1666.02,268.464 1668.02,268.464 1670.02,268.464 1672.03,268.464 
  1674.03,268.464 1676.03,268.464 1678.03,268.464 1680.04,268.464 1682.04,268.464 1684.04,268.464 1686.04,268.464 1688.04,268.464 1690.05,268.464 1692.05,268.464 
  1694.05,268.464 1696.05,268.464 1698.05,268.464 1700.06,268.464 1702.06,268.464 1704.06,268.464 1706.06,268.464 1708.07,268.464 1710.07,268.464 1712.07,268.464 
  1714.07,268.464 1716.07,268.464 1718.08,268.464 1720.08,268.464 1722.08,268.464 1724.08,268.464 1726.08,268.464 1728.09,268.464 1730.09,268.464 1732.09,268.464 
  1734.09,268.464 1736.1,268.464 1738.1,268.464 1740.1,268.464 1742.1,268.464 1744.1,268.464 1746.11,268.464 1748.11,268.464 1750.11,268.464 1752.11,268.464 
  1754.11,268.464 1756.12,268.464 1758.12,268.464 1760.12,268.464 1762.12,268.464 1764.13,268.464 1766.13,268.464 1768.13,268.464 1770.13,268.464 1772.13,268.464 
  1774.14,268.464 1776.14,268.464 1778.14,268.464 1780.14,268.464 1782.14,268.464 1784.15,268.464 1786.15,268.464 1788.15,268.464 1790.15,268.464 1792.16,268.464 
  1794.16,268.464 1796.16,268.464 1798.16,268.464 1800.16,268.464 1802.17,268.464 1804.17,268.464 1806.17,268.464 1808.17,268.464 1810.17,268.464 1812.18,268.464 
  1814.18,268.464 1816.18,268.464 1818.18,268.464 1820.19,268.464 1822.19,268.464 1824.19,268.464 1826.19,268.464 1828.19,268.464 1830.2,268.464 1832.2,268.464 
  1834.2,268.464 1836.2,268.464 1838.2,268.464 1840.21,268.464 1842.21,268.464 1844.21,268.464 1846.21,268.464 1848.22,268.464 1850.22,268.464 1852.22,268.464 
  1854.22,268.464 1856.22,268.464 1858.23,268.464 1860.23,268.464 1862.23,268.464 1864.23,268.464 1866.23,268.464 1868.24,268.464 1870.24,268.464 1872.24,268.464 
  1874.24,268.464 1876.25,268.464 1878.25,268.464 1880.25,268.464 1882.25,268.464 1884.25,268.464 1886.26,268.464 1888.26,268.464 1890.26,268.464 1892.26,268.464 
  1894.26,268.464 1896.27,268.464 1898.27,268.464 1900.27,268.464 1902.27,268.464 1904.28,268.464 1906.28,268.464 1908.28,268.464 1910.28,268.464 1912.28,268.464 
  1914.29,268.464 1916.29,268.464 1918.29,268.464 1920.29,268.464 1922.29,268.464 1924.3,268.464 1926.3,268.464 1928.3,268.464 1930.3,268.464 1932.31,268.464 
  1934.31,268.464 1936.31,268.464 1938.31,268.464 1940.31,268.464 1942.32,268.464 1944.32,268.464 1946.32,268.464 1948.32,268.464 1950.32,268.464 1952.33,268.464 
  1954.33,268.464 1956.33,268.464 1958.33,268.464 1960.34,268.464 1962.34,268.464 1964.34,268.464 1966.34,268.464 1968.34,268.464 1970.35,268.464 1972.35,268.464 
  1974.35,268.464 1976.35,268.464 1978.35,268.464 1980.36,268.464 1982.36,268.464 1984.36,268.464 1986.36,268.464 1988.37,268.464 1990.37,268.464 1992.37,268.464 
  1994.37,268.464 1996.37,268.464 1998.38,268.464 2000.38,268.464 2002.38,268.464 2004.38,268.464 2006.38,268.464 2008.39,268.464 2010.39,268.464 2012.39,268.464 
  2014.39,268.464 2016.4,268.464 2018.4,268.464 2020.4,268.464 2022.4,268.464 2024.4,268.464 2026.41,268.464 2028.41,268.464 2030.41,268.464 2032.41,268.464 
  2034.41,268.464 2036.42,268.464 2038.42,268.464 2040.42,268.464 2042.42,268.464 2044.43,268.464 2046.43,268.464 2048.43,268.464 2050.43,268.464 2052.43,268.464 
  2054.44,268.464 2056.44,268.464 2058.44,268.464 2060.44,268.464 2062.44,268.464 2064.45,268.464 2066.45,268.464 2068.45,268.464 2070.45,268.464 2072.46,268.464 
  2074.46,268.464 2076.46,268.464 2078.46,268.464 2080.46,268.464 2082.47,268.464 2084.47,268.464 2086.47,268.464 2088.47,268.464 2090.48,268.464 2092.48,268.464 
  2094.48,268.464 2096.48,268.464 2098.48,268.464 2100.49,268.464 2102.49,268.464 2104.49,268.464 2106.49,268.464 2108.49,268.464 2110.5,268.464 2112.5,268.464 
  2114.5,268.464 2116.5,268.464 2118.51,268.464 2120.51,268.464 2122.51,268.464 2124.51,268.464 2126.51,268.464 2128.52,268.464 2130.52,268.464 2132.52,268.464 
  2134.52,268.464 2136.52,268.464 2138.53,268.464 2140.53,268.464 2142.53,268.464 2144.53,268.464 2146.54,268.464 2148.54,268.464 2150.54,268.463 2152.54,268.463 
  2154.54,268.463 2156.55,268.463 2158.55,268.463 2160.55,268.463 2162.55,268.463 2164.55,268.463 2166.56,268.463 2168.56,268.463 2170.56,268.463 2172.56,268.463 
  2174.57,268.463 2176.57,268.463 2178.57,268.463 2180.57,268.463 2182.57,268.463 2184.58,268.463 2186.58,268.462 2188.58,268.462 2190.58,268.462 2192.58,268.462 
  2194.59,268.462 2196.59,268.462 2198.59,268.462 2200.59,268.462 2202.6,268.462 2204.6,268.461 2206.6,268.461 2208.6,268.461 2210.6,268.461 2212.61,268.461 
  2214.61,268.461 2216.61,268.461 2218.61,268.46 2220.61,268.46 2222.62,268.46 2224.62,268.46 2226.62,268.46 2228.62,268.459 2230.63,268.459 2232.63,268.459 
  2234.63,268.459 2236.63,268.459 2238.63,268.458 2240.64,268.458 2242.64,268.458 2244.64,268.457 2246.64,268.457 2248.64,268.457 2250.65,268.456 2252.65,268.456 
  2254.65,268.456 2256.65,268.455 2258.66,268.455 2260.66,268.455 2262.66,268.454 2264.66,268.454 2266.66,268.453 2268.67,268.453 2270.67,268.452 2272.67,268.452 
  2274.67,268.451 2276.67,268.451 2278.68,268.45 2280.68,268.45 2282.68,268.449 2284.68,268.448 2286.69,268.448 2288.69,268.447 2290.69,268.446 2292.69,268.446 
  
  "/>
</svg>
