<?xml version="1.0" encoding="utf-8"?>
<svg xmlns="http://www.w3.org/2000/svg" xmlns:xlink="http://www.w3.org/1999/xlink" width="600" height="400" viewBox="0 0 2400 1600">
<defs>
  <clipPath id="clip1000">
    <rect x="0" y="0" width="2400" height="1600"/>
  </clipPath>
</defs>
<path clip-path="url(#clip1000)" d="
M0 1600 L2400 1600 L2400 0 L0 0  Z
  " fill="#ffffff" fill-rule="evenodd" fill-opacity="1"/>
<defs>
  <clipPath id="clip1001">
    <rect x="480" y="0" width="1681" height="1600"/>
  </clipPath>
</defs>
<path clip-path="url(#clip1000)" d="
M230.483 1425.62 L2352.76 1425.62 L2352.76 47.2441 L230.483 47.2441  Z
  " fill="#ffffff" fill-rule="evenodd" fill-opacity="1"/>
<defs>
  <clipPath id="clip1002">
    <rect x="230" y="47" width="2123" height="1379"/>
  </clipPath>
</defs>
<polyline clip-path="url(#clip1002)" style="stroke:#000000; stroke-width:2; stroke-opacity:0.1; fill:none" points="
  290.547,1425.62 290.547,47.2441 
  "/>
<polyline clip-path="url(#clip1002)" style="stroke:#000000; stroke-width:2; stroke-opacity:0.1; fill:none" points="
  791.083,1425.62 791.083,47.2441 
  "/>
<polyline clip-path="url(#clip1002)" style="stroke:#000000; stroke-width:2; stroke-opacity:0.1; fill:none" points="
  1291.62,1425.62 1291.62,47.2441 
  "/>
<polyline clip-path="url(#clip1002)" style="stroke:#000000; stroke-width:2; stroke-opacity:0.1; fill:none" points="
  1792.16,1425.62 1792.16,47.2441 
  "/>
<polyline clip-path="url(#clip1002)" style="stroke:#000000; stroke-width:2; stroke-opacity:0.1; fill:none" points="
  2292.69,1425.62 2292.69,47.2441 
  "/>
<polyline clip-path="url(#clip1002)" style="stroke:#000000; stroke-width:2; stroke-opacity:0.1; fill:none" points="
  230.483,1324.32 2352.76,1324.32 
  "/>
<polyline clip-path="url(#clip1002)" style="stroke:#000000; stroke-width:2; stroke-opacity:0.1; fill:none" points="
  230.483,1133.25 2352.76,1133.25 
  "/>
<polyline clip-path="url(#clip1002)" style="stroke:#000000; stroke-width:2; stroke-opacity:0.1; fill:none" points="
  230.483,942.175 2352.76,942.175 
  "/>
<polyline clip-path="url(#clip1002)" style="stroke:#000000; stroke-width:2; stroke-opacity:0.1; fill:none" points="
  230.483,751.105 2352.76,751.105 
  "/>
<polyline clip-path="url(#clip1002)" style="stroke:#000000; stroke-width:2; stroke-opacity:0.1; fill:none" points="
  230.483,560.035 2352.76,560.035 
  "/>
<polyline clip-path="url(#clip1002)" style="stroke:#000000; stroke-width:2; stroke-opacity:0.1; fill:none" points="
  230.483,368.965 2352.76,368.965 
  "/>
<polyline clip-path="url(#clip1002)" style="stroke:#000000; stroke-width:2; stroke-opacity:0.1; fill:none" points="
  230.483,177.894 2352.76,177.894 
  "/>
<polyline clip-path="url(#clip1000)" style="stroke:#000000; stroke-width:4; stroke-opacity:1; fill:none" points="
  230.483,1425.62 2352.76,1425.62 
  "/>
<polyline clip-path="url(#clip1000)" style="stroke:#000000; stroke-width:4; stroke-opacity:1; fill:none" points="
  230.483,1425.62 230.483,47.2441 
  "/>
<polyline clip-path="url(#clip1000)" style="stroke:#000000; stroke-width:4; stroke-opacity:1; fill:none" points="
  290.547,1425.62 290.547,1409.08 
  "/>
<polyline clip-path="url(#clip1000)" style="stroke:#000000; stroke-width:4; stroke-opacity:1; fill:none" points="
  791.083,1425.62 791.083,1409.08 
  "/>
<polyline clip-path="url(#clip1000)" style="stroke:#000000; stroke-width:4; stroke-opacity:1; fill:none" points="
  1291.62,1425.62 1291.62,1409.08 
  "/>
<polyline clip-path="url(#clip1000)" style="stroke:#000000; stroke-width:4; stroke-opacity:1; fill:none" points="
  1792.16,1425.62 1792.16,1409.08 
  "/>
<polyline clip-path="url(#clip1000)" style="stroke:#000000; stroke-width:4; stroke-opacity:1; fill:none" points="
  2292.69,1425.62 2292.69,1409.08 
  "/>
<polyline clip-path="url(#clip1000)" style="stroke:#000000; stroke-width:4; stroke-opacity:1; fill:none" points="
  230.483,1324.32 255.95,1324.32 
  "/>
<polyline clip-path="url(#clip1000)" style="stroke:#000000; stroke-width:4; stroke-opacity:1; fill:none" points="
  230.483,1133.25 255.95,1133.25 
  "/>
<polyline clip-path="url(#clip1000)" style="stroke:#000000; stroke-width:4; stroke-opacity:1; fill:none" points="
  230.483,942.175 255.95,942.175 
  "/>
<polyline clip-path="url(#clip1000)" style="stroke:#000000; stroke-width:4; stroke-opacity:1; fill:none" points="
  230.483,751.105 255.95,751.105 
  "/>
<polyline clip-path="url(#clip1000)" style="stroke:#000000; stroke-width:4; stroke-opacity:1; fill:none" points="
  230.483,560.035 255.95,560.035 
  "/>
<polyline clip-path="url(#clip1000)" style="stroke:#000000; stroke-width:4; stroke-opacity:1; fill:none" points="
  230.483,368.965 255.95,368.965 
  "/>
<polyline clip-path="url(#clip1000)" style="stroke:#000000; stroke-width:4; stroke-opacity:1; fill:none" points="
  230.483,177.894 255.95,177.894 
  "/>
<g clip-path="url(#clip1000)">
<text style="fill:#000000; fill-opacity:1; font-family:Arial,Helvetica Neue,Helvetica,sans-serif; font-size:48px; text-anchor:middle;" transform="rotate(0, 290.547, 1479.62)" x="290.547" y="1479.62">0.00</text>
</g>
<g clip-path="url(#clip1000)">
<text style="fill:#000000; fill-opacity:1; font-family:Arial,Helvetica Neue,Helvetica,sans-serif; font-size:48px; text-anchor:middle;" transform="rotate(0, 791.083, 1479.62)" x="791.083" y="1479.62">0.25</text>
</g>
<g clip-path="url(#clip1000)">
<text style="fill:#000000; fill-opacity:1; font-family:Arial,Helvetica Neue,Helvetica,sans-serif; font-size:48px; text-anchor:middle;" transform="rotate(0, 1291.62, 1479.62)" x="1291.62" y="1479.62">0.50</text>
</g>
<g clip-path="url(#clip1000)">
<text style="fill:#000000; fill-opacity:1; font-family:Arial,Helvetica Neue,Helvetica,sans-serif; font-size:48px; text-anchor:middle;" transform="rotate(0, 1792.16, 1479.62)" x="1792.16" y="1479.62">0.75</text>
</g>
<g clip-path="url(#clip1000)">
<text style="fill:#000000; fill-opacity:1; font-family:Arial,Helvetica Neue,Helvetica,sans-serif; font-size:48px; text-anchor:middle;" transform="rotate(0, 2292.69, 1479.62)" x="2292.69" y="1479.62">1.00</text>
</g>
<g clip-path="url(#clip1000)">
<text style="fill:#000000; fill-opacity:1; font-family:Arial,Helvetica Neue,Helvetica,sans-serif; font-size:48px; text-anchor:end;" transform="rotate(0, 206.483, 1341.82)" x="206.483" y="1341.82">-28</text>
</g>
<g clip-path="url(#clip1000)">
<text style="fill:#000000; fill-opacity:1; font-family:Arial,Helvetica Neue,Helvetica,sans-serif; font-size:48px; text-anchor:end;" transform="rotate(0, 206.483, 1150.75)" x="206.483" y="1150.75">-26</text>
</g>
<g clip-path="url(#clip1000)">
<text style="fill:#000000; fill-opacity:1; font-family:Arial,Helvetica Neue,Helvetica,sans-serif; font-size:48px; text-anchor:end;" transform="rotate(0, 206.483, 959.675)" x="206.483" y="959.675">-24</text>
</g>
<g clip-path="url(#clip1000)">
<text style="fill:#000000; fill-opacity:1; font-family:Arial,Helvetica Neue,Helvetica,sans-serif; font-size:48px; text-anchor:end;" transform="rotate(0, 206.483, 768.605)" x="206.483" y="768.605">-22</text>
</g>
<g clip-path="url(#clip1000)">
<text style="fill:#000000; fill-opacity:1; font-family:Arial,Helvetica Neue,Helvetica,sans-serif; font-size:48px; text-anchor:end;" transform="rotate(0, 206.483, 577.535)" x="206.483" y="577.535">-20</text>
</g>
<g clip-path="url(#clip1000)">
<text style="fill:#000000; fill-opacity:1; font-family:Arial,Helvetica Neue,Helvetica,sans-serif; font-size:48px; text-anchor:end;" transform="rotate(0, 206.483, 386.465)" x="206.483" y="386.465">-18</text>
</g>
<g clip-path="url(#clip1000)">
<text style="fill:#000000; fill-opacity:1; font-family:Arial,Helvetica Neue,Helvetica,sans-serif; font-size:48px; text-anchor:end;" transform="rotate(0, 206.483, 195.394)" x="206.483" y="195.394">-16</text>
</g>
<g clip-path="url(#clip1000)">
<text style="fill:#000000; fill-opacity:1; font-family:Arial,Helvetica Neue,Helvetica,sans-serif; font-size:66px; text-anchor:middle;" transform="rotate(0, 1291.62, 1559.48)" x="1291.62" y="1559.48">distance</text>
</g>
<g clip-path="url(#clip1000)">
<text style="fill:#000000; fill-opacity:1; font-family:Arial,Helvetica Neue,Helvetica,sans-serif; font-size:66px; text-anchor:middle;" transform="rotate(-90, 89.2861, 736.431)" x="89.2861" y="736.431">log-likelihood</text>
</g>
<polyline clip-path="url(#clip1002)" style="stroke:#000000; stroke-width:4; stroke-opacity:1; fill:none" points="
  310.569,1386.61 330.59,1068.19 350.612,887.147 370.633,762.329 390.655,668.3 410.676,593.73 430.697,532.577 450.719,481.232 470.74,437.37 490.762,399.4 
  510.783,366.191 530.805,336.904 550.826,310.905 570.848,287.699 590.869,266.895 610.89,248.176 630.912,231.285 650.933,216.007 670.955,202.163 690.976,189.602 
  710.998,178.193 731.019,167.825 751.041,158.403 771.062,149.84 791.083,142.064 811.105,135.009 831.126,128.617 851.148,122.836 871.169,117.621 891.191,112.93 
  911.212,108.725 931.233,104.972 951.255,101.641 971.276,98.7039 991.298,96.1347 1011.32,93.9102 1031.34,92.0087 1051.36,90.4105 1071.38,89.0973 1091.41,88.0521 
  1111.43,87.2594 1131.45,86.7045 1151.47,86.3741 1171.49,86.2554 1191.51,86.3368 1211.53,86.6072 1231.56,87.0565 1251.58,87.6749 1271.6,88.4534 1291.62,89.3836 
  1311.64,90.4574 1331.66,91.6674 1351.68,93.0063 1371.71,94.4676 1391.73,96.0448 1411.75,97.732 1431.77,99.5235 1451.79,101.414 1471.81,103.398 1491.83,105.471 
  1511.86,107.629 1531.88,109.866 1551.9,112.179 1571.92,114.564 1591.94,117.017 1611.96,119.534 1631.98,122.112 1652.01,124.748 1672.03,127.438 1692.05,130.18 
  1712.07,132.97 1732.09,135.806 1752.11,138.685 1772.13,141.605 1792.16,144.563 1812.18,147.557 1832.2,150.584 1852.22,153.643 1872.24,156.731 1892.26,159.846 
  1912.28,162.987 1932.31,166.152 1952.33,169.339 1972.35,172.546 1992.37,175.771 2012.39,179.014 2032.41,182.272 2052.43,185.544 2072.46,188.828 2092.48,192.124 
  2112.5,195.43 2132.52,198.745 2152.54,202.068 2172.56,205.397 2192.58,208.731 2212.61,212.069 2232.63,215.411 2252.65,218.755 2272.67,222.1 2292.69,225.445 
  
  "/>
<polyline clip-path="url(#clip1002)" style="stroke:#e26f46; stroke-width:4; stroke-opacity:1; fill:none" points="
  1173.17,2803.99 1173.17,-1331.13 
  "/>
<polyline clip-path="url(#clip1002)" style="stroke:#3da44d; stroke-width:4; stroke-opacity:1; fill:none" points="
  -1891.79,86.2547 4475.03,86.2547 
  "/>
</svg>
