<?xml version="1.0" encoding="utf-8"?>
<svg xmlns="http://www.w3.org/2000/svg" xmlns:xlink="http://www.w3.org/1999/xlink" width="600" height="400" viewBox="0 0 2400 1600">
<defs>
  <clipPath id="clip8400">
    <rect x="0" y="0" width="2400" height="1600"/>
  </clipPath>
</defs>
<path clip-path="url(#clip8400)" d="
M0 1600 L2400 1600 L2400 0 L0 0  Z
  " fill="#ffffff" fill-rule="evenodd" fill-opacity="1"/>
<defs>
  <clipPath id="clip8401">
    <rect x="480" y="0" width="1681" height="1600"/>
  </clipPath>
</defs>
<path clip-path="url(#clip8400)" d="
M230.483 1425.62 L2352.76 1425.62 L2352.76 47.2441 L230.483 47.2441  Z
  " fill="#ffffff" fill-rule="evenodd" fill-opacity="1"/>
<defs>
  <clipPath id="clip8402">
    <rect x="230" y="47" width="2123" height="1379"/>
  </clipPath>
</defs>
<polyline clip-path="url(#clip8400)" style="stroke:#000000; stroke-width:4; stroke-opacity:1; fill:none" points="
  230.483,1425.62 2352.76,1425.62 
  "/>
<polyline clip-path="url(#clip8400)" style="stroke:#000000; stroke-width:4; stroke-opacity:1; fill:none" points="
  230.483,1425.62 230.483,47.2441 
  "/>
<polyline clip-path="url(#clip8400)" style="stroke:#000000; stroke-width:4; stroke-opacity:1; fill:none" points="
  290.547,1425.62 290.547,1409.08 
  "/>
<polyline clip-path="url(#clip8400)" style="stroke:#000000; stroke-width:4; stroke-opacity:1; fill:none" points="
  791.083,1425.62 791.083,1409.08 
  "/>
<polyline clip-path="url(#clip8400)" style="stroke:#000000; stroke-width:4; stroke-opacity:1; fill:none" points="
  1291.62,1425.62 1291.62,1409.08 
  "/>
<polyline clip-path="url(#clip8400)" style="stroke:#000000; stroke-width:4; stroke-opacity:1; fill:none" points="
  1792.16,1425.62 1792.16,1409.08 
  "/>
<polyline clip-path="url(#clip8400)" style="stroke:#000000; stroke-width:4; stroke-opacity:1; fill:none" points="
  2292.69,1425.62 2292.69,1409.08 
  "/>
<polyline clip-path="url(#clip8400)" style="stroke:#000000; stroke-width:4; stroke-opacity:1; fill:none" points="
  230.483,1279.99 255.95,1279.99 
  "/>
<polyline clip-path="url(#clip8400)" style="stroke:#000000; stroke-width:4; stroke-opacity:1; fill:none" points="
  230.483,914.556 255.95,914.556 
  "/>
<polyline clip-path="url(#clip8400)" style="stroke:#000000; stroke-width:4; stroke-opacity:1; fill:none" points="
  230.483,549.119 255.95,549.119 
  "/>
<polyline clip-path="url(#clip8400)" style="stroke:#000000; stroke-width:4; stroke-opacity:1; fill:none" points="
  230.483,183.681 255.95,183.681 
  "/>
<g clip-path="url(#clip8400)">
<text style="fill:#000000; fill-opacity:1; font-family:Arial,Helvetica Neue,Helvetica,sans-serif; font-size:48px; text-anchor:middle;" transform="rotate(0, 290.547, 1479.62)" x="290.547" y="1479.62">0.00</text>
</g>
<g clip-path="url(#clip8400)">
<text style="fill:#000000; fill-opacity:1; font-family:Arial,Helvetica Neue,Helvetica,sans-serif; font-size:48px; text-anchor:middle;" transform="rotate(0, 791.083, 1479.62)" x="791.083" y="1479.62">0.25</text>
</g>
<g clip-path="url(#clip8400)">
<text style="fill:#000000; fill-opacity:1; font-family:Arial,Helvetica Neue,Helvetica,sans-serif; font-size:48px; text-anchor:middle;" transform="rotate(0, 1291.62, 1479.62)" x="1291.62" y="1479.62">0.50</text>
</g>
<g clip-path="url(#clip8400)">
<text style="fill:#000000; fill-opacity:1; font-family:Arial,Helvetica Neue,Helvetica,sans-serif; font-size:48px; text-anchor:middle;" transform="rotate(0, 1792.16, 1479.62)" x="1792.16" y="1479.62">0.75</text>
</g>
<g clip-path="url(#clip8400)">
<text style="fill:#000000; fill-opacity:1; font-family:Arial,Helvetica Neue,Helvetica,sans-serif; font-size:48px; text-anchor:middle;" transform="rotate(0, 2292.69, 1479.62)" x="2292.69" y="1479.62">1.00</text>
</g>
<g clip-path="url(#clip8400)">
<text style="fill:#000000; fill-opacity:1; font-family:Arial,Helvetica Neue,Helvetica,sans-serif; font-size:48px; text-anchor:end;" transform="rotate(0, 206.483, 1297.49)" x="206.483" y="1297.49">-60</text>
</g>
<g clip-path="url(#clip8400)">
<text style="fill:#000000; fill-opacity:1; font-family:Arial,Helvetica Neue,Helvetica,sans-serif; font-size:48px; text-anchor:end;" transform="rotate(0, 206.483, 932.056)" x="206.483" y="932.056">-50</text>
</g>
<g clip-path="url(#clip8400)">
<text style="fill:#000000; fill-opacity:1; font-family:Arial,Helvetica Neue,Helvetica,sans-serif; font-size:48px; text-anchor:end;" transform="rotate(0, 206.483, 566.619)" x="206.483" y="566.619">-40</text>
</g>
<g clip-path="url(#clip8400)">
<text style="fill:#000000; fill-opacity:1; font-family:Arial,Helvetica Neue,Helvetica,sans-serif; font-size:48px; text-anchor:end;" transform="rotate(0, 206.483, 201.181)" x="206.483" y="201.181">-30</text>
</g>
<g clip-path="url(#clip8400)">
<text style="fill:#000000; fill-opacity:1; font-family:Arial,Helvetica Neue,Helvetica,sans-serif; font-size:66px; text-anchor:middle;" transform="rotate(0, 1291.62, 1559.48)" x="1291.62" y="1559.48">p</text>
</g>
<g clip-path="url(#clip8400)">
<text style="fill:#000000; fill-opacity:1; font-family:Arial,Helvetica Neue,Helvetica,sans-serif; font-size:66px; text-anchor:middle;" transform="rotate(-90, 89.2861, 736.431)" x="89.2861" y="736.431">P(data|p)</text>
</g>
<polyline clip-path="url(#clip8402)" style="stroke:#000000; stroke-width:4; stroke-opacity:1; fill:none" points="
  292.549,1386.61 294.552,1114.39 296.554,957.807 298.556,848.557 300.558,765.24 302.56,698.32 304.562,642.714 306.564,595.384 308.567,554.373 310.569,518.343 
  312.571,486.341 314.573,457.663 316.575,431.774 318.577,408.257 320.579,386.784 322.582,367.089 324.584,348.954 326.586,332.199 328.588,316.673 330.59,302.249 
  332.592,288.818 334.594,276.285 336.597,264.569 338.599,253.6 340.601,243.315 342.603,233.659 344.605,224.584 346.607,216.046 348.61,208.006 350.612,200.43 
  352.614,193.285 354.616,186.543 356.618,180.178 358.62,174.167 360.622,168.488 362.625,163.122 364.627,158.05 366.629,153.255 368.631,148.722 370.633,144.437 
  372.635,140.387 374.637,136.559 376.64,132.942 378.642,129.525 380.644,126.299 382.646,123.254 384.648,120.381 386.65,117.673 388.652,115.121 390.655,112.719 
  392.657,110.46 394.659,108.336 396.661,106.344 398.663,104.475 400.665,102.726 402.667,101.091 404.67,99.5654 406.672,98.1443 408.674,96.8235 410.676,95.5989 
  412.678,94.4665 414.68,93.4225 416.682,92.4634 418.685,91.5858 420.687,90.7863 422.689,90.0619 424.691,89.4096 426.693,88.8265 428.695,88.3099 430.697,87.8572 
  432.7,87.4659 434.702,87.1336 436.704,86.8579 438.706,86.6366 440.708,86.4677 442.71,86.349 444.712,86.2787 446.715,86.2547 448.717,86.2753 450.719,86.3387 
  452.721,86.4432 454.723,86.5873 456.725,86.7692 458.727,86.9876 460.73,87.2408 462.732,87.5276 464.734,87.8465 466.736,88.1963 468.738,88.5756 470.74,88.9832 
  472.742,89.418 474.745,89.8787 476.747,90.3643 478.749,90.8737 480.751,91.4058 482.753,91.9596 484.755,92.5342 486.757,93.1286 488.76,93.7419 490.762,94.3731 
  492.764,95.0215 494.766,95.6862 496.768,96.3663 498.77,97.0612 500.772,97.77 502.775,98.492 504.777,99.2265 506.779,99.9728 508.781,100.73 510.783,101.498 
  512.785,102.276 514.787,103.063 516.79,103.858 518.792,104.662 520.794,105.473 522.796,106.291 524.798,107.116 526.8,107.947 528.802,108.783 530.805,109.624 
  532.807,110.469 534.809,111.318 536.811,112.172 538.813,113.028 540.815,113.887 542.818,114.748 544.82,115.612 546.822,116.477 548.824,117.343 550.826,118.211 
  552.828,119.079 554.83,119.947 556.833,120.815 558.835,121.683 560.837,122.55 562.839,123.416 564.841,124.281 566.843,125.145 568.845,126.007 570.848,126.867 
  572.85,127.724 574.852,128.58 576.854,129.432 578.856,130.282 580.858,131.129 582.86,131.972 584.863,132.812 586.865,133.648 588.867,134.481 590.869,135.309 
  592.871,136.133 594.873,136.953 596.875,137.769 598.878,138.58 600.88,139.386 602.882,140.187 604.884,140.984 606.886,141.775 608.888,142.561 610.89,143.342 
  612.893,144.117 614.895,144.887 616.897,145.651 618.899,146.409 620.901,147.162 622.903,147.909 624.905,148.65 626.908,149.385 628.91,150.113 630.912,150.836 
  632.914,151.552 634.916,152.263 636.918,152.967 638.92,153.664 640.923,154.356 642.925,155.04 644.927,155.719 646.929,156.391 648.931,157.056 650.933,157.715 
  652.935,158.368 654.938,159.014 656.94,159.653 658.942,160.286 660.944,160.912 662.946,161.531 664.948,162.144 666.95,162.751 668.953,163.351 670.955,163.944 
  672.957,164.53 674.959,165.11 676.961,165.684 678.963,166.251 680.965,166.811 682.968,167.365 684.97,167.912 686.972,168.453 688.974,168.987 690.976,169.515 
  692.978,170.037 694.98,170.552 696.983,171.061 698.985,171.563 700.987,172.06 702.989,172.549 704.991,173.033 706.993,173.511 708.995,173.982 710.998,174.447 
  713,174.906 715.002,175.359 717.004,175.806 719.006,176.247 721.008,176.683 723.01,177.112 725.013,177.535 727.015,177.953 729.017,178.365 731.019,178.771 
  733.021,179.171 735.023,179.566 737.025,179.956 739.028,180.339 741.03,180.718 743.032,181.091 745.034,181.458 747.036,181.82 749.038,182.177 751.041,182.529 
  753.043,182.875 755.045,183.217 757.047,183.553 759.049,183.884 761.051,184.211 763.053,184.532 765.056,184.848 767.058,185.16 769.06,185.467 771.062,185.769 
  773.064,186.067 775.066,186.359 777.068,186.648 779.071,186.932 781.073,187.211 783.075,187.486 785.077,187.756 787.079,188.023 789.081,188.285 791.083,188.542 
  793.086,188.796 795.088,189.046 797.09,189.291 799.092,189.533 801.094,189.77 803.096,190.004 805.098,190.233 807.101,190.459 809.103,190.681 811.105,190.9 
  813.107,191.115 815.109,191.326 817.111,191.533 819.113,191.737 821.116,191.938 823.118,192.135 825.12,192.329 827.122,192.519 829.124,192.706 831.126,192.89 
  833.128,193.071 835.131,193.249 837.133,193.423 839.135,193.594 841.137,193.763 843.139,193.928 845.141,194.091 847.143,194.25 849.146,194.407 851.148,194.561 
  853.15,194.712 855.152,194.86 857.154,195.006 859.156,195.149 861.158,195.289 863.161,195.427 865.163,195.563 867.165,195.695 869.167,195.826 871.169,195.954 
  873.171,196.079 875.173,196.203 877.176,196.324 879.178,196.442 881.18,196.559 883.182,196.673 885.184,196.785 887.186,196.895 889.188,197.003 891.191,197.109 
  893.193,197.213 895.195,197.315 897.197,197.414 899.199,197.512 901.201,197.608 903.203,197.702 905.206,197.795 907.208,197.885 909.21,197.974 911.212,198.061 
  913.214,198.146 915.216,198.23 917.218,198.312 919.221,198.392 921.223,198.471 923.225,198.548 925.227,198.624 927.229,198.698 929.231,198.77 931.233,198.841 
  933.236,198.911 935.238,198.979 937.24,199.046 939.242,199.112 941.244,199.176 943.246,199.239 945.248,199.3 947.251,199.361 949.253,199.42 951.255,199.477 
  953.257,199.534 955.259,199.589 957.261,199.644 959.264,199.697 961.266,199.749 963.268,199.8 965.27,199.849 967.272,199.898 969.274,199.946 971.276,199.992 
  973.279,200.038 975.281,200.083 977.283,200.127 979.285,200.169 981.287,200.211 983.289,200.252 985.291,200.292 987.294,200.332 989.296,200.37 991.298,200.407 
  993.3,200.444 995.302,200.48 997.304,200.515 999.306,200.549 1001.31,200.583 1003.31,200.616 1005.31,200.648 1007.31,200.679 1009.32,200.71 1011.32,200.739 
  1013.32,200.769 1015.32,200.797 1017.33,200.825 1019.33,200.852 1021.33,200.879 1023.33,200.905 1025.33,200.931 1027.34,200.956 1029.34,200.98 1031.34,201.004 
  1033.34,201.027 1035.34,201.049 1037.35,201.072 1039.35,201.093 1041.35,201.114 1043.35,201.135 1045.36,201.155 1047.36,201.175 1049.36,201.194 1051.36,201.212 
  1053.36,201.231 1055.37,201.248 1057.37,201.266 1059.37,201.283 1061.37,201.299 1063.38,201.316 1065.38,201.331 1067.38,201.347 1069.38,201.362 1071.38,201.376 
  1073.39,201.391 1075.39,201.404 1077.39,201.418 1079.39,201.431 1081.39,201.444 1083.4,201.457 1085.4,201.469 1087.4,201.481 1089.4,201.493 1091.41,201.504 
  1093.41,201.515 1095.41,201.526 1097.41,201.536 1099.41,201.547 1101.42,201.557 1103.42,201.566 1105.42,201.576 1107.42,201.585 1109.42,201.594 1111.43,201.603 
  1113.43,201.611 1115.43,201.62 1117.43,201.628 1119.44,201.636 1121.44,201.643 1123.44,201.651 1125.44,201.658 1127.44,201.665 1129.45,201.672 1131.45,201.679 
  1133.45,201.685 1135.45,201.692 1137.45,201.698 1139.46,201.704 1141.46,201.71 1143.46,201.716 1145.46,201.721 1147.47,201.726 1149.47,201.732 1151.47,201.737 
  1153.47,201.742 1155.47,201.747 1157.48,201.751 1159.48,201.756 1161.48,201.76 1163.48,201.764 1165.48,201.769 1167.49,201.773 1169.49,201.777 1171.49,201.78 
  1173.49,201.784 1175.5,201.788 1177.5,201.791 1179.5,201.795 1181.5,201.798 1183.5,201.801 1185.51,201.804 1187.51,201.807 1189.51,201.81 1191.51,201.813 
  1193.51,201.816 1195.52,201.819 1197.52,201.821 1199.52,201.824 1201.52,201.826 1203.53,201.829 1205.53,201.831 1207.53,201.833 1209.53,201.835 1211.53,201.837 
  1213.54,201.839 1215.54,201.841 1217.54,201.843 1219.54,201.845 1221.54,201.847 1223.55,201.849 1225.55,201.85 1227.55,201.852 1229.55,201.854 1231.56,201.855 
  1233.56,201.857 1235.56,201.858 1237.56,201.859 1239.56,201.861 1241.57,201.862 1243.57,201.863 1245.57,201.865 1247.57,201.866 1249.57,201.867 1251.58,201.868 
  1253.58,201.869 1255.58,201.87 1257.58,201.871 1259.59,201.872 1261.59,201.873 1263.59,201.874 1265.59,201.875 1267.59,201.876 1269.6,201.876 1271.6,201.877 
  1273.6,201.878 1275.6,201.879 1277.6,201.879 1279.61,201.88 1281.61,201.881 1283.61,201.881 1285.61,201.882 1287.62,201.883 1289.62,201.883 1291.62,201.884 
  1293.62,201.884 1295.62,201.885 1297.63,201.885 1299.63,201.886 1301.63,201.886 1303.63,201.887 1305.63,201.887 1307.64,201.888 1309.64,201.888 1311.64,201.888 
  1313.64,201.889 1315.65,201.889 1317.65,201.889 1319.65,201.89 1321.65,201.89 1323.65,201.89 1325.66,201.891 1327.66,201.891 1329.66,201.891 1331.66,201.891 
  1333.66,201.892 1335.67,201.892 1337.67,201.892 1339.67,201.892 1341.67,201.893 1343.68,201.893 1345.68,201.893 1347.68,201.893 1349.68,201.893 1351.68,201.894 
  1353.69,201.894 1355.69,201.894 1357.69,201.894 1359.69,201.894 1361.69,201.894 1363.7,201.895 1365.7,201.895 1367.7,201.895 1369.7,201.895 1371.71,201.895 
  1373.71,201.895 1375.71,201.895 1377.71,201.895 1379.71,201.895 1381.72,201.896 1383.72,201.896 1385.72,201.896 1387.72,201.896 1389.72,201.896 1391.73,201.896 
  1393.73,201.896 1395.73,201.896 1397.73,201.896 1399.74,201.896 1401.74,201.896 1403.74,201.896 1405.74,201.896 1407.74,201.896 1409.75,201.896 1411.75,201.897 
  1413.75,201.897 1415.75,201.897 1417.75,201.897 1419.76,201.897 1421.76,201.897 1423.76,201.897 1425.76,201.897 1427.77,201.897 1429.77,201.897 1431.77,201.897 
  1433.77,201.897 1435.77,201.897 1437.78,201.897 1439.78,201.897 1441.78,201.897 1443.78,201.897 1445.78,201.897 1447.79,201.897 1449.79,201.897 1451.79,201.897 
  1453.79,201.897 1455.8,201.897 1457.8,201.897 1459.8,201.897 1461.8,201.897 1463.8,201.897 1465.81,201.897 1467.81,201.897 1469.81,201.897 1471.81,201.897 
  1473.81,201.897 1475.82,201.897 1477.82,201.897 1479.82,201.897 1481.82,201.897 1483.83,201.897 1485.83,201.897 1487.83,201.897 1489.83,201.897 1491.83,201.897 
  1493.84,201.897 1495.84,201.897 1497.84,201.897 1499.84,201.897 1501.84,201.897 1503.85,201.897 1505.85,201.897 1507.85,201.897 1509.85,201.897 1511.86,201.897 
  1513.86,201.897 1515.86,201.897 1517.86,201.897 1519.86,201.897 1521.87,201.897 1523.87,201.897 1525.87,201.897 1527.87,201.897 1529.87,201.897 1531.88,201.897 
  1533.88,201.897 1535.88,201.897 1537.88,201.897 1539.89,201.897 1541.89,201.897 1543.89,201.897 1545.89,201.897 1547.89,201.897 1549.9,201.897 1551.9,201.897 
  1553.9,201.897 1555.9,201.897 1557.9,201.897 1559.91,201.897 1561.91,201.897 1563.91,201.897 1565.91,201.897 1567.92,201.897 1569.92,201.897 1571.92,201.897 
  1573.92,201.897 1575.92,201.897 1577.93,201.897 1579.93,201.897 1581.93,201.897 1583.93,201.897 1585.93,201.897 1587.94,201.897 1589.94,201.897 1591.94,201.897 
  1593.94,201.897 1595.95,201.897 1597.95,201.897 1599.95,201.897 1601.95,201.897 1603.95,201.897 1605.96,201.897 1607.96,201.897 1609.96,201.897 1611.96,201.897 
  1613.96,201.897 1615.97,201.897 1617.97,201.897 1619.97,201.897 1621.97,201.897 1623.98,201.897 1625.98,201.897 1627.98,201.897 1629.98,201.897 1631.98,201.897 
  1633.99,201.897 1635.99,201.897 1637.99,201.897 1639.99,201.897 1641.99,201.897 1644,201.897 1646,201.897 1648,201.897 1650,201.897 1652.01,201.897 
  1654.01,201.897 1656.01,201.897 1658.01,201.897 1660.01,201.897 1662.02,201.897 1664.02,201.897 1666.02,201.897 1668.02,201.897 1670.02,201.897 1672.03,201.897 
  1674.03,201.897 1676.03,201.897 1678.03,201.897 1680.04,201.897 1682.04,201.897 1684.04,201.897 1686.04,201.897 1688.04,201.897 1690.05,201.897 1692.05,201.897 
  1694.05,201.897 1696.05,201.897 1698.05,201.897 1700.06,201.897 1702.06,201.897 1704.06,201.897 1706.06,201.897 1708.07,201.897 1710.07,201.897 1712.07,201.897 
  1714.07,201.897 1716.07,201.897 1718.08,201.897 1720.08,201.897 1722.08,201.897 1724.08,201.897 1726.08,201.897 1728.09,201.897 1730.09,201.897 1732.09,201.897 
  1734.09,201.897 1736.1,201.897 1738.1,201.897 1740.1,201.897 1742.1,201.897 1744.1,201.897 1746.11,201.897 1748.11,201.897 1750.11,201.897 1752.11,201.897 
  1754.11,201.897 1756.12,201.897 1758.12,201.897 1760.12,201.897 1762.12,201.897 1764.13,201.897 1766.13,201.897 1768.13,201.897 1770.13,201.897 1772.13,201.897 
  1774.14,201.897 1776.14,201.897 1778.14,201.897 1780.14,201.897 1782.14,201.897 1784.15,201.897 1786.15,201.897 1788.15,201.897 1790.15,201.897 1792.16,201.897 
  1794.16,201.897 1796.16,201.897 1798.16,201.897 1800.16,201.897 1802.17,201.897 1804.17,201.897 1806.17,201.897 1808.17,201.897 1810.17,201.897 1812.18,201.897 
  1814.18,201.897 1816.18,201.897 1818.18,201.897 1820.19,201.897 1822.19,201.897 1824.19,201.897 1826.19,201.897 1828.19,201.897 1830.2,201.897 1832.2,201.897 
  1834.2,201.897 1836.2,201.897 1838.2,201.897 1840.21,201.897 1842.21,201.897 1844.21,201.897 1846.21,201.897 1848.22,201.897 1850.22,201.897 1852.22,201.897 
  1854.22,201.897 1856.22,201.897 1858.23,201.897 1860.23,201.897 1862.23,201.897 1864.23,201.897 1866.23,201.897 1868.24,201.897 1870.24,201.897 1872.24,201.897 
  1874.24,201.897 1876.25,201.897 1878.25,201.897 1880.25,201.897 1882.25,201.897 1884.25,201.897 1886.26,201.897 1888.26,201.897 1890.26,201.897 1892.26,201.897 
  1894.26,201.897 1896.27,201.897 1898.27,201.897 1900.27,201.897 1902.27,201.897 1904.28,201.897 1906.28,201.897 1908.28,201.897 1910.28,201.897 1912.28,201.897 
  1914.29,201.897 1916.29,201.897 1918.29,201.897 1920.29,201.897 1922.29,201.897 1924.3,201.897 1926.3,201.897 1928.3,201.897 1930.3,201.897 1932.31,201.897 
  1934.31,201.897 1936.31,201.897 1938.31,201.897 1940.31,201.897 1942.32,201.897 1944.32,201.897 1946.32,201.897 1948.32,201.897 1950.32,201.897 1952.33,201.897 
  1954.33,201.897 1956.33,201.897 1958.33,201.897 1960.34,201.897 1962.34,201.897 1964.34,201.897 1966.34,201.897 1968.34,201.897 1970.35,201.897 1972.35,201.897 
  1974.35,201.897 1976.35,201.897 1978.35,201.897 1980.36,201.897 1982.36,201.897 1984.36,201.897 1986.36,201.897 1988.37,201.897 1990.37,201.897 1992.37,201.897 
  1994.37,201.897 1996.37,201.897 1998.38,201.897 2000.38,201.897 2002.38,201.897 2004.38,201.897 2006.38,201.897 2008.39,201.897 2010.39,201.897 2012.39,201.897 
  2014.39,201.897 2016.4,201.897 2018.4,201.897 2020.4,201.897 2022.4,201.897 2024.4,201.897 2026.41,201.897 2028.41,201.897 2030.41,201.897 2032.41,201.897 
  2034.41,201.897 2036.42,201.897 2038.42,201.897 2040.42,201.897 2042.42,201.897 2044.43,201.897 2046.43,201.897 2048.43,201.897 2050.43,201.897 2052.43,201.897 
  2054.44,201.897 2056.44,201.897 2058.44,201.897 2060.44,201.897 2062.44,201.897 2064.45,201.897 2066.45,201.897 2068.45,201.897 2070.45,201.897 2072.46,201.897 
  2074.46,201.897 2076.46,201.897 2078.46,201.897 2080.46,201.897 2082.47,201.897 2084.47,201.897 2086.47,201.897 2088.47,201.897 2090.48,201.897 2092.48,201.897 
  2094.48,201.897 2096.48,201.897 2098.48,201.897 2100.49,201.897 2102.49,201.897 2104.49,201.897 2106.49,201.897 2108.49,201.897 2110.5,201.897 2112.5,201.897 
  2114.5,201.897 2116.5,201.897 2118.51,201.897 2120.51,201.897 2122.51,201.897 2124.51,201.897 2126.51,201.897 2128.52,201.897 2130.52,201.897 2132.52,201.897 
  2134.52,201.897 2136.52,201.897 2138.53,201.897 2140.53,201.897 2142.53,201.897 2144.53,201.897 2146.54,201.897 2148.54,201.897 2150.54,201.897 2152.54,201.897 
  2154.54,201.897 2156.55,201.897 2158.55,201.897 2160.55,201.897 2162.55,201.897 2164.55,201.897 2166.56,201.897 2168.56,201.897 2170.56,201.897 2172.56,201.897 
  2174.57,201.896 2176.57,201.896 2178.57,201.896 2180.57,201.896 2182.57,201.896 2184.58,201.896 2186.58,201.896 2188.58,201.896 2190.58,201.896 2192.58,201.896 
  2194.59,201.896 2196.59,201.896 2198.59,201.896 2200.59,201.896 2202.6,201.896 2204.6,201.895 2206.6,201.895 2208.6,201.895 2210.6,201.895 2212.61,201.895 
  2214.61,201.895 2216.61,201.895 2218.61,201.895 2220.61,201.895 2222.62,201.894 2224.62,201.894 2226.62,201.894 2228.62,201.894 2230.63,201.894 2232.63,201.894 
  2234.63,201.893 2236.63,201.893 2238.63,201.893 2240.64,201.893 2242.64,201.893 2244.64,201.892 2246.64,201.892 2248.64,201.892 2250.65,201.892 2252.65,201.891 
  2254.65,201.891 2256.65,201.891 2258.66,201.891 2260.66,201.89 2262.66,201.89 2264.66,201.89 2266.66,201.889 2268.67,201.889 2270.67,201.889 2272.67,201.888 
  2274.67,201.888 2276.67,201.888 2278.68,201.887 2280.68,201.887 2282.68,201.886 2284.68,201.886 2286.69,201.885 2288.69,201.885 2290.69,201.884 2292.69,201.884 
  
  "/>
</svg>
