<?xml version="1.0" encoding="utf-8"?>
<svg xmlns="http://www.w3.org/2000/svg" xmlns:xlink="http://www.w3.org/1999/xlink" width="600" height="400" viewBox="0 0 2400 1600">
<defs>
  <clipPath id="clip3900">
    <rect x="0" y="0" width="2400" height="1600"/>
  </clipPath>
</defs>
<path clip-path="url(#clip3900)" d="
M0 1600 L2400 1600 L2400 0 L0 0  Z
  " fill="#ffffff" fill-rule="evenodd" fill-opacity="1"/>
<defs>
  <clipPath id="clip3901">
    <rect x="480" y="0" width="1681" height="1600"/>
  </clipPath>
</defs>
<path clip-path="url(#clip3900)" d="
M230.483 1425.62 L2352.76 1425.62 L2352.76 47.2441 L230.483 47.2441  Z
  " fill="#ffffff" fill-rule="evenodd" fill-opacity="1"/>
<defs>
  <clipPath id="clip3902">
    <rect x="230" y="47" width="2123" height="1379"/>
  </clipPath>
</defs>
<polyline clip-path="url(#clip3900)" style="stroke:#000000; stroke-width:4; stroke-opacity:1; fill:none" points="
  230.483,1425.62 2352.76,1425.62 
  "/>
<polyline clip-path="url(#clip3900)" style="stroke:#000000; stroke-width:4; stroke-opacity:1; fill:none" points="
  230.483,1425.62 230.483,47.2441 
  "/>
<polyline clip-path="url(#clip3900)" style="stroke:#000000; stroke-width:4; stroke-opacity:1; fill:none" points="
  290.547,1425.62 290.547,1409.08 
  "/>
<polyline clip-path="url(#clip3900)" style="stroke:#000000; stroke-width:4; stroke-opacity:1; fill:none" points="
  791.083,1425.62 791.083,1409.08 
  "/>
<polyline clip-path="url(#clip3900)" style="stroke:#000000; stroke-width:4; stroke-opacity:1; fill:none" points="
  1291.62,1425.62 1291.62,1409.08 
  "/>
<polyline clip-path="url(#clip3900)" style="stroke:#000000; stroke-width:4; stroke-opacity:1; fill:none" points="
  1792.16,1425.62 1792.16,1409.08 
  "/>
<polyline clip-path="url(#clip3900)" style="stroke:#000000; stroke-width:4; stroke-opacity:1; fill:none" points="
  2292.69,1425.62 2292.69,1409.08 
  "/>
<polyline clip-path="url(#clip3900)" style="stroke:#000000; stroke-width:4; stroke-opacity:1; fill:none" points="
  230.483,1262.28 255.95,1262.28 
  "/>
<polyline clip-path="url(#clip3900)" style="stroke:#000000; stroke-width:4; stroke-opacity:1; fill:none" points="
  230.483,974.28 255.95,974.28 
  "/>
<polyline clip-path="url(#clip3900)" style="stroke:#000000; stroke-width:4; stroke-opacity:1; fill:none" points="
  230.483,686.282 255.95,686.282 
  "/>
<polyline clip-path="url(#clip3900)" style="stroke:#000000; stroke-width:4; stroke-opacity:1; fill:none" points="
  230.483,398.285 255.95,398.285 
  "/>
<polyline clip-path="url(#clip3900)" style="stroke:#000000; stroke-width:4; stroke-opacity:1; fill:none" points="
  230.483,110.287 255.95,110.287 
  "/>
<g clip-path="url(#clip3900)">
<text style="fill:#000000; fill-opacity:1; font-family:Arial,Helvetica Neue,Helvetica,sans-serif; font-size:48px; text-anchor:middle;" transform="rotate(0, 290.547, 1479.62)" x="290.547" y="1479.62">0.00</text>
</g>
<g clip-path="url(#clip3900)">
<text style="fill:#000000; fill-opacity:1; font-family:Arial,Helvetica Neue,Helvetica,sans-serif; font-size:48px; text-anchor:middle;" transform="rotate(0, 791.083, 1479.62)" x="791.083" y="1479.62">0.25</text>
</g>
<g clip-path="url(#clip3900)">
<text style="fill:#000000; fill-opacity:1; font-family:Arial,Helvetica Neue,Helvetica,sans-serif; font-size:48px; text-anchor:middle;" transform="rotate(0, 1291.62, 1479.62)" x="1291.62" y="1479.62">0.50</text>
</g>
<g clip-path="url(#clip3900)">
<text style="fill:#000000; fill-opacity:1; font-family:Arial,Helvetica Neue,Helvetica,sans-serif; font-size:48px; text-anchor:middle;" transform="rotate(0, 1792.16, 1479.62)" x="1792.16" y="1479.62">0.75</text>
</g>
<g clip-path="url(#clip3900)">
<text style="fill:#000000; fill-opacity:1; font-family:Arial,Helvetica Neue,Helvetica,sans-serif; font-size:48px; text-anchor:middle;" transform="rotate(0, 2292.69, 1479.62)" x="2292.69" y="1479.62">1.00</text>
</g>
<g clip-path="url(#clip3900)">
<text style="fill:#000000; fill-opacity:1; font-family:Arial,Helvetica Neue,Helvetica,sans-serif; font-size:48px; text-anchor:end;" transform="rotate(0, 206.483, 1279.78)" x="206.483" y="1279.78">-70</text>
</g>
<g clip-path="url(#clip3900)">
<text style="fill:#000000; fill-opacity:1; font-family:Arial,Helvetica Neue,Helvetica,sans-serif; font-size:48px; text-anchor:end;" transform="rotate(0, 206.483, 991.78)" x="206.483" y="991.78">-60</text>
</g>
<g clip-path="url(#clip3900)">
<text style="fill:#000000; fill-opacity:1; font-family:Arial,Helvetica Neue,Helvetica,sans-serif; font-size:48px; text-anchor:end;" transform="rotate(0, 206.483, 703.782)" x="206.483" y="703.782">-50</text>
</g>
<g clip-path="url(#clip3900)">
<text style="fill:#000000; fill-opacity:1; font-family:Arial,Helvetica Neue,Helvetica,sans-serif; font-size:48px; text-anchor:end;" transform="rotate(0, 206.483, 415.785)" x="206.483" y="415.785">-40</text>
</g>
<g clip-path="url(#clip3900)">
<text style="fill:#000000; fill-opacity:1; font-family:Arial,Helvetica Neue,Helvetica,sans-serif; font-size:48px; text-anchor:end;" transform="rotate(0, 206.483, 127.787)" x="206.483" y="127.787">-30</text>
</g>
<g clip-path="url(#clip3900)">
<text style="fill:#000000; fill-opacity:1; font-family:Arial,Helvetica Neue,Helvetica,sans-serif; font-size:66px; text-anchor:middle;" transform="rotate(0, 1291.62, 1559.48)" x="1291.62" y="1559.48">p</text>
</g>
<g clip-path="url(#clip3900)">
<text style="fill:#000000; fill-opacity:1; font-family:Arial,Helvetica Neue,Helvetica,sans-serif; font-size:66px; text-anchor:middle;" transform="rotate(-90, 89.2861, 736.431)" x="89.2861" y="736.431">P(data|p)</text>
</g>
<polyline clip-path="url(#clip3902)" style="stroke:#000000; stroke-width:4; stroke-opacity:1; fill:none" points="
  292.549,1386.61 294.552,1131.92 296.554,984.936 298.556,882.04 300.558,803.298 302.56,739.832 304.562,686.905 306.564,641.689 308.567,602.361 310.569,567.675 
  312.571,536.744 314.573,508.91 316.575,483.677 318.577,460.657 320.579,439.543 322.582,420.088 324.584,402.088 326.586,385.377 328.588,369.814 330.59,355.279 
  332.592,341.673 334.594,328.906 336.597,316.904 338.599,305.6 340.601,294.937 342.603,284.863 344.605,275.333 346.607,266.307 348.61,257.748 350.612,249.623 
  352.614,241.905 354.616,234.565 356.618,227.58 358.62,220.928 360.622,214.59 362.625,208.545 364.627,202.779 366.629,197.274 368.631,192.018 370.633,186.996 
  372.635,182.196 374.637,177.608 376.64,173.22 378.642,169.022 380.644,165.006 382.646,161.162 384.648,157.484 386.65,153.962 388.652,150.59 390.655,147.362 
  392.657,144.271 394.659,141.311 396.661,138.477 398.663,135.763 400.665,133.165 402.667,130.677 404.67,128.296 406.672,126.016 408.674,123.835 410.676,121.747 
  412.678,119.75 414.68,117.84 416.682,116.014 418.685,114.268 420.687,112.599 422.689,111.006 424.691,109.484 426.693,108.031 428.695,106.646 430.697,105.324 
  432.7,104.065 434.702,102.865 436.704,101.724 438.706,100.638 440.708,99.6052 442.71,98.6247 444.712,97.6942 446.715,96.812 448.717,95.9764 450.719,95.1858 
  452.721,94.4386 454.723,93.7334 456.725,93.0688 458.727,92.4432 460.73,91.8554 462.732,91.3041 464.734,90.788 466.736,90.3059 468.738,89.8567 470.74,89.4392 
  472.742,89.0523 474.745,88.6949 476.747,88.3661 478.749,88.0649 480.751,87.7902 482.753,87.5413 484.755,87.317 486.757,87.1167 488.76,86.9395 490.762,86.7844 
  492.764,86.6509 494.766,86.538 496.768,86.445 498.77,86.3713 500.772,86.316 502.775,86.2786 504.777,86.2584 506.779,86.2547 508.781,86.2669 510.783,86.2945 
  512.785,86.3367 514.787,86.3931 516.79,86.4632 518.792,86.5463 520.794,86.642 522.796,86.7497 524.798,86.869 526.8,86.9994 528.802,87.1404 530.805,87.2915 
  532.807,87.4525 534.809,87.6227 536.811,87.8019 538.813,87.9895 540.815,88.1853 542.818,88.3889 544.82,88.5998 546.822,88.8177 548.824,89.0424 550.826,89.2734 
  552.828,89.5104 554.83,89.7531 556.833,90.0013 558.835,90.2545 560.837,90.5126 562.839,90.7752 564.841,91.0421 566.843,91.313 568.845,91.5877 570.848,91.8659 
  572.85,92.1473 574.852,92.4318 576.854,92.7191 578.856,93.009 580.858,93.3013 582.86,93.5958 584.863,93.8922 586.865,94.1904 588.867,94.4903 590.869,94.7915 
  592.871,95.094 594.873,95.3976 596.875,95.7021 598.878,96.0074 600.88,96.3133 602.882,96.6196 604.884,96.9263 606.886,97.2332 608.888,97.5401 610.89,97.8469 
  612.893,98.1536 614.895,98.4599 616.897,98.7658 618.899,99.0711 620.901,99.3759 622.903,99.6798 624.905,99.9829 626.908,100.285 628.91,100.586 630.912,100.886 
  632.914,101.185 634.916,101.483 636.918,101.779 638.92,102.074 640.923,102.367 642.925,102.659 644.927,102.949 646.929,103.237 648.931,103.524 650.933,103.809 
  652.935,104.092 654.938,104.373 656.94,104.652 658.942,104.929 660.944,105.204 662.946,105.477 664.948,105.748 666.95,106.017 668.953,106.284 670.955,106.548 
  672.957,106.81 674.959,107.07 676.961,107.328 678.963,107.583 680.965,107.836 682.968,108.086 684.97,108.334 686.972,108.58 688.974,108.824 690.976,109.064 
  692.978,109.303 694.98,109.539 696.983,109.773 698.985,110.004 700.987,110.232 702.989,110.459 704.991,110.682 706.993,110.903 708.995,111.122 710.998,111.338 
  713,111.552 715.002,111.763 717.004,111.972 719.006,112.179 721.008,112.382 723.01,112.584 725.013,112.783 727.015,112.979 729.017,113.173 731.019,113.365 
  733.021,113.554 735.023,113.741 737.025,113.925 739.028,114.107 741.03,114.287 743.032,114.464 745.034,114.639 747.036,114.811 749.038,114.982 751.041,115.149 
  753.043,115.315 755.045,115.478 757.047,115.639 759.049,115.798 761.051,115.955 763.053,116.109 765.056,116.261 767.058,116.411 769.06,116.559 771.062,116.704 
  773.064,116.848 775.066,116.989 777.068,117.129 779.071,117.266 781.073,117.401 783.075,117.534 785.077,117.665 787.079,117.794 789.081,117.921 791.083,118.047 
  793.086,118.17 795.088,118.291 797.09,118.411 799.092,118.528 801.094,118.644 803.096,118.758 805.098,118.87 807.101,118.98 809.103,119.089 811.105,119.195 
  813.107,119.3 815.109,119.404 817.111,119.505 819.113,119.605 821.116,119.703 823.118,119.8 825.12,119.895 827.122,119.989 829.124,120.08 831.126,120.171 
  833.128,120.26 835.131,120.347 837.133,120.433 839.135,120.517 841.137,120.6 843.139,120.681 845.141,120.761 847.143,120.84 849.146,120.917 851.148,120.993 
  853.15,121.067 855.152,121.141 857.154,121.213 859.156,121.283 861.158,121.353 863.161,121.421 865.163,121.488 867.165,121.553 869.167,121.618 871.169,121.681 
  873.171,121.743 875.173,121.804 877.176,121.864 879.178,121.923 881.18,121.981 883.182,122.038 885.184,122.093 887.186,122.148 889.188,122.201 891.191,122.254 
  893.193,122.305 895.195,122.356 897.197,122.405 899.199,122.454 901.201,122.502 903.203,122.548 905.206,122.594 907.208,122.639 909.21,122.683 911.212,122.727 
  913.214,122.769 915.216,122.811 917.218,122.851 919.221,122.891 921.223,122.931 923.225,122.969 925.227,123.007 927.229,123.044 929.231,123.08 931.233,123.115 
  933.236,123.15 935.238,123.184 937.24,123.217 939.242,123.25 941.244,123.282 943.246,123.313 945.248,123.344 947.251,123.374 949.253,123.403 951.255,123.432 
  953.257,123.46 955.259,123.488 957.261,123.515 959.264,123.542 961.266,123.568 963.268,123.593 965.27,123.618 967.272,123.642 969.274,123.666 971.276,123.689 
  973.279,123.712 975.281,123.734 977.283,123.756 979.285,123.778 981.287,123.799 983.289,123.819 985.291,123.839 987.294,123.859 989.296,123.878 991.298,123.897 
  993.3,123.915 995.302,123.933 997.304,123.95 999.306,123.967 1001.31,123.984 1003.31,124.001 1005.31,124.017 1007.31,124.032 1009.32,124.048 1011.32,124.063 
  1013.32,124.077 1015.32,124.092 1017.33,124.106 1019.33,124.119 1021.33,124.133 1023.33,124.146 1025.33,124.158 1027.34,124.171 1029.34,124.183 1031.34,124.195 
  1033.34,124.206 1035.34,124.218 1037.35,124.229 1039.35,124.24 1041.35,124.25 1043.35,124.26 1045.36,124.271 1047.36,124.28 1049.36,124.29 1051.36,124.299 
  1053.36,124.308 1055.37,124.317 1057.37,124.326 1059.37,124.335 1061.37,124.343 1063.38,124.351 1065.38,124.359 1067.38,124.367 1069.38,124.374 1071.38,124.381 
  1073.39,124.389 1075.39,124.396 1077.39,124.402 1079.39,124.409 1081.39,124.415 1083.4,124.422 1085.4,124.428 1087.4,124.434 1089.4,124.44 1091.41,124.445 
  1093.41,124.451 1095.41,124.456 1097.41,124.462 1099.41,124.467 1101.42,124.472 1103.42,124.477 1105.42,124.481 1107.42,124.486 1109.42,124.491 1111.43,124.495 
  1113.43,124.499 1115.43,124.503 1117.43,124.508 1119.44,124.511 1121.44,124.515 1123.44,124.519 1125.44,124.523 1127.44,124.526 1129.45,124.53 1131.45,124.533 
  1133.45,124.536 1135.45,124.54 1137.45,124.543 1139.46,124.546 1141.46,124.549 1143.46,124.551 1145.46,124.554 1147.47,124.557 1149.47,124.56 1151.47,124.562 
  1153.47,124.565 1155.47,124.567 1157.48,124.569 1159.48,124.572 1161.48,124.574 1163.48,124.576 1165.48,124.578 1167.49,124.58 1169.49,124.582 1171.49,124.584 
  1173.49,124.586 1175.5,124.588 1177.5,124.589 1179.5,124.591 1181.5,124.593 1183.5,124.594 1185.51,124.596 1187.51,124.597 1189.51,124.599 1191.51,124.6 
  1193.51,124.602 1195.52,124.603 1197.52,124.604 1199.52,124.606 1201.52,124.607 1203.53,124.608 1205.53,124.609 1207.53,124.61 1209.53,124.611 1211.53,124.613 
  1213.54,124.614 1215.54,124.615 1217.54,124.615 1219.54,124.616 1221.54,124.617 1223.55,124.618 1225.55,124.619 1227.55,124.62 1229.55,124.621 1231.56,124.621 
  1233.56,124.622 1235.56,124.623 1237.56,124.624 1239.56,124.624 1241.57,124.625 1243.57,124.626 1245.57,124.626 1247.57,124.627 1249.57,124.627 1251.58,124.628 
  1253.58,124.628 1255.58,124.629 1257.58,124.629 1259.59,124.63 1261.59,124.63 1263.59,124.631 1265.59,124.631 1267.59,124.632 1269.6,124.632 1271.6,124.633 
  1273.6,124.633 1275.6,124.633 1277.6,124.634 1279.61,124.634 1281.61,124.634 1283.61,124.635 1285.61,124.635 1287.62,124.635 1289.62,124.636 1291.62,124.636 
  1293.62,124.636 1295.62,124.636 1297.63,124.637 1299.63,124.637 1301.63,124.637 1303.63,124.637 1305.63,124.637 1307.64,124.638 1309.64,124.638 1311.64,124.638 
  1313.64,124.638 1315.65,124.638 1317.65,124.639 1319.65,124.639 1321.65,124.639 1323.65,124.639 1325.66,124.639 1327.66,124.639 1329.66,124.64 1331.66,124.64 
  1333.66,124.64 1335.67,124.64 1337.67,124.64 1339.67,124.64 1341.67,124.64 1343.68,124.64 1345.68,124.64 1347.68,124.641 1349.68,124.641 1351.68,124.641 
  1353.69,124.641 1355.69,124.641 1357.69,124.641 1359.69,124.641 1361.69,124.641 1363.7,124.641 1365.7,124.641 1367.7,124.641 1369.7,124.641 1371.71,124.641 
  1373.71,124.641 1375.71,124.642 1377.71,124.642 1379.71,124.642 1381.72,124.642 1383.72,124.642 1385.72,124.642 1387.72,124.642 1389.72,124.642 1391.73,124.642 
  1393.73,124.642 1395.73,124.642 1397.73,124.642 1399.74,124.642 1401.74,124.642 1403.74,124.642 1405.74,124.642 1407.74,124.642 1409.75,124.642 1411.75,124.642 
  1413.75,124.642 1415.75,124.642 1417.75,124.642 1419.76,124.642 1421.76,124.642 1423.76,124.642 1425.76,124.642 1427.77,124.642 1429.77,124.642 1431.77,124.642 
  1433.77,124.642 1435.77,124.642 1437.78,124.642 1439.78,124.642 1441.78,124.642 1443.78,124.642 1445.78,124.642 1447.79,124.642 1449.79,124.642 1451.79,124.642 
  1453.79,124.642 1455.8,124.643 1457.8,124.643 1459.8,124.643 1461.8,124.643 1463.8,124.643 1465.81,124.643 1467.81,124.643 1469.81,124.643 1471.81,124.643 
  1473.81,124.643 1475.82,124.643 1477.82,124.643 1479.82,124.643 1481.82,124.643 1483.83,124.643 1485.83,124.643 1487.83,124.643 1489.83,124.643 1491.83,124.643 
  1493.84,124.643 1495.84,124.643 1497.84,124.643 1499.84,124.643 1501.84,124.643 1503.85,124.643 1505.85,124.643 1507.85,124.643 1509.85,124.643 1511.86,124.643 
  1513.86,124.643 1515.86,124.643 1517.86,124.643 1519.86,124.643 1521.87,124.643 1523.87,124.643 1525.87,124.643 1527.87,124.643 1529.87,124.643 1531.88,124.643 
  1533.88,124.643 1535.88,124.643 1537.88,124.643 1539.89,124.643 1541.89,124.643 1543.89,124.643 1545.89,124.643 1547.89,124.643 1549.9,124.643 1551.9,124.643 
  1553.9,124.643 1555.9,124.643 1557.9,124.643 1559.91,124.643 1561.91,124.643 1563.91,124.643 1565.91,124.643 1567.92,124.643 1569.92,124.643 1571.92,124.643 
  1573.92,124.643 1575.92,124.643 1577.93,124.643 1579.93,124.643 1581.93,124.643 1583.93,124.643 1585.93,124.643 1587.94,124.643 1589.94,124.643 1591.94,124.643 
  1593.94,124.643 1595.95,124.643 1597.95,124.643 1599.95,124.643 1601.95,124.643 1603.95,124.643 1605.96,124.643 1607.96,124.643 1609.96,124.643 1611.96,124.643 
  1613.96,124.643 1615.97,124.643 1617.97,124.643 1619.97,124.643 1621.97,124.643 1623.98,124.643 1625.98,124.643 1627.98,124.643 1629.98,124.643 1631.98,124.643 
  1633.99,124.643 1635.99,124.643 1637.99,124.643 1639.99,124.643 1641.99,124.643 1644,124.643 1646,124.643 1648,124.643 1650,124.643 1652.01,124.643 
  1654.01,124.643 1656.01,124.643 1658.01,124.643 1660.01,124.643 1662.02,124.643 1664.02,124.643 1666.02,124.643 1668.02,124.643 1670.02,124.643 1672.03,124.643 
  1674.03,124.643 1676.03,124.643 1678.03,124.643 1680.04,124.643 1682.04,124.643 1684.04,124.643 1686.04,124.643 1688.04,124.643 1690.05,124.643 1692.05,124.643 
  1694.05,124.643 1696.05,124.643 1698.05,124.643 1700.06,124.643 1702.06,124.643 1704.06,124.643 1706.06,124.643 1708.07,124.643 1710.07,124.643 1712.07,124.643 
  1714.07,124.643 1716.07,124.643 1718.08,124.643 1720.08,124.643 1722.08,124.643 1724.08,124.643 1726.08,124.643 1728.09,124.643 1730.09,124.643 1732.09,124.643 
  1734.09,124.643 1736.1,124.643 1738.1,124.643 1740.1,124.643 1742.1,124.643 1744.1,124.643 1746.11,124.643 1748.11,124.643 1750.11,124.643 1752.11,124.643 
  1754.11,124.643 1756.12,124.643 1758.12,124.643 1760.12,124.643 1762.12,124.643 1764.13,124.643 1766.13,124.643 1768.13,124.643 1770.13,124.643 1772.13,124.643 
  1774.14,124.643 1776.14,124.643 1778.14,124.643 1780.14,124.643 1782.14,124.643 1784.15,124.643 1786.15,124.643 1788.15,124.643 1790.15,124.643 1792.16,124.643 
  1794.16,124.643 1796.16,124.643 1798.16,124.643 1800.16,124.643 1802.17,124.643 1804.17,124.643 1806.17,124.643 1808.17,124.643 1810.17,124.643 1812.18,124.643 
  1814.18,124.643 1816.18,124.643 1818.18,124.643 1820.19,124.643 1822.19,124.643 1824.19,124.643 1826.19,124.643 1828.19,124.643 1830.2,124.643 1832.2,124.643 
  1834.2,124.643 1836.2,124.643 1838.2,124.643 1840.21,124.643 1842.21,124.643 1844.21,124.643 1846.21,124.643 1848.22,124.643 1850.22,124.643 1852.22,124.643 
  1854.22,124.643 1856.22,124.643 1858.23,124.643 1860.23,124.643 1862.23,124.643 1864.23,124.643 1866.23,124.643 1868.24,124.643 1870.24,124.643 1872.24,124.643 
  1874.24,124.643 1876.25,124.643 1878.25,124.643 1880.25,124.643 1882.25,124.643 1884.25,124.643 1886.26,124.643 1888.26,124.643 1890.26,124.643 1892.26,124.643 
  1894.26,124.643 1896.27,124.643 1898.27,124.643 1900.27,124.643 1902.27,124.643 1904.28,124.643 1906.28,124.643 1908.28,124.643 1910.28,124.643 1912.28,124.643 
  1914.29,124.643 1916.29,124.643 1918.29,124.643 1920.29,124.643 1922.29,124.643 1924.3,124.643 1926.3,124.643 1928.3,124.643 1930.3,124.643 1932.31,124.643 
  1934.31,124.643 1936.31,124.643 1938.31,124.643 1940.31,124.643 1942.32,124.643 1944.32,124.643 1946.32,124.643 1948.32,124.643 1950.32,124.643 1952.33,124.643 
  1954.33,124.643 1956.33,124.643 1958.33,124.643 1960.34,124.643 1962.34,124.643 1964.34,124.643 1966.34,124.643 1968.34,124.643 1970.35,124.643 1972.35,124.643 
  1974.35,124.643 1976.35,124.643 1978.35,124.643 1980.36,124.643 1982.36,124.643 1984.36,124.643 1986.36,124.643 1988.37,124.643 1990.37,124.643 1992.37,124.643 
  1994.37,124.643 1996.37,124.643 1998.38,124.643 2000.38,124.643 2002.38,124.643 2004.38,124.643 2006.38,124.643 2008.39,124.643 2010.39,124.643 2012.39,124.643 
  2014.39,124.643 2016.4,124.643 2018.4,124.643 2020.4,124.643 2022.4,124.643 2024.4,124.643 2026.41,124.643 2028.41,124.643 2030.41,124.643 2032.41,124.643 
  2034.41,124.643 2036.42,124.643 2038.42,124.643 2040.42,124.643 2042.42,124.643 2044.43,124.643 2046.43,124.643 2048.43,124.643 2050.43,124.643 2052.43,124.643 
  2054.44,124.643 2056.44,124.643 2058.44,124.643 2060.44,124.643 2062.44,124.643 2064.45,124.643 2066.45,124.643 2068.45,124.643 2070.45,124.643 2072.46,124.643 
  2074.46,124.643 2076.46,124.643 2078.46,124.643 2080.46,124.643 2082.47,124.643 2084.47,124.643 2086.47,124.643 2088.47,124.643 2090.48,124.643 2092.48,124.643 
  2094.48,124.643 2096.48,124.643 2098.48,124.643 2100.49,124.643 2102.49,124.643 2104.49,124.643 2106.49,124.643 2108.49,124.643 2110.5,124.643 2112.5,124.643 
  2114.5,124.643 2116.5,124.643 2118.51,124.643 2120.51,124.643 2122.51,124.643 2124.51,124.643 2126.51,124.643 2128.52,124.643 2130.52,124.642 2132.52,124.642 
  2134.52,124.642 2136.52,124.642 2138.53,124.642 2140.53,124.642 2142.53,124.642 2144.53,124.642 2146.54,124.642 2148.54,124.642 2150.54,124.642 2152.54,124.642 
  2154.54,124.642 2156.55,124.642 2158.55,124.642 2160.55,124.642 2162.55,124.642 2164.55,124.642 2166.56,124.642 2168.56,124.642 2170.56,124.642 2172.56,124.642 
  2174.57,124.642 2176.57,124.642 2178.57,124.642 2180.57,124.642 2182.57,124.642 2184.58,124.642 2186.58,124.642 2188.58,124.642 2190.58,124.642 2192.58,124.642 
  2194.59,124.642 2196.59,124.642 2198.59,124.642 2200.59,124.642 2202.6,124.642 2204.6,124.642 2206.6,124.642 2208.6,124.642 2210.6,124.641 2212.61,124.641 
  2214.61,124.641 2216.61,124.641 2218.61,124.641 2220.61,124.641 2222.62,124.641 2224.62,124.641 2226.62,124.641 2228.62,124.641 2230.63,124.641 2232.63,124.641 
  2234.63,124.641 2236.63,124.641 2238.63,124.64 2240.64,124.64 2242.64,124.64 2244.64,124.64 2246.64,124.64 2248.64,124.64 2250.65,124.64 2252.65,124.64 
  2254.65,124.64 2256.65,124.639 2258.66,124.639 2260.66,124.639 2262.66,124.639 2264.66,124.639 2266.66,124.639 2268.67,124.638 2270.67,124.638 2272.67,124.638 
  2274.67,124.638 2276.67,124.638 2278.68,124.637 2280.68,124.637 2282.68,124.637 2284.68,124.637 2286.69,124.637 2288.69,124.636 2290.69,124.636 2292.69,124.636 
  
  "/>
</svg>
