<?xml version="1.0" encoding="UTF-8" standalone="no"?>
<!-- Created with Inkscape (http://www.inkscape.org/) -->

<svg
   xmlns:dc="http://purl.org/dc/elements/1.1/"
   xmlns:cc="http://creativecommons.org/ns#"
   xmlns:rdf="http://www.w3.org/1999/02/22-rdf-syntax-ns#"
   xmlns:svg="http://www.w3.org/2000/svg"
   xmlns="http://www.w3.org/2000/svg"
   xmlns:sodipodi="http://sodipodi.sourceforge.net/DTD/sodipodi-0.dtd"
   xmlns:inkscape="http://www.inkscape.org/namespaces/inkscape"
   width="105.88373mm"
   height="79.058266mm"
   viewBox="0 0 375.17856 280.12771"
   id="svg2"
   version="1.1"
   inkscape:version="0.91 r13725"
   sodipodi:docname="coalsim.svg">
  <defs
     id="defs4" />
  <sodipodi:namedview
     id="base"
     pagecolor="#ffffff"
     bordercolor="#666666"
     borderopacity="1.0"
     inkscape:pageopacity="0.0"
     inkscape:pageshadow="2"
     inkscape:zoom="2.8"
     inkscape:cx="143.11011"
     inkscape:cy="81.481628"
     inkscape:document-units="px"
     inkscape:current-layer="layer1"
     showgrid="false"
     fit-margin-top="10"
     fit-margin-left="0"
     fit-margin-right="0"
     fit-margin-bottom="10"
     inkscape:window-width="2516"
     inkscape:window-height="1410"
     inkscape:window-x="44"
     inkscape:window-y="30"
     inkscape:window-maximized="1" />
  <metadata
     id="metadata7">
    <rdf:RDF>
      <cc:Work
         rdf:about="">
        <dc:format>image/svg+xml</dc:format>
        <dc:type
           rdf:resource="http://purl.org/dc/dcmitype/StillImage" />
        <dc:title></dc:title>
      </cc:Work>
    </rdf:RDF>
  </metadata>
  <g
     inkscape:label="Layer 1"
     inkscape:groupmode="layer"
     id="layer1"
     transform="translate(10.178571,-97.614754)">
    <path
       style="fill:none;fill-rule:evenodd;stroke:#000000;stroke-width:1px;stroke-linecap:butt;stroke-linejoin:miter;stroke-opacity:1"
       d="m 155,134.14792 c 47.14286,0 47.14286,0 47.14286,0 l 0,60 77.21782,133.74518 -51.62929,13.83403 -55.35301,-95.87423 -51.10573,88.51773 -48.490094,-12.99289 76.888364,-133.17455 0,-54.05527 11.75765,0"
       id="path4136"
       inkscape:connector-curvature="0" />
    <path
       style="fill:none;fill-rule:evenodd;stroke:#000000;stroke-width:1.02909696px;stroke-linecap:butt;stroke-linejoin:miter;stroke-opacity:1"
       d="m 308.92857,219.8622 0,102.50001"
       id="path4142"
       inkscape:connector-curvature="0" />
    <path
       style="fill:none;fill-rule:evenodd;stroke:#000000;stroke-width:1.08405828px;stroke-linecap:butt;stroke-linejoin:miter;stroke-opacity:1"
       d="m 365,219.8622 -57.5,0"
       id="path4144"
       inkscape:connector-curvature="0" />
    <path
       style="fill:#00a6b1;fill-opacity:1;stroke:#ffc100;stroke-width:1.60000002;stroke-miterlimit:4;stroke-dasharray:none;stroke-dashoffset:0;stroke-opacity:0"
       id="path4146"
       d="m 313.07658,219.80005 c -0.0244,1.29089 -0.063,2.58361 0.0826,3.8683 0.0514,0.78122 0.27662,1.51481 0.56096,2.23784 0.30895,0.80562 0.70446,1.57354 0.94944,2.4026 0.32447,0.86224 0.57681,1.74888 0.86111,2.62455 0.34909,0.9719 0.55955,1.98176 0.81245,2.9804 0.38609,1.67628 0.8232,3.33691 1.44687,4.94099 0.81439,2.01138 2.04571,3.80286 3.3929,5.48877 1.25655,1.49107 2.59146,2.90979 3.97244,4.2853 1.57078,1.39594 3.35532,2.51527 5.0397,3.76426 1.5636,1.26383 3.12062,2.53329 4.73343,3.73472 1.62154,1.25846 3.17688,2.60032 4.66831,4.0099 1.16107,1.11043 2.41158,2.14046 3.70489,3.0948 0.87186,0.6776 1.82632,1.23156 2.7381,1.85361 1.03303,0.85158 1.83481,1.93586 2.65423,2.98416 0.57925,0.88772 1.26427,1.69109 1.93937,2.50378 0.4142,0.47977 0.89744,0.89314 1.32883,1.36022 1.07278,1.13626 1.66835,2.60015 2.16059,4.05781 0.48048,1.51247 0.76895,3.08173 1.40181,4.542 1.05292,2.15471 2.33832,4.18319 3.54571,6.25194 0.90395,1.52874 1.60735,3.16169 2.24934,4.81406 0.51055,1.38518 0.58839,2.86277 0.64985,4.32242 0.038,1.30917 0.0389,2.61907 0.0376,3.92867 0.009,0.79814 0.006,1.59606 -0.003,2.39414 -0.01,1.09038 -0.009,2.18078 -0.003,3.27117 0.008,0.75711 0.008,1.5142 0.007,2.27134 -0.005,0.76954 -10e-6,1.53909 0.001,2.30864 0.006,0.59449 0.003,1.18904 0.002,1.78356 -0.0282,0.46899 0.1424,0.91199 0.23989,1.36392 0.0952,0.43873 0.11029,0.88905 0.11893,1.33628 -4.5e-4,0.60141 0.002,1.20281 0.002,1.80422 0.002,0.4715 0.002,0.94303 1.7e-4,1.41453 0.005,0.29656 -0.013,0.59219 0.0205,0.88719 0,0 -4.70119,2.50626 -4.70119,2.50626 l 0,0 c -0.077,-0.32434 -0.0767,-0.64262 -0.0647,-0.97578 -0.002,-0.47227 -9.5e-4,-0.94457 0.003,-1.41683 0.002,-0.59778 0.009,-1.19566 -0.002,-1.79339 -0.006,-0.41725 -0.006,-0.83761 -0.0764,-1.25013 -0.0892,-0.48909 -0.29349,-0.96196 -0.27775,-1.46261 -10e-4,-0.59509 -0.005,-1.19022 0.002,-1.78529 0.001,-0.77 0.007,-1.54 0.001,-2.30998 -0.001,-0.75952 -5.7e-4,-1.51899 0.007,-2.27848 0.006,-1.08989 0.007,-2.17978 -0.001,-3.26967 -0.007,-0.80056 -0.004,-1.60079 0.0137,-2.40127 0.009,-1.30653 0.0259,-2.61336 -0.006,-3.91974 -0.0487,-1.40486 -0.10597,-2.82838 -0.57245,-4.16926 -0.61183,-1.63576 -1.28928,-3.25113 -2.15043,-4.77349 -1.20312,-2.09299 -2.4899,-4.13903 -3.62738,-6.26876 -0.67228,-1.4676 -0.91906,-3.0656 -1.40502,-4.59876 -0.46053,-1.39542 -1.04004,-2.77084 -2.10222,-3.82376 -0.45474,-0.46011 -0.96046,-0.87597 -1.35378,-1.39123 -0.66758,-0.82224 -1.31972,-1.65476 -1.90452,-2.53962 -0.78742,-1.00795 -1.57348,-2.04422 -2.59716,-2.8271 -0.91698,-0.62227 -1.86582,-1.1988 -2.73519,-1.88789 -1.27809,-0.99715 -2.54197,-2.026 -3.69328,-3.16837 -1.48101,-1.39553 -3.02693,-2.72279 -4.64881,-3.95286 -1.60007,-1.21186 -3.14447,-2.49078 -4.71178,-3.74372 -1.7093,-1.25995 -3.52162,-2.39019 -5.10194,-3.8163 -1.39196,-1.38992 -2.71454,-2.84266 -3.98073,-4.34853 -1.38248,-1.72374 -2.62684,-3.57115 -3.47203,-5.62351 -0.64347,-1.61062 -1.1349,-3.27209 -1.53538,-4.95966 -0.28055,-0.98285 -0.45397,-1.99136 -0.79162,-2.95858 -0.29384,-0.8793 -0.5709,-1.76374 -0.90393,-2.62938 -0.21248,-0.81903 -0.59721,-1.57077 -0.90718,-2.35495 -0.32387,-0.76233 -0.58233,-1.53436 -0.62282,-2.37005 -0.14897,-1.30303 -0.0921,-2.60646 -0.12082,-3.91611 0,0 4.72458,-2.40729 4.72458,-2.40729 z"
       inkscape:connector-curvature="0" />
    <text
       xml:space="preserve"
       style="font-style:normal;font-weight:normal;font-size:40px;line-height:125%;font-family:sans-serif;letter-spacing:0px;word-spacing:0px;fill:#000000;fill-opacity:1;stroke:none;stroke-width:1px;stroke-linecap:butt;stroke-linejoin:miter;stroke-opacity:1"
       x="352.14285"
       y="212.71935"
       id="text4148"
       sodipodi:linespacing="125%"><tspan
         sodipodi:role="line"
         id="tspan4150"
         x="352.14285"
         y="212.71935"
         style="font-style:italic;font-variant:normal;font-weight:normal;font-stretch:normal;font-size:15px;line-height:125%;font-family:STIX;-inkscape-font-specification:'STIX, Italic';text-align:start;writing-mode:lr-tb;text-anchor:start">p</tspan></text>
    <path
       style="fill:none;fill-rule:evenodd;stroke:#000000;stroke-width:1.03548884px;stroke-linecap:butt;stroke-linejoin:miter;stroke-opacity:1"
       d="m 46.241129,221.28696 0,103.13666"
       id="path4142-9"
       inkscape:connector-curvature="0" />
    <path
       style="fill:none;fill-rule:evenodd;stroke:#000000;stroke-width:1.09079158px;stroke-linecap:butt;stroke-linejoin:miter;stroke-opacity:1"
       d="m -10.178571,221.28696 57.857143,0"
       id="path4144-9"
       inkscape:connector-curvature="0" />
    <path
       style="fill:#00a6b1;fill-opacity:1;stroke:#ffc100;stroke-width:1.60000002;stroke-miterlimit:4;stroke-dasharray:none;stroke-dashoffset:0;stroke-opacity:0"
       id="path4181"
       d="m 46.67849,222.99091 c 0.129205,2.92326 0.167649,5.84973 0.210404,8.77527 0.064,2.72569 0.06119,5.4519 0.07117,8.1781 0.0044,2.58572 -5.4e-5,5.17151 -0.01062,7.75722 0.0022,2.65729 -5.47e-4,5.3146 0.01223,7.97186 -0.04608,2.44213 0.212174,4.87196 0.404805,7.30244 0.183362,2.80338 0.258435,5.61092 0.474934,8.41236 0.262361,2.82718 0.402861,5.66371 0.492115,8.50104 0.06842,2.79884 0.04328,5.59884 0.0413,8.39825 -0.01223,3.25494 -0.01798,6.5098 0.0027,9.76471 0.03305,2.28784 0.01894,4.57593 0.0081,6.86388 0.04315,1.96396 -0.0052,3.92664 -0.216216,5.88007 -0.134456,1.21625 -0.395563,2.41206 -0.646695,3.60813 -0.2246,1.20584 -0.630619,2.36491 -0.929144,3.55236 -0.157493,0.86444 -0.399925,1.7053 -0.717788,2.52333 -0.246308,0.54614 -0.46486,1.09987 -0.645364,1.67094 0,0 -4.783358,2.26829 -4.783358,2.26829 l 0,0 c 0.159616,-0.59142 0.341697,-1.16942 0.607933,-1.72306 0.364852,-0.77863 0.617679,-1.60686 0.770465,-2.45309 0.286188,-1.18978 0.715687,-2.33953 0.940192,-3.54408 0.275454,-1.181 0.501595,-2.37598 0.692009,-3.57385 0.265403,-1.93742 0.323109,-3.89693 0.299492,-5.85074 -0.01077,-2.29113 -0.02448,-4.58241 0.01026,-6.87342 0.02297,-3.25707 0.02128,-6.51412 0.01081,-9.77125 -0.0033,-2.79017 -0.01494,-5.58043 -0.06528,-8.37019 -0.06637,-2.83383 -0.186511,-5.66663 -0.456073,-8.48943 -0.228198,-2.79713 -0.325092,-5.60017 -0.496597,-8.40075 -0.197292,-2.4403 -0.484796,-4.88054 -0.436239,-7.33297 0.01289,-2.66172 0.01048,-5.32348 0.01376,-7.98522 -0.0094,-2.58247 -0.01108,-5.16501 -0.0074,-7.74749 0.0061,-2.73315 -0.0058,-5.46639 -0.01394,-8.19951 -0.03957,-2.88755 -0.06446,-5.78225 -0.338079,-8.65906 0,0 4.70011,-2.45414 4.70011,-2.45414 z"
       inkscape:connector-curvature="0" />
    <text
       xml:space="preserve"
       style="font-style:normal;font-weight:normal;font-size:40px;line-height:125%;font-family:sans-serif;letter-spacing:0px;word-spacing:0px;fill:#000000;fill-opacity:1;stroke:none;stroke-width:1px;stroke-linecap:butt;stroke-linejoin:miter;stroke-opacity:1"
       x="-8.3346424"
       y="213.77505"
       id="text4148-1"
       sodipodi:linespacing="125%"><tspan
         sodipodi:role="line"
         id="tspan4150-0"
         x="-8.3346424"
         y="213.77505"
         style="font-style:italic;font-variant:normal;font-weight:normal;font-stretch:normal;font-size:15px;line-height:125%;font-family:STIX;-inkscape-font-specification:'STIX, Italic';text-align:start;writing-mode:lr-tb;text-anchor:start">p</tspan></text>
    <path
       style="fill:#00a6b1;fill-opacity:1;stroke:#ffc100;stroke-width:1.60000002;stroke-miterlimit:4;stroke-dasharray:none;stroke-dashoffset:0;stroke-opacity:0"
       id="path4201"
       d="m 80.51835,320.98964 c 1.755284,-2.46485 3.313474,-5.0632 4.938797,-7.61439 0.787394,-1.27698 1.68279,-2.46425 2.718163,-3.54764 1.119733,-1.05884 2.244115,-2.10171 3.25854,-3.26411 1.598563,-1.98908 3.357805,-3.8352 5.198059,-5.59999 1.725726,-1.62186 3.646351,-3.01241 5.604831,-4.33577 2.71737,-1.69927 5.48198,-3.36586 8.38542,-4.73516 0.66584,-0.38468 1.45626,-0.25941 2.15891,-0.46919 1.56138,-0.94033 3.70903,-2.00477 -3.82474,2.17265 -0.095,0.0527 0.16844,-0.13752 0.24905,-0.2104 0.27275,-0.24658 0.23524,-0.22444 0.47012,-0.51784 0.6494,-0.87047 1.33331,-1.71345 2.03757,-2.5401 0.95882,-1.03083 1.80092,-2.14802 2.55192,-3.33655 0.80107,-1.40212 1.62901,-2.78843 2.42086,-4.19593 0.54553,-0.98918 1.15575,-1.95567 1.49636,-3.03943 0.26257,-1.19184 0.38152,-2.40757 0.59273,-3.60875 0.26458,-1.92213 0.68363,-3.79224 1.21631,-5.65663 0.85187,-2.77417 1.77576,-5.53781 2.92859,-8.2039 0.49574,-1.14648 1.32878,-2.85478 1.87476,-3.99219 1.31032,-2.75047 2.88406,-5.37029 4.83736,-7.71008 2.03285,-2.12853 4.1549,-4.17138 6.20955,-6.28055 1.46791,-1.62424 2.99836,-3.1903 4.4874,-4.79467 1.7569,-1.98597 2.86425,-4.44154 4.02019,-6.80172 1.35235,-2.82177 2.7765,-5.62857 4.62613,-8.16055 1.00664,-1.404 2.28467,-2.49099 3.68081,-3.47993 1.33476,-0.94869 2.61686,-2.06085 3.54667,-3.42585 0.20085,-0.29485 0.36087,-0.61553 0.54131,-0.9233 0.98894,-2.06377 1.15397,-4.35329 1.26352,-6.60311 0.0777,-1.7106 -0.059,-3.42258 0.19502,-5.11969 0.63758,-2.22487 2.25134,-3.85751 3.83319,-5.45585 0.87918,-1.04341 2.15636,-1.71408 2.99781,-2.79135 0.63087,-0.80767 0.68998,-1.2007 1.09791,-2.2142 0.9216,-3.08438 1.5015,-6.26336 1.93475,-9.4499 0.20274,-1.53943 0.28564,-3.09004 0.30494,-4.64148 0.006,-1.07484 -0.0247,-2.14902 0.0337,-3.22261 0.1899,-1.71299 0.78049,-3.35892 1.40964,-4.95457 0.84735,-1.84775 1.23969,-3.83022 1.50599,-5.83142 0.26704,-2.41853 0.28386,-4.85493 0.29923,-7.28526 0.0283,-2.51309 0.0184,-5.02653 -0.0209,-7.53944 0.0265,-1.64966 -0.12626,-3.28919 -0.30219,-4.92702 -0.18262,-1.60197 -0.31913,-3.20836 -0.40282,-4.81844 -0.036,-0.77398 -0.052,-1.5486 -0.0529,-2.32335 -0.002,-0.51146 -0.002,-1.02295 3.2e-4,-1.53442 -0.002,-0.46023 0.001,-0.92046 -0.002,-1.38069 4.2e-4,-0.29033 -4e-5,-0.14179 0.001,-0.44564 0,0 4.74677,-2.4186 4.74677,-2.4186 l 0,0 c 0.001,0.30263 0.001,0.15455 0.001,0.44423 -0.003,0.46135 -2.5e-4,0.9227 -0.003,1.38405 9.6e-4,0.51248 -0.002,1.02497 -0.007,1.53742 -0.002,0.77321 -0.01,1.54656 0.0115,2.3196 0.0488,1.60766 0.15355,3.21311 0.3369,4.81145 0.18984,1.65076 0.42319,3.30521 0.34068,4.97125 -0.0291,2.52059 -0.0275,5.04139 -0.0136,7.5621 -0.0174,2.44707 -0.0206,4.89936 -0.26217,7.3371 -0.25071,2.02519 -0.56873,4.05495 -1.40465,5.93547 -0.65768,1.5309 -1.24702,3.13373 -1.46665,4.79096 -0.0782,1.06361 -0.0125,2.12956 -0.0365,3.19548 -0.0292,1.58633 -0.12963,3.17108 -0.36063,4.74219 -0.46798,3.2148 -1.09052,6.41224 -1.90847,9.55654 -0.29642,0.91614 -0.42746,1.57991 -0.94729,2.37004 -0.76671,1.16539 -2.13238,1.78101 -3.02611,2.82868 -1.53912,1.53484 -3.15777,3.04705 -3.91969,5.14357 -0.32988,1.67501 -0.14031,3.38056 -0.25211,5.07777 -0.12143,2.30864 -0.24915,4.65754 -1.16494,6.81481 -0.16711,0.33124 -0.3079,0.67713 -0.50135,0.99371 -0.86274,1.41192 -2.16138,2.57854 -3.46556,3.56417 -0.64187,0.45255 -1.3398,0.86931 -1.93263,1.38713 -0.67613,0.59056 -1.24776,1.29989 -1.84944,1.96126 -1.94314,2.46693 -3.38746,5.27447 -4.73972,8.09856 -1.12837,2.36434 -2.18202,4.83535 -3.83965,6.8863 -1.48331,1.65859 -3.12711,3.16991 -4.58505,4.85339 -2.03039,2.09829 -4.10189,4.15506 -6.15943,6.22504 -2.02525,2.29579 -3.66926,4.88724 -5.00886,7.64036 -1.91372,3.90859 -3.67077,7.85134 -4.77484,12.07863 -0.48036,1.8417 -0.88024,3.68942 -1.15448,5.57388 -0.21517,1.20613 -0.33291,2.42362 -0.51539,3.63434 -0.30736,1.14531 -0.90261,2.15569 -1.49844,3.17535 -0.79852,1.40485 -1.61472,2.79789 -2.40204,4.20897 -0.72977,1.21645 -1.53395,2.3755 -2.50567,3.41449 -0.72109,0.79002 -1.39645,1.62992 -2.01194,2.50509 -0.15643,0.19109 -0.27245,0.41309 -0.42963,0.60357 -0.0692,0.0838 -0.15179,0.15885 -0.24447,0.21555 -1.28454,0.78584 -3.38681,2.56743 -5.34521,3.03134 -0.7152,0.0815 -1.41333,0.20767 -2.05581,0.55563 -0.55951,0.27246 -1.11035,0.55799 -1.65819,0.85335 -0.22777,0.1228 -0.90496,0.50215 -0.68207,0.3707 5.16056,-3.04341 4.74635,-2.79707 2.96353,-1.69246 -1.98614,1.30386 -3.93507,2.67988 -5.69827,4.27776 -1.840497,1.72002 -3.582748,3.54021 -5.148395,5.51697 -0.975528,1.18861 -2.060535,2.25934 -3.205161,3.28396 -1.072631,1.06288 -2.036214,2.20451 -2.845114,3.48531 -1.639541,2.52333 -3.224945,5.08084 -4.875801,7.59604 0,0 -4.817709,2.10791 -4.817709,2.10791 z"
       inkscape:connector-curvature="0" />
    <path
       style="fill:#00a6b1;fill-opacity:1;stroke:#ffc100;stroke-width:1.60000002;stroke-miterlimit:4;stroke-dasharray:none;stroke-dashoffset:0;stroke-opacity:0"
       id="path4203"
       d="m 176.08619,148.62202 c 1.47148,3.2897 3.20576,6.45906 4.9429,9.61469 1.51143,2.48228 2.72562,5.15148 4.35702,7.56004 0.9802,1.29732 1.16474,2.96833 1.475,4.5202 0.51131,2.41612 0.64956,4.88383 0.74455,7.34452 0.17428,2.50039 0.23363,5.00791 0.49967,7.50079 0.41685,3.65118 1.65392,7.12986 2.93673,10.5517 0.86247,2.2607 1.86978,4.46116 2.78327,6.70111 0.86879,2.02097 2.04963,3.88338 3.23954,5.72603 1.23422,1.99089 2.6255,3.85975 4.17344,5.61338 1.46891,1.53776 2.87723,3.13291 4.32001,4.6957 1.2965,1.30872 2.62052,2.58974 3.66274,4.11882 0.59826,0.87773 1.37955,2.23922 1.9165,3.15089 2.19641,4.02076 4.07716,8.20364 6.0833,12.32029 1.14965,2.48221 2.5448,4.8629 3.57704,7.40023 0.45404,1.11609 0.6245,1.75526 0.98167,2.90832 0.82091,3.01135 1.42242,6.07707 2.28322,9.07728 0.46089,1.37325 0.80947,2.87239 1.68813,4.05941 0.54811,0.74046 0.97002,1.04744 1.66702,1.67061 2.50629,1.87052 5.18326,3.48975 7.65525,5.4054 1.80806,1.46169 3.47834,3.09827 5.01678,4.84057 0.71914,0.92251 1.41254,1.86413 2.09088,2.81717 2.06714,3.01342 3.79221,6.23403 5.4054,9.50667 1.64601,3.31451 3.20311,6.67167 4.7795,10.01951 1.68496,3.73463 3.30902,7.49587 5.04704,11.20635 0.88928,1.84747 1.81268,3.67938 2.69118,5.53169 0.64843,1.43268 1.24128,2.88675 1.87402,4.3264 0.41716,1.01638 0.84191,2.02894 1.27792,3.03736 0.30357,0.89121 0.58748,1.78591 0.98504,2.64047 0.38372,0.74015 1.00312,1.25058 1.64504,1.75506 1.00591,0.71674 1.78205,1.67769 2.60712,2.5818 0.48062,0.57092 0.25789,0.28305 0.6715,0.86105 0,0 -4.55943,2.68917 -4.55943,2.68917 l 0,0 c -0.37963,-0.5415 -0.17261,-0.2683 -0.62579,-0.81601 -0.79805,-0.89463 -1.58333,-1.80549 -2.57514,-2.49655 -0.70536,-0.55812 -1.36578,-1.14994 -1.77773,-1.96797 -0.38933,-0.86312 -0.70772,-1.75011 -0.99117,-2.65354 -0.42419,-1.0133 -0.84282,-2.02831 -1.25448,-3.04676 -0.61416,-1.44119 -1.18605,-2.89879 -1.847,-4.31938 -0.89062,-1.8533 -1.72979,-3.72893 -2.59607,-5.59421 -1.68395,-3.73414 -3.28143,-7.50587 -4.99039,-11.22879 -1.62338,-3.32326 -3.21744,-6.6592 -4.78777,-10.00802 -1.60409,-3.23979 -3.29481,-6.45685 -5.49407,-9.34155 -0.72765,-0.90282 -1.38167,-1.85405 -2.0672,-2.7884 -1.4971,-1.7268 -3.107,-3.36725 -4.89114,-4.79952 -2.48817,-1.91799 -5.17374,-3.55276 -7.6988,-5.42123 -0.75384,-0.67145 -1.18656,-0.98065 -1.77763,-1.78421 -0.90475,-1.23 -1.26143,-2.77818 -1.7106,-4.20655 -0.85212,-3.00006 -1.4344,-6.06755 -2.26613,-9.07361 -1.10782,-3.58224 -2.69,-6.97407 -4.39355,-10.31091 -2.00632,-4.09953 -3.96958,-8.2246 -6.15482,-12.23284 -0.60674,-1.023 -1.22272,-2.11063 -1.91294,-3.0825 -1.06215,-1.49559 -2.40598,-2.74321 -3.67948,-4.05164 -1.45176,-1.56488 -2.89368,-3.13934 -4.3632,-4.68736 -1.54325,-1.78838 -2.89374,-3.71117 -4.13137,-5.72492 -1.21042,-1.86705 -2.48882,-3.72612 -3.41282,-5.75515 -0.79961,-2.29414 -1.77361,-4.5206 -2.60288,-6.80384 -0.96815,-2.60692 -2.01419,-5.33613 -2.67295,-8.0397 -0.11513,-0.47246 -0.34997,-2.05107 -0.42998,-2.56755 -0.27787,-2.50465 -0.34068,-5.02372 -0.50922,-7.53728 -0.0889,-2.42928 -0.22233,-4.86767 -0.73213,-7.25174 -0.32463,-1.48112 -0.51515,-3.06912 -1.40537,-4.3368 -1.55087,-2.47662 -2.71297,-5.17855 -4.21979,-7.68256 -1.75161,-3.15457 -3.46281,-6.33165 -5.1497,-9.5211 0,0 4.60232,-2.62049 4.60232,-2.62049 z"
       inkscape:connector-curvature="0" />
    <path
       style="fill:#00a6b1;fill-opacity:1;stroke:#ffc100;stroke-width:1.60000002;stroke-miterlimit:4;stroke-dasharray:none;stroke-dashoffset:0;stroke-opacity:0"
       id="path4211"
       d="m 244.46121,332.31675 c 0.18081,-1.78224 0.24813,-3.57377 0.29418,-5.36382 0.11381,-1.11228 -0.0538,-2.12558 -0.43856,-3.16355 -0.83631,-1.7696 -1.28469,-3.6386 -1.58608,-5.5627 -0.26373,-1.87158 -0.37493,-3.75872 -0.44067,-5.64608 -0.0209,-0.88335 -0.0239,-1.76694 -0.0214,-2.65049 -0.004,-0.49203 0.001,-0.98407 -5.8e-4,-1.47609 0.006,-0.52631 0.003,-1.05268 0.003,-1.57901 -0.002,-0.61317 0.007,-1.22629 0.006,-1.83945 0.004,-0.68452 -0.002,-1.36905 -0.004,-2.05357 -0.004,-0.47252 -0.004,-0.94508 -0.002,-1.41761 -0.004,-0.58857 0.003,-1.17713 0.012,-1.76562 -0.052,-1.16373 0.33466,-2.26743 0.65152,-3.36876 0.16018,-0.77948 0.33969,-1.51607 0.75084,-2.20096 0.30708,-0.48254 0.78871,-0.81078 1.1212,-1.27037 0.0368,-0.0609 0.0736,-0.12176 0.11044,-0.18265 0,0 4.84204,-2.22021 4.84204,-2.22021 l 0,0 c -0.0267,0.084 -0.0534,0.16809 -0.0802,0.25213 -0.28068,0.5234 -0.65687,0.92323 -1.12091,1.29303 -0.53151,0.69506 -0.70068,1.18043 -0.84631,2.06018 -0.30042,1.0579 -0.7501,2.11594 -0.70719,3.2319 0.009,0.58442 0.0161,1.16891 0.012,1.75341 0.002,0.47333 0.001,0.94668 -0.002,1.42 -0.002,0.68598 -0.009,1.37197 -0.004,2.05796 -8.6e-4,0.61108 0.008,1.22212 0.006,1.83322 -6e-5,0.52588 -0.003,1.05178 0.002,1.57764 -0.004,0.49519 -0.002,0.99043 -0.0127,1.48556 -0.008,0.88491 -0.0259,1.76979 -0.0192,2.65478 0.0153,1.87725 0.0914,3.7561 0.34112,5.6187 0.29648,1.88681 0.74855,3.70824 1.60479,5.42773 0.43161,1.09863 0.68092,2.16762 0.51887,3.358 -0.0698,1.792 -0.16537,3.58263 -0.2543,5.37375 0,0 -4.73445,2.36295 -4.73445,2.36295 z"
       inkscape:connector-curvature="0" />
    <path
       style="fill:#00a6b1;fill-opacity:1;stroke:#ffc100;stroke-width:1.60000002;stroke-miterlimit:4;stroke-dasharray:none;stroke-dashoffset:0;stroke-opacity:0"
       id="path4217"
       d="m 233.4614,269.51132 c 0.13682,2.37436 0.18735,4.75186 0.23452,7.12926 0.0573,2.29447 0.0554,4.58954 0.0559,6.88451 0.0859,2.32429 -0.50155,4.20443 -1.44041,6.28777 -0.96242,1.86119 -1.96408,3.70436 -3.13023,5.44656 -0.89249,1.20957 -1.764,2.42363 -2.48454,3.74423 -1.0178,2.01786 -1.51049,4.2254 -1.95652,6.42439 -0.32425,1.73491 -0.50856,3.49251 -0.58008,5.2551 -0.0266,0.68114 -0.0176,1.3628 -0.0136,2.04422 0.003,0.69754 0.003,1.39504 0.003,2.09259 -0.006,0.94754 -0.006,1.89508 -0.003,2.84265 0.005,0.82079 0.003,1.64157 0.002,2.46237 0.10721,1.42901 0.68226,2.78507 1.11871,4.13982 0.48877,1.7751 1.27918,3.43108 2.07292,5.08359 0.4055,0.91691 0.87945,1.81938 1.53692,2.58179 0.42792,0.35886 0.80494,0.79599 1.25929,1.12436 0.52254,0.33512 0.93405,0.77361 1.32654,1.247 0.37837,0.53475 0.90043,0.94174 1.31115,1.44223 0.24906,0.29112 0.41622,0.61135 0.53793,0.97098 0,0 -4.67218,2.55861 -4.67218,2.55861 l 0,0 c -0.0788,-0.29851 -0.21848,-0.55141 -0.41984,-0.7887 -0.43382,-0.48642 -0.92442,-0.92378 -1.32067,-1.44566 -0.36852,-0.44741 -0.78531,-0.82764 -1.26928,-1.15031 -0.45485,-0.38665 -0.89423,-0.80055 -1.31123,-1.22596 -0.64848,-0.82483 -1.1512,-1.7542 -1.55042,-2.72339 -0.78917,-1.6791 -1.5779,-3.36227 -2.09158,-5.1513 -0.45748,-1.4022 -1.0595,-2.78861 -1.25314,-4.25563 -0.001,-0.82145 -0.003,-1.6429 0.002,-2.46435 0.003,-0.9461 0.004,-1.89217 -0.004,-2.83825 -0.003,-0.69451 -0.006,-1.38901 -0.0135,-2.08348 -0.006,-0.69607 -0.006,-1.39242 0.0314,-2.0878 0.10961,-1.79839 0.29995,-3.59112 0.62863,-5.36405 0.43346,-2.2242 0.89692,-4.45565 1.83081,-6.53377 0.69968,-1.35718 1.52679,-2.61673 2.4818,-3.81093 1.21581,-1.69481 2.1855,-3.54121 3.18308,-5.36948 0.94247,-2.01737 1.62661,-3.80974 1.54694,-6.08969 -0.003,-2.296 -0.0104,-4.59205 -0.0292,-6.88796 -0.0388,-2.35173 -0.0878,-4.70745 -0.31396,-7.04998 0,0 4.6945,-2.44134 4.6945,-2.44134 z"
       inkscape:connector-curvature="0" />
    <path
       style="fill:#00a6b1;fill-opacity:1;stroke:#ffc100;stroke-width:1.60000002;stroke-miterlimit:4;stroke-dasharray:none;stroke-dashoffset:0;stroke-opacity:0"
       id="path4219"
       d="m 224.71017,310.97751 c 1.20785,1.2315 2.23419,2.61838 3.36548,3.91694 0.84089,0.91617 1.68781,1.82991 2.43265,2.82735 0.33449,0.66647 0.85976,1.17481 1.35621,1.71514 0.44683,0.46555 0.85046,0.96825 1.24957,1.475 0.46005,0.61982 0.93142,1.24923 1.46643,1.80774 0.53147,0.47834 0.9675,1.05228 1.48943,1.53849 0.53716,0.48693 1.10725,0.93588 1.64233,1.4243 0.77783,0.78902 1.50967,1.62318 2.28585,2.41428 0.71103,0.72349 1.30033,1.53857 1.80756,2.41354 0.4602,0.94325 0.92649,1.88402 1.37895,2.83115 0.30458,0.63809 0.49454,1.30972 0.58427,2.00874 0,0 -4.71788,2.46661 -4.71788,2.46661 l 0,0 c -0.0519,-0.64814 -0.19964,-1.27264 -0.47438,-1.86574 -0.43579,-0.93737 -0.89812,-1.86241 -1.35248,-2.79086 -0.49574,-0.83135 -1.05329,-1.61977 -1.73879,-2.30846 -0.75654,-0.79364 -1.48621,-1.61552 -2.27903,-2.37288 -0.552,-0.4814 -1.12941,-0.93372 -1.66286,-1.43683 -0.51024,-0.51116 -0.97408,-1.0678 -1.49851,-1.56571 -0.52976,-0.58559 -1.02136,-1.21083 -1.49487,-1.84197 -0.38914,-0.49641 -0.79879,-0.97659 -1.22717,-1.43927 -0.51095,-0.55108 -1.0285,-1.09314 -1.3699,-1.77323 -0.72888,-0.98983 -1.55603,-1.90094 -2.37228,-2.81842 -1.11854,-1.31113 -2.14462,-2.70582 -3.40712,-3.88728 0,0 4.53654,-2.73863 4.53654,-2.73863 z"
       inkscape:connector-curvature="0" />
    <path
       style="fill:#00a6b1;fill-opacity:1;stroke:#ffc100;stroke-width:1.60000002;stroke-miterlimit:4;stroke-dasharray:none;stroke-dashoffset:0;stroke-opacity:0"
       id="path4221"
       d="m 162.00515,214.08576 c -0.0785,2.7917 -0.0729,5.58481 -0.0665,8.37733 0.0104,2.4727 0.02,4.94539 0.0345,7.41808 -0.014,1.92351 0.041,3.84799 -0.0377,5.77025 -0.18935,2.55023 -1.37388,4.80952 -2.55479,7.0227 -1.72144,3.06961 -3.85722,5.87447 -5.869,8.75325 -1.39974,2.08126 -2.85616,4.14732 -3.84061,6.46477 -0.76172,1.98327 -1.18284,4.0698 -1.69067,6.12652 -0.49759,1.88016 -0.96289,3.76579 -1.69859,5.56937 -0.71104,1.62859 -1.70896,3.10321 -2.52187,4.68067 -0.91036,1.79128 -1.68051,3.64532 -2.39232,5.52264 -0.63015,2.05068 -1.28106,4.09199 -2.06958,6.08826 -0.60582,1.50661 -1.56259,2.82841 -2.39555,4.21137 -0.76768,1.18528 -1.17447,2.53145 -1.58307,3.86866 -0.47359,1.89934 -1.01225,3.78148 -1.50554,5.67551 -0.57671,2.17264 -1.03055,4.37424 -1.52954,6.56538 -0.31003,1.48804 -0.7423,2.90447 -1.57507,4.18191 -0.62334,0.9112 -1.38035,1.71686 -2.04874,2.59376 -0.77247,0.92806 -1.5892,1.81749 -2.36324,2.74443 -0.93224,1.00814 -1.85809,2.00441 -2.57511,3.17963 -0.61103,1.23143 -1.06055,2.53898 -1.51328,3.83551 -0.36511,1.13713 -0.7705,2.25798 -1.17769,3.38043 -0.24297,0.59377 -0.34374,1.22033 -0.45092,1.8471 -0.13256,0.45682 -0.2432,0.91487 -0.30367,1.38674 -0.0379,0.44577 -0.0163,0.88874 -0.16859,1.31476 -0.0209,0.0602 -0.0418,0.12037 -0.0627,0.18055 0,0 -4.81216,2.29409 -4.81216,2.29409 l 0,0 c 0.0146,-0.0714 0.0293,-0.14272 0.0439,-0.21408 0.052,-0.15261 0.17722,-0.32141 0.20606,-0.47776 0.0432,-0.23416 -0.022,-0.491 0.0228,-0.72624 0.0365,-0.49587 0.10856,-0.98585 0.27234,-1.45748 0.21418,-0.61357 0.1509,-1.31507 0.45519,-1.9121 0.41666,-1.12197 0.85167,-2.23132 1.19645,-3.37837 0.45433,-1.3238 0.9469,-2.63674 1.47801,-3.93102 0.7005,-1.26889 1.50792,-2.24224 2.53881,-3.26003 0.76231,-0.92242 1.53334,-1.83858 2.35092,-2.7126 0.66429,-0.8872 1.39768,-1.71208 2.07698,-2.58577 0.96101,-1.27035 1.33576,-2.47647 1.70257,-4.01836 0.51484,-2.19164 0.96935,-4.39592 1.52721,-6.57733 0.47447,-1.89742 1.04048,-3.77146 1.46517,-5.68189 0.40803,-1.36033 0.7482,-2.7644 1.52183,-3.97626 0.79333,-1.40091 1.80136,-2.68059 2.45845,-4.15839 0.83144,-1.97766 1.49149,-4.01629 2.08226,-6.07763 0.70061,-1.89358 1.45227,-3.76704 2.36321,-5.5712 0.77752,-1.58354 1.74347,-3.05198 2.51081,-4.63838 0.78526,-1.77848 1.28126,-3.64241 1.78184,-5.51789 0.52119,-2.06401 0.90691,-4.16514 1.61453,-6.17715 0.9731,-2.38593 2.47315,-4.48859 3.90687,-6.6161 1.98859,-2.86573 4.13206,-5.63354 5.84824,-8.67986 1.16451,-2.13956 2.35948,-4.31968 2.60717,-6.78766 0.0871,-1.91526 0.0297,-3.83325 0.0477,-5.75004 0.0145,-2.4844 0.0241,-4.96881 0.0345,-7.45323 0.006,-2.76991 0.0128,-5.54048 -0.0665,-8.30956 0,0 4.72458,-2.40729 4.72458,-2.40729 z"
       inkscape:connector-curvature="0" />
    <path
       style="fill:#00a6b1;fill-opacity:1;stroke:#ffc100;stroke-width:1.60000002;stroke-miterlimit:4;stroke-dasharray:none;stroke-dashoffset:0;stroke-opacity:0"
       id="path4223"
       d="m 135.39276,247.72615 c -1.04527,1.38399 -2.14371,2.72669 -3.28272,4.03427 -0.78278,0.89711 -1.46472,1.84762 -1.90713,2.95413 -0.45815,1.37161 -0.58915,2.8171 -0.67034,4.25201 -0.0532,1.19469 -0.048,2.39106 -0.045,3.58664 0.004,1.01686 0.0101,2.03371 0.0157,3.05057 0.01,0.76439 0.008,1.52896 -2.3e-4,2.29336 -0.003,1.09415 -0.007,2.18831 -0.006,3.28246 0.003,0.91362 0.008,1.82722 0.0103,2.74084 -0.0109,1.17003 -0.0162,2.34012 -0.0141,3.51019 0.001,1.26424 -0.003,2.52846 0.002,3.79268 0.0865,1.16088 -0.10382,2.28222 -0.38936,3.40119 -0.26448,1.39333 -0.97127,2.56925 -1.76755,3.7157 -0.98345,1.35263 -1.94357,2.72856 -3.07578,3.96218 -1.09803,1.05501 -2.22553,2.07148 -3.24403,3.20545 -1.02065,1.13908 -1.85895,2.41788 -2.72887,3.67047 -0.72627,1.06483 -1.36592,2.1829 -2.0058,3.30053 -0.48,0.92736 -1.0309,1.81449 -1.59705,2.69103 -0.53717,0.82512 -0.95198,1.71523 -1.33427,2.6198 -0.43954,0.84543 -0.70616,1.75418 -1.00853,2.65218 -0.42752,1.09696 -0.55493,2.27077 -0.74,3.42467 -0.21883,1.2317 -0.61852,2.41766 -0.83835,3.64938 -0.15802,1.04638 -0.18089,2.10576 -0.19248,3.16189 -0.005,0.77358 0.002,1.54715 10e-4,2.32072 0.0429,0.70928 -0.0125,1.40358 -0.13485,2.10124 -0.10066,0.52066 -0.16255,1.04659 -0.19062,1.57585 0.0239,0.46896 -0.0716,0.8971 -0.22819,1.3334 -0.12641,0.26999 -0.0607,0.13825 -0.19651,0.39546 0,0 -4.84625,2.21462 -4.84625,2.21462 l 0,0 c 0.11135,-0.28567 0.0452,-0.15289 0.19449,-0.40034 0.21641,-0.35568 0.34699,-0.72765 0.31579,-1.1483 0.0276,-0.54976 0.0623,-1.10138 0.17627,-1.64134 0.11852,-0.67385 0.24593,-1.3301 0.18267,-2.02029 -0.005,-0.7767 -0.008,-1.55347 -0.002,-2.33017 0.0169,-1.0819 0.0505,-2.16548 0.17537,-3.24112 0.1845,-1.24264 0.57868,-2.42572 0.85079,-3.64927 0.16992,-1.17765 0.29094,-2.37515 0.67538,-3.50656 0.3394,-0.89173 0.5075,-1.84715 1.00598,-2.67629 0.36749,-0.93426 0.76988,-1.84981 1.28113,-2.71323 0.58983,-0.85211 1.14538,-1.73438 1.6194,-2.6562 0.63247,-1.14544 1.31533,-2.26068 2.01791,-3.36371 0.88797,-1.24868 1.68548,-2.56344 2.70062,-3.71786 0.98791,-1.16905 2.0944,-2.21271 3.23585,-3.23047 1.18382,-1.17108 2.12999,-2.54802 3.11012,-3.88933 0.78252,-1.09655 1.56922,-2.18087 1.82204,-3.53695 0.30237,-1.07587 0.53536,-2.15062 0.4498,-3.27693 0.005,-1.26503 9.1e-4,-2.53005 0.002,-3.79509 0.002,-1.16528 -0.003,-2.33057 -0.0141,-3.4958 0.003,-0.91713 0.007,-1.83425 0.0104,-2.75138 10e-4,-1.09207 -0.003,-2.18414 -0.006,-3.2762 -0.008,-0.76366 -0.01,-1.52746 -0.002,-2.29113 0.003,-1.01962 0.003,-2.03922 10e-4,-3.05883 -0.002,-1.20607 -0.009,-2.41264 0.039,-3.61805 0.0829,-1.47578 0.20758,-2.95862 0.60653,-4.38824 0.11834,-0.37663 0.23501,-0.81735 0.4224,-1.17272 0.37683,-0.71461 0.94724,-1.31911 1.4182,-1.96803 1.12652,-1.2917 2.26918,-2.57599 3.25564,-3.98059 0,0 4.8696,-2.09849 4.8696,-2.09849 z"
       inkscape:connector-curvature="0" />
    <path
       style="fill:#00a6b1;fill-opacity:1;stroke:#ffc100;stroke-width:1.60000002;stroke-miterlimit:4;stroke-dasharray:none;stroke-dashoffset:0;stroke-opacity:0"
       id="path4225"
       d="m 94.502713,308.05829 c -0.02892,1.4702 -0.02251,2.94102 -0.0087,4.41137 0.01114,0.86025 0.01553,1.72053 0.01167,2.58085 0.0016,0.80057 4.29e-4,1.60115 0.0015,2.40173 -3.4e-5,0.63091 0.0093,1.26182 0.0052,1.89272 0.0035,0.51172 8.26e-4,1.02346 0.0039,1.53517 6.49e-4,0.47364 -0.0024,0.9473 1.17e-4,1.42093 4.47e-4,0.44119 0.0012,0.88238 3.18e-4,1.32358 -3.82e-4,0.0812 -7.64e-4,0.16232 -0.0011,0.24349 0,0 -4.745575,2.41799 -4.745575,2.41799 l 0,0 c -3.82e-4,-0.0808 -7.64e-4,-0.16155 -0.0011,-0.24232 -9.13e-4,-0.44131 -1.27e-4,-0.8826 3.18e-4,-1.32391 0.0025,-0.47367 -5.21e-4,-0.94736 1.16e-4,-1.42104 0.0031,-0.51306 5.06e-4,-1.02614 0.0039,-1.5392 -0.0041,-0.63267 0.0053,-1.26534 0.0052,-1.89802 0.0011,-0.80109 -6.7e-5,-1.60218 0.0015,-2.40326 -0.0039,-0.86428 6.41e-4,-1.72853 0.01167,-2.59274 0.01367,-1.46741 0.02049,-2.93528 -0.0087,-4.40252 0,0 4.719712,-2.40482 4.719712,-2.40482 z"
       inkscape:connector-curvature="0" />
  </g>
</svg>
