<?xml version="1.0" encoding="utf-8" standalone="no"?>
<!DOCTYPE svg PUBLIC "-//W3C//DTD SVG 1.1//EN"
  "http://www.w3.org/Graphics/SVG/1.1/DTD/svg11.dtd">
<!-- Created with matplotlib (http://matplotlib.org/) -->
<svg height="345.6pt" version="1.1" viewBox="0 0 460.8 345.6" width="460.8pt" xmlns="http://www.w3.org/2000/svg" xmlns:xlink="http://www.w3.org/1999/xlink">
 <defs>
  <style type="text/css">
*{stroke-linecap:butt;stroke-linejoin:round;}
  </style>
 </defs>
 <g id="figure_1">
  <g id="patch_1">
   <path d="M 0 345.6 
L 460.8 345.6 
L 460.8 0 
L 0 0 
z
" style="fill:#ffffff;"/>
  </g>
  <g id="axes_1">
   <g id="patch_2">
    <path d="M 57.6 307.584 
L 414.72 307.584 
L 414.72 41.472 
L 57.6 41.472 
z
" style="fill:#ffffff;"/>
   </g>
   <g id="matplotlib.axis_1">
    <g id="xtick_1">
     <g id="line2d_1">
      <defs>
       <path d="M 0 0 
L 0 3.5 
" id="m0e12610527" style="stroke:#000000;stroke-width:0.8;"/>
      </defs>
      <g>
       <use style="stroke:#000000;stroke-width:0.8;" x="73.832727" xlink:href="#m0e12610527" y="307.584"/>
      </g>
     </g>
     <g id="text_1">
      <!-- 0 -->
      <defs>
       <path d="M 31.78125 66.40625 
Q 24.171875 66.40625 20.328125 58.90625 
Q 16.5 51.421875 16.5 36.375 
Q 16.5 21.390625 20.328125 13.890625 
Q 24.171875 6.390625 31.78125 6.390625 
Q 39.453125 6.390625 43.28125 13.890625 
Q 47.125 21.390625 47.125 36.375 
Q 47.125 51.421875 43.28125 58.90625 
Q 39.453125 66.40625 31.78125 66.40625 
z
M 31.78125 74.21875 
Q 44.046875 74.21875 50.515625 64.515625 
Q 56.984375 54.828125 56.984375 36.375 
Q 56.984375 17.96875 50.515625 8.265625 
Q 44.046875 -1.421875 31.78125 -1.421875 
Q 19.53125 -1.421875 13.0625 8.265625 
Q 6.59375 17.96875 6.59375 36.375 
Q 6.59375 54.828125 13.0625 64.515625 
Q 19.53125 74.21875 31.78125 74.21875 
z
" id="DejaVuSans-30"/>
      </defs>
      <g transform="translate(70.651477 322.182437)scale(0.1 -0.1)">
       <use xlink:href="#DejaVuSans-30"/>
      </g>
     </g>
    </g>
    <g id="xtick_2">
     <g id="line2d_2">
      <g>
       <use style="stroke:#000000;stroke-width:0.8;" x="124.166765" xlink:href="#m0e12610527" y="307.584"/>
      </g>
     </g>
     <g id="text_2">
      <!-- 100 -->
      <defs>
       <path d="M 12.40625 8.296875 
L 28.515625 8.296875 
L 28.515625 63.921875 
L 10.984375 60.40625 
L 10.984375 69.390625 
L 28.421875 72.90625 
L 38.28125 72.90625 
L 38.28125 8.296875 
L 54.390625 8.296875 
L 54.390625 0 
L 12.40625 0 
z
" id="DejaVuSans-31"/>
      </defs>
      <g transform="translate(114.623015 322.182437)scale(0.1 -0.1)">
       <use xlink:href="#DejaVuSans-31"/>
       <use x="63.623047" xlink:href="#DejaVuSans-30"/>
       <use x="127.246094" xlink:href="#DejaVuSans-30"/>
      </g>
     </g>
    </g>
    <g id="xtick_3">
     <g id="line2d_3">
      <g>
       <use style="stroke:#000000;stroke-width:0.8;" x="174.500803" xlink:href="#m0e12610527" y="307.584"/>
      </g>
     </g>
     <g id="text_3">
      <!-- 200 -->
      <defs>
       <path d="M 19.1875 8.296875 
L 53.609375 8.296875 
L 53.609375 0 
L 7.328125 0 
L 7.328125 8.296875 
Q 12.9375 14.109375 22.625 23.890625 
Q 32.328125 33.6875 34.8125 36.53125 
Q 39.546875 41.84375 41.421875 45.53125 
Q 43.3125 49.21875 43.3125 52.78125 
Q 43.3125 58.59375 39.234375 62.25 
Q 35.15625 65.921875 28.609375 65.921875 
Q 23.96875 65.921875 18.8125 64.3125 
Q 13.671875 62.703125 7.8125 59.421875 
L 7.8125 69.390625 
Q 13.765625 71.78125 18.9375 73 
Q 24.125 74.21875 28.421875 74.21875 
Q 39.75 74.21875 46.484375 68.546875 
Q 53.21875 62.890625 53.21875 53.421875 
Q 53.21875 48.921875 51.53125 44.890625 
Q 49.859375 40.875 45.40625 35.40625 
Q 44.1875 33.984375 37.640625 27.21875 
Q 31.109375 20.453125 19.1875 8.296875 
z
" id="DejaVuSans-32"/>
      </defs>
      <g transform="translate(164.957053 322.182437)scale(0.1 -0.1)">
       <use xlink:href="#DejaVuSans-32"/>
       <use x="63.623047" xlink:href="#DejaVuSans-30"/>
       <use x="127.246094" xlink:href="#DejaVuSans-30"/>
      </g>
     </g>
    </g>
    <g id="xtick_4">
     <g id="line2d_4">
      <g>
       <use style="stroke:#000000;stroke-width:0.8;" x="224.834841" xlink:href="#m0e12610527" y="307.584"/>
      </g>
     </g>
     <g id="text_4">
      <!-- 300 -->
      <defs>
       <path d="M 40.578125 39.3125 
Q 47.65625 37.796875 51.625 33 
Q 55.609375 28.21875 55.609375 21.1875 
Q 55.609375 10.40625 48.1875 4.484375 
Q 40.765625 -1.421875 27.09375 -1.421875 
Q 22.515625 -1.421875 17.65625 -0.515625 
Q 12.796875 0.390625 7.625 2.203125 
L 7.625 11.71875 
Q 11.71875 9.328125 16.59375 8.109375 
Q 21.484375 6.890625 26.8125 6.890625 
Q 36.078125 6.890625 40.9375 10.546875 
Q 45.796875 14.203125 45.796875 21.1875 
Q 45.796875 27.640625 41.28125 31.265625 
Q 36.765625 34.90625 28.71875 34.90625 
L 20.21875 34.90625 
L 20.21875 43.015625 
L 29.109375 43.015625 
Q 36.375 43.015625 40.234375 45.921875 
Q 44.09375 48.828125 44.09375 54.296875 
Q 44.09375 59.90625 40.109375 62.90625 
Q 36.140625 65.921875 28.71875 65.921875 
Q 24.65625 65.921875 20.015625 65.03125 
Q 15.375 64.15625 9.8125 62.3125 
L 9.8125 71.09375 
Q 15.4375 72.65625 20.34375 73.4375 
Q 25.25 74.21875 29.59375 74.21875 
Q 40.828125 74.21875 47.359375 69.109375 
Q 53.90625 64.015625 53.90625 55.328125 
Q 53.90625 49.265625 50.4375 45.09375 
Q 46.96875 40.921875 40.578125 39.3125 
z
" id="DejaVuSans-33"/>
      </defs>
      <g transform="translate(215.291091 322.182437)scale(0.1 -0.1)">
       <use xlink:href="#DejaVuSans-33"/>
       <use x="63.623047" xlink:href="#DejaVuSans-30"/>
       <use x="127.246094" xlink:href="#DejaVuSans-30"/>
      </g>
     </g>
    </g>
    <g id="xtick_5">
     <g id="line2d_5">
      <g>
       <use style="stroke:#000000;stroke-width:0.8;" x="275.168879" xlink:href="#m0e12610527" y="307.584"/>
      </g>
     </g>
     <g id="text_5">
      <!-- 400 -->
      <defs>
       <path d="M 37.796875 64.3125 
L 12.890625 25.390625 
L 37.796875 25.390625 
z
M 35.203125 72.90625 
L 47.609375 72.90625 
L 47.609375 25.390625 
L 58.015625 25.390625 
L 58.015625 17.1875 
L 47.609375 17.1875 
L 47.609375 0 
L 37.796875 0 
L 37.796875 17.1875 
L 4.890625 17.1875 
L 4.890625 26.703125 
z
" id="DejaVuSans-34"/>
      </defs>
      <g transform="translate(265.625129 322.182437)scale(0.1 -0.1)">
       <use xlink:href="#DejaVuSans-34"/>
       <use x="63.623047" xlink:href="#DejaVuSans-30"/>
       <use x="127.246094" xlink:href="#DejaVuSans-30"/>
      </g>
     </g>
    </g>
    <g id="xtick_6">
     <g id="line2d_6">
      <g>
       <use style="stroke:#000000;stroke-width:0.8;" x="325.502918" xlink:href="#m0e12610527" y="307.584"/>
      </g>
     </g>
     <g id="text_6">
      <!-- 500 -->
      <defs>
       <path d="M 10.796875 72.90625 
L 49.515625 72.90625 
L 49.515625 64.59375 
L 19.828125 64.59375 
L 19.828125 46.734375 
Q 21.96875 47.46875 24.109375 47.828125 
Q 26.265625 48.1875 28.421875 48.1875 
Q 40.625 48.1875 47.75 41.5 
Q 54.890625 34.8125 54.890625 23.390625 
Q 54.890625 11.625 47.5625 5.09375 
Q 40.234375 -1.421875 26.90625 -1.421875 
Q 22.3125 -1.421875 17.546875 -0.640625 
Q 12.796875 0.140625 7.71875 1.703125 
L 7.71875 11.625 
Q 12.109375 9.234375 16.796875 8.0625 
Q 21.484375 6.890625 26.703125 6.890625 
Q 35.15625 6.890625 40.078125 11.328125 
Q 45.015625 15.765625 45.015625 23.390625 
Q 45.015625 31 40.078125 35.4375 
Q 35.15625 39.890625 26.703125 39.890625 
Q 22.75 39.890625 18.8125 39.015625 
Q 14.890625 38.140625 10.796875 36.28125 
z
" id="DejaVuSans-35"/>
      </defs>
      <g transform="translate(315.959168 322.182437)scale(0.1 -0.1)">
       <use xlink:href="#DejaVuSans-35"/>
       <use x="63.623047" xlink:href="#DejaVuSans-30"/>
       <use x="127.246094" xlink:href="#DejaVuSans-30"/>
      </g>
     </g>
    </g>
    <g id="xtick_7">
     <g id="line2d_7">
      <g>
       <use style="stroke:#000000;stroke-width:0.8;" x="375.836956" xlink:href="#m0e12610527" y="307.584"/>
      </g>
     </g>
     <g id="text_7">
      <!-- 600 -->
      <defs>
       <path d="M 33.015625 40.375 
Q 26.375 40.375 22.484375 35.828125 
Q 18.609375 31.296875 18.609375 23.390625 
Q 18.609375 15.53125 22.484375 10.953125 
Q 26.375 6.390625 33.015625 6.390625 
Q 39.65625 6.390625 43.53125 10.953125 
Q 47.40625 15.53125 47.40625 23.390625 
Q 47.40625 31.296875 43.53125 35.828125 
Q 39.65625 40.375 33.015625 40.375 
z
M 52.59375 71.296875 
L 52.59375 62.3125 
Q 48.875 64.0625 45.09375 64.984375 
Q 41.3125 65.921875 37.59375 65.921875 
Q 27.828125 65.921875 22.671875 59.328125 
Q 17.53125 52.734375 16.796875 39.40625 
Q 19.671875 43.65625 24.015625 45.921875 
Q 28.375 48.1875 33.59375 48.1875 
Q 44.578125 48.1875 50.953125 41.515625 
Q 57.328125 34.859375 57.328125 23.390625 
Q 57.328125 12.15625 50.6875 5.359375 
Q 44.046875 -1.421875 33.015625 -1.421875 
Q 20.359375 -1.421875 13.671875 8.265625 
Q 6.984375 17.96875 6.984375 36.375 
Q 6.984375 53.65625 15.1875 63.9375 
Q 23.390625 74.21875 37.203125 74.21875 
Q 40.921875 74.21875 44.703125 73.484375 
Q 48.484375 72.75 52.59375 71.296875 
z
" id="DejaVuSans-36"/>
      </defs>
      <g transform="translate(366.293206 322.182437)scale(0.1 -0.1)">
       <use xlink:href="#DejaVuSans-36"/>
       <use x="63.623047" xlink:href="#DejaVuSans-30"/>
       <use x="127.246094" xlink:href="#DejaVuSans-30"/>
      </g>
     </g>
    </g>
    <g id="text_8">
     <!-- Generation -->
     <defs>
      <path d="M 59.515625 10.40625 
L 59.515625 29.984375 
L 43.40625 29.984375 
L 43.40625 38.09375 
L 69.28125 38.09375 
L 69.28125 6.78125 
Q 63.578125 2.734375 56.6875 0.65625 
Q 49.8125 -1.421875 42 -1.421875 
Q 24.90625 -1.421875 15.25 8.5625 
Q 5.609375 18.5625 5.609375 36.375 
Q 5.609375 54.25 15.25 64.234375 
Q 24.90625 74.21875 42 74.21875 
Q 49.125 74.21875 55.546875 72.453125 
Q 61.96875 70.703125 67.390625 67.28125 
L 67.390625 56.78125 
Q 61.921875 61.421875 55.765625 63.765625 
Q 49.609375 66.109375 42.828125 66.109375 
Q 29.4375 66.109375 22.71875 58.640625 
Q 16.015625 51.171875 16.015625 36.375 
Q 16.015625 21.625 22.71875 14.15625 
Q 29.4375 6.6875 42.828125 6.6875 
Q 48.046875 6.6875 52.140625 7.59375 
Q 56.25 8.5 59.515625 10.40625 
z
" id="DejaVuSans-47"/>
      <path d="M 56.203125 29.59375 
L 56.203125 25.203125 
L 14.890625 25.203125 
Q 15.484375 15.921875 20.484375 11.0625 
Q 25.484375 6.203125 34.421875 6.203125 
Q 39.59375 6.203125 44.453125 7.46875 
Q 49.3125 8.734375 54.109375 11.28125 
L 54.109375 2.78125 
Q 49.265625 0.734375 44.1875 -0.34375 
Q 39.109375 -1.421875 33.890625 -1.421875 
Q 20.796875 -1.421875 13.15625 6.1875 
Q 5.515625 13.8125 5.515625 26.8125 
Q 5.515625 40.234375 12.765625 48.109375 
Q 20.015625 56 32.328125 56 
Q 43.359375 56 49.78125 48.890625 
Q 56.203125 41.796875 56.203125 29.59375 
z
M 47.21875 32.234375 
Q 47.125 39.59375 43.09375 43.984375 
Q 39.0625 48.390625 32.421875 48.390625 
Q 24.90625 48.390625 20.390625 44.140625 
Q 15.875 39.890625 15.1875 32.171875 
z
" id="DejaVuSans-65"/>
      <path d="M 54.890625 33.015625 
L 54.890625 0 
L 45.90625 0 
L 45.90625 32.71875 
Q 45.90625 40.484375 42.875 44.328125 
Q 39.84375 48.1875 33.796875 48.1875 
Q 26.515625 48.1875 22.3125 43.546875 
Q 18.109375 38.921875 18.109375 30.90625 
L 18.109375 0 
L 9.078125 0 
L 9.078125 54.6875 
L 18.109375 54.6875 
L 18.109375 46.1875 
Q 21.34375 51.125 25.703125 53.5625 
Q 30.078125 56 35.796875 56 
Q 45.21875 56 50.046875 50.171875 
Q 54.890625 44.34375 54.890625 33.015625 
z
" id="DejaVuSans-6e"/>
      <path d="M 41.109375 46.296875 
Q 39.59375 47.171875 37.8125 47.578125 
Q 36.03125 48 33.890625 48 
Q 26.265625 48 22.1875 43.046875 
Q 18.109375 38.09375 18.109375 28.8125 
L 18.109375 0 
L 9.078125 0 
L 9.078125 54.6875 
L 18.109375 54.6875 
L 18.109375 46.1875 
Q 20.953125 51.171875 25.484375 53.578125 
Q 30.03125 56 36.53125 56 
Q 37.453125 56 38.578125 55.875 
Q 39.703125 55.765625 41.0625 55.515625 
z
" id="DejaVuSans-72"/>
      <path d="M 34.28125 27.484375 
Q 23.390625 27.484375 19.1875 25 
Q 14.984375 22.515625 14.984375 16.5 
Q 14.984375 11.71875 18.140625 8.90625 
Q 21.296875 6.109375 26.703125 6.109375 
Q 34.1875 6.109375 38.703125 11.40625 
Q 43.21875 16.703125 43.21875 25.484375 
L 43.21875 27.484375 
z
M 52.203125 31.203125 
L 52.203125 0 
L 43.21875 0 
L 43.21875 8.296875 
Q 40.140625 3.328125 35.546875 0.953125 
Q 30.953125 -1.421875 24.3125 -1.421875 
Q 15.921875 -1.421875 10.953125 3.296875 
Q 6 8.015625 6 15.921875 
Q 6 25.140625 12.171875 29.828125 
Q 18.359375 34.515625 30.609375 34.515625 
L 43.21875 34.515625 
L 43.21875 35.40625 
Q 43.21875 41.609375 39.140625 45 
Q 35.0625 48.390625 27.6875 48.390625 
Q 23 48.390625 18.546875 47.265625 
Q 14.109375 46.140625 10.015625 43.890625 
L 10.015625 52.203125 
Q 14.9375 54.109375 19.578125 55.046875 
Q 24.21875 56 28.609375 56 
Q 40.484375 56 46.34375 49.84375 
Q 52.203125 43.703125 52.203125 31.203125 
z
" id="DejaVuSans-61"/>
      <path d="M 18.3125 70.21875 
L 18.3125 54.6875 
L 36.8125 54.6875 
L 36.8125 47.703125 
L 18.3125 47.703125 
L 18.3125 18.015625 
Q 18.3125 11.328125 20.140625 9.421875 
Q 21.96875 7.515625 27.59375 7.515625 
L 36.8125 7.515625 
L 36.8125 0 
L 27.59375 0 
Q 17.1875 0 13.234375 3.875 
Q 9.28125 7.765625 9.28125 18.015625 
L 9.28125 47.703125 
L 2.6875 47.703125 
L 2.6875 54.6875 
L 9.28125 54.6875 
L 9.28125 70.21875 
z
" id="DejaVuSans-74"/>
      <path d="M 9.421875 54.6875 
L 18.40625 54.6875 
L 18.40625 0 
L 9.421875 0 
z
M 9.421875 75.984375 
L 18.40625 75.984375 
L 18.40625 64.59375 
L 9.421875 64.59375 
z
" id="DejaVuSans-69"/>
      <path d="M 30.609375 48.390625 
Q 23.390625 48.390625 19.1875 42.75 
Q 14.984375 37.109375 14.984375 27.296875 
Q 14.984375 17.484375 19.15625 11.84375 
Q 23.34375 6.203125 30.609375 6.203125 
Q 37.796875 6.203125 41.984375 11.859375 
Q 46.1875 17.53125 46.1875 27.296875 
Q 46.1875 37.015625 41.984375 42.703125 
Q 37.796875 48.390625 30.609375 48.390625 
z
M 30.609375 56 
Q 42.328125 56 49.015625 48.375 
Q 55.71875 40.765625 55.71875 27.296875 
Q 55.71875 13.875 49.015625 6.21875 
Q 42.328125 -1.421875 30.609375 -1.421875 
Q 18.84375 -1.421875 12.171875 6.21875 
Q 5.515625 13.875 5.515625 27.296875 
Q 5.515625 40.765625 12.171875 48.375 
Q 18.84375 56 30.609375 56 
z
" id="DejaVuSans-6f"/>
     </defs>
     <g transform="translate(208.267031 335.860562)scale(0.1 -0.1)">
      <use xlink:href="#DejaVuSans-47"/>
      <use x="77.490234" xlink:href="#DejaVuSans-65"/>
      <use x="139.013672" xlink:href="#DejaVuSans-6e"/>
      <use x="202.392578" xlink:href="#DejaVuSans-65"/>
      <use x="263.916016" xlink:href="#DejaVuSans-72"/>
      <use x="305.029297" xlink:href="#DejaVuSans-61"/>
      <use x="366.308594" xlink:href="#DejaVuSans-74"/>
      <use x="405.517578" xlink:href="#DejaVuSans-69"/>
      <use x="433.300781" xlink:href="#DejaVuSans-6f"/>
      <use x="494.482422" xlink:href="#DejaVuSans-6e"/>
     </g>
    </g>
   </g>
   <g id="matplotlib.axis_2">
    <g id="ytick_1">
     <g id="line2d_8">
      <defs>
       <path d="M 0 0 
L -3.5 0 
" id="m3be6fecf5f" style="stroke:#000000;stroke-width:0.8;"/>
      </defs>
      <g>
       <use style="stroke:#000000;stroke-width:0.8;" x="57.6" xlink:href="#m3be6fecf5f" y="307.584"/>
      </g>
     </g>
     <g id="text_9">
      <!-- 0.0 -->
      <defs>
       <path d="M 10.6875 12.40625 
L 21 12.40625 
L 21 0 
L 10.6875 0 
z
" id="DejaVuSans-2e"/>
      </defs>
      <g transform="translate(34.696875 311.383219)scale(0.1 -0.1)">
       <use xlink:href="#DejaVuSans-30"/>
       <use x="63.623047" xlink:href="#DejaVuSans-2e"/>
       <use x="95.410156" xlink:href="#DejaVuSans-30"/>
      </g>
     </g>
    </g>
    <g id="ytick_2">
     <g id="line2d_9">
      <g>
       <use style="stroke:#000000;stroke-width:0.8;" x="57.6" xlink:href="#m3be6fecf5f" y="254.3616"/>
      </g>
     </g>
     <g id="text_10">
      <!-- 0.2 -->
      <g transform="translate(34.696875 258.160819)scale(0.1 -0.1)">
       <use xlink:href="#DejaVuSans-30"/>
       <use x="63.623047" xlink:href="#DejaVuSans-2e"/>
       <use x="95.410156" xlink:href="#DejaVuSans-32"/>
      </g>
     </g>
    </g>
    <g id="ytick_3">
     <g id="line2d_10">
      <g>
       <use style="stroke:#000000;stroke-width:0.8;" x="57.6" xlink:href="#m3be6fecf5f" y="201.1392"/>
      </g>
     </g>
     <g id="text_11">
      <!-- 0.4 -->
      <g transform="translate(34.696875 204.938419)scale(0.1 -0.1)">
       <use xlink:href="#DejaVuSans-30"/>
       <use x="63.623047" xlink:href="#DejaVuSans-2e"/>
       <use x="95.410156" xlink:href="#DejaVuSans-34"/>
      </g>
     </g>
    </g>
    <g id="ytick_4">
     <g id="line2d_11">
      <g>
       <use style="stroke:#000000;stroke-width:0.8;" x="57.6" xlink:href="#m3be6fecf5f" y="147.9168"/>
      </g>
     </g>
     <g id="text_12">
      <!-- 0.6 -->
      <g transform="translate(34.696875 151.716019)scale(0.1 -0.1)">
       <use xlink:href="#DejaVuSans-30"/>
       <use x="63.623047" xlink:href="#DejaVuSans-2e"/>
       <use x="95.410156" xlink:href="#DejaVuSans-36"/>
      </g>
     </g>
    </g>
    <g id="ytick_5">
     <g id="line2d_12">
      <g>
       <use style="stroke:#000000;stroke-width:0.8;" x="57.6" xlink:href="#m3be6fecf5f" y="94.6944"/>
      </g>
     </g>
     <g id="text_13">
      <!-- 0.8 -->
      <defs>
       <path d="M 31.78125 34.625 
Q 24.75 34.625 20.71875 30.859375 
Q 16.703125 27.09375 16.703125 20.515625 
Q 16.703125 13.921875 20.71875 10.15625 
Q 24.75 6.390625 31.78125 6.390625 
Q 38.8125 6.390625 42.859375 10.171875 
Q 46.921875 13.96875 46.921875 20.515625 
Q 46.921875 27.09375 42.890625 30.859375 
Q 38.875 34.625 31.78125 34.625 
z
M 21.921875 38.8125 
Q 15.578125 40.375 12.03125 44.71875 
Q 8.5 49.078125 8.5 55.328125 
Q 8.5 64.0625 14.71875 69.140625 
Q 20.953125 74.21875 31.78125 74.21875 
Q 42.671875 74.21875 48.875 69.140625 
Q 55.078125 64.0625 55.078125 55.328125 
Q 55.078125 49.078125 51.53125 44.71875 
Q 48 40.375 41.703125 38.8125 
Q 48.828125 37.15625 52.796875 32.3125 
Q 56.78125 27.484375 56.78125 20.515625 
Q 56.78125 9.90625 50.3125 4.234375 
Q 43.84375 -1.421875 31.78125 -1.421875 
Q 19.734375 -1.421875 13.25 4.234375 
Q 6.78125 9.90625 6.78125 20.515625 
Q 6.78125 27.484375 10.78125 32.3125 
Q 14.796875 37.15625 21.921875 38.8125 
z
M 18.3125 54.390625 
Q 18.3125 48.734375 21.84375 45.5625 
Q 25.390625 42.390625 31.78125 42.390625 
Q 38.140625 42.390625 41.71875 45.5625 
Q 45.3125 48.734375 45.3125 54.390625 
Q 45.3125 60.0625 41.71875 63.234375 
Q 38.140625 66.40625 31.78125 66.40625 
Q 25.390625 66.40625 21.84375 63.234375 
Q 18.3125 60.0625 18.3125 54.390625 
z
" id="DejaVuSans-38"/>
      </defs>
      <g transform="translate(34.696875 98.493619)scale(0.1 -0.1)">
       <use xlink:href="#DejaVuSans-30"/>
       <use x="63.623047" xlink:href="#DejaVuSans-2e"/>
       <use x="95.410156" xlink:href="#DejaVuSans-38"/>
      </g>
     </g>
    </g>
    <g id="ytick_6">
     <g id="line2d_13">
      <g>
       <use style="stroke:#000000;stroke-width:0.8;" x="57.6" xlink:href="#m3be6fecf5f" y="41.472"/>
      </g>
     </g>
     <g id="text_14">
      <!-- 1.0 -->
      <g transform="translate(34.696875 45.271219)scale(0.1 -0.1)">
       <use xlink:href="#DejaVuSans-31"/>
       <use x="63.623047" xlink:href="#DejaVuSans-2e"/>
       <use x="95.410156" xlink:href="#DejaVuSans-30"/>
      </g>
     </g>
    </g>
    <g id="text_15">
     <!-- $p$ -->
     <defs>
      <path d="M 49.609375 33.6875 
Q 49.609375 40.875 46.484375 44.671875 
Q 43.359375 48.484375 37.5 48.484375 
Q 33.5 48.484375 29.859375 46.4375 
Q 26.21875 44.390625 23.390625 40.484375 
Q 20.609375 36.625 18.9375 31.15625 
Q 17.28125 25.6875 17.28125 20.3125 
Q 17.28125 13.484375 20.40625 9.796875 
Q 23.53125 6.109375 29.296875 6.109375 
Q 33.546875 6.109375 37.1875 8.109375 
Q 40.828125 10.109375 43.40625 13.921875 
Q 46.1875 17.921875 47.890625 23.34375 
Q 49.609375 28.765625 49.609375 33.6875 
z
M 21.78125 46.390625 
Q 25.390625 51.125 30.296875 53.5625 
Q 35.203125 56 41.21875 56 
Q 49.609375 56 54.25 50.5 
Q 58.890625 45.015625 58.890625 35.109375 
Q 58.890625 27 56 19.65625 
Q 53.125 12.3125 47.703125 6.5 
Q 44.09375 2.640625 39.546875 0.609375 
Q 35.015625 -1.421875 29.984375 -1.421875 
Q 24.171875 -1.421875 20.21875 1 
Q 16.265625 3.421875 14.3125 8.203125 
L 8.6875 -20.796875 
L -0.296875 -20.796875 
L 14.40625 54.6875 
L 23.390625 54.6875 
z
" id="DejaVuSans-Oblique-70"/>
     </defs>
     <g transform="translate(28.596875 177.728)rotate(-90)scale(0.1 -0.1)">
      <use xlink:href="#DejaVuSans-Oblique-70"/>
     </g>
    </g>
   </g>
   <g id="line2d_14">
    <path clip-path="url(#pc95e13bdc3)" d="M 73.832727 294.2784 
L 74.336068 294.94368 
L 74.839408 296.540352 
L 75.342748 296.407296 
L 75.846089 295.342848 
L 76.349429 295.342848 
L 76.85277 293.080896 
L 77.35611 290.153664 
L 77.85945 289.754496 
L 78.362791 290.020608 
L 79.369471 285.762816 
L 79.872812 286.028928 
L 80.376152 285.097536 
L 80.879493 286.428096 
L 81.382833 286.428096 
L 82.389514 288.157824 
L 82.892854 288.556992 
L 83.396195 288.157824 
L 83.899535 286.561152 
L 84.402875 284.033088 
L 84.906216 280.174464 
L 85.409556 280.174464 
L 85.912896 276.31584 
L 86.416237 276.049728 
L 87.422918 271.525824 
L 87.926258 271.65888 
L 88.429598 269.796096 
L 88.932939 269.929152 
L 89.436279 267.933312 
L 89.939619 267.6672 
L 90.44296 263.276352 
L 90.9463 260.482176 
L 91.449641 260.083008 
L 92.456321 263.808576 
L 92.959662 260.34912 
L 93.463002 258.752448 
L 93.966342 258.220224 
L 94.469683 254.095488 
L 94.973023 252.897984 
L 95.476364 245.313792 
L 95.979704 242.652672 
L 96.483044 238.39488 
L 96.986385 240.789888 
L 97.489725 236.532096 
L 97.993066 234.270144 
L 98.496406 233.73792 
L 98.999746 231.209856 
L 99.503087 227.883456 
L 100.006427 229.347072 
L 100.509767 224.290944 
L 101.013108 223.891776 
L 101.516448 221.363712 
L 102.019789 226.020672 
L 103.026469 217.238976 
L 103.52981 216.041472 
L 104.03315 209.654784 
L 104.53649 198.611136 
L 105.039831 197.014464 
L 105.543171 193.288896 
L 106.549852 174.794112 
L 107.053192 180.648576 
L 107.556533 174.794112 
L 108.059873 173.19744 
L 108.563214 165.613248 
L 109.066554 162.819072 
L 109.569894 158.162112 
L 110.073235 152.440704 
L 111.583256 140.199552 
L 112.086596 131.95008 
L 112.589937 125.563392 
L 113.596617 119.043648 
L 114.603298 112.65696 
L 115.106638 111.725568 
L 116.113319 104.407488 
L 116.61666 103.076928 
L 117.12 100.415808 
L 117.62334 99.218304 
L 118.126681 99.085248 
L 118.630021 97.089408 
L 119.133362 93.629952 
L 119.636702 91.234944 
L 120.140042 92.03328 
L 120.643383 87.775488 
L 121.146723 86.844096 
L 121.650063 80.457408 
L 122.153404 78.0624 
L 122.656744 78.328512 
L 123.160085 78.993792 
L 123.663425 77.131008 
L 124.166765 78.195456 
L 124.670106 76.997952 
L 125.173446 76.199616 
L 125.676786 73.804608 
L 126.180127 74.07072 
L 126.683467 71.675712 
L 127.186808 70.877376 
L 127.690148 67.684032 
L 128.193488 68.0832 
L 128.696829 64.889856 
L 129.200169 63.825408 
L 129.70351 63.42624 
L 130.20685 59.700672 
L 130.71019 58.104 
L 131.213531 58.503168 
L 131.716871 56.640384 
L 132.220211 57.571776 
L 132.723552 55.575936 
L 133.730233 53.180928 
L 134.736913 54.7776 
L 135.240254 54.7776 
L 135.743594 53.313984 
L 136.246934 52.648704 
L 136.750275 50.253696 
L 137.253615 49.322304 
L 137.756956 48.79008 
L 138.260296 49.588416 
L 138.763636 48.657024 
L 139.266977 46.262016 
L 139.770317 45.862848 
L 140.273658 45.995904 
L 140.776998 46.262016 
L 141.280338 47.45952 
L 141.783679 45.995904 
L 142.287019 46.262016 
L 142.790359 45.729792 
L 143.2937 46.79424 
L 143.79704 45.862848 
L 144.803721 45.330624 
L 145.810402 44.13312 
L 145.810402 44.13312 
" style="fill:none;stroke:#1f77b4;stroke-linecap:square;stroke-width:1.5;"/>
   </g>
   <g id="line2d_15">
    <path clip-path="url(#pc95e13bdc3)" d="M 73.832727 294.2784 
L 74.336068 293.746176 
L 74.839408 292.349088 
L 75.342748 292.814784 
L 75.846089 291.750336 
L 76.349429 291.484224 
L 76.85277 291.816864 
L 77.85945 290.61936 
L 78.362791 291.417696 
L 78.866131 289.62144 
L 79.872812 284.96448 
L 80.376152 284.432256 
L 80.879493 283.500864 
L 81.886173 280.706688 
L 82.389514 282.502944 
L 82.892854 281.837664 
L 83.396195 280.240992 
L 84.402875 278.64432 
L 84.906216 278.444736 
L 85.409556 277.380288 
L 85.912896 279.509184 
L 86.416237 278.178624 
L 86.919577 279.442656 
L 87.422918 277.047648 
L 87.926258 275.9832 
L 88.429598 274.120416 
L 88.932939 274.386528 
L 89.436279 271.525824 
L 89.939619 270.927072 
L 90.44296 270.66096 
L 90.9463 267.99984 
L 91.449641 267.00192 
L 91.952981 266.935392 
L 92.456321 265.538304 
L 92.959662 262.611072 
L 93.463002 262.6776 
L 93.966342 261.812736 
L 94.469683 261.546624 
L 94.973023 262.611072 
L 95.476364 262.34496 
L 95.979704 264.074688 
L 96.483044 263.01024 
L 96.986385 261.613152 
L 97.489725 261.746208 
L 98.496406 260.548704 
L 98.999746 256.35744 
L 99.503087 255.559104 
L 100.006427 255.226464 
L 100.509767 254.428128 
L 102.019789 258.153696 
L 102.523129 258.35328 
L 103.026469 258.752448 
L 103.52981 259.3512 
L 104.03315 259.617312 
L 104.53649 258.885504 
L 105.039831 259.151616 
L 105.543171 258.286752 
L 106.046512 260.881344 
L 106.549852 259.151616 
L 107.053192 256.091328 
L 107.556533 257.488416 
L 108.059873 255.093408 
L 108.563214 256.091328 
L 109.066554 256.69008 
L 109.569894 256.091328 
L 110.073235 253.69632 
L 110.576575 253.164096 
L 111.079915 250.70256 
L 111.583256 249.238944 
L 112.086596 248.241024 
L 112.589937 246.444768 
L 113.093277 242.320032 
L 113.596617 242.918784 
L 114.099958 240.989472 
L 114.603298 239.991552 
L 115.106638 238.527936 
L 116.113319 239.326272 
L 116.61666 236.798208 
L 117.12 231.875136 
L 117.62334 231.209856 
L 118.126681 226.41984 
L 118.630021 223.42608 
L 119.133362 221.496768 
L 119.636702 217.039392 
L 120.140042 214.4448 
L 120.643383 213.180768 
L 121.146723 214.77744 
L 121.650063 213.646464 
L 122.153404 210.187008 
L 122.656744 209.78784 
L 123.160085 214.245216 
L 123.663425 214.511328 
L 124.166765 212.515488 
L 124.670106 209.4552 
L 125.173446 209.588256 
L 125.676786 209.920896 
L 126.180127 209.255616 
L 126.683467 206.46144 
L 127.186808 204.399072 
L 127.690148 199.409472 
L 128.193488 199.941696 
L 128.696829 197.080992 
L 129.200169 195.48432 
L 129.70351 195.351264 
L 130.20685 193.222368 
L 130.71019 193.288896 
L 131.213531 194.4864 
L 131.716871 192.290976 
L 132.220211 191.958336 
L 132.723552 191.359584 
L 133.226892 191.49264 
L 133.730233 192.889728 
L 134.233573 191.359584 
L 134.736913 188.49888 
L 135.240254 190.82736 
L 135.743594 190.82736 
L 136.246934 190.361664 
L 136.750275 188.033184 
L 137.756956 178.586208 
L 138.260296 177.18912 
L 138.763636 176.656896 
L 139.266977 174.394944 
L 139.770317 173.263968 
L 140.776998 169.338816 
L 141.280338 165.480192 
L 141.783679 166.478112 
L 142.287019 164.681856 
L 142.790359 162.353376 
L 143.2937 163.417824 
L 143.79704 162.752544 
L 144.300381 164.016576 
L 144.803721 161.688096 
L 145.307061 162.286848 
L 145.810402 158.960448 
L 146.313742 161.754624 
L 146.817082 160.291008 
L 147.320423 159.426144 
L 147.823763 160.424064 
L 148.327104 156.698496 
L 148.830444 156.099744 
L 149.333784 151.376256 
L 149.837125 150.378336 
L 150.340465 149.646528 
L 150.843805 149.779584 
L 151.347146 145.654848 
L 151.850486 143.59248 
L 152.353827 144.457344 
L 152.857167 142.328448 
L 153.360507 141.729696 
L 154.367188 135.409536 
L 155.373869 136.008288 
L 155.877209 132.216192 
L 156.38055 129.754656 
L 156.88389 128.024928 
L 157.38723 128.424096 
L 157.890571 127.559232 
L 158.393911 128.823264 
L 158.897252 131.151744 
L 159.400592 130.220352 
L 160.910613 117.180864 
L 161.413953 118.31184 
L 161.917294 116.64864 
L 162.420634 115.584192 
L 162.923975 117.513504 
L 164.433996 109.33056 
L 165.440677 106.602912 
L 165.944017 104.6736 
L 166.447357 107.201664 
L 166.950698 107.66736 
L 167.454038 108.33264 
L 167.957378 104.074848 
L 168.460719 103.742208 
L 168.964059 102.877344 
L 169.97074 97.222464 
L 170.47408 97.422048 
L 170.977421 96.756768 
L 171.480761 97.488576 
L 171.984101 96.889824 
L 172.487442 97.621632 
L 172.990782 96.3576 
L 173.494123 96.823296 
L 173.997463 95.293152 
L 174.500803 96.158016 
L 175.004144 94.02912 
L 175.507484 94.228704 
L 176.010825 91.767168 
L 176.514165 91.368 
L 177.017505 88.70688 
L 177.520846 88.174656 
L 178.024186 85.114368 
L 178.527526 85.180896 
L 179.030867 86.112288 
L 179.534207 85.04784 
L 180.037548 86.245344 
L 180.540888 84.7152 
L 181.044228 84.116448 
L 181.547569 85.71312 
L 182.050909 84.7152 
L 182.554249 82.586304 
L 183.05759 83.517696 
L 183.56093 80.39088 
L 184.064271 80.257824 
L 184.567611 79.39296 
L 185.070951 78.794208 
L 185.574292 77.06448 
L 186.077632 76.665312 
L 186.580973 75.600864 
L 187.084313 72.74016 
L 187.587653 72.939744 
L 188.090994 73.338912 
L 188.594334 72.274464 
L 189.097674 74.004192 
L 189.601015 74.536416 
L 190.104355 73.538496 
L 190.607696 75.40128 
L 191.111036 74.869056 
L 191.614376 73.471968 
L 192.117717 73.871136 
L 192.621057 70.810848 
L 193.627738 69.546816 
L 194.131078 70.677792 
L 194.634419 70.611264 
L 195.137759 68.282784 
L 196.14444 70.478208 
L 196.64778 69.08112 
L 197.151121 68.216256 
L 197.654461 67.018752 
L 198.157801 67.08528 
L 198.661142 66.619584 
L 199.164482 68.149728 
L 199.667822 68.282784 
L 200.674503 66.686112 
L 201.177844 65.022912 
L 201.681184 63.75888 
L 202.184524 63.359712 
L 202.687865 61.629984 
L 203.191205 61.230816 
L 203.694545 60.632064 
L 204.197886 60.76512 
L 204.701226 60.232896 
L 205.204567 60.033312 
L 206.211247 56.041632 
L 206.714588 56.10816 
L 207.217928 55.842048 
L 207.721268 54.711072 
L 208.224609 55.043712 
L 208.727949 53.646624 
L 209.23129 54.844128 
L 209.73463 53.646624 
L 210.23797 52.914816 
L 210.741311 52.44912 
L 211.244651 53.77968 
L 211.747992 52.582176 
L 212.251332 51.983424 
L 212.754672 50.652864 
L 213.258013 50.386752 
L 213.761353 50.918976 
L 214.264693 50.054112 
L 215.271374 49.987584 
L 215.774715 47.991744 
L 216.278055 47.526048 
L 216.781395 47.392992 
L 217.284736 47.526048 
L 217.788076 47.858688 
L 218.291416 47.193408 
L 218.794757 46.993824 
L 219.298097 47.659104 
L 219.801438 48.058272 
L 220.304778 47.193408 
L 220.808118 46.661184 
L 221.311459 46.594656 
L 221.814799 45.995904 
L 223.32482 45.13104 
L 224.331501 45.46368 
L 224.834841 44.665344 
L 225.338182 44.13312 
L 225.338182 44.13312 
" style="fill:none;stroke:#ff7f0e;stroke-linecap:square;stroke-width:1.5;"/>
   </g>
   <g id="line2d_16">
    <path clip-path="url(#pc95e13bdc3)" d="M 73.832727 294.2784 
L 74.336068 293.790528 
L 75.846089 290.774592 
L 76.349429 288.911808 
L 76.85277 289.089216 
L 77.35611 288.7344 
L 78.866131 289.133568 
L 79.369471 289.754496 
L 80.376152 288.51264 
L 80.879493 289.222272 
L 81.886173 288.778752 
L 82.389514 288.29088 
L 82.892854 289.17792 
L 83.396195 287.137728 
L 83.899535 287.536896 
L 84.402875 287.270784 
L 84.906216 289.17792 
L 85.409556 290.597184 
L 85.912896 289.798848 
L 86.416237 291.262464 
L 86.919577 291.129408 
L 87.926258 289.887552 
L 88.429598 289.931904 
L 88.932939 289.798848 
L 89.436279 289.798848 
L 89.939619 290.020608 
L 90.44296 289.266624 
L 90.9463 290.28672 
L 91.449641 289.798848 
L 92.456321 289.665792 
L 92.959662 289.355328 
L 93.463002 289.355328 
L 93.966342 288.823104 
L 94.469683 288.645696 
L 94.973023 286.915968 
L 95.476364 287.004672 
L 95.979704 286.028928 
L 96.483044 285.363648 
L 96.986385 284.387904 
L 97.489725 284.476608 
L 97.993066 284.033088 
L 98.496406 283.146048 
L 99.503087 282.74688 
L 100.006427 281.815488 
L 100.509767 280.30752 
L 101.013108 280.174464 
L 101.516448 279.819648 
L 102.019789 278.134272 
L 103.026469 275.473152 
L 103.52981 276.626304 
L 104.03315 276.404544 
L 104.53649 277.20288 
L 105.039831 275.827968 
L 105.543171 275.251392 
L 106.046512 274.053888 
L 107.053192 272.457216 
L 107.556533 271.126656 
L 108.059873 270.195264 
L 108.563214 266.824512 
L 109.066554 265.00608 
L 109.569894 264.11904 
L 110.073235 262.300608 
L 110.576575 261.990144 
L 111.079915 260.083008 
L 112.086596 262.965888 
L 112.589937 262.56672 
L 113.596617 263.232 
L 114.099958 261.324864 
L 114.603298 260.615232 
L 115.106638 257.776704 
L 115.609979 255.780864 
L 116.113319 254.938176 
L 116.61666 249.882048 
L 117.12 248.37408 
L 117.62334 248.15232 
L 118.126681 247.26528 
L 118.630021 247.309632 
L 119.133362 247.974912 
L 119.636702 246.999168 
L 120.140042 246.555648 
L 120.643383 244.914624 
L 121.146723 243.805824 
L 121.650063 241.189056 
L 122.153404 239.858496 
L 122.656744 239.370624 
L 123.160085 239.28192 
L 123.663425 240.922944 
L 124.166765 237.06432 
L 124.670106 234.447552 
L 125.173446 231.121152 
L 125.676786 230.810688 
L 126.180127 227.173824 
L 126.683467 226.19808 
L 127.690148 221.718528 
L 128.193488 220.166208 
L 128.696829 218.037312 
L 129.200169 216.484992 
L 129.70351 214.134336 
L 130.20685 213.513408 
L 130.71019 213.069888 
L 131.213531 212.936832 
L 131.716871 214.799616 
L 132.220211 214.799616 
L 132.723552 214.489152 
L 133.226892 211.34016 
L 133.730233 211.251456 
L 134.233573 209.255616 
L 134.736913 208.45728 
L 135.240254 210.23136 
L 135.743594 209.610432 
L 136.246934 209.654784 
L 136.750275 209.521728 
L 137.253615 208.058112 
L 137.756956 205.618752 
L 138.260296 202.159296 
L 138.763636 204.4656 
L 139.266977 205.042176 
L 139.770317 205.973568 
L 140.273658 204.68736 
L 141.280338 203.57856 
L 141.783679 202.647168 
L 142.287019 201.36096 
L 142.790359 201.227904 
L 143.2937 197.59104 
L 143.79704 197.768448 
L 144.300381 195.240384 
L 144.803721 191.82528 
L 145.307061 191.248704 
L 145.810402 192.002688 
L 146.313742 191.60352 
L 146.817082 189.430272 
L 147.823763 187.16832 
L 148.327104 187.035264 
L 148.830444 185.970816 
L 149.333784 184.329792 
L 149.837125 184.551552 
L 150.340465 181.358208 
L 151.347146 176.568192 
L 151.850486 171.556416 
L 152.353827 168.230016 
L 152.857167 163.706112 
L 153.360507 162.153792 
L 154.367188 160.734528 
L 154.870529 159.803136 
L 155.373869 158.383872 
L 155.877209 155.988864 
L 156.38055 154.613952 
L 156.88389 154.436544 
L 157.38723 151.110144 
L 157.890571 152.79552 
L 158.393911 153.68256 
L 158.897252 152.57376 
L 159.400592 152.706816 
L 159.903932 152.440704 
L 160.407273 153.726912 
L 160.910613 155.944512 
L 161.413953 154.968768 
L 161.917294 152.928576 
L 162.420634 151.46496 
L 162.923975 151.553664 
L 163.427315 150.79968 
L 163.930655 150.932736 
L 164.433996 151.376256 
L 164.937336 150.79968 
L 165.440677 149.424768 
L 165.944017 147.650688 
L 166.447357 144.457344 
L 167.454038 142.550208 
L 167.957378 145.876608 
L 168.460719 143.614656 
L 168.964059 139.445568 
L 169.4674 139.090752 
L 169.97074 139.002048 
L 170.47408 138.691584 
L 170.977421 138.913344 
L 171.480761 139.800384 
L 171.984101 137.538432 
L 172.487442 138.691584 
L 173.494123 138.15936 
L 173.997463 137.627136 
L 174.500803 138.115008 
L 175.004144 138.115008 
L 175.507484 135.631296 
L 176.010825 135.631296 
L 176.514165 132.881472 
L 177.017505 133.546752 
L 177.520846 133.635456 
L 178.024186 132.3936 
L 178.527526 134.256384 
L 179.030867 133.103232 
L 179.534207 130.974336 
L 180.037548 132.83712 
L 180.540888 132.792768 
L 181.044228 132.482304 
L 181.547569 131.417856 
L 182.554249 126.8496 
L 183.05759 126.62784 
L 183.56093 128.18016 
L 184.567611 124.011072 
L 185.070951 123.833664 
L 185.574292 121.793472 
L 186.077632 120.507264 
L 186.580973 120.551616 
L 187.084313 120.108096 
L 187.587653 120.329856 
L 188.090994 120.108096 
L 188.594334 118.999296 
L 189.097674 119.487168 
L 189.601015 117.09216 
L 190.104355 117.890496 
L 190.607696 116.781696 
L 191.111036 117.446976 
L 191.614376 115.850304 
L 192.117717 116.338176 
L 192.621057 114.120576 
L 193.124397 114.564096 
L 193.627738 114.519744 
L 194.131078 111.015936 
L 194.634419 112.834368 
L 195.137759 112.169088 
L 195.641099 112.346496 
L 196.14444 109.241856 
L 196.64778 108.133056 
L 197.151121 105.649344 
L 197.654461 104.806656 
L 199.164482 101.3472 
L 199.667822 99.927936 
L 200.674503 100.992384 
L 201.681184 101.746368 
L 202.687865 99.706176 
L 203.191205 100.149696 
L 203.694545 99.040896 
L 204.197886 95.315328 
L 205.204567 89.81568 
L 206.211247 90.658368 
L 206.714588 90.569664 
L 207.217928 92.299392 
L 207.721268 92.521152 
L 208.224609 93.896064 
L 208.727949 93.275136 
L 209.23129 92.299392 
L 209.73463 91.81152 
L 210.23797 90.126144 
L 210.741311 90.525312 
L 211.244651 91.545408 
L 211.747992 89.771328 
L 212.251332 89.505216 
L 212.754672 87.243264 
L 213.258013 86.04576 
L 213.761353 87.065856 
L 214.264693 87.243264 
L 214.768034 85.646592 
L 215.271374 86.134464 
L 216.278055 84.138624 
L 216.781395 81.122688 
L 217.284736 82.05408 
L 217.788076 80.900928 
L 218.794757 79.925184 
L 219.298097 80.28 
L 219.801438 81.699264 
L 220.304778 84.005568 
L 220.808118 80.457408 
L 221.814799 83.074176 
L 222.31814 81.3888 
L 223.828161 78.993792 
L 224.834841 75.933504 
L 225.338182 75.445632 
L 225.841522 76.465728 
L 226.344863 76.421376 
L 227.351543 72.163584 
L 227.854884 71.63136 
L 228.358224 71.320896 
L 229.364905 70.389504 
L 229.868245 71.453952 
L 230.371586 72.07488 
L 231.378266 70.74432 
L 231.881607 70.3008 
L 232.888288 68.837184 
L 233.391628 69.369408 
L 233.894968 67.063104 
L 234.398309 66.353472 
L 234.901649 65.155968 
L 235.404989 65.776896 
L 235.90833 65.20032 
L 236.915011 66.220416 
L 237.418351 65.8656 
L 237.921691 64.401984 
L 238.425032 63.559296 
L 238.928372 62.494848 
L 239.431712 63.559296 
L 240.438393 62.184384 
L 240.941734 61.962624 
L 241.948414 60.144192 
L 242.451755 59.700672 
L 242.955095 58.636224 
L 243.458436 57.837888 
L 243.961776 57.394368 
L 244.465116 56.684736 
L 244.968457 55.44288 
L 245.471797 55.66464 
L 245.975137 55.132416 
L 246.478478 56.196864 
L 247.485159 55.398528 
L 247.988499 55.930752 
L 249.49852 56.77344 
L 251.008541 54.733248 
L 251.511882 55.66464 
L 252.015222 54.688896 
L 252.518562 54.644544 
L 253.021903 54.245376 
L 253.525243 53.580096 
L 254.028584 53.44704 
L 254.531924 51.761664 
L 255.035264 51.806016 
L 255.538605 52.515648 
L 256.041945 52.471296 
L 256.545285 52.959168 
L 257.048626 53.047872 
L 257.551966 52.426944 
L 258.055307 52.205184 
L 258.558647 52.11648 
L 259.061987 51.406848 
L 260.068668 51.185088 
L 260.572008 52.33824 
L 261.578689 53.491392 
L 262.08203 53.757504 
L 262.58537 53.757504 
L 263.08871 53.136576 
L 263.592051 53.047872 
L 264.095391 52.33824 
L 264.598732 52.515648 
L 265.102072 53.092224 
L 265.605412 51.983424 
L 266.108753 51.539904 
L 266.612093 52.205184 
L 267.115433 51.806016 
L 267.618774 53.047872 
L 268.122114 53.092224 
L 269.128795 51.273792 
L 269.632135 51.628608 
L 270.135476 51.806016 
L 270.638816 52.293888 
L 271.142156 52.072128 
L 271.645497 51.185088 
L 272.652178 50.78592 
L 274.162199 48.479616 
L 274.665539 48.435264 
L 275.168879 48.701376 
L 275.67222 48.169152 
L 276.17556 48.1248 
L 276.678901 47.814336 
L 277.182241 47.149056 
L 277.685581 47.370816 
L 278.188922 46.838592 
L 278.692262 45.729792 
L 279.195603 45.641088 
L 279.698943 45.108864 
L 280.705624 44.842752 
L 281.208964 44.310528 
L 281.712304 44.487936 
L 282.215645 44.310528 
L 282.718985 43.867008 
L 282.718985 43.867008 
" style="fill:none;stroke:#2ca02c;stroke-linecap:square;stroke-width:1.5;"/>
   </g>
   <g id="line2d_17">
    <path clip-path="url(#pc95e13bdc3)" d="M 73.832727 294.2784 
L 74.336068 293.080896 
L 75.342748 292.548672 
L 75.846089 292.6152 
L 76.349429 293.047632 
L 77.35611 290.519568 
L 77.85945 290.419776 
L 78.362791 288.78984 
L 79.369471 287.093376 
L 79.872812 287.193168 
L 80.376152 287.991504 
L 80.879493 287.492544 
L 81.382833 287.326224 
L 81.886173 286.328304 
L 82.389514 286.561152 
L 82.892854 285.829344 
L 83.396195 286.561152 
L 83.899535 285.1308 
L 84.402875 284.897952 
L 84.906216 284.432256 
L 85.409556 283.434336 
L 85.912896 281.704608 
L 86.416237 282.103776 
L 86.919577 280.706688 
L 87.422918 280.340784 
L 87.926258 280.340784 
L 88.429598 280.706688 
L 88.932939 280.47384 
L 89.436279 280.906272 
L 89.939619 280.440576 
L 90.44296 281.30544 
L 90.9463 280.706688 
L 91.449641 280.374048 
L 91.952981 281.571552 
L 92.456321 281.63808 
L 92.959662 283.234752 
L 93.966342 281.505024 
L 94.973023 281.904192 
L 95.476364 283.234752 
L 95.979704 283.534128 
L 96.986385 283.434336 
L 97.489725 283.201488 
L 97.993066 282.369888 
L 98.496406 282.80232 
L 98.999746 282.336624 
L 99.503087 284.46552 
L 100.006427 283.168224 
L 100.509767 283.63392 
L 101.013108 282.702528 
L 101.516448 282.769056 
L 102.019789 281.505024 
L 102.523129 280.80648 
L 103.026469 281.172384 
L 103.52981 282.13704 
L 104.03315 281.30544 
L 104.53649 280.706688 
L 105.039831 280.30752 
L 105.543171 280.407312 
L 106.046512 280.706688 
L 106.549852 280.606896 
L 107.053192 279.010224 
L 107.556533 279.409392 
L 108.059873 280.374048 
L 108.563214 280.606896 
L 109.066554 282.103776 
L 109.569894 280.873008 
L 110.073235 280.540368 
L 110.576575 279.47592 
L 111.079915 280.540368 
L 111.583256 280.1412 
L 112.086596 280.207728 
L 112.589937 278.710848 
L 113.093277 278.31168 
L 113.596617 278.112096 
L 114.603298 278.112096 
L 115.106638 278.677584 
L 115.609979 276.448896 
L 116.61666 274.785696 
L 117.12 274.419792 
L 117.62334 273.621456 
L 118.126681 273.255552 
L 118.630021 273.920832 
L 119.133362 273.98736 
L 119.636702 272.789856 
L 120.140042 272.224368 
L 120.643383 270.028944 
L 121.146723 269.962416 
L 121.650063 268.99776 
L 122.153404 266.303376 
L 123.160085 264.606912 
L 123.663425 264.00816 
L 124.166765 263.974896 
L 124.670106 265.83768 
L 125.173446 264.773232 
L 125.676786 264.107952 
L 126.180127 262.910448 
L 126.683467 263.708784 
L 127.186808 262.444752 
L 127.690148 263.043504 
L 128.193488 260.049744 
L 129.70351 256.989456 
L 130.20685 256.157856 
L 130.71019 254.128752 
L 131.213531 253.895904 
L 131.716871 251.70048 
L 132.220211 251.53416 
L 132.723552 249.20568 
L 133.226892 248.107968 
L 133.730233 245.945808 
L 134.233573 245.87928 
L 134.736913 244.54872 
L 135.240254 245.613168 
L 135.743594 244.415664 
L 136.246934 245.513376 
L 136.750275 245.54664 
L 137.756956 245.979072 
L 138.260296 245.54664 
L 138.763636 244.648512 
L 139.266977 244.848096 
L 139.770317 244.448928 
L 140.273658 243.517536 
L 140.776998 244.016496 
L 141.280338 242.586144 
L 142.790359 234.769104 
L 143.2937 232.40736 
L 143.79704 232.274304 
L 144.300381 232.340832 
L 144.803721 231.808608 
L 145.307061 231.57576 
L 145.810402 233.23896 
L 146.313742 231.808608 
L 146.817082 234.203616 
L 147.320423 233.704656 
L 147.823763 229.646448 
L 148.327104 230.511312 
L 148.830444 230.611104 
L 149.333784 231.509232 
L 149.837125 228.881376 
L 150.340465 228.282624 
L 150.843805 226.619424 
L 151.347146 226.75248 
L 151.850486 223.75872 
L 152.857167 225.854352 
L 153.360507 222.295104 
L 153.863848 223.226496 
L 154.367188 220.232736 
L 154.870529 220.066416 
L 155.373869 217.43856 
L 155.877209 219.068496 
L 156.38055 216.340848 
L 156.88389 216.041472 
L 157.38723 215.209872 
L 157.890571 213.912576 
L 158.393911 213.712992 
L 158.897252 212.515488 
L 159.400592 210.819024 
L 159.903932 210.419856 
L 160.407273 210.187008 
L 160.910613 209.688048 
L 161.413953 207.758736 
L 161.917294 205.064352 
L 162.420634 204.432336 
L 162.923975 202.602816 
L 163.427315 200.108016 
L 163.930655 201.006144 
L 164.433996 200.673504 
L 164.937336 202.236912 
L 165.440677 201.072672 
L 165.944017 201.105936 
L 166.447357 199.941696 
L 166.950698 197.080992 
L 167.454038 199.110096 
L 168.964059 192.224448 
L 169.4674 191.49264 
L 170.47408 193.887648 
L 170.977421 191.858544 
L 171.480761 190.82736 
L 172.487442 190.029024 
L 172.990782 187.8336 
L 173.494123 183.01032 
L 173.997463 183.908448 
L 174.500803 182.67768 
L 175.507484 178.85232 
L 176.010825 179.451072 
L 176.514165 180.981216 
L 177.017505 182.145456 
L 177.520846 183.775392 
L 178.024186 184.34088 
L 178.527526 181.380384 
L 179.030867 180.049824 
L 179.534207 177.887664 
L 180.540888 176.490576 
L 181.044228 171.600768 
L 181.547569 169.904304 
L 182.050909 171.36792 
L 182.554249 168.7068 
L 183.05759 168.108048 
L 183.56093 168.241104 
L 184.064271 167.742144 
L 184.567611 168.008256 
L 185.070951 165.247344 
L 186.077632 160.756704 
L 186.580973 160.291008 
L 187.084313 159.193296 
L 188.090994 163.617408 
L 188.594334 162.852336 
L 189.097674 161.255664 
L 190.104355 156.997872 
L 190.607696 159.22656 
L 191.614376 154.037376 
L 192.117717 155.4012 
L 192.621057 154.669392 
L 193.124397 154.536336 
L 193.627738 152.141328 
L 194.131078 151.376256 
L 194.634419 149.014512 
L 195.137759 148.216176 
L 195.641099 145.222416 
L 196.14444 145.189152 
L 197.151121 143.92512 
L 198.157801 142.029072 
L 198.661142 141.829488 
L 199.164482 139.334688 
L 199.667822 138.93552 
L 200.171163 138.236976 
L 200.674503 133.380432 
L 201.177844 131.351328 
L 201.681184 130.12056 
L 202.184524 127.525968 
L 202.687865 127.858608 
L 203.191205 125.4636 
L 203.694545 126.694368 
L 204.197886 125.829504 
L 204.701226 125.896032 
L 205.204567 124.532208 
L 205.707907 120.174624 
L 206.211247 119.742192 
L 206.714588 118.677744 
L 207.217928 115.81704 
L 207.721268 115.584192 
L 208.224609 114.453216 
L 209.23129 115.750512 
L 209.73463 117.9792 
L 210.23797 113.222448 
L 210.741311 113.288976 
L 211.244651 112.590432 
L 211.747992 112.291056 
L 212.251332 112.756752 
L 212.754672 111.459456 
L 213.258013 112.956336 
L 213.761353 110.727648 
L 214.264693 109.99584 
L 214.768034 107.800416 
L 215.271374 109.031184 
L 215.774715 107.301456 
L 216.278055 106.968816 
L 216.781395 108.33264 
L 217.284736 108.8316 
L 217.788076 108.299376 
L 218.291416 109.097712 
L 218.794757 107.00208 
L 219.801438 108.632016 
L 220.304778 110.428272 
L 220.808118 110.727648 
L 221.311459 107.434512 
L 221.814799 107.534304 
L 222.31814 106.17048 
L 222.82148 105.83784 
L 223.828161 103.376304 
L 224.331501 101.280672 
L 224.834841 101.979216 
L 225.338182 99.451152 
L 225.841522 99.218304 
L 226.344863 96.158016 
L 226.848203 96.390864 
L 227.854884 95.625792 
L 228.358224 93.729744 
L 228.861564 92.498976 
L 230.371586 87.54264 
L 230.874926 86.810832 
L 231.378266 86.943888 
L 231.881607 84.249504 
L 232.384947 82.586304 
L 232.888288 81.954288 
L 233.894968 83.185056 
L 234.398309 82.88568 
L 234.901649 81.654912 
L 235.404989 81.05616 
L 235.90833 81.787968 
L 236.915011 77.962608 
L 237.418351 77.164272 
L 237.921691 77.363856 
L 238.425032 76.997952 
L 238.928372 74.968848 
L 239.431712 75.866976 
L 239.935053 76.099824 
L 240.438393 77.164272 
L 240.941734 79.093584 
L 241.445074 79.39296 
L 241.948414 78.361776 
L 242.451755 78.328512 
L 242.955095 79.858656 
L 243.458436 78.927264 
L 243.961776 79.991712 
L 244.465116 78.860736 
L 245.471797 77.663232 
L 246.478478 78.860736 
L 246.981818 78.162192 
L 247.485159 78.894 
L 247.988499 78.56136 
L 248.491839 77.763024 
L 248.99518 75.5676 
L 249.49852 75.634128 
L 250.00186 74.769264 
L 251.008541 74.769264 
L 251.511882 75.168432 
L 252.518562 74.203776 
L 253.021903 74.602944 
L 253.525243 73.23912 
L 254.028584 72.640368 
L 254.531924 73.73808 
L 255.538605 73.106064 
L 256.041945 72.540576 
L 256.545285 70.844112 
L 257.551966 73.172592 
L 259.061987 71.642448 
L 259.565328 72.607104 
L 260.068668 72.839952 
L 261.075349 72.673632 
L 262.08203 71.975088 
L 262.58537 71.276544 
L 264.095391 68.116464 
L 265.102072 69.7464 
L 265.605412 69.24744 
L 266.108753 68.316048 
L 266.612093 69.646608 
L 267.115433 68.9148 
L 267.618774 69.58008 
L 268.122114 69.513552 
L 268.625455 70.378416 
L 269.128795 69.646608 
L 269.632135 69.679872 
L 270.135476 69.180912 
L 271.142156 66.686112 
L 272.148837 66.852432 
L 272.652178 68.149728 
L 273.155518 66.785904 
L 274.162199 65.5884 
L 274.665539 65.987568 
L 275.168879 65.289024 
L 275.67222 65.122704 
L 276.17556 65.289024 
L 276.678901 65.322288 
L 277.182241 63.359712 
L 277.685581 63.193392 
L 278.188922 62.09568 
L 278.692262 61.995888 
L 279.195603 63.027072 
L 280.202283 62.228736 
L 280.705624 62.228736 
L 281.208964 61.563456 
L 281.712304 61.962624 
L 282.215645 61.829568 
L 282.718985 63.25992 
L 283.725666 63.526032 
L 284.229006 64.357632 
L 284.732347 64.024992 
L 285.235687 65.654928 
L 286.242368 62.494848 
L 286.745708 64.523952 
L 287.249049 63.42624 
L 287.752389 62.76096 
L 288.75907 65.621664 
L 289.26241 65.189232 
L 289.765751 64.59048 
L 290.269091 63.226656 
L 290.772431 63.392976 
L 291.275772 64.191312 
L 291.779112 63.958464 
L 292.282452 64.690272 
L 292.785793 63.25992 
L 293.289133 62.59464 
L 293.792474 62.162208 
L 294.295814 62.029152 
L 294.799154 61.330608 
L 295.302495 61.131024 
L 295.805835 61.131024 
L 297.315856 57.837888 
L 297.819197 57.139344 
L 298.322537 56.740176 
L 298.825877 56.008368 
L 299.329218 57.172608 
L 300.335899 56.074896 
L 300.839239 54.910656 
L 301.342579 54.478224 
L 301.84592 53.580096 
L 302.34926 53.180928 
L 302.8526 52.515648 
L 303.355941 52.216272 
L 303.859281 52.515648 
L 304.362622 53.147664 
L 305.872643 52.216272 
L 306.375983 51.684048 
L 306.879323 51.95016 
L 307.382664 52.981344 
L 308.389345 51.916896 
L 308.892685 51.218352 
L 309.396025 51.417936 
L 309.899366 51.018768 
L 310.402706 51.11856 
L 311.409387 52.049952 
L 311.912727 51.850368 
L 312.416068 52.415856 
L 313.422748 51.517728 
L 314.429429 52.981344 
L 315.43611 53.513568 
L 316.442791 52.61544 
L 316.946131 52.548912 
L 317.449471 53.513568 
L 318.959493 52.149744 
L 319.462833 53.147664 
L 320.469514 52.78176 
L 320.972854 53.081136 
L 321.476195 53.580096 
L 321.979535 54.245376 
L 322.482875 55.642464 
L 323.489556 53.214192 
L 324.496237 52.715232 
L 324.999577 52.083216 
L 325.502918 52.316064 
L 326.006258 53.180928 
L 326.509598 54.345168 
L 327.012939 54.544752 
L 327.516279 54.012528 
L 328.52296 52.2828 
L 330.032981 52.083216 
L 330.536321 51.218352 
L 331.039662 52.981344 
L 331.543002 52.94808 
L 332.549683 54.27864 
L 333.053023 53.081136 
L 334.059704 52.016688 
L 334.563044 52.415856 
L 335.066385 52.11648 
L 335.569725 52.515648 
L 336.073066 52.44912 
L 336.576406 52.016688 
L 337.079746 51.916896 
L 337.583087 51.95016 
L 338.086427 52.582176 
L 338.589767 51.983424 
L 339.093108 52.848288 
L 340.099789 53.546832 
L 340.603129 53.513568 
L 341.106469 53.047872 
L 342.11315 51.717312 
L 342.61649 51.883632 
L 343.119831 51.517728 
L 343.623171 52.11648 
L 344.126512 51.750576 
L 344.629852 51.218352 
L 345.133192 50.519808 
L 345.636533 50.95224 
L 346.139873 50.686128 
L 346.643214 50.652864 
L 347.146554 50.12064 
L 347.649894 50.187168 
L 348.656575 49.056192 
L 349.159915 47.991744 
L 349.663256 48.557232 
L 350.166596 48.79008 
L 350.669937 48.1248 
L 351.173277 47.79216 
L 352.179958 46.760976 
L 352.683298 47.559312 
L 354.193319 47.160144 
L 354.69666 47.659104 
L 355.2 47.559312 
L 355.70334 48.058272 
L 356.206681 47.925216 
L 356.710021 47.259936 
L 357.213362 47.226672 
L 357.716702 47.426256 
L 358.220042 46.029168 
L 358.723383 46.228752 
L 359.226723 46.162224 
L 360.233404 46.661184 
L 360.736744 46.827504 
L 361.240085 46.661184 
L 361.743425 46.328544 
L 362.246765 46.661184 
L 362.750106 45.929376 
L 363.253446 45.496944 
L 364.260127 45.264096 
L 365.266808 45.896112 
L 365.770148 45.363888 
L 366.776829 45.164304 
L 367.280169 45.46368 
L 368.28685 45.097776 
L 369.293531 45.330624 
L 369.796871 45.563472 
L 370.803552 44.499024 
L 371.810233 44.565552 
L 372.313573 44.499024 
L 372.816913 44.29944 
L 373.320254 45.031248 
L 373.823594 45.164304 
L 374.326934 44.831664 
L 375.333615 44.765136 
L 375.836956 45.29736 
L 376.340296 45.164304 
L 376.843636 45.862848 
L 377.346977 45.330624 
L 377.850317 45.929376 
L 378.353658 45.696528 
L 378.856998 45.330624 
L 379.360338 45.596736 
L 379.863679 45.729792 
L 380.367019 46.062432 
L 380.870359 44.931456 
L 381.3737 44.765136 
L 381.87704 45.197568 
L 382.380381 44.698608 
L 382.883721 45.097776 
L 383.387061 45.13104 
L 383.890402 45.430416 
L 384.897082 44.399232 
L 385.400423 44.532288 
L 385.903763 44.266176 
L 386.407104 44.698608 
L 386.910444 44.532288 
L 387.413784 44.499024 
L 387.917125 44.96472 
L 388.420465 44.96472 
L 388.923805 45.230832 
L 389.427146 44.997984 
L 389.930486 44.598816 
L 390.433827 44.499024 
L 390.937167 44.665344 
L 391.440507 44.532288 
L 391.943848 44.532288 
L 392.447188 45.397152 
L 393.453869 45.696528 
L 393.957209 46.029168 
L 394.46055 45.496944 
L 394.96389 45.995904 
L 397.480592 44.96472 
L 397.983932 44.266176 
L 398.487273 44.000064 
L 398.487273 44.000064 
" style="fill:none;stroke:#d62728;stroke-linecap:square;stroke-width:1.5;"/>
   </g>
   <g id="patch_3">
    <path d="M 57.6 307.584 
L 57.6 41.472 
" style="fill:none;stroke:#000000;stroke-linecap:square;stroke-linejoin:miter;stroke-width:0.8;"/>
   </g>
   <g id="patch_4">
    <path d="M 414.72 307.584 
L 414.72 41.472 
" style="fill:none;stroke:#000000;stroke-linecap:square;stroke-linejoin:miter;stroke-width:0.8;"/>
   </g>
   <g id="patch_5">
    <path d="M 57.6 307.584 
L 414.72 307.584 
" style="fill:none;stroke:#000000;stroke-linecap:square;stroke-linejoin:miter;stroke-width:0.8;"/>
   </g>
   <g id="patch_6">
    <path d="M 57.6 41.472 
L 414.72 41.472 
" style="fill:none;stroke:#000000;stroke-linecap:square;stroke-linejoin:miter;stroke-width:0.8;"/>
   </g>
   <g id="legend_1">
    <g id="line2d_18">
     <path d="M 353.22 248.969937 
L 373.22 248.969937 
" style="fill:none;stroke:#1f77b4;stroke-linecap:square;stroke-width:1.5;"/>
    </g>
    <g id="line2d_19"/>
    <g id="text_16">
     <!-- $k=2$ -->
     <defs>
      <path d="M 18.3125 75.984375 
L 27.296875 75.984375 
L 18.703125 31.6875 
L 49.515625 54.6875 
L 61.1875 54.6875 
L 26.8125 28.515625 
L 51.90625 0 
L 41.015625 0 
L 17.671875 26.703125 
L 12.5 0 
L 3.515625 0 
z
" id="DejaVuSans-Oblique-6b"/>
      <path d="M 10.59375 45.40625 
L 73.1875 45.40625 
L 73.1875 37.203125 
L 10.59375 37.203125 
z
M 10.59375 25.484375 
L 73.1875 25.484375 
L 73.1875 17.1875 
L 10.59375 17.1875 
z
" id="DejaVuSans-3d"/>
     </defs>
     <g transform="translate(381.22 252.469937)scale(0.1 -0.1)">
      <use transform="translate(0 0.015625)" xlink:href="#DejaVuSans-Oblique-6b"/>
      <use transform="translate(77.392578 0.015625)" xlink:href="#DejaVuSans-3d"/>
      <use transform="translate(180.664062 0.015625)" xlink:href="#DejaVuSans-32"/>
     </g>
    </g>
    <g id="line2d_20">
     <path d="M 353.22 263.648062 
L 373.22 263.648062 
" style="fill:none;stroke:#ff7f0e;stroke-linecap:square;stroke-width:1.5;"/>
    </g>
    <g id="line2d_21"/>
    <g id="text_17">
     <!-- $k=4$ -->
     <g transform="translate(381.22 267.148062)scale(0.1 -0.1)">
      <use transform="translate(0 0.015625)" xlink:href="#DejaVuSans-Oblique-6b"/>
      <use transform="translate(77.392578 0.015625)" xlink:href="#DejaVuSans-3d"/>
      <use transform="translate(180.664062 0.015625)" xlink:href="#DejaVuSans-34"/>
     </g>
    </g>
    <g id="line2d_22">
     <path d="M 353.22 278.326187 
L 373.22 278.326187 
" style="fill:none;stroke:#2ca02c;stroke-linecap:square;stroke-width:1.5;"/>
    </g>
    <g id="line2d_23"/>
    <g id="text_18">
     <!-- $k=6$ -->
     <g transform="translate(381.22 281.826187)scale(0.1 -0.1)">
      <use transform="translate(0 0.015625)" xlink:href="#DejaVuSans-Oblique-6b"/>
      <use transform="translate(77.392578 0.015625)" xlink:href="#DejaVuSans-3d"/>
      <use transform="translate(180.664062 0.015625)" xlink:href="#DejaVuSans-36"/>
     </g>
    </g>
    <g id="line2d_24">
     <path d="M 353.22 293.004312 
L 373.22 293.004312 
" style="fill:none;stroke:#d62728;stroke-linecap:square;stroke-width:1.5;"/>
    </g>
    <g id="line2d_25"/>
    <g id="text_19">
     <!-- $k=8$ -->
     <g transform="translate(381.22 296.504312)scale(0.1 -0.1)">
      <use transform="translate(0 0.015625)" xlink:href="#DejaVuSans-Oblique-6b"/>
      <use transform="translate(77.392578 0.015625)" xlink:href="#DejaVuSans-3d"/>
      <use transform="translate(180.664062 0.015625)" xlink:href="#DejaVuSans-38"/>
     </g>
    </g>
   </g>
  </g>
 </g>
 <defs>
  <clipPath id="pc95e13bdc3">
   <rect height="266.112" width="357.12" x="57.6" y="41.472"/>
  </clipPath>
 </defs>
</svg>
