<?xml version="1.0" encoding="utf-8" standalone="no"?>
<!DOCTYPE svg PUBLIC "-//W3C//DTD SVG 1.1//EN"
  "http://www.w3.org/Graphics/SVG/1.1/DTD/svg11.dtd">
<!-- Created with matplotlib (http://matplotlib.org/) -->
<svg height="345.6pt" version="1.1" viewBox="0 0 460.8 345.6" width="460.8pt" xmlns="http://www.w3.org/2000/svg" xmlns:xlink="http://www.w3.org/1999/xlink">
 <defs>
  <style type="text/css">
*{stroke-linecap:butt;stroke-linejoin:round;}
  </style>
 </defs>
 <g id="figure_1">
  <g id="patch_1">
   <path d="M 0 345.6 
L 460.8 345.6 
L 460.8 0 
L 0 0 
z
" style="fill:#ffffff;"/>
  </g>
  <g id="axes_1">
   <g id="patch_2">
    <path d="M 57.6 307.584 
L 414.72 307.584 
L 414.72 41.472 
L 57.6 41.472 
z
" style="fill:#ffffff;"/>
   </g>
   <g id="matplotlib.axis_1">
    <g id="xtick_1">
     <g id="line2d_1">
      <defs>
       <path d="M 0 0 
L 0 3.5 
" id="m408655818c" style="stroke:#000000;stroke-width:0.8;"/>
      </defs>
      <g>
       <use style="stroke:#000000;stroke-width:0.8;" x="73.832727" xlink:href="#m408655818c" y="307.584"/>
      </g>
     </g>
     <g id="text_1">
      <!-- 0 -->
      <defs>
       <path d="M 31.78125 66.40625 
Q 24.171875 66.40625 20.328125 58.90625 
Q 16.5 51.421875 16.5 36.375 
Q 16.5 21.390625 20.328125 13.890625 
Q 24.171875 6.390625 31.78125 6.390625 
Q 39.453125 6.390625 43.28125 13.890625 
Q 47.125 21.390625 47.125 36.375 
Q 47.125 51.421875 43.28125 58.90625 
Q 39.453125 66.40625 31.78125 66.40625 
z
M 31.78125 74.21875 
Q 44.046875 74.21875 50.515625 64.515625 
Q 56.984375 54.828125 56.984375 36.375 
Q 56.984375 17.96875 50.515625 8.265625 
Q 44.046875 -1.421875 31.78125 -1.421875 
Q 19.53125 -1.421875 13.0625 8.265625 
Q 6.59375 17.96875 6.59375 36.375 
Q 6.59375 54.828125 13.0625 64.515625 
Q 19.53125 74.21875 31.78125 74.21875 
z
" id="DejaVuSans-30"/>
      </defs>
      <g transform="translate(70.651477 322.182437)scale(0.1 -0.1)">
       <use xlink:href="#DejaVuSans-30"/>
      </g>
     </g>
    </g>
    <g id="xtick_2">
     <g id="line2d_2">
      <g>
       <use style="stroke:#000000;stroke-width:0.8;" x="138.763636" xlink:href="#m408655818c" y="307.584"/>
      </g>
     </g>
     <g id="text_2">
      <!-- 20 -->
      <defs>
       <path d="M 19.1875 8.296875 
L 53.609375 8.296875 
L 53.609375 0 
L 7.328125 0 
L 7.328125 8.296875 
Q 12.9375 14.109375 22.625 23.890625 
Q 32.328125 33.6875 34.8125 36.53125 
Q 39.546875 41.84375 41.421875 45.53125 
Q 43.3125 49.21875 43.3125 52.78125 
Q 43.3125 58.59375 39.234375 62.25 
Q 35.15625 65.921875 28.609375 65.921875 
Q 23.96875 65.921875 18.8125 64.3125 
Q 13.671875 62.703125 7.8125 59.421875 
L 7.8125 69.390625 
Q 13.765625 71.78125 18.9375 73 
Q 24.125 74.21875 28.421875 74.21875 
Q 39.75 74.21875 46.484375 68.546875 
Q 53.21875 62.890625 53.21875 53.421875 
Q 53.21875 48.921875 51.53125 44.890625 
Q 49.859375 40.875 45.40625 35.40625 
Q 44.1875 33.984375 37.640625 27.21875 
Q 31.109375 20.453125 19.1875 8.296875 
z
" id="DejaVuSans-32"/>
      </defs>
      <g transform="translate(132.401136 322.182437)scale(0.1 -0.1)">
       <use xlink:href="#DejaVuSans-32"/>
       <use x="63.623047" xlink:href="#DejaVuSans-30"/>
      </g>
     </g>
    </g>
    <g id="xtick_3">
     <g id="line2d_3">
      <g>
       <use style="stroke:#000000;stroke-width:0.8;" x="203.694545" xlink:href="#m408655818c" y="307.584"/>
      </g>
     </g>
     <g id="text_3">
      <!-- 40 -->
      <defs>
       <path d="M 37.796875 64.3125 
L 12.890625 25.390625 
L 37.796875 25.390625 
z
M 35.203125 72.90625 
L 47.609375 72.90625 
L 47.609375 25.390625 
L 58.015625 25.390625 
L 58.015625 17.1875 
L 47.609375 17.1875 
L 47.609375 0 
L 37.796875 0 
L 37.796875 17.1875 
L 4.890625 17.1875 
L 4.890625 26.703125 
z
" id="DejaVuSans-34"/>
      </defs>
      <g transform="translate(197.332045 322.182437)scale(0.1 -0.1)">
       <use xlink:href="#DejaVuSans-34"/>
       <use x="63.623047" xlink:href="#DejaVuSans-30"/>
      </g>
     </g>
    </g>
    <g id="xtick_4">
     <g id="line2d_4">
      <g>
       <use style="stroke:#000000;stroke-width:0.8;" x="268.625455" xlink:href="#m408655818c" y="307.584"/>
      </g>
     </g>
     <g id="text_4">
      <!-- 60 -->
      <defs>
       <path d="M 33.015625 40.375 
Q 26.375 40.375 22.484375 35.828125 
Q 18.609375 31.296875 18.609375 23.390625 
Q 18.609375 15.53125 22.484375 10.953125 
Q 26.375 6.390625 33.015625 6.390625 
Q 39.65625 6.390625 43.53125 10.953125 
Q 47.40625 15.53125 47.40625 23.390625 
Q 47.40625 31.296875 43.53125 35.828125 
Q 39.65625 40.375 33.015625 40.375 
z
M 52.59375 71.296875 
L 52.59375 62.3125 
Q 48.875 64.0625 45.09375 64.984375 
Q 41.3125 65.921875 37.59375 65.921875 
Q 27.828125 65.921875 22.671875 59.328125 
Q 17.53125 52.734375 16.796875 39.40625 
Q 19.671875 43.65625 24.015625 45.921875 
Q 28.375 48.1875 33.59375 48.1875 
Q 44.578125 48.1875 50.953125 41.515625 
Q 57.328125 34.859375 57.328125 23.390625 
Q 57.328125 12.15625 50.6875 5.359375 
Q 44.046875 -1.421875 33.015625 -1.421875 
Q 20.359375 -1.421875 13.671875 8.265625 
Q 6.984375 17.96875 6.984375 36.375 
Q 6.984375 53.65625 15.1875 63.9375 
Q 23.390625 74.21875 37.203125 74.21875 
Q 40.921875 74.21875 44.703125 73.484375 
Q 48.484375 72.75 52.59375 71.296875 
z
" id="DejaVuSans-36"/>
      </defs>
      <g transform="translate(262.262955 322.182437)scale(0.1 -0.1)">
       <use xlink:href="#DejaVuSans-36"/>
       <use x="63.623047" xlink:href="#DejaVuSans-30"/>
      </g>
     </g>
    </g>
    <g id="xtick_5">
     <g id="line2d_5">
      <g>
       <use style="stroke:#000000;stroke-width:0.8;" x="333.556364" xlink:href="#m408655818c" y="307.584"/>
      </g>
     </g>
     <g id="text_5">
      <!-- 80 -->
      <defs>
       <path d="M 31.78125 34.625 
Q 24.75 34.625 20.71875 30.859375 
Q 16.703125 27.09375 16.703125 20.515625 
Q 16.703125 13.921875 20.71875 10.15625 
Q 24.75 6.390625 31.78125 6.390625 
Q 38.8125 6.390625 42.859375 10.171875 
Q 46.921875 13.96875 46.921875 20.515625 
Q 46.921875 27.09375 42.890625 30.859375 
Q 38.875 34.625 31.78125 34.625 
z
M 21.921875 38.8125 
Q 15.578125 40.375 12.03125 44.71875 
Q 8.5 49.078125 8.5 55.328125 
Q 8.5 64.0625 14.71875 69.140625 
Q 20.953125 74.21875 31.78125 74.21875 
Q 42.671875 74.21875 48.875 69.140625 
Q 55.078125 64.0625 55.078125 55.328125 
Q 55.078125 49.078125 51.53125 44.71875 
Q 48 40.375 41.703125 38.8125 
Q 48.828125 37.15625 52.796875 32.3125 
Q 56.78125 27.484375 56.78125 20.515625 
Q 56.78125 9.90625 50.3125 4.234375 
Q 43.84375 -1.421875 31.78125 -1.421875 
Q 19.734375 -1.421875 13.25 4.234375 
Q 6.78125 9.90625 6.78125 20.515625 
Q 6.78125 27.484375 10.78125 32.3125 
Q 14.796875 37.15625 21.921875 38.8125 
z
M 18.3125 54.390625 
Q 18.3125 48.734375 21.84375 45.5625 
Q 25.390625 42.390625 31.78125 42.390625 
Q 38.140625 42.390625 41.71875 45.5625 
Q 45.3125 48.734375 45.3125 54.390625 
Q 45.3125 60.0625 41.71875 63.234375 
Q 38.140625 66.40625 31.78125 66.40625 
Q 25.390625 66.40625 21.84375 63.234375 
Q 18.3125 60.0625 18.3125 54.390625 
z
" id="DejaVuSans-38"/>
      </defs>
      <g transform="translate(327.193864 322.182437)scale(0.1 -0.1)">
       <use xlink:href="#DejaVuSans-38"/>
       <use x="63.623047" xlink:href="#DejaVuSans-30"/>
      </g>
     </g>
    </g>
    <g id="xtick_6">
     <g id="line2d_6">
      <g>
       <use style="stroke:#000000;stroke-width:0.8;" x="398.487273" xlink:href="#m408655818c" y="307.584"/>
      </g>
     </g>
     <g id="text_6">
      <!-- 100 -->
      <defs>
       <path d="M 12.40625 8.296875 
L 28.515625 8.296875 
L 28.515625 63.921875 
L 10.984375 60.40625 
L 10.984375 69.390625 
L 28.421875 72.90625 
L 38.28125 72.90625 
L 38.28125 8.296875 
L 54.390625 8.296875 
L 54.390625 0 
L 12.40625 0 
z
" id="DejaVuSans-31"/>
      </defs>
      <g transform="translate(388.943523 322.182437)scale(0.1 -0.1)">
       <use xlink:href="#DejaVuSans-31"/>
       <use x="63.623047" xlink:href="#DejaVuSans-30"/>
       <use x="127.246094" xlink:href="#DejaVuSans-30"/>
      </g>
     </g>
    </g>
    <g id="text_7">
     <!-- Allele frequency $p$ -->
     <defs>
      <path d="M 34.1875 63.1875 
L 20.796875 26.90625 
L 47.609375 26.90625 
z
M 28.609375 72.90625 
L 39.796875 72.90625 
L 67.578125 0 
L 57.328125 0 
L 50.6875 18.703125 
L 17.828125 18.703125 
L 11.1875 0 
L 0.78125 0 
z
" id="DejaVuSans-41"/>
      <path d="M 9.421875 75.984375 
L 18.40625 75.984375 
L 18.40625 0 
L 9.421875 0 
z
" id="DejaVuSans-6c"/>
      <path d="M 56.203125 29.59375 
L 56.203125 25.203125 
L 14.890625 25.203125 
Q 15.484375 15.921875 20.484375 11.0625 
Q 25.484375 6.203125 34.421875 6.203125 
Q 39.59375 6.203125 44.453125 7.46875 
Q 49.3125 8.734375 54.109375 11.28125 
L 54.109375 2.78125 
Q 49.265625 0.734375 44.1875 -0.34375 
Q 39.109375 -1.421875 33.890625 -1.421875 
Q 20.796875 -1.421875 13.15625 6.1875 
Q 5.515625 13.8125 5.515625 26.8125 
Q 5.515625 40.234375 12.765625 48.109375 
Q 20.015625 56 32.328125 56 
Q 43.359375 56 49.78125 48.890625 
Q 56.203125 41.796875 56.203125 29.59375 
z
M 47.21875 32.234375 
Q 47.125 39.59375 43.09375 43.984375 
Q 39.0625 48.390625 32.421875 48.390625 
Q 24.90625 48.390625 20.390625 44.140625 
Q 15.875 39.890625 15.1875 32.171875 
z
" id="DejaVuSans-65"/>
      <path id="DejaVuSans-20"/>
      <path d="M 37.109375 75.984375 
L 37.109375 68.5 
L 28.515625 68.5 
Q 23.6875 68.5 21.796875 66.546875 
Q 19.921875 64.59375 19.921875 59.515625 
L 19.921875 54.6875 
L 34.71875 54.6875 
L 34.71875 47.703125 
L 19.921875 47.703125 
L 19.921875 0 
L 10.890625 0 
L 10.890625 47.703125 
L 2.296875 47.703125 
L 2.296875 54.6875 
L 10.890625 54.6875 
L 10.890625 58.5 
Q 10.890625 67.625 15.140625 71.796875 
Q 19.390625 75.984375 28.609375 75.984375 
z
" id="DejaVuSans-66"/>
      <path d="M 41.109375 46.296875 
Q 39.59375 47.171875 37.8125 47.578125 
Q 36.03125 48 33.890625 48 
Q 26.265625 48 22.1875 43.046875 
Q 18.109375 38.09375 18.109375 28.8125 
L 18.109375 0 
L 9.078125 0 
L 9.078125 54.6875 
L 18.109375 54.6875 
L 18.109375 46.1875 
Q 20.953125 51.171875 25.484375 53.578125 
Q 30.03125 56 36.53125 56 
Q 37.453125 56 38.578125 55.875 
Q 39.703125 55.765625 41.0625 55.515625 
z
" id="DejaVuSans-72"/>
      <path d="M 14.796875 27.296875 
Q 14.796875 17.390625 18.875 11.75 
Q 22.953125 6.109375 30.078125 6.109375 
Q 37.203125 6.109375 41.296875 11.75 
Q 45.40625 17.390625 45.40625 27.296875 
Q 45.40625 37.203125 41.296875 42.84375 
Q 37.203125 48.484375 30.078125 48.484375 
Q 22.953125 48.484375 18.875 42.84375 
Q 14.796875 37.203125 14.796875 27.296875 
z
M 45.40625 8.203125 
Q 42.578125 3.328125 38.25 0.953125 
Q 33.9375 -1.421875 27.875 -1.421875 
Q 17.96875 -1.421875 11.734375 6.484375 
Q 5.515625 14.40625 5.515625 27.296875 
Q 5.515625 40.1875 11.734375 48.09375 
Q 17.96875 56 27.875 56 
Q 33.9375 56 38.25 53.625 
Q 42.578125 51.265625 45.40625 46.390625 
L 45.40625 54.6875 
L 54.390625 54.6875 
L 54.390625 -20.796875 
L 45.40625 -20.796875 
z
" id="DejaVuSans-71"/>
      <path d="M 8.5 21.578125 
L 8.5 54.6875 
L 17.484375 54.6875 
L 17.484375 21.921875 
Q 17.484375 14.15625 20.5 10.265625 
Q 23.53125 6.390625 29.59375 6.390625 
Q 36.859375 6.390625 41.078125 11.03125 
Q 45.3125 15.671875 45.3125 23.6875 
L 45.3125 54.6875 
L 54.296875 54.6875 
L 54.296875 0 
L 45.3125 0 
L 45.3125 8.40625 
Q 42.046875 3.421875 37.71875 1 
Q 33.40625 -1.421875 27.6875 -1.421875 
Q 18.265625 -1.421875 13.375 4.4375 
Q 8.5 10.296875 8.5 21.578125 
z
M 31.109375 56 
z
" id="DejaVuSans-75"/>
      <path d="M 54.890625 33.015625 
L 54.890625 0 
L 45.90625 0 
L 45.90625 32.71875 
Q 45.90625 40.484375 42.875 44.328125 
Q 39.84375 48.1875 33.796875 48.1875 
Q 26.515625 48.1875 22.3125 43.546875 
Q 18.109375 38.921875 18.109375 30.90625 
L 18.109375 0 
L 9.078125 0 
L 9.078125 54.6875 
L 18.109375 54.6875 
L 18.109375 46.1875 
Q 21.34375 51.125 25.703125 53.5625 
Q 30.078125 56 35.796875 56 
Q 45.21875 56 50.046875 50.171875 
Q 54.890625 44.34375 54.890625 33.015625 
z
" id="DejaVuSans-6e"/>
      <path d="M 48.78125 52.59375 
L 48.78125 44.1875 
Q 44.96875 46.296875 41.140625 47.34375 
Q 37.3125 48.390625 33.40625 48.390625 
Q 24.65625 48.390625 19.8125 42.84375 
Q 14.984375 37.3125 14.984375 27.296875 
Q 14.984375 17.28125 19.8125 11.734375 
Q 24.65625 6.203125 33.40625 6.203125 
Q 37.3125 6.203125 41.140625 7.25 
Q 44.96875 8.296875 48.78125 10.40625 
L 48.78125 2.09375 
Q 45.015625 0.34375 40.984375 -0.53125 
Q 36.96875 -1.421875 32.421875 -1.421875 
Q 20.0625 -1.421875 12.78125 6.34375 
Q 5.515625 14.109375 5.515625 27.296875 
Q 5.515625 40.671875 12.859375 48.328125 
Q 20.21875 56 33.015625 56 
Q 37.15625 56 41.109375 55.140625 
Q 45.0625 54.296875 48.78125 52.59375 
z
" id="DejaVuSans-63"/>
      <path d="M 32.171875 -5.078125 
Q 28.375 -14.84375 24.75 -17.8125 
Q 21.140625 -20.796875 15.09375 -20.796875 
L 7.90625 -20.796875 
L 7.90625 -13.28125 
L 13.1875 -13.28125 
Q 16.890625 -13.28125 18.9375 -11.515625 
Q 21 -9.765625 23.484375 -3.21875 
L 25.09375 0.875 
L 2.984375 54.6875 
L 12.5 54.6875 
L 29.59375 11.921875 
L 46.6875 54.6875 
L 56.203125 54.6875 
z
" id="DejaVuSans-79"/>
      <path d="M 49.609375 33.6875 
Q 49.609375 40.875 46.484375 44.671875 
Q 43.359375 48.484375 37.5 48.484375 
Q 33.5 48.484375 29.859375 46.4375 
Q 26.21875 44.390625 23.390625 40.484375 
Q 20.609375 36.625 18.9375 31.15625 
Q 17.28125 25.6875 17.28125 20.3125 
Q 17.28125 13.484375 20.40625 9.796875 
Q 23.53125 6.109375 29.296875 6.109375 
Q 33.546875 6.109375 37.1875 8.109375 
Q 40.828125 10.109375 43.40625 13.921875 
Q 46.1875 17.921875 47.890625 23.34375 
Q 49.609375 28.765625 49.609375 33.6875 
z
M 21.78125 46.390625 
Q 25.390625 51.125 30.296875 53.5625 
Q 35.203125 56 41.21875 56 
Q 49.609375 56 54.25 50.5 
Q 58.890625 45.015625 58.890625 35.109375 
Q 58.890625 27 56 19.65625 
Q 53.125 12.3125 47.703125 6.5 
Q 44.09375 2.640625 39.546875 0.609375 
Q 35.015625 -1.421875 29.984375 -1.421875 
Q 24.171875 -1.421875 20.21875 1 
Q 16.265625 3.421875 14.3125 8.203125 
L 8.6875 -20.796875 
L -0.296875 -20.796875 
L 14.40625 54.6875 
L 23.390625 54.6875 
z
" id="DejaVuSans-Oblique-70"/>
     </defs>
     <g transform="translate(190.86 335.862125)scale(0.1 -0.1)">
      <use transform="translate(0 0.015625)" xlink:href="#DejaVuSans-41"/>
      <use transform="translate(68.408203 0.015625)" xlink:href="#DejaVuSans-6c"/>
      <use transform="translate(96.191406 0.015625)" xlink:href="#DejaVuSans-6c"/>
      <use transform="translate(123.974609 0.015625)" xlink:href="#DejaVuSans-65"/>
      <use transform="translate(185.498047 0.015625)" xlink:href="#DejaVuSans-6c"/>
      <use transform="translate(213.28125 0.015625)" xlink:href="#DejaVuSans-65"/>
      <use transform="translate(274.804688 0.015625)" xlink:href="#DejaVuSans-20"/>
      <use transform="translate(306.591797 0.015625)" xlink:href="#DejaVuSans-66"/>
      <use transform="translate(341.796875 0.015625)" xlink:href="#DejaVuSans-72"/>
      <use transform="translate(382.910156 0.015625)" xlink:href="#DejaVuSans-65"/>
      <use transform="translate(444.433594 0.015625)" xlink:href="#DejaVuSans-71"/>
      <use transform="translate(507.910156 0.015625)" xlink:href="#DejaVuSans-75"/>
      <use transform="translate(571.289062 0.015625)" xlink:href="#DejaVuSans-65"/>
      <use transform="translate(632.8125 0.015625)" xlink:href="#DejaVuSans-6e"/>
      <use transform="translate(696.191406 0.015625)" xlink:href="#DejaVuSans-63"/>
      <use transform="translate(751.171875 0.015625)" xlink:href="#DejaVuSans-79"/>
      <use transform="translate(810.351562 0.015625)" xlink:href="#DejaVuSans-20"/>
      <use transform="translate(842.138672 0.015625)" xlink:href="#DejaVuSans-Oblique-70"/>
     </g>
    </g>
   </g>
   <g id="matplotlib.axis_2">
    <g id="ytick_1">
     <g id="line2d_7">
      <defs>
       <path d="M 0 0 
L -3.5 0 
" id="m7fe52652e8" style="stroke:#000000;stroke-width:0.8;"/>
      </defs>
      <g>
       <use style="stroke:#000000;stroke-width:0.8;" x="57.6" xlink:href="#m7fe52652e8" y="295.488"/>
      </g>
     </g>
     <g id="text_8">
      <!-- 1.00 -->
      <defs>
       <path d="M 10.6875 12.40625 
L 21 12.40625 
L 21 0 
L 10.6875 0 
z
" id="DejaVuSans-2e"/>
      </defs>
      <g transform="translate(28.334375 299.287219)scale(0.1 -0.1)">
       <use xlink:href="#DejaVuSans-31"/>
       <use x="63.623047" xlink:href="#DejaVuSans-2e"/>
       <use x="95.410156" xlink:href="#DejaVuSans-30"/>
       <use x="159.033203" xlink:href="#DejaVuSans-30"/>
      </g>
     </g>
    </g>
    <g id="ytick_2">
     <g id="line2d_8">
      <g>
       <use style="stroke:#000000;stroke-width:0.8;" x="57.6" xlink:href="#m7fe52652e8" y="247.104"/>
      </g>
     </g>
     <g id="text_9">
      <!-- 1.02 -->
      <g transform="translate(28.334375 250.903219)scale(0.1 -0.1)">
       <use xlink:href="#DejaVuSans-31"/>
       <use x="63.623047" xlink:href="#DejaVuSans-2e"/>
       <use x="95.410156" xlink:href="#DejaVuSans-30"/>
       <use x="159.033203" xlink:href="#DejaVuSans-32"/>
      </g>
     </g>
    </g>
    <g id="ytick_3">
     <g id="line2d_9">
      <g>
       <use style="stroke:#000000;stroke-width:0.8;" x="57.6" xlink:href="#m7fe52652e8" y="198.72"/>
      </g>
     </g>
     <g id="text_10">
      <!-- 1.04 -->
      <g transform="translate(28.334375 202.519219)scale(0.1 -0.1)">
       <use xlink:href="#DejaVuSans-31"/>
       <use x="63.623047" xlink:href="#DejaVuSans-2e"/>
       <use x="95.410156" xlink:href="#DejaVuSans-30"/>
       <use x="159.033203" xlink:href="#DejaVuSans-34"/>
      </g>
     </g>
    </g>
    <g id="ytick_4">
     <g id="line2d_10">
      <g>
       <use style="stroke:#000000;stroke-width:0.8;" x="57.6" xlink:href="#m7fe52652e8" y="150.336"/>
      </g>
     </g>
     <g id="text_11">
      <!-- 1.06 -->
      <g transform="translate(28.334375 154.135219)scale(0.1 -0.1)">
       <use xlink:href="#DejaVuSans-31"/>
       <use x="63.623047" xlink:href="#DejaVuSans-2e"/>
       <use x="95.410156" xlink:href="#DejaVuSans-30"/>
       <use x="159.033203" xlink:href="#DejaVuSans-36"/>
      </g>
     </g>
    </g>
    <g id="ytick_5">
     <g id="line2d_11">
      <g>
       <use style="stroke:#000000;stroke-width:0.8;" x="57.6" xlink:href="#m7fe52652e8" y="101.952"/>
      </g>
     </g>
     <g id="text_12">
      <!-- 1.08 -->
      <g transform="translate(28.334375 105.751219)scale(0.1 -0.1)">
       <use xlink:href="#DejaVuSans-31"/>
       <use x="63.623047" xlink:href="#DejaVuSans-2e"/>
       <use x="95.410156" xlink:href="#DejaVuSans-30"/>
       <use x="159.033203" xlink:href="#DejaVuSans-38"/>
      </g>
     </g>
    </g>
    <g id="ytick_6">
     <g id="line2d_12">
      <g>
       <use style="stroke:#000000;stroke-width:0.8;" x="57.6" xlink:href="#m7fe52652e8" y="53.568"/>
      </g>
     </g>
     <g id="text_13">
      <!-- 1.10 -->
      <g transform="translate(28.334375 57.367219)scale(0.1 -0.1)">
       <use xlink:href="#DejaVuSans-31"/>
       <use x="63.623047" xlink:href="#DejaVuSans-2e"/>
       <use x="95.410156" xlink:href="#DejaVuSans-31"/>
       <use x="159.033203" xlink:href="#DejaVuSans-30"/>
      </g>
     </g>
    </g>
    <g id="text_14">
     <!-- Mean fitness $w$ -->
     <defs>
      <path d="M 9.8125 72.90625 
L 24.515625 72.90625 
L 43.109375 23.296875 
L 61.8125 72.90625 
L 76.515625 72.90625 
L 76.515625 0 
L 66.890625 0 
L 66.890625 64.015625 
L 48.09375 14.015625 
L 38.1875 14.015625 
L 19.390625 64.015625 
L 19.390625 0 
L 9.8125 0 
z
" id="DejaVuSans-4d"/>
      <path d="M 34.28125 27.484375 
Q 23.390625 27.484375 19.1875 25 
Q 14.984375 22.515625 14.984375 16.5 
Q 14.984375 11.71875 18.140625 8.90625 
Q 21.296875 6.109375 26.703125 6.109375 
Q 34.1875 6.109375 38.703125 11.40625 
Q 43.21875 16.703125 43.21875 25.484375 
L 43.21875 27.484375 
z
M 52.203125 31.203125 
L 52.203125 0 
L 43.21875 0 
L 43.21875 8.296875 
Q 40.140625 3.328125 35.546875 0.953125 
Q 30.953125 -1.421875 24.3125 -1.421875 
Q 15.921875 -1.421875 10.953125 3.296875 
Q 6 8.015625 6 15.921875 
Q 6 25.140625 12.171875 29.828125 
Q 18.359375 34.515625 30.609375 34.515625 
L 43.21875 34.515625 
L 43.21875 35.40625 
Q 43.21875 41.609375 39.140625 45 
Q 35.0625 48.390625 27.6875 48.390625 
Q 23 48.390625 18.546875 47.265625 
Q 14.109375 46.140625 10.015625 43.890625 
L 10.015625 52.203125 
Q 14.9375 54.109375 19.578125 55.046875 
Q 24.21875 56 28.609375 56 
Q 40.484375 56 46.34375 49.84375 
Q 52.203125 43.703125 52.203125 31.203125 
z
" id="DejaVuSans-61"/>
      <path d="M 9.421875 54.6875 
L 18.40625 54.6875 
L 18.40625 0 
L 9.421875 0 
z
M 9.421875 75.984375 
L 18.40625 75.984375 
L 18.40625 64.59375 
L 9.421875 64.59375 
z
" id="DejaVuSans-69"/>
      <path d="M 18.3125 70.21875 
L 18.3125 54.6875 
L 36.8125 54.6875 
L 36.8125 47.703125 
L 18.3125 47.703125 
L 18.3125 18.015625 
Q 18.3125 11.328125 20.140625 9.421875 
Q 21.96875 7.515625 27.59375 7.515625 
L 36.8125 7.515625 
L 36.8125 0 
L 27.59375 0 
Q 17.1875 0 13.234375 3.875 
Q 9.28125 7.765625 9.28125 18.015625 
L 9.28125 47.703125 
L 2.6875 47.703125 
L 2.6875 54.6875 
L 9.28125 54.6875 
L 9.28125 70.21875 
z
" id="DejaVuSans-74"/>
      <path d="M 44.28125 53.078125 
L 44.28125 44.578125 
Q 40.484375 46.53125 36.375 47.5 
Q 32.28125 48.484375 27.875 48.484375 
Q 21.1875 48.484375 17.84375 46.4375 
Q 14.5 44.390625 14.5 40.28125 
Q 14.5 37.15625 16.890625 35.375 
Q 19.28125 33.59375 26.515625 31.984375 
L 29.59375 31.296875 
Q 39.15625 29.25 43.1875 25.515625 
Q 47.21875 21.78125 47.21875 15.09375 
Q 47.21875 7.46875 41.1875 3.015625 
Q 35.15625 -1.421875 24.609375 -1.421875 
Q 20.21875 -1.421875 15.453125 -0.5625 
Q 10.6875 0.296875 5.421875 2 
L 5.421875 11.28125 
Q 10.40625 8.6875 15.234375 7.390625 
Q 20.0625 6.109375 24.8125 6.109375 
Q 31.15625 6.109375 34.5625 8.28125 
Q 37.984375 10.453125 37.984375 14.40625 
Q 37.984375 18.0625 35.515625 20.015625 
Q 33.0625 21.96875 24.703125 23.78125 
L 21.578125 24.515625 
Q 13.234375 26.265625 9.515625 29.90625 
Q 5.8125 33.546875 5.8125 39.890625 
Q 5.8125 47.609375 11.28125 51.796875 
Q 16.75 56 26.8125 56 
Q 31.78125 56 36.171875 55.265625 
Q 40.578125 54.546875 44.28125 53.078125 
z
" id="DejaVuSans-73"/>
      <path d="M 8.5 54.6875 
L 17.390625 54.6875 
L 19.671875 10.6875 
L 40.09375 54.6875 
L 50.484375 54.6875 
L 53.515625 10.6875 
L 72.90625 54.6875 
L 81.890625 54.6875 
L 56.890625 0 
L 46.390625 0 
L 43.703125 45.3125 
L 22.796875 0 
L 12.203125 0 
z
" id="DejaVuSans-Oblique-77"/>
     </defs>
     <g transform="translate(22.254687 212.028)rotate(-90)scale(0.1 -0.1)">
      <use transform="translate(0 0.015625)" xlink:href="#DejaVuSans-4d"/>
      <use transform="translate(86.279297 0.015625)" xlink:href="#DejaVuSans-65"/>
      <use transform="translate(147.802734 0.015625)" xlink:href="#DejaVuSans-61"/>
      <use transform="translate(209.082031 0.015625)" xlink:href="#DejaVuSans-6e"/>
      <use transform="translate(272.460938 0.015625)" xlink:href="#DejaVuSans-20"/>
      <use transform="translate(304.248047 0.015625)" xlink:href="#DejaVuSans-66"/>
      <use transform="translate(339.453125 0.015625)" xlink:href="#DejaVuSans-69"/>
      <use transform="translate(367.236328 0.015625)" xlink:href="#DejaVuSans-74"/>
      <use transform="translate(406.445312 0.015625)" xlink:href="#DejaVuSans-6e"/>
      <use transform="translate(469.824219 0.015625)" xlink:href="#DejaVuSans-65"/>
      <use transform="translate(531.347656 0.015625)" xlink:href="#DejaVuSans-73"/>
      <use transform="translate(583.447266 0.015625)" xlink:href="#DejaVuSans-73"/>
      <use transform="translate(635.546875 0.015625)" xlink:href="#DejaVuSans-20"/>
      <use transform="translate(667.333984 0.015625)" xlink:href="#DejaVuSans-Oblique-77"/>
     </g>
    </g>
   </g>
   <g id="line2d_13">
    <path clip-path="url(#pfd09ce6e0b)" d="M 73.832727 295.488 
L 77.079273 268.002228 
L 80.325818 243.40667 
L 83.572364 221.422344 
L 86.818909 201.794744 
L 90.065455 184.291912 
L 93.312 168.702643 
L 96.558545 154.834816 
L 99.805091 142.513853 
L 103.051636 131.58127 
L 106.298182 121.893353 
L 109.544727 113.319918 
L 112.791273 105.743166 
L 116.037818 99.056625 
L 119.284364 93.164171 
L 122.530909 87.979126 
L 125.777455 83.423421 
L 129.024 79.426831 
L 132.270545 75.92626 
L 135.517091 72.865098 
L 138.763636 70.192616 
L 142.010182 67.863418 
L 145.256727 65.836939 
L 148.503273 64.076978 
L 151.749818 62.551279 
L 154.996364 61.231143 
L 158.242909 60.091076 
L 161.489455 59.108463 
L 164.736 58.263283 
L 167.982545 57.53783 
L 171.229091 56.916484 
L 174.475636 56.38548 
L 177.722182 55.932715 
L 180.968727 55.547563 
L 184.215273 55.220719 
L 187.461818 54.944043 
L 190.708364 54.710435 
L 193.954909 54.513711 
L 197.201455 54.348498 
L 200.448 54.21014 
L 203.694545 54.094607 
L 206.941091 53.998423 
L 210.187636 53.918597 
L 213.434182 53.852558 
L 216.680727 53.798106 
L 219.927273 53.753363 
L 223.173818 53.716729 
L 226.420364 53.686845 
L 229.666909 53.662561 
L 232.913455 53.642906 
L 236.16 53.627063 
L 239.406545 53.614347 
L 242.653091 53.604188 
L 245.899636 53.596109 
L 249.146182 53.589715 
L 252.392727 53.584681 
L 255.639273 53.580738 
L 258.885818 53.577667 
L 262.132364 53.575289 
L 265.378909 53.573459 
L 268.625455 53.572059 
L 271.872 53.570995 
L 275.118545 53.570193 
L 278.365091 53.569593 
L 281.611636 53.569146 
L 284.858182 53.568818 
L 288.104727 53.568577 
L 291.351273 53.568403 
L 294.597818 53.568279 
L 297.844364 53.568191 
L 301.090909 53.568129 
L 304.337455 53.568086 
L 307.584 53.568056 
L 310.830545 53.568036 
L 314.077091 53.568023 
L 317.323636 53.568014 
L 320.570182 53.568009 
L 323.816727 53.568005 
L 327.063273 53.568003 
L 330.309818 53.568002 
L 333.556364 53.568001 
L 336.802909 53.568001 
L 340.049455 53.568 
L 343.296 53.568 
L 346.542545 53.568 
L 349.789091 53.568 
L 353.035636 53.568 
L 356.282182 53.568 
L 359.528727 53.568 
L 362.775273 53.568 
L 366.021818 53.568 
L 369.268364 53.568 
L 372.514909 53.568 
L 375.761455 53.568 
L 379.008 53.568 
L 382.254545 53.568 
L 385.501091 53.568 
L 388.747636 53.568 
L 391.994182 53.568 
L 395.240727 53.568 
L 398.487273 53.568 
" style="fill:none;stroke:#008000;stroke-dasharray:1.5,2.475;stroke-dashoffset:0;stroke-width:1.5;"/>
   </g>
   <g id="line2d_14">
    <path clip-path="url(#pfd09ce6e0b)" d="M 73.832727 295.488 
L 77.079273 293.0688 
L 80.325818 290.6496 
L 83.572364 288.2304 
L 86.818909 285.8112 
L 90.065455 283.392 
L 93.312 280.9728 
L 96.558545 278.5536 
L 99.805091 276.1344 
L 103.051636 273.7152 
L 106.298182 271.296 
L 109.544727 268.8768 
L 112.791273 266.4576 
L 116.037818 264.0384 
L 119.284364 261.6192 
L 122.530909 259.2 
L 125.777455 256.7808 
L 129.024 254.3616 
L 132.270545 251.9424 
L 135.517091 249.5232 
L 138.763636 247.104 
L 142.010182 244.6848 
L 145.256727 242.2656 
L 148.503273 239.8464 
L 151.749818 237.4272 
L 154.996364 235.008 
L 158.242909 232.5888 
L 161.489455 230.1696 
L 164.736 227.7504 
L 167.982545 225.3312 
L 171.229091 222.912 
L 174.475636 220.4928 
L 177.722182 218.0736 
L 180.968727 215.6544 
L 184.215273 213.2352 
L 187.461818 210.816 
L 190.708364 208.3968 
L 193.954909 205.9776 
L 197.201455 203.5584 
L 200.448 201.1392 
L 203.694545 198.72 
L 206.941091 196.3008 
L 210.187636 193.8816 
L 213.434182 191.4624 
L 216.680727 189.0432 
L 219.927273 186.624 
L 223.173818 184.2048 
L 226.420364 181.7856 
L 229.666909 179.3664 
L 232.913455 176.9472 
L 236.16 174.528 
L 239.406545 172.1088 
L 242.653091 169.6896 
L 245.899636 167.2704 
L 249.146182 164.8512 
L 252.392727 162.432 
L 255.639273 160.0128 
L 258.885818 157.5936 
L 262.132364 155.1744 
L 265.378909 152.7552 
L 268.625455 150.336 
L 271.872 147.9168 
L 275.118545 145.4976 
L 278.365091 143.0784 
L 281.611636 140.6592 
L 284.858182 138.24 
L 288.104727 135.8208 
L 291.351273 133.4016 
L 294.597818 130.9824 
L 297.844364 128.5632 
L 301.090909 126.144 
L 304.337455 123.7248 
L 307.584 121.3056 
L 310.830545 118.8864 
L 314.077091 116.4672 
L 317.323636 114.048 
L 320.570182 111.6288 
L 323.816727 109.2096 
L 327.063273 106.7904 
L 330.309818 104.3712 
L 333.556364 101.952 
L 336.802909 99.5328 
L 340.049455 97.1136 
L 343.296 94.6944 
L 346.542545 92.2752 
L 349.789091 89.856 
L 353.035636 87.4368 
L 356.282182 85.0176 
L 359.528727 82.5984 
L 362.775273 80.1792 
L 366.021818 77.76 
L 369.268364 75.3408 
L 372.514909 72.9216 
L 375.761455 70.5024 
L 379.008 68.0832 
L 382.254545 65.664 
L 385.501091 63.2448 
L 388.747636 60.8256 
L 391.994182 58.4064 
L 395.240727 55.9872 
L 398.487273 53.568 
" style="fill:none;stroke:#000000;stroke-dasharray:1.5,2.475;stroke-dashoffset:0;stroke-width:1.5;"/>
   </g>
   <g id="line2d_15">
    <path clip-path="url(#pfd09ce6e0b)" d="M 73.832727 295.488 
L 77.079273 295.488 
L 80.325818 295.488 
L 83.572364 295.488 
L 86.818909 295.488 
L 90.065455 295.488 
L 93.312 295.488 
L 96.558545 295.488 
L 99.805091 295.488 
L 103.051636 295.488 
L 106.298182 295.488 
L 109.544727 295.488 
L 112.791273 295.488 
L 116.037818 295.488 
L 119.284364 295.488 
L 122.530909 295.488 
L 125.777455 295.488 
L 129.024 295.488 
L 132.270545 295.488 
L 135.517091 295.487999 
L 138.763636 295.487999 
L 142.010182 295.487998 
L 145.256727 295.487997 
L 148.503273 295.487995 
L 151.749818 295.487991 
L 154.996364 295.487986 
L 158.242909 295.487977 
L 161.489455 295.487964 
L 164.736 295.487944 
L 167.982545 295.487914 
L 171.229091 295.487871 
L 174.475636 295.487809 
L 177.722182 295.487721 
L 180.968727 295.487597 
L 184.215273 295.487423 
L 187.461818 295.487182 
L 190.708364 295.486854 
L 193.954909 295.486407 
L 197.201455 295.485807 
L 200.448 295.485005 
L 203.694545 295.483941 
L 206.941091 295.482541 
L 210.187636 295.480711 
L 213.434182 295.478333 
L 216.680727 295.475262 
L 219.927273 295.471319 
L 223.173818 295.466285 
L 226.420364 295.459891 
L 229.666909 295.451812 
L 232.913455 295.441653 
L 236.16 295.428937 
L 239.406545 295.413094 
L 242.653091 295.393439 
L 245.899636 295.369155 
L 249.146182 295.339271 
L 252.392727 295.302637 
L 255.639273 295.257894 
L 258.885818 295.203442 
L 262.132364 295.137403 
L 265.378909 295.057577 
L 268.625455 294.961393 
L 271.872 294.84586 
L 275.118545 294.707502 
L 278.365091 294.542289 
L 281.611636 294.345565 
L 284.858182 294.111957 
L 288.104727 293.835281 
L 291.351273 293.508437 
L 294.597818 293.123285 
L 297.844364 292.67052 
L 301.090909 292.139516 
L 304.337455 291.51817 
L 307.584 290.792717 
L 310.830545 289.947537 
L 314.077091 288.964924 
L 317.323636 287.824857 
L 320.570182 286.504721 
L 323.816727 284.979022 
L 327.063273 283.219061 
L 330.309818 281.192582 
L 333.556364 278.863384 
L 336.802909 276.190902 
L 340.049455 273.12974 
L 343.296 269.629169 
L 346.542545 265.632579 
L 349.789091 261.076874 
L 353.035636 255.891829 
L 356.282182 249.999375 
L 359.528727 243.312834 
L 362.775273 235.736082 
L 366.021818 227.162647 
L 369.268364 217.47473 
L 372.514909 206.542147 
L 375.761455 194.221184 
L 379.008 180.353357 
L 382.254545 164.764088 
L 385.501091 147.261256 
L 388.747636 127.633656 
L 391.994182 105.64933 
L 395.240727 81.053772 
L 398.487273 53.568 
" style="fill:none;stroke:#ff0000;stroke-dasharray:1.5,2.475;stroke-dashoffset:0;stroke-width:1.5;"/>
   </g>
   <g id="line2d_16">
    <path clip-path="url(#pfd09ce6e0b)" d="M 73.832727 295.488 
L 77.079273 286.706304 
L 80.325818 278.102016 
L 83.572364 269.675136 
L 86.818909 261.425664 
L 90.065455 253.3536 
L 93.312 245.458944 
L 96.558545 237.741696 
L 99.805091 230.201856 
L 103.051636 222.839424 
L 106.298182 215.6544 
L 109.544727 208.646784 
L 112.791273 201.816576 
L 116.037818 195.163776 
L 119.284364 188.688384 
L 122.530909 182.3904 
L 125.777455 176.269824 
L 129.024 170.326656 
L 132.270545 164.560896 
L 135.517091 158.972544 
L 138.763636 153.5616 
L 142.010182 148.328064 
L 145.256727 143.271936 
L 148.503273 138.393216 
L 151.749818 133.691904 
L 154.996364 129.168 
L 158.242909 124.821504 
L 161.489455 120.652416 
L 164.736 116.660736 
L 167.982545 112.846464 
L 171.229091 109.2096 
L 174.475636 105.750144 
L 177.722182 102.468096 
L 180.968727 99.363456 
L 184.215273 96.436224 
L 187.461818 93.6864 
L 190.708364 91.113984 
L 193.954909 88.718976 
L 197.201455 86.501376 
L 200.448 84.461184 
L 203.694545 82.5984 
L 206.941091 80.913024 
L 210.187636 79.405056 
L 213.434182 78.074496 
L 216.680727 76.921344 
L 219.927273 75.9456 
L 223.173818 75.147264 
L 226.420364 74.526336 
L 229.666909 74.082816 
L 232.913455 73.816704 
L 236.16 73.728 
L 239.406545 73.816704 
L 242.653091 74.082816 
L 245.899636 74.526336 
L 249.146182 75.147264 
L 252.392727 75.9456 
L 255.639273 76.921344 
L 258.885818 78.074496 
L 262.132364 79.405056 
L 265.378909 80.913024 
L 268.625455 82.5984 
L 271.872 84.461184 
L 275.118545 86.501376 
L 278.365091 88.718976 
L 281.611636 91.113984 
L 284.858182 93.6864 
L 288.104727 96.436224 
L 291.351273 99.363456 
L 294.597818 102.468096 
L 297.844364 105.750144 
L 301.090909 109.2096 
L 304.337455 112.846464 
L 307.584 116.660736 
L 310.830545 120.652416 
L 314.077091 124.821504 
L 317.323636 129.168 
L 320.570182 133.691904 
L 323.816727 138.393216 
L 327.063273 143.271936 
L 330.309818 148.328064 
L 333.556364 153.5616 
L 336.802909 158.972544 
L 340.049455 164.560896 
L 343.296 170.326656 
L 346.542545 176.269824 
L 349.789091 182.3904 
L 353.035636 188.688384 
L 356.282182 195.163776 
L 359.528727 201.816576 
L 362.775273 208.646784 
L 366.021818 215.6544 
L 369.268364 222.839424 
L 372.514909 230.201856 
L 375.761455 237.741696 
L 379.008 245.458944 
L 382.254545 253.3536 
L 385.501091 261.425664 
L 388.747636 269.675136 
L 391.994182 278.102016 
L 395.240727 286.706304 
L 398.487273 295.488 
" style="fill:none;stroke:#0000ff;stroke-dasharray:1.5,2.475;stroke-dashoffset:0;stroke-width:1.5;"/>
   </g>
   <g id="line2d_17">
    <path clip-path="url(#pfd09ce6e0b)" d="M 73.832727 295.488 
L 77.079273 285.955387 
L 80.325818 276.707305 
L 83.572364 267.738037 
L 86.818909 259.04192 
L 90.065455 250.613352 
L 93.312 242.446788 
L 96.558545 234.536742 
L 99.805091 226.877785 
L 103.051636 219.464546 
L 106.298182 212.291712 
L 109.544727 205.354029 
L 112.791273 198.646301 
L 116.037818 192.16339 
L 119.284364 185.900214 
L 122.530909 179.851752 
L 125.777455 174.013039 
L 129.024 168.37917 
L 132.270545 162.945296 
L 135.517091 157.706627 
L 138.763636 152.658432 
L 142.010182 147.796036 
L 145.256727 143.114823 
L 148.503273 138.610237 
L 151.749818 134.277776 
L 154.996364 130.113 
L 158.242909 126.111525 
L 161.489455 122.269025 
L 164.736 118.581232 
L 167.982545 115.043939 
L 171.229091 111.652992 
L 174.475636 108.404299 
L 177.722182 105.293825 
L 180.968727 102.317592 
L 184.215273 99.471681 
L 187.461818 96.752232 
L 190.708364 94.155441 
L 193.954909 91.677563 
L 197.201455 89.314912 
L 200.448 87.063859 
L 203.694545 84.920832 
L 206.941091 82.88232 
L 210.187636 80.944867 
L 213.434182 79.105078 
L 216.680727 77.359613 
L 219.927273 75.705192 
L 223.173818 74.138593 
L 226.420364 72.656652 
L 229.666909 71.256261 
L 232.913455 69.934374 
L 236.16 68.688 
L 239.406545 67.514207 
L 242.653091 66.41012 
L 245.899636 65.372924 
L 249.146182 64.399862 
L 252.392727 63.488232 
L 255.639273 62.635394 
L 258.885818 61.838763 
L 262.132364 61.095815 
L 265.378909 60.404081 
L 268.625455 59.761152 
L 271.872 59.164676 
L 275.118545 58.612361 
L 278.365091 58.10197 
L 281.611636 57.631327 
L 284.858182 57.198312 
L 288.104727 56.800864 
L 291.351273 56.43698 
L 294.597818 56.104715 
L 297.844364 55.802182 
L 301.090909 55.527552 
L 304.337455 55.279054 
L 307.584 55.054976 
L 310.830545 54.853662 
L 314.077091 54.673516 
L 317.323636 54.513 
L 320.570182 54.370632 
L 323.816727 54.244991 
L 327.063273 54.134712 
L 330.309818 54.038488 
L 333.556364 53.955072 
L 336.802909 53.883273 
L 340.049455 53.821958 
L 343.296 53.770054 
L 346.542545 53.726545 
L 349.789091 53.690472 
L 353.035636 53.660936 
L 356.282182 53.637095 
L 359.528727 53.618165 
L 362.775273 53.60342 
L 366.021818 53.592192 
L 369.268364 53.583872 
L 372.514909 53.577909 
L 375.761455 53.573808 
L 379.008 53.571135 
L 382.254545 53.569512 
L 385.501091 53.568619 
L 388.747636 53.568196 
L 391.994182 53.568039 
L 395.240727 53.568002 
L 398.487273 53.568 
" style="fill:none;stroke:#008000;stroke-dasharray:5.55,2.4;stroke-dashoffset:0;stroke-width:1.5;"/>
   </g>
   <g id="line2d_18">
    <path clip-path="url(#pfd09ce6e0b)" d="M 73.832727 295.488 
L 77.079273 293.0688 
L 80.325818 290.6496 
L 83.572364 288.2304 
L 86.818909 285.8112 
L 90.065455 283.392 
L 93.312 280.9728 
L 96.558545 278.5536 
L 99.805091 276.1344 
L 103.051636 273.7152 
L 106.298182 271.296 
L 109.544727 268.8768 
L 112.791273 266.4576 
L 116.037818 264.0384 
L 119.284364 261.6192 
L 122.530909 259.2 
L 125.777455 256.7808 
L 129.024 254.3616 
L 132.270545 251.9424 
L 135.517091 249.5232 
L 138.763636 247.104 
L 142.010182 244.6848 
L 145.256727 242.2656 
L 148.503273 239.8464 
L 151.749818 237.4272 
L 154.996364 235.008 
L 158.242909 232.5888 
L 161.489455 230.1696 
L 164.736 227.7504 
L 167.982545 225.3312 
L 171.229091 222.912 
L 174.475636 220.4928 
L 177.722182 218.0736 
L 180.968727 215.6544 
L 184.215273 213.2352 
L 187.461818 210.816 
L 190.708364 208.3968 
L 193.954909 205.9776 
L 197.201455 203.5584 
L 200.448 201.1392 
L 203.694545 198.72 
L 206.941091 196.3008 
L 210.187636 193.8816 
L 213.434182 191.4624 
L 216.680727 189.0432 
L 219.927273 186.624 
L 223.173818 184.2048 
L 226.420364 181.7856 
L 229.666909 179.3664 
L 232.913455 176.9472 
L 236.16 174.528 
L 239.406545 172.1088 
L 242.653091 169.6896 
L 245.899636 167.2704 
L 249.146182 164.8512 
L 252.392727 162.432 
L 255.639273 160.0128 
L 258.885818 157.5936 
L 262.132364 155.1744 
L 265.378909 152.7552 
L 268.625455 150.336 
L 271.872 147.9168 
L 275.118545 145.4976 
L 278.365091 143.0784 
L 281.611636 140.6592 
L 284.858182 138.24 
L 288.104727 135.8208 
L 291.351273 133.4016 
L 294.597818 130.9824 
L 297.844364 128.5632 
L 301.090909 126.144 
L 304.337455 123.7248 
L 307.584 121.3056 
L 310.830545 118.8864 
L 314.077091 116.4672 
L 317.323636 114.048 
L 320.570182 111.6288 
L 323.816727 109.2096 
L 327.063273 106.7904 
L 330.309818 104.3712 
L 333.556364 101.952 
L 336.802909 99.5328 
L 340.049455 97.1136 
L 343.296 94.6944 
L 346.542545 92.2752 
L 349.789091 89.856 
L 353.035636 87.4368 
L 356.282182 85.0176 
L 359.528727 82.5984 
L 362.775273 80.1792 
L 366.021818 77.76 
L 369.268364 75.3408 
L 372.514909 72.9216 
L 375.761455 70.5024 
L 379.008 68.0832 
L 382.254545 65.664 
L 385.501091 63.2448 
L 388.747636 60.8256 
L 391.994182 58.4064 
L 395.240727 55.9872 
L 398.487273 53.568 
" style="fill:none;stroke:#000000;stroke-dasharray:5.55,2.4;stroke-dashoffset:0;stroke-width:1.5;"/>
   </g>
   <g id="line2d_19">
    <path clip-path="url(#pfd09ce6e0b)" d="M 73.832727 295.488 
L 77.079273 295.487998 
L 80.325818 295.487961 
L 83.572364 295.487804 
L 86.818909 295.487381 
L 90.065455 295.486488 
L 93.312 295.484865 
L 96.558545 295.482192 
L 99.805091 295.478091 
L 103.051636 295.472128 
L 106.298182 295.463808 
L 109.544727 295.45258 
L 112.791273 295.437835 
L 116.037818 295.418905 
L 119.284364 295.395064 
L 122.530909 295.365528 
L 125.777455 295.329455 
L 129.024 295.285946 
L 132.270545 295.234042 
L 135.517091 295.172727 
L 138.763636 295.100928 
L 142.010182 295.017512 
L 145.256727 294.921288 
L 148.503273 294.811009 
L 151.749818 294.685368 
L 154.996364 294.543 
L 158.242909 294.382484 
L 161.489455 294.202338 
L 164.736 294.001024 
L 167.982545 293.776946 
L 171.229091 293.528448 
L 174.475636 293.253818 
L 177.722182 292.951285 
L 180.968727 292.61902 
L 184.215273 292.255136 
L 187.461818 291.857688 
L 190.708364 291.424673 
L 193.954909 290.95403 
L 197.201455 290.443639 
L 200.448 289.891324 
L 203.694545 289.294848 
L 206.941091 288.651919 
L 210.187636 287.960185 
L 213.434182 287.217237 
L 216.680727 286.420606 
L 219.927273 285.567768 
L 223.173818 284.656138 
L 226.420364 283.683076 
L 229.666909 282.64588 
L 232.913455 281.541793 
L 236.16 280.368 
L 239.406545 279.121626 
L 242.653091 277.799739 
L 245.899636 276.399348 
L 249.146182 274.917407 
L 252.392727 273.350808 
L 255.639273 271.696387 
L 258.885818 269.950922 
L 262.132364 268.111133 
L 265.378909 266.17368 
L 268.625455 264.135168 
L 271.872 261.992141 
L 275.118545 259.741088 
L 278.365091 257.378437 
L 281.611636 254.900559 
L 284.858182 252.303768 
L 288.104727 249.584319 
L 291.351273 246.738408 
L 294.597818 243.762175 
L 297.844364 240.651701 
L 301.090909 237.403008 
L 304.337455 234.012061 
L 307.584 230.474768 
L 310.830545 226.786975 
L 314.077091 222.944475 
L 317.323636 218.943 
L 320.570182 214.778224 
L 323.816727 210.445763 
L 327.063273 205.941177 
L 330.309818 201.259964 
L 333.556364 196.397568 
L 336.802909 191.349373 
L 340.049455 186.110704 
L 343.296 180.67683 
L 346.542545 175.042961 
L 349.789091 169.204248 
L 353.035636 163.155786 
L 356.282182 156.89261 
L 359.528727 150.409699 
L 362.775273 143.701971 
L 366.021818 136.764288 
L 369.268364 129.591454 
L 372.514909 122.178215 
L 375.761455 114.519258 
L 379.008 106.609212 
L 382.254545 98.442648 
L 385.501091 90.01408 
L 388.747636 81.317963 
L 391.994182 72.348695 
L 395.240727 63.100613 
L 398.487273 53.568 
" style="fill:none;stroke:#ff0000;stroke-dasharray:5.55,2.4;stroke-dashoffset:0;stroke-width:1.5;"/>
   </g>
   <g id="line2d_20">
    <path clip-path="url(#pfd09ce6e0b)" d="M 73.832727 295.488 
L 77.079273 290.673792 
L 80.325818 285.907968 
L 83.572364 281.190528 
L 86.818909 276.521472 
L 90.065455 271.9008 
L 93.312 267.328512 
L 96.558545 262.804608 
L 99.805091 258.329088 
L 103.051636 253.901952 
L 106.298182 249.5232 
L 109.544727 245.192832 
L 112.791273 240.910848 
L 116.037818 236.677248 
L 119.284364 232.492032 
L 122.530909 228.3552 
L 125.777455 224.266752 
L 129.024 220.226688 
L 132.270545 216.235008 
L 135.517091 212.291712 
L 138.763636 208.3968 
L 142.010182 204.550272 
L 145.256727 200.752128 
L 148.503273 197.002368 
L 151.749818 193.300992 
L 154.996364 189.648 
L 158.242909 186.043392 
L 161.489455 182.487168 
L 164.736 178.979328 
L 167.982545 175.519872 
L 171.229091 172.1088 
L 174.475636 168.746112 
L 177.722182 165.431808 
L 180.968727 162.165888 
L 184.215273 158.948352 
L 187.461818 155.7792 
L 190.708364 152.658432 
L 193.954909 149.586048 
L 197.201455 146.562048 
L 200.448 143.586432 
L 203.694545 140.6592 
L 206.941091 137.780352 
L 210.187636 134.949888 
L 213.434182 132.167808 
L 216.680727 129.434112 
L 219.927273 126.7488 
L 223.173818 124.111872 
L 226.420364 121.523328 
L 229.666909 118.983168 
L 232.913455 116.491392 
L 236.16 114.048 
L 239.406545 111.652992 
L 242.653091 109.306368 
L 245.899636 107.008128 
L 249.146182 104.758272 
L 252.392727 102.5568 
L 255.639273 100.403712 
L 258.885818 98.299008 
L 262.132364 96.242688 
L 265.378909 94.234752 
L 268.625455 92.2752 
L 271.872 90.364032 
L 275.118545 88.501248 
L 278.365091 86.686848 
L 281.611636 84.920832 
L 284.858182 83.2032 
L 288.104727 81.533952 
L 291.351273 79.913088 
L 294.597818 78.340608 
L 297.844364 76.816512 
L 301.090909 75.3408 
L 304.337455 73.913472 
L 307.584 72.534528 
L 310.830545 71.203968 
L 314.077091 69.921792 
L 317.323636 68.688 
L 320.570182 67.502592 
L 323.816727 66.365568 
L 327.063273 65.276928 
L 330.309818 64.236672 
L 333.556364 63.2448 
L 336.802909 62.301312 
L 340.049455 61.406208 
L 343.296 60.559488 
L 346.542545 59.761152 
L 349.789091 59.0112 
L 353.035636 58.309632 
L 356.282182 57.656448 
L 359.528727 57.051648 
L 362.775273 56.495232 
L 366.021818 55.9872 
L 369.268364 55.527552 
L 372.514909 55.116288 
L 375.761455 54.753408 
L 379.008 54.438912 
L 382.254545 54.1728 
L 385.501091 53.955072 
L 388.747636 53.785728 
L 391.994182 53.664768 
L 395.240727 53.592192 
L 398.487273 53.568 
" style="fill:none;stroke:#008000;stroke-linecap:square;stroke-width:1.5;"/>
   </g>
   <g id="line2d_21">
    <path clip-path="url(#pfd09ce6e0b)" d="M 73.832727 295.488 
L 77.079273 293.0688 
L 80.325818 290.6496 
L 83.572364 288.2304 
L 86.818909 285.8112 
L 90.065455 283.392 
L 93.312 280.9728 
L 96.558545 278.5536 
L 99.805091 276.1344 
L 103.051636 273.7152 
L 106.298182 271.296 
L 109.544727 268.8768 
L 112.791273 266.4576 
L 116.037818 264.0384 
L 119.284364 261.6192 
L 122.530909 259.2 
L 125.777455 256.7808 
L 129.024 254.3616 
L 132.270545 251.9424 
L 135.517091 249.5232 
L 138.763636 247.104 
L 142.010182 244.6848 
L 145.256727 242.2656 
L 148.503273 239.8464 
L 151.749818 237.4272 
L 154.996364 235.008 
L 158.242909 232.5888 
L 161.489455 230.1696 
L 164.736 227.7504 
L 167.982545 225.3312 
L 171.229091 222.912 
L 174.475636 220.4928 
L 177.722182 218.0736 
L 180.968727 215.6544 
L 184.215273 213.2352 
L 187.461818 210.816 
L 190.708364 208.3968 
L 193.954909 205.9776 
L 197.201455 203.5584 
L 200.448 201.1392 
L 203.694545 198.72 
L 206.941091 196.3008 
L 210.187636 193.8816 
L 213.434182 191.4624 
L 216.680727 189.0432 
L 219.927273 186.624 
L 223.173818 184.2048 
L 226.420364 181.7856 
L 229.666909 179.3664 
L 232.913455 176.9472 
L 236.16 174.528 
L 239.406545 172.1088 
L 242.653091 169.6896 
L 245.899636 167.2704 
L 249.146182 164.8512 
L 252.392727 162.432 
L 255.639273 160.0128 
L 258.885818 157.5936 
L 262.132364 155.1744 
L 265.378909 152.7552 
L 268.625455 150.336 
L 271.872 147.9168 
L 275.118545 145.4976 
L 278.365091 143.0784 
L 281.611636 140.6592 
L 284.858182 138.24 
L 288.104727 135.8208 
L 291.351273 133.4016 
L 294.597818 130.9824 
L 297.844364 128.5632 
L 301.090909 126.144 
L 304.337455 123.7248 
L 307.584 121.3056 
L 310.830545 118.8864 
L 314.077091 116.4672 
L 317.323636 114.048 
L 320.570182 111.6288 
L 323.816727 109.2096 
L 327.063273 106.7904 
L 330.309818 104.3712 
L 333.556364 101.952 
L 336.802909 99.5328 
L 340.049455 97.1136 
L 343.296 94.6944 
L 346.542545 92.2752 
L 349.789091 89.856 
L 353.035636 87.4368 
L 356.282182 85.0176 
L 359.528727 82.5984 
L 362.775273 80.1792 
L 366.021818 77.76 
L 369.268364 75.3408 
L 372.514909 72.9216 
L 375.761455 70.5024 
L 379.008 68.0832 
L 382.254545 65.664 
L 385.501091 63.2448 
L 388.747636 60.8256 
L 391.994182 58.4064 
L 395.240727 55.9872 
L 398.487273 53.568 
" style="fill:none;stroke:#000000;stroke-linecap:square;stroke-width:1.5;"/>
   </g>
   <g id="line2d_22">
    <path clip-path="url(#pfd09ce6e0b)" d="M 73.832727 295.488 
L 77.079273 295.463808 
L 80.325818 295.391232 
L 83.572364 295.270272 
L 86.818909 295.100928 
L 90.065455 294.8832 
L 93.312 294.617088 
L 96.558545 294.302592 
L 99.805091 293.939712 
L 103.051636 293.528448 
L 106.298182 293.0688 
L 109.544727 292.560768 
L 112.791273 292.004352 
L 116.037818 291.399552 
L 119.284364 290.746368 
L 122.530909 290.0448 
L 125.777455 289.294848 
L 129.024 288.496512 
L 132.270545 287.649792 
L 135.517091 286.754688 
L 138.763636 285.8112 
L 142.010182 284.819328 
L 145.256727 283.779072 
L 148.503273 282.690432 
L 151.749818 281.553408 
L 154.996364 280.368 
L 158.242909 279.134208 
L 161.489455 277.852032 
L 164.736 276.521472 
L 167.982545 275.142528 
L 171.229091 273.7152 
L 174.475636 272.239488 
L 177.722182 270.715392 
L 180.968727 269.142912 
L 184.215273 267.522048 
L 187.461818 265.8528 
L 190.708364 264.135168 
L 193.954909 262.369152 
L 197.201455 260.554752 
L 200.448 258.691968 
L 203.694545 256.7808 
L 206.941091 254.821248 
L 210.187636 252.813312 
L 213.434182 250.756992 
L 216.680727 248.652288 
L 219.927273 246.4992 
L 223.173818 244.297728 
L 226.420364 242.047872 
L 229.666909 239.749632 
L 232.913455 237.403008 
L 236.16 235.008 
L 239.406545 232.564608 
L 242.653091 230.072832 
L 245.899636 227.532672 
L 249.146182 224.944128 
L 252.392727 222.3072 
L 255.639273 219.621888 
L 258.885818 216.888192 
L 262.132364 214.106112 
L 265.378909 211.275648 
L 268.625455 208.3968 
L 271.872 205.469568 
L 275.118545 202.493952 
L 278.365091 199.469952 
L 281.611636 196.397568 
L 284.858182 193.2768 
L 288.104727 190.107648 
L 291.351273 186.890112 
L 294.597818 183.624192 
L 297.844364 180.309888 
L 301.090909 176.9472 
L 304.337455 173.536128 
L 307.584 170.076672 
L 310.830545 166.568832 
L 314.077091 163.012608 
L 317.323636 159.408 
L 320.570182 155.755008 
L 323.816727 152.053632 
L 327.063273 148.303872 
L 330.309818 144.505728 
L 333.556364 140.6592 
L 336.802909 136.764288 
L 340.049455 132.820992 
L 343.296 128.829312 
L 346.542545 124.789248 
L 349.789091 120.7008 
L 353.035636 116.563968 
L 356.282182 112.378752 
L 359.528727 108.145152 
L 362.775273 103.863168 
L 366.021818 99.5328 
L 369.268364 95.154048 
L 372.514909 90.726912 
L 375.761455 86.251392 
L 379.008 81.727488 
L 382.254545 77.1552 
L 385.501091 72.534528 
L 388.747636 67.865472 
L 391.994182 63.148032 
L 395.240727 58.382208 
L 398.487273 53.568 
" style="fill:none;stroke:#ff0000;stroke-linecap:square;stroke-width:1.5;"/>
   </g>
   <g id="patch_3">
    <path d="M 57.6 307.584 
L 57.6 41.472 
" style="fill:none;stroke:#000000;stroke-linecap:square;stroke-linejoin:miter;stroke-width:0.8;"/>
   </g>
   <g id="patch_4">
    <path d="M 414.72 307.584 
L 414.72 41.472 
" style="fill:none;stroke:#000000;stroke-linecap:square;stroke-linejoin:miter;stroke-width:0.8;"/>
   </g>
   <g id="patch_5">
    <path d="M 57.6 307.584 
L 414.72 307.584 
" style="fill:none;stroke:#000000;stroke-linecap:square;stroke-linejoin:miter;stroke-width:0.8;"/>
   </g>
   <g id="patch_6">
    <path d="M 57.6 41.472 
L 414.72 41.472 
" style="fill:none;stroke:#000000;stroke-linecap:square;stroke-linejoin:miter;stroke-width:0.8;"/>
   </g>
   <g id="legend_1">
    <g id="line2d_23">
     <path d="M 66.6 54.570438 
L 86.6 54.570438 
" style="fill:none;stroke:#008000;stroke-dasharray:1.5,2.475;stroke-dashoffset:0;stroke-width:1.5;"/>
    </g>
    <g id="line2d_24"/>
    <g id="text_15">
     <!-- $k=12$ -->
     <defs>
      <path d="M 18.3125 75.984375 
L 27.296875 75.984375 
L 18.703125 31.6875 
L 49.515625 54.6875 
L 61.1875 54.6875 
L 26.8125 28.515625 
L 51.90625 0 
L 41.015625 0 
L 17.671875 26.703125 
L 12.5 0 
L 3.515625 0 
z
" id="DejaVuSans-Oblique-6b"/>
      <path d="M 10.59375 45.40625 
L 73.1875 45.40625 
L 73.1875 37.203125 
L 10.59375 37.203125 
z
M 10.59375 25.484375 
L 73.1875 25.484375 
L 73.1875 17.1875 
L 10.59375 17.1875 
z
" id="DejaVuSans-3d"/>
     </defs>
     <g transform="translate(94.6 58.070438)scale(0.1 -0.1)">
      <use transform="translate(0 0.015625)" xlink:href="#DejaVuSans-Oblique-6b"/>
      <use transform="translate(77.392578 0.015625)" xlink:href="#DejaVuSans-3d"/>
      <use transform="translate(180.664062 0.015625)" xlink:href="#DejaVuSans-31"/>
      <use transform="translate(244.287109 0.015625)" xlink:href="#DejaVuSans-32"/>
     </g>
    </g>
    <g id="line2d_25">
     <path d="M 66.6 69.248563 
L 86.6 69.248563 
" style="fill:none;stroke:#008000;stroke-dasharray:5.55,2.4;stroke-dashoffset:0;stroke-width:1.5;"/>
    </g>
    <g id="line2d_26"/>
    <g id="text_16">
     <!-- $k=4$ -->
     <g transform="translate(94.6 72.748563)scale(0.1 -0.1)">
      <use transform="translate(0 0.015625)" xlink:href="#DejaVuSans-Oblique-6b"/>
      <use transform="translate(77.392578 0.015625)" xlink:href="#DejaVuSans-3d"/>
      <use transform="translate(180.664062 0.015625)" xlink:href="#DejaVuSans-34"/>
     </g>
    </g>
    <g id="line2d_27">
     <path d="M 66.6 83.926688 
L 86.6 83.926688 
" style="fill:none;stroke:#008000;stroke-linecap:square;stroke-width:1.5;"/>
    </g>
    <g id="line2d_28"/>
    <g id="text_17">
     <!-- $k=2$ -->
     <g transform="translate(94.6 87.426688)scale(0.1 -0.1)">
      <use transform="translate(0 0.015625)" xlink:href="#DejaVuSans-Oblique-6b"/>
      <use transform="translate(77.392578 0.015625)" xlink:href="#DejaVuSans-3d"/>
      <use transform="translate(180.664062 0.015625)" xlink:href="#DejaVuSans-32"/>
     </g>
    </g>
   </g>
  </g>
 </g>
 <defs>
  <clipPath id="pfd09ce6e0b">
   <rect height="266.112" width="357.12" x="57.6" y="41.472"/>
  </clipPath>
 </defs>
</svg>
