<?xml version="1.0" encoding="utf-8"?>
<svg xmlns="http://www.w3.org/2000/svg" xmlns:xlink="http://www.w3.org/1999/xlink" width="500" height="200" viewBox="0 0 2000 800">
<defs>
  <clipPath id="clip770">
    <rect x="0" y="0" width="2000" height="800"/>
  </clipPath>
</defs>
<path clip-path="url(#clip770)" d="
M0 800 L2000 800 L2000 0 L0 0  Z
  " fill="#ffffff" fill-rule="evenodd" fill-opacity="1"/>
<defs>
  <clipPath id="clip771">
    <rect x="400" y="0" width="1401" height="800"/>
  </clipPath>
</defs>
<path clip-path="url(#clip770)" d="
M207.346 671.788 L1952.76 671.788 L1952.76 47.2441 L207.346 47.2441  Z
  " fill="#ffffff" fill-rule="evenodd" fill-opacity="1"/>
<defs>
  <clipPath id="clip772">
    <rect x="207" y="47" width="1746" height="626"/>
  </clipPath>
</defs>
<polyline clip-path="url(#clip770)" style="stroke:#000000; stroke-width:4; stroke-opacity:1; fill:none" points="
  207.346,671.788 1952.76,671.788 
  "/>
<polyline clip-path="url(#clip770)" style="stroke:#000000; stroke-width:4; stroke-opacity:1; fill:none" points="
  207.346,671.788 207.346,664.293 
  "/>
<polyline clip-path="url(#clip770)" style="stroke:#000000; stroke-width:4; stroke-opacity:1; fill:none" points="
  556.428,671.788 556.428,664.293 
  "/>
<polyline clip-path="url(#clip770)" style="stroke:#000000; stroke-width:4; stroke-opacity:1; fill:none" points="
  905.51,671.788 905.51,664.293 
  "/>
<polyline clip-path="url(#clip770)" style="stroke:#000000; stroke-width:4; stroke-opacity:1; fill:none" points="
  1254.59,671.788 1254.59,664.293 
  "/>
<polyline clip-path="url(#clip770)" style="stroke:#000000; stroke-width:4; stroke-opacity:1; fill:none" points="
  1603.67,671.788 1603.67,664.293 
  "/>
<polyline clip-path="url(#clip770)" style="stroke:#000000; stroke-width:4; stroke-opacity:1; fill:none" points="
  1952.76,671.788 1952.76,664.293 
  "/>
<path clip-path="url(#clip770)" d="M 0 0 M207.346 697.779 Q203.735 697.779 201.906 701.343 Q200.101 704.885 200.101 712.015 Q200.101 719.121 201.906 722.686 Q203.735 726.227 207.346 726.227 Q210.98 726.227 212.786 722.686 Q214.615 719.121 214.615 712.015 Q214.615 704.885 212.786 701.343 Q210.98 697.779 207.346 697.779 M207.346 694.075 Q213.156 694.075 216.212 698.681 Q219.29 703.265 219.29 712.015 Q219.29 720.741 216.212 725.348 Q213.156 729.931 207.346 729.931 Q201.536 729.931 198.457 725.348 Q195.402 720.741 195.402 712.015 Q195.402 703.265 198.457 698.681 Q201.536 694.075 207.346 694.075 Z" fill="#000000" fill-rule="evenodd" fill-opacity="1" /><path clip-path="url(#clip770)" d="M 0 0 M546.81 725.325 L554.449 725.325 L554.449 698.959 L546.139 700.626 L546.139 696.367 L554.403 694.7 L559.078 694.7 L559.078 725.325 L566.717 725.325 L566.717 729.26 L546.81 729.26 L546.81 725.325 Z" fill="#000000" fill-rule="evenodd" fill-opacity="1" /><path clip-path="url(#clip770)" d="M 0 0 M900.163 725.325 L916.482 725.325 L916.482 729.26 L894.538 729.26 L894.538 725.325 Q897.2 722.57 901.783 717.94 Q906.39 713.288 907.57 711.945 Q909.816 709.422 910.695 707.686 Q911.598 705.927 911.598 704.237 Q911.598 701.482 909.653 699.746 Q907.732 698.01 904.63 698.01 Q902.431 698.01 899.978 698.774 Q897.547 699.538 894.769 701.089 L894.769 696.367 Q897.593 695.232 900.047 694.654 Q902.501 694.075 904.538 694.075 Q909.908 694.075 913.103 696.76 Q916.297 699.445 916.297 703.936 Q916.297 706.066 915.487 707.987 Q914.7 709.885 912.593 712.478 Q912.015 713.149 908.913 716.366 Q905.811 719.561 900.163 725.325 Z" fill="#000000" fill-rule="evenodd" fill-opacity="1" /><path clip-path="url(#clip770)" d="M 0 0 M1258.84 710.626 Q1262.2 711.343 1264.07 713.612 Q1265.97 715.88 1265.97 719.214 Q1265.97 724.329 1262.45 727.13 Q1258.93 729.931 1252.45 729.931 Q1250.27 729.931 1247.96 729.491 Q1245.67 729.075 1243.21 728.218 L1243.21 723.704 Q1245.16 724.839 1247.47 725.417 Q1249.79 725.996 1252.31 725.996 Q1256.71 725.996 1259 724.26 Q1261.32 722.524 1261.32 719.214 Q1261.32 716.158 1259.16 714.445 Q1257.03 712.709 1253.21 712.709 L1249.19 712.709 L1249.19 708.866 L1253.4 708.866 Q1256.85 708.866 1258.68 707.501 Q1260.51 706.112 1260.51 703.519 Q1260.51 700.857 1258.61 699.445 Q1256.73 698.01 1253.21 698.01 Q1251.29 698.01 1249.09 698.427 Q1246.9 698.843 1244.26 699.723 L1244.26 695.556 Q1246.92 694.816 1249.23 694.445 Q1251.57 694.075 1253.63 694.075 Q1258.96 694.075 1262.06 696.505 Q1265.16 698.913 1265.16 703.033 Q1265.16 705.903 1263.52 707.894 Q1261.87 709.862 1258.84 710.626 Z" fill="#000000" fill-rule="evenodd" fill-opacity="1" /><path clip-path="url(#clip770)" d="M 0 0 M1606.68 698.774 L1594.88 717.223 L1606.68 717.223 L1606.68 698.774 M1605.46 694.7 L1611.34 694.7 L1611.34 717.223 L1616.27 717.223 L1616.27 721.112 L1611.34 721.112 L1611.34 729.26 L1606.68 729.26 L1606.68 721.112 L1591.08 721.112 L1591.08 716.598 L1605.46 694.7 Z" fill="#000000" fill-rule="evenodd" fill-opacity="1" /><path clip-path="url(#clip770)" d="M 0 0 M1943.03 694.7 L1961.39 694.7 L1961.39 698.635 L1947.32 698.635 L1947.32 707.107 Q1948.33 706.76 1949.35 706.598 Q1950.37 706.413 1951.39 706.413 Q1957.18 706.413 1960.56 709.584 Q1963.94 712.755 1963.94 718.172 Q1963.94 723.751 1960.46 726.852 Q1956.99 729.931 1950.67 729.931 Q1948.5 729.931 1946.23 729.561 Q1943.98 729.19 1941.58 728.45 L1941.58 723.751 Q1943.66 724.885 1945.88 725.44 Q1948.1 725.996 1950.58 725.996 Q1954.58 725.996 1956.92 723.89 Q1959.26 721.783 1959.26 718.172 Q1959.26 714.561 1956.92 712.454 Q1954.58 710.348 1950.58 710.348 Q1948.71 710.348 1946.83 710.765 Q1944.98 711.181 1943.03 712.061 L1943.03 694.7 Z" fill="#000000" fill-rule="evenodd" fill-opacity="1" /><path clip-path="url(#clip770)" d="M 0 0 M966.672 773.156 Q965.954 772.739 965.098 772.554 Q964.265 772.345 963.246 772.345 Q959.635 772.345 957.691 774.706 Q955.769 777.044 955.769 781.443 L955.769 795.1 L951.487 795.1 L951.487 769.174 L955.769 769.174 L955.769 773.202 Q957.112 770.841 959.265 769.706 Q961.417 768.549 964.496 768.549 Q964.936 768.549 965.468 768.619 Q966.001 768.665 966.649 768.781 L966.672 773.156 Z" fill="#000000" fill-rule="evenodd" fill-opacity="1" /><path clip-path="url(#clip770)" d="M 0 0 M992.274 781.072 L992.274 783.155 L972.69 783.155 Q972.968 787.554 975.329 789.868 Q977.714 792.16 981.95 792.16 Q984.403 792.16 986.695 791.558 Q989.01 790.956 991.278 789.753 L991.278 793.78 Q988.987 794.753 986.579 795.262 Q984.172 795.771 981.695 795.771 Q975.491 795.771 971.857 792.16 Q968.246 788.549 968.246 782.392 Q968.246 776.026 971.672 772.299 Q975.121 768.549 980.954 768.549 Q986.186 768.549 989.218 771.929 Q992.274 775.285 992.274 781.072 M988.014 779.822 Q987.968 776.327 986.047 774.243 Q984.149 772.16 981.001 772.16 Q977.436 772.16 975.283 774.174 Q973.153 776.188 972.829 779.845 L988.014 779.822 Z" fill="#000000" fill-rule="evenodd" fill-opacity="1" /><path clip-path="url(#clip770)" d="M 0 0 M996.741 759.082 L1001 759.082 L1001 795.1 L996.741 795.1 L996.741 759.082 Z" fill="#000000" fill-rule="evenodd" fill-opacity="1" /><path clip-path="url(#clip770)" d="M 0 0 M1017.25 782.068 Q1012.09 782.068 1010.1 783.248 Q1008.11 784.429 1008.11 787.276 Q1008.11 789.544 1009.59 790.887 Q1011.09 792.206 1013.66 792.206 Q1017.2 792.206 1019.33 789.706 Q1021.49 787.183 1021.49 783.017 L1021.49 782.068 L1017.25 782.068 M1025.75 780.308 L1025.75 795.1 L1021.49 795.1 L1021.49 791.165 Q1020.03 793.526 1017.85 794.66 Q1015.68 795.771 1012.53 795.771 Q1008.55 795.771 1006.19 793.549 Q1003.85 791.304 1003.85 787.554 Q1003.85 783.179 1006.76 780.956 Q1009.7 778.734 1015.51 778.734 L1021.49 778.734 L1021.49 778.318 Q1021.49 775.378 1019.54 773.781 Q1017.62 772.16 1014.13 772.16 Q1011.9 772.16 1009.8 772.693 Q1007.69 773.225 1005.75 774.29 L1005.75 770.355 Q1008.08 769.452 1010.28 769.012 Q1012.48 768.549 1014.57 768.549 Q1020.19 768.549 1022.97 771.466 Q1025.75 774.382 1025.75 780.308 Z" fill="#000000" fill-rule="evenodd" fill-opacity="1" /><path clip-path="url(#clip770)" d="M 0 0 M1034.43 761.813 L1034.43 769.174 L1043.2 769.174 L1043.2 772.484 L1034.43 772.484 L1034.43 786.558 Q1034.43 789.73 1035.28 790.632 Q1036.16 791.535 1038.82 791.535 L1043.2 791.535 L1043.2 795.1 L1038.82 795.1 Q1033.89 795.1 1032.02 793.271 Q1030.14 791.419 1030.14 786.558 L1030.14 772.484 L1027.02 772.484 L1027.02 769.174 L1030.14 769.174 L1030.14 761.813 L1034.43 761.813 Z" fill="#000000" fill-rule="evenodd" fill-opacity="1" /><path clip-path="url(#clip770)" d="M 0 0 M1047.67 769.174 L1051.93 769.174 L1051.93 795.1 L1047.67 795.1 L1047.67 769.174 M1047.67 759.082 L1051.93 759.082 L1051.93 764.475 L1047.67 764.475 L1047.67 759.082 Z" fill="#000000" fill-rule="evenodd" fill-opacity="1" /><path clip-path="url(#clip770)" d="M 0 0 M1053.34 769.174 L1057.85 769.174 L1065.95 790.933 L1074.06 769.174 L1078.57 769.174 L1068.85 795.1 L1063.06 795.1 L1053.34 769.174 Z" fill="#000000" fill-rule="evenodd" fill-opacity="1" /><path clip-path="url(#clip770)" d="M 0 0 M1105.21 781.072 L1105.21 783.155 L1085.63 783.155 Q1085.91 787.554 1088.27 789.868 Q1090.65 792.16 1094.89 792.16 Q1097.34 792.16 1099.63 791.558 Q1101.95 790.956 1104.22 789.753 L1104.22 793.78 Q1101.93 794.753 1099.52 795.262 Q1097.11 795.771 1094.63 795.771 Q1088.43 795.771 1084.8 792.16 Q1081.19 788.549 1081.19 782.392 Q1081.19 776.026 1084.61 772.299 Q1088.06 768.549 1093.89 768.549 Q1099.12 768.549 1102.16 771.929 Q1105.21 775.285 1105.21 781.072 M1100.95 779.822 Q1100.91 776.327 1098.99 774.243 Q1097.09 772.16 1093.94 772.16 Q1090.38 772.16 1088.22 774.174 Q1086.09 776.188 1085.77 779.845 L1100.95 779.822 Z" fill="#000000" fill-rule="evenodd" fill-opacity="1" /><path clip-path="url(#clip770)" d="M 0 0 M1139.77 773.156 Q1139.06 772.739 1138.2 772.554 Q1137.37 772.345 1136.35 772.345 Q1132.74 772.345 1130.79 774.706 Q1128.87 777.044 1128.87 781.443 L1128.87 795.1 L1124.59 795.1 L1124.59 769.174 L1128.87 769.174 L1128.87 773.202 Q1130.21 770.841 1132.37 769.706 Q1134.52 768.549 1137.6 768.549 Q1138.04 768.549 1138.57 768.619 Q1139.1 768.665 1139.75 768.781 L1139.77 773.156 Z" fill="#000000" fill-rule="evenodd" fill-opacity="1" /><path clip-path="url(#clip770)" d="M 0 0 M1156.02 782.068 Q1150.86 782.068 1148.87 783.248 Q1146.88 784.429 1146.88 787.276 Q1146.88 789.544 1148.36 790.887 Q1149.87 792.206 1152.43 792.206 Q1155.98 792.206 1158.11 789.706 Q1160.26 787.183 1160.26 783.017 L1160.26 782.068 L1156.02 782.068 M1164.52 780.308 L1164.52 795.1 L1160.26 795.1 L1160.26 791.165 Q1158.8 793.526 1156.62 794.66 Q1154.45 795.771 1151.3 795.771 Q1147.32 795.771 1144.96 793.549 Q1142.62 791.304 1142.62 787.554 Q1142.62 783.179 1145.54 780.956 Q1148.48 778.734 1154.29 778.734 L1160.26 778.734 L1160.26 778.318 Q1160.26 775.378 1158.31 773.781 Q1156.39 772.16 1152.9 772.16 Q1150.68 772.16 1148.57 772.693 Q1146.46 773.225 1144.52 774.29 L1144.52 770.355 Q1146.86 769.452 1149.06 769.012 Q1151.25 768.549 1153.34 768.549 Q1158.96 768.549 1161.74 771.466 Q1164.52 774.382 1164.52 780.308 Z" fill="#000000" fill-rule="evenodd" fill-opacity="1" /><path clip-path="url(#clip770)" d="M 0 0 M1173.2 761.813 L1173.2 769.174 L1181.97 769.174 L1181.97 772.484 L1173.2 772.484 L1173.2 786.558 Q1173.2 789.73 1174.06 790.632 Q1174.93 791.535 1177.6 791.535 L1181.97 791.535 L1181.97 795.1 L1177.6 795.1 Q1172.67 795.1 1170.79 793.271 Q1168.92 791.419 1168.92 786.558 L1168.92 772.484 L1165.79 772.484 L1165.79 769.174 L1168.92 769.174 L1168.92 761.813 L1173.2 761.813 Z" fill="#000000" fill-rule="evenodd" fill-opacity="1" /><path clip-path="url(#clip770)" d="M 0 0 M1208.62 781.072 L1208.62 783.155 L1189.03 783.155 Q1189.31 787.554 1191.67 789.868 Q1194.06 792.16 1198.29 792.16 Q1200.74 792.16 1203.04 791.558 Q1205.35 790.956 1207.62 789.753 L1207.62 793.78 Q1205.33 794.753 1202.92 795.262 Q1200.51 795.771 1198.04 795.771 Q1191.83 795.771 1188.2 792.16 Q1184.59 788.549 1184.59 782.392 Q1184.59 776.026 1188.01 772.299 Q1191.46 768.549 1197.3 768.549 Q1202.53 768.549 1205.56 771.929 Q1208.62 775.285 1208.62 781.072 M1204.36 779.822 Q1204.31 776.327 1202.39 774.243 Q1200.49 772.16 1197.34 772.16 Q1193.78 772.16 1191.62 774.174 Q1189.49 776.188 1189.17 779.845 L1204.36 779.822 Z" fill="#000000" fill-rule="evenodd" fill-opacity="1" /><polyline clip-path="url(#clip770)" style="stroke:#000000; stroke-width:4; stroke-opacity:1; fill:none" points="
  207.346,671.788 207.346,47.2441 
  "/>
<polyline clip-path="url(#clip770)" style="stroke:#000000; stroke-width:4; stroke-opacity:1; fill:none" points="
  207.346,654.171 228.291,654.171 
  "/>
<polyline clip-path="url(#clip770)" style="stroke:#000000; stroke-width:4; stroke-opacity:1; fill:none" points="
  207.346,506.858 228.291,506.858 
  "/>
<polyline clip-path="url(#clip770)" style="stroke:#000000; stroke-width:4; stroke-opacity:1; fill:none" points="
  207.346,359.545 228.291,359.545 
  "/>
<polyline clip-path="url(#clip770)" style="stroke:#000000; stroke-width:4; stroke-opacity:1; fill:none" points="
  207.346,212.233 228.291,212.233 
  "/>
<polyline clip-path="url(#clip770)" style="stroke:#000000; stroke-width:4; stroke-opacity:1; fill:none" points="
  207.346,64.9199 228.291,64.9199 
  "/>
<path clip-path="url(#clip770)" d="M 0 0 M101.421 639.97 Q97.8094 639.97 95.9808 643.534 Q94.1752 647.076 94.1752 654.206 Q94.1752 661.312 95.9808 664.877 Q97.8094 668.419 101.421 668.419 Q105.055 668.419 106.86 664.877 Q108.689 661.312 108.689 654.206 Q108.689 647.076 106.86 643.534 Q105.055 639.97 101.421 639.97 M101.421 636.266 Q107.231 636.266 110.286 640.872 Q113.365 645.456 113.365 654.206 Q113.365 662.933 110.286 667.539 Q107.231 672.122 101.421 672.122 Q95.6104 672.122 92.5317 667.539 Q89.4762 662.933 89.4762 654.206 Q89.4762 645.456 92.5317 640.872 Q95.6104 636.266 101.421 636.266 Z" fill="#000000" fill-rule="evenodd" fill-opacity="1" /><path clip-path="url(#clip770)" d="M 0 0 M118.434 665.571 L123.319 665.571 L123.319 671.451 L118.434 671.451 L118.434 665.571 Z" fill="#000000" fill-rule="evenodd" fill-opacity="1" /><path clip-path="url(#clip770)" d="M 0 0 M138.388 639.97 Q134.777 639.97 132.948 643.534 Q131.143 647.076 131.143 654.206 Q131.143 661.312 132.948 664.877 Q134.777 668.419 138.388 668.419 Q142.022 668.419 143.828 664.877 Q145.656 661.312 145.656 654.206 Q145.656 647.076 143.828 643.534 Q142.022 639.97 138.388 639.97 M138.388 636.266 Q144.198 636.266 147.254 640.872 Q150.332 645.456 150.332 654.206 Q150.332 662.933 147.254 667.539 Q144.198 672.122 138.388 672.122 Q132.578 672.122 129.499 667.539 Q126.444 662.933 126.444 654.206 Q126.444 645.456 129.499 640.872 Q132.578 636.266 138.388 636.266 Z" fill="#000000" fill-rule="evenodd" fill-opacity="1" /><path clip-path="url(#clip770)" d="M 0 0 M165.402 639.97 Q161.791 639.97 159.962 643.534 Q158.156 647.076 158.156 654.206 Q158.156 661.312 159.962 664.877 Q161.791 668.419 165.402 668.419 Q169.036 668.419 170.841 664.877 Q172.67 661.312 172.67 654.206 Q172.67 647.076 170.841 643.534 Q169.036 639.97 165.402 639.97 M165.402 636.266 Q171.212 636.266 174.267 640.872 Q177.346 645.456 177.346 654.206 Q177.346 662.933 174.267 667.539 Q171.212 672.122 165.402 672.122 Q159.592 672.122 156.513 667.539 Q153.457 662.933 153.457 654.206 Q153.457 645.456 156.513 640.872 Q159.592 636.266 165.402 636.266 Z" fill="#000000" fill-rule="evenodd" fill-opacity="1" /><path clip-path="url(#clip770)" d="M 0 0 M104.013 492.657 Q100.402 492.657 98.5733 496.222 Q96.7678 499.763 96.7678 506.893 Q96.7678 513.999 98.5733 517.564 Q100.402 521.106 104.013 521.106 Q107.647 521.106 109.453 517.564 Q111.282 513.999 111.282 506.893 Q111.282 499.763 109.453 496.222 Q107.647 492.657 104.013 492.657 M104.013 488.953 Q109.823 488.953 112.879 493.56 Q115.957 498.143 115.957 506.893 Q115.957 515.62 112.879 520.226 Q109.823 524.81 104.013 524.81 Q98.203 524.81 95.1243 520.226 Q92.0687 515.62 92.0687 506.893 Q92.0687 498.143 95.1243 493.56 Q98.203 488.953 104.013 488.953 Z" fill="#000000" fill-rule="evenodd" fill-opacity="1" /><path clip-path="url(#clip770)" d="M 0 0 M121.027 518.259 L125.911 518.259 L125.911 524.138 L121.027 524.138 L121.027 518.259 Z" fill="#000000" fill-rule="evenodd" fill-opacity="1" /><path clip-path="url(#clip770)" d="M 0 0 M135.008 520.203 L151.328 520.203 L151.328 524.138 L129.383 524.138 L129.383 520.203 Q132.045 517.448 136.629 512.819 Q141.235 508.166 142.416 506.823 Q144.661 504.3 145.541 502.564 Q146.443 500.805 146.443 499.115 Q146.443 496.361 144.499 494.624 Q142.578 492.888 139.476 492.888 Q137.277 492.888 134.823 493.652 Q132.393 494.416 129.615 495.967 L129.615 491.245 Q132.439 490.111 134.893 489.532 Q137.346 488.953 139.383 488.953 Q144.754 488.953 147.948 491.638 Q151.142 494.324 151.142 498.814 Q151.142 500.944 150.332 502.865 Q149.545 504.763 147.439 507.356 Q146.86 508.027 143.758 511.245 Q140.656 514.439 135.008 520.203 Z" fill="#000000" fill-rule="evenodd" fill-opacity="1" /><path clip-path="url(#clip770)" d="M 0 0 M156.443 489.578 L174.8 489.578 L174.8 493.513 L160.726 493.513 L160.726 501.986 Q161.744 501.638 162.763 501.476 Q163.781 501.291 164.8 501.291 Q170.587 501.291 173.966 504.462 Q177.346 507.634 177.346 513.05 Q177.346 518.629 173.874 521.731 Q170.402 524.81 164.082 524.81 Q161.906 524.81 159.638 524.439 Q157.392 524.069 154.985 523.328 L154.985 518.629 Q157.068 519.763 159.291 520.319 Q161.513 520.874 163.99 520.874 Q167.994 520.874 170.332 518.768 Q172.67 516.661 172.67 513.05 Q172.67 509.439 170.332 507.333 Q167.994 505.226 163.99 505.226 Q162.115 505.226 160.24 505.643 Q158.388 506.06 156.443 506.939 L156.443 489.578 Z" fill="#000000" fill-rule="evenodd" fill-opacity="1" /><path clip-path="url(#clip770)" d="M 0 0 M102.416 345.344 Q98.8048 345.344 96.9761 348.909 Q95.1706 352.451 95.1706 359.58 Q95.1706 366.687 96.9761 370.251 Q98.8048 373.793 102.416 373.793 Q106.05 373.793 107.856 370.251 Q109.684 366.687 109.684 359.58 Q109.684 352.451 107.856 348.909 Q106.05 345.344 102.416 345.344 M102.416 341.64 Q108.226 341.64 111.282 346.247 Q114.36 350.83 114.36 359.58 Q114.36 368.307 111.282 372.913 Q108.226 377.497 102.416 377.497 Q96.6057 377.497 93.5271 372.913 Q90.4715 368.307 90.4715 359.58 Q90.4715 350.83 93.5271 346.247 Q96.6057 341.64 102.416 341.64 Z" fill="#000000" fill-rule="evenodd" fill-opacity="1" /><path clip-path="url(#clip770)" d="M 0 0 M119.43 370.946 L124.314 370.946 L124.314 376.825 L119.43 376.825 L119.43 370.946 Z" fill="#000000" fill-rule="evenodd" fill-opacity="1" /><path clip-path="url(#clip770)" d="M 0 0 M129.43 342.265 L147.786 342.265 L147.786 346.201 L133.712 346.201 L133.712 354.673 Q134.731 354.326 135.749 354.164 Q136.768 353.978 137.786 353.978 Q143.573 353.978 146.953 357.15 Q150.332 360.321 150.332 365.738 Q150.332 371.316 146.86 374.418 Q143.388 377.497 137.068 377.497 Q134.893 377.497 132.624 377.126 Q130.379 376.756 127.971 376.015 L127.971 371.316 Q130.055 372.45 132.277 373.006 Q134.499 373.562 136.976 373.562 Q140.981 373.562 143.318 371.455 Q145.656 369.349 145.656 365.738 Q145.656 362.126 143.318 360.02 Q140.981 357.913 136.976 357.913 Q135.101 357.913 133.226 358.33 Q131.374 358.747 129.43 359.626 L129.43 342.265 Z" fill="#000000" fill-rule="evenodd" fill-opacity="1" /><path clip-path="url(#clip770)" d="M 0 0 M165.402 345.344 Q161.791 345.344 159.962 348.909 Q158.156 352.451 158.156 359.58 Q158.156 366.687 159.962 370.251 Q161.791 373.793 165.402 373.793 Q169.036 373.793 170.841 370.251 Q172.67 366.687 172.67 359.58 Q172.67 352.451 170.841 348.909 Q169.036 345.344 165.402 345.344 M165.402 341.64 Q171.212 341.64 174.267 346.247 Q177.346 350.83 177.346 359.58 Q177.346 368.307 174.267 372.913 Q171.212 377.497 165.402 377.497 Q159.592 377.497 156.513 372.913 Q153.457 368.307 153.457 359.58 Q153.457 350.83 156.513 346.247 Q159.592 341.64 165.402 341.64 Z" fill="#000000" fill-rule="evenodd" fill-opacity="1" /><path clip-path="url(#clip770)" d="M 0 0 M103.319 198.031 Q99.7076 198.031 97.8789 201.596 Q96.0733 205.138 96.0733 212.267 Q96.0733 219.374 97.8789 222.939 Q99.7076 226.48 103.319 226.48 Q106.953 226.48 108.758 222.939 Q110.587 219.374 110.587 212.267 Q110.587 205.138 108.758 201.596 Q106.953 198.031 103.319 198.031 M103.319 194.328 Q109.129 194.328 112.184 198.934 Q115.263 203.517 115.263 212.267 Q115.263 220.994 112.184 225.601 Q109.129 230.184 103.319 230.184 Q97.5085 230.184 94.4298 225.601 Q91.3743 220.994 91.3743 212.267 Q91.3743 203.517 94.4298 198.934 Q97.5085 194.328 103.319 194.328 Z" fill="#000000" fill-rule="evenodd" fill-opacity="1" /><path clip-path="url(#clip770)" d="M 0 0 M120.332 223.633 L125.217 223.633 L125.217 229.513 L120.332 229.513 L120.332 223.633 Z" fill="#000000" fill-rule="evenodd" fill-opacity="1" /><path clip-path="url(#clip770)" d="M 0 0 M129.106 194.953 L151.328 194.953 L151.328 196.943 L138.781 229.513 L133.897 229.513 L145.703 198.888 L129.106 198.888 L129.106 194.953 Z" fill="#000000" fill-rule="evenodd" fill-opacity="1" /><path clip-path="url(#clip770)" d="M 0 0 M156.443 194.953 L174.8 194.953 L174.8 198.888 L160.726 198.888 L160.726 207.36 Q161.744 207.013 162.763 206.851 Q163.781 206.666 164.8 206.666 Q170.587 206.666 173.966 209.837 Q177.346 213.008 177.346 218.425 Q177.346 224.003 173.874 227.105 Q170.402 230.184 164.082 230.184 Q161.906 230.184 159.638 229.814 Q157.392 229.443 154.985 228.702 L154.985 224.003 Q157.068 225.138 159.291 225.693 Q161.513 226.249 163.99 226.249 Q167.994 226.249 170.332 224.142 Q172.67 222.036 172.67 218.425 Q172.67 214.814 170.332 212.707 Q167.994 210.601 163.99 210.601 Q162.115 210.601 160.24 211.017 Q158.388 211.434 156.443 212.314 L156.443 194.953 Z" fill="#000000" fill-rule="evenodd" fill-opacity="1" /><path clip-path="url(#clip770)" d="M 0 0 M93.4576 78.2647 L101.096 78.2647 L101.096 51.8991 L92.7863 53.5658 L92.7863 49.3065 L101.05 47.6399 L105.726 47.6399 L105.726 78.2647 L113.365 78.2647 L113.365 82.1999 L93.4576 82.1999 L93.4576 78.2647 Z" fill="#000000" fill-rule="evenodd" fill-opacity="1" /><path clip-path="url(#clip770)" d="M 0 0 M118.434 76.3203 L123.319 76.3203 L123.319 82.1999 L118.434 82.1999 L118.434 76.3203 Z" fill="#000000" fill-rule="evenodd" fill-opacity="1" /><path clip-path="url(#clip770)" d="M 0 0 M138.388 50.7185 Q134.777 50.7185 132.948 54.2833 Q131.143 57.825 131.143 64.9546 Q131.143 72.061 132.948 75.6258 Q134.777 79.1675 138.388 79.1675 Q142.022 79.1675 143.828 75.6258 Q145.656 72.061 145.656 64.9546 Q145.656 57.825 143.828 54.2833 Q142.022 50.7185 138.388 50.7185 M138.388 47.0149 Q144.198 47.0149 147.254 51.6213 Q150.332 56.2046 150.332 64.9546 Q150.332 73.6814 147.254 78.2878 Q144.198 82.8712 138.388 82.8712 Q132.578 82.8712 129.499 78.2878 Q126.444 73.6814 126.444 64.9546 Q126.444 56.2046 129.499 51.6213 Q132.578 47.0149 138.388 47.0149 Z" fill="#000000" fill-rule="evenodd" fill-opacity="1" /><path clip-path="url(#clip770)" d="M 0 0 M165.402 50.7185 Q161.791 50.7185 159.962 54.2833 Q158.156 57.825 158.156 64.9546 Q158.156 72.061 159.962 75.6258 Q161.791 79.1675 165.402 79.1675 Q169.036 79.1675 170.841 75.6258 Q172.67 72.061 172.67 64.9546 Q172.67 57.825 170.841 54.2833 Q169.036 50.7185 165.402 50.7185 M165.402 47.0149 Q171.212 47.0149 174.267 51.6213 Q177.346 56.2046 177.346 64.9546 Q177.346 73.6814 174.267 78.2878 Q171.212 82.8712 165.402 82.8712 Q159.592 82.8712 156.513 78.2878 Q153.457 73.6814 153.457 64.9546 Q153.457 56.2046 156.513 51.6213 Q159.592 47.0149 165.402 47.0149 Z" fill="#000000" fill-rule="evenodd" fill-opacity="1" /><path clip-path="url(#clip770)" d="M 0 0 M45.2193 548.635 L58.9692 548.635 L58.9692 552.918 L23.1824 552.918 L23.1824 548.635 L27.1175 548.635 Q24.8027 547.293 23.6916 545.256 Q22.5574 543.196 22.5574 540.348 Q22.5574 535.626 26.3074 532.686 Q30.0573 529.723 36.1684 529.723 Q42.2795 529.723 46.0295 532.686 Q49.7795 535.626 49.7795 540.348 Q49.7795 543.196 48.6683 545.256 Q47.5341 547.293 45.2193 548.635 M36.1684 534.145 Q31.4694 534.145 28.8073 536.089 Q26.1222 538.01 26.1222 541.39 Q26.1222 544.77 28.8073 546.714 Q31.4694 548.635 36.1684 548.635 Q40.8675 548.635 43.5526 546.714 Q46.2147 544.77 46.2147 541.39 Q46.2147 538.01 43.5526 536.089 Q40.8675 534.145 36.1684 534.145 Z" fill="#000000" fill-rule="evenodd" fill-opacity="1" /><path clip-path="url(#clip770)" d="M 0 0 M27.1638 510.233 Q26.7472 510.95 26.562 511.807 Q26.3536 512.64 26.3536 513.659 Q26.3536 517.27 28.7147 519.214 Q31.0527 521.135 35.4508 521.135 L49.1082 521.135 L49.1082 525.418 L23.1824 525.418 L23.1824 521.135 L27.2101 521.135 Q24.849 519.793 23.7148 517.64 Q22.5574 515.487 22.5574 512.409 Q22.5574 511.969 22.6268 511.436 Q22.6731 510.904 22.7889 510.256 L27.1638 510.233 Z" fill="#000000" fill-rule="evenodd" fill-opacity="1" /><path clip-path="url(#clip770)" d="M 0 0 M26.1685 496.761 Q26.1685 500.187 28.8536 502.177 Q31.5157 504.168 36.1684 504.168 Q40.8212 504.168 43.5063 502.2 Q46.1684 500.21 46.1684 496.761 Q46.1684 493.358 43.4832 491.367 Q40.798 489.376 36.1684 489.376 Q31.562 489.376 28.8768 491.367 Q26.1685 493.358 26.1685 496.761 M22.5574 496.761 Q22.5574 491.205 26.1685 488.034 Q29.7796 484.863 36.1684 484.863 Q42.5341 484.863 46.1684 488.034 Q49.7795 491.205 49.7795 496.761 Q49.7795 502.339 46.1684 505.511 Q42.5341 508.659 36.1684 508.659 Q29.7796 508.659 26.1685 505.511 Q22.5574 502.339 22.5574 496.761 Z" fill="#000000" fill-rule="evenodd" fill-opacity="1" /><path clip-path="url(#clip770)" d="M 0 0 M36.1684 461.784 Q31.4694 461.784 28.8073 463.728 Q26.1222 465.65 26.1222 469.029 Q26.1222 472.409 28.8073 474.353 Q31.4694 476.275 36.1684 476.275 Q40.8675 476.275 43.5526 474.353 Q46.2147 472.409 46.2147 469.029 Q46.2147 465.65 43.5526 463.728 Q40.8675 461.784 36.1684 461.784 M27.1175 476.275 Q24.8027 474.932 23.6916 472.895 Q22.5574 470.835 22.5574 467.988 Q22.5574 463.265 26.3074 460.326 Q30.0573 457.363 36.1684 457.363 Q42.2795 457.363 46.0295 460.326 Q49.7795 463.265 49.7795 467.988 Q49.7795 470.835 48.6683 472.895 Q47.5341 474.932 45.2193 476.275 L49.1082 476.275 L49.1082 480.557 L13.0898 480.557 L13.0898 476.275 L27.1175 476.275 Z" fill="#000000" fill-rule="evenodd" fill-opacity="1" /><path clip-path="url(#clip770)" d="M 0 0 M36.0758 441.113 Q36.0758 446.275 37.2564 448.265 Q38.4369 450.256 41.2841 450.256 Q43.5526 450.256 44.8952 448.775 Q46.2147 447.27 46.2147 444.701 Q46.2147 441.159 43.7147 439.029 Q41.1915 436.877 37.0249 436.877 L36.0758 436.877 L36.0758 441.113 M34.3166 432.617 L49.1082 432.617 L49.1082 436.877 L45.173 436.877 Q47.5341 438.335 48.6683 440.511 Q49.7795 442.687 49.7795 445.835 Q49.7795 449.816 47.5572 452.178 Q45.3119 454.515 41.5619 454.515 Q37.1869 454.515 34.9647 451.599 Q32.7425 448.659 32.7425 442.849 L32.7425 436.877 L32.3258 436.877 Q29.386 436.877 27.7888 438.821 Q26.1685 440.742 26.1685 444.238 Q26.1685 446.46 26.7009 448.566 Q27.2333 450.673 28.2981 452.617 L24.3629 452.617 Q23.4601 450.279 23.0203 448.08 Q22.5574 445.881 22.5574 443.798 Q22.5574 438.173 25.474 435.395 Q28.3907 432.617 34.3166 432.617 Z" fill="#000000" fill-rule="evenodd" fill-opacity="1" /><path clip-path="url(#clip770)" d="M 0 0 M36.1684 409.539 Q31.4694 409.539 28.8073 411.483 Q26.1222 413.405 26.1222 416.784 Q26.1222 420.164 28.8073 422.108 Q31.4694 424.03 36.1684 424.03 Q40.8675 424.03 43.5526 422.108 Q46.2147 420.164 46.2147 416.784 Q46.2147 413.405 43.5526 411.483 Q40.8675 409.539 36.1684 409.539 M27.1175 424.03 Q24.8027 422.687 23.6916 420.65 Q22.5574 418.59 22.5574 415.743 Q22.5574 411.02 26.3074 408.081 Q30.0573 405.118 36.1684 405.118 Q42.2795 405.118 46.0295 408.081 Q49.7795 411.02 49.7795 415.743 Q49.7795 418.59 48.6683 420.65 Q47.5341 422.687 45.2193 424.03 L49.1082 424.03 L49.1082 428.312 L13.0898 428.312 L13.0898 424.03 L27.1175 424.03 Z" fill="#000000" fill-rule="evenodd" fill-opacity="1" /><path clip-path="url(#clip770)" d="M 0 0 M23.1824 400.65 L23.1824 396.391 L49.1082 396.391 L49.1082 400.65 L23.1824 400.65 M13.0898 400.65 L13.0898 396.391 L18.4833 396.391 L18.4833 400.65 L13.0898 400.65 Z" fill="#000000" fill-rule="evenodd" fill-opacity="1" /><path clip-path="url(#clip770)" d="M 0 0 M13.0898 391.923 L13.0898 387.664 L49.1082 387.664 L49.1082 391.923 L13.0898 391.923 Z" fill="#000000" fill-rule="evenodd" fill-opacity="1" /><path clip-path="url(#clip770)" d="M 0 0 M23.1824 383.196 L23.1824 378.937 L49.1082 378.937 L49.1082 383.196 L23.1824 383.196 M13.0898 383.196 L13.0898 378.937 L18.4833 378.937 L18.4833 383.196 L13.0898 383.196 Z" fill="#000000" fill-rule="evenodd" fill-opacity="1" /><path clip-path="url(#clip770)" d="M 0 0 M15.8213 370.257 L23.1824 370.257 L23.1824 361.484 L26.4925 361.484 L26.4925 370.257 L40.5665 370.257 Q43.7378 370.257 44.6406 369.4 Q45.5434 368.521 45.5434 365.859 L45.5434 361.484 L49.1082 361.484 L49.1082 365.859 Q49.1082 370.789 47.2795 372.664 Q45.4276 374.539 40.5665 374.539 L26.4925 374.539 L26.4925 377.664 L23.1824 377.664 L23.1824 374.539 L15.8213 374.539 L15.8213 370.257 Z" fill="#000000" fill-rule="evenodd" fill-opacity="1" /><path clip-path="url(#clip770)" d="M 0 0 M51.5156 346.229 Q56.1452 348.035 57.5572 349.748 Q58.9692 351.46 58.9692 354.331 L58.9692 357.734 L55.4044 357.734 L55.4044 355.234 Q55.4044 353.474 54.5711 352.502 Q53.7378 351.53 50.6359 350.349 L48.6915 349.585 L23.1824 360.072 L23.1824 355.558 L43.46 347.456 L23.1824 339.354 L23.1824 334.84 L51.5156 346.229 Z" fill="#000000" fill-rule="evenodd" fill-opacity="1" /><path clip-path="url(#clip770)" d="M 0 0 M27.1175 298.243 L13.0898 298.243 L13.0898 293.984 L49.1082 293.984 L49.1082 298.243 L45.2193 298.243 Q47.5341 299.586 48.6683 301.646 Q49.7795 303.683 49.7795 306.553 Q49.7795 311.252 46.0295 314.215 Q42.2795 317.155 36.1684 317.155 Q30.0573 317.155 26.3074 314.215 Q22.5574 311.252 22.5574 306.553 Q22.5574 303.683 23.6916 301.646 Q24.8027 299.586 27.1175 298.243 M36.1684 312.757 Q40.8675 312.757 43.5526 310.836 Q46.2147 308.891 46.2147 305.512 Q46.2147 302.132 43.5526 300.188 Q40.8675 298.243 36.1684 298.243 Q31.4694 298.243 28.8073 300.188 Q26.1222 302.132 26.1222 305.512 Q26.1222 308.891 28.8073 310.836 Q31.4694 312.757 36.1684 312.757 Z" fill="#000000" fill-rule="evenodd" fill-opacity="1" /><path clip-path="url(#clip770)" d="M 0 0 M35.0805 267.341 L37.1638 267.341 L37.1638 286.924 Q41.5619 286.646 43.8767 284.285 Q46.1684 281.901 46.1684 277.665 Q46.1684 275.211 45.5665 272.919 Q44.9647 270.604 43.761 268.336 L47.7887 268.336 Q48.7609 270.628 49.2702 273.035 Q49.7795 275.442 49.7795 277.919 Q49.7795 284.123 46.1684 287.757 Q42.5573 291.368 36.3999 291.368 Q30.0342 291.368 26.3074 287.942 Q22.5574 284.493 22.5574 278.66 Q22.5574 273.428 25.937 270.396 Q29.2934 267.341 35.0805 267.341 M33.8305 271.6 Q30.3351 271.646 28.2518 273.567 Q26.1685 275.465 26.1685 278.614 Q26.1685 282.178 28.1823 284.331 Q30.1962 286.461 33.8536 286.785 L33.8305 271.6 Z" fill="#000000" fill-rule="evenodd" fill-opacity="1" /><path clip-path="url(#clip770)" d="M 0 0 M33.4601 241.322 L49.1082 241.322 L49.1082 245.581 L33.599 245.581 Q29.9184 245.581 28.0898 247.017 Q26.2611 248.452 26.2611 251.322 Q26.2611 254.771 28.4601 256.762 Q30.6592 258.753 34.4555 258.753 L49.1082 258.753 L49.1082 263.035 L23.1824 263.035 L23.1824 258.753 L27.2101 258.753 Q24.8722 257.225 23.7148 255.165 Q22.5574 253.081 22.5574 250.373 Q22.5574 245.905 25.3351 243.614 Q28.0898 241.322 33.4601 241.322 Z" fill="#000000" fill-rule="evenodd" fill-opacity="1" /><path clip-path="url(#clip770)" d="M 0 0 M23.9463 220.327 L27.974 220.327 Q27.0481 222.132 26.5851 224.077 Q26.1222 226.021 26.1222 228.105 Q26.1222 231.276 27.0944 232.873 Q28.0666 234.447 30.011 234.447 Q31.4925 234.447 32.349 233.313 Q33.1823 232.179 33.9462 228.753 L34.2703 227.294 Q35.2425 222.757 37.0249 220.859 Q38.7841 218.938 41.9554 218.938 Q45.5665 218.938 47.673 221.808 Q49.7795 224.656 49.7795 229.656 Q49.7795 231.739 49.3628 234.007 Q48.9693 236.253 48.1591 238.753 L43.761 238.753 Q44.9878 236.392 45.6128 234.1 Q46.2147 231.808 46.2147 229.563 Q46.2147 226.554 45.1961 224.933 Q44.1545 223.313 42.2795 223.313 Q40.5434 223.313 39.6175 224.494 Q38.6915 225.651 37.8351 229.609 L37.4878 231.091 Q36.6545 235.049 34.9416 236.808 Q33.2055 238.568 30.1962 238.568 Q26.5388 238.568 24.5481 235.975 Q22.5574 233.382 22.5574 228.614 Q22.5574 226.253 22.9046 224.169 Q23.2518 222.086 23.9463 220.327 Z" fill="#000000" fill-rule="evenodd" fill-opacity="1" /><path clip-path="url(#clip770)" d="M 0 0 M23.1824 214.47 L23.1824 210.211 L49.1082 210.211 L49.1082 214.47 L23.1824 214.47 M13.0898 214.47 L13.0898 210.211 L18.4833 210.211 L18.4833 214.47 L13.0898 214.47 Z" fill="#000000" fill-rule="evenodd" fill-opacity="1" /><path clip-path="url(#clip770)" d="M 0 0 M15.8213 201.531 L23.1824 201.531 L23.1824 192.758 L26.4925 192.758 L26.4925 201.531 L40.5665 201.531 Q43.7378 201.531 44.6406 200.674 Q45.5434 199.795 45.5434 197.133 L45.5434 192.758 L49.1082 192.758 L49.1082 197.133 Q49.1082 202.063 47.2795 203.938 Q45.4276 205.813 40.5665 205.813 L26.4925 205.813 L26.4925 208.938 L23.1824 208.938 L23.1824 205.813 L15.8213 205.813 L15.8213 201.531 Z" fill="#000000" fill-rule="evenodd" fill-opacity="1" /><path clip-path="url(#clip770)" d="M 0 0 M51.5156 177.503 Q56.1452 179.309 57.5572 181.022 Q58.9692 182.735 58.9692 185.605 L58.9692 189.008 L55.4044 189.008 L55.4044 186.508 Q55.4044 184.748 54.5711 183.776 Q53.7378 182.804 50.6359 181.623 L48.6915 180.86 L23.1824 191.346 L23.1824 186.832 L43.46 178.73 L23.1824 170.628 L23.1824 166.114 L51.5156 177.503 Z" fill="#000000" fill-rule="evenodd" fill-opacity="1" /><polyline clip-path="url(#clip772)" style="stroke:#009af9; stroke-width:4; stroke-opacity:1; fill:none" points="
  207.346,64.9199 215.196,78.0223 223.045,90.8333 230.895,103.36 238.745,115.607 275.036,168.785 311.326,216.711 347.617,259.906 383.908,298.835 420.199,333.921 
  456.49,365.542 492.78,394.041 529.071,419.726 572.69,447.264 616.308,471.568 659.927,493.016 703.545,511.946 777.303,539.034 851.061,560.963 931.182,580.079 
  1011.3,595.274 1085.17,606.506 1159.03,615.596 1317.42,629.666 1500.92,639.685 1663.99,645.091 1806.99,648.143 1962.9,650.314 2119.74,651.71 2293.14,652.674 
  2458.13,653.238 2629.68,653.6 2774.09,653.793 2950.4,653.943 3116.13,654.029 3381.65,654.105 3422.51,654.112 
  "/>
<polyline clip-path="url(#clip772)" style="stroke:#000000; stroke-width:4; stroke-opacity:1; fill:none" points="
  348.887,1296.33 348.887,-577.3 
  "/>
<polyline clip-path="url(#clip772)" style="stroke:#000000; stroke-width:4; stroke-opacity:1; fill:none" points="
  590.852,1296.33 590.852,-577.3 
  "/>
<polyline clip-path="url(#clip772)" style="stroke:#3da44d; stroke-width:4; stroke-opacity:1; fill:none" stroke-dasharray="2, 4" points="
  270.991,1296.33 270.991,-577.3 
  "/>
<polyline clip-path="url(#clip772)" style="stroke:#3da44d; stroke-width:4; stroke-opacity:1; fill:none" stroke-dasharray="2, 4" points="
  449.311,1296.33 449.311,-577.3 
  "/>
<polyline clip-path="url(#clip772)" style="stroke:#3da44d; stroke-width:4; stroke-opacity:1; fill:none" stroke-dasharray="2, 4" points="
  832.817,1296.33 832.817,-577.3 
  "/>
</svg>
